/* XPM */
static char *result[] = {
/* columns rows colors chars-per-pixel */
"64 64 226 2 ",
"   c #160D16",
".  c #1B121D",
"X  c #1E1520",
"o  c #221922",
"O  c #261924",
"+  c #28242A",
"@  c #392D2D",
"#  c #2B2732",
"$  c #352D38",
"%  c #393438",
"&  c #492F1A",
"*  c #673B1A",
"=  c #4A3A2A",
"-  c #573A2A",
";  c #453638",
":  c #533D32",
">  c #643C30",
",  c #77441F",
"<  c #55442E",
"1  c #484339",
"2  c #54433D",
"3  c #584536",
"4  c #64422B",
"5  c #674635",
"6  c #7B4E35",
"7  c #7D5538",
"8  c #7D4A2D",
"9  c #3B3942",
"0  c #433C44",
"q  c #3E404C",
"w  c #494449",
"e  c #544C4E",
"r  c #594A45",
"t  c #5D534A",
"y  c #464A53",
"u  c #4C4D55",
"i  c #494B56",
"p  c #544D54",
"a  c #5B4E54",
"s  c #524F5B",
"d  c #49535C",
"f  c #565256",
"g  c #595355",
"h  c #54525B",
"j  c #5A565D",
"k  c #575B5A",
"l  c #644A45",
"z  c #63544E",
"x  c #69584B",
"c  c #775748",
"v  c #684D54",
"b  c #645252",
"n  c #645B5D",
"m  c #6A5C5B",
"M  c #675854",
"N  c #765857",
"B  c #5C655B",
"V  c #7A634D",
"C  c #69625B",
"Z  c #796657",
"A  c #74705E",
"S  c #4D5761",
"D  c #555461",
"F  c #535C65",
"G  c #5C5B63",
"H  c #5A5C69",
"J  c #635C63",
"K  c #665D67",
"L  c #745D63",
"P  c #5D626B",
"I  c #586368",
"U  c #5E6A74",
"Y  c #5B6674",
"T  c #6C6463",
"R  c #64646C",
"E  c #6B646D",
"W  c #666767",
"Q  c #726263",
"!  c #77696A",
"~  c #626572",
"^  c #646B75",
"/  c #6B6C75",
"(  c #646D79",
")  c #6B6E7B",
"_  c #736E77",
"`  c #65727B",
"'  c #6B727C",
"]  c #6A7377",
"[  c #73737B",
"{  c #76747A",
"}  c #66706F",
"|  c #895638",
" . c #8D5132",
".. c #91603F",
"X. c #845B46",
"o. c #925C49",
"O. c #905F51",
"+. c #A95E47",
"@. c #88624A",
"#. c #986445",
"$. c #896657",
"%. c #976957",
"&. c #997559",
"*. c #A76745",
"=. c #A8754D",
"-. c #B9774A",
";. c #AA755A",
":. c #A87759",
">. c #BA7957",
",. c #B46946",
"<. c #866B67",
"1. c #946C67",
"2. c #877768",
"3. c #977864",
"4. c #867877",
"5. c #917171",
"6. c #A67C68",
"7. c #B27E62",
"8. c #BC8257",
"9. c #9D8176",
"0. c #9D826B",
"q. c #A88368",
"w. c #B68768",
"e. c #A88678",
"r. c #B58B78",
"t. c #BD947B",
"y. c #B69277",
"u. c #AE9376",
"i. c #C9895E",
"p. c #D28C59",
"a. c #DD915F",
"s. c #C78666",
"d. c #CA9371",
"f. c #C59B7C",
"g. c #C89778",
"h. c #D69C76",
"j. c #D2936D",
"k. c #E19D7B",
"l. c #DAA57A",
"z. c #DBA06F",
"x. c #ECA26B",
"c. c #E4A87E",
"v. c #F1AF77",
"b. c #6C7583",
"n. c #6D7884",
"m. c #717682",
"M. c #737A85",
"N. c #747C89",
"B. c #7A7D8B",
"V. c #7A7A83",
"C. c #817E85",
"Z. c #937D80",
"A. c #77838D",
"S. c #7A828D",
"D. c #788086",
"F. c #7C8592",
"G. c #7D8993",
"H. c #778393",
"J. c #83838B",
"K. c #8B8487",
"L. c #9A898A",
"P. c #838693",
"I. c #838A95",
"U. c #848A98",
"Y. c #8B939B",
"T. c #899396",
"R. c #93949D",
"E. c #9B9591",
"W. c #918E97",
"Q. c #A98D86",
"!. c #B79788",
"~. c #A99796",
"^. c #B1948C",
"/. c #AFA596",
"(. c #B9A39A",
"). c #9B9BA4",
"_. c #8A92A1",
"`. c #95A0A2",
"'. c #AAA9AB",
"]. c #A9AEB2",
"[. c #B3AEB2",
"{. c #B5B4B9",
"}. c #BAB8BB",
"|. c #B4B3B4",
" X c #C69984",
".X c #C29C93",
"XX c #D19687",
"oX c #DAAB89",
"OX c #C7A391",
"+X c #D8A590",
"@X c #D4AE90",
"#X c #E3AC85",
"$X c #E9B688",
"%X c #F2BA8A",
"&X c #E8B695",
"*X c #F1B28D",
"=X c #C7BAB8",
"-X c #D1B8AF",
";X c #E2BBA4",
":X c #F9C386",
">X c #F8C397",
",X c #D4C2B6",
"<X c #E2C1A7",
"1X c #F8CBA5",
"2X c #C5BEC4",
"3X c #CBC6CA",
"4X c #C2C7CC",
"5X c #D9D6CD",
"6X c #CCD1D6",
"7X c #D9D7D9",
"8X c #D5CDCF",
"9X c #E7D7C8",
"0X c #E8DBD8",
"qX c #EED5CF",
"wX c #E7E1DB",
"eX c #F3E0D9",
"rX c #E2DFEA",
"tX c #E4E3E5",
"yX c #E8E6EC",
"uX c #EEEDF2",
"iX c #E7EDF0",
"pX c #F2EEF4",
"aX c #EDF2F5",
"sX c #F6F7FA",
"dX c #F7F1EF",
"fX c #ADD8E6",
/* pixels */
"fXfXfXfXfXfXfXfXfXfXfXfXfXfXfXfXfXfXfXfXfXfXfXfXfXfXfXfXfXfXfXfXfXfXfXfXfXfXfXfXfXfXfXfXfXfXfXfXfXfXfXfXfXfXfXfXfXfXfXfXfXfXfXfX",
"fXfXfXfXfXfXfXfXfXfXfXfXfXfXfXfXfXfXfXfXfXfXfXfXfXfXfXfXfXfXfXfXfXfXfXfXfXfXfXfXfXfXfXfXfXfXfXfXfXfXfXfXfXfXfXfXfXfXfXfXfXfXfXfX",
"fXfXfXfXfXfXfXfXfXfXfXfXfXfXfXfXfXfXfXfXfXfXfXfXfXfXfXfXfXfXfXfXfXfXfXfXfXfXfXfXfXfXfXfXfXfXfXfXfXfXfXfXfXfXfXfXfXfXfXfXfXfXfXfX",
"fXfXfXfXfXfXfXfXfXfXfXfXfXfXfXfXfXfXfXfXfXfXfXfXfXfXfXfXfXfXfXfXfXfXfXfXfXfXfXfXfXfXfXfXfXfXfXfXfXfXfXfXfXfXfXfXfXfXfXfXfXfXfXfX",
"fXfXfXfXfXfXfXfXfXfXfXfXfXfXfXfXfXfXfXfXfXfXfXfXfXfXfXfXJ.J._ R fXfXfXfXfXfXfXfXfXfXfXfXfXfXfXfXfXfXfXfXfXfXfXfXfXfXfXfXfXfXfXfX",
"fXfXfXfXfXfXfXfXfXfXfXfXfXfXfXfXfXfXfXfXfXfXfXfXfX/ J.R.).P.[ / j fXfXfXfXfXfXfXfXfXfXfXfXfXfXfXfXfXfXfXfXfXfXfXfXfXfXfXfXfXfXfX",
"fXfXfXfXfXfXfXfXfXfXfXfXfXfXfXfXfXfXfXfXfXfXfX_ { { C.V.W G R j J 0 fXfXfXfXfXfXfXfXfXfXfXfXfXfXfXfXfXfXfXfXfXfXfXfXfXfXfXfXfXfX",
"fXfXfXfXfXfXfXfXfXfXfXfXfXfXfXfXfXfXfXfXfXfXp a g p 0 % % % w e w a 0 fXfXfXfXfXfXfXfXfXfXfXfXfXfXfXfXfXfXfXfXfXfXfXfXfXfXfXfXfX",
"fXfXfXfXfXfXfXfXfXfXfXfXfXfXfXfXfXfXfXfXfXfX% ; % @ @ % r e 1 e w 0 a fXfXfXfXfXfXfXfXfXfXfXfXfXfXfXfXfXfXfXfXfXfXfXfXfXfXfXfXfX",
"fXfXfXfXfXfXfXfXfXfXfXfXfXfXfXfXfXfXfXQ Q Q v : < 2 3 2 t M z m m n m ! K.K.fXfXfXfXfXfXfXfXfXfXfXfXfXfXfXfXfXfXfXfXfXfXfXfXfXfX",
"fXfXfXfXfXfXfXfXfXfXfXfXfXfXfXfXfXfXfXb M r 5 5 5 4 0.2.$.0.C A 4.! n 4.fXfXfXfXfXfXfXfXfXfXfXfXfXfXfXfXfXfXfXfXfXfXfXfXfXfXfXfX",
"fXfXfXfXfXfXfXfXfXfXfXfXfXfXfXfXfXfXfXfXfXe.e.6.| , f.@X<X0.V <X^.2.L.fXfXfXfXfXfXfXfXfXfXfXfXfXfXfXfXfXfXfXfXfXfXfXfXfXfXfXfXfX",
"fXfXfXfXfXfXfXfXfXfXfXfXfXfXfXfXfXfXfXfXfXQ. X7.=.*.h.oX@X:.&.<X!.9.(.fXfXfXfXfXfXfXfXfXfXfXfXfXfXfXfXfXfXfXfXfXfXfXfXfXfXfXfXfX",
"fXfXfXfXfXfXfXfXfXfXfXfXfXfXfXfXfXfXfXfXfX.X6.;.s.l.c.%X>X>Xf.!.OXe.^.fXfXfXfXfXfXfXfXfXfXfXfXfXfXfXfXfXfXfXfXfXfXfXfXfXfXfXfXfX",
"fXfXfXfXfXfXfXfXfXfXfXfXfXfXfXfXfXE _ ! 5.-X X6.>.h.z.%Xz.8.oXoX X!.fXfXfXfXfXfXfXfXfXfXfXfXfXfXfXfXfXfXfXfXfXfXfXfXfXfXfXfXfXfX",
"fXfXfXfXfXfXfXfXfXfXfXfXfX[.2X3X2X[.C.! K ~.qXOX&.d.c.c.v.=.-.d.y.&.e.fXfXfXfXfXfXfXfXfXfXfXfXfXfXfXfXfXfXfXfXfXfXfXfXfXfXfXfXfX",
"fXfXfXfXfXfXfXfXfXfXfX3XrXpXyXpXyX6X6XH.~ C ~.qX!.&.8.g.%X%X*XXX@X3.9.~.fXfXfXfXfXfXfXfXfXfXfXfXfXfXfXfXfXfXfXfXfXfXfXfXfXfXfXfX",
"fXfXfXfXfXfXfXfXfXfX}.tXuXyXuXtXaX6X4X].( { n |.qX/.0.&. X&X;X;XOXN <.0XfXfXfXfXfXfXfXfXfXfXfXfXfXfXfXfXfXfXfXfXfXfXfXfXfXfXfXfX",
"fXfXfXfXfXfXfXfXfXfX{.pXyXpXpXyXaXsX].4XY.I ] C 5XeX,X(.u.q.6..X(.M L 0X3XfXfXfXfXfXfXfXfXfXfXfXfXfXfXfXfXfXfXfXfXfXfXfXfXfXfXfX",
"fXfXfXfXfXfXfXfXfXfX}.pXtXyXtXyXaXsX].6X`.} } } W.tXdX-X1.<.^.eX(.K _ 6X7XfXfXfXfXfXfXfXfXfXfXfXfXfXfXfXfXfXfXfXfXfXfXfXfXfXfXfX",
"fXfXfXfXfXfXfXfXfXfX}.sXiXsXaXsXsXsX].6XY.B F B k }.}.Z.N N 5.(./ j E rX6X).fXfXfXfXfXfXfXfXfXfXfXfXfXfXfXfXfXfXfXfXfXfXfXfXfXfX",
"fXfXfXfXfXfXfXfXfXfX).'.].}.}.}.}.{.'.3X} % k % f C L.L.v v L ! w e k R.{.} { 9.4.fX_ fXfXfXfXfXfXfXw p fXfXfXfXfXfXfXfXfXfXfXfX",
"fXfXfXfXfXfXfXfXfXfX|.5XwXwX7XtXtX0X/.4.e 2 r t M z b N v K v Q T W B C W 1 1 z t b x l b b b M T a p K E f fXfXfXfXfXfXfXfXfXfX",
"fXfXfXfXfXfXfXfXfXE.-XeX9X,X9X9X9X5X/.C 3 < < < = = : = : = ; r r t = 1 3 < & < & > - : - r M fXfXfXn n g fXfXfXfXfXfXfXfXfXfXfX",
"fXfXfXfXfXfXfXfXfXQ.e.r.g.t.r.t.u.q.&.@.@.$.@.7 V &...< 5 > c : C Z < V y.&.* ..+.8 7.r.;.5.fXfXfXfXfXfXfXfXfXfXfXfXfXfXfXfXfXfX",
"fXfXfXfXfXfXfXfXfX6 ;.&Xc.c.h.v.:X$Xg.w.%.#.#.#.d.oXl.=.7.;.%.: 2.2.< V oXd.>.>.a. .d.XX+Xt.fXfXfXfXfXfXfXfXfXfXfXfXfXfXfXfXfXfX",
"fXfXfXfXfXfXfXfX@.;.,.*Xx.v.v.v.:X:X>X1X=.8  ...l.c.j.l.oXoXOX5 t A 5 X.+Xj.l.,.>.+.j.+Xg.X.fXfXfXfXfXfXfXfXfXfXfXfXfXfXfXfXfXfX",
"fXfXfXfXfXfXfXfX .s.-.a.x.x.x.v.:X$X:X1X&.t.oX8.=.j.c.oXoXw.N x Q Q.x 7 +XXXj.*.+.s.+X X6.fXfXfXfXfXfXfXfXfXfXfXfXfXfXfXfXfXfXfX",
"fXfXfXfXfXfXfXfX8 8.p.-.p.p.j.z.l.oX@X@X&.0.y.q.:.h.&Xg. X6.$.4.! Q.2 l e.O.o.o.o.XX X!.fXfXfXfXfXfXfXfXfXfXfXfXfXfXfXfXfXfXfXfX",
"fXfXfXfXfXfXfXfX7 d.d.i.=.| =.w.t.u.e.u.V = < %.t.@X+Xg..X$.-X4.L ! ; M fXfXfXfXfXN fXfXfXfXfXfXfXfXfXfXfXfXfXfXfXfXfXfXfXfXfXfX",
"fXfXfXfXfXfXfXfXc w.w.#.| fXc <.Q.(.,X/.A t x Z $.1.1.5.X.Z eX4.b K w fXfXfXfXfXfXfXfXfXfXfXfXfXfXfXfXfXfXfXfXfXfXfXfXfXfXfXfXfX",
"fXfXfXfXfXfXfXfX$.0.%.fXfXfXm L g C W k B k C A m L <.l b T E.4.a g e fXfXfXfXfXfXfXfXfXfXfXfXfXfXfXfXfXfXfXfXfXfXfXfXfXfXfXfXfX",
"fXfXfXfXfXfXfXfXfXfXfXfXfXfXK G h F H F F d F Y I W u G R h K fXfXfXfXfXfXfXfXfXfXfXfXfXfXfXfXfXfXfXfXfXfXfXfXfXfXfXfXfXfXfXfXfX",
"fXfXfXfXfXfXfXfXfXfXfXfXfXfXT ) ( Y ^ U Y I U S I d U ' y m.s fXfXfXfXfXfXfXfXfXfXfXfXfXfXfXfXfXfXfXfXfXfXfXfXfXfXfXfXfXfXfXfXfX",
"fXfXfXfXfXfXfXfXfXfXfXfXfXfXJ ) n.b.M.( ` ` U I U P F / S.J.D fXfXfXfXfXfXfXfXfXfXfXfXfXfXfXfXfXfXfXfXfXfXfXfXfXfXfXfXfXfXfXfXfX",
"fXfXfXfXfXfXfXfXfXfXfXfXfXfX~ _ M.F.A.n.N.A.U F b.I F N.^ ) m.s fXfXfXfXfXfXfXfXfXfXfXfXfXfXfXfXfXfXfXfXfXfXfXfXfXfXfXfXfXfXfXfX",
"fXfXfXfXfXfXfXfXfXfXfXfXfXfX/ ~ b.N.b.b.n.b.d I ` S Y ~ N.Y B.B.) / fXfXfXfXfXfXfXfXfXfXfXfXfXfXfXfXfXfXfXfXfXfXfXfXfXfXfXfXfXfX",
"fXfXfXfXfXfXfXfXfXfXfXfXfXfX/ b.M.B.B.H.A.A.d F ~ H ~ ) B.B.F.U.B.J.~ fXfXfXfXfXfXfXfXfXfXfXfXfXfXfXfXfXfXfXfXfXfXfXfXfXfXfXfXfX",
"fXfXfXfXfXfXfXfXfXfXfXfXfXfX/ ( N.U.H.H.H.A.H S 9 D R b.N.b._.G.B.W.B.V.R fXfXfXfXfXfXfXfXfXfXfXfXfXfXfXfXfXfXfXfXfXfXfXfXfXfXfX",
"fXfXfXfXfXfXfXfXfXfXfXfXfXfX/ ) B.G.N.G.G.N.H fXfXfXs _ b.n.B.H.F.B.S.T.[ h fXfXfXfXfXfXfXfXfXfXfXfXfXfXfXfXfXfXfXfXfXfXfXfXfXfX",
"fXfXfXfXfXfXfXfXfXfXfXfXfXfX/ ) N.H.G.G.A.A.U fXfXfXfXfXD b.b.B.b.H.G.M.) / G fXfXfXfXfXfXfXfXfXfXfXfXfXfXfXfXfXfXfXfXfXfXfXfXfX",
"fXfXfXfXfXfXfXfXfXfXfXfXfXfX) ^ H.Y.D.A.Y.A.I fXfXfXK 0 D P Y H b.b.) ^ / ) _ fXfXfXfXfXfXfXfXfXfXfXfXfXfXfXfXfXfXfXfXfXfXfXfXfX",
"fXfXfXfXfXfXfXfXfXfXfXfXfXfX_ ] ' G.G.G.A.T.W u H h E _ D ) Y b.n.N.U F.( R ] fXfXfXfXfXfXfXfXfXfXfXfXfXfXfXfXfXfXfXfXfXfXfXfXfX",
"fXfXfXfXfXfXfXfXfXfXfXfXfXfX} ^ ` b.` G.D.] P [ i K ^ ^ ~ b.B.B.H.G.F.P.U.S.R fXfXfXfXfXfXfXfXfXfXfXfXfXfXfXfXfXfXfXfXfXfXfXfXfX",
"fXfXfXfXfXfXfXfXfXfXfXfXfX/ ] ^ U ` U F U P k J.q q Y.D.M.y S._.H.H.D.I.S.V.fXfXfXfXfXfXfXfXfXfXfXfXfXfXfXfXfXfXfXfXfXfXfXfXfXfX",
"fXfXfXfXfXfXfXfXfXfXfXfXfXP _ ' U U n.( ] P _ / $ w { ).).~ P m.H.U.S.m.R fXfXfXfXfXfXfXfXfXfXfXfXfXfXfXfXfXfXfXfXfXfXfXfXfXfXfX",
"fXfXfXfXfXfXfXfXfXfXfXfX{ _ R ^ b.A.N.m.( y fXf 9 # J J.P.)./ R ~ / y fXfXfXfXfXfXfXfXfXfXfXfXfXfXfXfXfXfXfXfXfXfXfXfXfXfXfXfXfX",
"fXfXfXfXfXfXfXfXfXfXfX{ / P b.M.H.G.B.) H w y fXfXfXfX{ P.J./ u fXfXfXfXfXfXfXfXfXfXfXfXfXfXfXfXfXfXfXfXfXfXfXfXfXfXfXfXfXfXfXfX",
"fXfXfXfXfXfXfXfXfXfX/ { R ` S.H.P.B.B.~ i 9 fXfXfXfXfXfXfXfXfXfXfXfXfXfXfXfXfXfXfXfXfXfXfXfXfXfXfXfXfXfXfXfXfXfXfXfXfXfXfXfXfXfX",
"fXfXfXfXfXfXfXfXfXfXR / [ D.S.B.U.B.) i 9 fXfXfXfXfXfXfXfXfXfXfXfXfXfXfXfXfXfXfXfXfXfXfXfXfXfXfXfXfXfXfXfXfXfXfXfXfXfXfXfXfXfXfX",
"fXfXfXfXfXfXfXfXfXj m./ M.G.G.S.B.b.H fXfXfXfXfXfXfXfXfXfXfXfXfXfXfXfXfXfXfXfXfXfXfXfXfXfXfXfXfXfXfXfXfXfXfXfXfXfXfXfXfXfXfXfXfX",
"fXfXfXfXfXfXfXfXf K G ~ ^ ^ ` n.[ R fXfXfXfXfXfXfXfXfXfXfXfXfXfXfXfXfXfXfXfXfXfXfXfXfXfXfXfXfXfXfXfXfXfXfXfXfXfXfXfXfXfXfXfXfXfX",
"fXfXfXfXfXfXfXfXE _ K ( ` ( U ( ] H fXfXfXfXfXfXfXfXfXfXfXfXfXfXfXfXfXfXfXfXfXfXfXfXfXfXfXfXfXfXfXfXfXfXfXfXfXfXfXfXfXfXfXfXfXfX",
"fXfXfXfXfXfXfXK K _ _ V.R.Y.Y.Y.R.{ fXfXfXfXfXfXfXfXfXfXfXfXfXfXfXfXfXfXfXfXfXfXfXfXfXfXfXfXfXfXfXfXfXfXfXfXfXfXfXfXfXfXfXfXfXfX",
"fXfXfXfXfXfXfXw fXK ~ K K H u J E fXfXfXfXfXfXfXfXfXfXfXfXfXfXfXfXfXfXfXfXfXfXfXfXfXfXfXfXfXfXfXfXfXfXfXfXfXfXfXfXfXfXfXfXfXfXfX",
"fXfXfXfXfXfXfX0 $ $ $ $ # # $ + % fXfXfXfXfXfXfXfXfXfXfXfXfXfXfXfXfXfXfXfXfXfXfXfXfXfXfXfXfXfXfXfXfXfXfXfXfXfXfXfXfXfXfXfXfXfXfX",
"fXfXfXfXfXfXO o O O O . . . . X o $ fXfXfXfXfXfXfXfXfXfXfXfXfXfXfXfXfXfXfXfXfXfXfXfXfXfXfXfXfXfXfXfXfXfXfXfXfXfXfXfXfXfXfXfXfXfX",
"fXfXfXfXfXfXfX  .   fXfX    X + + # fXfXfXfXfXfXfXfXfXfXfXfXfXfXfXfXfXfXfXfXfXfXfXfXfXfXfXfXfXfXfXfXfXfXfXfXfXfXfXfXfXfXfXfXfXfX",
"fXfXfXfXfXfXfXfXfXfXfXfXfXfXfXfXfXfXfXfXfXfXfXfXfXfXfXfXfXfXfXfXfXfXfXfXfXfXfXfXfXfXfXfXfXfXfXfXfXfXfXfXfXfXfXfXfXfXfXfXfXfXfXfX",
"fXfXfXfXfXfXfXfXfXfXfXfXfXfXfXfXfXfXfXfXfXfXfXfXfXfXfXfXfXfXfXfXfXfXfXfXfXfXfXfXfXfXfXfXfXfXfXfXfXfXfXfXfXfXfXfXfXfXfXfXfXfXfXfX",
"fXfXfXfXfXfXfXfXfXfXfXfXfXfXfXfXfXfXfXfXfXfXfXfXfXfXfXfXfXfXfXfXfXfXfXfXfXfXfXfXfXfXfXfXfXfXfXfXfXfXfXfXfXfXfXfXfXfXfXfXfXfXfXfX",
"fXfXfXfXfXfXfXfXfXfXfXfXfXfXfXfXfXfXfXfXfXfXfXfXfXfXfXfXfXfXfXfXfXfXfXfXfXfXfXfXfXfXfXfXfXfXfXfXfXfXfXfXfXfXfXfXfXfXfXfXfXfXfXfX",
"fXfXfXfXfXfXfXfXfXfXfXfXfXfXfXfXfXfXfXfXfXfXfXfXfXfXfXfXfXfXfXfXfXfXfXfXfXfXfXfXfXfXfXfXfXfXfXfXfXfXfXfXfXfXfXfXfXfXfXfXfXfXfXfX",
"fXfXfXfXfXfXfXfXfXfXfXfXfXfXfXfXfXfXfXfXfXfXfXfXfXfXfXfXfXfXfXfXfXfXfXfXfXfXfXfXfXfXfXfXfXfXfXfXfXfXfXfXfXfXfXfXfXfXfXfXfXfXfXfX"
};
