/* XPM */
static char *result[] = {
/* columns rows colors chars-per-pixel */
"64 64 231 2 ",
"   c #140D12",
".  c #1A141A",
"X  c #181116",
"o  c #21161D",
"O  c #1E1920",
"+  c #231B22",
"@  c #281B25",
"#  c #2D252D",
"$  c #272128",
"%  c #2C2931",
"&  c #372C34",
"*  c #3B343C",
"=  c #373137",
"-  c #3B302F",
";  c #4C3929",
":  c #583C2B",
">  c #493736",
",  c #553C38",
"<  c #653922",
"1  c #5B3218",
"2  c #5A473B",
"3  c #514434",
"4  c #684C3B",
"5  c #795339",
"6  c #734F3F",
"7  c #3C3A44",
"8  c #453B43",
"9  c #454245",
"0  c #4D4C4D",
"q  c #4A4448",
"w  c #564948",
"e  c #5A524B",
"r  c #4B4B57",
"t  c #554D54",
"y  c #4C525C",
"u  c #4B5157",
"i  c #53545B",
"p  c #5E545B",
"a  c #5D5753",
"s  c #644B46",
"d  c #774B4C",
"f  c #68564C",
"g  c #74594A",
"h  c #655C5A",
"j  c #6B5B5D",
"k  c #695656",
"l  c #775858",
"z  c #794851",
"x  c #6B635A",
"c  c #776559",
"v  c #7D614A",
"b  c #4E5565",
"n  c #555A64",
"m  c #5B5C64",
"M  c #555D6B",
"N  c #5B5D6A",
"B  c #545662",
"V  c #5A5F72",
"C  c #635C62",
"Z  c #685B64",
"A  c #755D62",
"S  c #5C636C",
"D  c #5B636A",
"F  c #5E6973",
"G  c #5B6674",
"H  c #626265",
"J  c #6E6264",
"K  c #63636C",
"L  c #6B646A",
"P  c #65696B",
"I  c #776866",
"U  c #646574",
"Y  c #636B74",
"T  c #6B6A74",
"R  c #656D7A",
"E  c #6B6E7B",
"W  c #6B6775",
"Q  c #766C73",
"!  c #746E77",
"~  c #6C727C",
"^  c #67717A",
"/  c #73737C",
"(  c #777579",
")  c #86583C",
"_  c #915B3A",
"`  c #944E32",
"'  c #90613D",
"]  c #865B42",
"[  c #8F554E",
"{  c #A05A4D",
"}  c #886649",
"|  c #966949",
" . c #886957",
".. c #936A53",
"X. c #9A755A",
"o. c #96724F",
"O. c #A86646",
"+. c #A7744B",
"@. c #B57E4C",
"#. c #A36E5E",
"$. c #A47956",
"%. c #B26947",
"&. c #896965",
"*. c #867463",
"=. c #977969",
"-. c #897A76",
";. c #997E73",
":. c #906F71",
">. c #A87B69",
",. c #B67765",
"<. c #A47970",
"1. c #A9776E",
"2. c #C47E59",
"3. c #C77F65",
"4. c #BC855A",
"5. c #BD834D",
"6. c #99857A",
"7. c #B68964",
"8. c #A98977",
"9. c #B68775",
"0. c #BC9675",
"q. c #B6966E",
"w. c #C68C5A",
"e. c #D18C5D",
"r. c #CD955E",
"t. c #C7946A",
"y. c #DB9C69",
"u. c #CA9977",
"i. c #D59879",
"p. c #CC8972",
"a. c #E59A6A",
"s. c #CDA77E",
"d. c #D8AB7B",
"f. c #DDA36B",
"g. c #E6A36C",
"h. c #F4B26F",
"j. c #E7A578",
"k. c #F2AC75",
"l. c #E8B47A",
"z. c #FDBC7C",
"x. c #686E81",
"c. c #6D7383",
"v. c #6E7A83",
"b. c #667380",
"n. c #737583",
"m. c #737C85",
"M. c #7A7C85",
"N. c #747C8A",
"B. c #7B7D8B",
"V. c #747689",
"C. c #757E90",
"Z. c #847C83",
"A. c #9D7D84",
"S. c #76828D",
"D. c #7B838D",
"F. c #788187",
"G. c #7D8592",
"H. c #7E8992",
"J. c #868389",
"K. c #948783",
"L. c #828994",
"P. c #8D8D9C",
"I. c #868894",
"U. c #88919A",
"Y. c #96959D",
"T. c #988F94",
"R. c #A68886",
"E. c #B78A83",
"W. c #B99786",
"Q. c #A99C99",
"!. c #B79E94",
"~. c #A88D90",
"^. c #BAA59B",
"/. c #A4A39F",
"(. c #9899A3",
"). c #8D95A2",
"_. c #9FA1A6",
"`. c #A9A6A9",
"'. c #BEB3AD",
"]. c #B7B6B9",
"[. c #AEB0B7",
"{. c #AC9DA6",
"}. c #DA9E82",
"|. c #C29C95",
" X c #C59A87",
".X c #E49D8C",
"XX c #C6A787",
"oX c #D9A788",
"OX c #D7B185",
"+X c #C8A698",
"@X c #D7A69B",
"#X c #D1B69B",
"$X c #E4AB86",
"%X c #E7B386",
"&X c #F0B78C",
"*X c #E2AE99",
"=X c #ECBA97",
"-X c #C9AFA5",
";X c #C8B8B4",
":X c #E2B8BB",
">X c #FCC185",
",X c #F0C698",
"<X c #DBC8BF",
"1X c #EDC3A9",
"2X c #BCBDC5",
"3X c #D0BDC4",
"4X c #BAC2C8",
"5X c #C5C4CA",
"6X c #CDCBD1",
"7X c #D2CFD9",
"8X c #D6D6DC",
"9X c #DDC3C5",
"0X c #E4CDCD",
"qX c #E7D7CB",
"wX c #E3D6DA",
"eX c #F5DDD3",
"rX c #DDE3DC",
"tX c #E8E1DB",
"yX c #DCDBE3",
"uX c #E1DCE4",
"iX c #F7DDE0",
"pX c #DBE1E6",
"aX c #E5E7EB",
"sX c #F9E9E2",
"dX c #EBEDF2",
"fX c #E7EEF0",
"gX c #ECF3F3",
"hX c #FCFCFE",
"jX c #F1F1F8",
"kX c #FAEFF4",
"lX c None",
/* pixels */
"lXlXlXlXlXlXlXlXlXlXlXlXlXlXlXlXlXlXlXlXlXlXlXlXlXlXlXlXlXlXlXlXlXlXlXlXlXlXlXlXlXlXlXlXlXlXlXlXlXlXlXlXlXlXlXlXlXlXlXlXlXlXlXlX",
"lXlXlXlXlXlXlXlXlXlXlXlXlXlXlXlXlXlXlXlXlXlXlXlXlXlXlXlXlXlXlXlXlXlXlXlXlXlXlXlXlXlXlXlXlXlXlXlXlXlXlXlXlXlXlXlXlXlXlXlXlXlXlXlX",
"lXlXlXlXlXlXlXlXlXlXlXlXlXlXlXlXlXlXlXlXlXlXlXlXlXlXlXlXlXlXlXlXlXlXlXlXlXlXlXlXlXlXlXlXlXlXlXlXlXlXlXlXlXlXlXlXlXlXlXlXlXlXlXlX",
"lXlXlXlXlXlXlXlXlXlXlXlXlXlXlXlXlXlXlXlXlXlXlXlXlXlXlXlXlXlXlXlXlXlXlXlXlXlXlXlXlXlXlXlXlXlXlXlXlXlXlXlXlXlXlXlXlXlXlXlXlXlXlXlX",
"lXlXlXlXlXlXlXlXlXlXlXlXlXlXlXlXlXlXlXlXlXlXlXlXlXlXlXlXlXlXlXlXlXlXlXlXlXlXB.J.Y.P.lXlXlXlXlXlXlXlXlXlXlXlXlXlXlXlXlXlXlXlXlXlX",
"lXlXlXlXlXlXlXlXlXlXlXlXlXlXlXlXlXlXlXlXlXlXlXlXlXlXlXlXlXlXlXlXlXlXlX/ (.(.(.I.M.V.n.lXlXlXlXlXlXlXlXlXlXlXlXlXlXlXlXlXlXlXlXlX",
"lXlXlXlXlXlXlXlXlXlXlXlXlXlXlXlXlXlXlXlXlXlXlXlXlXlXlXlXlXlXlXlXlX! ! ( I./ U N N B B i lXlXlXlXlXlXlXlXlXlXlXlXlXlXlXlXlXlXlXlX",
"lXlXlXlXlXlXlXlXlXlXlXlXlXlXlXlXlXlXlXlXlXlXlXlXlXlXlXlXlXlXlXlXi x 9 q 8 = % 7 u r i w t lXlXlXlXlXlXlXlXlXlXlXlXlXlXlXlXlXlXlX",
"lXlXlXlXlXlXlXlXlXlXlXlXlXlXlXlXlXlXlXlXlXlXlXlXlXlXlXlXlXlXlXlX9 > = - - - e u 0 0 9 3 t I lXlXlXlXlXlXlXlXlXlXlXlXlXlXlXlXlXlX",
"lXlXlXlXlXlXlXlXlXlXlXlXlXlXlXlXlXlXlXlXlXlXlXlXlXlXlXlXlXQ ( j j s > w 3 e e e a P H P A ( Z.J.lXlXlXlXlXlXlXlXlXlXlXlXlXlXlXlX",
"lXlXlXlXlXlXlXlXlXlXlXlXlXlXlXlXlXlXlXlXlXlXlXlXlXlXlXlXlXt j k , d 4 6  .6.*.I c I 6.x I I lXlXlXlXlXlXlXlXlXlXlXlXlXlXlXlXlXlX",
"lXlXlXlXlXlXlXlXlXlXlXlXlXlXlXlXlXlXlXlXlXlXlXlXlXlXlXlXlXlXlXlX1.#.` < %XOXs.} 6.-X+Xg g lXlXlXlXlXlXlXlXlXlXlXlXlXlXlXlXlXlXlX",
"lXlXlXlXlXlXlXlXlXlXlXlXlXlXlXlXlXlXlXlXlXlXlXlXlXlXlXlXlXlXlXlX,.,.3.` &Xj.OXs.' ,X0.*.;.lXlXlXlXlXlXlXlXlXlXlXlXlXlXlXlXlXlXlX",
"lXlXlXlXlXlXlXlXlXlXlXlXlXlXlXlXlXlXlXlXlXlXlXlXlXlXlXlXlXlXlXlX#.3.p.k.g.&X%X,XOXOXs.6.;.lXlXlXlXlXlXlXlXlXlXlXlXlXlXlXlXlXlXlX",
"lXlXlXlXlXlXlXlXlXlXlXlXlXlXlXlXlXlXlXlXlXlXlXlXlXlXlXL ( -.I ^.@X,.O..Xk.k.j.@.d.d.OX!.-XlXlXlXlXlXlXlXlXlXlXlXlXlXlXlXlXlXlXlX",
"lXlXlXlXlXlXlXlXlXlXlXlXlXlXlXlXlXlXlXlXlXlXlX].5X7X5X5X( L I 6.eX|.| $Xi.j.l.w.+.4.0.W.6.lXlXlXlXlXlXlXlXlXlXlXlXlXlXlXlXlXlXlX",
"lXlXlXlXlXlXlXlXlXlXlXlXlXlXlXlXlXlXlXlXlX`.yXjXfXdXdX6X8XZ.L Q K.qXW...9.}.=X=X=X%X X:.-.^.lXlXlXlXlXlXlXlXlXlXlXlXlXlXlXlXlXlX",
"lXlXlXlXlXlXlXlXlXlXlXlXlXlXlXlXlXlXlXlX/ 7XhXyXgXjXjXuX[.7XT ( D /.sX-X=.1.3..X*X1XW.g K.;XlXlXlXlXlXlXlXlXlXlXlXlXlXlXlXlXlXlX",
"lXlXlXlXlXlXlXlXlXlXlXlXlXlXlXlXlXlXlXlX2XaXdXfXaXaXfXhX(.pXB.Y Y P 6XsX0X|.A.,.>.W.^.j I Q.'.lXlXlXlXlXlXlXlXlXlXlXlXlXlXlXlXlX",
"lXlXlXlXlXlXlXlXlXlXlXlXlXlXlXlXlXlXlXJ.5XdXfXaXfXfXgXhX{.8XI.R F v.( kXiX:X:.&.|.sX-Xe -.Q.].lXlXlXlXlXlXlXlXlXlXlXlXlXlXlXlXlX",
"lXlXlXlXlXlXlXlXlXlXlXlXlXlXlXlXlXlXlX/.6XjXfXgXfXgXgXhXY.aX( n D n D `.9XA.[ [ :.^.A.h I `.3XlXlXlXlXlXlXlXlXlXlXlXlXlXlXlXlXlX",
"lXlXlXlXlXlXlXlXlXlXlXlXlXlXlXlXlXlXlXI.`.[.[.2X4X[.].4X(.pXu u 9 0 e j A.A.z l &.-.> 0 m K.`.Q h :.I lXlXlXlXlXlXlXlXlXZ m lXlX",
"lXlXlXlXlXlXlXlXlXlXlXlXlXlXlXlXlXlXlXJ.[.uXwXwXwXtXrX8X[._.9 3 e f s l z A k k l I Z Z Q x x f > 2 g 4 s k s k Z Z A C L q Q p ",
"lXlXlXlXlXlXlXlXlXlXlXlXlXlXlXlXlXlXlX6.'.wX9X9XqXtXqXrX'.I ; 3 3 : ; : > , 8 , q > w w > w 2 ; - 1 : : : 4 2 > lXlXlXlXL t lXlX",
"lXlXlXlXlXlXlXlXlXlXlXlXlXlXlXlXlXlXlX6.W.R.E. XE.9.0.u.o.| } } | ) 5 .. .4 < s 2 f x c ; v XX..5 | | [ >.8.8.R.lXlXlXlXlXlXlXlX",
"lXlXlXlXlXlXlXlXlXlXlXlXlXlXlXlXlXlXlX) 9.oXoXj.$X&X%X%Xf.@.+._ | _ t.$Xd.$.$.X.c 4 f 6.4 } #Xq.| u.w.` p.*X@X~.lXlXlXlXlXlXlXlX",
"lXlXlXlXlXlXlXlXlXlXlXlXlXlXlXlXlXlX| +.w.f.j.a.a.k.z.>X&X>Xs.< ) ] $Xj.y.g.l.=X0.f f x 3 } #XoX2.2.%.%.i.oX9.lXlXlXlXlXlXlXlXlX",
"lXlXlXlXlXlXlXlXlXlXlXlXlXlXlXlXlXlX' @.2.e.g.k.a.h.h.h.,X,X} 6.-XW.] $Xf.g.r.s.} f I 6.g v OXoXi.O.` 3..X X<.lXlXlXlXlXlXlXlXlX",
"lXlXlXlXlXlXlXlXlXlXlXlXlXlXlXlXlXlX| w.w.5.e.e.y.f.l.l.OX^.6.6.T.8.X.oXj.y.r.t.} !.x 6.e 4  ...,.[ { p.@X1.lXlXlXlXlXlXlXlXlXlX",
"lXlXlXlXlXlXlXlXlXlXlXlXlXlXlXlXlX) } 4.u.4.+.` $.4.q.0.q.q.c 3 s d |.u.u.s.u.$.8.<Xe J 3 > lXlXlXlXlX[ lXlXlXlXlXlXlXlXlXlXlXlX",
"lXlXlXlXlXlXlXlXlXlXlXlXlXlXlXlXlXg o.s.$.o.] +X .*.6.^.^.^.I f k l &.&.<. . .&.0X~.w p q lXlXlXlXlXlXlXlXlXlXlXlXlXlXlXlXlXlXlX",
"lXlXlXlXlXlXlXlXlXlXlXlXlXlXlXlXlXlXg 5 4 lXlX~.J J a x x x x x j j I L Z Z p 0 ! lXq i lXlXlXlXlXlXlXlXlXlXlXlXlXlXlXlXlXlXlXlX",
"lXlXlXlXlXlXlXlXlXlXlXlXlXlXlXlXlXlXlXlXlXlXlXZ.C i i M D n D y T n F M M b V r y lXlXlXlXlXlXlXlXlXlXlXlXlXlXlXlXlXlXlXlXlXlXlX",
"lXlXlXlXlXlXlXlXlXlXlXlXlXlXlXlXlXlXlXlXlXlXlXK D ~ ^ F R G G D F u G G M M x.G Z lXlXlXlXlXlXlXlXlXlXlXlXlXlXlXlXlXlXlXlXlXlXlX",
"lXlXlXlXlXlXlXlXlXlXlXlXlXlXlXlXlXlXlXlXlXlXlXq P T ^ R b.G ^ v.F b b.G M C.C.x.V.lXlXlXlXlXlXlXlXlXlXlXlXlXlXlXlXlXlXlXlXlXlXlX",
"lXlXlXlXlXlXlXlXlXlXlXlXlXlXlXlXlXlXlXlXlXlXlXq D m.v.S.S.v.v.m.F y ^ D V x.x.c.V.r lXlXlXlXlXlXlXlXlXlXlXlXlXlXlXlXlXlXlXlXlXlX",
"lXlXlXlXlXlXlXlXlXlXlXlXlXlXlXlXlXlXlXlXlXlXlXu P Y v.S.v.v.v.v.F M R y G G x.R R N lXlXlXlXlXlXlXlXlXlXlXlXlXlXlXlXlXlXlXlXlXlX",
"lXlXlXlXlXlXlXlXlXlXlXlXlXlXlXlXlXlXlXlXlXlXlXn P ^ ^ H.S.v.v.~ M n c.y c.C.G.C.B.M.n lXlXlXlXlXlXlXlXlXlXlXlXlXlXlXlXlXlXlXlXlX",
"lXlXlXlXlXlXlXlXlXlXlXX @ lXlXlXlXlXlXlXlXlXlXi ~ ~ S.H.H.S.D.F.i n b U V.U.C.G.S.H.( i lXlXlXlXlXlXlXlXlXlXlXlXlXlXlXlXlXlXlXlX",
"lXlXlXlXlXlXlXlXlXlX  o & = lXq lXlXlXK K S T M ~ Y S.H.H.L.F.~ K lXN G c.G.G.U.U.L.D.m lXlXlXlXlXlXlXlXlXlXlXlXlXlXlXlXlXlXlXlX",
"lXlXlXlXlXlXlXlXlXlX. o & lXlX9 * % r K W m S U R D.D.H.S.S.U.M.K lXlXU n.c.).D.G.H.D./ p lXlXlXlXlXlXlXlXlXlXlXlXlXlXlXlXlXlXlX",
"lXlXlXlXlXlXlXlXlXlX+ @ 8 lXlX= % 9 m n.~ N M Y U L.U.S.H.U.L.! T lXlXlXW R L.D.S.H.L.Z.( lXlXlXlXlXlXlXlXlXlXlXlXlXlXlXlXlXlXlX",
"lXlXlXlXlXlXlXlXlXX o * lXlXlX8 % = R P.G.W / ^ x.N.L.V.).H.M.K T lXlXlXW E ~ I.D.D.D.D.D i lXlXlXlXlXlXlXlXlXlXlXlXlXlXlXlXlXlX",
"lXlXlXlXlXlXlXlX    + # 8 lXlX8 7 r B.(.P.x.N.B.x.c.V.B.m.I.D.m lXlXlXlXlX! / ~ m.S.Y Y D D lXlXlXlXlXlXlXlXlXlXlXlXlXlXlXlXlXlX",
"lXlXlXlXlXlXlXlX. O # # > lXlXlXlXlXI.P.(.R V.P.G.L.R / ~ K L.lXlXlXlXlXlXT E U R R F ^ ^ P lXlXlXlXlXlXlXlXlXlXlXlXlXlXlXlXlXlX",
"lXlXlXlXlXlXlXlX. + % lXlXlXlXlXlXlXlX(.(.Z B E W n.V.W K / lXlXlXlXlXlXlXT E R R R b.m.~ P lXlXlXlXlXlXlXlXlXlXlXlXlXlXlXlXlXlX",
"lXlXlXlXlXlXlXlXlXlXlXlXlXlXlXlXlXlXlXlXlXlXlXlXlXlXlXlXlXlXlXlXlXlXlXlXlX/ ! M.F R S.H.m.D p lXlXlXlXlXlXlXlXlXlXlXlXlXlXlXlXlX",
"lXlXlXlXlXlXlXlXlXlXlXlXlXlXlXlXlXlXlXlXlXlXlXlXlXlXlXlXlXlXlXlXlXlXlXlXlXlXU n.R V.S.G.F.D P lXlXlXlXlXlXlXlXlXlXlXlXlXlXlXlXlX",
"lXlXlXlXlXlXlXlXlXlXlXlXlXlXlXlXlXlXlXlXlXlXlXlXlXlXlXlXlXlXlXlXlXlXlXlXlXlXW / R G.H.D.F./ T lXlXlXlXlXlXlXlXlXlXlXlXlXlXlXlXlX",
"lXlXlXlXlXlXlXlXlXlXlXlXlXlXlXlXlXlXlXlXlXlXlXlXlXlXlXlXlXlXlXlXlXlXlXlXlXlXW W R V.G.D.D./ D lXlXlXlXlXlXlXlXlXlXlXlXlXlXlXlXlX",
"lXlXlXlXlXlXlXlXlXlXlXlXlXlXlXlXlXlXlXlXlXlXlXlXlXlXlXlXlXlXlXlXlXlXlXlXlXlXU n.c.V.H.H.D./ T P lXlXlXlXlXlXlXlXlXlXlXlXlXlXlXlX",
"lXlXlXlXlXlXlXlXlXlXlXlXlXlXlXlXlXlXlXlXlXlXlXlXlXlXlXlXlXlXlXlXlXlXlXlXlXlXK V.R c.m.~ ~ D K H lXlXlXlXlXlXlXlXlXlXlXlXlXlXlXlX",
"lXlXlXlXlXlXlXlXlXlXlXlXlXlXlXlXlXlXlXlXlXlXlXlXlXlXlXlXlXlXlXlXlXlXlXlXlXlXE U N U V V ~ n.I.Z.lXlXlXlXlXlXlXlXlXlXlXlXlXlXlXlX",
"lXlXlXlXlXlXlXlXlXlXlXlXlXlXlXlXlXlXlXlXlXlXlXlXlXlXlXlXlXlXlXlXlXlXlXlXlXlXZ W W W n.Y._.J.J.Z.lXlXlXlXlXlXlXlXlXlXlXlXlXlXlXlX",
"lXlXlXlXlXlXlXlXlXlXlXlXlXlXlXlXlXlXlXlXlXlXlXlXlXlXlXlXlXlXlXlXlXlXlXlXlXlXL L ! Z Q Z.Q 8 0 lXlXlXlXlXlXlXlXlXlXlXlXlXlXlXlXlX",
"lXlXlXlXlXlXlXlXlXlXlXlXlXlXlXlXlXlXlXlXlXlXlXlXlXlXlXlXlXlXlXlXlXlXlXlXlXlXlXlXC k lXlXlXlX* 7 7 # . lXlXlXlXlXlXlXlXlXlXlXlXlX",
"lXlXlXlXlXlXlXlXlXlXlXlXlXlXlXlXlXlXlXlXlXlXlXlXlXlXlXlXlXlXlXlXlXlXlXlXlXlXlXlXC lXlXlXlX& @ + . O % $ lXlXlXlXlXlXlXlXlXlXlXlX",
"lXlXlXlXlXlXlXlXlXlXlXlXlXlXlXlXlXlXlXlXlXlXlXlXlXlXlXlXlXlXlXlXlXlXlXlXlXlXlXlXt # # @ o . X .     lXlXlXlXlXlXlXlXlXlXlXlXlXlX",
"lXlXlXlXlXlXlXlXlXlXlXlXlXlXlXlXlXlXlXlXlXlXlXlXlXlXlXlXlXlXlXlXlXlXlXlXlXlXlXlX= +   X + lXlXlXlXlXlXlXlXlXlXlXlXlXlXlXlXlXlXlX",
"lXlXlXlXlXlXlXlXlXlXlXlXlXlXlXlXlXlXlXlXlXlXlXlXlXlXlXlXlXlXlXlXlXlXlXlXlXlXlXlXlXlXlXlXlXlXlXlXlXlXlXlXlXlXlXlXlXlXlXlXlXlXlXlX",
"lXlXlXlXlXlXlXlXlXlXlXlXlXlXlXlXlXlXlXlXlXlXlXlXlXlXlXlXlXlXlXlXlXlXlXlXlXlXlXlXlXlXlXlXlXlXlXlXlXlXlXlXlXlXlXlXlXlXlXlXlXlXlXlX",
"lXlXlXlXlXlXlXlXlXlXlXlXlXlXlXlXlXlXlXlXlXlXlXlXlXlXlXlXlXlXlXlXlXlXlXlXlXlXlXlXlXlXlXlXlXlXlXlXlXlXlXlXlXlXlXlXlXlXlXlXlXlXlXlX",
"lXlXlXlXlXlXlXlXlXlXlXlXlXlXlXlXlXlXlXlXlXlXlXlXlXlXlXlXlXlXlXlXlXlXlXlXlXlXlXlXlXlXlXlXlXlXlXlXlXlXlXlXlXlXlXlXlXlXlXlXlXlXlXlX",
"lXlXlXlXlXlXlXlXlXlXlXlXlXlXlXlXlXlXlXlXlXlXlXlXlXlXlXlXlXlXlXlXlXlXlXlXlXlXlXlXlXlXlXlXlXlXlXlXlXlXlXlXlXlXlXlXlXlXlXlXlXlXlXlX"
};
