/* XPM */
static char *result[] = {
/* columns rows colors chars-per-pixel */
"64 64 223 2 ",
"   c #160E15",
".  c #1B131B",
"X  c #131116",
"o  c #0C0A11",
"O  c #20161F",
"+  c #1D1A21",
"@  c #231C23",
"#  c #2B242D",
"$  c #29262C",
"%  c #32272D",
"&  c #2D2B32",
"*  c #352C33",
"=  c #38333B",
"-  c #3B353B",
";  c #5E3617",
":  c #663D1B",
">  c #483729",
",  c #593A29",
"<  c #4A3C38",
"1  c #563D35",
"2  c #4E4239",
"3  c #574638",
"4  c #66472D",
"5  c #7A492A",
"6  c #664634",
"7  c #7C4A30",
"8  c #76563D",
"9  c #3B3842",
"0  c #463D45",
"q  c #513D46",
"w  c #4C4244",
"e  c #4B454B",
"r  c #4A464B",
"t  c #574846",
"y  c #5C554C",
"u  c #494A55",
"i  c #544E56",
"p  c #5A5559",
"a  c #495454",
"s  c #644D48",
"d  c #665149",
"f  c #765745",
"g  c #634D50",
"h  c #645552",
"j  c #63535C",
"k  c #6D5B5B",
"l  c #685857",
"z  c #755A58",
"x  c #5E6A5A",
"c  c #6A625A",
"v  c #796256",
"b  c #72634B",
"n  c #4E5863",
"m  c #545562",
"M  c #525B64",
"N  c #5B5D65",
"B  c #585C6A",
"V  c #5F5B70",
"C  c #645D62",
"Z  c #675B66",
"A  c #715D68",
"S  c #55616C",
"D  c #5C636C",
"F  c #586166",
"G  c #5C6372",
"H  c #5D6A73",
"J  c #646364",
"K  c #6C6262",
"L  c #63636C",
"P  c #6D676B",
"I  c #7C6B6C",
"U  c #776567",
"Y  c #646672",
"T  c #636B74",
"R  c #6B6C75",
"E  c #646D7A",
"W  c #6B6D7B",
"Q  c #6A6776",
"!  c #736B76",
"~  c #65727C",
"^  c #6B737D",
"/  c #687579",
"(  c #72737D",
")  c #757175",
"_  c #6B7168",
"`  c #874F2E",
"'  c #8D5838",
"]  c #A36036",
"[  c #8B5C44",
"{  c #915B46",
"}  c #88654B",
"|  c #98684A",
" . c #886858",
".. c #986D58",
"X. c #9A7658",
"o. c #A56E49",
"O. c #B46E48",
"+. c #A3714D",
"@. c #B7764B",
"#. c #A46D56",
"$. c #A77558",
"%. c #B77A55",
"&. c #886967",
"*. c #966C66",
"=. c #89746A",
"-. c #987567",
";. c #857777",
":. c #9A7C74",
">. c #816F73",
",. c #AA7969",
"<. c #B37E69",
"1. c #C37C4E",
"2. c #C07F64",
"3. c #B6825D",
"4. c #93897A",
"5. c #B88A68",
"6. c #A98975",
"7. c #B58D7B",
"8. c #BA8978",
"9. c #BA997D",
"0. c #B79276",
"q. c #AF8E6C",
"w. c #C88659",
"e. c #C98D64",
"r. c #D48F63",
"t. c #C89467",
"y. c #D7986A",
"u. c #CA9D7B",
"i. c #C89777",
"p. c #D69B79",
"a. c #EC9F69",
"s. c #E09C74",
"d. c #D8A47B",
"f. c #ECA56E",
"g. c #E7A477",
"h. c #EEAE77",
"j. c #686F81",
"k. c #6B7382",
"l. c #6E7B84",
"z. c #6F788A",
"x. c #737582",
"c. c #787682",
"v. c #737A85",
"b. c #757C89",
"n. c #7C7C88",
"m. c #847D85",
"M. c #76838C",
"N. c #7A838C",
"B. c #7A878B",
"V. c #7E8592",
"C. c #7D8B92",
"Z. c #758690",
"A. c #6E8088",
"S. c #82828B",
"D. c #878487",
"F. c #978589",
"G. c #828C94",
"H. c #8C8D99",
"J. c #858996",
"K. c #938C94",
"L. c #88919A",
"P. c #96959D",
"I. c #9A958C",
"U. c #B68C81",
"Y. c #AA9387",
"T. c #B59587",
"R. c #A7979A",
"E. c #B1918F",
"W. c #BEA081",
"Q. c #8E95A1",
"!. c #979AA3",
"~. c #9EA3A9",
"^. c #ABA8AB",
"/. c #ABADB5",
"(. c #B4B4BC",
"). c #B7BAB8",
"_. c #B7ACA9",
"`. c #C69786",
"'. c #D19B81",
"]. c #C8A687",
"[. c #D6A58A",
"{. c #D8A985",
"}. c #D8AB94",
"|. c #DBB295",
" X c #C2A297",
".X c #E2AD88",
"XX c #E7B789",
"oX c #F5BA87",
"OX c #F5BC94",
"+X c #E3B596",
"@X c #CEBDB7",
"#X c #CCB3AA",
"$X c #EEBFA9",
"%X c #BEC2BE",
"&X c #F9C696",
"*X c #FFC485",
"=X c #DBC6B9",
"-X c #EEC2A9",
";X c #B9BEC4",
":X c #C7C6CA",
">X c #DAC9C6",
",X c #DBD7C6",
"<X c #CFCCD4",
"1X c #D6D7D5",
"2X c #D0CED6",
"3X c #E5D8CB",
"4X c #E9D9D6",
"5X c #E8C1C0",
"6X c #DFE0D2",
"7X c #E8E2DC",
"8X c #E8E0C9",
"9X c #D8DBE3",
"0X c #E7DBE2",
"qX c #E4E6EC",
"wX c #EAEAEE",
"eX c #E7E7E7",
"rX c #EDEDF2",
"tX c #E6EDF2",
"yX c #F1EAF8",
"uX c #EDF2F3",
"iX c #F6F8F9",
"pX c #F4E7E3",
"aX c #ADD8E6",
/* pixels */
"aXaXaXaXaXaXaXaXaXaXaXaXaXaXaXaXaXaXaXaXaXaXaXaXaXaXaXaXaXaXaXaXaXaXaXaXaXaXaXaXaXaXaXaXaXaXaXaXaXaXaXaXaXaXaXaXaXaXaXaXaXaXaXaX",
"aXaXaXaXaXaXaXaXaXaXaXaXaXaXaXaXaXaXaXaXaXaXaXaXaXaXaXaXaXaXaXaXaXaXaXaXaXaXaXaXaXaXaXaXaXaXaXaXaXaXaXaXaXaXaXaXaXaXaXaXaXaXaXaX",
"aXaXaXaXaXaXaXaXaXaXaXaXaXaXaXaXaXaXaXaXaXaXaXaXaXaXaXaXaXaXaXaXaXaXaXaXaXaXaXaXaXaXaXaXaXaXaXaXaXaXaXaXaXaXaXaXaXaXaXaXaXaXaXaX",
"aXaXaXaXaXaXaXaXaXaXaXaXaXaXaXaXaXaXaXaXaXaXaXaXaXaXaXaXaXaXaXaXaXaXaXaXaXaXaXaXaXaXaXaXaXaXaXaXaXaXaXaXaXaXaXaXaXaXaXaXaXaXaXaX",
"aXaXaXaXaXaXaXaXaXaXaXaXaXaXaXaXaXaXaXaXaXaXaXaXaXaXaXaXaXaXaXaXaXaXaXaXaXH.~.!.S.D.aXaXaXaXaXaXaXaXaXaXaXaXaXaXaXaXaXaXaXaXaXaX",
"aXaXaXaXaXaXaXaXaXaXaXaXaXaXaXaXaXaXaXaXaXaXaXaXaXaXaXaXaXaXaXaXaXaXN.P.P.~.!.c.( ) p aXaXaXaXaXaXaXaXaXaXaXaXaXaXaXaXaXaXaXaXaX",
"aXaXaXaXaXaXaXaXaXaXaXaXaXaXaXaXaXaXaXaXaXaXaXaXaXaXaXaXaXaXaXaXaXD.S.m.S.W N Y p F i i aXaXaXaXaXaXaXaXaXaXaXaXaXaXaXaXaXaXaXaX",
"aXaXaXaXaXaXaXaXaXaXaXaXaXaXaXaXaXaXaXaXaXaXaXaXaXaXaXaXaXaXaXaXC e r r $ = 9 w r r i e aXaXaXaXaXaXaXaXaXaXaXaXaXaXaXaXaXaXaXaX",
"aXaXaXaXaXaXaXaXaXaXaXaXaXaXaXaXaXaXaXaXaXaXaXaXaXaXaXaXaXaXaXk q < % % w < i w y i e t 2 aXaXaXaXaXaXaXaXaXaXaXaXaXaXaXaXaXaXaX",
"aXaXaXaXaXaXaXaXaXaXaXaXaXaXaXaXaXaXaXaXaXaXaXaXaXaXaXaX;.;.K I t < < g < h l h y h J J P D.P.aXaXaXaXaXaXaXaXaXaXaXaXaXaXaXaXaX",
"aXaXaXaXaXaXaXaXaXaXaXaXaXaXaXaXaXaXaXaXaXaXaXaXaXaXaXaXp w t s s 6 f 6 T. .v =.v =.;.v I F.aXaXaXaXaXaXaXaXaXaXaXaXaXaXaXaXaXaX",
"aXaXaXaXaXaXaXaXaXaXaXaXaXaXaXaXaXaXaXaXaXaXaXaXaXaXaXaXaXaXaX=.6.| 5 o.|.|.|...=.#X6.;.aXaXaXaXaXaXaXaXaXaXaXaXaXaXaXaXaXaXaXaX",
"aXaXaXaXaXaXaXaXaXaXaXaXaXaXaXaXaXaXaXaXaXaXaXaXaXaXaXaXaXaXaX*.i.$.O.2.s..X{.} 9.-X:.:.aXaXaXaXaXaXaXaXaXaXaXaXaXaXaXaXaXaXaXaX",
"aXaXaXaXaXaXaXaXaXaXaXaXaXaXaXaXaXaXaXaXaXaXaXaXaXaXaXaXaXaXaXU...2.2.s.oXOX&X+X0.[.7.T.aXaXaXaXaXaXaXaXaXaXaXaXaXaXaXaXaXaXaXaX",
"aXaXaXaXaXaXaXaXaXaXaXaXaXaXaXaXaXaXaXaXaXaXaXaXaXaXaXJ R I &.#Xi.#.'.s.s.oXw.t.{.{.`.7.aXaXaXaXaXaXaXaXaXaXaXaXaXaXaXaXaXaXaXaX",
"aXaXaXaXaXaXaXaXaXaXaXaXaXaXaXaXaXaXaXaXaXaXP.:X).<X%XP.Z A &.>X$X,.,..Xg.oXy.@.3.i.0... XaXaXaXaXaXaXaXaXaXaXaXaXaXaXaXaXaXaXaX",
"aXaXaXaXaXaXaXaXaXaXaXaXaXaXaXaXaXaXaXaXaX:XrXwXeXuX1X9X;XG P K =X=X-.| '.p.OXOX.X[.U.*. X_.aXaXaXaXaXaXaXaXaXaXaXaXaXaXaXaXaXaX",
"aXaXaXaXaXaXaXaXaXaXaXaXaXaXaXaXaXaXaXaX%X9XrXwXuXtXiX/.9XV.T / P pX@X7.*.,.'.$X+X|.U.f F.>XaXaXaXaXaXaXaXaXaXaXaXaXaXaXaXaXaXaX",
"aXaXaXaXaXaXaXaXaXaXaXaXaXaXaXaXaXaXaX) 2XwXrXwXqXtXuXeX~.;XE T D D.yXpX XU.,.,.U.E.*.h R.0X(.aXaXaXaXaXaXaXaXaXaXaXaXaXaXaXaXaX",
"aXaXaXaXaXaXaXaXaXaXaXaXaXaXaXaXaXaXaXn.<XiXqXqXtXeXiXuX!.tX~ H / F :X0XpX X&.,.$X4X>.k K.yX2XaXaXaXaXaXaXaXaXaXaXaXaXaXaXaXaXaX",
"aXaXaXaXaXaXaXaXaXaXaXaXaXaXaXaXaXaXaXD.:XiXrXwXtXtXiXuX~.7XF J c F ) ,X_.z z g m.R.Z Z K.rX:XaXaXaXaXaXaXaXaXaXaXaXaXaXaXaXaXaX",
"aXaXaXaXaXaXaXaXaXaXaXaXaXaXaXaXaXaXaXK.^./.).).%X%X%X~.)._.- y w 2 C C R.;.s &.>.q q j S.(.H.L S.;.aXaX>.aXaXaXaXaXaXm.U F.aXaX",
"aXaXaXaXaXaXaXaXaXaXaXaXaXaXaXaXaXaXaX_.:XeX7X1X6XeX6X6XI.2 2 3 y y h K h h k w U U k C p R F 2 w h t d s A g l A A A j j I ! e ",
"aXaXaXaXaXaXaXaXaXaXaXaXaXaXaXaXaXaXm.R.@X3X3X=X8X8X=X=X4.3 2 2 2 2 > > > 2 > 1 > t y 2 2 t 1 > , , , 4 , , 1 g aXaXaXZ i aXaXaX",
"aXaXaXaXaXaXaXaXaXaXaXaXaXaXaXaXaXaXaXE.T.6.0.9.9.q.q.0. .b b ..} 8 } X.4 4 4 6 6 2 I b 3 4.0.[ 5 #.` ' 5.7.*.aXaXaXaXaXaXaXaXaX",
"aXaXaXaXaXaXaXaXaXaXaXaXaXaXaXaXaXaX ...`..X.Xp.h.XX&Xh.q.3.+.| ' $.{.d.q.+.$.X. .s =.v 4 X.[.%.@.r.] @..X}.8.aXaXaXaXaXaXaXaXaX",
"aXaXaXaXaXaXaXaXaXaXaXaXaXaXaXaXaX4 | o.r.h.f.a.h.*XXX*X&X-X8 5 5 t.d.d..Xy.{.+XX.> =.z 4 q.p.p.r.@.O.%.p.[.6.aXaXaXaXaXaXaXaXaX",
"aXaXaXaXaXaXaXaXaXaXaXaXaXaXaXaXaX; +.@.w.a.a.f.f.XXoX&XXX&X' |.|.$.3.oXd.u.].X.f h 4.=.> q.[.u.1.' O.p.'.U.aXaXaXaXaXaXaXaXaXaX",
"aXaXaXaXaXaXaXaXaXaXaXaXaXaXaXaXaX: ] y.w.@.y.r.f.d.{.{.].W.b q.U....X'.u.u.]. . .I F.>.s z ,.,.{ { <.'.`.U.aXaXaXaXaXaXaXaXaXaX",
"aXaXaXaXaXaXaXaXaXaXaXaXaXaXaXaXaX4 X.y.r.w.` o.3.u.0.q.6.6.4 4 , <.`.}.`.`.T.-.=Xk k k g aXaXaXaXaXaX .aXaXaXaXaXaXaXaXaXaXaXaX",
"aXaXaXaXaXaXaXaXaXaXaXaXaXaXaXaXaX4 +.t.3.5 aX:.v :.T.#X%X4.b y v &. .*.*.:.f Y.4Xl h l l aXaXaXaXaXaXaXaXaXaXaXaXaXaXaXaXaXaXaX",
"aXaXaXaXaXaXaXaXaXaXaXaXaXaXaXaXaXaX8 } aXaXaXq R p p J _ a x a _ h z U h k c K #XU I ) aXaXaXaXaXaXaXaXaXaXaXaXaXaXaXaXaXaXaXaX",
"aXaXaXaXaXaXaXaXaXaXaXaXaXaXaXaXaXaXaXaXaXaXaXZ Z m m V N a M a F p S D u i L Z aXaXaXaXaXaXaXaXaXaXaXaXaXaXaXaXaXaXaXaXaXaXaXaX",
"aXaXaXaXaXaXaXaXaXaXaXaXaXaXaXaXaXaXaXaXaXaXaX! Q Q E j.G M ^ M M S S n G Y Y L ) aXaXaXaXaXaXaXaXaXaXaXaXaXaXaXaXaXaXaXaXaXaXaX",
"aXaXaXaXaXaXaXaXaXaXaXaXaXaXaXaXaXaXaXaXaXaXaXV z.j.j.j.E Y l.D M H k.M j.c.m.n.) aXaXaXaXaXaXaXaXaXaXaXaXaXaXaXaXaXaXaXaXaXaXaX",
"aXaXaXaXaXaXaXaXaXaXaXaXaXaXaXaXaXaXaXaXaXaXaXH j.j.k.k.n.l.^ M a ~ E M W x.c.! ! aXaXaXaXaXaXaXaXaXaXaXaXaXaXaXaXaXaXaXaXaXaXaX",
"aXaXaXaXaXaXaXaXaXaXaXaXaXaXaXaXaXaXaXaXaXaXn j.z.n.J.b.M.v.b.E n S n G E Y Q Z aXaXaXaXaXaXaXaXaXaXaXaXaXaXaXaXaXaXaXaXaXaXaXaX",
"aXaXaXaXaXaXaXaXaXaXaXaXaXaXaXaXaXaXaXaXaXaXaXY j.z.j.j.^ / B.M.j.H u j.n.V.n.Q aXaXaXaXaXaXaXaXaXaXaXaXaXaXaXaXaXaXaXaXaXaXaXaX",
"aXaXaXaXaXaXaXaXaXaXaXaXaXaXaXaX@ aXaXaXaXaXaXV j.j.j.b.S.B.C.C.Z.z.S H J.m.x.c.aXaXaXaXaXaXaXaXaXaXaXaXaXaXaXaXaXaXaXaXaXaXaXaX",
"aXaXaXaXaXaXaXaXaXaXaXaXaXaXaX. @ @ # 0 aXaXaXaXV V Q z.B.G.C.A.Z.Z.b.G G H.x.aXaXaXaXaXaXaXaXaXaXaXaXaXaXaXaXaXaXaXaXaXaXaXaXaX",
"aXaXaXaXaXaXaXaXaXaXaXaXaXaXaX@ . % aXaX0 9 u m Z B S ^ A.B.B.B.C.Z.C.M.m Y L aXaXaXaXaXaXaXaXaXaXaXaXaXaXaXaXaXaXaXaXaXaXaXaXaX",
"aXaXaXaXaXaXaXaXaXaXaXaXaXaXaXO @ 0 aXaX9 # 0 m R ~ n n T A.C.B.Z.Z.C.G.~ m Q aXaXaXaXaXaXaXaXaXaXaXaXaXaXaXaXaXaXaXaXaXaXaXaXaX",
"aXaXaXaXaXaXaXaXaXaXaXaXaXaX    < aXaXaX9 9 9 z.L.M.F D H H / C.Z.C.M.l.D ( aXaXaXaXaXaXaXaXaXaXaXaXaXaXaXaXaXaXaXaXaXaXaXaXaXaX",
"aXaXaXaXaXaXaXaXaXaXaXaXaXaX  O # * aXq @ * 0 z.!.P.F B./ H / Z.l.~ v.E Y L aXaXaXaXaXaXaXaXaXaXaXaXaXaXaXaXaXaXaXaXaXaXaXaXaXaX",
"aXaXaXaXaXaXaXaXaXaXaXaXaX@ O * * = aXaXaXaXaXm.!.P.M B.G.M.A.~ E ~ T D V aXaXaXaXaXaXaXaXaXaXaXaXaXaXaXaXaXaXaXaXaXaXaXaXaXaXaX",
"aXaXaXaXaXaXaXaXaXaXaXaXaX. @ @ * aXaXaXaXaXaXaXJ.~.T D H l.M.A.k.T G N N aXaXaXaXaXaXaXaXaXaXaXaXaXaXaXaXaXaXaXaXaXaXaXaXaXaXaX",
"aXaXaXaXaXaXaXaXaXaXaXaXaXaXaXaXaXaXaXaXaXaXaXaXaXaXL n F H S H H D ^ N aXaXaXaXaXaXaXaXaXaXaXaXaXaXaXaXaXaXaXaXaXaXaXaXaXaXaXaX",
"aXaXaXaXaXaXaXaXaXaXaXaXaXaXaXaXaXaXaXaXaXaXaXaXaXaXD T T ~ ~ ^ E ~ D L aXaXaXaXaXaXaXaXaXaXaXaXaXaXaXaXaXaXaXaXaXaXaXaXaXaXaXaX",
"aXaXaXaXaXaXaXaXaXaXaXaXaXaXaXaXaXaXaXaXaXaXaXaXaXaXY ^ E T ^ T T R c.aXaXaXaXaXaXaXaXaXaXaXaXaXaXaXaXaXaXaXaXaXaXaXaXaXaXaXaXaX",
"aXaXaXaXaXaXaXaXaXaXaXaXaXaXaXaXaXaXaXaXaXaXaXaXaXL ^ T E ^ ^ B.^ T R aXaXaXaXaXaXaXaXaXaXaXaXaXaXaXaXaXaXaXaXaXaXaXaXaXaXaXaXaX",
"aXaXaXaXaXaXaXaXaXaXaXaXaXaXaXaXaXaXaXaXaXaXaXaXm x.k.R x.V.N.N.^ R aXaXaXaXaXaXaXaXaXaXaXaXaXaXaXaXaXaXaXaXaXaXaXaXaXaXaXaXaXaX",
"aXaXaXaXaXaXaXaXaXaXaXaXaXaXaXaXaXaXaXaXaXaXaXaXx.( Y b.b.N.L.l.^ R aXaXaXaXaXaXaXaXaXaXaXaXaXaXaXaXaXaXaXaXaXaXaXaXaXaXaXaXaXaX",
"aXaXaXaXaXaXaXaXaXaXaXaXaXaXaXaXaXaXaXaXaXaXaXZ c.Q k.b.V.V.N.( R aXaXaXaXaXaXaXaXaXaXaXaXaXaXaXaXaXaXaXaXaXaXaXaXaXaXaXaXaXaXaX",
"aXaXaXaXaXaXaXaXaXaXaXaXaXaXaXaXaXaXaXaXaXaXN ^ Y j.b.Q.b.V.N.) F aXaXaXaXaXaXaXaXaXaXaXaXaXaXaXaXaXaXaXaXaXaXaXaXaXaXaXaXaXaXaX",
"aXaXaXaXaXaXaXaXaXaXaXaXaXaXaXaXaXaXaXaXaXaXm B G ~ M.b.b.N.W T aXaXaXaXaXaXaXaXaXaXaXaXaXaXaXaXaXaXaXaXaXaXaXaXaXaXaXaXaXaXaXaX",
"aXaXaXaXaXaXaXaXaXaXaXaXaXaXaXaXaXaXaXaXaXY ^ Y V E M B G B R R aXaXaXaXaXaXaXaXaXaXaXaXaXaXaXaXaXaXaXaXaXaXaXaXaXaXaXaXaXaXaXaX",
"aXaXaXaXaXaXaXaXaXaXaXaXaXaXaXaXaXaXaXaXaXL L Y S.H.Q.N.N.H.) aXaXaXaXaXaXaXaXaXaXaXaXaXaXaXaXaXaXaXaXaXaXaXaXaXaXaXaXaXaXaXaXaX",
"aXaXaXaXaXaXaXaXaXaXaXaXaXaXaXaXaXaXaXaXaXr c.c.W Y W J.S.S.T aXaXaXaXaXaXaXaXaXaXaXaXaXaXaXaXaXaXaXaXaXaXaXaXaXaXaXaXaXaXaXaXaX",
"aXaXaXaXaXaXaXaXaXaXaXaXaXaXaXaXaXaXaXaXaXi H.aX(.aXaXr 0 aXaXaXaXaXaXaXaXaXaXaXaXaXaXaXaXaXaXaXaXaXaXaXaXaXaXaXaXaXaXaXaXaXaXaX",
"aXaXaXaXaXaXaXaXaXaXaXaXaXaXaXaXaXaXaXaX9 - e Z P ! & = & & aXaXaXaXaXaXaXaXaXaXaXaXaXaXaXaXaXaXaXaXaXaXaXaXaXaXaXaXaXaXaXaXaXaX",
"aXaXaXaXaXaXaXaXaXaXaXaXaXaXaXaXaXaXaXaX+ . @ # @ $ + + & . & - aXaXaXaXaXaXaXaXaXaXaXaXaXaXaXaXaXaXaXaXaXaXaXaXaXaXaXaXaXaXaXaX",
"aXaXaXaXaXaXaXaXaXaXaXaXaXaXaXaXaXaXaXaX+ X + X aXo X X $ X & & aXaXaXaXaXaXaXaXaXaXaXaXaXaXaXaXaXaXaXaXaXaXaXaXaXaXaXaXaXaXaXaX",
"aXaXaXaXaXaXaXaXaXaXaXaXaXaXaXaXaXaXaXaXaXaXaXaXaXaXaXaXaXaXaXaXaXaXaXaXaXaXaXaXaXaXaXaXaXaXaXaXaXaXaXaXaXaXaXaXaXaXaXaXaXaXaXaX",
"aXaXaXaXaXaXaXaXaXaXaXaXaXaXaXaXaXaXaXaXaXaXaXaXaXaXaXaXaXaXaXaXaXaXaXaXaXaXaXaXaXaXaXaXaXaXaXaXaXaXaXaXaXaXaXaXaXaXaXaXaXaXaXaX"
};
