/* XPM */
static char *result[] = {
/* columns rows colors chars-per-pixel */
"64 64 227 2 ",
"   c #0F0913",
".  c #150F13",
"X  c #1C141C",
"o  c #1C1418",
"O  c #21191D",
"+  c #3B2A1C",
"@  c #1E1422",
"#  c #231B21",
"$  c #2B2229",
"%  c #2A2126",
"&  c #332A2C",
"*  c #352C35",
"=  c #393339",
"-  c #2F2934",
";  c #422F1C",
":  c #4A362A",
">  c #573424",
",  c #483B3B",
"<  c #573B36",
"1  c #532E21",
"2  c #3E4034",
"3  c #4B453A",
"4  c #544434",
"5  c #5B4B3C",
"6  c #584637",
"7  c #51402F",
"8  c #6C462E",
"9  c #7C4B29",
"0  c #654A32",
"q  c #684D3B",
"w  c #795437",
"e  c #764E33",
"r  c #3E3B43",
"t  c #413A43",
"y  c #3B4142",
"u  c #45434A",
"i  c #4A454D",
"p  c #4B4845",
"a  c #5B4943",
"s  c #554946",
"d  c #5B554D",
"f  c #4C4C56",
"g  c #544D56",
"h  c #4B5459",
"j  c #53535A",
"k  c #5C5456",
"l  c #674D48",
"z  c #67544B",
"x  c #73564B",
"c  c #764C53",
"v  c #625554",
"b  c #685B5A",
"n  c #765B57",
"m  c #5E625A",
"M  c #6B615E",
"N  c #786657",
"B  c #7D6B53",
"V  c #4C5362",
"C  c #4F5668",
"Z  c #545662",
"A  c #545B64",
"S  c #5B5B66",
"D  c #545B6A",
"F  c #5B5D6A",
"G  c #5A5E70",
"H  c #645D64",
"J  c #685D68",
"K  c #755E62",
"L  c #56626C",
"P  c #5C616C",
"I  c #5A6064",
"U  c #5D6473",
"Y  c #5C6A75",
"T  c #6B6B64",
"R  c #63636C",
"E  c #6A6469",
"W  c #746563",
"Q  c #766A69",
"!  c #7C726C",
"~  c #626672",
"^  c #636974",
"/  c #6C6B75",
"(  c #656C7B",
")  c #6B6E7A",
"_  c #696775",
"`  c #736B75",
"'  c #6C727C",
"]  c #67737D",
"[  c #72727B",
"{  c #787478",
"}  c #69736E",
"|  c #88593B",
" . c #985A39",
".. c #8B5227",
"X. c #90643F",
"o. c #A56F3E",
"O. c #8C5C4A",
"+. c #98684A",
"@. c #866757",
"#. c #966D56",
"$. c #8B7558",
"%. c #936D4F",
"&. c #AA6C47",
"*. c #B36D45",
"=. c #AC754D",
"-. c #A67656",
";. c #B6764A",
":. c #876A65",
">. c #89756A",
",. c #997767",
"<. c #887778",
"1. c #947574",
"2. c #956E65",
"3. c #AB7E64",
"4. c #A37D69",
"5. c #C57A4D",
"6. c #B4825A",
"7. c #A8825F",
"8. c #97836D",
"9. c #99877B",
"0. c #A5846A",
"q. c #B98A67",
"w. c #A68474",
"e. c #A98C78",
"r. c #B78877",
"t. c #AA947C",
"y. c #B99679",
"u. c #CA8659",
"i. c #D78A54",
"p. c #E7955C",
"a. c #CE9568",
"s. c #D79468",
"d. c #C79679",
"f. c #D99B76",
"g. c #CF8E67",
"h. c #E89D69",
"j. c #DCA47C",
"k. c #DCA277",
"l. c #EDA56E",
"z. c #E7A87A",
"x. c #F1AB78",
"c. c #F4A266",
"v. c #6D7382",
"b. c #6E7887",
"n. c #737581",
"m. c #7B7B84",
"M. c #747B8B",
"N. c #7A7D8B",
"B. c #767985",
"V. c #837E86",
"C. c #7B818E",
"Z. c #75818C",
"A. c #7B8594",
"S. c #7D8995",
"D. c #7A8597",
"F. c #87858A",
"G. c #838692",
"H. c #838995",
"J. c #898A95",
"K. c #898B99",
"L. c #978D95",
"P. c #8C929B",
"I. c #93939D",
"U. c #96999B",
"Y. c #918780",
"T. c #A88C81",
"R. c #B38B83",
"E. c #AD9286",
"W. c #B79A88",
"Q. c #A1979B",
"!. c #B79A95",
"~. c #A68D92",
"^. c #9EA49F",
"/. c #A6A59C",
"(. c #BAA590",
"). c #8A96A1",
"_. c #9598A4",
"`. c #A7A4AC",
"'. c #AAA9B2",
"]. c #B1B4B3",
"[. c #B3B6BA",
"{. c #B7ACB7",
"}. c #C59A89",
"|. c #D69883",
" X c #C3928C",
".X c #C6A286",
"XX c #DEAB84",
"oX c #D8A686",
"OX c #DBB28B",
"+X c #D8B392",
"@X c #CEAF9C",
"#X c #E5AD87",
"$X c #E9B58B",
"%X c #F5BC88",
"&X c #E4B797",
"*X c #EDB095",
"=X c #D9BAA4",
"-X c #CAB1AE",
";X c #EFB2A9",
":X c #E9C298",
">X c #F9C393",
",X c #D9C3BC",
"<X c #BABAC4",
"1X c #CABFC3",
"2X c #C6C5C8",
"3X c #DACCC7",
"4X c #DAD4C8",
"5X c #D5CDD6",
"6X c #D8D6D9",
"7X c #CFD2D7",
"8X c #E2CCCB",
"9X c #EBD8CE",
"0X c #E8D4D2",
"qX c #F5DADA",
"wX c #D8E0DD",
"eX c #DEDEE4",
"rX c #F5DFE7",
"tX c #DBE1E1",
"yX c #E5E2E3",
"uX c #E8E7EA",
"iX c #EDECF5",
"pX c #E9E8F3",
"aX c #F4F5FC",
"sX c #F6F9FA",
"dX c #F1EEEE",
"fX c #EDE4D7",
"gX c None",
/* pixels */
"gXgXgXgXgXgXgXgXgXgXgXgXgXgXgXgXgXgXgXgXgXgXgXgXgXgXgXgXgXgXgXgXgXgXgXgXgXgXgXgXgXgXgXgXgXgXgXgXgXgXgXgXgXgXgXgXgXgXgXgXgXgXgXgX",
"gXgXgXgXgXgXgXgXgXgXgXgXgXgXgXgXgXgXgXgXgXgXgXgXgXgXgXgXgXgXgXgXgXgXgXgXgXgXgXgXgXgXgXgXgXgXgXgXgXgXgXgXgXgXgXgXgXgXgXgXgXgXgXgX",
"gXgXgXgXgXgXgXgXgXgXgXgXgXgXgXgXgXgXgXgXgXgXgXgXgXgXgXgXgXgXgXgXgXgXgXgXgXgXgXgXgXgXgXgXgXgXgXgXgXgXgXgXgXgXgXgXgXgXgXgXgXgXgXgX",
"gXgXgXgXgXgXgXgXgXgXgXgXgXgXgXgXgXgXgXgXgXgXgXgXgXgXgXgXgXgXgXgXgXgXgXgXgXgXgXgXgXgXgXgXgXgXgXgXgXgXgXgXgXgXgXgXgXgXgXgXgXgXgXgX",
"gXgXgXgXgXgXgXgXgXgXgXgXgXgXgXgXgXgXgXgXgXgXgXgXgXgXgXgXgXgXgXgXgXgXgXgX`.`.G.gXgXgXgXgXgXgXgXgXgXgXgXgXgXgXgXgXgXgXgXgXgXgXgXgX",
"gXgXgXgXgXgXgXgXgXgXgXgXgXgXgXgXgXgXgXgXgXgXgXgXgXgXgXgXgXgXgXgXgXK.).`.`.K.) n./ gXgXgXgXgXgXgXgXgXgXgXgXgXgXgXgXgXgXgXgXgXgXgX",
"gXgXgXgXgXgXgXgXgXgXgXgXgXgXgXgXgXgXgXgXgXgXgXgXgXgXgXgXgXgXgXF.[ V.K.M.F Z J j E H gXgXgXgXgXgXgXgXgXgXgXgXgXgXgXgXgXgXgXgXgXgX",
"gXgXgXgXgXgXgXgXgXgXgXgXgXgXgXgXgXgXgXgXgXgXgXgXgXgXgXgXgXgXE H g i r = * r j i j j gXgXgXgXgXgXgXgXgXgXgXgXgXgXgXgXgXgXgXgXgXgX",
"gXgXgXgXgXgXgXgXgXgXgXgXgXgXgXgXgXgXgXgXgXgXgXgXgXgXgXgXgX! , = , & & p 3 p h 3 p r f gXgXgXgXgXgXgXgXgXgXgXgXgXgXgXgXgXgXgXgXgX",
"gXgXgXgXgXgXgXgXgXgXgXgXgXgXgXgXgXgXgXgXgXgXgXgXgXgX<.<.K Q < < 6 : 5 5 d d m m T M Q V.Q.gXgXgXgXgXgXgXgXgXgXgXgXgXgXgXgXgXgXgX",
"gXgXgXgXgXgXgXgXgXgXgXgXgXgXgXgXgXgXgXgXgXgXgXgXgXgXb v b x q q 0 0 0.8.$.B M 8.! W { gXgXgXgXgXgXgXgXgXgXgXgXgXgXgXgXgXgXgXgXgX",
"gXgXgXgXgXgXgXgXgXgXgXgXgXgXgXgXgXgXgXgXgXgXgXgXgXgXgXgXgXe.0.%.w | +X&X(.$.$.@XE.:.gXgXgXgXgXgXgXgXgXgXgXgXgXgXgXgXgXgXgXgXgXgX",
"gXgXgXgXgXgXgXgXgXgXgXgXgXgXgXgXgXgXgXgXgXgXgXgXgXgXgXgXgX1..X-.=.=.&X#XOX#.y.+Xw.E.gXgXgXgXgXgXgXgXgXgXgXgXgXgXgXgXgXgXgXgXgXgX",
"gXgXgXgXgXgXgXgXgXgXgXgXgXgXgXgXgXgXgXgXgXgXgXgXgXgXgXgXgX}.#.q.6.#Xz.%X#X>Xq.oX}.E.gXgXgXgXgXgXgXgXgXgXgXgXgXgXgXgXgXgXgXgXgXgX",
"gXgXgXgXgXgXgXgXgXgXgXgXgXgXgXgXgXgXgXgXgXgXgXgXm.` [ E <.-Xe.0.q.XXz.z.a.a.XXOXd.@XgXgXgXgXgXgXgXgXgXgXgXgXgXgXgXgXgXgXgXgXgXgX",
"gXgXgXgXgXgXgXgXgXgXgXgXgXgXgXgXgXgXgXgX].].2X7X1X'./ E ` -X0Xe.-.XX#Xz.x.o.6.6.d.>.!.gXgXgXgXgXgXgXgXgXgXgXgXgXgXgXgXgXgXgXgXgX",
"gXgXgXgXgXgXgXgXgXgXgXgXgXgXgXgXgXgXgX7XyXiXdXiXwX7X<X] ' H -X0X4.#.g.f.$X$XOX+X.X@././.gXgXgXgXgXgXgXgXgXgXgXgXgXgXgXgXgXgXgXgX",
"gXgXgXgXgXgXgXgXgXgXgXgXgXgXgXgXgXgX'.eXiXpXuXiXsX].7XK./ / E 0X3X!.4.3.d.:X+X=XE.N Y.4XgXgXgXgXgXgXgXgXgXgXgXgXgXgXgXgXgXgXgXgX",
"gXgXgXgXgXgXgXgXgXgXgXgXgXgXgXgXgXgX2XiXpXuXiXpXsXuXU.wX' ^ } { dXqX-X Xy.,.w.!.9.d 9.tX2XgXgXgXgXgXgXgXgXgXgXgXgXgXgXgXgXgXgXgX",
"gXgXgXgXgXgXgXgXgXgXgXgXgXgXgXgXgXm.1XiXpXpXpXpXsXsX^.wXn.} n./ {.rX0X-XO.4.;X0X1.v F.uX6XgXgXgXgXgXgXgXgXgXgXgXgXgXgXgXgXgXgXgX",
"gXgXgXgXgXgXgXgXgXgXgXgXgXgXgXgXgXK.2XaXiXiXpXpXdXuX^.uX} j P S J 5X-X2.c c 1.!.Q H V.uX6X[.gXgXgXgXgXgXgXgXgXgXgXgXgXgXgXgXgXgX",
"gXgXgXgXgXgXgXgXgXgXgXgXgXgXgXgXgXL.`.[.<X<X<X1X].].].[.h 2 f p H K V.1.c c :.K p s ` ].F.! <.<.gXgXgXgXgXgXgXgXgXgXH V.gXgXgXgX",
"gXgXgXgXgXgXgXgXgXgXgXgXgXgXgXgXgX`.1XeXeXeXeXeXfX,XU.T 3 2 k k d W l c b l N ! M T m T k 3 a x z z v s k b K J H v g V.` J gXgX",
"gXgXgXgXgXgXgXgXgXgXgXgXgXgXgXgXgX~.1X6X4X4X3XfXfX4X9.6 4 5 ; : < + < a + 5 : d p p 2 3 5 : 1 > 1 < < < < K V.gXgXJ Q ` gXgXgXgX",
"gXgXgXgXgXgXgXgXgXgXgXgXgXgXgXgX8X-X4.R.W.y.W.t.e.y.+.| X.X.%.| O.%.q 0 0 7 5 3 T ! 7 B t.O.9 +. .&.V.3.1.gXgXgXgXgXgXgXgXgXgXgX",
"gXgXgXgXgXgXgXgXgXgXgXgXgXgXgXgX2.2.d.oXoXj.j.$X>Xk.a.6.=...o.+.oXOXd.+.-.B ! 3 ! <.4 8.+Xq.;.s.*.*.|.;X XgXgXgXgXgXgXgXgXgXgXgX",
"gXgXgXgXgXgXgXgXgXgXgXgXgXgXgXgXO.&.f.l.h.l.x.x.%X>X>X%Xw 9 9 6.XXf.#Xz.OX+X8.: N n 0 ,.oXk.u.o.*.5.|.*XR.gXgXgXgXgXgXgXgXgXgXgX",
"gXgXgXgXgXgXgXgXgXgXgXgXgXgXgX8 O.*.5.p.c.c.l.x.%X%X:X:XX.d.@X7.-.#Xz.s.f.0.B l 1.1.l 4.d.d.a...&.|.|. X!.gXgXgXgXgXgXgXgXgXgXgX",
"gXgXgXgXgXgXgXgXgXgXgXgXgXgXgXe  .g.u.5.5.p.f.k.k.OXOX(.B 0.W.%.}.&Xj.s.d.4.n @.1.1.< @.#.+.+. .-. X XgXgXgXgXgXgXgXgXgXgXgXgXgX",
"gXgXgXgXgXgXgXgXgXgXgXgXgXgXgX8 #.f.g.u.*.o.-.d.y.7.t.9.5 5 < ,.W.oX.Xd.}.$.-X:.n W s gXgXgXgXgXgXgXgXgXgXgXgXgXgXgXgXgXgXgXgXgX",
"gXgXgXgXgXgXgXgXgXgXgXgXgXgXgXgX@.r.3.| +.e.:.>.9.@X,Xt.B a N W n 2.:.2.n >.0Xb k b k gXgXgXgXgXgXgXgXgXgXgXgXgXgXgXgXgXgXgXgXgX",
"gXgXgXgXgXgXgXgXgXgXgXgXgXgXgXgX@.:.x gXgXd g M p T T 3 Q 5 W W v { M k M W Q.Q E k gXgXgXgXgXgXgXgXgXgXgXgXgXgXgXgXgXgXgXgXgXgX",
"gXgXgXgXgXgXgXgXgXgXgXgXgXgXgXgXgXgXgXgXgXj Z F V Z v.t G Z C ~ S R h F Z g gXgXgXgXgXgXgXgXgXgXgXgXgXgXgXgXgXgXgXgXgXgXgXgXgXgX",
"gXgXgXgXgXgXgXgXgXgXgXgXgXgXgXgXgXgXgXgXgXR ) [ _ _ v.C _ G D G ( V P U ^ ~ R gXgXgXgXgXgXgXgXgXgXgXgXgXgXgXgXgXgXgXgXgXgXgXgXgX",
"gXgXgXgXgXgXgXgXgXgXgXgXgXgXgXgXgXgXgXgXgX[ ) ) _ _ v.v.v._ C G ( h v.b.B.B.S gXgXgXgXgXgXgXgXgXgXgXgXgXgXgXgXgXgXgXgXgXgXgXgXgX",
"gXgXgXgXgXgXgXgXgXgXgXgXgXgXgXgXgXgXgXgX/ [ _ n.n.N.M.v.b.v.V Y U D ^ v.[ / ` gXgXgXgXgXgXgXgXgXgXgXgXgXgXgXgXgXgXgXgXgXgXgXgXgX",
"gXgXgXgXgXgXgXgXgXgXgXgXgXgXgXgXgXgXgXgX/ ' ' K.N.M.M.M.v.G C v.D L ^ _ ' H gXgXgXgXgXgXgXgXgXgXgXgXgXgXgXgXgXgXgXgXgXgXgXgXgXgX",
"gXgXgXgXgXgXgXgXgXgXgXgXgXgXgXgXgXgXgXgXgX/ ) n._ v.v.v.v.G V U D ] ' C.B.V.gXgXgXgXgXgXgXgXgXgXgXgXgXgXgXgXgXgXgXgXgXgXgXgXgXgX",
"gXgXgXgXgXgXgXgXgXgXgXgXgXgXgXgXgXgXgXgXgX~ U v.M.M.N.N.D.v.V U ( G.G.G./ gXgXgXgXgXgXgXgXgXgXgXgXgXgXgXgXgXgXgXgXgXgXgXgXgXgXgX",
"gXgXgXgXgXgXgXgXgXgXgX  gXgXgXgXgXgXgXgXgXU ^ b.M.D.K.D.S.M.U U K.H.G.[ _ gXgXgXgXgXgXgXgXgXgXgXgXgXgXgXgXgXgXgXgXgXgXgXgXgXgXgX",
"gXgXgXgXgXgXgXgXgXgXO # @ gXgXgXgXgXH n.~ A L Y Z.Z.S.S.S.S.) Z N.G.V.[ gXgXgXgXgXgXgXgXgXgXgXgXgXgXgXgXgXgXgXgXgXgXgXgXgXgXgXgX",
"gXgXgXgXgXgXgXgXgXgX  @ * gXgXi = u H [ ) A I L b.S.S.Z.S.Z.A.Y / H.m.{ gXgXgXgXgXgXgXgXgXgXgXgXgXgXgXgXgXgXgXgXgXgXgXgXgXgXgXgX",
"gXgXgXgXgXgXgXgXgXgX@ t gXgXgXr - f _ ) ~ L A L ( M.S.D.Z.S.H.( h P.m.gXgXgXgXgXgXgXgXgXgXgXgXgXgXgXgXgXgXgXgXgXgXgXgXgXgXgXgXgX",
"gXgXgXgXgXgXgXgXgX@ O * gXgXgX= * r G._.N.L D A Y b.D.D.D.D.D.C.Z n.` gXgXgXgXgXgXgXgXgXgXgXgXgXgXgXgXgXgXgXgXgXgXgXgXgXgXgXgXgX",
"gXgXgXgXgXgXgXgXX # # t = gXgXr * j n._.K.^ Y A Y ( b.M.D.K.v.( S F gXgXgXgXgXgXgXgXgXgXgXgXgXgXgXgXgXgXgXgXgXgXgXgXgXgXgXgXgXgX",
"gXgXgXgXgXgXgXgXO $ # - $ gXgXgXgXgXF.U.U.R Y / A B.U Y b.b.U ( j R gXgXgXgXgXgXgXgXgXgXgXgXgXgXgXgXgXgXgXgXgXgXgXgXgXgXgXgXgXgX",
"gXgXgXgXgXgXgXgX. X # gXgXgXgXgXgXgXgXgXU.[ I P D ( U b.G L ( ^ v.[ gXgXgXgXgXgXgXgXgXgXgXgXgXgXgXgXgXgXgXgXgXgXgXgXgXgXgXgXgXgX",
"gXgXgXgXgXgXgXgXgXgXgXgXgXgXgXgXgXgXgXgXgXgXgXgXgXY v.v.v.Y P N.[ [ gXgXgXgXgXgXgXgXgXgXgXgXgXgXgXgXgXgXgXgXgXgXgXgXgXgXgXgXgXgX",
"gXgXgXgXgXgXgXgXgXgXgXgXgXgXgXgXgXgXgXgXgXgXgXgXgX~ ' ~ v.( H.H.' [ gXgXgXgXgXgXgXgXgXgXgXgXgXgXgXgXgXgXgXgXgXgXgXgXgXgXgXgXgXgX",
"gXgXgXgXgXgXgXgXgXgXgXgXgXgXgXgXgXgXgXgXgXgXgXgXgX^ ) ( ^ H.v.H.m.R gXgXgXgXgXgXgXgXgXgXgXgXgXgXgXgXgXgXgXgXgXgXgXgXgXgXgXgXgXgX",
"gXgXgXgXgXgXgXgXgXgXgXgXgXgXgXgXgXgXgXgXgXgXgXgXgX_ / ( ^ A.A.N.C.' ^ gXgXgXgXgXgXgXgXgXgXgXgXgXgXgXgXgXgXgXgXgXgXgXgXgXgXgXgXgX",
"gXgXgXgXgXgXgXgXgXgXgXgXgXgXgXgXgXgXgXgXgXgXgXgXgX/ ' ' v.A.N.A.J./ / gXgXgXgXgXgXgXgXgXgXgXgXgXgXgXgXgXgXgXgXgXgXgXgXgXgXgXgXgX",
"gXgXgXgXgXgXgXgXgXgXgXgXgXgXgXgXgXgXgXgXgXgXgXgXgXgX/ ) v.M.S.C.N.n.[ gXgXgXgXgXgXgXgXgXgXgXgXgXgXgXgXgXgXgXgXgXgXgXgXgXgXgXgXgX",
"gXgXgXgXgXgXgXgXgXgXgXgXgXgXgXgXgXgXgXgXgXgXgXgXgXgX/ [ ^ b.).Z.] ) ( S gXgXgXgXgXgXgXgXgXgXgXgXgXgXgXgXgXgXgXgXgXgXgXgXgXgXgXgX",
"gXgXgXgXgXgXgXgXgXgXgXgXgXgXgXgXgXgXgXgXgXgXgXgXgXgXC.m.~ Y Y Y h ) S n.gXgXgXgXgXgXgXgXgXgXgXgXgXgXgXgXgXgXgXgXgXgXgXgXgXgXgXgX",
"gXgXgXgXgXgXgXgXgXgXgXgXgXgXgXgXgXgXgXgXgXgXgXgXgXgX/ / D j b.Y ).I.J.I.{ gXgXgXgXgXgXgXgXgXgXgXgXgXgXgXgXgXgXgXgXgXgXgXgXgXgXgX",
"gXgXgXgXgXgXgXgXgXgXgXgXgXgXgXgXgXgXgXgXgXgXgXgXgXgXgX/ ' ' G.P.P.m.` ` gXgXgXgXgXgXgXgXgXgXgXgXgXgXgXgXgXgXgXgXgXgXgXgXgXgXgXgX",
"gXgXgXgXgXgXgXgXgXgXgXgXgXgXgXgXgXgXgXgXgXgXgXgXgXgXgX[ S R j R j t t gXgXgXgXgXgXgXgXgXgXgXgXgXgXgXgXgXgXgXgXgXgXgXgXgXgXgXgXgX",
"gXgXgXgXgXgXgXgXgXgXgXgXgXgXgXgXgXgXgXgXgXgXgXgXgXgXgXgXi f i = u gXgX& = = gXgXgXgXgXgXgXgXgXgXgXgXgXgXgXgXgXgXgXgXgXgXgXgXgXgX",
"gXgXgXgXgXgXgXgXgXgXgXgXgXgXgXgXgXgXgXgXgXgXgXgXgXgXgXgXk gXgXgXgXgX& & % % = & gXgXgXgXgXgXgXgXgXgXgXgXgXgXgXgXgXgXgXgXgXgXgXgX",
"gXgXgXgXgXgXgXgXgXgXgXgXgXgXgXgXgXgXgXgXgXgXgXgXgXgXgXgXj i = * $ & % o O . # gXgXgXgXgXgXgXgXgXgXgXgXgXgXgXgXgXgXgXgXgXgXgXgXgX",
"gXgXgXgXgXgXgXgXgXgXgXgXgXgXgXgXgXgXgXgXgXgXgXgXgXgXgXgXr % o # o $ O gXgXgXgXgXgXgXgXgXgXgXgXgXgXgXgXgXgXgXgXgXgXgXgXgXgXgXgXgX",
"gXgXgXgXgXgXgXgXgXgXgXgXgXgXgXgXgXgXgXgXgXgXgXgXgXgXgXgXgX% - gXgXgXgXgXgXgXgXgXgXgXgXgXgXgXgXgXgXgXgXgXgXgXgXgXgXgXgXgXgXgXgXgX",
"gXgXgXgXgXgXgXgXgXgXgXgXgXgXgXgXgXgXgXgXgXgXgXgXgXgXgXgXgXgXgXgXgXgXgXgXgXgXgXgXgXgXgXgXgXgXgXgXgXgXgXgXgXgXgXgXgXgXgXgXgXgXgXgX"
};
