/* XPM */
static char *result[] = {
/* columns rows colors chars-per-pixel */
"64 64 227 2 ",
"   c #090306",
".  c #0C040B",
"X  c #050206",
"o  c #11060F",
"O  c #120B0E",
"+  c #140B13",
"@  c #1D0F1A",
"#  c #1D151D",
"$  c #19141A",
"%  c #0F0A10",
"&  c #1A1620",
"*  c #271C25",
"=  c #29232A",
"-  c #33282A",
";  c #383439",
":  c #352932",
">  c #492B21",
",  c #573929",
"<  c #473736",
"1  c #543A33",
"2  c #4D382B",
"3  c #763B21",
"4  c #713719",
"5  c #4A433E",
"6  c #524233",
"7  c #56453C",
"8  c #72542E",
"9  c #664938",
"0  c #774C35",
"q  c #7D563A",
"w  c #644A37",
"e  c #3D3C43",
"r  c #3A3440",
"t  c #463B44",
"y  c #503A40",
"u  c #3E4D56",
"i  c #3F4041",
"p  c #4C4549",
"a  c #4C4C4C",
"s  c #444448",
"d  c #53424C",
"f  c #534C4C",
"g  c #584945",
"h  c #5C544B",
"j  c #595147",
"k  c #4B4B53",
"l  c #474854",
"z  c #544C53",
"x  c #5D4E5A",
"c  c #49535A",
"v  c #54535C",
"b  c #5A5757",
"n  c #644C45",
"m  c #76484E",
"M  c #64544C",
"N  c #795844",
"B  c #774C51",
"V  c #645552",
"C  c #6B5B5C",
"Z  c #685955",
"A  c #735B54",
"S  c #6A645B",
"D  c #776359",
"F  c #4E5B64",
"G  c #4A5C66",
"H  c #555560",
"J  c #545B64",
"K  c #5B5B64",
"L  c #595D69",
"P  c #685E61",
"I  c #54636C",
"U  c #5C636C",
"Y  c #5B6669",
"T  c #5D6572",
"R  c #5F6B75",
"E  c #5B6A77",
"W  c #576873",
"Q  c #646264",
"!  c #63646D",
"~  c #636A6F",
"^  c #6C6666",
"/  c #736765",
"(  c #7B7268",
")  c #626674",
"_  c #646B74",
"`  c #696C74",
"'  c #646D7C",
"]  c #6B6D7A",
"[  c #64727C",
"{  c #6B737C",
"}  c #697378",
"|  c #72747C",
" . c #737578",
".. c #706D79",
"X. c #8C5937",
"o. c #91573F",
"O. c #924D30",
"+. c #A85534",
"@. c #87633B",
"#. c #855D41",
"$. c #8F5D51",
"%. c #88664B",
"&. c #996546",
"*. c #886858",
"=. c #986855",
"-. c #867059",
";. c #957559",
":. c #95704F",
">. c #A97245",
",. c #B2784D",
"<. c #B77757",
"1. c #A56952",
"2. c #866968",
"3. c #976D63",
"4. c #897565",
"5. c #987968",
"6. c #867878",
"7. c #9E7B72",
"8. c #A87969",
"9. c #B77A6A",
"0. c #A57377",
"q. c #C77755",
"w. c #C47D46",
"e. c #CA7C64",
"r. c #B4835C",
"t. c #98836E",
"y. c #978778",
"u. c #AA8369",
"i. c #B68A6B",
"p. c #B88C75",
"a. c #BB9478",
"s. c #A48574",
"d. c #C7824E",
"f. c #C3895C",
"g. c #D18A5A",
"h. c #D1915F",
"j. c #C88967",
"k. c #D98D6D",
"l. c #CB946C",
"z. c #DD9667",
"x. c #CA9A76",
"c. c #D49B7B",
"v. c #D99777",
"b. c #C58770",
"n. c #E99B67",
"m. c #E79C77",
"M. c #E08F6F",
"N. c #DBA37B",
"B. c #E5A479",
"V. c #F4AB78",
"C. c #F9B27D",
"Z. c #F5A66A",
"A. c #6C7682",
"S. c #6E7A84",
"D. c #647181",
"F. c #737C85",
"G. c #7A7B84",
"H. c #747E89",
"J. c #747384",
"K. c #887C83",
"L. c #75828A",
"P. c #7B848C",
"I. c #7A8287",
"U. c #7C8A93",
"Y. c #7C8691",
"T. c #82858D",
"R. c #868588",
"E. c #968C87",
"W. c #9C958E",
"Q. c #838C95",
"!. c #848A95",
"~. c #8A9197",
"^. c #939599",
"/. c #918D94",
"(. c #A19288",
"). c #B79687",
"_. c #A99798",
"`. c #B28F8B",
"'. c #BEB29E",
"]. c #949BA4",
"[. c #9BA1A7",
"{. c #A9A6AD",
"}. c #ADAEB3",
"|. c #B4BCBD",
" X c #B2B4BA",
".X c #AEB3B2",
"XX c #C89A82",
"oX c #CD9D8E",
"OX c #E09A81",
"+X c #D9AA88",
"@X c #C5A998",
"#X c #D6AA97",
"$X c #C7B699",
"%X c #D3AD8C",
"&X c #EAAC86",
"*X c #F7B788",
"=X c #E9B794",
"-X c #FBBD96",
";X c #E8AF93",
":X c #C89BA6",
">X c #DBB3A9",
",X c #CBB5BE",
"<X c #C4B1A8",
"1X c #EBBAA4",
"2X c #F9C699",
"3X c #D5C4B8",
"4X c #EFC8A1",
"5X c #B8BBC1",
"6X c #BDC2C6",
"7X c #C6C2C7",
"8X c #CBCBD3",
"9X c #D6D7D9",
"0X c #DACDC4",
"qX c #E6D2C9",
"wX c #E6D7D3",
"eX c #F1CFCF",
"rX c #E7E1D9",
"tX c #F4E2D7",
"yX c #D4D8E0",
"uX c #E4E4EB",
"iX c #E7E7E9",
"pX c #EBECF2",
"aX c #F4EDF5",
"sX c #EAF2F4",
"dX c #F6F8FA",
"fX c #FCEDE5",
"gX c #ADD8E6",
/* pixels */
"gXgXgXgXgXgXgXgXgXgXgXgXgXgXgXgXgXgXgXgXgXgXgXgXgXgXgXgXgXgXgXgXgXgXgXgXgXgXgXgXgXgXgXgXgXgXgXgXgXgXgXgXgXgXgXgXgXgXgXgXgXgXgXgX",
"gXgXgXgXgXgXgXgXgXgXgXgXgXgXgXgXgXgXgXgXgXgXgXgXgXgXgXgXgXgXgXgXgXgXgXgXgXgXgXgXgXgXgXgXgXgXgXgXgXgXgXgXgXgXgXgXgXgXgXgXgXgXgXgX",
"gXgXgXgXgXgXgXgXgXgXgXgXgXgXgXgXgXgXgXgXgXgXgXgXgXgXgXgXgXgXgXgXgXgXgXgXgXgXgXgXgXgXgXgXgXgXgXgXgXgXgXgXgXgXgXgXgXgXgXgXgXgXgXgX",
"gXgXgXgXgXgXgXgXgXgXgXgXgXgXgXgXgXgXgXgXgXgXgXgXgXgXgXgXgXgXgXgXgXgXgXgXgXgXgXgXgXgXgXgXgXgXgXgXgXgXgXgXgXgXgXgXgXgXgXgXgXgXgXgX",
"gXgXgXgXgXgXgXgXgXgXgXgXgXgXgXgXgXgXgXgXgXgXgXgXgXgXgXgXgXgXgXK ! gXgXgXgXgXgXgXgXgXgXgXgXgXgXgXgXgXgXgXgXgXgXgXgXgXgXgXgXgXgXgX",
"gXgXgXgXgXgXgXgXgXgXgXgXgXgXgXgXgXgXgXgXgXgXgXgXgXgXgXgXgXH D.J.!.~.I.I.s gXgXgXgXgXgXgXgXgXgXgXgXgXgXgXgXgXgXgXgXgXgXgXgXgXgXgX",
"gXgXgXgXgXgXgXgXgXgXgXgXgXgXgXgXgXgXgXgXgXgXgXgXgXgXgXgXt J J J L ` P.R.` Y k gXgXgXgXgXgXgXgXgXgXgXgXgXgXgXgXgXgXgXgXgXgXgXgXgX",
"gXgXgXgXgXgXgXgXgXgXgXgXgXgXgXgXgXgXgXgXgXgXgXgXgXgXgX; t v l c ; ; ; < s s b gXgXgXgXgXgXgXgXgXgXgXgXgXgXgXgXgXgXgXgXgXgXgXgXgX",
"gXgXgXgXgXgXgXgXgXgXgXgXgXgXgXgXgXgXgXgXgXgXgXgXgXgXp < a i s c a a - ; : - < : gXgXgXgXgXgXgXgXgXgXgXgXgXgXgXgXgXgXgXgXgXgXgXgX",
"gXgXgXgXgXgXgXgXgXgXgXgXgXgXgXgXgXgXgXgXgXgXgXgXgXx / V ^ Q ^ Z b a j 6 d t g Z S P p gXgXgXgXgXgXgXgXgXgXgXgXgXgXgXgXgXgXgXgXgX",
"gXgXgXgXgXgXgXgXgXgXgXgXgXgXgXgXgXgXgXgXgXgXgXgXgXgXC Z ( 6.S S ( t.t.N N 3 n m h d < gXgXgXgXgXgXgXgXgXgXgXgXgXgXgXgXgXgXgXgXgX",
"gXgXgXgXgXgXgXgXgXgXgXgXgXgXgXgXgXgXgXgXgXgXgXgXgXgXgX9 =.>X@X3.:.$X%Xx.4 o.3.3.gXgXgXgXgXgXgXgXgXgXgXgXgXgXgXgXgXgXgXgXgXgXgXgX",
"gXgXgXgXgXgXgXgXgXgXgXgXgXgXgXgXgXgXgXgXgXgXgXgXgXgXgX3.;.#X#X;.=Xx.*XB.O.j.9.`.gXgXgXgXgXgXgXgXgXgXgXgXgXgXgXgXgXgXgXgXgXgXgXgX",
"gXgXgXgXgXgXgXgXgXgXgXgXgXgXgXgXgXgXgXgXgXgXgXgXgXgXgX*.u.#Xp.=X2X2X2Xm.m.e.e.=.gXgXgXgXgXgXgXgXgXgXgXgXgXgXgXgXgXgXgXgXgXgXgXgX",
"gXgXgXgXgXgXgXgXgXgXgXgXgXgXgXgXgXgXgXgXgXgXgXgXgXgXgX).XX+X=Xl.@.C.V.n.m.1.9.#X`./ / Y z gXgXgXgXgXgXgXgXgXgXgXgXgXgXgXgXgXgXgX",
"gXgXgXgXgXgXgXgXgXgXgXgXgXgXgXgXgXgXgXgXgXgXgXgXgXgXgX4.).b.j.>.h.C.N.v.OX=.#XeX6./ P K.7X7X8X XgXgXgXgXgXgXgXgXgXgXgXgXgXgXgXgX",
"gXgXgXgXgXgXgXgXgXgXgXgXgXgXgXgXgXgXgXgXgXgXgXgXgXgX_.D s.+XOX;X-X&Xl.9.-.$XqX6.^ Q ^.yX8XpXsXuXuX7XgXgXgXgXgXgXgXgXgXgXgXgXgXgX",
"gXgXgXgXgXgXgXgXgXgXgXgXgXgXgXgXgXgXgXgXgXgXgXgXgXE.<X( -.@X1X-X;X8.s.7.,XrXR._ _ P.yX5XsXsXiXiXuXaX}.gXgXgXgXgXgXgXgXgXgXgXgXgX",
"gXgXgXgXgXgXgXgXgXgXgXgXgXgXgXgXgXgXgXgXgXgXgXgXgXwXE.D A @X).9.3.oXoXwXrX6XY [ ' ].8X.XdXpXsXsXpXpX8X{.gXgXgXgXgXgXgXgXgXgXgXgX",
"gXgXgXgXgXgXgXgXgXgXgXgXgXgXgXgXgXgXgXgXgXgXgXgXgX7XW.( Z fXqXK.2.0.tXaX9X~ [ I A.[.7X|.dXsXiXsXuXpXuX{.gXgXgXgXgXgXgXgXgXgXgXgX",
"gXgXgXgXgXgXgXgXgXgXgXgXgXgXgXgXgXgXgXgXgXgXgXgX6.iXE./ V _.`.2.m m :X,X^.P L I T [.9X.XdXdXsXsXpXuXdX XgXgXgXgXgXgXgXgXgXgXgXgX",
"gXgXgXgXgXgXgXgXgX6.d gXgXgXgXgXgXgXgXgXgXgXgXk R.{. .Q 5 : `.A B m :X2.V j a a i  .9X].|.|.|.|.5X X X^.gXgXgXgXgXgXgXgXgXgXgXgX",
"gXgXgXgXgXgXgXz x x d d y d y y g p j j 7 n j < M Q Q Q Q C / C C B A n A w M 5 5 b .X.X9XiXiXrXrXiX9X/.gXgXgXgXgXgXgXgXgXgXgXgX",
"gXgXgXgXgXgXgXgXgXgXy t gXgXgX< 2 7 , , 2 , , > 7 j 6 5 f f < < < y < > , 6 6 6 6 5 y.0XrXrXrX0X3XqX0XW.gXgXgXgXgXgXgXgXgXgXgXgX",
"gXgXgXgXgXgXgXgXgXgXgXgXgXgXgXgX7.8.p.=.O.&.o.O.8.)., j ( a M 7 1 , 0 =.=.q %.%.8 @.r.r.a.a.i.a.a.p.a.s.gXgXgXgXgXgXgXgXgXgXgXgX",
"gXgXgXgXgXgXgXgXgXgXgXgXgXgXgXgXXX#X;Xq.+.M.q.<.XX#X9 w y.6 D -.8.1.j.m.&X<.@.@.@.>.r.B.&X*XC.z.N.&XN.&.#.gXgXgXgXgXgXgXgXgXgXgX",
"gXgXgXgXgXgXgXgXgXgXgXgXgXgXgXgX0.9.OXe.+.q.q.k.N.%X8 n D 6 A #X;Xm.V.M.B.x.8 8 8 N.2X2X*XC.C.Z.n.n.n.f.&.q gXgXgXgXgXgXgXgXgXgX",
"gXgXgXgXgXgXgXgXgXgXgXgXgXgXgXgXgX9.v.OXq.O.q.b.x.XXw ( y.M M %.*XM.n.m.N.@.@X$Xt.t.4X2XC.C.Z.n.Z.n.d.,.,.&.gXgXgXgXgXgXgXgXgXgX",
"gXgXgXgXgXgXgXgXgXgXgXgXgXgXgXgXgXgX9.XXb.3 &.&.N %.2 D E.h <XX.v.j.n.&XN.N (.W.( t.%XN.N.B.z.z.g.w.w.g.,.:.gXgXgXgXgXgXgXgXgXgX",
"gXgXgXgXgXgXgXgXgXgXgXgXgXgXgXgXgXgXgXgXgXgXgXgXgXgX- y / g wX5.8.c.B.l.XX).w 6 j t.s.i.a.p.i.&.X.r.h.B.<.X.gXgXgXgXgXgXgXgXgXgX",
"gXgXgXgXgXgXgXgXgXgXgXgXgXgXgXgXgXgXgXgXgXgXgXgXgXgXr r x z ,XwXD :.;.5.*.*.( n A t.$X$X).y.D *.gX8 @.i.i.%.gXgXgXgXgXgXgXgXgXgX",
"gXgXgXgXgXgXgXgXgXgXgXgXgXgXgXgXgXgXgXgXgXgXgXgXgXgXgXgXgXgXgX| z b h / ^ / Z S S h S S Q b C M gXgXgXw 6 gXgXgXgXgXgXgXgXgXgXgX",
"gXgXgXgXgXgXgXgXgXgXgXgXgXgXgXgXgXgXgXgXgXgXgXgXgXgXgXgXgXgXgXl v U l I F W F L G F c J U v v k gXgXgXgXgXgXgXgXgXgXgXgXgXgXgXgX",
"gXgXgXgXgXgXgXgXgXgXgXgXgXgXgXgXgXgXgXgXgXgXgXgXgXgXgXgXgXgXgXJ L T I L I I G I I E [ E T _ } K gXgXgXgXgXgXgXgXgXgXgXgXgXgXgXgX",
"gXgXgXgXgXgXgXgXgXgXgXgXgXgXgXgXgXgXgXgXgXgXgXgXgXgXgXgXgXgXgXL T.A.A.' G [ G E [ E [ } [ } ` ! gXgXgXgXgXgXgXgXgXgXgXgXgXgXgXgX",
"gXgXgXgXgXgXgXgXgXgXgXgXgXgXgXgXgXgXgXgXgXgXgXgXgXgXgXgXgXgXgXP G._ T.F I E u I L.L.P.L.L.L.S.U K gXgXgXgXgXgXgXgXgXgXgXgXgXgXgX",
"gXgXgXgXgXgXgXgXgXgXgXgXgXgXgXgXgXgXgXgXgXgXgXgXgXgXgXgXgXgXgXk K _ I _ c I I [ L.D.[ [ P.F.F.H s gXgXgXgXgXgXgXgXgXgXgXgXgXgXgX",
"gXgXgXgXgXgXgXgXgXgXgXgXgXgXgXgXgXgXgXgXgXgXgXgXgXgXgXgXgXgXgXgXa G.G.} u W L.U.U.L.L.L._ ` ] p gXgXgXo gXgXgXgXgXgXgXgXgXgXgXgX",
"gXgXgXgXgXgXgXgXgXgXgXgXgXgXgXgXgXgXgXgXgXgXgXgXgXgXgXgXgXgXgXgXk { U.I [ U.U.L.U.P.P.L.[ { Y gXgXgXo + o gXgXgXgXgXgXgXgXgXgXgX",
"gXgXgXgXgXgXgXgXgXgXgXgXgXgXgXgXgXgXgXgXgXgXgXgXgXgXgXgXgXgXgXgXz ` Y Y L.U.U.U.P.L.P.S.` ! Y gXgXgXt * @ + + gXgXgXgXgXgXgXgXgX",
"gXgXgXgXgXgXgXgXgXgXgXgXgXgXgXgXgXgXgXgXgXgXgXgXgXgXgXgXgXgXgXgXgXc ] ] !.U.H.U.U.H.D.D.Y J } ; $ gXgXgX: * + . gXgXgXgXgXgXgXgX",
"gXgXgXgXgXgXgXgXgXgXgXgXgXgXgXgXgXgXgXgXgXgXgXgXgXgXgXgXgXgXgXgXv U ) A.!.Y.H.Q.Y.H.D.G F Y Y i = = gXgXgX= - $   O gXgXgXgXgXgX",
"gXgXgXgXgXgXgXgXgXgXgXgXgXgXgXgXgXgXgXgXgXgXgXgXgXgXgXgXgXgXgXgXH ) ] A.S.H.A.Y.S.R I c I | | K ; & # gXgXo - - $     gXgXgXgXgX",
"gXgXgXgXgXgXgXgXgXgXgXgXgXgXgXgXgXgXgXgXgXgXgXgXgXgXgXgXgXgXgXc ' D.' E D.D.D.J.Y Y R } Y L.[.J.i r gXgXgXgXgX* * +   gXgXgXgXgX",
"gXgXgXgXgXgXgXgXgXgXgXgXgXgXgXgXgXgXgXgXgXgXgXgXgXgXgXgXgXgXt ) ' ) D.' ' ' D.T T } P.P.~ } ].T.' gXgXgXgXgXgXgXgXgXgXgXgXgXgXgX",
"gXgXgXgXgXgXgXgXgXgXgXgXgXgXgXgXgXgXgXgXgXgXgXgXgXgXgXgXgXgXl ] D.T S.E D.T L L ] P.~.R.~ ~ ^.T.gXgXgXgXgXgXgXgXgXgXgXgXgXgXgXgX",
"gXgXgXgXgXgXgXgXgXgXgXgXgXgXgXgXgXgXgXgXgXgXgXgXgXgXgXgXgXgXY | G.H.] ] ) ' ! ] T.T.G.` v b G.! gXgXgXgXgXgXgXgXgXgXgXgXgXgXgXgX",
"gXgXgXgXgXgXgXgXgXgXgXgXgXgXgXgXgXgXgXgXgXgXgXgXgXgXgXgXgXe Y P.!.H.) A.) ) K ! ..H k gXgXgXgXgXgXgXgXgXgXgXgXgXgXgXgXgXgXgXgXgX",
"gXgXgXgXgXgXgXgXgXgXgXgXgXgXgXgXgXgXgXgXgXgXgXgXgXgXgXgXgXc | T.H.P.{ | ' H r gXgXgXgXgXgXgXgXgXgXgXgXgXgXgXgXgXgXgXgXgXgXgXgXgX",
"gXgXgXgXgXgXgXgXgXgXgXgXgXgXgXgXgXgXgXgXgXgXgXgXgXgXgXgXs ` I.P.U.!._ ` ) e gXgXgXgXgXgXgXgXgXgXgXgXgXgXgXgXgXgXgXgXgXgXgXgXgXgX",
"gXgXgXgXgXgXgXgXgXgXgXgXgXgXgXgXgXgXgXgXgXgXgXgXgXgXgXgXv ~ I.Q.~.H.` } ! gXgXgXgXgXgXgXgXgXgXgXgXgXgXgXgXgXgXgXgXgXgXgXgXgXgXgX",
"gXgXgXgXgXgXgXgXgXgXgXgXgXgXgXgXgXgXgXgXgXgXgXgXgXgXgXp Q ~ I.P.Q.{ ] ~ k gXgXgXgXgXgXgXgXgXgXgXgXgXgXgXgXgXgXgXgXgXgXgXgXgXgXgX",
"gXgXgXgXgXgXgXgXgXgXgXgXgXgXgXgXgXgXgXgXgXgXgXgXgXgXP K.| P _ R I.` } ~ gXgXgXgXgXgXgXgXgXgXgXgXgXgXgXgXgXgXgXgXgXgXgXgXgXgXgXgX",
"gXgXgXgXgXgXgXgXgXgXgXgXgXgXgXgXgXgXgXgXgXgXgXgXgXgX` R./.~.F.T J Y J s gXgXgXgXgXgXgXgXgXgXgXgXgXgXgXgXgXgXgXgXgXgXgXgXgXgXgXgX",
"gXgXgXgXgXgXgXgXgXgXgXgXgXgXgXgXgXgXgXgXgXgXgXgXgXgXgXt G.G.T.].I.K v e gXgXgXgXgXgXgXgXgXgXgXgXgXgXgXgXgXgXgXgXgXgXgXgXgXgXgXgX",
"gXgXgXgXgXgXgXgXgXgXgXgXgXgXgXgXgXgXgXgXgXgX+ . * * # b gXT.) | ` ! K gXgXgXgXgXgXgXgXgXgXgXgXgXgXgXgXgXgXgXgXgXgXgXgXgXgXgXgXgX",
"gXgXgXgXgXgXgXgXgXgXgXgXgXgXgXgXgXgXgXgXgXgX%   . - = : gXgXgX Xb k gXgXgXgXgXgXgXgXgXgXgXgXgXgXgXgXgXgXgXgXgXgXgXgXgXgXgXgXgXgX",
"gXgXgXgXgXgXgXgXgXgXgXgXgXgXgXgXgXgXgXgXgXgXgXgX. o o . # = K {.v gXgXgXgXgXgXgXgXgXgXgXgXgXgXgXgXgXgXgXgXgXgXgXgXgXgXgXgXgXgXgX",
"gXgXgXgXgXgXgXgXgXgXgXgXgXgXgXgXgXgXgXgXgXgXgXgXgXgXgX. . % # % . gXgXgXgXgXgXgXgXgXgXgXgXgXgXgXgXgXgXgXgXgXgXgXgXgXgXgXgXgXgXgX",
"gXgXgXgXgXgXgXgXgXgXgXgXgXgXgXgXgXgXgXgXgXgXgXgXgXgXgXgXgXX X X . gXgXgXgXgXgXgXgXgXgXgXgXgXgXgXgXgXgXgXgXgXgXgXgXgXgXgXgXgXgXgX",
"gXgXgXgXgXgXgXgXgXgXgXgXgXgXgXgXgXgXgXgXgXgXgXgXgXgXgXgXgXgXgXgXgXgXgXgXgXgXgXgXgXgXgXgXgXgXgXgXgXgXgXgXgXgXgXgXgXgXgXgXgXgXgXgX",
"gXgXgXgXgXgXgXgXgXgXgXgXgXgXgXgXgXgXgXgXgXgXgXgXgXgXgXgXgXgXgXgXgXgXgXgXgXgXgXgXgXgXgXgXgXgXgXgXgXgXgXgXgXgXgXgXgXgXgXgXgXgXgXgX",
"gXgXgXgXgXgXgXgXgXgXgXgXgXgXgXgXgXgXgXgXgXgXgXgXgXgXgXgXgXgXgXgXgXgXgXgXgXgXgXgXgXgXgXgXgXgXgXgXgXgXgXgXgXgXgXgXgXgXgXgXgXgXgXgX",
"gXgXgXgXgXgXgXgXgXgXgXgXgXgXgXgXgXgXgXgXgXgXgXgXgXgXgXgXgXgXgXgXgXgXgXgXgXgXgXgXgXgXgXgXgXgXgXgXgXgXgXgXgXgXgXgXgXgXgXgXgXgXgXgX"
};
