/* XPM */
static char *d6b718e21440414dfc4e05bcfa126063zDWCLHauUyasRVVu[] = {
/* columns rows colors chars-per-pixel */
"64 64 231 2 ",
"   c None",
".  c #0D040A",
"X  c #090307",
"o  c #12090E",
"O  c #11070C",
"+  c #140B12",
"@  c #1B0E18",
"#  c #1A1419",
"$  c #23181E",
"%  c #1E1A20",
"&  c #231C23",
"*  c #2B2429",
"=  c #332B31",
"-  c #362F38",
";  c #3B343A",
":  c #31262F",
">  c #4E3A2C",
",  c #4A3528",
"<  c #57392A",
"1  c #483939",
"2  c #573E34",
"3  c #422D2F",
"4  c #603319",
"5  c #53442D",
"6  c #4B433C",
"7  c #574538",
"8  c #5A503C",
"9  c #77472A",
"0  c #664734",
"q  c #745439",
"w  c #6F4E30",
"e  c #3C3B45",
"r  c #2F3543",
"t  c #443B44",
"y  c #473C45",
"u  c #523F4A",
"i  c #3F4145",
"p  c #43434D",
"a  c #4A464C",
"s  c #584846",
"d  c #58524C",
"f  c #4B4E5C",
"g  c #484954",
"h  c #534D54",
"j  c #554D59",
"k  c #4E5358",
"l  c #545255",
"z  c #53535C",
"x  c #5B555A",
"c  c #595658",
"v  c #724A4E",
"b  c #665449",
"n  c #775949",
"m  c #654B54",
"M  c #635B5C",
"N  c #665658",
"B  c #785757",
"V  c #704D4F",
"C  c #5E6156",
"Z  c #6F685C",
"A  c #78655A",
"S  c #4E5461",
"D  c #4E5C63",
"F  c #545563",
"G  c #555B64",
"H  c #5A5B64",
"J  c #5C5C6A",
"K  c #575966",
"L  c #4E4E60",
"P  c #635C63",
"I  c #615F69",
"U  c #6B5D65",
"Y  c #55616B",
"T  c #5C636C",
"R  c #5A6468",
"E  c #5E6471",
"W  c #5E6A73",
"Q  c #5E6978",
"!  c #646266",
"~  c #64636C",
"^  c #6B6769",
"/  c #71666A",
"(  c #786B66",
")  c #7C7169",
"_  c #636572",
"`  c #636B75",
"'  c #6B6C75",
"]  c #636D7A",
"[  c #6A6D7A",
"{  c #696774",
"}  c #64717B",
"|  c #6C737C",
" . c #6C797F",
".. c #72747C",
"X. c #79737A",
"o. c #766B75",
"O. c #865838",
"+. c #9B5B37",
"@. c #91442A",
"#. c #A65539",
"$. c #8D623D",
"%. c #90653E",
"&. c #A16939",
"*. c #B6723D",
"=. c #975C41",
"-. c #885B54",
";. c #885848",
":. c #8C6847",
">. c #9A664A",
",. c #866B5B",
"<. c #986A55",
"1. c #99745A",
"2. c #877354",
"3. c #A7744B",
"4. c #A87659",
"5. c #B87A58",
"6. c #A96D4E",
"7. c #815962",
"8. c #8A6766",
"9. c #8A7564",
"0. c #987968",
"q. c #8F766F",
"w. c #AA7868",
"e. c #B17871",
"r. c #C57B47",
"t. c #C87854",
"y. c #D47E5A",
"u. c #CB7D60",
"i. c #9A8875",
"p. c #9D816E",
"a. c #A8856D",
"s. c #B48166",
"d. c #A78876",
"f. c #B98A76",
"g. c #AC917B",
"h. c #B89677",
"j. c #BB906A",
"k. c #CD8A54",
"l. c #C68666",
"z. c #C6946C",
"x. c #D89668",
"c. c #C68C78",
"v. c #C49676",
"b. c #D49C73",
"n. c #D89775",
"m. c #D98E68",
"M. c #E49B77",
"N. c #E29B68",
"B. c #DDA477",
"V. c #EAA46C",
"C. c #E7A87A",
"Z. c #F3B27D",
"A. c #F0AE7B",
"S. c #6B7682",
"D. c #6C7A83",
"F. c #717581",
"G. c #737B85",
"H. c #747D89",
"J. c #797E89",
"K. c #7A7B83",
"L. c #75818B",
"P. c #7B848C",
"I. c #798488",
"U. c #7B8692",
"Y. c #7D8B93",
"T. c #788794",
"R. c #82828C",
"E. c #89888A",
"W. c #978683",
"Q. c #818B94",
"!. c #898B96",
"~. c #8B929A",
"^. c #989497",
"/. c #998E8D",
"(. c #B99487",
"). c #A78F8E",
"_. c #BEA68C",
"`. c #B1A99F",
"'. c #999AA3",
"]. c #8694A1",
"[. c #A89BAB",
"{. c #B296A3",
"}. c #9DA0A5",
"|. c #A5A4A7",
" X c #ADADB3",
".X c #B6B9BA",
"XX c #B4A7B0",
"oX c #D79A89",
"OX c #C59B88",
"+X c #D7A786",
"@X c #C7AA98",
"#X c #D4B192",
"$X c #CCAB93",
"%X c #E7A785",
"&X c #E1B188",
"*X c #F8B789",
"=X c #E9AF97",
"-X c #E5B797",
";X c #F9B890",
":X c #F4AD8F",
">X c #CDB4AC",
",X c #F1BDA5",
"<X c #B5C3BD",
"1X c #F9C597",
"2X c #DCCCB9",
"3X c #F2C6A7",
"4X c #BABCC2",
"5X c #BDADC0",
"6X c #C3B9C6",
"7X c #C5C3C8",
"8X c #DCCAC6",
"9X c #D9DBC8",
"0X c #CCCBD2",
"qX c #D3CCD4",
"wX c #D7D6DB",
"eX c #E3D8CB",
"rX c #E8D1D2",
"tX c #E8E6DA",
"yX c #F5E3DC",
"uX c #DDD9E3",
"iX c #E1DBE3",
"pX c #E4EAEC",
"aX c #EBEDED",
"sX c #E5E4E5",
"dX c #FDE9EB",
"fX c #ECEFF4",
"gX c #E7EEF1",
"hX c #F6EEF0",
"jX c #EDF1F5",
"kX c #F7F9FC",
"lX c #D9E6D6",
/* pixels */
"                                                                                                                                ",
"                                                                                                                                ",
"                                                                                                                                ",
"                                                                                                                                ",
"                                                              H H ~                                                             ",
"                                                            K ' K.R.!.!...g                                                     ",
"                                                          e z F ' J { R.!.{ I ;                                                 ",
"                                                        * z p p k p - e t p x j                                                 ",
"                                                      = a e x a p l ; 1 - * 1 = =                                               ",
"                                                    P x M M ^ x M M d s 6 8 6 l h U P a                                         ",
"                                                      / c q.q.N A ,.p.d.q q < V 7 s 1                                           ",
"                                                        m A >X_.2.v.+X+Xb.4 >.4.<.                                              ",
"                                                        8.,.3XOX3.1XB.C.n.+.5.l.f.                                              ",
"                                                        ,.1.&Xz.C.*X1XZ.x.C.5.w.-.                                              ",
"                                                        1.+X+XC.x.*.Z.C.A.B.>.f.>XW./ l !                                       ",
"                                                        a.f.z.3.*.N.A.b.b.z.1.2X8X( / X.E..X7X7X.X                              ",
"                                                      ).n a.+X%X;X;X%Xv.4.0.@XeX) / / '.uXwXkXaXsXsX>X                          ",
"                                                    ^.|.A q.#X-X,XoXe.w.p.2X9XE.! ! ^.0X.XjXjXpXaXaXaX|.                        ",
"                                                    qXX.o.Z @X(.w.w.(.@XyXtX|.z | ..}.7X4XkXgXpXpXpXkX0X[.                      ",
"                                                    wXI.^ / dX8Xe.8.).yXhXwXR | E I. X7X0XkXjXpXgXpXfXuXXX                      ",
"                                                  ^.sXK.' x XX{.7.v V >XqXK.E G G ' |.7XqXkXkXfXgXjXjXiX5X                      ",
"                    / t                         m X. XK.z t y ).v v 8.{.o.z f g i a E.qX'.4X4X<X.X.X X6X[.                      ",
"                y N N t N 3 u u m 1 1 N s 7 b s 1 U X.c ! ^ ( B V B B N U x M N s ; d XX6XwXpXlX9XtXiXqX/.                      ",
"                  N U t a       s > 2 2 0 < , < , s s 6 s s 1 2 > 7 , > , > > > , 5 5 ).8XeXtX2X9XeX8X8X).                      ",
"                                  0.a.a.<.O.>.O.q a.g.2 B A b 8 8 5 0 0 1.<.9 :.:.q :.<.w.f.h.h.h.h.f.OXd.                      ",
"                                  OX,X=X5.+.n.5.3.+X+X< ,.9.7 A 9.2.1.j.b.M.l.O.$.%.3.l.%X:X:XC.b.C.%Xn.4.>.                    ",
"                                  1.c.%Xu.#.y.t.x.%Xv.n 7 ( > A >X#X+XC.A.N.x.9 w 9 -X1X;X*X*XZ.V.V.V.k.t.+.;.                  ",
"                                    4.c.M.t.@.t.m.%Xf.q ) /.b n 1.=Xl.%XM.x.&.#X_.d.a.-X1X;X*XZ.V.V.V.r.k.&.=.                  ",
"                                      c.oX5.@.#.=.>.n , ( W.s @X-.oXn.%X%Xb.%.g.).9.i.$X#X+XB.b.x.k.r.k.k.&.>.                  ",
"                                                      * h M M dX-.f.oXc.+XOXg.5 s s i.g.h.f.s.v.=.@.k.x.m.3.>.                  ",
"                                                        y j s rX>XV 9.9.9.,.A Z d c E.`.>X(.0.-.    9 >.s.4.<.                  ",
"                                                                s d M d ) ( c ^ c ! l C Z b N s         0 0                     ",
"                                                                ; j ~ h H F ~ H K _ G k R F H z j                               ",
"                                                              a H { J K G ` Y S E E ` W ] Q ] _ K                               ",
"                                                              e J.P.J.] S D.Y S | E } } } ] S.E p                               ",
"                                                            r g | ` } L.D ] ` K S.| D.D.L.L.H.] f                               ",
"                                                          S } L.] W } Y W Y W G ` H.D.S.L.D.S.] L                               ",
"                                                      H ` L.L.T.H.T.W D.W S Y F E P.] S.L.L.S.] f                   .           ",
"                                                  z J G.Q.U.T.T.Y.D.Y.S.` S f g F H.!.U.L.P.H.| S                 X . X +       ",
"                                                z ' !.G.Q.U.].T.L.Y.] T T a     F P.R.G.P.P.Y.` J f f J H e         @ + . &     ",
"                                              ~ ` J.Q.P.P.H.U.L.L._ T z         L R.J.P.Q.I.I.| ` R k T F.| e y P     - + + o o ",
"                                            h z R G.P.Q.~.Q.H.] E H p           f | Q.Q.I.I.I.I.W W W W L.~.K.t & &     h = & . ",
"                                            z | Y T G.| ] G._ K z               z | I.I.Y.Y.P.D.` D.L.D D.'.E.l % & ;     + * # ",
"                                            F D.T.W Y [ J F.g                     h K.Q.J.G.S.} | L.Y.Y  .~.!.j             * = ",
"                                          z _ Y.L.H.| [ _ J                         I ~ ' | F.H.Q.U.| G R K...                  ",
"                                          H G.P.Y.Q.T F.[ g                           z ~ ' ' ..| H k g x                       ",
"                                        p T P.P.Q.Q.| F.H p                                                                     ",
"                                      i T | U.P.L.H.F.{ J                                                                       ",
"                                    g ' ' T ..I.Q.| { ~ a                                                                       ",
"                                    H E.~.' H [ ..[ ~ ~                                                                         ",
"                                      H R.}.I.~ F { I e                                                                         ",
"                                = - # l K ! ~.R...H z                                                                           ",
"                            . $ : : * a     ! I J ' a                                                                           ",
"                              o . # = &         y j                                                                             ",
"                                  . o O o $ ;   +                                                                               ",
"                                        # o O .                                                                                 ",
"                                          X X X                                                                                 ",
"                                                                                                                                ",
"                                                                                                                                ",
"                                                                                                                                ",
"                                                                                                                                ",
"                                                                                                                                ",
"                                                                                                                                ",
"                                                                                                                                "
};
