/* XPM */
static char *f4b14f50b6ee4946cd075ba187857c79Rl99hsvrX9awlVSI[] = {
/* columns rows colors chars-per-pixel */
"64 64 228 2 ",
"   c None",
".  c #090105",
"X  c #0B0409",
"o  c #09050A",
"O  c #160D12",
"+  c #190D1B",
"@  c #1D151C",
"#  c #191116",
"$  c #130A0F",
"%  c #20141C",
"&  c #35261F",
"*  c #241C24",
"=  c #291922",
"-  c #2A232A",
";  c #34282E",
":  c #372C35",
">  c #3D343B",
",  c #383439",
"<  c #292231",
"1  c #563B2A",
"2  c #4B3C3B",
"3  c #463636",
"4  c #573D36",
"5  c #462F2D",
"6  c #5A2E14",
"7  c #594339",
"8  c #474239",
"9  c #664328",
"0  c #66493A",
"q  c #794C35",
"w  c #76533B",
"e  c #3A3A45",
"r  c #473B43",
"t  c #3B414B",
"y  c #434345",
"u  c #44424D",
"i  c #4A424B",
"p  c #4C4B4C",
"a  c #484044",
"s  c #544345",
"d  c #564948",
"f  c #5C5248",
"g  c #494553",
"h  c #484B55",
"j  c #574E57",
"k  c #4B525C",
"l  c #465054",
"z  c #545254",
"x  c #52545C",
"c  c #5B5659",
"v  c #654F47",
"b  c #734F46",
"n  c #675448",
"m  c #624D52",
"M  c #635B55",
"N  c #695958",
"B  c #775A56",
"V  c #79504D",
"C  c #5F635F",
"Z  c #77614A",
"A  c #6A6458",
"S  c #76645C",
"D  c #6F604A",
"F  c #4F5767",
"G  c #545362",
"H  c #545B64",
"J  c #5C5D65",
"K  c #545E6B",
"L  c #5B5D6B",
"P  c #5A5566",
"I  c #665C65",
"U  c #6E5F6B",
"Y  c #56626C",
"T  c #5C626C",
"R  c #5B6166",
"E  c #5C6573",
"W  c #5D6975",
"Q  c #5F6A79",
"!  c #6B6364",
"~  c #67666A",
"^  c #726666",
"/  c #7C716B",
"(  c #636473",
")  c #636C75",
"_  c #6C6A74",
"`  c #646C7B",
"'  c #6B6C7C",
"]  c #6A6474",
"[  c #726C76",
"{  c #66727B",
"}  c #6B737C",
"|  c #667076",
" . c #74757C",
".. c #787476",
"X. c #86583B",
"o. c #965839",
"O. c #924A2B",
"+. c #96623E",
"@. c #AF613C",
"#. c #875D46",
"$. c #975943",
"%. c #875655",
"&. c #8C6544",
"*. c #966649",
"=. c #866756",
"-. c #956B56",
";. c #96755A",
":. c #9E784E",
">. c #A76948",
",. c #AA7548",
"<. c #A86D58",
"1. c #A67A5B",
"2. c #B47A4C",
"3. c #855F60",
"4. c #866B61",
"5. c #867667",
"6. c #987968",
"7. c #8C7571",
"8. c #A4766A",
"9. c #B57866",
"0. c #A87A73",
"q. c #C1794C",
"w. c #C77755",
"e. c #BB8659",
"r. c #AA8051",
"t. c #9A8678",
"y. c #8E8174",
"u. c #A78269",
"i. c #B5886A",
"p. c #BC926D",
"a. c #AA8377",
"s. c #BC9874",
"d. c #B48C75",
"f. c #C78858",
"g. c #D18D5A",
"h. c #C68966",
"j. c #D58B6C",
"k. c #D6996B",
"l. c #C7967A",
"z. c #D69A79",
"x. c #CC8874",
"c. c #E89A68",
"v. c #E59E7B",
"b. c #DBAC7C",
"n. c #D5A27E",
"m. c #D6A676",
"M. c #E6A46A",
"N. c #E7A878",
"B. c #F2A677",
"V. c #E9B37C",
"C. c #F7B370",
"Z. c #FFC17C",
"A. c #6C7483",
"S. c #6E7A85",
"D. c #6A7685",
"F. c #717383",
"G. c #727C84",
"H. c #747F8B",
"J. c #797B87",
"K. c #787E90",
"L. c #817C85",
"P. c #987980",
"I. c #76828C",
"U. c #7A858C",
"Y. c #7B8591",
"T. c #7C8A93",
"R. c #768491",
"E. c #83848B",
"W. c #888182",
"Q. c #838694",
"!. c #848B93",
"~. c #828B99",
"^. c #8C8D98",
"/. c #89939C",
"(. c #97979A",
"). c #988D85",
"_. c #BA8E86",
"`. c #B89485",
"'. c #AD9494",
"]. c #BCA698",
"[. c #999AA5",
"{. c #8E90A1",
"}. c #A296A1",
"|. c #A5A3A7",
" X c #B3AEB3",
".X c #AEB5BC",
"XX c #B6B4B9",
"oX c #C59C85",
"OX c #D79786",
"+X c #E79B81",
"@X c #CCA689",
"#X c #D9A983",
"$X c #D7B286",
"%X c #C8A897",
"&X c #D6A899",
"*X c #DAB596",
"=X c #E3A984",
"-X c #E8B48D",
";X c #F6B985",
":X c #EBB295",
">X c #CAB4A5",
",X c #CCB7AE",
"<X c #FCC18C",
"1X c #F3C99C",
"2X c #D8C7BF",
"3X c #EFC4A8",
"4X c #BABAC4",
"5X c #AFB2C2",
"6X c #CEBFC7",
"7X c #BAC1CA",
"8X c #C6C4C9",
"9X c #D1CFD6",
"0X c #CFD1D8",
"qX c #D9CCD1",
"wX c #E5C7C7",
"eX c #E7D9D2",
"rX c #ECD8D1",
"tX c #F0E2DB",
"yX c #D9D9E2",
"uX c #E2DCE5",
"iX c #F8DFE4",
"pX c #DEE2E4",
"aX c #E5E6EB",
"sX c #EBECF2",
"dX c #EBF2F5",
"fX c #FDFDFF",
"gX c #F2F5F8",
"hX c #F1EAE9",
/* pixels */
"                                                                                                                                ",
"                                                                                                                                ",
"                                                                                                                                ",
"                                                                                                                                ",
"                                                    P ( x                                                                       ",
"                                                  G ' F.E.^.E.E.p                                                               ",
"                                                r G G L L _  .E._ ! p                                                           ",
"                                              > r k h k , , , y i y z                                                           ",
"                                            j r a y l l p p : , 3 : 3 ;                                                         ",
"                                          ! N I ! C ~ c z z c 2 s 3 m I j U j                                                   ",
"                                            N B S y.A A 5.5.t.=.b 0 b 4 m j ;                                                   ",
"                                              0 #.>X%X;.&.$X$Xb.6 o.<.8.                                                        ",
"                                              6.;.oX3X&.$Xb.V.V.O.h.9.d.                                                        ",
"                                              =.u.@Xn.$X1XV.<Xc.B.j.9.-.                                                        ",
"                                              ].oX#Xb.b.,.N.B.M.v.>.9.&X'.S ! ~ z                                               ",
"                                              5.`.p.e.,.f.;XN.k.=X*.&XrX7.! ! ..6X8X8XXX                                        ",
"                                            ).4.6.oX-X-X:X:Xz.u.-.].rXW.^ ~ !.yX9XsXsXsXaX9X(.                                  ",
"                                            ,X5.B @X3X:X:Xi.8.6.>XhX(.R  . .0XXXaXgXgXaXaXfX4X[                                 ",
"                                          qX|.N S >X_.0.8.oX%XwXtX8XY ) ) !.yX|.fXsXsXaXsXsXyXXX                                ",
"                                          8X}./ f 2XiX_.%.0.wXiXhX} S.W { /.0X XfXdXaXsXaXsXsX X                                ",
"                                        ..uX|.^ M ).].3.V V '.6X}.T K Y H !.pX|.fXgXdXdXdXaXdX6X                                ",
"            r                         j 7. XW.c p 3 t.B B V '.P.N z p y l R yX[.7X.X.X4X4X.X.X[.                                ",
"        > I 3 j r r r d s s v 7 7 v 7 2 N M ! [ c ^ ^ B m N S N N v n d 8 z |.5XyXpXaXuXyXuXyX|...                              ",
"            : d       5 5 0 7 4 1 9 1 & 1 d 7 3 z s 3 s 2 2 2 5 1 1 1 1 7 2 / ,XpXeXtXwXwXeXeX].).                              ",
"                        a.0.a.1.X.&.*.q ;.%Xn 2 5.n v d 0 7 0 -.-.q #.*.$.&.*.;.s.p.d.l.oX_.`.a.t.                              ",
"                        a.&X:Xh.o.k.h.,.l.*Xw n 7.v v =.;.:.r.b.=Xh.o.>.o.,.2.m.V.V.;XN.z.=X#X1.X.                              ",
"                          9.=Xj.@.q.q.f.=X*XZ 7 D v n @X-XN.M.k.N.#XX.q 9 n.;X;XZ.C.C.c.c.B.N.e.,.X.                            ",
"                          <.x.+Xw.O.q.j.z.@Xw D t.S n &.b.g.M.M.N.X.].>Xt.;.1X<XC.C.C.c.B.c.g.f.2.+.                            ",
"                            9.OXx.O.$.<.*.-.7 f ).c ].Z z.g.c.B.n.;.t.).y.y.@X=XN.N.M.c.g.g.q.f.f.*.                            ",
"                                q           & 2 ^ f eXu.1.z.z.z.l.`.n f 8 5.d.i.s.p.i.<.O.,.h.k.e.X.                            ",
"                                            3 3 j p XXeX=.=.;.8.4.=.S N N 5.].>X%Xt.4.B   q &.1.p.&.                            ",
"                                                      L.j c N ^ ! ^ N N M M A ! M z I N       9 9 w                             ",
"                                                      u h ( k E K E H ( k K H T H x x z                                         ",
"                                                      G E ` K K W E k W Y W E D.` } ) x                                         ",
"                                                    x ' A.H.S.K W A.k ` S.` W D.` { ) x                                         ",
"                                                    e A.` ` A.K Y ` k ) H.S.S.R.I.S.A.H                                         ",
"                                                    k ` ` A.Q E k { K ) A.S.S.S.I.A.) H                                         ",
"                                                  t H.I.H.~.A.A.G } k L G.A.G.I.Y.A.} G                                         ",
"                                                e } T.I.T.Y.~.F.L e g u J.I.T.U.T.H.} T                       . .               ",
"                                                j !.Y.~.~.Y.Y.F.G     u _ U.!.R.Y.G.' ' h                   = = X #             ",
"                                              j ..U.U.T.Y.{.' ' g     i ..^.G.U.T.Y.I.) E H x J J e * * I     ; $ X             ",
"                                              ^ L.!.R.I.T.Q.( G       i _ !.!.T.G./.I.W ) K T }  .x , - i     3 % O             ",
"                                            y J E.U.Y.Y.~.A.( g       i J J.!./.H.T.S.{ } } ) Q.^.~ , < *     i ; O .           ",
"                                            h H { ` H.A.A.' P           u J.Q.J.Y.A.D.A.K.S.F.{.[.] < + +     : - * o -         ",
"                                            T ) { E ` ` ` ( g             T L } ) A.Y.Q.^.' ' ^.J.P           * * - @ o         ",
"                                          , T } I.{ Q ` ' ( e               x P ( ' ' I I g G Q.(                 @ O o         ",
"                                          u T G.T.H.{ ) F.(                                                                     ",
"                                          x R U.U.I.A.( ' G                                                                     ",
"                                          T } U.I.Y.Y.) ' x                                                                     ",
"                                          J  .U.I.Y.A.' ( h                                                                     ",
"                                        x ~ G.U.T.~.A.F.( u                                                                     ",
"                                        x J T } { H.A.' ' u                                                                     ",
"                                      z  .E.G.| Y T ( L G                                                                       ",
"                                        [ L.E.(.(. ._ _ x g                                                                     ",
"                                          > r ..W.[ I _ c                                                                       ",
"                                  $ @ ; ; *         j i                                                                         ",
"                                X # # @ % * ; >       >                                                                         ",
"                                    O . O $ O O @ @ O                                                                           ",
"                                              O . . .                                                                           ",
"                                                                                                                                ",
"                                                                                                                                ",
"                                                                                                                                ",
"                                                                                                                                ",
"                                                                                                                                "
};
