/* XPM */
static char *result[] = {
/* columns rows colors chars-per-pixel */
"64 64 229 2 ",
"   c #0C050B",
".  c #080204",
"X  c #12090D",
"o  c #130B13",
"O  c #1D141A",
"+  c #1A1318",
"@  c #0F0811",
"#  c #3A291B",
"$  c #1E1520",
"%  c #231A21",
"&  c #251E28",
"*  c #292328",
"=  c #3B312F",
"-  c #372A35",
";  c #3B333C",
":  c #383537",
">  c #312B30",
",  c #4A3626",
"<  c #563D2D",
"1  c #483838",
"2  c #583A36",
"3  c #4B2F25",
"4  c #4A4338",
"5  c #574637",
"6  c #7A4826",
"7  c #654937",
"8  c #63513D",
"9  c #76543B",
"0  c #65452C",
"q  c #3C3C44",
"w  c #3A3440",
"e  c #483A48",
"r  c #593E45",
"t  c #3F434E",
"y  c #44434D",
"u  c #4B454C",
"i  c #4A4745",
"p  c #5A4A43",
"a  c #564746",
"s  c #585248",
"d  c #464752",
"f  c #4B4A52",
"g  c #4B4D59",
"h  c #454B57",
"j  c #524C59",
"k  c #564B58",
"l  c #4D525B",
"z  c #52535B",
"x  c #585658",
"c  c #4D504F",
"v  c #654A47",
"b  c #775746",
"n  c #774D54",
"m  c #665A57",
"M  c #755C58",
"N  c #675549",
"B  c #5A625D",
"V  c #6A645C",
"C  c #796658",
"Z  c #4C5664",
"A  c #555B65",
"S  c #5A5A65",
"D  c #555C6B",
"F  c #5B5D69",
"G  c #555563",
"H  c #5C5F72",
"J  c #655C65",
"K  c #755B60",
"L  c #56606B",
"P  c #5D636D",
"I  c #5D6267",
"U  c #5C6473",
"Y  c #5C6A76",
"T  c #5F727D",
"R  c #6B6262",
"E  c #63636D",
"W  c #6A6768",
"Q  c #776A67",
"!  c #636572",
"~  c #636A75",
"^  c #6C6E75",
"/  c #646C7A",
"(  c #696E7A",
")  c #696675",
"_  c #726E79",
"`  c #66727D",
"'  c #6B717D",
"]  c #697177",
"[  c #767478",
"{  c #777469",
"}  c #964C1D",
"|  c #86532B",
" . c #8A583A",
".. c #985836",
"X. c #81482A",
"o. c #976135",
"O. c #A7613A",
"+. c #B46F3D",
"@. c #C77738",
"#. c #875D47",
"$. c #975C42",
"%. c #84585C",
"&. c #89674E",
"*. c #946545",
"=. c #876953",
"-. c #986D57",
";. c #8B755B",
":. c #987458",
">. c #A46B48",
",. c #A7734B",
"<. c #B7744A",
"1. c #A87657",
"2. c #B3754C",
"3. c #875F68",
"4. c #856C61",
"5. c #986D6A",
"6. c #8A7369",
"7. c #917372",
"8. c #A97D69",
"9. c #B27B70",
"0. c #C37A41",
"q. c #B68357",
"w. c #99877C",
"e. c #9E8468",
"r. c #A8876B",
"t. c #B98768",
"y. c #AA8A78",
"u. c #B98878",
"i. c #B99778",
"p. c #AD957A",
"a. c #D48E5A",
"s. c #DE915C",
"d. c #CE864F",
"f. c #C78C64",
"g. c #CE9261",
"h. c #D8986A",
"j. c #C38F77",
"k. c #C79677",
"l. c #D69877",
"z. c #E29C70",
"x. c #DDA478",
"c. c #F3A265",
"v. c #E5A67B",
"b. c #F2AD79",
"n. c #F0A975",
"m. c #E39354",
"M. c #6A6F82",
"N. c #6D7482",
"B. c #6D7985",
"V. c #6A7584",
"C. c #757A86",
"Z. c #747C8B",
"A. c #797D8B",
"S. c #777984",
"D. c #807D87",
"F. c #7C828E",
"G. c #7C8484",
"H. c #768391",
"J. c #7B8593",
"K. c #7D8994",
"L. c #7E8A99",
"P. c #88878C",
"I. c #848692",
"U. c #858A94",
"Y. c #828C9A",
"T. c #8D8E9D",
"R. c #8C8895",
"E. c #8A929B",
"W. c #958E93",
"Q. c #A88C84",
"!. c #B69886",
"~. c #A19C9B",
"^. c #AC968C",
"/. c #BFA191",
"(. c #989BA4",
"). c #8F97A1",
"_. c #BE9BA3",
"`. c #9FA3A6",
"'. c #A9A7AC",
"]. c #BCACA6",
"[. c #AEB4B6",
"{. c #B9B6B9",
"}. c #AEADB1",
"|. c #C69888",
" X c #DB978A",
".X c #E29780",
"XX c #C8A988",
"oX c #D9A786",
"OX c #DAB389",
"+X c #DBB895",
"@X c #CAAF99",
"#X c #E4AC82",
"$X c #E8AD88",
"%X c #E8B58A",
"&X c #F4B987",
"*X c #E7BE97",
"=X c #C8A7A6",
"-X c #CBB5B5",
";X c #D0B4AD",
":X c #F1B1A6",
">X c #FAC393",
",X c #ECC89A",
"<X c #DEC0A8",
"1X c #EAC3AA",
"2X c #BCBCC4",
"3X c #BDC1C8",
"4X c #D9CAC6",
"5X c #D7D1CC",
"6X c #D3C9D3",
"7X c #D8D8D9",
"8X c #CACCD0",
"9X c #E6D9CC",
"0X c #E9D9D6",
"qX c #F9DDDD",
"wX c #E1CDC6",
"eX c #DDE4DD",
"rX c #EDE2D7",
"tX c #F6E0DD",
"yX c #DEDCE2",
"uX c #E5DFE3",
"iX c #F1DCE4",
"pX c #E9E2E8",
"aX c #ECEBF3",
"sX c #E5E9F3",
"dX c #F2EEF5",
"fX c #EEF2F9",
"gX c #F4F5F9",
"hX c #F4EFE9",
"jX c #ADD8E6",
/* pixels */
"jXjXjXjXjXjXjXjXjXjXjXjXjXjXjXjXjXjXjXjXjXjXjXjXjXjXjXjXjXjXjXjXjXjXjXjXjXjXjXjXjXjXjXjXjXjXjXjXjXjXjXjXjXjXjXjXjXjXjXjXjXjXjXjX",
"jXjXjXjXjXjXjXjXjXjXjXjXjXjXjXjXjXjXjXjXjXjXjXjXjXjXjXjXjXjXjXjXjXjXjXjXjXjXjXjXjXjXjXjXjXjXjXjXjXjXjXjXjXjXjXjXjXjXjXjXjXjXjXjX",
"jXjXjXjXjXjXjXjXjXjXjXjXjXjXjXjXjXjXjXjXjXjXjXjXjXjXjXjXjXjXjXjXjXjXjXjXjXjXjXjXjXjXjXjXjXjXjXjXjXjXjXjXjXjXjXjXjXjXjXjXjXjXjXjX",
"jXjXjXjXjXjXjXjXjXjXjXjXjXjXjXjXjXjXjXjXjXjXjXjXjXjXjXjXjXjXjXjXjXjXjXjXjXjXjXjXjXjXjXjXjXjXjXjXjXjXjXjXjXjXjXjXjXjXjXjXjXjXjXjX",
"jXjXjXjXjXjXjXjXjXjXjXjXjXjXjXjXjXjXjXjXjXjXjXjXjXjXjXjXjXjXjXjXjXjXjXjXjXjXjXjXjXjXjXjXjXjXjXjXjXjXjXjXjXjXjXjXjXjXjXjXjXjXjXjX",
"jXjXjXjXjXjXjXjXjXjXjXjXjXjXjXjXjXjXjXjXjXjXjXjXjXjXjXd F F A.T.T.) jXjXjXjXjXjXjXjXjXjXjXjXjXjXjXjXjXjXjXjXjXjXjXjXjXjXjXjXjXjX",
"jXjXjXjXjXjXjXjXjXjXjXjXjXjXjXjXjXjXjXjXjXjXjXjXjXjX> g j ! S F D.I.N.G z jXjXjXjXjXjXjXjXjXjXjXjXjXjXjXjXjXjXjXjXjXjXjXjXjXjXjX",
"jXjXjXjXjXjXjXjXjXjXjXjXjXjXjXjXjXjXjXjXjXjXjXjXjXjXq z u j q : - q f f u jXjXjXjXjXjXjXjXjXjXjXjXjXjXjXjXjXjXjXjXjXjXjXjXjXjXjX",
"jXjXjXjXjXjXjXjXjXjXjXjXjXjXjXjXjXjXjXjXjXjXjXjXjX1 ; y i c c 4 i > = = = > jXjXjXjXjXjXjXjXjXjXjXjXjXjXjXjXjXjXjXjXjXjXjXjXjXjX",
"jXjXjXjXjXjXjXjXjXjXjXjXjXjXjXjXjXjXjXjXjXjXjXjXm x W { B B s s 5 5 < 5 1 a M k R a jXjXjXjXjXjXjXjXjXjXjXjXjXjXjXjXjXjXjXjXjXjX",
"jXjXjXjXjXjXjXjXjXjXjXjXjXjXjXjXjXjXjXjXjXjXjXjXjXm V 6.{ C V ;.e.e.0 0 b 7 N v 1 jXjXjXjXjXjXjXjXjXjXjXjXjXjXjXjXjXjXjXjXjXjXjX",
"jXjXjXjXjXjXjXjXjXjXjXjXjXjXjXjXjXjXjXjXjXjXjXjXjXjXC p.+XC e.XX+XOX| | ,.8.-.jXjXjXjXjXjXjXjXjXjXjXjXjXjXjXjXjXjXjXjXjXjXjXjXjX",
"jXjXjXjXjXjXjXjXjXjXjXjXjXjXjXjXjXjXjXjXjXjXjXjXjXjXy.9.1Xr.:.%XOX#X,.,.1.k.%.jXjXjXjXjXjXjXjXjXjXjXjXjXjXjXjXjXjXjXjXjXjXjXjXjX",
"jXjXjXjXjXjXjXjXjXjXjXjXjXjXjXjXjXjXjXjXjXjXjXjXjXjX8.|.x.t.>X&X&Xv.$Xq.t.-./.jXjXjXjXjXjXjXjXjXjXjXjXjXjXjXjXjXjXjXjXjXjXjXjXjX",
"jXjXjXjXjXjXjXjXjXjXjXjXjXjXjXjXjXjXjXjXjXjXjXjXjXjX|.j.OXx.g.g.b.n.l.t.8.u.;X6.J ) x jXjXjXjXjXjXjXjXjXjXjXjXjXjXjXjXjXjXjXjXjX",
"jXjXjXjXjXjXjXjXjXjXjXjXjXjXjXjXjXjXjXjXjXjXjXjXjXjX&.k.q.q.+.b.v.$Xl.1.y.9X].) W _ '.2X8X{.~.jXjXjXjXjXjXjXjXjXjXjXjXjXjXjXjXjX",
"jXjXjXjXjXjXjXjXjXjXjXjXjXjXjXjXjXjXjXjXjXjXjXjXjXw.b XXOXOX&X&Xl.t.-.y.9X{.B ] B.2X7XpXdXdXuXyX{.jXjXjXjXjXjXjXjXjXjXjXjXjXjXjX",
"jXjXjXjXjXjXjXjXjXjXjXjXjXjXjXjXjXjXjXjXjXjXjXjX-X{ =.!.+X,X*Xk.8.8.XXwX4XW ] ] (.8X2XgXaXpXaXaX6X(.jXjXjXjXjXjXjXjXjXjXjXjXjXjX",
"jXjXjXjXjXjXjXjXjXjXjXjXjXjXjXjXjXjXjXjXjXjXjXjX7XW m Q.!.y.1.!.|.;XqXpX{ ^ Y G.8X`.dXdXaXaXsXaXaX'.jXjXjXjXjXjXjXjXjXjXjXjXjXjX",
"jXjXjXjXjXjXjXjXjXjXjXjXjXjXjXjXjXjXjXjXjXjXjX2X0X{ x Q.tX=X5.%.;XqXiX'.! S.] G.7X}.gXdXsXsXsXsXdX}.jXjXjXjXjXjXjXjXjXjXjXjXjXjX",
"jXjXjXjXjXjXjXjXjXjXjXjXjXjXjXjXjXjXjXjXjXjXjX6XrX] R Q _.5.%.M 5.-X6XH I L c G.eX[.hXfXsXfXfXsXgX[.jXjXjXjXjXjXjXjXjXjXjXjXjXjX",
"jXjXjXjXjXjXjXjXJ e jXjXjXjXjXjXjXjXjXjXjXQ V R.[.I c 4 K 3.v n 7.^.K k c c q B [.[.[.[.2X{.2X2X[.).jXjXjXjXjXjXjXjXjXjXjXjXjXjX",
"jXjXjXjXjXjX> k J e ; e r r r k a a r a p 5 1 B W B W m 4.K N M m a K k B s : 4 ] ~.5XpXpXpX7XpXyX{.(.jXjXjXjXjXjXjXjXjXjXjXjXjX",
"jXjXjXjXjXjXjXjXx u jXjXjXK r 2 2 2 0 3 < 3 , s 4 4 i a u 3 5 # 5 < # 5 , # 8 4 8 ^.9XrXrX5X5X7XuX{.D.jXjXjXjXjXjXjXjXjXjXjXjXjX",
"jXjXjXjXjXjXjXjXjXjXjXjXjXjXjX5.u.9.$...$.6 &.p.C 4 { V 4 s 5 8 7 9 -.&. .-. .*. .:.i.r.p.!.!.!.Q.^.].jXjXjXjXjXjXjXjXjXjXjXjXjX",
"jXjXjXjXjXjXjXjXjXjXjXjXjXjXjX|.:Xl...<.a.<.t.+X=.5 w.C 4 6.b 1.,.k.OXx.*.....>.2.g.v.>X%Xv.oXOXoX9.#.5.jXjXjXjXjXjXjXjXjXjXjXjX",
"jXjXjXjXjXjXjXjXjXjXjXjXjXjXjX9. X.X0.<.0.a.v.oX:.5 C V 1 w.<XoXv.v.l.oXq.6 X.o.>X>X>X>Xb.b.c.s.&Xf.<. .jXjXjXjXjXjXjXjXjXjXjXjX",
"jXjXjXjXjXjXjXjXjXjXjXjXjXjXjXjX9..X9.O.} h.f.k.-.p w.e.v =.8.l.h.n.v.,.r.+Xi.o.,X%X>Xb.b.n.c.c.m.@.<.| jXjXjXjXjXjXjXjXjXjXjXjX",
"jXjXjXjXjXjXjXjXjXjXjXjXjXjXjXjXjXj.l.>.X.$...&.b 1 7.7.C C 8.k.h.#X$Xi.&.p.r.C XXOXOXx.z.z.m.0.@.a.a.X.jXjXjXjXjXjXjXjXjXjXjXjX",
"jXjXjXjXjXjXjXjXjXjXjXjXjXjXjXjXjXjXjXjXjXjXjXjXN 1 Q m 6.wX=.oXj.oX|.|.;.5 8 8 w.p.r.i.j.1.O.<.0.h.h. .jXjXjXjXjXjXjXjXjXjXjXjX",
"jXjXjXjXjXjXjXjXjXjXjXjXjXjXjXjXjXjXjXjXjXjXjXjXjXi m s m hX6.C 5.;.6.M =.M 8 ;.Q.;X].y.6.4.y.$.| 1.i.9 jXjXjXjXjXjXjXjXjXjXjXjX",
"jXjXjXjXjXjXjXjXjXjXjXjXjXjXjXjXjXjXjXjXjXjXjXjXjX; g x 7.{.m V m m Q m W V s R a { V k S u jXjXjX0 b 0 jXjXjXjXjXjXjXjXjXjXjXjX",
"jXjXjXjXjXjXjXjXjXjXjXjXjXjXjXjXjXjXjXjXjXjXjXjXjXjXjXjXjXR.j A D g U P ! G G H j ! S G D l jXjXjXjXjXjXjXjXjXjXjXjXjXjXjXjXjXjX",
"jXjXjXjXjXjXjXjXjXjXjXjXjXjXjXjXjXjXjXjXjXjXjXjXjXjXjXjXjXj J ~ Y D Z M.D D H H H M.! ) N.! S jXjXjXjXjXjXjXjXjXjXjXjXjXjXjXjXjX",
"jXjXjXjXjXjXjXjXjXjXjXjXjXjXjXjXjXjXjXjXjXjXjXjXjXjXjXjXjXw _ Z.B./ l / H H M.M.M.M./ ~ ` ~ J jXjXjXjXjXjXjXjXjXjXjXjXjXjXjXjXjX",
"jXjXjXjXjXjXjXjXjXjXjXjXjXjXjXjXjXjXjXjXjXjXjXjXjXjXjXjXjXjXS ' N./ D Y / Z M.A.V.Z.A.C.' ~ S jXjXjXjXjXjXjXjXjXjXjXjXjXjXjXjXjX",
"jXjXjXjXjXjXjXjXjXjXjXjXjXjXjXjXjXjXjXjXjXjXjXjXjXjXjXjXjXjXe ^ U ~ D D / Z M.M.Z.Z.C.A.I.^ F jXjXjXjXjXjXjXjXjXjXjXjXjXjXjXjXjX",
"jXjXjXjXjXjXjXjXjXjXjXjXjXjXjXjXjXjXjXjXjXjXjXjXjXjXjXjXjXjXz ' F.N./ D H h H M.B.N.) / N.~ z jXjXjXjXjXjXjXjXjXjXjXjXjXjXjXjXjX",
"jXjXjXjXjXjXjXjXjXjXjXjXjXjXjXjXjXjXjXjXjXjXjXjXjXjXjXjXjXjXjXz U.I.A.M.D Z V.H.J.J.F.' ^ A h jXjXjXjXjXjXjXjXjXjXjXjXjXjXjXjXjX",
"jXjXjXjXjXjXjXjXjXjXjXjXjXjXjXjXjXjXjXjXjXjXjXjXjXjXjXjXjXjXjXy ^ I.U.Y.U Y Z.L.J.K.K.F.` D jXjXjXjXjXjXjXjXjXjX  jXjXjXjXjXjXjX",
"jXjXjXjXjXjXjXjXjXjXjXjXjXjXjXjXjXjXjXjXjXjXjXjXjXjXjXjXjXjXjXjXJ D.R.Z.D M.L.L.K.K.H.B.~ L t y f jXjXjXjXjX- o o   jXjXjXjXjXjX",
"jXjXjXjXjXjXjXjXjXjXjXjXjXjXjXjXjXjXjXjXjXjXjXjXjXjXjXjXjXjXjXjXf _ R.! / Z.H.H.H.L.K.` P A L ~ ^ G : + : jXjXw $   jXjXjXjXjXjX",
"jXjXjXjXjXjXjXjXjXjXjXjXjXjXjXjXjXjXjXjXjXjXjXjXjXjXjXjXjXjXjXjXjX) I.h M.L.L.J.K.H.H.Y L L I ~ ' E y * $ jXjXW ; @ jXjXjXjXjXjX",
"jXjXjXjXjXjXjXjXjXjXjXjXjXjXjXjXjXjXjXjXjXjXjXjXjXjXjXjXjXjXjXjXjXj ) D Z.J.L.L.K.J.` L L L P F.(.S.q & $ jXjXjX- O . jXjXjXjXjX",
"jXjXjXjXjXjXjXjXjXjXjXjXjXjXjXjXjXjXjXjXjXjXjXjXjXjXjXjXjXjXjXjXjXjXd G ' B.L.H.H.` ` Y F P ' U.E.! > + + jXjX& - % @ O jXjXjXjX",
"jXjXjXjXjXjXjXjXjXjXjXjXjXjXjXjXjXjXjXjXjXjXjXjXjXjXjXjXjXjXjXjXjXjXd h / / B.V.Y Y B.A ! F E E.I.jXjXjXjXjXjXO $ $ *   jXjXjXjX",
"jXjXjXjXjXjXjXjXjXjXjXjXjXjXjXjXjXjXjXjXjXjXjXjXjXjXjXjXjXjXjXjXjXjXz ( / ~ U U V.~ D t f y W A.jXjXjXjXjXjXjXjXjXo     jXjXjXjX",
"jXjXjXjXjXjXjXjXjXjXjXjXjXjXjXjXjXjXjXjXjXjXjXjXjXjXjXjXjXjXjXjXjXjXl ( Z.U Y M.` ~ g jXjXjXjXjXjXjXjXjXjXjXjXjXjXjXjXjXjXjXjXjX",
"jXjXjXjXjXjXjXjXjXjXjXjXjXjXjXjXjXjXjXjXjXjXjXjXjXjXjXjXjXjXjXjXjXjXG _ U.K.` ' ~ P y jXjXjXjXjXjXjXjXjXjXjXjXjXjXjXjXjXjXjXjXjX",
"jXjXjXjXjXjXjXjXjXjXjXjXjXjXjXjXjXjXjXjXjXjXjXjXjXjXjXjXjXjXjXjXjXjXA A.U.V.F.~ / F jXjXjXjXjXjXjXjXjXjXjXjXjXjXjXjXjXjXjXjXjXjX",
"jXjXjXjXjXjXjXjXjXjXjXjXjXjXjXjXjXjXjXjXjXjXjXjXjXjXjXjXjXjXjXjXjXy ~ S.F.K.J.! ~ F jXjXjXjXjXjXjXjXjXjXjXjXjXjXjXjXjXjXjXjXjXjX",
"jXjXjXjXjXjXjXjXjXjXjXjXjXjXjXjXjXjXjXjXjXjXjXjXjXjXjXjXjXjXjXjXjXq ! T.A.H.J.' Y I jXjXjXjXjXjXjXjXjXjXjXjXjXjXjXjXjXjXjXjXjXjX",
"jXjXjXjXjXjXjXjXjXjXjXjXjXjXjXjXjXjXjXjXjXjXjXjXjXjXjXjXjXjXjXjXjXJ N.A.Y.K.Z.' ! z jXjXjXjXjXjXjXjXjXjXjXjXjXjXjXjXjXjXjXjXjXjX",
"jXjXjXjXjXjXjXjXjXjXjXjXjXjXjXjXjXjXjXjXjXjXjXjXjXjXjXjXjXjXjXjXe U M.M.H.L.B.~ F f jXjXjXjXjXjXjXjXjXjXjXjXjXjXjXjXjXjXjXjXjXjX",
"jXjXjXjXjXjXjXjXjXjXjXjXjXjXjXjXjXjXjXjXjXjXjXjXjXjXjXjXjXjXjXjX) P ` Z T Y / ~ ! jXjXjXjXjXjXjXjXjXjXjXjXjXjXjXjXjXjXjXjXjXjXjX",
"jXjXjXjXjXjXjXjXjXjXjXjXjXjXjXjXjXjXjXjXjXjXjXjXjXjXjXjXjXjXjXk R.U.).Y.Y ` Z A l jXjXjXjXjXjXjXjXjXjXjXjXjXjXjXjXjXjXjXjXjXjXjX",
"jXjXjXjXjXjXjXjXjXjXjXjXjXjXjXjXjXjXjXjXjXjXjXjXjXjXjXjXjXjXjXjXW _ G.E.E.K.~ ~ f jXjXjXjXjXjXjXjXjXjXjXjXjXjXjXjXjXjXjXjXjXjXjX",
"jXjXjXjXjXjXjXjXjXjXjXjXjXjXjXjXjXjXjXjXjXjXjXjXjXjXjXjXjXjXjXjXjX; f z I x x f z jXjXjXjXjXjXjXjXjXjXjXjXjXjXjXjXjXjXjXjXjXjXjX",
"jXjXjXjXjXjXjXjXjXjXjXjXjXjXjXjXjXjXjXjXjXjXjXjXjXjXjXjXjXjX% %   jXjXx x z t X jXjXjXjXjXjXjXjXjXjXjXjXjXjXjXjXjXjXjXjXjXjXjXjX",
"jXjXjXjXjXjXjXjXjXjXjXjXjXjXjXjXjXjXjXjXjXjXjXjXjXjXjXjX. +   O O * jXjXjXjXG.jXjXjXjXjXjXjXjXjXjXjXjXjXjXjXjXjXjXjXjXjXjXjXjXjX",
"jXjXjXjXjXjXjXjXjXjXjXjXjXjXjXjXjXjXjXjXjXjXjXjXjXjXjXjXjXX   X . + X + O * ; jXjXjXjXjXjXjXjXjXjXjXjXjXjXjXjXjXjXjXjXjXjXjXjXjX",
"jXjXjXjXjXjXjXjXjXjXjXjXjXjXjXjXjXjXjXjXjXjXjXjXjXjXjXjXjXjXjXjXjX  O   X . . jXjXjXjXjXjXjXjXjXjXjXjXjXjXjXjXjXjXjXjXjXjXjXjXjX",
"jXjXjXjXjXjXjXjXjXjXjXjXjXjXjXjXjXjXjXjXjXjXjXjXjXjXjXjXjXjXjXjXjXjXjXjXjXjX  jXjXjXjXjXjXjXjXjXjXjXjXjXjXjXjXjXjXjXjXjXjXjXjXjX",
"jXjXjXjXjXjXjXjXjXjXjXjXjXjXjXjXjXjXjXjXjXjXjXjXjXjXjXjXjXjXjXjXjXjXjXjXjXjXjXjXjXjXjXjXjXjXjXjXjXjXjXjXjXjXjXjXjXjXjXjXjXjXjXjX"
};
