/* XPM */
static char *result[] = {
/* columns rows colors chars-per-pixel */
"64 64 236 2 ",
"   c #0A090E",
".  c #050509",
"X  c #0D0C13",
"o  c #100F15",
"O  c #15141A",
"+  c #141318",
"@  c #3A351E",
"#  c #1C1C23",
"$  c #1C1F29",
"%  c #1E242B",
"&  c #23242B",
"*  c #262A31",
"=  c #292C31",
"-  c #262732",
";  c #2B3239",
":  c #3B373A",
">  c #3A312B",
",  c #211313",
"<  c #48311E",
"1  c #4D2C1D",
"2  c #6B3212",
"3  c #4C372C",
"4  c #58352A",
"5  c #443B37",
"6  c #573B32",
"7  c #452B25",
"8  c #623F27",
"9  c #4A453C",
"0  c #564638",
"q  c #55452A",
"w  c #6B462A",
"e  c #694834",
"r  c #785637",
"t  c #76502B",
"y  c #363C43",
"u  c #3B3A44",
"i  c #443E42",
"p  c #543E49",
"a  c #3D434C",
"s  c #3C4146",
"d  c #3E4552",
"f  c #44454B",
"g  c #4B454B",
"h  c #4D4C4D",
"j  c #484849",
"k  c #544B4C",
"l  c #574A46",
"z  c #444A54",
"x  c #4A4B54",
"c  c #454B57",
"v  c #554D55",
"b  c #4B5255",
"n  c #4D535D",
"m  c #4A575A",
"M  c #52545D",
"N  c #595759",
"B  c #57514D",
"V  c #624942",
"C  c #68564A",
"Z  c #795B4D",
"A  c #685957",
"S  c #725A5B",
"D  c #714C4C",
"F  c #56635F",
"G  c #68625F",
"H  c #776459",
"J  c #7B6541",
"K  c #4B5963",
"L  c #545662",
"P  c #545B64",
"I  c #5A5B64",
"U  c #565C6B",
"Y  c #5A5D69",
"T  c #5A5D71",
"R  c #635E64",
"E  c #546265",
"W  c #56646B",
"Q  c #5C636C",
"!  c #5A6667",
"~  c #5C6672",
"^  c #5D6A73",
"/  c #5B6B77",
"(  c #4D6166",
")  c #636364",
"_  c #63656C",
"`  c #6A6869",
"'  c #796964",
"]  c #646572",
"[  c #636B74",
"{  c #6A6B75",
"}  c #696D7A",
"|  c #646B79",
" . c #726A73",
".. c #6B7276",
"X. c #66727C",
"o. c #6B737C",
"O. c #68767B",
"+. c #72747D",
"@. c #76787A",
"#. c #71706D",
"$. c #953E0B",
"%. c #824019",
"&. c #A0551C",
"*. c #87593A",
"=. c #935B30",
"-. c #8C653D",
";. c #A66837",
":. c #BD7235",
">. c #C5763B",
",. c #C86C3B",
"<. c #895A55",
"1. c #875A4E",
"2. c #866349",
"3. c #936747",
"4. c #9E754E",
"5. c #876559",
"6. c #966B55",
"7. c #997755",
"8. c #A96843",
"9. c #A9774C",
"0. c #B57545",
"q. c #AC7856",
"w. c #B27956",
"e. c #B16D4D",
"r. c #965C60",
"t. c #946C68",
"y. c #8A756C",
"u. c #9A7463",
"i. c #957867",
"p. c #897775",
"a. c #977C74",
"s. c #816868",
"d. c #AA7866",
"f. c #B97C63",
"g. c #CB7D58",
"h. c #C27E60",
"j. c #B5835C",
"k. c #9C8578",
"l. c #91826D",
"z. c #AA856B",
"x. c #B48A6A",
"c. c #AB8877",
"v. c #B88A75",
"b. c #B8937A",
"n. c #AF9174",
"m. c #C9864C",
"M. c #D48858",
"N. c #CC8C57",
"B. c #E28F58",
"V. c #CA956B",
"C. c #D99967",
"Z. c #D69678",
"A. c #C88E74",
"S. c #E49B69",
"D. c #E59A74",
"F. c #D9A47B",
"G. c #D6A275",
"H. c #E5A36C",
"J. c #E8AC79",
"K. c #F4A277",
"L. c #F4B377",
"P. c #6C7581",
"I. c #6C7B84",
"U. c #6A7A86",
"Y. c #727683",
"T. c #727B84",
"R. c #737E8B",
"E. c #7A7D87",
"W. c #8A7F83",
"Q. c #74838C",
"!. c #7B848C",
"~. c #7A8589",
"^. c #7C8592",
"/. c #768991",
"(. c #7D8A93",
"). c #758A91",
"_. c #838592",
"`. c #838B94",
"'. c #868D97",
"]. c #968E97",
"[. c #8B939B",
"{. c #85929B",
"}. c #96979A",
"|. c #918988",
" X c #BA9987",
".X c #A29496",
"XX c #BA9D94",
"oX c #A59085",
"OX c #ACA19C",
"+X c #9398A3",
"@X c #9DA4A8",
"#X c #A2A6AC",
"$X c #A9ADB6",
"%X c #B5B7B9",
"&X c #B1B0B3",
"*X c #C59886",
"=X c #D9A884",
"-X c #C6A595",
";X c #DEB494",
":X c #D8A890",
">X c #E5AB87",
",X c #E8B589",
"<X c #F6B986",
"1X c #EFB190",
"2X c #CA9EA3",
"3X c #C7B3A6",
"4X c #CDB5B2",
"5X c #E9BCA5",
"6X c #F4BDA4",
"7X c #FBC089",
"8X c #F3C497",
"9X c #D2C3B4",
"0X c #F2C8B3",
"qX c #BABBC5",
"wX c #AFB7C5",
"eX c #C9C7C7",
"rX c #D6CAC8",
"tX c #C5CAD5",
"yX c #D2CDD3",
"uX c #CDD3DA",
"iX c #D9D9D9",
"pX c #E6DAD6",
"aX c #ECD5CC",
"sX c #EDE0D9",
"dX c #F0E6DC",
"fX c #D6DDE4",
"gX c #DBE2E5",
"hX c #E4E2E4",
"jX c #EBE8E9",
"kX c #F4EAEB",
"lX c #EDF0ED",
"zX c #F4EFF4",
"xX c #FEFEFD",
"cX c #F7F3F6",
"vX c #FAF7EF",
"bX c None",
/* pixels */
"bXbXbXbXbXbXbXbXbXbXbXbXbXbXbXbXbXbXbXbXbXbXbXbXbXbXbXbXbXbXbXbXbXbXbXbXbXbXbXbXbXbXbXbXbXbXbXbXbXbXbXbXbXbXbXbXbXbXbXbXbXbXbXbX",
"bXbXbXbXbXbXbXbXbXbXbXbXbXbXbXbXbXbXbXbXbXbXbXbXbXbXbXbXbXbXbXbXbXbXbXbXbXbXbXbXbXbXbXbXbXbXbXbXbXbXbXbXbXbXbXbXbXbXbXbXbXbXbXbX",
"bXbXbXbXbXbXbXbXbXbXbXbXbXbXbXbXbXbXbXbXbXbXbXbXbXbXbXbXbXbXbXbXbXbXbXbXbXbXbXbXbXbXbXbXbXbXbXbXbXbXbXbXbXbXbXbXbXbXbXbXbXbXbXbX",
"bXbXbXbXbXbXbXbXbXbXbXbXbXbXbXbXbXbXbXbXbXbXbXbXbXbXbXbXbXbXx { _ ] I bXbXbXbXbXbXbXbXbXbXbXbXbXbXbXbXbXbXbXbXbXbXbXbXbXbXbXbXbX",
"bXbXbXbXbXbXbXbXbXbXbXbXbXbXbXbXbXbXbXbXbXbXbXbXbXbXbXbXbXL I.o.~.}.}.}.` h h bXbXbXbXbXbXbXbXbXbXbXbXbXbXbXbXbXbXbXbXbXbXbXbXbX",
"bXbXbXbXbXbXbXbXbXbXbXbXbXbXbXbXbXbXbXbXbXbXbXbXbXbXbXbX; c c n b a ! ....#.N f bXbXbXbXbXbXbXbXbXbXbXbXbXbXbXbXbXbXbXbXbXbXbXbX",
"bXbXbXbXbXbXbXbXbXbXbXbXbXbXbXbXbXbXbXbXbXbXbXbXbXbXbX% d K c z s s * # : s a f bXbXbXbXbXbXbXbXbXbXbXbXbXbXbXbXbXbXbXbXbXbXbXbX",
"bXbXbXbXbXbXbXbXbXbXbXbXbXbXbXbXbXbXbXbXbXbXbXbXbXbXf x d c n x N B f s : = ; y = bXbXbXbXbXbXbXbXbXbXbXbXbXbXbXbXbXbXbXbXbXbXbX",
"bXbXbXbXbXbXbXbXbXbXbXbXbXbXbXbXbXbXbXbXbXbXbXbX: h  .` ` ` B S D V S V 6 0 0 A k g g v bXbXbXbXbXbXbXbXbXbXbXbXbXbXbXbXbXbXbXbX",
"bXbXbXbXbXbXbXbXbXbXbXbXbXbXbXbXbXbXbXbXbXbXbXbXbXbXbXA ' c.a.Z i.i.b.b.t t w e 6 7 7 bXbXbXbXbXbXbXbXbXbXbXbXbXbXbXbXbXbXbXbXbX",
"bXbXbXbXbXbXbXbXbXbXbXbXbXbXbXbXbXbXbXbXbXbXbXbXbXbXbXbXD  X9Xx.J z.F.,X;.2 e.e.d.bXbXbXbXbXbXbXbXbXbXbXbXbXbXbXbXbXbXbXbXbXbXbX",
"bXbXbXbXbXbXbXbXbXbXbXbXbXbXbXbXbXbXbXbXbXbXbXbXbXbXbXbXi.b.6Xx.b.8X=X<Xg.g.g.h.v.bXbXbXbXbXbXbXbXbXbXbXbXbXbXbXbXbXbXbXbXbXbXbX",
"bXbXbXbXbXbXbXbXbXbXbXbXbXbXbXbXbXbXbXbXbXbXbXbXbXbXbXi.i.*X:XF.,X8X7XJ.G.H.h.d.5.bXbXbXbXbXbXbXbXbXbXbXbXbXbXbXbXbXbXbXbXbXbXbX",
"bXbXbXbXbXbXbXbXbXbXbXbXbXbXbXbXbXbXbXbXbXbXbXbXbXbXbXbX-X:XZ.,X>.j.7XH.>XV.3.*X9X.X) N R j bXbXbXbXbXbXbXbXbXbXbXbXbXbXbXbXbXbX",
"bXbXbXbXbXbXbXbXbXbXbXbXbXbXbXbXbXbXbXbXbXbXbXbXbXbXbXa.v.A.e.;.m.L.H.G.F.f.u.rXrX_ ..] '.eX%XeX&X}.bXbXbXbXbXbXbXbXbXbXbXbXbXbX",
"bXbXbXbXbXbXbXbXbXbXbXbXbXbXbXbXbXbXbXbXbXbXbXbXbXbX].p.5.-X1X1X7XL.J.V.3.u.aXpXN Q Y.[.gXuXlXlXvXlXiX}.bXbXbXbXbXbXbXbXbXbXbXbX",
"bXbXbXbXbXbXbXbXbXbXbXbXbXbXbXbXbXbXbXbXbXbXbXbXbX_.qXW.S XX5X;X1X>Xq.6. XaXyXp..._ !.uX@XjXlXhXlXkXlXfX .bXbXbXbXbXbXbXbXbXbXbX",
"bXbXbXbXbXbXbXbXbXbXbXbXbXbXbXbXbXbXbXbXbXbXbXbXT qXqXY.I oX-Xc.f.W.*X4XdXsX@X) _ [ #XuX#XxXhXhXkXhXhXjX%XE.bXbXbXbXbXbXbXbXbXbX",
"bXbXbXbXbXbXbXbXbXbXbXbXbXbXbXbXbXbXbXbXbXbXbXbX| uX$X_ v &XcX4Xr.r.2XkXvX%XE @.....$XtX&XxXzXhXkXlXzXhXyX`.bXbXbXbXbXbXbXbXbXbX",
"bXbXbXbXbXbXbXbXbXbXbXbXbXbXbXbXbXbXbXbXbXbXbXbXY.uXwX} R ].2Xt.D D t.4X9X|.m ! ^ N #XuX%XxXxXvXjXzXcXzXfX+XbXbXbXbXbXbXbXbXbXbX",
"bXbXbXbXbXbXbXbXbX: u bXbXbXbXbXbXbXbXbXv bX` h +.%X(.L v , y.a.*.D r.XX` k f f g u ].fX).tXwXqXqX&X&X%XqX`.bXbXbXbXbXbXbXbXbXbX",
"bXbXbXbXbXbXbXg { f g f g g : 5 k B N N N B A 5 k @._ ) #.' H H D D S S C G A A A p v qX&XuXfXiXsXpXiXuX%X~.bXbXbXbXbXbXbXbXbXbX",
"bXbXbXbXbXbXbXbXbX: : bXbXbXbX4 q 3 @ q 0 < 7 6 3 C h @ 9 9 9 9 : > 3 6 < < 8 1 4 4 6 a.rXiXvXdXaXaXsXsXeX@.bXbXbXbXbXbXbXbXbXbX",
"bXbXbXbXbXbXbXbXbXbXbXbXbXbXbXoX2.z.l.J r 2.3.2 3.XXC 9 G G 9 k l 0 0 r 3.*.t *.3.3.1.6.z. Xb. Xb.b.n. XoXa.bXbXbXbXbXbXbXbXbXbX",
"bXbXbXbXbXbXbXbXbXbXbXbXbXbXbX5.:X;X;Xw.%.S.m.8.Z.6Xt.6 l.G l H <.u.4.w.1X=X4.-.-.-.9.9.V.,X>X=XF.,XG.F.x.r bXbXbXbXbXbXbXbXbXbX",
"bXbXbXbXbXbXbXbXbXbXbXbXbXbXbXbXd.*XG.N.&.B.,.g.1X>X1.3 G A 6  X6X>XK.D.Z.1Xx.w 8 t ,X8X7X7X<X<XG.C.J.H.N.0.*.r bXbXbXbXbXbXbXbX",
"bXbXbXbXbXbXbXbXbXbXbXbXbXbXbXbXt.A.>XC.g.$.B.M.Z.0XZ l .X' 0 2.V.C.S.K.>XM.d.-X X7.j.8X7XL.7X<XC.H.L.B.:.m.;.*.bXbXbXbXbXbXbXbX",
"bXbXbXbXbXbXbXbXbXbXbXbXbXbXbXbXbX5.b.=XA.%.8.f.3.c.C V oXH i.i.4.>XC.S.<Xw.1.-X-Xl.4.,XJ.,X=XJ.L.N.B.>.>.M.;.-.bXbXbXbXbXbXbXbX",
"bXbXbXbXbXbXbXbXbXbXbXbXbXbXbXbXbXbXc.Z 6.6.bXbXbXbXk l ` C XX3XH c.F.F.D.=Xu.e q w n.z.x.v.*Xb.j.-.0.m.H.N.=.-.bXbXbXbXbXbXbXbX",
"bXbXbXbXbXbXbXbXbXbXbXbXbXbXbXbXbXbXbXbXbXbXbXbXbXbX5 g B g .XcX.X' oXt.u.u.H Z C l k.9X3X3XoXi.J A.r 9.N.V.j.w bXbXbXbXbXbXbXbX",
"bXbXbXbXbXbXbXbXbXbXbXbXbXbXbXbXbXbXbXbXbXbXbXbXbXbX5 g A k }.yX .p A S p.S R ' R R R ` p.#.h G ' 4XbX2.e 2.r 2.bXbXbXbXbXbXbXbX",
"bXbXbXbXbXbXbXbXbXbXbXbXbXbXbXbXbXbXbXbXbXbXbXbXbXbXbXbXbXbXbXI v R ) k G R { I v { ] K _ N b ! N |.bXbXbXbXbXbXbXbXbXbXbXbXbXbX",
"bXbXbXbXbXbXbXbXbXbXbXbXbXbXbXbXbXbXbXbXbXbXbXbXbXbXbXbXbXbXbXI ) G b m ! F m F P.K T P.T T ] { Q L bXbXbXbXbXbXbXbXbXbXbXbXbXbX",
"bXbXbXbXbXbXbXbXbXbXbXbXbXbXbXbXbXbXbXbXbXbXbXbXbXbXbXbXbXbXM X.@.O.O.E ( I.( ( U.P.R.R.R.R.o.P.o.z bXbXbXbXbXbXbXbXbXbXbXbXbXbX",
"bXbXbXbXbXbXbXbXbXbXbXbXbXbXbXbXbXbXbXbXbXbXbXbXbXbXbXbXbXbXn Y I.~.~.W ( I.( K U.R.Y.P.R.Y.P.} ~ d bXbXbXbXbXbXbXbXbXbXbXbXbXbX",
"bXbXbXbXbXbXbXbXbXbXbXbXbXbXbXbXbXbXbXbXbXbXbXbXbXbXbXbXbXM Y { ! { Q Q ^ ^ / d L R.U.P.E.Y.} P.Q a bXbXbXbXbXbXbXbXbXbXbXbXbXbX",
"bXbXbXbXbXbXbXbXbXbXbXbXbXbXbXbXbXbXbXbXbXbXbXbXbXbXbXbXb Q !._.Y.Y.Y.{ F P X.U / ^.^.(.(.~.+.O.Q y bXbXbXbXbXbXbXbXbXbXbXbXbXbX",
"bXbXbXbXbXbXbXbXbXbXbXbXbXbXbXbXbXbXbXbXbXbXbXbXbXbXbXb ] ~.!.`._.'._.} ! m n z X.(.`.(.~.~.+.^ Q n bXbXbXbXbXbXbXbXbXbXbXbXbXbX",
"bXbXbXbXbXbXbXbXbXbXbXbXbXbXbXbXbXbXbXbXbXbXbXbXbXbXy ^ [.(.`./.W.R.[ { Y bXbXn X.{.Q.Q./.(.Q.X.| ! bXbXbXbXbXbXbXbXbXbXbXbXbXbX",
"bXbXbXbXbXbXbXbXbXbXbXbXbXbXbXbXbXbXbXbXbXbXbXbXbXa ^ _.!.(._.(.R.| Y.I bXbXbXQ I./././.Q.Q.U./ ^ P bXbXbXbXbXbXbXbXbXbXbXbXbXbX",
"bXbXbXbXbXbXbXbXbXbXbXbXbXbXbXbXbXbXbXbXbXbXbXbXs [ !.`._./.~.O.| P.K bXbXbXbX! X.Q./.(.Q.).U./ ~ ] bXbXbXbXbXbXbXbXbXbXbXbXbXbX",
"bXbXbXbXbXbXbXbXbXbXbXbXbXbXbXbXbXbXbXbXbXbXbXbXL [ !./.T.Q.Q.O.P.U bXbXbXbXbXP o.{././.).U.U.U.[ n bXbXbXbXbXbXbXbXbXbXbXbXbXbX",
"bXbXbXbXbXbXbXbXbXbXbXbXbXbXbXbXbXbXbXbXbXbXbXbXn U K Q [ ^ ( W n bXbXbXbXbXbXbXK / /.U./ U.P./ ~ z bXbXbXbXbXbXbXbXbXbXbXbXbXbX",
"bXbXbXbXbXbXbXbXbXbXbXbXbXbXbXbXbXbXbXbXbXbXbXbXP [ Q ~ ^ W W ^ ~ bXbXbXbXbXbXbXz W K W / / T P.[ L bXbXbXbXbXbXbXbXbXbXbXbXbXbX",
"bXbXbXbXbXbXbXbXbXbXbXbXbXbXbXbXbXbXbXbXbXbXbXbXn [ !.I.[ [ [ X.| L bXbXbXbXbXbX! ....[ P.P./ P.P.] h bXbXbXbXbXbXbXbXbXbXbXbXbX",
"bXbXbXbXbXbXbXbXbXbXbXbXbXbXbXbXbXbXbXbXbXbXbXbXx X.`.`.).O...X.} U bXbXbXbXbXbXbXx _ !.(.Q.R./ [ E.N M bXbXbXbXbXbXbXbXbXbXbXbX",
"bXbXbXbXbXbXbXbXbXbXbXbXbXbXbXbXbXbXbXbXbXbXbXbXbXY ~.(./.~.O.^ P.T x bXbXbXbXbXbXbXI X.^.Q.{.R.[ } O.P bXbXbXbXbXbXbXbXbXbXbXbX",
"bXbXbXbXbXbXbXbXbXbXbXbXbXbXbXbXbXbXbXbXbXbXbXbXbXn X.`._./.Q.T.Y.] L bXbXbXbXbXbXbX! I o.`.^.(.^.^ ..o.b bXbXbXbXbXbXbXbXbXbXbX",
"bXbXbXbXbXbXbXbXbXbXbXbXbXbXbXbXbXbXbXbXbXbXbXbXbXc [ !.!.`.~.+.{ P.Y bXbXbXbXbXbXbXbXQ Q T.~./.{.R.[ O._ x bXbXbXbXbXbXbXbXbXbX",
"bXbXbXbXbXbXbXbXbXbXbXbXbXbXbXbXbXbXbXbXbXbXbXbXbXbX_ !.!.~.`.(.Y.o.Y x bXbXbXbXbXbXbXbXn I._.~.!.(.R.[ [ _ bXbXbXbXbXbXbXbXbXbX",
"bXbXbXbXbXbXbXbXbXbXbXbXbXbXbXbXbXbXbXbXbXbXbXbXbXbXL P ) E E ! U U L x bXbXbXbXbXbXbXbXb U [ ..^ P.[ P Y L x bXbXbXbXbXbXbXbXbX",
"bXbXbXbXbXbXbXbXbXbXbXbXbXbXbXbXbXbXbXbXbXbXbXbXbXbX| !.'.~.~.~.T.] } _ M bXbXbXbXbXbXbXbXP R.^ o.I.o.[ ] { ] u bXbXbXbXbXbXbXbX",
"bXbXbXbXbXbXbXbXbXbXbXbXbXbXbXbXbXbXbXbXbXbXbXbXbXbXL Q T.[.(.`.+X[ ] ] I bXbXbXbXbXbXbXbXb [.#X[.'.[._.Y.] R i bXbXbXbXbXbXbXbX",
"bXbXbXbXbXbXbXbXbXbXbXbXbXbXbXbXbXbXbXbXbXbXbXbXbXbXz y ; s b P ~ [ +X{ = bXbXbXbXbXbXbXbXf j z c T E.Y.E._.W.& bXbXbXbXbXbXbXbX",
"bXbXbXbXbXbXbXbXbXbXbXbXbXbXbXbXbXbXbXbXbXbXbXbXbX# # # O * * & * * & & O bXbXbXbXbXbXbXbXO # = $ - M L f u - o bXbXbXbXbXbXbXbX",
"bXbXbXbXbXbXbXbXbXbXbXbXbXbXbXbXbXbXbXbXbXbXbXbX& # O + O O X X . . o + . bXbXbXbXbXbXbX      + #   X O X     . bXbXbXbXbXbXbXbX",
"bXbXbXbXbXbXbXbXbXbXbXbXbXbXbXbXbXbXbXbXbXbXbXbXbXbXbXbXbXbXbXbXbXbXbXbXbXbXbXbXbXbXbXbXbXbXbXbXbXbXbXbXbXbXbXbXbXbXbXbXbXbXbXbX",
"bXbXbXbXbXbXbXbXbXbXbXbXbXbXbXbXbXbXbXbXbXbXbXbXbXbXbXbXbXbXbXbXbXbXbXbXbXbXbXbXbXbXbXbXbXbXbXbXbXbXbXbXbXbXbXbXbXbXbXbXbXbXbXbX",
"bXbXbXbXbXbXbXbXbXbXbXbXbXbXbXbXbXbXbXbXbXbXbXbXbXbXbXbXbXbXbXbXbXbXbXbXbXbXbXbXbXbXbXbXbXbXbXbXbXbXbXbXbXbXbXbXbXbXbXbXbXbXbXbX",
"bXbXbXbXbXbXbXbXbXbXbXbXbXbXbXbXbXbXbXbXbXbXbXbXbXbXbXbXbXbXbXbXbXbXbXbXbXbXbXbXbXbXbXbXbXbXbXbXbXbXbXbXbXbXbXbXbXbXbXbXbXbXbXbX",
"bXbXbXbXbXbXbXbXbXbXbXbXbXbXbXbXbXbXbXbXbXbXbXbXbXbXbXbXbXbXbXbXbXbXbXbXbXbXbXbXbXbXbXbXbXbXbXbXbXbXbXbXbXbXbXbXbXbXbXbXbXbXbXbX",
"bXbXbXbXbXbXbXbXbXbXbXbXbXbXbXbXbXbXbXbXbXbXbXbXbXbXbXbXbXbXbXbXbXbXbXbXbXbXbXbXbXbXbXbXbXbXbXbXbXbXbXbXbXbXbXbXbXbXbXbXbXbXbXbX",
"bXbXbXbXbXbXbXbXbXbXbXbXbXbXbXbXbXbXbXbXbXbXbXbXbXbXbXbXbXbXbXbXbXbXbXbXbXbXbXbXbXbXbXbXbXbXbXbXbXbXbXbXbXbXbXbXbXbXbXbXbXbXbXbX",
"bXbXbXbXbXbXbXbXbXbXbXbXbXbXbXbXbXbXbXbXbXbXbXbXbXbXbXbXbXbXbXbXbXbXbXbXbXbXbXbXbXbXbXbXbXbXbXbXbXbXbXbXbXbXbXbXbXbXbXbXbXbXbXbX"
};
