/* XPM */
static char *eea00dbb69824b41e39d9a41ff62bd78mMuRKLFKXVk1uCuv[] = {
/* columns rows colors chars-per-pixel */
"64 64 228 2 ",
"   c #ADD8E6",
".  c #0C030A",
"X  c #070105",
"o  c #11050D",
"O  c #0D0A13",
"+  c #140B14",
"@  c #180C17",
"#  c #19131B",
"$  c #22171E",
"%  c #251A24",
"&  c #35282B",
"*  c #2D2932",
"=  c #372D38",
"-  c #393538",
";  c #302A2C",
":  c #472D1C",
">  c #66391A",
",  c #4A3A2A",
"<  c #553B29",
"1  c #483737",
"2  c #543E34",
"3  c #663C2D",
"4  c #78431A",
"5  c #554231",
"6  c #53423C",
"7  c #5B4638",
"8  c #4A4538",
"9  c #6A4329",
"0  c #784828",
"q  c #664739",
"w  c #744E36",
"e  c #7C5A3C",
"r  c #3D3D45",
"t  c #393643",
"y  c #483C46",
"u  c #444345",
"i  c #45444C",
"p  c #4B4647",
"a  c #574949",
"s  c #5C514C",
"d  c #54524E",
"f  c #4B4552",
"g  c #4B4C54",
"h  c #4B4B57",
"j  c #514D54",
"k  c #554A57",
"l  c #4D515A",
"z  c #4D5557",
"x  c #54535C",
"c  c #5B545C",
"v  c #585859",
"b  c #744B46",
"n  c #64554D",
"m  c #775B48",
"M  c #664C51",
"N  c #625253",
"B  c #645A53",
"V  c #635B5C",
"C  c #6B5B5B",
"Z  c #6A5756",
"A  c #755B56",
"S  c #704E4F",
"D  c #56615B",
"F  c #68635E",
"G  c #79675C",
"H  c #4F5A64",
"J  c #545661",
"K  c #535B64",
"L  c #5B5B64",
"P  c #5C5D69",
"I  c #575C66",
"U  c #655B64",
"Y  c #785A63",
"T  c #55626D",
"R  c #5B646C",
"E  c #5B666B",
"W  c #5D6B74",
"Q  c #5C6774",
"!  c #63646C",
"~  c #6C626B",
"^  c #686766",
"/  c #756767",
"(  c #777269",
")  c #646573",
"_  c #646B75",
"`  c #6B6B74",
"'  c #646D79",
"]  c #6B6E7A",
"[  c #65727C",
"{  c #6A727C",
"}  c #697276",
"|  c #72727B",
" . c #78717F",
".. c #766E76",
"X. c #945A34",
"o. c #895432",
"O. c #A8583B",
"+. c #9A623D",
"@. c #B16E3D",
"#. c #865A47",
"$. c #945A45",
"%. c #8E5450",
"&. c #88634A",
"*. c #866556",
"=. c #956D5A",
"-. c #956957",
";. c #96745A",
":. c #91694D",
">. c #A96D46",
",. c #B77746",
"<. c #A36E55",
"1. c #A8765A",
"2. c #B77B57",
"3. c #B26B47",
"4. c #826C66",
"5. c #936768",
"6. c #88776D",
"7. c #977769",
"8. c #8D7774",
"9. c #A77C65",
"0. c #B57F61",
"q. c #CD7E67",
"w. c #C77755",
"e. c #B9845D",
"r. c #B08256",
"t. c #9F8264",
"y. c #A98368",
"u. c #B58464",
"i. c #BC8C6A",
"p. c #A98875",
"a. c #B68977",
"s. c #AA9176",
"d. c #B99377",
"f. c #C4875B",
"g. c #D58B58",
"h. c #DD905C",
"j. c #C68B69",
"k. c #C79268",
"l. c #D79969",
"z. c #C68A78",
"x. c #C89877",
"c. c #D39C74",
"v. c #D69A76",
"b. c #D48E6D",
"n. c #ED9E66",
"m. c #DAA579",
"M. c #E9A36C",
"N. c #E4A77B",
"B. c #F4AD74",
"V. c #F8C07F",
"C. c #6D7682",
"Z. c #6C7984",
"A. c #667683",
"S. c #727A85",
"D. c #737C89",
"F. c #7A7E8B",
"G. c #787882",
"H. c #827B81",
"J. c #76828D",
"K. c #7A838D",
"L. c #758287",
"P. c #7B8592",
"I. c #7C8994",
"U. c #83838C",
"Y. c #89888B",
"T. c #9D8C8D",
"R. c #958586",
"E. c #858B94",
"W. c #838996",
"Q. c #89929A",
"!. c #97949B",
"~. c #998E96",
"^. c #A78E87",
"/. c #B49A8B",
"(. c #AA9D99",
"). c #B89893",
"_. c #B9AA9C",
"`. c #9C9BA6",
"'. c #8794A1",
"]. c #A19CA6",
"[. c #AAA8AA",
"{. c #B4ABA6",
"}. c #A8B2B3",
"|. c #B6B6BA",
" X c #B8AFAE",
".X c #9DAAB1",
"XX c #C59E86",
"oX c #C78A81",
"OX c #E39985",
"+X c #CDA288",
"@X c #D9A789",
"#X c #D9B18B",
"$X c #C6A497",
"%X c #D2A996",
"&X c #D5B298",
"*X c #E4AC86",
"=X c #EAB787",
"-X c #F4B787",
";X c #E7B698",
":X c #D7BBA8",
">X c #CAB6B3",
",X c #E4BDA2",
"<X c #F7C496",
"1X c #F9C385",
"2X c #DCC9BF",
"3X c #CEC0B2",
"4X c #F6CDA4",
"5X c #B5BDC3",
"6X c #ADB8C0",
"7X c #C6BEC8",
"8X c #BCC2C4",
"9X c #BEC5D0",
"0X c #C6C3C5",
"qX c #DBD7D8",
"wX c #CFCCD3",
"eX c #E4CEC5",
"rX c #E9D7CD",
"tX c #EBDED5",
"yX c #F1DED5",
"uX c #E4E2DF",
"iX c #DDE3E7",
"pX c #E2E1E4",
"aX c #E9E8ED",
"sX c #ECEDF1",
"dX c #E6ECF0",
"fX c #F2F2F4",
"gX c #F9FAFD",
"hX c #F1EBEB",
/* pixels */
"                                                                                                                                ",
"                                                                                                                                ",
"                                                                                                                                ",
"                                                                                                                                ",
"                                                                        L L ! !                                                 ",
"                                                                      f ` | E.Q.E.] x                                           ",
"                                                                    - c x ! I _ K.U.] P x                                       ",
"                                                                  ; j p j i r * * u x j u                                       ",
"                                                                  u y p d u d p - ; & - & ;                                     ",
"                                                              ~ s V V ^ F B n n a 6 6 1 6 N C / N                               ",
"                                                                / s ( 6./ G 6.*.7.=.9 q q q 2 a &                               ",
"                                                                  ^.4./.&Xm p.,X#Xk.4 X.1.y.7.                                  ",
"                                                                  /.7.XX:X=.9.;X*Xl.+.>.u.a.                                    ",
"                                                                  7.y.%Xx.x.<X<X-XN.v.e.1.9.                                    ",
"                                                                    p.XX@Xm.r.M.-Xl.v.2.9.$X>X/ Z V c                           ",
"                                                                  7.=.x.k.,.,.B.N.N.j.1.%XeXT.~ ` H. X0X|.|.                    ",
"                                                                4.7.;.;Xc.=X-X*Xx.u.=.$XrX~.! P Q.wXwXaXfXpXaXqX                ",
"                                                                >XA *.$X,X;X;Xx.;.y.>XtX[.! ] { 5X9XiXsXpXsXaXaXwX              ",
"                                                                0XZ Z _./.9.p.a.$X2XhX0XR { T .X6X5XgXdXdXfXsXfXaXY.            ",
"                                                              7X7X~ F  XyX).*.7.>XfXqXY._ } W }.5X5XgXsXdXiXaXpXsX!.            ",
"                                                            U.wXqXU v ( (.5.S A R.>X}.v D D z }.8X8XgXgXfXsXgXsXgX!.            ",
"                                y y                       ! ! |.Q.v g u ..Y M Z R.R.V d - d - U.0X[.|.|.5X|.|.[.|.Y.            ",
"                            y c U y 1 y 1 1 a a a M a a s 1 8 / F v ^ ^ / N C N C B B B s s 6 N 8. XqXaXpXqXuXpXqX[.            ",
"                              j f f       7 5 2 2 < q : 7 : 5 7 8 , s p p 2 , 5 , , , , 5 5 2 7 G {.qXtXrXrXeX2XtX{.T.          ",
"                                            ;.;.d.1.0 $.&.> 1.s.m 5 G B 6 b 3 9 9 &.=.e e &.*.*.*.9.y.d.x.d.x.d.a.p.).          ",
"                                            x.#Xc.c.X.b.2.2.c.+Xe q 6.( 6 -.<.u.1.m.@Xj.:.$.$.<.u.c.=X-XN.v.N.N.*X-.#.          ",
"                                            0 x.*Xj.O.w.3.N.v.@X#.q G s n %X*X*Xm.c.N.c.+.o.0 i.<X<X1XV.B.M.B.n.-X>.1.9         ",
"                                              1.x.OXq.O.3.b.b.@Xw S T.U Z &.i.m.*XN.k.,.e.#Xu.y.4X=X=X1XB.M.n.n.h.,.j.>         ",
"                                                a.oXz.$.$.$.$.7.q a R...6.&.y.x.c.*Xk.1.y.d.;.t.#X#X#Xm.M.l.g.g.@.g.f.0         ",
"                                                  b b           M 1 ..U R.>X=.+Xz.@X@Xd.#.< < 4.s.p.d.d.u.>.X.>.f.l.f.0         ",
"                                                                s 1 C N R.yXA *.7.5.-.*.G n n ( _.3X).^.*.*.9.0 o.e.e.9         ",
"                                                                  1 N C T.(.C n M 4./ C / D v D v ^ V s / 2       w e           ",
"                                                                          ! x ! L g R R E K l K K P I x ! p                     ",
"                                                                          i | l { R H T H Q T Q _ _ Q ' ` p                     ",
"                                                                          J U.L._ I R R T ' [ ' { S.C.S.] u                     ",
"                                                                      y f S.{ ' S.I R ' H _ J.D.Z.K.P.C.| g                     ",
"                                                                    x ` F.S._ S.Q I I { K H { D.C.[ D.' _ v                     ",
"                                                                  x F.F.W.P.P.K.] R P ) J K D.J.P.P.J.D.{ l                     ",
"                                                              g _ F.Q.K.W.Q.Z.S.] ! h t i K K.I.K.P.I.Z._ g                     ",
"                                                            r ] E.P.P.J.I.D.S.) ) y       J D.I.J.J.Q.S.) l                     ",
"                                                          u P ] L.W.J.A.P.A.) f           I K.K.I.I.J.Z.] l                     ",
"o                                                         L ` ` _ [ A.A.T Q P l           J K.Q.J.J.'.D._ h                     ",
"# X #                                                   x ! ! { P.' A.A.W ' ] I U U f j r ! E.L.I.Q.P.[ { h                     ",
"X .                                                       x L.P.I.P.I.I.J.J.' E ' _ J l | R { K.L.[ Z.[ ' g                     ",
"                                                          r ` L.W.P.K.I.Q.C.J C.E.E.r g G.x R R K _ W W _ ! g                   ",
"                                                            i R { G.K.L.{ R _ `.`.` - - G.U.! ' ' D.W ' { ] g                   ",
"                                                                    I I I ` `.U. .i + % c ] i ] S.D.P.C._ ! ` x                 ",
"                                                                        - x ..`           * t P { F.P.P.S.{ ! ` x               ",
"                                                                                            # t ) F.P.P.P.D.` _ ` j             ",
"                                                                                              O r ] U.W.K.P.D.] ] L             ",
"                                                                                                  l ] F.K.I.K.S.`  .=           ",
"                                                                                                  r K { Z.[ W _ ! L c =         ",
"                                                                                                    h _ ' Q _ C.) P  .c         ",
"                                                                                                    ~ Y.!.E.Q.E...] ! c p       ",
"                                                                                                      U x g I U.].~.H.  $       ",
"                                                                                                      % % * * L G.~ k = %       ",
"                                                                                                    . X + # # O + @ + o . .     ",
"                                                                                                    $ % # . X @ @   o o +       ",
"                                                                                                                                ",
"                                                                                                                                ",
"                                                                                                                                ",
"                                                                                                                                ",
"                                                                                                                                ",
"                                                                                                                                "
};
