/* XPM */
static char *_22cc53666bd4df49b39bb0a89499a60tVb3v7PtXZ4iZWCI[] = {
/* columns rows colors chars-per-pixel */
"64 64 228 2 ",
"   c None",
".  c #040106",
"X  c #0C050B",
"o  c #09060B",
"O  c #11090E",
"+  c #190D0F",
"@  c #0E0C12",
"#  c #140C12",
"$  c #1B0F16",
"%  c #1C151D",
"&  c #1A1218",
"*  c #24171D",
"=  c #1F1C23",
"-  c #271C23",
";  c #2C242C",
":  c #272126",
">  c #332529",
",  c #392D33",
"<  c #35353C",
"1  c #3B343A",
"2  c #2D2935",
"3  c #453528",
"4  c #4A392C",
"5  c #5A3B2B",
"6  c #55392A",
"7  c #473B3C",
"8  c #523A33",
"9  c #633F30",
"0  c #72411F",
"q  c #4C443B",
"w  c #574439",
"e  c #6C4A2A",
"r  c #784423",
"t  c #654637",
"y  c #765136",
"u  c #3B3B44",
"i  c #3C3E4B",
"p  c #4C3B44",
"a  c #463F42",
"s  c #4D3C49",
"d  c #3E414D",
"f  c #42434D",
"g  c #4D4648",
"h  c #594846",
"j  c #5A564C",
"k  c #444352",
"l  c #4B4553",
"z  c #4C4A53",
"x  c #4C4C59",
"c  c #464A58",
"v  c #554A52",
"b  c #4A535A",
"n  c #5C5553",
"m  c #58575B",
"M  c #4E5D4B",
"N  c #644C48",
"B  c #62544A",
"V  c #785849",
"C  c #684D51",
"Z  c #625355",
"A  c #6A5653",
"S  c #685A59",
"D  c #7A595D",
"F  c #794A51",
"G  c #656359",
"H  c #72635B",
"J  c #7C6657",
"K  c #4D5863",
"L  c #545563",
"P  c #545D66",
"I  c #555D6B",
"U  c #5C5E6A",
"Y  c #5B5663",
"T  c #504F60",
"R  c #645B62",
"E  c #615E6B",
"W  c #6A5C61",
"Q  c #765D62",
"!  c #615F70",
"~  c #55626B",
"^  c #5B636D",
"/  c #5A6366",
"(  c #5B6572",
")  c #5D6B72",
"_  c #6C6365",
"`  c #6B656B",
"'  c #66676A",
"]  c #79666A",
"[  c #7B7164",
"{  c #636573",
"}  c #646B75",
"|  c #656C7A",
" . c #6A6D7B",
".. c #6A6876",
"X. c #66727B",
"o. c #6B737C",
"O. c #677479",
"+. c #74777D",
"@. c #706E74",
"#. c #5A6A56",
"$. c #8C5430",
"%. c #97663A",
"&. c #876030",
"*. c #AF6C3D",
"=. c #C5743F",
"-. c #8A5943",
";. c #875D56",
":. c #925C4C",
">. c #89644C",
",. c #846656",
"<. c #956A55",
"1. c #98745A",
"2. c #996749",
"3. c #B77A4B",
"4. c #A56858",
"5. c #A87559",
"6. c #B0734C",
"7. c #866D6A",
"8. c #976A64",
"9. c #887568",
"0. c #997869",
"q. c #857976",
"w. c #937B75",
"e. c #A97969",
"r. c #A77872",
"t. c #C57A4C",
"y. c #C07C62",
"u. c #BB895C",
"i. c #9A8576",
"p. c #A8826B",
"a. c #B6946A",
"s. c #A98B76",
"d. c #B98977",
"f. c #B99478",
"g. c #AE8E70",
"h. c #C7865A",
"j. c #D28B57",
"k. c #C78B69",
"l. c #C99568",
"z. c #D89566",
"x. c #C8967A",
"c. c #D99A78",
"v. c #CE8E74",
"b. c #E79B6E",
"n. c #D9A578",
"m. c #D3A275",
"M. c #F1A36B",
"N. c #E5A676",
"B. c #EEAE75",
"V. c #F8C17A",
"C. c #6B7382",
"Z. c #6D7B83",
"A. c #667480",
"S. c #737482",
"D. c #737B85",
"F. c #7B7A85",
"G. c #757C8B",
"H. c #7A7A88",
"J. c #6B6F83",
"K. c #887D89",
"L. c #A27D82",
"P. c #6F8085",
"I. c #75828A",
"U. c #7B838D",
"Y. c #78868A",
"T. c #7C8591",
"R. c #7E8992",
"E. c #82858E",
"W. c #9B9482",
"Q. c #828592",
"!. c #828C94",
"~. c #888C9A",
"^. c #938C98",
"/. c #8B929E",
"(. c #839197",
"). c #97959D",
"_. c #958787",
"`. c #B59588",
"'. c #A5989B",
"]. c #A9938B",
"[. c #8E96A2",
"{. c #939AA5",
"}. c #A09EA4",
"|. c #9CA4A7",
" X c #AAACB2",
".X c #AFB4B7",
"XX c #B6B6BA",
"oX c #B4AFAB",
"OX c #C49A84",
"+X c #CC9585",
"@X c #CBA58A",
"#X c #DAA583",
"$X c #D5A788",
"%X c #DCB398",
"&X c #D3A993",
"*X c #E4AD85",
"=X c #E8B786",
"-X c #F7B98A",
";X c #E3B496",
":X c #EDB392",
">X c #C6B7A9",
",X c #D9B5B6",
"<X c #CEBBB4",
"1X c #E8B9A2",
"2X c #BEC0BF",
"3X c #F6C591",
"4X c #D4C9BB",
"5X c #F3C5A8",
"6X c #B9BAC2",
"7X c #C6BDC4",
"8X c #BCC2C5",
"9X c #D9DBDA",
"0X c #D2CDCC",
"qX c #E4D6C8",
"wX c #EDD5D1",
"eX c #E9E2D8",
"rX c #E9E0CE",
"tX c #DDDAE2",
"yX c #EBDFE5",
"uX c #DFE2E5",
"iX c #E5EAEC",
"pX c #E7E6E9",
"aX c #ECEDF2",
"sX c #E7EFF3",
"dX c #F1E9F4",
"fX c #EDF2F3",
"gX c #F5F8F9",
"hX c #F5EEEB",
/* pixels */
"                                                                                                                                ",
"                                                                                                                                ",
"                                                                                                                                ",
"                                                                                                                                ",
"                                                      m ..                                                                      ",
"                                                  1 ` ..S./.~.F.}                                                               ",
"                                                1 g Y m } U S.E.S.{ '                                                           ",
"                                                1 z g z u < < ; z z < <                                                         ",
"                                              > a z j g g v 7 g - , 7 , p                                                       ",
"                                            Z S _ m m n S S h 7 N 7 7 n _ n ] S                                                 ",
"                                              S H q.9.H 9.J 9.`.5 V t t N h >                                                   ",
"                                                9.s.<X,.0.%X%X#X2.r <.e.,.                                                      ",
"                                                0.p.5Xg.>.;X*Xc.h.6.5.x.;.                                                      ",
"                                                s.f.$Xa.3X-X-X-Xb.t.y.4.r.                                                      ",
"                                                p.x.#Xn.l.j.B.z.b.c.4.+X,XD ] W S                                               ",
"                                                >.x.v.u.3.z.-XN.n.5.d.qX,X] _ ` ).2X2X.XXX                                      ",
"                                              ].,.@X$X*X-X-Xc.x.<.0.4X<XR `  .6X9X9XfXpXpXpXXX                                  ",
"                                            7X7.V `.%X;X5Xx.5.1.].4XeX' O.} {.9XXXgXsXaXpXaXtX X                                ",
"                                            yX_.A w.`.d.e.r.`.>XpXhX+.^ } Z.6X XiXfXiXuXaXiXaX6X                                ",
"                                          7XdXq._ q.eX,X8.8.&XhXeXXX/ o.' I.iX|.gXgXiXiXiXpXfX6X                                ",
"                                          6XdXF.' n '.L.F D ] oX0X_ ' m / ' pX|.gXgXfXsXiXfXgX0X                                ",
"            ] p                         Y ^.XXF.v g g 7.Q C K.'.R R 7 g n q oXoX X6X6X8XXX.X.X}.^.                              ",
"        - R Z v p p p 7 p h C N 8 h N p g ` ` m _ G ] H 8 S Z m _ n n j q q h '.9X9XiX9X9XpX9X0X'.                              ",
"              ,         h 8 6 5 t 6 5 6 3 w h 7 q n h 3 w 4 8 3 3 3 4 w w 8 N W.qXqXrXqX4XqXqX<X].                              ",
"                          1.f.p.$.&.2.r >.f.0.6 J [ 4 N t t e e 1.>.y >.<.V ,.1.a.a.a.f.OXg.s.`.`.                              ",
"                          f.;X*X*.*.h.3.k.%X<.t ,.9.w ,.1.5.6.u.n.n.5.-.:.4.5.k.=X=XB.N.m.*X*Xf.<.8.                            ",
"                          e.#Xz.3.*.t.z.z.#Xp.5 J [ 3 p.1X#Xl.B.m.n.u.r y -.5X3X3XV.V.B.b.M.B.3.6.-.                            ",
"                            d.c.z.6.$.h.v.+X0.5 i.q.A V 5.m.c.m.=Xu.5.;X@X>.5X=X3XV.B.M.M.M.M.t.3.&.                            ",
"                            e.x.v.5.$.$.2.8.t w q._.H ,.<.$Xx.n.#Xn.2.OXs.>.@X$X#Xn.n.c.z.j.=.j.z.&.                            ",
"                                              h W Z ] qX>.@XOX+X&XOXp.5 w t s.s.g.f.f.e.2.$.h.z.z.%.                            ",
"                                              p h Z A rXi.V 0.8.r.;.7.H j G W.oX>X].w.H 0.  r 3.h.&.                            ",
"                                                S n A >XB H A S ] Q Z ' M #.M ' G m R R ,     0 y e                             ",
"                                                        v ' x m { P P / b / b ^ ^ L Y Y v                                       ",
"                                                        L ..{ ( K ~ ~ K P X.P ..C.| ..{ Y                                       ",
"                                                      l  .F.D.C.K A.) K ^ Z.) | | |  . .Y                                       ",
"                                                        E H.S.| P X.( b P o.D.G.C.J.C.| L                                       ",
"                                                        l ..{ | ( K ~ P X.G.D.G.G.~.T.C.L                                       ",
"                                                        l S.Q.G.| c ) X.U.U.o.o.| C.G...T                                       ",
"                                                          ..K.~.( ~ I.R.R.R.U.R.G.|  .L             # %                         ",
"                                                          E ~.I ( T.Y.U.I.!.R.U.D.} I x           * % O #                       ",
"                                                          l ! L U.!.U.!.I.U.Y.D.X.I I L u 2 %       - $ %                       ",
"                                                          s k S.~.R.I.I.R.!.+.) K P o.{ b < % -     , - $                       ",
"                                                            E U G.U.R.R.R.O.) ) ~ ^ U.~.{ u ; -     1 ; O #                     ",
"                                                            i U  .D.O.Z.P.) ~ I.G.{ {.[.{ 2 = #     > - $ X                     ",
"                                                              l ^ | | | O.P.R.(.D.( /.U.Y           & * ; & #                   ",
"                                                              f b ^ } A.Z.P.Z.} ^ { ~.U               + & # .                   ",
"                                                                f  .^ ( ( ~ } b b c                                             ",
"                                                                f L X.} O.O.} } / i                                             ",
"                                                                  { | } { O.O.O.} T                                             ",
"                                                                  x { C.U.o.o. .| ^ d                                           ",
"                                                                    P o.T.!.U.o.| o.U                                           ",
"                                                                    c } D.~.U.G.D. . .Y                                         ",
"                                                                      x  .U.Q.Q.D. . ...k                                       ",
"                                                                      u { U.U.U./.G.| { P                                       ",
"                                                                        z  .U.D.I.Z.A.( K k                                     ",
"                                                                        x U U ^ I P ( ^ } { z                                   ",
"                                                                          E Q.U.T././.F.} E x                                   ",
"                                                                          z F.E.E. . .+.H.E                                     ",
"                                                                              u x 0X0XtXaX).                                    ",
"                                                                            @ = < Y ).E.@.l :                                   ",
"                                                                        o o & : @ @ % & % & X O                                 ",
"                                                                        . O . @ . . .   X # O                                   ",
"                                                                                                                                ",
"                                                                                                                                "
};
