/* XPM */
static char *_ebe5d84b89b4035f2c0561b051def9dqZL7wPrCnKbBYmYw[] = {
/* columns rows colors chars-per-pixel */
"64 64 4 1 ",
"  c gray8",
". c #1E1E1E",
"X c SteelBlue",
"o c #64C8FF",
/* pixels */
"             ......          ......          ......             ",
"             ......          ......          ......             ",
"             ......          ......          ......             ",
"   oooooooooo......XXXXXXXXXX......oooooooooo......XXXXXXXXXX   ",
"   oooooooooo......XXXXXXXXXX......oooooooooo......XXXXXXXXXX   ",
"   XXXXXXXXXX......XXXXXXXXXX......XXXXXXXXXX......XXXXXXXXXX   ",
"   XXXXXXXXXX......XXXXXXXXXX......XXXXXXXXXX......XXXXXXXXXX   ",
"   XXXXXXXXXX......XXXXXXXXXX......XXXXXXXXXX......XXXXXXXXXX   ",
"   XXXXXXXXXX......XXXXXXXXXX......XXXXXXXXXX......XXXXXXXXXX   ",
"   XXXXXXXXXX......XXXXXXXXXX......XXXXXXXXXX......XXXXXXXXXX   ",
"   XXXXXXXXXX......XXXXXXXXXX......XXXXXXXXXX......XXXXXXXXXX   ",
"   XXXXXXXXXX......XXXXXXXXXX......XXXXXXXXXX......XXXXXXXXXX   ",
"   XXXXXXXXXX......XXXXXXXXXX......XXXXXXXXXX......XXXXXXXXXX   ",
"................................................................",
"................................................................",
"................................................................",
"................................................................",
"................................................................",
"................................................................",
"   XXXXXXXXXX......XXXXXXXXXX......XXXXXXXXXX......XXXXXXXXXX   ",
"   XXXXXXXXXX......XXXXXXXXXX......XXXXXXXXXX......XXXXXXXXXX   ",
"   XXXXXXXXXX......XXXXXXXXXX......XXXXXXXXXX......XXXXXXXXXX   ",
"   XXXXXXXXXX......XXXXXXXXXX......XXXXXXXXXX......XXXXXXXXXX   ",
"   XXXXXXXXXX......XXXXXXXXXX......XXXXXXXXXX......XXXXXXXXXX   ",
"   XXXXXXXXXX......XXXXXXXXXX......XXXXXXXXXX......XXXXXXXXXX   ",
"   XXXXXXXXXX......XXXXXXXXXX......XXXXXXXXXX......XXXXXXXXXX   ",
"   XXXXXXXXXX......XXXXXXXXXX......XXXXXXXXXX......XXXXXXXXXX   ",
"   XXXXXXXXXX......XXXXXXXXXX......XXXXXXXXXX......XXXXXXXXXX   ",
"   XXXXXXXXXX......XXXXXXXXXX......XXXXXXXXXX......XXXXXXXXXX   ",
"................................................................",
"................................................................",
"................................................................",
"................................................................",
"................................................................",
"................................................................",
"   oooooooooo......XXXXXXXXXX......oooooooooo......XXXXXXXXXX   ",
"   oooooooooo......XXXXXXXXXX......oooooooooo......XXXXXXXXXX   ",
"   XXXXXXXXXX......XXXXXXXXXX......XXXXXXXXXX......XXXXXXXXXX   ",
"   XXXXXXXXXX......XXXXXXXXXX......XXXXXXXXXX......XXXXXXXXXX   ",
"   XXXXXXXXXX......XXXXXXXXXX......XXXXXXXXXX......XXXXXXXXXX   ",
"   XXXXXXXXXX......XXXXXXXXXX......XXXXXXXXXX......XXXXXXXXXX   ",
"   XXXXXXXXXX......XXXXXXXXXX......XXXXXXXXXX......XXXXXXXXXX   ",
"   XXXXXXXXXX......XXXXXXXXXX......XXXXXXXXXX......XXXXXXXXXX   ",
"   XXXXXXXXXX......XXXXXXXXXX......XXXXXXXXXX......XXXXXXXXXX   ",
"   XXXXXXXXXX......XXXXXXXXXX......XXXXXXXXXX......XXXXXXXXXX   ",
"................................................................",
"................................................................",
"................................................................",
"................................................................",
"................................................................",
"................................................................",
"   XXXXXXXXXX......XXXXXXXXXX......XXXXXXXXXX......XXXXXXXXXX   ",
"   XXXXXXXXXX......XXXXXXXXXX......XXXXXXXXXX......XXXXXXXXXX   ",
"   XXXXXXXXXX......XXXXXXXXXX......XXXXXXXXXX......XXXXXXXXXX   ",
"   XXXXXXXXXX......XXXXXXXXXX......XXXXXXXXXX......XXXXXXXXXX   ",
"   XXXXXXXXXX......XXXXXXXXXX......XXXXXXXXXX......XXXXXXXXXX   ",
"   XXXXXXXXXX......XXXXXXXXXX......XXXXXXXXXX......XXXXXXXXXX   ",
"   XXXXXXXXXX......XXXXXXXXXX......XXXXXXXXXX......XXXXXXXXXX   ",
"   XXXXXXXXXX......XXXXXXXXXX......XXXXXXXXXX......XXXXXXXXXX   ",
"   XXXXXXXXXX......XXXXXXXXXX......XXXXXXXXXX......XXXXXXXXXX   ",
"   XXXXXXXXXX......XXXXXXXXXX......XXXXXXXXXX......XXXXXXXXXX   ",
"             ......          ......          ......             ",
"             ......          ......          ......             ",
"             ......          ......          ......             "
};
