/* XPM */
static char *result[] = {
/* columns rows colors chars-per-pixel */
"32 32 120 2 ",
"   c #050502",
".  c #0A0D05",
"X  c #0D0E0C",
"o  c #100E0C",
"O  c #0E140E",
"+  c #141003",
"@  c #11130E",
"#  c #131411",
"$  c #191715",
"%  c #161914",
"&  c #1C1B15",
"*  c #1D171D",
"=  c #161E1E",
"-  c #1B1C1B",
";  c #1C201E",
":  c #22201E",
">  c #35291E",
",  c #1B1F20",
"<  c #211F22",
"1  c #1E2323",
"2  c #1D2A29",
"3  c #232423",
"4  c #282525",
"5  c #242926",
"6  c #2A2B27",
"7  c #232A2A",
"8  c #2D2C2B",
"9  c #302F2C",
"0  c #203126",
"q  c #23322B",
"w  c #29302D",
"e  c #373023",
"r  c #32312F",
"t  c #3A342D",
"y  c #293335",
"u  c #333333",
"i  c #393735",
"p  c #333639",
"a  c #3A393A",
"s  c #452D15",
"d  c #413732",
"f  c #38423D",
"g  c #5F4931",
"h  c #654A33",
"j  c #6B4832",
"k  c #624F39",
"l  c #3B4B4D",
"z  c #3F4D50",
"x  c #3C5253",
"c  c #4D4341",
"v  c #405353",
"b  c #5B5E55",
"n  c #6A5A49",
"m  c #7D5B47",
"M  c #666159",
"N  c #706254",
"B  c #706A57",
"V  c #4E6365",
"C  c #5F6860",
"Z  c #516669",
"A  c #53696C",
"S  c #576D72",
"D  c #586F75",
"F  c #577273",
"G  c #597275",
"H  c #5C7379",
"J  c #607A7B",
"K  c #717E7B",
"L  c #835A40",
"P  c #8A5D44",
"I  c #85664B",
"U  c #8A745C",
"Y  c #9B7057",
"T  c #88786B",
"R  c #9D7A62",
"E  c #998068",
"W  c #8C8874",
"Q  c #AB886E",
"!  c #B88464",
"~  c #B0856C",
"^  c #B98869",
"/  c #A18A71",
"(  c #AD8E79",
")  c #AD907B",
"_  c #B1907C",
"`  c #CC9174",
"'  c #DC9D7B",
"]  c #637C82",
"[  c #6A7F81",
"{  c #6C8580",
"}  c #678588",
"|  c #738E97",
" . c #7897A0",
".. c #7A9AA2",
"X. c #848D88",
"o. c #86928F",
"O. c #9B9E95",
"+. c #AEA192",
"@. c #81A0A3",
"#. c #82A4AD",
"$. c #86ACB2",
"%. c #A3BABB",
"&. c #C59D87",
"*. c #CE9D81",
"=. c #D7AA8C",
"-. c #94BAC5",
";. c #97BDC9",
":. c #9AC1CD",
">. c #9DC5D1",
",. c #A0C7D2",
"<. c #A1C9D3",
"1. c #A8CDD6",
"2. c #A5CDDA",
"3. c #AACFD9",
"4. c #A7D1DE",
"5. c #A9D0DA",
"6. c #ACD7E5",
"7. c #ADD8E6",
"8. c #AFDAE8",
"9. c #B0DCEA",
/* pixels */
"7.7.7.7.7.7.7.7.7.7.7.7.7.7.7.7.7.7.7.7.7.7.7.7.7.7.7.7.7.7.7.7.",
"7.7.7.7.7.7.7.7.7.7.7.7.7.7.7.7.7.7.7.7.7.7.7.7.7.7.7.7.7.7.7.7.",
"7.7.7.7.7.7.7.7.7.7.6.8.6.6.8.9.7.7.7.7.7.7.7.7.7.7.7.7.7.7.7.7.",
"7.7.7.7.7.7.7.7.7.7.7.6.8.8...{ ,.7.7.7.7.7.7.7.7.7.7.7.7.7.7.7.",
"7.7.7.7.7.7.7.7.7.7.7.8.>.K k g o.7.7.7.7.7.7.7.7.7.7.7.7.7.7.7.",
"7.7.7.7.7.7.7.7.7.7.6.8.[ s Y &.+.5.7.7.7.7.7.7.7.7.7.7.7.7.7.7.",
"7.7.7.7.7.7.7.7.6.7.8.>.C j P j B ,.8.9.9.9.9.8.8.8.7.6.7.7.7.7.",
"7.7.7.7.7.7.7.7.7.6.;.x e R *./ W 5.$.F F G G F ....:.7.7.7.7.7.",
"7.7.7.7.7.7.7.7.7...2 = t ( ' =.U X.b + .     O q q } 8.7.6.7.7.",
"7.7.7.7.7.7.7.7.9.S O u 9 T ) ( h L ~ m > V F ..:.:.2.7.7.7.7.7.",
"7.7.7.7.7.7.7.7.9.S @ r 9 i c d N ^ ' ` E 1.9.8.8.8.6.6.7.7.7.7.",
"7.7.7.7.7.7.7.7.9. .# 4 u p p u M I ^ ! / 5.7.7.8.7.7.7.7.7.7.7.",
"7.7.7.7.7.7.7.7.7.:.1 * 3 1 1 5 6 > n O.%.6.7.7.7.7.7.7.7.7.7.7.",
"7.7.7.7.7.7.7.7.7.:., * < 5 r 6 - - f >.8.7.6.7.7.7.7.7.7.7.7.7.",
"7.7.7.7.7.7.7.7.7.:.; $ : u a : V ] ;.6.7.7.7.7.7.6.7.7.7.7.7.7.",
"7.7.7.7.7.7.7.7.9. .# & 3 a u # J 9.7.7.6.7.7.7.7.7.7.7.7.7.7.7.",
"7.7.7.7.7.7.7.7.9.S o 3 u a 3 % H 9.6.7.7.7.7.7.7.7.7.7.7.7.7.7.",
"7.7.7.7.7.7.7.7.9. .$ 6 u 6 : # A 7.7.7.7.7.7.7.7.7.7.7.7.7.7.7.",
"7.7.7.7.7.7.7.7.7.:.7 y 8 # 4 u 5 ..8.6.7.7.7.7.7.7.7.7.7.7.7.7.",
"7.7.7.7.7.7.7.7.9.;.1 9 8 X # u 8 l 5.7.7.7.7.7.7.7.7.7.7.7.7.7.",
"7.7.7.7.7.7.7.6.9.-.- 8 4 1 y * i w :.7.7.7.7.7.7.7.7.7.7.7.7.7.",
"7.7.7.7.7.7.7.7.7.S @ 8 : S H # w w :.7.7.7.7.7.7.7.7.7.7.7.7.7.",
"7.7.7.7.7.7.7.7.>.5 3 i 3 | l 3 u 5 :.7.7.7.7.7.7.7.7.7.7.7.7.7.",
"7.7.7.7.7.7.7.8. .- 9 9 z -.1 8 9 7 :.7.7.7.7.7.7.7.7.7.7.7.7.7.",
"7.7.7.7.7.7.7.7.A - i : ] ..$ r 5 A 7.7.7.7.7.7.7.7.7.7.7.7.7.7.",
"7.7.7.7.7.7.8.:.7 ; 5 - ;.D X 4 @ A 7.7.7.7.7.7.7.7.6.7.7.7.7.7.",
"7.7.7.7.7.7.7.;.- X % X ..H   # . 7 ,.7.7.7.7.7.7.7.7.7.7.7.7.7.",
"7.7.7.7.7.7.8.2.] G x V #.#.S D G ..6.7.7.7.7.7.7.7.7.7.7.7.7.7.",
"7.7.7.7.7.7.7.7.8.9.4.7.7.7.9.9.9.9.7.7.7.7.6.7.7.7.7.7.7.7.7.7.",
"7.7.7.7.7.7.7.7.7.7.7.7.7.7.7.7.7.7.7.7.7.7.7.7.7.7.7.7.7.7.7.7.",
"7.7.7.7.7.7.7.7.7.7.7.7.7.7.7.7.7.7.7.7.7.7.7.7.7.7.7.7.7.7.7.7.",
"7.7.7.7.7.7.7.7.7.7.7.7.7.7.7.7.7.7.7.7.7.7.7.7.7.7.7.7.7.6.7.7."
};
