/* XPM */
static char *cb3b0e264f584d85d1eb2da1b87e45e2TjMBWfPK4Cp82WN3[] = {
/* columns rows colors chars-per-pixel */
"64 64 181 2 ",
"   c #ADD8E6",
".  c #020302",
"X  c #0B0503",
"o  c #060806",
"O  c #0A0905",
"+  c #0B050A",
"@  c #070B0A",
"#  c #0C0C0C",
"$  c #190301",
"%  c #110B00",
"&  c #180A00",
"*  c #160808",
"=  c #0B1505",
"-  c #15130A",
";  c #13120C",
":  c #0F0E15",
">  c #170E12",
",  c #0F1110",
"<  c #141313",
"1  c #1C1614",
"2  c #171813",
"3  c #1D1B15",
"4  c #18171C",
"5  c #171918",
"6  c gray11",
"7  c #260300",
"8  c #2B0F03",
"9  c #340E03",
"0  c #241C0F",
"q  c #220E10",
"w  c #2E1B17",
"e  c #24151B",
"r  c #201F1D",
"t  c #1F201B",
"y  c #2E2303",
"u  c #332407",
"i  c #2D2513",
"p  c #292217",
"a  c #23221D",
"s  c #242B1D",
"d  c #3C2B18",
"f  c #211E23",
"g  c #2B1F21",
"h  c gray14",
"j  c #2B2426",
"k  c #272F20",
"l  c #292826",
"z  c #262128",
"x  c #2B262B",
"c  c #2C2C2B",
"v  c #362825",
"b  c #312C2E",
"n  c #2C342A",
"m  c #32342B",
"M  c #3B372D",
"N  c #3A3E2E",
"B  c #2D2B30",
"V  c #332D33",
"C  c #392E33",
"Z  c #343434",
"A  c #3A3635",
"S  c #3B3B34",
"D  c #373538",
"F  c #393739",
"G  c #3B3A3A",
"H  c #552E0F",
"J  c #4C3009",
"K  c #513317",
"L  c #573917",
"P  c #483A27",
"I  c #5F3B2B",
"U  c #403730",
"Y  c #443A38",
"T  c #673F35",
"R  c #354332",
"E  c #3B4335",
"W  c #534015",
"Q  c #58401C",
"!  c #64441D",
"~  c #554727",
"^  c #44433D",
"/  c #49483E",
"(  c #574D3B",
")  c #5A523B",
"_  c #6C4923",
"`  c #6B5327",
"'  c #654D3A",
"]  c #6B523E",
"[  c #433E42",
"{  c #523E40",
"}  c #434243",
"|  c #4B454B",
" . c #4C4C4C",
".. c #504649",
"X. c #57534F",
"o. c #535152",
"O. c #5F5C55",
"+. c #614E40",
"@. c #744F43",
"#. c #6D544B",
"$. c #6B584A",
"%. c #6E585A",
"&. c #715D52",
"*. c #785F58",
"=. c #786A48",
"-. c #70665C",
";. c #7E7353",
":. c #7A6969",
">. c #7F7168",
",. c #7C7A6E",
"<. c #845D3C",
"1. c #8F5E4D",
"2. c #8E6048",
"3. c #86695B",
"4. c #926A51",
"5. c #986759",
"6. c #8A755C",
"7. c #997952",
"8. c #96725D",
"9. c #A07757",
"0. c #AC7D5B",
"q. c #846960",
"w. c #8A7667",
"e. c #8A7A69",
"r. c #977865",
"t. c #8F7771",
"y. c #827B71",
"u. c #AA7C65",
"i. c #9B876C",
"p. c #85877A",
"a. c #9D917A",
"s. c #A5876A",
"d. c #BE8F63",
"f. c #A99165",
"g. c #B8976A",
"h. c #AC8675",
"j. c #AB8C78",
"k. c #B48A73",
"l. c #BF9774",
"z. c #C38D6B",
"x. c #C79967",
"c. c #C39571",
"v. c #C1A06B",
"b. c #CEAC7F",
"n. c #D2A973",
"m. c #978884",
"M. c #A98B83",
"N. c #B29D82",
"B. c #BD9E99",
"V. c #AEA385",
"C. c #BDA787",
"Z. c #B1A398",
"A. c #C89E84",
"S. c #CFA584",
"D. c #CAA98E",
"F. c #DDA78B",
"G. c #D5A98B",
"H. c #C7B188",
"J. c #DCB282",
"K. c #CBA693",
"L. c #C7B899",
"P. c #DAB69C",
"I. c #DDBA9C",
"U. c #E0AB89",
"Y. c #E3B294",
"T. c #E8BD9D",
"R. c #DEB9A7",
"E. c #DDBEB5",
"W. c #E2C492",
"Q. c #D4C6A3",
"!. c #D9C5BA",
"~. c #E9C9A7",
"^. c #F2C2A6",
"/. c #FBCAAB",
"(. c #E9D4A9",
"). c #E9D7AF",
"_. c #D7C4C0",
"`. c #E2C6C3",
"'. c #F2D4CC",
"]. c #F5D9D8",
"[. c #F9E7C3",
/* pixels */
"                                                                                                                                ",
"                                                                                                                                ",
"                                                                                                                                ",
"                                                                                                                                ",
"                                                                                                                                ",
"                                                                                                                                ",
"                                                                  X.O.                                                          ",
"                                                                M v i i d ^                                                     ",
"                                                                ) =.;.6.=.Q u e.                                                ",
"                                                                V.Q.).).H.W ` P                                                 ",
"                                                              a.L.[.C.g.f.` Q J                                                 ",
"                                                              p.i.C.J ! f._ L +.                                                ",
"                                                              ' $ K 7 9 _ <.I 3.t.                                              ",
"                                                              $.' k.H 9.T.S.4.3.t.                                              ",
"                                                                s.I.~.^./.Y.M.r.*.Y j                                           ",
"                        . . . o . . . . . . . X O ; a a         A.G.0.u.F.A.u.E.w $ > f :                                       ",
"                      . . . . . o o # @ . , . + + X N % (     @.1.F.z.U.Y.u.u._.Y + x 6 : 4                                     ",
"                        . . . . . @ . o   o < f g 0 = y i.    7 5.^./.Y.1.r.'.m.x f G | } + <                                   ",
"                                              1 & ~ 2.f.H.D.I 9 T R.P.K.h.E.].Y [ [ V G  .. 1                                   ",
"                                                w.~.(.W.b.P.8.9 ( $.' #.j.`.%.b f V [ } } # +                                   ",
"                                                C.g.v.n.J.S.8.3.m.O p 0 i v v b g D D b Z @                                     ",
"                                                N.7.d.x.d.G.r.!.y.m R ^ b U C V F D V l z +                                     ",
"                                              >.M.D.l.c.0.D.@.Z.,.= R N S m ^ G F D D < f #                                     ",
"                                                &.w.k.k.k.] 8 -.p.= R n n Y A G Z G D 1 . 4                                     ",
"                                                  t.q.M.B.#.$ U ..= s k l c a x h h h r . ;                                     ",
"                                                    :.q { e * > 0 m = 0 r h x 1 1 2 6 ; O                                       ",
"                                                     .+ C C > a - 0 M r A V f < 6 1 h ; .                                       ",
"                                                      : f V 4 + a S 3 x | | x h 6 l 6 h .                                       ",
"                                                        } B Z       X G | V V c 6 t h h .                                       ",
"                                                                    r Z Y X.} A s 2 ; x . X                                     ",
"                                                                    . 5 h / S t O 5 t 3 O <                                     ",
"                                                                    @ m } ^ ^ Z n 6 t m . #                                     ",
"                                                                    5 l c S F G l : 5 c h o                                     ",
"                                                                    5 h < } Z G G Z f r l > o                                   ",
"                                                                    . h , Z }  .} } Z c h . .                                   ",
"                                                                    . < 6 6  .^ G Z E c 6 .                                     ",
"                                                                  < 5 6 B , 5 < t h < 6 l ,                                     ",
"                                                                l 5 c F F < . 5 F Z F D B h                                     ",
"                                                                # f } o.l < 5 l F c F F 5 5                                     ",
"                                                              c F | F Z @ <   o c F } } < 6                                     ",
"                                                            , :  .G } l .     # c G } Z # 6                                     ",
"                                                            Z m o.Z c . ,     6 l G } V @ 6                                     ",
"                                                            c } B F < .       < h F F Z # h                                     ",
"                                                          < l G Z Z . <       , @ Z G Z o h                                     ",
"                                                          # l Z F l o .       @ . Z c l f , @                                   ",
"                                                            , Z Z m : 6         6 c Z c Z . 6                                   ",
"                                                            h Z F Z h <         @ l Z } F c .                                   ",
"                                                            Z h c Z Z .           . Z Z Z B , <                                 ",
"                                                            h f G } c < :         5 l G n [ r 6                                 ",
"                                                            6 <  .Z c 6 6           6 D Z G l o X                               ",
"                                                              l m F c l <           l c G G F 6 <                               ",
"                                                              B h  .B Z .           @ f G c F < #                               ",
"                                                              Z l G G Z h <           o B G Z Z <                               ",
"                                                                , # , < .             < 4 Z 6 l : <                             ",
"                                                              Z h 6 B h #             . o l h 6 6 <                             ",
"                                                            < @ r 6 r : . <         o , l [ c o < 5                             ",
"                                                            . 6 l c < o :           . 6 f l h c 6 @                             ",
"                                                                                                                                ",
"                                                                                                                                ",
"                                                                                                                                ",
"                                                                                                                                ",
"                                                                                                                                ",
"                                                                                                                                ",
"                                                                                                                                "
};
