/* XPM */
static char *_6d086c74a604138ee2ed54ee7e0d3d6ps5aGblxhiFmstbT[] = {
/* columns rows colors chars-per-pixel */
"59 64 188 2 ",
"   c None",
".  c #010401",
"X  c #080604",
"o  c #020B01",
"O  c #0A0B05",
"+  c #090709",
"@  c #0C0B0A",
"#  c #010D09",
"$  c #120200",
"%  c #130B00",
"&  c #100F0C",
"*  c #041304",
"=  c #0A1504",
"-  c #011803",
";  c #0C120B",
":  c #0B1A07",
">  c #13130E",
",  c #161709",
"<  c #110F12",
"1  c #180F14",
"2  c #041010",
"3  c #141413",
"4  c #191514",
"5  c #141B13",
"6  c #1B1C16",
"7  c #1C151E",
"8  c #121A19",
"9  c #1C1C1B",
"0  c #17141B",
"q  c #260100",
"w  c #241502",
"e  c #2E1600",
"r  c #281B0C",
"t  c #3A1600",
"y  c #331C03",
"u  c #231C14",
"i  c #20161F",
"p  c #221D1D",
"a  c #1D2708",
"s  c #102510",
"d  c #1C221C",
"f  c #1C2214",
"g  c #23250D",
"h  c #33240A",
"j  c #3C280F",
"k  c #3B2005",
"l  c #22221D",
"z  c #2E2118",
"x  c #25291A",
"c  c #3C2C11",
"v  c #312019",
"b  c #372C18",
"n  c #3B2B1C",
"m  c #362414",
"M  c #293318",
"N  c #1F1E21",
"B  c #241D22",
"V  c #281F20",
"C  c #1D2321",
"Z  c #242423",
"A  c #292625",
"S  c #242923",
"D  c #292A25",
"F  c #262529",
"G  c #2B252B",
"H  c #232B2C",
"J  c #2C2C2B",
"K  c #312D25",
"L  c #312E2C",
"P  c #293325",
"I  c #2C312C",
"U  c #32322C",
"Y  c #3A3128",
"T  c #3E3B24",
"R  c #2E2F31",
"E  c #312F32",
"W  c #382F32",
"Q  c #2F3336",
"!  c #2F3739",
"~  c #343333",
"^  c #3A3534",
"/  c #373835",
"(  c #3A3A36",
")  c #353539",
"_  c #3A3639",
"`  c #353A3D",
"'  c #3B3B3B",
"]  c #4E2F1D",
"[  c #423218",
"{  c #49331A",
"}  c #5E3016",
"|  c #55341A",
" . c #5F371E",
".. c #473821",
"X. c #43342B",
"o. c #4A3B26",
"O. c #503F2B",
"+. c #483E35",
"@. c #423D3E",
"#. c #58422A",
"$. c #44423E",
"%. c #554638",
"&. c #5A583F",
"*. c #6B492C",
"=. c #71452A",
"-. c #6B4A31",
";. c #6A4D38",
":. c #654A39",
">. c #7B563D",
",. c #76533F",
"<. c #3B3D40",
"1. c #413F44",
"2. c #434344",
"3. c #484347",
"4. c #484A49",
"5. c #49434D",
"6. c #564744",
"7. c #565246",
"8. c #4C4D51",
"9. c #7B5B46",
"0. c #665E53",
"q. c #62664D",
"w. c #71624F",
"e. c #766657",
"r. c #7C6C52",
"t. c #82593D",
"y. c #81634B",
"u. c #94664C",
"i. c #9B6C52",
"p. c #8C7357",
"a. c #877351",
"s. c #967157",
"d. c #9F7253",
"f. c #A57758",
"g. c #8F7365",
"h. c #A27C65",
"j. c #B8845F",
"k. c #9B836C",
"l. c #9B8361",
"z. c #8D897A",
"x. c #958973",
"c. c #A98366",
"v. c #AE856F",
"b. c #A28468",
"n. c #B68567",
"m. c #BF8466",
"M. c #B98867",
"N. c #B1866C",
"B. c #BB8E6F",
"V. c #A18C74",
"C. c #A78874",
"Z. c #B48E79",
"A. c #B28A71",
"S. c #BF9373",
"D. c #B29A7A",
"F. c #C78D67",
"G. c #C38161",
"H. c #D3936F",
"J. c #C58F73",
"K. c #C4947C",
"L. c #C19878",
"P. c #C99775",
"I. c #D29575",
"U. c #D59878",
"Y. c #DCA07C",
"T. c #A19680",
"R. c #AF9F85",
"E. c #B49382",
"W. c #B4A28E",
"Q. c #B7A799",
"!. c #DD9D81",
"~. c #C1A188",
"^. c #D5A78F",
"/. c #D6A488",
"(. c #DEAD92",
"). c #CBB09D",
"_. c #E1AC8C",
"`. c #E7A584",
"'. c #E3AF97",
"]. c #EDBB9C",
"[. c #E3B599",
"{. c #C4B7A7",
"}. c #DBBDA1",
"|. c #E3BBA5",
" X c #E5BFAC",
".X c #E5C2AB",
"XX c #E6C7B5",
"oX c #E5CBBB",
/* pixels */
"                                                                                                                      ",
"                                                                                                                      ",
"                                                                                                                      ",
"                                                                                                                      ",
"                                                                                                                      ",
"                                                                                                                      ",
"                                                                                                                      ",
"                                                      = a M                                                           ",
"                                                    h [ c ..b                                                         ",
"                                                % [ -.>.9.;.:.                                                        ",
"                                              X c | >.^.|. XE.x.                                                      ",
"                                              % j -.t.K.K..XXXT.                                                      ",
"                                              T #.| u.i. .-.V.&.                                                      ",
"                                            P 7.;.*.i.} q k o.g                                                       ",
"                                          * U o.y.A.'.(.s.k.x.q.                                                      ",
"                                        # # O n C.N.(.].^.}.R.z.      s - o o o o o . . o o o     *                   ",
"                                    # # 2 8 > %.).c./._.M.L.D.r.      x f O ; ; 3 + @ 6 ; 5 : : = * o                 ",
"                                  . o 8 H Q 9 Y Q.~.f._.].[.A.y w W.n m r % , > 3 4 @ . @ O O = = * o                 ",
"                                  . # Z ` ' D K e.oXh.v.|..Xk.e t h.Z.,.] m $ O . o . o o                             ",
"                                  . O S / ~ J D +.Q.oXC.g.k.w.y =.U./.[.^.Z.] w                                       ",
"                                  o O S / ~ U l l ^ 6.X.v z 0.%.d.Y.`.`.!.J.A.c                                       ",
"                                  . O 6 U ^ / J ~ E _ W @.L 7.{.N.F.H.H.G.m.S.D.                                      ",
"                                  . O > A L / ' ` <.` <.1.L 4.Q.y.P.j.I.I.P.S.l.                                      ",
"                                    O O p G J Q ! ) ` ` ) J 8.z.h *.c.B.n.f.t.a.                                      ",
"                                    . @ 1 G F F H C S C Z N ) L % O.V.k.p.b.p.                                        ",
"                                    . @ i B 0 9 d d 5 6 9 J F 9 u u X.r                                               ",
"                                    . + i 7 7 F C S D U U ( @ B V p K ,                                               ",
"                                    . + B F F Z S J ' $.L 6 O @ p A S *                                               ",
"                                    . @ 9 9 F 9 J / ' $.6 X   O X .                                                   ",
"                                    . O 4 > l Z R 2.3._ 4 @ P                                                         ",
"                                    . O u l d 6 ) 2.5.G 9 O o                                                         ",
"                                  . O > 6 l d Z ` 1.) G Z O P                                                         ",
"                                  . @ 6 9 l Z ' ) ~ ) 4 I O =                                                         ",
"                                  . @ 9 Z J R 2.' ' Z 6 I ; =                                                         ",
"                                  . @ 4 Z ' 2./ ' ' 6 6 6 o X                                                         ",
"                                    . > Z Z J J 4 9 Z J 5 ; o                                                         ",
"                                    . 6 ( ~ ~ ~ 9 + 9 / ' ( O o                                                       ",
"                                    X 3 ~ / ( ~ X X 4 / 2.' U X o                                                     ",
"                                    o 5 ' ~ ~ J @ < + 9 / ( 3.d .                                                     ",
"                                    . . J / ( J + < + @ J ' 3.~ * o                                                   ",
"                                    . O J ( ( J @ @ . . N J _ 2.Z .                                                   ",
"                                    . O U ~ L A + X   @ + 7 _ ( U o                                                   ",
"                                  . O ; J ~ L Z .     . + 7 J J J .                                                   ",
"                                  . > 3 A U L 4 .     . 9 F / ' l o                                                   ",
"                                O . 3 J _ ( ~ p X     . 3 Z ( ( l .                                                   ",
"                                . @ Z @.@.( p .     + + N ~ ` / X .                                                   ",
"                                X 4 A _ @.' 4 .     . + F ~ ( ( & o                                                   ",
"                              o . 9 ~ ' / Z .       . 4 A / <.Z O .                                                   ",
"                              o 3 F ( / ~ 9 .       . 9 J ( _ J .                                                     ",
"                              X 3 J ( $.J O O     O . > L @._ p o                                                     ",
"                            . & Z ~ ' Z 3 .       . @ D J ~ Z & .                                                     ",
"                            + @ 3 9 Z l O .       . O @ 3 Z 3 O o                                                     ",
"                            + 3 9 4 Z 3 . .       . O l D Z D o o o                                                   ",
"                            + @ @ > D d ; . .     . O O ; ; 5 ; o o                                                   ",
"                            . ; O . . o o o .     . . o . o . . o                                                     ",
"                                      o                                                                               ",
"                                                                                                                      ",
"                                                                                                                      ",
"                                                                                                                      ",
"                                                                                                                      ",
"                                                                                                                      ",
"                                                                                                                      ",
"                                                                                                                      ",
"                                                                                                                      "
};
