/* XPM */
static char *result[] = {
/* columns rows colors chars-per-pixel */
"50 64 192 2 ",
"   c #020302",
".  c #0B0503",
"X  c #060806",
"o  c #0A0905",
"O  c #0B050A",
"+  c #0C0C0C",
"@  c #070B0A",
"#  c #190301",
"$  c #110B00",
"%  c #180A00",
"&  c #10070C",
"*  c #100F0A",
"=  c #160808",
"-  c #0B1505",
";  c #13120C",
":  c #15130A",
">  c #0F0E15",
",  c #170E12",
"<  c #0F1110",
"1  c #141313",
"2  c #1C1614",
"3  c #171813",
"4  c #1D1B15",
"5  c #18171C",
"6  c #171918",
"7  c #1C1C1C",
"8  c #260300",
"9  c #2B0F03",
"0  c #340E03",
"q  c #241C0F",
"w  c #220E10",
"e  c #24151B",
"r  c #201F1D",
"t  c #2E1B17",
"y  c #1F201B",
"u  c #1F2116",
"i  c #2E2303",
"p  c #332407",
"a  c #2D2513",
"s  c #23221D",
"d  c #242B1D",
"f  c #292217",
"g  c #3C2B18",
"h  c #211E23",
"j  c #2B1F21",
"k  c #242424",
"l  c #2B2426",
"z  c #272F20",
"x  c #292826",
"c  c #262128",
"v  c #2B262B",
"b  c #2C2C2B",
"n  c #312C2E",
"m  c #362825",
"M  c #2C342A",
"N  c #32342B",
"B  c #3B372D",
"V  c #3A3E2E",
"C  c #2D2B30",
"Z  c #332D33",
"A  c #392E33",
"S  c #343434",
"D  c #3A3635",
"F  c #3B3B34",
"G  c #373538",
"H  c #393739",
"J  c #3B3A3A",
"K  c #552E0F",
"L  c #4C3009",
"P  c #573917",
"I  c #513317",
"U  c #483A27",
"Y  c #5F3B2B",
"T  c #403730",
"R  c #443A38",
"E  c #5B3E36",
"W  c #673F35",
"Q  c #3B4335",
"!  c #354332",
"~  c #58401C",
"^  c #534015",
"/  c #64441D",
"(  c #554727",
")  c #44433D",
"_  c #49483E",
"`  c #574D3B",
"'  c #5A523B",
"]  c #6C4923",
"[  c #624727",
"{  c #6B5327",
"}  c #654D3A",
"|  c #6B523E",
" . c #433E42",
".. c #523E40",
"X. c #434243",
"o. c #4B454B",
"O. c #4C4C4C",
"+. c #504649",
"@. c #57534F",
"#. c #535152",
"$. c #5F5C55",
"%. c #614E40",
"&. c #744F43",
"*. c #6D544B",
"=. c #6B584A",
"-. c #715748",
";. c #6E585A",
":. c #785F58",
">. c #715D52",
",. c #786A48",
"<. c #70665C",
"1. c #7E7353",
"2. c #7A6969",
"3. c #7F7168",
"4. c #7C7A6E",
"5. c #845D3C",
"6. c #8F5E4D",
"7. c #8E6048",
"8. c #86695B",
"9. c #986759",
"0. c #926A51",
"q. c #8A755C",
"w. c #96725D",
"e. c #997952",
"r. c #A07757",
"t. c #AC7D5B",
"y. c #846960",
"u. c #8A7A69",
"i. c #8A7667",
"p. c #977865",
"a. c #8F7771",
"s. c #827B71",
"d. c #AA7C65",
"f. c #9B876C",
"g. c #85877A",
"h. c #9F877D",
"j. c #9D917A",
"k. c #A5876A",
"l. c #BE8F63",
"z. c #A99165",
"x. c #B19168",
"c. c #B8976A",
"v. c #AC8675",
"b. c #AB8C78",
"n. c #B48A73",
"m. c #BF9774",
"M. c #B59677",
"N. c #C38D6B",
"B. c #C79967",
"V. c #C39571",
"C. c #C1A06B",
"Z. c #CEAC7F",
"A. c #D2A973",
"S. c #978884",
"D. c #A98B83",
"F. c #B29D82",
"G. c #BD9E99",
"H. c #AEA385",
"J. c #BDA787",
"K. c #B1A398",
"L. c #C89E84",
"P. c #CFA584",
"I. c #CAA98E",
"U. c #C9AA89",
"Y. c #D5A98B",
"T. c #DCAC8D",
"R. c #DDA78B",
"E. c #C7B188",
"W. c #DCB282",
"Q. c #CBA693",
"!. c #C7B899",
"~. c #DAB69C",
"^. c #DDBA9C",
"/. c #E0AB89",
"(. c #E3B294",
"). c #E8BD9D",
"_. c #DEB9A7",
"`. c #DDBEB5",
"'. c #E2C492",
"]. c #D4C6A3",
"[. c #D9C5BA",
"{. c #E9C9A7",
"}. c #FBCAAB",
"|. c #F2C2A6",
" X c #E9D7AF",
".X c #E9D4A9",
"XX c #D7C4C0",
"oX c #E2C6C3",
"OX c #F2D4CC",
"+X c #F5D9D8",
"@X c #F9E7C3",
"#X c None",
/* pixels */
"#X#X#X#X#X#X#X#X#X#X#X#X#X#X#X#X#X#X#X#X#X#X#X#X#X#X#X#X#X#X#X#X#X#X#X#X#X#X#X#X#X#X#X#X#X#X#X#X#X#X",
"#X#X#X#X#X#X#X#X#X#X#X#X#X#X#X#X#X#X#X#X#X#X#X#X#X#X#X#X#X#X#X#X#X#X#X#X#X#X#X#X#X#X#X#X#X#X#X#X#X#X",
"#X#X#X#X#X#X#X#X#X#X#X#X#X#X#X#X#X#X#X#X#X#X#X#X#X#X#X#X#X#X#X#X#X#X#X#X#X#X#X#X#X#X#X#X#X#X#X#X#X#X",
"#X#X#X#X#X#X#X#X#X#X#X#X#X#X#X#X#X#X#X#X#X#X#X#X#X#X#X#X#X#X#X#X#X#X#X#X#X#X#X#X#X#X#X#X#X#X#X#X#X#X",
"#X#X#X#X#X#X#X#X#X#X#X#X#X#X#X#X#X#X#X#X#X#X#X#X#X#X#X#X#X#X#X#X#X#X#X#X#X#X#X#X#X#X#X#X#X#X#X#X#X#X",
"#X#X#X#X#X#X#X#X#X#X#X#X#X#X#X#X#X#X#X#X#X#X#X#X#X#X#X#X#X#X#X#X#X#X#X#X#X#X#X#X#X#X#X#X#X#X#X#X#X#X",
"#X#X#X#X#X#X#X#X#X#X#X#X#X#X#X#X#X#X#X#X#X#X#X#X#X#X@.$.#X#X#X#X#X#X#X#X#X#X#X#X#X#X#X#X#X#X#X#X#X#X",
"#X#X#X#X#X#X#X#X#X#X#X#X#X#X#X#X#X#X#X#X#X#X#X#X#XB m a a g ) #X#X#X#X#X#X#X#X#X#X#X#X#X#X#X#X#X#X#X",
"#X#X#X#X#X#X#X#X#X#X#X#X#X#X#X#X#X#X#X#X#X#X#X#X#X' ,.1.q.,.~ p u.#X#X#X#X#X#X#X#X#X#X#X#X#X#X#X#X#X",
"#X#X#X#X#X#X#X#X#X#X#X#X#X#X#X#X#X#X#X#X#X#X#X#X#XH.]. X XE.^ { U #X#X#X#X#X#X#X#X#X#X#X#X#X#X#X#X#X",
"#X#X#X#X#X#X#X#X#X#X#X#X#X#X#X#X#X#X#X#X#X#X#X#Xj.!.@XJ.c.z.{ ~ L #X#X#X#X#X#X#X#X#X#X#X#X#X#X#X#X#X",
"#X#X#X#X#X#X#X#X#X#X#X#X#X#X#X#X#X#X#X#X#X#X#X#Xg.f.J.L / z.] P %.#X#X#X#X#X#X#X#X#X#X#X#X#X#X#X#X#X",
"#X#X#X#X#X#X#X#X#X#X#X#X#X#X#X#X#X#X#X#X#X#X#X#X} # I 8 0 ] 5.Y 8.a.#X#X#X#X#X#X#X#X#X#X#X#X#X#X#X#X",
"#X#X#X#X#X#X#X#X#X#X#X#X#X#X#X#X#X#X#X#X#X#X#X#X=.} n.K r.).P.0.8.a.#X#X#X#X#X#X#X#X#X#X#X#X#X#X#X#X",
"#X#X#X#X#X#X#X#X#X#X#X#X#X#X#X#X#X#X#X#X#X#X#X#X#Xk.^.{.|.}.(.D.p.:.R l #X#X#X#X#X#X#X#X#X#X#X#X#X#X",
"#X#X#X#X#X      X               . o ; s s #X#X#X#XL.Y.t.d.R.L.d.`.t # , h > #X#X#X#X#X#X#X#X#X#X#X#X",
"#X#X#X#X          X X + @   <   O O . V $ ` #X#X&.6.R.N./.(.d.d.XXR O v 7 > 5 #X#X#X#X#X#X#X#X#X#X#X",
"#X#X#X#X#X          @   X #XX 1 h j q - i f.#X#X8 9.|.}.(.6.p.OXS.v h J o.X.O 1 #X#X#X#X#X#X#X#X#X#X",
"#X#X#X#X#X#X#X#X#X#X#X#X#X#X#X#X2 % ( 7.z.E.I.Y 0 W _.~.Q.v.`.+XR  . .Z J O.  2 #X#X#X#X#X#X#X#X#X#X",
"#X#X#X#X#X#X#X#X#X#X#X#X#X#X#X#X#Xi.{..X'.Z.~.w.0 ` =.} *.b.oX;.n h Z  .X.X.+ O #X#X#X#X#X#X#X#X#X#X",
"#X#X#X#X#X#X#X#X#X#X#X#X#X#X#X#X#XJ.c.C.A.W.P.w.8.S.o f q a m m n j G G n S @ #X#X#X#X#X#X#X#X#X#X#X",
"#X#X#X#X#X#X#X#X#X#X#X#X#X#X#X#X#XF.e.l.B.l.Y.p.[.s.N ! ) n T A Z H G Z x c O #X#X#X#X#X#X#X#X#X#X#X",
"#X#X#X#X#X#X#X#X#X#X#X#X#X#X#X#X3.D.I.m.V.t.I.&.K.4.- ! V F N ) J H G G 1 h + #X#X#X#X#X#X#X#X#X#X#X",
"#X#X#X#X#X#X#X#X#X#X#X#X#X#X#X#X#X>.i.n.n.n.| 9 <.g.- ! M M R D J S J G 2   5 #X#X#X#X#X#X#X#X#X#X#X",
"#X#X#X#X#X#X#X#X#X#X#X#X#X#X#X#X#X#Xa.y.D.G.*.# T +.- d z x b s v k k k r   ; #X#X#X#X#X#X#X#X#X#X#X",
"#X#X#X#X#X#X#X#X#X#X#X#X#X#X#X#X#X#X#X2.w ..e = , q N - q r k v 2 2 3 7 ; o #X#X#X#X#X#X#X#X#X#X#X#X",
"#X#X#X#X#X#X#X#X#X#X#X#X#X#X#X#X#X#X#XO.O A A , s : q B r D Z h 1 7 2 k ;   #X#X#X#X#X#X#X#X#X#X#X#X",
"#X#X#X#X#X#X#X#X#X#X#X#X#X#X#X#X#X#X#X#X> h Z 5 O s F 4 v o.o.v k 7 x 7 k   #X#X#X#X#X#X#X#X#X#X#X#X",
"#X#X#X#X#X#X#X#X#X#X#X#X#X#X#X#X#X#X#X#X#XX.C S #X#X#X. J o.Z Z b 7 y k k   #X#X#X#X#X#X#X#X#X#X#X#X",
"#X#X#X#X#X#X#X#X#X#X#X#X#X#X#X#X#X#X#X#X#X#X#X#X#X#X#Xr S R @.X.D d 3 ; v   . #X#X#X#X#X#X#X#X#X#X#X",
"#X#X#X#X#X#X#X#X#X#X#X#X#X#X#X#X#X#X#X#X#X#X#X#X#X#X#X  6 k _ F y o 6 y 4 o 1 #X#X#X#X#X#X#X#X#X#X#X",
"#X#X#X#X#X#X#X#X#X#X#X#X#X#X#X#X#X#X#X#X#X#X#X#X#X#X#X@ N X.) ) S M 7 y N   + #X#X#X#X#X#X#X#X#X#X#X",
"#X#X#X#X#X#X#X#X#X#X#X#X#X#X#X#X#X#X#X#X#X#X#X#X#X#X#X6 x b F H J x > 6 b k X #X#X#X#X#X#X#X#X#X#X#X",
"#X#X#X#X#X#X#X#X#X#X#X#X#X#X#X#X#X#X#X#X#X#X#X#X#X#X#X6 k 1 X.S J J S h r x , X #X#X#X#X#X#X#X#X#X#X",
"#X#X#X#X#X#X#X#X#X#X#X#X#X#X#X#X#X#X#X#X#X#X#X#X#X#X#X  k < S X.O.X.X.S b k     #X#X#X#X#X#X#X#X#X#X",
"#X#X#X#X#X#X#X#X#X#X#X#X#X#X#X#X#X#X#X#X#X#X#X#X#X#X#X  1 7 7 O.) J S Q b 7   #X#X#X#X#X#X#X#X#X#X#X",
"#X#X#X#X#X#X#X#X#X#X#X#X#X#X#X#X#X#X#X#X#X#X#X#X#X#X1 6 7 C < 6 1 y k 1 7 x < #X#X#X#X#X#X#X#X#X#X#X",
"#X#X#X#X#X#X#X#X#X#X#X#X#X#X#X#X#X#X#X#X#X#X#X#X#Xx 6 b H H 1   6 H S H G C k #X#X#X#X#X#X#X#X#X#X#X",
"#X#X#X#X#X#X#X#X#X#X#X#X#X#X#X#X#X#X#X#X#X#X#X#X#X+ h X.#.x 1 6 x H b H H 6 6 #X#X#X#X#X#X#X#X#X#X#X",
"#X#X#X#X#X#X#X#X#X#X#X#X#X#X#X#X#X#X#X#X#X#X#X#Xb H o.H S @ 1 #XX b H X.X.1 7 #X#X#X#X#X#X#X#X#X#X#X",
"#X#X#X#X#X#X#X#X#X#X#X#X#X#X#X#X#X#X#X#X#X#X#X< > O.J X.x   #X#X+ b J X.S + 7 #X#X#X#X#X#X#X#X#X#X#X",
"#X#X#X#X#X#X#X#X#X#X#X#X#X#X#X#X#X#X#X#X#X#X#XS N #.S b   < #X#X7 x J X.Z @ 7 #X#X#X#X#X#X#X#X#X#X#X",
"#X#X#X#X#X#X#X#X#X#X#X#X#X#X#X#X#X#X#X#X#X#X#Xb X.C H 1   #X#X#X1 k H H S + k #X#X#X#X#X#X#X#X#X#X#X",
"#X#X#X#X#X#X#X#X#X#X#X#X#X#X#X#X#X#X#X#X#X#X1 x J S S   1 #X#X#X< @ S J S X k #X#X#X#X#X#X#X#X#X#X#X",
"#X#X#X#X#X#X#X#X#X#X#X#X#X#X#X#X#X#X#X#X#X#X+ x S H x X   #X#X#X@   S b x h < @ #X#X#X#X#X#X#X#X#X#X",
"#X#X#X#X#X#X#X#X#X#X#X#X#X#X#X#X#X#X#X#X#X#X#X< S S N > 7 #X#X#X#X7 b S b S   7 #X#X#X#X#X#X#X#X#X#X",
"#X#X#X#X#X#X#X#X#X#X#X#X#X#X#X#X#X#X#X#X#X#X#Xk S H S k 1 #X#X#X#X@ x S X.H b   #X#X#X#X#X#X#X#X#X#X",
"#X#X#X#X#X#X#X#X#X#X#X#X#X#X#X#X#X#X#X#X#X#X#XS k b S S   #X#X#X#X#X  S S S C < 1 #X#X#X#X#X#X#X#X#X",
"#X#X#X#X#X#X#X#X#X#X#X#X#X#X#X#X#X#X#X#X#X#X#Xk h J X.b 1 > #X#X#X#X6 x J M  .r 7 #X#X#X#X#X#X#X#X#X",
"#X#X#X#X#X#X#X#X#X#X#X#X#X#X#X#X#X#X#X#X#X#X#X7 1 O.S b 7 7 #X#X#X#X#X7 G S J x X . #X#X#X#X#X#X#X#X",
"#X#X#X#X#X#X#X#X#X#X#X#X#X#X#X#X#X#X#X#X#X#X#X#Xx N H b x 1 #X#X#X#X#Xx b J J H 7 1 #X#X#X#X#X#X#X#X",
"#X#X#X#X#X#X#X#X#X#X#X#X#X#X#X#X#X#X#X#X#X#X#X#XC k O.C S   #X#X#X#X#X@ h J b H 1 + #X#X#X#X#X#X#X#X",
"#X#X#X#X#X#X#X#X#X#X#X#X#X#X#X#X#X#X#X#X#X#X#X#XS x J J S k 1 #X#X#X#X#XX C J S S 1 #X#X#X#X#X#X#X#X",
"#X#X#X#X#X#X#X#X#X#X#X#X#X#X#X#X#X#X#X#X#X#X#X#X#X< + < 1   #X#X#X#X#X#X1 5 S 7 x > 1 #X#X#X#X#X#X#X",
"#X#X#X#X#X#X#X#X#X#X#X#X#X#X#X#X#X#X#X#X#X#X#X#XS k 7 C k + #X#X#X#X#X#X  X x k 7 7 1 #X#X#X#X#X#X#X",
"#X#X#X#X#X#X#X#X#X#X#X#X#X#X#X#X#X#X#X#X#X#X#X1 @ r 7 r >   1 #X#X#X#XX < x  .b X 1 6 #X#X#X#X#X#X#X",
"#X#X#X#X#X#X#X#X#X#X#X#X#X#X#X#X#X#X#X#X#X#X#X  7 x b 1 X > #X#X#X#X#X  7 h x k b 7 @ #X#X#X#X#X#X#X",
"#X#X#X#X#X#X#X#X#X#X#X#X#X#X#X#X#X#X#X#X#X#X#X#X#X#X#X#X#X#X#X#X#X#X#X#X#X#X#X#X#X#X#X#X#X#X#X#X#X#X",
"#X#X#X#X#X#X#X#X#X#X#X#X#X#X#X#X#X#X#X#X#X#X#X#X#X#X#X#X#X#X#X#X#X#X#X#X#X#X#X#X#X#X#X#X#X#X#X#X#X#X",
"#X#X#X#X#X#X#X#X#X#X#X#X#X#X#X#X#X#X#X#X#X#X#X#X#X#X#X#X#X#X#X#X#X#X#X#X#X#X#X#X#X#X#X#X#X#X#X#X#X#X",
"#X#X#X#X#X#X#X#X#X#X#X#X#X#X#X#X#X#X#X#X#X#X#X#X#X#X#X#X#X#X#X#X#X#X#X#X#X#X#X#X#X#X#X#X#X#X#X#X#X#X",
"#X#X#X#X#X#X#X#X#X#X#X#X#X#X#X#X#X#X#X#X#X#X#X#X#X#X#X#X#X#X#X#X#X#X#X#X#X#X#X#X#X#X#X#X#X#X#X#X#X#X",
"#X#X#X#X#X#X#X#X#X#X#X#X#X#X#X#X#X#X#X#X#X#X#X#X#X#X#X#X#X#X#X#X#X#X#X#X#X#X#X#X#X#X#X#X#X#X#X#X#X#X",
"#X#X#X#X#X#X#X#X#X#X#X#X#X#X#X#X#X#X#X#X#X#X#X#X#X#X#X#X#X#X#X#X#X#X#X#X#X#X#X#X#X#X#X#X#X#X#X#X#X#X"
};
