/* XPM */
static char *a195ac228c4e426e9eba5b72bd2291714jkJD8wlZa9nh7BU[] = {
/* columns rows colors chars-per-pixel */
"64 64 179 2 ",
"   c #ADD8E6",
".  c #030201",
"X  c #090400",
"o  c #0D0B06",
"O  c #07060A",
"+  c #080609",
"@  c #0B0B0B",
"#  c #1A0C07",
"$  c #170A08",
"%  c #150E0D",
"&  c #0F110E",
"*  c #171006",
"=  c #13120D",
"-  c #1C130C",
";  c #0D0D11",
":  c #110E13",
">  c #141214",
",  c #1C1414",
"<  c #171A13",
"1  c #1C1A16",
"2  c #161519",
"3  c #19161A",
"4  c #1C1B1C",
"5  c #390A00",
"6  c #221412",
"7  c #241914",
"8  c #281E16",
"9  c #221D1D",
"0  c #2B1F1B",
"q  c #1C211B",
"w  c #2B2117",
"e  c #23211D",
"r  c #2C241D",
"t  c #2F281E",
"y  c #36251D",
"u  c #1E1E21",
"i  c #231D22",
"p  c #1F2120",
"a  c #242323",
"s  c #2A2624",
"d  c #272926",
"f  c #2B2A25",
"g  c #252529",
"h  c #29262A",
"j  c #272929",
"k  c #2C2C2C",
"l  c #342B25",
"z  c #382924",
"x  c #332E2A",
"c  c #3A2E2B",
"v  c #2E302F",
"b  c #343025",
"n  c #33322D",
"m  c #3C332C",
"M  c #2F2D32",
"N  c #332D31",
"B  c #2F3130",
"V  c gray20",
"C  c #393631",
"Z  c #363836",
"A  c #3A3934",
"S  c #353539",
"D  c #3B373C",
"F  c gray23",
"G  c #50241B",
"H  c #572F27",
"J  c #43372E",
"K  c #4D342D",
"L  c #50352E",
"P  c #453737",
"I  c #423933",
"U  c #4D3C37",
"Y  c #423E3A",
"T  c #4E3E38",
"R  c #563B35",
"E  c #523F3A",
"W  c #62362B",
"Q  c #693F33",
"!  c #3F4239",
"~  c #47453A",
"^  c #44443E",
"/  c #4B423C",
"(  c #57423A",
")  c #62463D",
"_  c #3C3C41",
"`  c #403F43",
"'  c #434342",
"]  c #4D4542",
"[  c #494A44",
"{  c #464749",
"}  c #4B494D",
"|  c #5F4840",
" . c #544C4B",
".. c #5B4B4A",
"X. c #5D534D",
"o. c #4E4E51",
"O. c #524F54",
"+. c #545155",
"@. c #5B5758",
"#. c #5A5A5D",
"$. c #604D47",
"%. c #614F4B",
"&. c #62544C",
"*. c #6B554E",
"=. c #79554A",
"-. c #645554",
";. c #6B5E55",
":. c #6C5D5C",
">. c #725F58",
",. c #6F655B",
"<. c #77675C",
"1. c #7A655D",
"2. c #6A6362",
"3. c #66666B",
"4. c #7C6B64",
"5. c #766768",
"6. c #776768",
"7. c #79797E",
"8. c #835D50",
"9. c #886358",
"0. c #886760",
"q. c #866E68",
"w. c #83736C",
"e. c #88746D",
"r. c #94786D",
"t. c #8D7775",
"y. c #8C7A74",
"u. c #837B7A",
"i. c #947B73",
"p. c #907C7B",
"a. c #A27D72",
"s. c #8D8077",
"d. c #93837E",
"f. c #A6857F",
"g. c #B4887F",
"h. c #7D7B81",
"j. c #888884",
"k. c #938683",
"l. c #9A8582",
"z. c #968982",
"x. c #9D8B84",
"c. c #A18582",
"v. c #A48A83",
"b. c #A48E8B",
"n. c #A98D89",
"m. c #A4918B",
"M. c #AB938D",
"N. c #B2978E",
"B. c #B4998F",
"V. c #A59290",
"C. c #AD9B93",
"Z. c #B39A95",
"A. c #BC9C92",
"S. c #B69D9B",
"D. c #B99D99",
"F. c #B2A197",
"G. c #B5A69D",
"H. c #BAA49D",
"J. c #BFA4A0",
"K. c #BAABA4",
"L. c #C19D93",
"P. c #C89D94",
"I. c #C7A49E",
"U. c #CFA79F",
"Y. c #D0AA9F",
"T. c #C5AAA4",
"R. c #C8ADA4",
"E. c #C9AEAB",
"W. c #C6B4A9",
"Q. c #CBB3AB",
"!. c #CDBBAF",
"~. c #DAB3AA",
"^. c #C9B7B4",
"/. c #CBBBB4",
"(. c #E0BAB1",
"). c #D9C2BA",
"_. c #DFC7C3",
"`. c #F1D0C7",
"'. c #EBDAD3",
/* pixels */
"                                                                                                                                ",
"                                                                                                                                ",
"                                                              2.] ] :.6.-.                                                      ",
"                                                            6.U U E %.| ` -.                                                    ",
"                                                            y.y.N.R.H.1.*.( (                                                   ",
"                                                            F.).`.(.(.A.) ( T                                                   ",
"                                                            B.I.Y.a.a.A.=.( T                                                   ",
"                                                            r.9.=.W Q 9.=.) >.                                                  ",
"                                                            ) H G 5 G 8.f.( 4.                                                  ",
"                                                            9.g.g.=.P.~.A.v.q.w.                                                ",
"                                                            v.L.~.U.(.(.B.N.4.*.X.s                                             ",
"                X . X o % o 1 f e k e 1 9 e 0 c z J         f.T.~.f.A.Y.I.q.m.&.8 * . o                                         ",
"                < & . . . . . . X X X = o X 7 6 c # ..      0.v.A.T.W.R.Z.e./.,.* - t = o                                       ",
"                A ! [ [ [ ^ ] Y ^ Y I C C X $ 7 # z b.b.  R K M.`.Q.H.1.y.).G.m 8 b n f q .                                     ",
"                                        T I c U $.t.D.E.f.L y i.!.W.F.x./.'.w.w t ~ ! ! f .                                     ",
"                                          k.d.b.T.Z.J.E.i.L L <.<.;.s.d./.d.~ t t / n ! ! .                                     ",
"                                            _.Q.T.T.J.Q.C.*.<.;.J J J X...f l f b f A v q .                                     ",
"                                            E.n.S.n.M.W.z.J.C.;.l / I e 9 x f x n n n n a                                       ",
"                                          S.v.c.Z.x.l.J.w.C.K.;.w I ] Y n n m A A V k d 3                                       ",
"                                          d.l.m.Z.b.d.b.%.&.z.X.r m / ^ A m C C n A V d 3                                       ",
"                                            t.l.V.b.V.p.l 0 ..I r x x f f n A v f d p + .                                       ",
"                                              ^.l.:.6.P - 6 7 9 4 e s k f f f e f e p @ @                                       ",
"                                                6.6 P $ , % % 7 s l f a 4 k d d a 4 4 & <                                       ",
"                                                u.o c 7 s 0 9 x V a a s s s a d 4 4 3 q 3                                       ",
"                                                  ] % X : i  .  @.+ k F ' k k f p 3 q 2 >                                       ",
"                                                                ` 4 V F S V V a 4 < p & u                                       ",
"                                                                  a k ' ! V f d a & j 3 O                                       ",
"                                                                  u V _ F k v d 4 > d > @                                       ",
"                                                                  u V j V V d q 4 q a + .                                       ",
"                                                                  u V v F V v d 4 & 4 g > @                                     ",
"                                                                  g s h Y F v f q q q a 4 .                                     ",
"                                                                    > > k k Z v a e a d k .                                     ",
"                                                                    4 a > n ! j k j i 4 2 @                                     ",
"                                                                    2 4 1 a v v k j s 3 > >                                     ",
"                                                                    2 s 2 > d v B B V 3 : 9                                     ",
"                                                                    2 g = @ d B B Z N i 3 i                                     ",
"                                                                    2 2 @ 3 k B k V 9 4 s                                       ",
"                                                                    2 > 2 j v V k V > 2 N                                       ",
"                                                                    2 g k B V V B V 9 : h     i u                               ",
"                                                                    2 M S V V B k M V % 3 i i 3 . 2                             ",
"                                                                    ; k S ^ Z B j k h i k i 3 i i 3 P                           ",
"                                                                    u g ` F Z k M k s V N i i i i i i V                         ",
"                                                                    D p S f k V j B k F M i i 9 % 3 h i O.                      ",
"                                                                    #.2 V V g j V V F a k a       i . . k                       ",
"                                                                        = @ a s f N 4 2 2                                       ",
"                                                                        = < 9 a k V N                                           ",
"                                                                       .> q k k a 9                                             ",
"                                                                        f V V k h 4 V                                           ",
"                                                                         .O F V f q >                                           ",
"                                                                         .u F S k g 3 V                                         ",
"                                                                          u g { V > < a                                         ",
"                                                                          S 4 j S Z @ V                                         ",
"                                                                          #.p M ' S h 4 9                                       ",
"                                                                            k k F ! k > a                                       ",
"                                                                              g S S k u 2                                       ",
"                                                                                S B F > i                                       ",
"                                                                                M u u 2 u                                       ",
"                                                                                u O O . :                                       ",
"                                                                              3.g 2 2 ; . 2                                     ",
"                                                                            > ; j g u O O 4                                     ",
"                                                                            S h M D _ _ { h                                     ",
"                                                                                                                                ",
"                                                                                                                                ",
"                                                                                                                                "
};
