/* XPM */
static char *result[] = {
/* columns rows colors chars-per-pixel */
"50 64 190 2 ",
"   c #020202",
".  c #0B0500",
"X  c #0D0A01",
"o  c #070709",
"O  c #0C0C0B",
"+  c #090408",
"@  c #1C0500",
"#  c #110A08",
"$  c #0E130D",
"%  c #13120E",
"&  c #19130E",
"*  c #181A0D",
"=  c #0E0E10",
"-  c #0A1112",
";  c #0E1618",
":  c #141414",
">  c #191613",
",  c #1D1A15",
"<  c #161618",
"1  c #191719",
"2  c #1C1C1C",
"3  c #171D1D",
"4  c #220C02",
"5  c #280200",
"6  c #251C0E",
"7  c #2D1704",
"8  c #361707",
"9  c #211C14",
"0  c #231D19",
"q  c #2D1E1B",
"w  c #1D221A",
"e  c #17201F",
"r  c #35200B",
"t  c #21221E",
"y  c #222919",
"u  c #34241B",
"i  c #3E231A",
"p  c #1E1E20",
"a  c #231F23",
"s  c #1D2124",
"d  c #232323",
"f  c #282527",
"g  c #252A26",
"h  c #2B2A25",
"j  c #272729",
"k  c #2B2B2B",
"l  c #2A282A",
"z  c #332C23",
"x  c #3B2820",
"c  c #2E302D",
"v  c #3D3022",
"b  c #34332F",
"n  c #38332C",
"m  c #2E2E30",
"M  c #2D3232",
"N  c #2F3938",
"B  c #343433",
"V  c #3A3634",
"C  c #363834",
"Z  c #393A35",
"A  c #39363A",
"S  c #363C3C",
"D  c #3C3C3C",
"F  c #363638",
"G  c #4C220C",
"H  c #422415",
"J  c #4B2C17",
"K  c #49301C",
"L  c #472E22",
"P  c #443526",
"I  c #4B352A",
"U  c #4E3C2B",
"Y  c #493529",
"T  c #533C2C",
"R  c #593F26",
"E  c #4B3B31",
"W  c #423D3C",
"Q  c #5F3F30",
"!  c #533D30",
"~  c #603F2C",
"^  c #3E423F",
"/  c #52412F",
"(  c #41423E",
")  c #5A493C",
"_  c #56443B",
"`  c #634B2B",
"'  c #664729",
"]  c #704429",
"[  c #6A502F",
"{  c #664A3E",
"}  c #664633",
"|  c #65533F",
" . c #76523B",
".. c #785338",
"X. c #3E3F42",
"o. c #413F40",
"O. c #3C4344",
"+. c #444444",
"@. c #434A4B",
"#. c #4B4A4C",
"$. c #5A4D44",
"%. c #4D4D50",
"&. c #515151",
"*. c #585A59",
"=. c #6C4F41",
"-. c #685848",
";. c #665946",
":. c #765A47",
">. c #65604D",
",. c #6F6259",
"<. c #766456",
"1. c #626760",
"2. c #7A7967",
"3. c #825C45",
"4. c #896745",
"5. c #977246",
"6. c #886E58",
"7. c #86745E",
"8. c #977658",
"9. c #B4764D",
"0. c #A67855",
"q. c #B27E59",
"w. c #826B61",
"e. c #967B66",
"r. c #977767",
"t. c #A17E64",
"y. c #7D8172",
"u. c #9B816B",
"i. c #968760",
"p. c #898A7A",
"a. c #948274",
"s. c #9E937F",
"d. c #AA8B64",
"f. c #AC856D",
"g. c #AB8567",
"h. c #BA8769",
"j. c #B18F73",
"k. c #BE967D",
"l. c #C08155",
"z. c #C08A66",
"x. c #CC936B",
"c. c #C5996C",
"v. c #D8996E",
"b. c #C69774",
"n. c #D79D77",
"m. c #D2A87E",
"M. c #999282",
"N. c #A48E83",
"B. c #AC9A82",
"V. c #A99481",
"C. c #BE9E83",
"Z. c #B79688",
"A. c #B49F94",
"S. c #A3A18C",
"D. c #BBA083",
"F. c #A1A493",
"G. c #BFAB93",
"H. c #ADB3A7",
"J. c #BDBFA7",
"K. c #CA9C83",
"L. c #D09E85",
"P. c #CCA181",
"I. c #CBA28B",
"U. c #C7A38B",
"Y. c #D8A985",
"T. c #D4B187",
"R. c #C3A393",
"E. c #C5A799",
"W. c #D5AE98",
"Q. c #D2B59D",
"!. c #DDB997",
"~. c #E3B48B",
"^. c #E4B99B",
"/. c #E4B498",
"(. c #CEB5A1",
"). c #DDBAA4",
"_. c #DAB7A7",
"`. c #E3BFAC",
"'. c #ECBEA9",
"]. c #D1C3A9",
"[. c #D9D1BC",
"{. c #E4C5A7",
"}. c #F7C4A4",
"|. c #EECBB7",
" X c #FFD6B3",
".X c #ECCFC1",
"XX c #F9DCC7",
"oX c #FFE0CF",
"OX c #FFFADB",
"+X c None",
/* pixels */
"+X+X+X+X+X+X+X+X+X+X+X+X+X+X+X+X+X+X+X+X+X+X+X+X+X+X+X+X+X+X+X+X+X+X+X+X+X+X+X+X+X+X+X+X+X+X+X+X+X+X",
"+X+X+X+X+X+X+X+X+X+X+X+X+X+X+X+X+X+X+X+X+X+X+X+X+X+X+X+X+X+X+X+X+X+X+X+X+X+X+X+X+X+X+X+X+X+X+X+X+X+X",
"+X+X+X+X+X+X+X+X+X+X+X+X+X+X+X+X+X+X+X+X+X+X+X+X+X+X+X+X+X+X+X+X+X+X+X+X+X+X+X+X+X+X+X+X+X+X+X+X+X+X",
"+X+X+X+X+X+X+X+X+X+X+X+X+X+X+X+X+X+X+X+X+X+X+X+X+X_ $.+X+X+X+X+X+X+X+X+X+X+X+X+X+X+X+X+X+X+X+X+X+X+X",
"+X+X+X+X+X+X+X+X+X+X+X+X+X+X+X+X+X+X+X+X+X+X+X+Xz E Y ! I i Q +X+X+X+X+X+X+X+X+X+X+X+X+X+X+X+X+X+X+X",
"+X+X+X+X+X+X+X+X+X+X+X+X+X+X+X+X+X+X+X+X+X+X+X+Xu U =.=.=.Q H L +X+X+X+X+X+X+X+X+X+X+X+X+X+X+X+X+X+X",
"+X+X+X+X+X+X+X+X+X+X+X+X+X+X+X+X+X+X+X+X+X+X+X+XN.A.E.E.`.f.Q J 4 +X+X+X+X+X+X+X+X+X+X+X+X+X+X+X+X+X",
"+X+X+X+X+X+X+X+X+X+X+X+X+X+X+X+X+X+X+X+X+X+X+X+XA.|.XX'._.f.J } # +X+X+X+X+X+X+X+X+X+X+X+X+X+X+X+X+X",
"+X+X+X+X+X+X+X+X+X+X+X+X+X+X+X+X+X+X+X+X+X+X+X+XE.XXr...P.i.] / 7 +X+X+X+X+X+X+X+X+X+X+X+X+X+X+X+X+X",
"+X+X+X+X+X+X+X+X+X+X+X+X+X+X+X+X+X+X+X+X+X+X+XE ! k.8 :...4.' ` =.+X+X+X+X+X+X+X+X+X+X+X+X+X+X+X+X+X",
"+X+X+X+X+X+X+X+X+X+X+X+X+X+X+X+X+X+X+X+X+X+X+Xx 8 } 5 5 8 d.' ` 7.) +X+X+X+X+X+X+X+X+X+X+X+X+X+X+X+X",
"+X+X+X+X+X+X+X+X+X+X+X+X+X+X+X+X+X+X+X+X+X+X+X+X=._.G ] m./.d.8.:.a.+X+X+X+X+X+X+X+X+X+X+X+X+X+X+X+X",
"+X+X+X+X+X+X+X+X+X+X+X+X+X+X+X+X+X+X+X+X+X+X+X+Xr.W./.'. Xm.T.d.6./ +Xy +X+X+X+X+X+X+X+X+X+X+X+X+X+X",
"+X  $ . o O % O : .   o +XO O O $ 2 d , +X+X+X+XZ.I.L.q.c.~.m.4.Q.P 6 9 w O +X+X+X+X+X+X+X+X+X+X+X+X",
"+X  $                 $ d 1 o   . d D # +X+X+X+Xr.'.b.h.}.~.c.d.XX/ / h - $     +X+X+X+X+X+X+X+X+X+X",
"+X  o             o O     : 0 # & X   9 +X+X+X5 Q '.L.'.Y.c.5.{.G.v z n D C 3   +X+X+X+X+X+X+X+X+X+X",
"+X+X+X+X+X+X+X+X+X+X+X+X+X> # & . . v G.<.+XI @ :.|.`.W.j.[ i.OX>.u , h V C C o   +X+X+X+X+X+X+X+X+X",
"+X+X+X+X+X+X+X+X+X+X+X+X+X+Xq E M.V.Q.E._.E.H 7 K (.U.e.s.].OXJ.^ h b ( D n b O o +X+X+X+X+X+X+X+X+X",
"+X+X+X+X+X+X+X+X+X+X+X+X+X+X+Xe.{.!.^.K.I.].r.8 / -.P ) ;.s.F.w y g c b b V B O +X+X+X+X+X+X+X+X+X+X",
"+X+X+X+X+X+X+X+X+X+X+X+X+X+X+X(.g.x.Y./.^.g.u.7.M.6 z u q t w w C h t h n ^ b O +X+X+X+X+X+X+X+X+X+X",
"+X+X+X+X+X+X+X+X+X+X+X+X+X+X+Xk.x.l.9.9.P.K.B.[.2.* C b %.+.D o.Z b b Z Z V 2   +X+X+X+X+X+X+X+X+X+X",
"+X+X+X+X+X+X+X+X+X+X+X+X+X+Xe.k.n.v.x.q.h.D.>.S.y.w c C F B D k C b V V k d O   +X+X+X+X+X+X+X+X+X+X",
"+X+X+X+X+X+X+X+X+X+X+X+X+X+X6. .0.h.g.0.C.R X p.H.$ ( V A D W W V C b b d t .   +X+X+X+X+X+X+X+X+X+X",
"+X+X+X+X+X+X+X+X+X+X+X+X+X+X+Xr.8.g.U._.V.v X w 1.w b B a h V V b C C C g 2     +X+X+X+X+X+X+X+X+X+X",
"+X+X+X+X+X+X+X+X+X+X+X+X+X+X+X+X+X:.r <.,.9 0 0 = f < : , 0 t 9 0 d d 0 2 O O +X+X+X+X+X+X+X+X+X+X+X",
"+X+X+X+X+X+X+X+X+X+X+X+X+X+X+X+X+X+X. n > > k k a a d 0 % 2 & % : > , 2 2 O : +X+X+X+X+X+X+X+X+X+X+X",
"+X+X+X+X+X+X+X+X+X+X+X+X+X+X+X+X+X+X> W % : f : A j @.d S F B D 2 > > 1 d 1 < +X+X+X+X+X+X+X+X+X+X+X",
"+X+X+X+X+X+X+X+X+X+X+X+X+X+X+X+X+X+X0 O p 1 +   +X+Xs ; O.O.#.X.a d f a d : O +X+X+X+X+X+X+X+X+X+X+X",
"+X+X+X+X+X+X+X+X+X+X+X+X+X+X+X+X+X+X+X< M m l +X+X+XM ; X.O.O.X.f 2 1 1 k d < +X+X+X+X+X+X+X+X+X+X+X",
"+X+X+X+X+X+X+X+X+X+X+X+X+X+X+X+X+X+X+X+X+X+X+X+X+X+XB e N O.#.A k f f p d $ O +X+X+X+X+X+X+X+X+X+X+X",
"+X+X+X+X+X+X+X+X+X+X+X+X+X+X+X+X+X+X+X+X+X+X+X+X+X+X- g M *.+.V a 1 : : d < O < +X+X+X+X+X+X+X+X+X+X",
"+X+X+X+X+X+X+X+X+X+X+X+X+X+X+X+X+X+X+X+X+X+X+X+X+X+X  g ^ S ( W k a d d k , o O +X+X+X+X+X+X+X+X+X+X",
"+X+X+X+X+X+X+X+X+X+X+X+X+X+X+X+X+X+X+X+X+X+X+X+X+X+X+.M l b #.A o.l 2 s d t t O +X+X+X+X+X+X+X+X+X+X",
"+X+X+X+X+X+X+X+X+X+X+X+X+X+X+X+X+X+X+X+X+X+X+X+X+X+XD k d d D o.+.B d 2 2 1 2 : +X+X+X+X+X+X+X+X+X+X",
"+X+X+X+X+X+X+X+X+X+X+X+X+X+X+X+X+X+X+X+X+X+X+X+X+X+X< C O s D A o.D A f d d j o +X+X+X+X+X+X+X+X+X+X",
"+X+X+X+X+X+X+X+X+X+X+X+X+X+X+X+X+X+X+X+X+X+X+X+X+X+Xo k < l C B X.+.o.d 1 d k O +X+X+X+X+X+X+X+X+X+X",
"+X+X+X+X+X+X+X+X+X+X+X+X+X+X+X+X+X+X+X+X+X+X+X+X+X+Xo < k d d B A ( +.D k , : o +X+X+X+X+X+X+X+X+X+X",
"+X+X+X+X+X+X+X+X+X+X+X+X+X+X+X+X+X+X+X+X+X+X+X+X+X+XD = C d   O < 2 2 2 l 2 2 1 +X+X+X+X+X+X+X+X+X+X",
"+X+X+X+X+X+X+X+X+X+X+X+X+X+X+X+X+X+X+X+X+X+X+X+X+X+X#.O < 1 O O , l d d A B g : +X+X+X+X+X+X+X+X+X+X",
"+X+X+X+X+X+X+X+X+X+X+X+X+X+X+X+X+X+X+X+X+X+X+X+X+X+X#.O d d 2 < g C B k O.B k k +X+X+X+X+X+X+X+X+X+X",
"+X+X+X+X+X+X+X+X+X+X+X+X+X+X+X+X+X+X+X+X+X+X+X+X+X+X#.= j d $ k B k k g 1 d : d +X+X+X+X+X+X+X+X+X+X",
"+X+X+X+X+X+X+X+X+X+X+X+X+X+X+X+X+X+X+X+X+X+X+X+X+X+X+.  d O d A X.A B B d d : +X+X+X1 +X+X+X+X+X+X+X",
"+X+X+X+X+X+X+X+X+X+X+X+X+X+X+X+X+X+X+X+X+X+X+X+X+X+X+X  2 2 k +.A C B m w f < d < g o : +X+X+X+X+X+X",
"+X+X+X+X+X+X+X+X+X+X+X+X+X+X+X+X+X+X+X+X+X+X+X+X+X+X+X< O F X.d B k k d : 2 1 p O : b o k +X+X+X+X+X",
"+X+X+X+X+X+X+X+X+X+X+X+X+X+X+X+X+X+X+X+X+X+X+X+X+X+X+XB M A C B C m j 2 < k k k ,   ^ #.1 O +X+X+X+X",
"+X+X+X+X+X+X+X+X+X+X+X+X+X+X+X+X+X+X+X+X+X+X+X+X+X+X+X= B D m C k d d 2 d C D C d O 1 +.&.O : +X+X+X",
"+X+X+X+X+X+X+X+X+X+X+X+X+X+X+X+X+X+X+X+X+X+X+X+X+X+X< < k m l k f < : d k B B k s k k : d l   : +X+X",
"+X+X+X+X+X+X+X+X+X+X+X+X+X+X+X+X+X+X+X+X+X+X+X+X+X+X  < 0 2 2 1 d O % k D +.A k   d +X+Xo o     +X+X",
"+X+X+X+X+X+X+X+X+X+X+X+X+X+X+X+X+X+X+X+X+X+X+X+X+X< : d d s 2 d k d B A C 2 2 o O +X+X+X+X+X+X+X+X+X",
"+X+X+X+X+X+X+X+X+X+X+X+X+X+X+X+X+X+X+X+X+X+X+X+X+XO 2 d 1 d 2 <   : O O : O   +X+X+X+X+X+X+X+X+X+X+X",
"+X+X+X+X+X+X+X+X+X+X+X+X+X+X+X+X+X+X+X+X+X+X+X+X< 1 k k k d < 2 1 +X+X+X+X+X+X+X+X+X+X+X+X+X+X+X+X+X",
"+X+X+X+X+X+X+X+X+X+X+X+X+X+X+X+X+X+X+X+X+X+X+X+X2 O ( #.+.m < = +X+X+X+X+X+X+X+X+X+X+X+X+X+X+X+X+X+X",
"+X+X+X+X+X+X+X+X+X+X+X+X+X+X+X+X+X+X+X+X+X+X+X+X1 2 b B A s   +X+X+X+X+X+X+X+X+X+X+X+X+X+X+X+X+X+X+X",
"+X+X+X+X+X+X+X+X+X+X+X+X+X+X+X+X+X+X+X+X+X+X+X+Xw k A +.C d < +X+X+X+X+X+X+X+X+X+X+X+X+X+X+X+X+X+X+X",
"+X+X+X+X+X+X+X+X+X+X+X+X+X+X+X+X+X+X+X+X+X+X+X+X< +.C k l $ O +X+X+X+X+X+X+X+X+X+X+X+X+X+X+X+X+X+X+X",
"+X+X+X+X+X+X+X+X+X+X+X+X+X+X+X+X+X+X+X+X+X+X+X+Xo +.A D k o o +X+X+X+X+X+X+X+X+X+X+X+X+X+X+X+X+X+X+X",
"+X+X+X+X+X+X+X+X+X+X+X+X+X+X+X+X+X+X+X+X+X+X+Xj l &.D A k   +X+X+X+X+X+X+X+X+X+X+X+X+X+X+X+X+X+X+X+X",
"+X+X+X+X+X+X+X+X+X+X+X+X+X+X+X+X+X+X+X+X+X+X+Xp d +.@.k B   +X+X+X+X+X+X+X+X+X+X+X+X+X+X+X+X+X+X+X+X",
"+X+X+X+X+X+X+X+X+X+X+X+X+X+X+X+X+X+X+X+X+X+X+Xj   C k k 2   +X+X+X+X+X+X+X+X+X+X+X+X+X+X+X+X+X+X+X+X",
"+X+X+X+X+X+X+X+X+X+X+X+X+X+X+X+X+X+X+X+X= p k 2 : o   O 2 +X+X+X+X+X+X+X+X+X+X+X+X+X+X+X+X+X+X+X+X+X",
"+X+X+X+X+X+X+X+X+X+X+X+X+X+X+X+X+X+X+X+X= ; k X.k p j o +X+X+X+X+X+X+X+X+X+X+X+X+X+X+X+X+X+X+X+X+X+X",
"+X+X+X+X+X+X+X+X+X+X+X+X+X+X+X+X+X+X+X+X+X<     j 2 <   +X+X+X+X+X+X+X+X+X+X+X+X+X+X+X+X+X+X+X+X+X+X",
"+X+X+X+X+X+X+X+X+X+X+X+X+X+X+X+X+X+X+X+X+X+X+X2 < o = O +X+X+X+X+X+X+X+X+X+X+X+X+X+X+X+X+X+X+X+X+X+X",
"+X+X+X+X+X+X+X+X+X+X+X+X+X+X+X+X+X+X+X+X+X+X+X+X+X1 o   +X+X+X+X+X+X+X+X+X+X+X+X+X+X+X+X+X+X+X+X+X+X"
};
