/* XPM */
static char *_b4d30175c004c66df3723c6ad9b50a9lhMpcF3zOHQvPGNW[] = {
/* columns rows colors chars-per-pixel */
"64 64 196 2 ",
"   c None",
".  c #020202",
"X  c #0A0502",
"o  c #060905",
"O  c #0B0A05",
"+  c #050509",
"@  c #08050D",
"#  c #070908",
"$  c #0B0C0B",
"%  c #1B0D01",
"&  c #110D0C",
"*  c #0E100D",
"=  c #12110F",
"-  c #1C190D",
";  c #0D0F12",
":  c #120D14",
">  c #0E1215",
",  c gray8",
"<  c #1A1515",
"1  c #151A12",
"2  c #1A1B17",
"3  c #151419",
"4  c #141819",
"5  c gray11",
"6  c #290F07",
"7  c #3A0300",
"8  c #2A1302",
"9  c #2F1F0E",
"0  c #301301",
"q  c #231113",
"w  c #211D1D",
"e  c #291E1E",
"r  c #3D1914",
"t  c #1C211C",
"y  c #22221E",
"u  c #282519",
"i  c #29251C",
"p  c #37291D",
"a  c #1B1521",
"s  c #1F1E22",
"d  c #211F21",
"f  c #221F2A",
"g  c #1E2221",
"h  c #232323",
"j  c #2A2524",
"k  c #262924",
"l  c #2C2A26",
"z  c #2B272A",
"x  c #262A29",
"c  c #2C2C2C",
"v  c #322526",
"b  c #372B26",
"n  c #312D2D",
"m  c #2E322E",
"M  c #3F3224",
"N  c #33312E",
"B  c #3B3A2C",
"V  c #2F3231",
"C  c #343333",
"Z  c #3A3534",
"A  c #393936",
"S  c #35343A",
"D  c #3A3738",
"F  c #373B39",
"G  c #3C3B3B",
"H  c #4B1A06",
"J  c #4D1914",
"K  c #4A1F19",
"L  c #472916",
"P  c #45351C",
"I  c #57321F",
"U  c #432C24",
"Y  c #483526",
"T  c #583C28",
"R  c #433A33",
"E  c #433D3D",
"W  c #513B30",
"Q  c #642F21",
"!  c #733937",
"~  c #3E403F",
"^  c #5C4227",
"/  c #4E4638",
"(  c #534232",
")  c #654733",
"_  c #734D36",
"`  c #6F543F",
"'  c #795434",
"]  c #413F42",
"[  c #3D4141",
"{  c #434343",
"}  c #4B4744",
"|  c #4A4946",
" . c #454948",
".. c #4D4C4C",
"X. c #554B49",
"o. c #5C4B4B",
"O. c #4E534D",
"+. c #555141",
"@. c #53514D",
"#. c #514B55",
"$. c #485150",
"%. c #565552",
"&. c #595955",
"*. c #5F5E5B",
"=. c #69584B",
"-. c #755848",
";. c #675B51",
":. c #615D5A",
">. c #6C5B5A",
",. c #6E6053",
"<. c #7A685E",
"1. c #676A65",
"2. c #7F6E64",
"3. c #6A7164",
"4. c #717260",
"5. c #6F6973",
"6. c #757772",
"7. c #855747",
"8. c #935C47",
"9. c #925E50",
"0. c #896042",
"q. c #926547",
"w. c #9A615E",
"e. c #98725A",
"r. c #A37554",
"t. c #AB7A5E",
"y. c #986B61",
"u. c #897469",
"i. c #967767",
"p. c #8A7476",
"a. c #AC7D6B",
"s. c #7D847D",
"d. c #8D827C",
"f. c #978776",
"g. c #A88369",
"h. c #BA8565",
"j. c #B48669",
"k. c #B58A6B",
"l. c #BE8C6D",
"z. c #B6906B",
"x. c #A58879",
"c. c #B78B72",
"v. c #A6927A",
"b. c #B2957C",
"n. c #BE9A7A",
"m. c #C69678",
"M. c #C8987B",
"N. c #D2A57B",
"B. c #848985",
"V. c #9B8381",
"C. c #8C918B",
"Z. c #9F948D",
"A. c #959A91",
"S. c #AD8D89",
"D. c #A79688",
"F. c #B99A88",
"G. c #A7AA9C",
"H. c #B9A89C",
"J. c #B8B5AD",
"K. c #C69A87",
"L. c #C7A388",
"P. c #CCA48C",
"I. c #D9A98B",
"U. c #DAB184",
"Y. c #D8AB98",
"T. c #C4B19A",
"R. c #DBB49A",
"E. c #E2BC8F",
"W. c #E1B394",
"Q. c #E5BA9B",
"!. c #C6ACA6",
"~. c #D6A6A2",
"^. c #C8B6A9",
"/. c #D7B7AA",
"(. c #DABCAA",
"). c #CDBEB9",
"_. c #E1B6A3",
"`. c #E4B8A3",
"'. c #F0BEA5",
"]. c #E6BAB5",
"[. c #B9C3BB",
"{. c #EEC494",
"}. c #D0C2BA",
"|. c #DBC3BF",
" X c #E9C6A6",
".X c #F9CBA4",
"XX c #E7C8B5",
"oX c #F7D7BA",
"OX c #D8D5CC",
"+X c #FDCBC0",
"@X c #EBD0C6",
"#X c #F8D9C5",
"$X c #FADEC6",
"%X c #EFE3CF",
"&X c #FFEBCF",
"*X c #FDEDD9",
/* pixels */
"                                                                                                                                ",
"                                                                                                                                ",
"                                                            3./ / P T ( ( A.                                                    ",
"                                                            4.p T T 0.^ P B 3.                                                  ",
"                                                            ;.F.]./._.P.) M u &                                                 ",
"                                                            ,.^.#X+XY.(.! ( Y /                                                 ",
"                                                            u.@X~.w.w.~.y.) =.o.                                                ",
"                                                            W a.K ! w.7.7.I ) <.                                                ",
"                                                            6 K J 7 7 Q a.H T i.,.                                              ",
"                                                            -.K.9.H 8.'.I.k.-.u.Z.                                              ",
"                                                            S.K.I.W..X.X.XR.g.-.B.                                              ",
"              . . . o . . . . $                             F.m.oXI.N.{.U.z.e.v.q > s h                                         ",
"            o . . o . . o . $ o . 1 , 2 $ + . d D $         F.Q.m.r.I.N.E.q.M.XXO t o # . 2                                     ",
"            * o . o . . . o o = . $ . . , 1 5 5 j .       v.L K.Q.W. X{.z.'  Xf.p > g g t X .                                   ",
"                                    2 F , * X X o @.A.G.  U r ].].]._.y._ R.&XM - # $.V F l X &                                 ",
"                                        B X / 2.d.^.D.H.;.q K F.]./.F.u.].*Xv.M u m [ [ N u X X                                 ",
"                                          f.v. X|.F.F. XD.L q >.p.o.V.~.|.^.b v l Z Z c n w o .                                 ",
"                                          oXb.n.P.P.N.Y.x.=.o.o.d < q q U e Z n d D Z Z l h .                                   ",
"                                         .oXn.0.k.r.M.P.e.!.@XR C E v v v e N ] X.Z N C c < <                                   ",
"                                        T.L.z.U.z.I.t.`.i.H.).j Z E Z ] b E X.R | E N N n $ ;                                   ",
"                                        v.g.k.l.h.q.t.q.) T }.N 5 G A G A n Z D n A G h c # +                                   ",
"                                        T.7.t.h.m.M.l._ 0 p J.} c F S G C D n j Z n h Z h . X                                   ",
"                                        j.8.c.g.T 6 % A A > x c k m c n h t d c C z X .                                         ",
"                                          L ` 8 % % O m F o > > , , y 5 h 5 t s c 5                                             ",
"                                            9 9 % - B o o m  .1 2 h w < , $ # x s d <                                           ",
"                                              .u l u 1 o i s.t t k F ~ x c d w 2 d c 5 <                                        ",
"                                                J.1 . 1 1 t s.OX~ . k N Z F F V V c w h w 5                                     ",
"                                                                  c c 5 x G c 4 h                                               ",
"                                                                 .1 y | w G D c c z C h 5 ,                                     ",
"                                                                 .. t G { S ~ h c 5 , 2 5 . 4                                   ",
"                                                                 .. g V  .D ..h h 5 c C 5 . <                                   ",
"                                                                 .2 h x F  .~ c h 5 > < h < 2                                   ",
"                                                                 .d V 5 G ..] V x h s 5 h , .                                   ",
"                                                                  z n & D ] { G c c s 2 5 < .                                   ",
"                                                                 .2 C 5 z { G D D C h 5 s , $                                   ",
"                                                                  + d D < D D D G D c h 5 # 2                                   ",
"                                                                  5 C < 5 w x , o , < 5 h . C                                   ",
"                                                                  < h s , 5 : $ 5 5 h C g . N                                   ",
"                                                               ., , x h w < $ : h t h V 2 $ S                                   ",
"                                                              # > 2 < n 5 # ..| C { G S C O S                                   ",
"                                                            5 $ F V c G : ;   h , z ~ G V h V Z D s > . . + ; >                 ",
"                                                            2 x [ G F S h c   5 < D C  .c 5 $ $ $ < $ # $ > g z                 ",
"                                                            o [ [ G g c $ 5   h 2 C G G V d x < , 5 $ < c s 3 >                 ",
"                                                            >  .x  ..., g     x 5 c G ] c h x z ~ F V h s V g ; C               ",
"                                                          . 2  .h [ g x h     h h D G V d s c D h S * o o + C 4 [               ",
"                                                          . x  .V x c 2       5 h V z V c C G { C c h   , # V 4 m               ",
"                                                          . c [ c g 4 3         . 5 2 2 h < < $ , 2 $     o # ~ x               ",
"                                                          . g c g c # .         , $ > 5 5 h g 4             o * o               ",
"                                                          . 2 D s 5 $ .                                       t 1               ",
"                                                        . $ &...D , . .                                                         ",
"                                                        . 2 3.%.*.O + +                                                         ",
"                                                        O w | ..*.$ . .                                                         ",
"                                                        & N :.1.} & .                                                           ",
"                                                        : C } / @.. .                                                           ",
"                                                        w w E &.6.O .                                                           ",
"                                                        z Z R %.Z O .                                                           ",
"                                                        S f E Z Z . .                                                           ",
"                                                        #.: S ] j . o                                                           ",
"                                                        5.X : d d X .                                                           ",
"                                                    f a : : + 4 d .                                                             ",
"                                                  @ : z S S d z X .                                                             ",
"                                                    + a + : . h : .                                                             ",
"                                                          . . o . .                                                             ",
"                                                                                                                                "
};
