/* XPM */
static char *result[] = {
/* columns rows colors chars-per-pixel */
"32 32 141 2 ",
"   c #060407",
".  c #110F12",
"X  c #161517",
"o  c #161619",
"O  c #181719",
"+  c #1B1A1D",
"@  c #270B04",
"#  c #271310",
"$  c #2C1814",
"%  c #221E1E",
"&  c #2D211C",
"*  c #1E1D21",
"=  c #201E21",
"-  c #1E2024",
";  c #222224",
":  c #2F2721",
">  c #252629",
",  c #2A272A",
"<  c #25292D",
"1  c #2C2C2D",
"2  c #302525",
"3  c #362A24",
"4  c #3A2D27",
"5  c #332E2C",
"6  c #3C2D28",
"7  c #34322F",
"8  c #2A2D32",
"9  c #312F31",
"0  c #2E3337",
"q  c #2F3338",
"w  c #333333",
"e  c #3E3631",
"r  c #373639",
"t  c #383739",
"y  c #32383C",
"u  c #3A3A3C",
"i  c #4A2816",
"p  c #55372C",
"a  c #6C4531",
"s  c #6E4B3A",
"d  c #744D38",
"f  c #7F523B",
"g  c #3D494F",
"h  c #3A454C",
"j  c #414043",
"k  c #5E4C40",
"l  c #424D53",
"z  c #435157",
"x  c #4A585F",
"c  c #505A5D",
"v  c #6B5041",
"b  c #6B584E",
"n  c #795A48",
"m  c #745D51",
"M  c #6F6054",
"N  c #7B675B",
"B  c #7E6A5D",
"V  c #505E66",
"C  c #5A666A",
"Z  c #53646B",
"A  c #5C6F74",
"S  c #5F7175",
"D  c #5E737C",
"F  c #606F72",
"G  c #627276",
"H  c #62757D",
"J  c #6B787B",
"K  c #85573B",
"L  c #8F5F44",
"P  c #855D48",
"I  c #8C5F48",
"U  c #8B634C",
"Y  c #846553",
"T  c #8D6651",
"R  c #8E6850",
"E  c #816858",
"W  c #916951",
"Q  c #9E7257",
"!  c #806C60",
"~  c #8D7160",
"^  c #907160",
"/  c #B07E60",
"(  c #8E8078",
")  c #928174",
"_  c #B5856B",
"`  c #A58572",
"'  c #AA8672",
"]  c #AF8D77",
"[  c #BC8D70",
"{  c #AA907F",
"}  c #C9906F",
"|  c #C29173",
" . c #CA9171",
".. c #D29E7F",
"X. c #667C85",
"o. c #687F88",
"O. c #6D858D",
"+. c #70868F",
"@. c #7A97A2",
"#. c #7D9AA5",
"$. c #918880",
"%. c #9E928A",
"&. c #989B99",
"*. c #949592",
"=. c #B59D8C",
"-. c #BAA18F",
";. c #A5A29B",
":. c #B6A090",
">. c #869EA7",
",. c #809FA9",
"<. c #84A3AD",
"1. c #8BA3AB",
"2. c #90A6AD",
"3. c #9BA2A2",
"4. c #87A5B0",
"5. c #91B4BF",
"6. c #A3A9A7",
"7. c #A0B3B6",
"8. c #C69D80",
"9. c #D09D81",
"0. c #C4A08B",
"q. c #CBA68E",
"w. c #C7A994",
"e. c #CBA891",
"r. c #93B7C4",
"t. c #96BBC7",
"y. c #99BECA",
"u. c #A6BCC1",
"i. c #9BC1CE",
"p. c #9DC4D1",
"a. c #A4C6D1",
"s. c #A8C7D0",
"d. c #A7C9D4",
"f. c #ACCCD4",
"g. c #A5CEDB",
"h. c #AACED9",
"j. c #AAD2DE",
"k. c #ACD7E5",
"l. c #ADD8E6",
"z. c #AFDAE9",
"x. c #B0DDEB",
/* pixels */
"l.l.l.l.l.l.l.l.l.l.l.l.l.l.l.l.l.l.k.l.z.l.l.l.l.l.l.l.l.l.l.l.",
"l.l.l.l.l.l.l.l.l.l.l.l.l.l.l.l.l.l.l.g.a.d.g.l.l.l.l.l.l.l.l.l.",
"l.l.l.l.l.l.l.l.l.l.l.l.l.l.l.l.l.l.k.( n Y ~ &.h.l.l.l.l.l.l.l.",
"l.l.l.l.l.l.l.l.l.l.l.l.l.l.l.l.l.x.f.0.9.| I a 3.z.l.l.l.l.l.l.",
"l.l.l.l.l.l.l.l.l.l.l.l.l.l.l.l.l.l.6.Q K K P d %.j.l.l.l.l.l.l.",
"l.l.l.l.l.l.z.z.x.x.z.z.l.x.x.x.z.z.5.U K W ] Q ^ *.g.x.l.k.l.l.",
"l.l.l.l.l.<.A S G A A F F F G J 1.k.s.] 9.q.w.%.m 6 c +.p.l.l.l.",
"l.l.l.l.z.<.G H H A A G C $ @ i Y ;.M T e.e.-.=.k 2 9 + X.l.l.l.",
"l.l.l.l.k.l.z.z.z.x.z.z.z.>.! / ..| d s B B ) N 3 7 u > D z.l.l.",
"l.l.l.l.l.l.l.l.l.l.l.l.z.h.:. .} [ ` N 4 e e e 7 w w o D z.l.l.",
"l.l.l.l.l.l.l.l.l.l.l.l.l.u.` ] _ R s b 5 7 w w r 9 ; o #.z.l.l.",
"l.l.l.l.l.l.l.l.l.l.l.l.l.l.h.^ s p $ & & % - & % + O > i.z.l.l.",
"l.l.l.l.l.l.l.l.l.l.l.l.l.l.z.2.4 # : C 0 1 0 5 & + + 8 i.z.l.l.",
"l.l.l.l.l.l.l.l.l.l.l.l.l.l.l.k.i.H #.l.Z & h w - * - - i.z.l.l.",
"l.l.l.l.l.l.l.l.l.l.l.l.l.l.k.l.l.z.z.j.V > t t ; + + * <.z.l.l.",
"l.l.l.l.l.l.l.l.l.l.l.l.l.l.l.l.l.l.l.l.H > 1 u w ; & X D z.l.l.",
"l.l.l.l.l.l.l.l.l.l.l.l.l.l.l.l.l.l.l.j.x . ; w w 1 1 X D x.z.k.",
"l.l.l.l.l.l.l.l.l.l.l.l.l.l.l.l.l.l.l.z.#.; * + > w 1 . H z.l.l.",
"l.l.l.l.l.l.l.l.l.l.k.l.l.l.l.l.l.l.l.l.i.8 ; + 9 1 ; , 4.x.z.k.",
"l.l.l.l.l.l.l.l.l.l.l.l.l.l.l.l.l.l.l.l.i.0 , w u 0 ; 1 D H #.l.",
"l.k.l.l.l.k.l.l.l.l.l.l.l.l.l.l.l.l.l.z.i.< , u 7 > ; ; X X y 5.",
"l.l.l.l.l.l.l.l.l.l.l.l.l.l.l.l.l.l.l.l.i.< , 1 ; + 1 1 - y - < ",
"l.l.l.l.l.l.l.l.l.l.l.l.l.l.l.l.l.l.l.l.i.< + > O 0 l l #.i.O.z ",
"l.l.l.l.l.l.l.l.l.l.l.l.l.l.l.l.l.l.l.z.#.* * X g i.g.j.z.z.z.j.",
"l.l.l.l.l.l.l.l.l.l.l.l.l.l.l.l.l.l.l.l.A + 8 + O.l.l.l.l.l.l.l.",
"l.l.l.l.l.l.l.l.l.l.l.l.l.l.l.l.l.l.z.p.y 0 r - r.l.l.l.l.l.l.l.",
"l.l.l.l.l.l.l.l.l.l.l.l.l.l.l.l.l.l.l.i.q u 1 - i.l.l.l.l.l.l.l.",
"l.l.l.l.l.k.l.l.l.l.l.l.l.l.k.l.l.l.x.t.8 u + h g.l.l.l.l.l.l.l.",
"l.l.l.l.l.l.l.l.l.l.l.l.l.l.l.l.l.z.<.l - - - #.l.k.l.l.l.l.l.l.",
"l.l.l.l.l.l.l.l.l.l.l.l.l.l.l.l.l.l.@.< +   S l.l.l.l.l.l.l.l.l.",
"l.l.l.l.l.l.l.l.l.l.l.l.l.l.l.l.l.l.l.p.@.D p.l.l.l.l.l.l.l.l.l.",
"l.l.l.l.l.l.l.l.l.l.l.l.l.l.l.l.l.k.l.z.z.z.l.l.l.l.l.l.k.l.l.l."
};
