/* XPM */
static char *result[] = {
/* columns rows colors chars-per-pixel */
"53 64 209 2 ",
"   c #020202",
".  c #0A0502",
"X  c #060905",
"o  c #0B0A05",
"O  c #050509",
"+  c #070908",
"@  c #0B0C0B",
"#  c #08050D",
"$  c #1B0D01",
"%  c #110D0C",
"&  c #100700",
"*  c #0E100D",
"=  c #12110F",
"-  c #1C190D",
";  c #1C1309",
":  c #0D0F12",
">  c #120D14",
",  c #0E1215",
"<  c #141414",
"1  c #1A1515",
"2  c #151A12",
"3  c #1A1B17",
"4  c #151419",
"5  c #1C1C1C",
"6  c #141819",
"7  c #290F07",
"8  c #3A0300",
"9  c #2F1F0E",
"0  c #2A1302",
"q  c #301301",
"w  c #231113",
"e  c #211D1D",
"r  c #291E1E",
"t  c #2D1610",
"y  c #3D1914",
"u  c #331F14",
"i  c #1C211C",
"p  c #22221E",
"a  c #29251C",
"s  c #282519",
"d  c #37291D",
"f  c #1F1E22",
"g  c #1B1521",
"h  c #211F21",
"j  c #221F2A",
"k  c #1E2221",
"l  c #232323",
"z  c #2A2524",
"x  c #262924",
"c  c #2C2A26",
"v  c #2B272A",
"b  c #262A29",
"n  c #2C2C2C",
"m  c #322526",
"M  c #312D2D",
"N  c #372B26",
"B  c #2E322E",
"V  c #33312E",
"C  c #3B3A2C",
"Z  c #3F3224",
"A  c #2F3231",
"S  c #343333",
"D  c #3A3534",
"F  c #393936",
"G  c #35343A",
"H  c #3A3738",
"J  c #373B39",
"K  c #3C3B3B",
"L  c #4B1A06",
"P  c #4D1914",
"I  c #4A1F19",
"U  c #472916",
"Y  c #57321F",
"T  c #45351C",
"R  c #483526",
"E  c #583C28",
"W  c #433D3D",
"Q  c #433A33",
"!  c #513B30",
"~  c #432C24",
"^  c #642F21",
"/  c #733937",
"(  c #3E403F",
")  c #4E4638",
"_  c #534232",
"`  c #5C4227",
"'  c #654733",
"]  c #6F543F",
"[  c #795434",
"{  c #734D36",
"}  c #413F42",
"|  c #3D4141",
" . c #434343",
".. c #4B4744",
"X. c #4A4946",
"o. c #454948",
"O. c #4D4C4C",
"+. c #474947",
"@. c #5C4B4B",
"#. c #554B49",
"$. c #4E534D",
"%. c #555141",
"&. c #53514D",
"*. c #485150",
"=. c #595955",
"-. c #5F5E5B",
";. c #565552",
":. c #514B55",
">. c #69584B",
",. c #755848",
"<. c #675B51",
"1. c #6C5B5A",
"2. c #615D5A",
"3. c #6E6053",
"4. c #7A685E",
"5. c #676A65",
"6. c #7F6E64",
"7. c #6A7164",
"8. c #717260",
"9. c #6F6973",
"0. c #7B7E76",
"q. c #757772",
"w. c #855747",
"e. c #925E50",
"r. c #935C47",
"t. c #896042",
"y. c #88654F",
"u. c #926547",
"i. c #9A615E",
"p. c #98725A",
"a. c #A37554",
"s. c #AB7A5E",
"d. c #986B61",
"f. c #897469",
"g. c #967767",
"h. c #8A7476",
"j. c #AC7D6B",
"k. c #7D847D",
"l. c #8D827C",
"z. c #978776",
"x. c #A88369",
"c. c #B48669",
"v. c #B58A6B",
"b. c #BE8C6D",
"n. c #BA8565",
"m. c #B6906B",
"M. c #A58879",
"N. c #B78B72",
"B. c #A6927A",
"V. c #B2957C",
"C. c #BB9478",
"Z. c #BE9A7A",
"A. c #C69678",
"S. c #C8987B",
"D. c #D2A57B",
"F. c #848985",
"G. c #9B8381",
"H. c #8C918B",
"J. c #9F948D",
"K. c #959A91",
"L. c #A79688",
"P. c #B99A88",
"I. c #AD8D89",
"U. c #A7AA9C",
"Y. c #B9A89C",
"T. c #B8B5AD",
"R. c #C69A87",
"E. c #CCA48C",
"W. c #C7A388",
"Q. c #D9A98B",
"!. c #DAB184",
"~. c #D2A494",
"^. c #D8AB98",
"/. c #DBB49A",
"(. c #C4B19A",
"). c #E2BC8F",
"_. c #E1B394",
"`. c #E5BA9B",
"'. c #C6ACA6",
"]. c #C8B6A9",
"[. c #DABCAA",
"{. c #D7B7AA",
"}. c #CDBEB9",
"|. c #D6A6A2",
" X c #E4B8A3",
".X c #E1B6A3",
"XX c #F0BEA5",
"oX c #E6BAB5",
"OX c #B9C3BB",
"+X c #EEC494",
"@X c #CFC2BC",
"#X c #DBC3BF",
"$X c #D0C2BA",
"%X c #E9C6A6",
"&X c #F9CBA4",
"*X c #E7C8B5",
"=X c #F2C0B5",
"-X c #F7D7BA",
";X c #BDC6C1",
":X c #D8D5CC",
">X c #FDCBC0",
",X c #FADEC6",
"<X c #F8D9C5",
"1X c #EBD0C6",
"2X c #EFE3CF",
"3X c #FFEBCF",
"4X c #FDEDD9",
"5X c #FFECD7",
"6X c None",
/* pixels */
"6X6X6X6X6X6X6X6X6X6X6X6X6X6X6X6X6X6X6X6X6X6X6X6X6X6X6X6X6X#X$X6X6X6X6X6X6X6X6X6X6X6X6X6X6X6X6X6X6X6X6X6X6X",
"6X6X6X6X6X6X6X6X6X6X6X6X6X6X6X6X6X6X6X6X6X6X6X6X6X6Xh.<.I.Y.'.U.6X6X6X6X6X6X6X6X6X6X6X6X6X6X6X6X6X6X6X6X6X",
"6X6X6X6X6X6X6X6X6X6X6X6X6X6X6X6X6X6X6X6X6X6X6X6X6X7.) ) T E _ _ K.6X6X6X6X6X6X6X6X6X6X6X6X6X6X6X6X6X6X6X6X",
"6X6X6X6X6X6X6X6X6X6X6X6X6X6X6X6X6X6X6X6X6X6X6X6X6X8.d E E t.` T C 7.6X6X6X6X6X6X6X6X6X6X6X6X6X6X6X6X6X6X6X",
"6X6X6X6X6X6X6X6X6X6X6X6X6X6X6X6X6X6X6X6X6X6X6X6X6X<.P.oX{..XE.' Z s =.6X6X6X6X6X6X6X6X6X6X6X6X6X6X6X6X6X6X",
"6X6X6X6X6X6X6X6X6X6X6X6X6X6X6X6X6X6X6X6X6X6X6X6X6X3.].<X>X^.[./ _ R ) 6X6X6X6X6X6X6X6X6X6X6X6X6X6X6X6X6X6X",
"6X6X6X6X6X6X6X6X6X6X6X6X6X6X6X6X6X6X6X6X6X6X6X6X6Xf.1X|.i.i.|.d.' >.@.6X6X6X6X6X6X6X6X6X6X6X6X6X6X6X6X6X6X",
"6X6X6X6X6X6X6X6X6X6X6X6X6X6X6X6X6X6X6X6X6X6X6X6X6X! j.I / i.w.w.Y ' 4.6X6X6X6X6X6X6X6X6X6X6X6X6X6X6X6X6X6X",
"6X6X6X6X6X6X6X6X6X6X6X6X6X6X6X6X6X6X6X6X6X6X6X6X6X7 I P 8 8 ^ j.L E g.3.6X6X6X6X6X6X6X6X6X6X6X6X6X6X6X6X6X",
"6X6X6X6X6X6X6X6X6X6X6X6X6X6X6X6X6X6X6X6X6X6X6X6X6X,.R.e.L r.XXQ.v.,.f.J.6X6X6X6X6X6X6X6X6X6X6X6X6X6X6X6X6X",
"6X6X6X6X6X6X6X6X6X6X6X6X6X6X6X6X6X6X6X6X6X6X6X6X6XI.R.Q._.&X&X&X/.x.,.F.6X6X6X6X6X6X6X6X6X6X6X6X6X6X6X6X6X",
"6X6X      X         @ 6X6X6X6X6X6X6X6X6X6X6X6X6X6XP.A.-XQ.D.+X!.m.p.B.w , f l 6X6X6X6X6X6X6X6X6X6X6X6X6X6X",
"6XX     X     X   @ X   2 < 3 @ O   h H @ 6X6X6X6XP.`.A.a.Q.D.).u.S.*Xo i X +   3 6X6X6X6X6X6X6X6X6X6X6X6X",
"6X* X   X       X X =   @     < 2 5 5 z   6X6X6XB.U R.`._.%X+Xm.[ %Xz.d , k k i .   6X6X6X6X6X6X6X6X6X6X6X",
"6X6X6X6X6X6X6X6X6X6X6X6X6X3 J < * . . X &.K.U.6X~ y oXoXoX.Xd.{ /.3XZ - + *.A J c . % 6X6X6X6X6X6X6X6X6X6X",
"6X6X6X6X6X6X6X6X6X6X6X6X6X6X6XC . ) 6.l.].L.Y.<.w I P.oX{.P.f.oX4XB.Z s B | | V s . . 6X6X6X6X6X6X6X6X6X6X",
"6X6X6X6X6X6X6X6X6X6X6X6X6X6X6X6Xz.B.%X#XP.P.%XL.U w 1.h.@.G.|.#X].N m c D D n M e X   6X6X6X6X6X6X6X6X6X6X",
"6X6X6X6X6X6X6X6X6X6X6X6X6X6X6X6X-XV.Z.E.E.D.^.M.>.@.@.h 1 w w ~ r D M h H D D c l   6X6X6X6X6X6X6X6X6X6X6X",
"6X6X6X6X6X6X6X6X6X6X6X6X6X6X6X$X-XZ.t.v.a.S.E.p.'.1XQ S W m m m r V } #.D V S n 1 1 6X6X6X6X6X6X6X6X6X6X6X",
"6X6X6X6X6X6X6X6X6X6X6X6X6X6X6X(.W.m.!.m.Q.s. Xg.Y.}.z D W D } N W #.Q X.W V V M @ : 6X6X6X6X6X6X6X6X6X6X6X",
"6X6X6X6X6X6X6X6X6X6X6X6X6X6X6XB.x.v.b.n.u.s.u.' E $XV 5 K F K F M D H M F K l n + O 6X6X6X6X6X6X6X6X6X6X6X",
"6X6X6X6X6X6X6X6X6X6X6X6X6X6X6X(.w.s.n.A.S.b.{ q d T...n J G K S H M z D M l D l   . 6X6X6X6X6X6X6X6X6X6X6X",
"6X6X6X6X6X6X6X6X6X6X6X6X6X6X6X1X-X/.c.r.N.x.E 7 $ F F , b n x B n M l i h n S v .   6X6X6X6X6X6X6X6X6X6X6X",
"6X6X6X6X6X6X6X6X6X6X6X6X6X6X6X6X3X2X,X0 U ] 0 $ $ o B J X , , < < p 5 l 5 i f n 5 6X6X6X6X6X6X6X6X6X6X6X6X",
"6X6X6X6X6X6X6X6X6X6X6X6X6X6X6X6X6X2X4X$ 9 9 $ - C X X B o.2 3 l e 1 < @ + b f h 1 6X6X6X6X6X6X6X6X6X6X6X6X",
"6X6X6X6X6X6X6X6X6X6X6X6X6X6X6X6X6X6X:X%.s c s 2 X a k.i i x J ( b n h e 3 h n 5 1 6X6X6X6X6X6X6X6X6X6X6X6X",
"6X6X6X6X6X6X6X6X6X6X6X6X6X6X6X6X6X6X6XT.2   2 2 i k.:X(   x V D J J A A n e l e 5 6X6X6X6X6X6X6X6X6X6X6X6X",
"6X6X6X6X6X6X6X6X6X6X6X6X6X6X6X6X6X6X6X6XOX5.5.q.OX6X6Xk.o x V O.D n n 5 b K n 6 l 6X6X6X6X6X6X6X6X6X6X6X6X",
"6X6X6X6X6X6X6X6X6X6X6X6X6X6X6X6X6X6X6X6X6X6X6X6X6X6X6XH.2 p X.e K H n n v S l 5 < 6X6X6X6X6X6X6X6X6X6X6X6X",
"6X6X6X6X6X6X6X6X6X6X6X6X6X6X6X6X6X6X6X6X6X6X6X6X6X6X6X$.  i K  .G ( l n 5 < 3 5   6 6X6X6X6X6X6X6X6X6X6X6X",
"6X6X6X6X6X6X6X6X6X6X6X6X6X6X6X6X6X6X6X6X6X6X6X6X6X6X6Xo.  k A o.H O.l l 5 n S 5   1 6X6X6X6X6X6X6X6X6X6X6X",
"6X6X6X6X6X6X6X6X6X6X6X6X6X6X6X6X6X6X6X6X6X6X6X6X6X6X6XK.3 l b J o.( n l 5 , 1 l 1 3 6X6X6X6X6X6X6X6X6X6X6X",
"6X6X6X6X6X6X6X6X6X6X6X6X6X6X6X6X6X6X6X6X6X6X6X6X6X6X6XF.h A 5 K O.} A b l f 5 l <   6X6X6X6X6X6X6X6X6X6X6X",
"6X6X6X6X6X6X6X6X6X6X6X6X6X6X6X6X6X6X6X6X6X6X6X6X6X6X6X .v M % H }  .K n n f 3 5 1   6X6X6X6X6X6X6X6X6X6X6X",
"6X6X6X6X6X6X6X6X6X6X6X6X6X6X6X6X6X6X6X6X6X6X6X6X6X6X6X;.3 S 5 v  .K H H S l 5 f < @ 6X6X6X6X6X6X6X6X6X6X6X",
"6X6X6X6X6X6X6X6X6X6X6X6X6X6X6X6X6X6X6X6X6X6X6X6X6X6X6XS O h H 1 H H H K H n l 5 + 3 6X6X6X6X6X6X6X6X6X6X6X",
"6X6X6X6X6X6X6X6X6X6X6X6X6X6X6X6X6X6X6X6X6X6X6X6X6X6X6X5 5 S 1 5 e b < X < 1 5 l   S 6X6X6X6X6X6X6X6X6X6X6X",
"6X6X6X6X6X6X6X6X6X6X6X6X6X6X6X6X6X6X6X6X6X6X6X6X6X6X*.: 1 l f < 5 > @ 5 5 l S k   V 6X6X6X6X6X6X6X6X6X6X6X",
"6X6X6X6X6X6X6X6X6X6X6X6X6X6X6X6X6X6X6X6X6X6X6X6X6X6Xo.< < b l e 1 @ > l i l A 3 @ G 6X6X6X6X6X6X6X6X6X6X6X",
"6X6X6X6X6X6X6X6X6X6X6X6X6X6X6X6X6X6X6X6X6X6X6X6X6X6X+ , 3 1 M 5 + O.X.S  .K G S o G 6X6X6X6X6X6X6X6X6X6X6X",
"6X6X6X6X6X6X6X6X6X6X6X6X6X6X6X6X6X6X6X6X6X6X6X6X6X5 @ J A n K > : 6Xl < v ( K A l A D H f ,     O : , 6X6X",
"6X6X6X6X6X6X6X6X6X6X6X6X6X6X6X6X6X6X6X6X6X6X6X6X6X3 b | K J G l n 6X5 1 H S o.n 5 @ @ @ 1 @ + @ , k v 6X6X",
"6X6X6X6X6X6X6X6X6X6X6X6X6X6X6X6X6X6X6X6X6X6X6X6X6XX | | K k n @ 5 6Xl 3 S K K A h b 1 < 5 @ 1 n f 4 , 6X6X",
"6X6X6X6X6X6X6X6X6X6X6X6X6X6X6X6X6X6X6X6X6X6X6X6X6X, o.b o.O.< k 6X6Xb 5 n K } n l b v ( J A l f A k : S 6X",
"6X6X6X6X6X6X6X6X6X6X6X6X6X6X6X6X6X6X6X6X6X6X6X6X  3 o.l | k b l 6X6Xl l H K A h f n H l G * X X O S 6 | 6X",
"6X6X6X6X6X6X6X6X6X6X6X6X6X6X6X6X6X6X6X6X6X6X6X6X  b o.A b n 3 6X6X6X5 l A v A n S K  .S n l 6X< + A 6 B 6X",
"6X6X6X6X6X6X6X6X6X6X6X6X6X6X6X6X6X6X6X6X6X6X6X6X  n | n k 6 4 6X6X6X6X  5 3 3 l 1 1 @ < 3 @ 6X6XX + ( b 6X",
"6X6X6X6X6X6X6X6X6X6X6X6X6X6X6X6X6X6X6X6X6X6X6X6X  k n k n +   6X6X6X6X< @ , 5 5 l k 6 6X6X6X6X6X6XX * X 6X",
"6X6X6X6X6X6X6X6X6X6X6X6X6X6X6X6X6X6X6X6X6X6X6X6X  3 H f 5 @   6X6X6X6X6X6X6X6X6X6X6X6X6X6X6X6X6X6X6Xi 2 6X",
"6X6X6X6X6X6X6X6X6X6X6X6X6X6X6X6X6X6X6X6X6X6X6X  @ =.O.H <     6X6X6X6X6X6X6X6X6X6X6X6X6X6X6X6X6X6X6X6X6X6X",
"6X6X6X6X6X6X6X6X6X6X6X6X6X6X6X6X6X6X6X6X6X6X6X  3 7.;.-.o O O 6X6X6X6X6X6X6X6X6X6X6X6X6X6X6X6X6X6X6X6X6X6X",
"6X6X6X6X6X6X6X6X6X6X6X6X6X6X6X6X6X6X6X6X6X6X6Xo e X.O.-.@     6X6X6X6X6X6X6X6X6X6X6X6X6X6X6X6X6X6X6X6X6X6X",
"6X6X6X6X6X6X6X6X6X6X6X6X6X6X6X6X6X6X6X6X6X6X6X% V 2.5...%   6X6X6X6X6X6X6X6X6X6X6X6X6X6X6X6X6X6X6X6X6X6X6X",
"6X6X6X6X6X6X6X6X6X6X6X6X6X6X6X6X6X6X6X6X6X6X6X> S ..) &.    6X6X6X6X6X6X6X6X6X6X6X6X6X6X6X6X6X6X6X6X6X6X6X",
"6X6X6X6X6X6X6X6X6X6X6X6X6X6X6X6X6X6X6X6X6X6X6Xe e W =.q.o   6X6X6X6X6X6X6X6X6X6X6X6X6X6X6X6X6X6X6X6X6X6X6X",
"6X6X6X6X6X6X6X6X6X6X6X6X6X6X6X6X6X6X6X6X6X6X6Xv D Q ;.D o   6X6X6X6X6X6X6X6X6X6X6X6X6X6X6X6X6X6X6X6X6X6X6X",
"6X6X6X6X6X6X6X6X6X6X6X6X6X6X6X6X6X6X6X6X6X6X6XG j W D D     6X6X6X6X6X6X6X6X6X6X6X6X6X6X6X6X6X6X6X6X6X6X6X",
"6X6X6X6X6X6X6X6X6X6X6X6X6X6X6X6X6X6X6X6X6X6X6X:.> G } z   X 6X6X6X6X6X6X6X6X6X6X6X6X6X6X6X6X6X6X6X6X6X6X6X",
"6X6X6X6X6X6X6X6X6X6X6X6X6X6X6X6X6X6X6X6X6X6X6X9.. > h h .   6X6X6X6X6X6X6X6X6X6X6X6X6X6X6X6X6X6X6X6X6X6X6X",
"6X6X6X6X6X6X6X6X6X6X6X6X6X6X6X6X6X6X6X6X6Xj g > > O 6 h   6X6X6X6X6X6X6X6X6X6X6X6X6X6X6X6X6X6X6X6X6X6X6X6X",
"6X6X6X6X6X6X6X6X6X6X6X6X6X6X6X6X6X6X6X6X# > v G G h v .   6X6X6X6X6X6X6X6X6X6X6X6X6X6X6X6X6X6X6X6X6X6X6X6X",
"6X6X6X6X6X6X6X6X6X6X6X6X6X6X6X6X6X6X6X6X6XO g O >   l >   6X6X6X6X6X6X6X6X6X6X6X6X6X6X6X6X6X6X6X6X6X6X6X6X",
"6X6X6X6X6X6X6X6X6X6X6X6X6X6X6X6X6X6X6X6X6X6X6X6X    X     6X6X6X6X6X6X6X6X6X6X6X6X6X6X6X6X6X6X6X6X6X6X6X6X",
"6X6X6X6X6X6X6X6X6X6X6X6X6X6X6X6X6X6X6X6X6X6X6X6X6X6X6X    6X6X6X6X6X6X6X6X6X6X6X6X6X6X6X6X6X6X6X6X6X6X6X6X"
};
