/* XPM */
static char *result[] = {
/* columns rows colors chars-per-pixel */
"32 32 139 2 ",
"   c #0E0D10",
".  c #100F11",
"X  c #131113",
"o  c #181517",
"O  c #171619",
"+  c #191719",
"@  c #1C1C1D",
"#  c #261109",
"$  c #251B19",
"%  c #251914",
"&  c #1C201F",
"*  c #24211E",
"=  c #29211D",
"-  c #1E1E21",
";  c #211F22",
":  c #1F2223",
">  c #232324",
",  c #24262A",
"<  c #2B2B2C",
"1  c #2E2B26",
"2  c #392820",
"3  c #312D2F",
"4  c #2E342D",
"5  c #37332C",
"6  c #3C322F",
"7  c #35382E",
"8  c #272F34",
"9  c #2B2D30",
"0  c #332E35",
"q  c #2E3132",
"w  c #2C3338",
"e  c #323434",
"r  c #343932",
"t  c #333639",
"y  c #3B363F",
"u  c #35393A",
"i  c #3A3B3C",
"p  c #47271B",
"a  c #4A3327",
"s  c #72412D",
"d  c #684537",
"f  c #6B4B3D",
"g  c #7B523E",
"h  c #353B40",
"j  c #3A3D41",
"k  c #403D43",
"l  c #394044",
"z  c #3C484D",
"x  c #574940",
"c  c #414D53",
"v  c #4A565D",
"b  c #52595C",
"n  c #655142",
"m  c #785A4D",
"M  c #605B50",
"N  c #6F695E",
"B  c #79675B",
"V  c #7C6A5D",
"C  c #515E63",
"Z  c #566870",
"A  c #5A6D75",
"S  c #597077",
"D  c #5D737B",
"F  c #7B6D65",
"G  c #7E7069",
"H  c #63757B",
"J  c #6F7C7F",
"K  c #864C38",
"L  c #875938",
"P  c #8B5742",
"I  c #8E5E42",
"U  c #955C45",
"Y  c #89634E",
"T  c #9B6347",
"R  c #836254",
"E  c #866B51",
"W  c #896352",
"Q  c #90705E",
"!  c #A0725C",
"~  c #8E7467",
"^  c #987D62",
"/  c #8C7F76",
"(  c #8E8575",
")  c #88817D",
"_  c #B5866C",
"`  c #BA896C",
"'  c #A88670",
"]  c #A58879",
"[  c #B48F7A",
"{  c #C48D70",
"}  c #C9957A",
"|  c #D09878",
" . c #627780",
".. c #667D85",
"X. c #697C84",
"o. c #6C848D",
"O. c #70878F",
"+. c #728A92",
"@. c #79939C",
"#. c #7D9AA4",
"$. c #908D8A",
"%. c #869396",
"&. c #8E999B",
"*. c #B99C87",
"=. c #BB9B88",
"-. c #B39581",
";. c #B6A08E",
":. c #8D9FA4",
">. c #85A2AC",
",. c #8AA3AB",
"<. c #95A9AF",
"1. c #85A6B1",
"2. c #96ACB2",
"3. c #8DB0BB",
"4. c #90B2BE",
"5. c #B0ACA7",
"6. c #CB9D82",
"7. c #C09C88",
"8. c #D29E84",
"9. c #C8A591",
"0. c #CFAB99",
"q. c #DDAD90",
"w. c #96BAC7",
"e. c #97BCC9",
"r. c #99BFCB",
"t. c #9BC1CE",
"y. c #9EC4D1",
"u. c #A3C6D1",
"i. c #A3C9D5",
"p. c #A9CAD4",
"a. c #A5CDDA",
"s. c #AACDD8",
"d. c #A7D0DE",
"f. c #AAD1DD",
"g. c #B1D3DE",
"h. c #ACD6E4",
"j. c #ADD8E6",
"k. c #AFDBE9",
"l. c #B0DCEB",
/* pixels */
"j.j.j.j.j.j.j.j.j.j.j.j.j.j.j.j.j.h.j.j.h.h.h.j.j.j.j.j.j.j.j.j.",
"j.j.j.j.j.j.j.j.j.j.j.j.j.j.j.j.j.s.u.i.h.j.j.h.j.j.j.j.j.j.j.j.",
"j.j.j.j.j.j.j.j.j.j.j.j.j.j.j.j.h./ m R ~ 2.j.j.j.j.j.j.j.j.j.j.",
"j.j.j.j.j.j.j.j.j.j.j.j.j.j.j.j.s.=.6.} P d <.j.h.j.j.j.j.j.j.j.",
"j.j.j.j.j.j.j.j.j.j.j.j.j.j.j.j.p.^ I K U s $.l.j.h.j.j.j.j.j.j.",
"j.j.h.j.d.i.i.i.a.j.l.j.k.k.j.j.i.E L T { Q ~ &.a.k.j.j.j.j.j.j.",
"j.j.j.3.c u w t l A H H H X.%.f.p.-.6.q.8.[ m 2 b O.y.j.j.j.j.j.",
"j.j.j.y.D D D S A H A $ # p W 5.F W 0.9.=.*.x > 9 O  .j.j.j.j.j.",
"j.j.h.j.j.k.k.l.k.l.j.,.~ ` 8.} g d V V ( N 1 e i > S l.j.j.j.j.",
"j.j.j.j.j.j.j.j.j.j.j.g.7.{ | ` ' V 5 7 7 7 u e e @ D l.j.j.j.j.",
"j.j.j.j.j.j.h.j.j.j.j.s.] ` _ Y n b 4 4 e u e < ; X ..l.j.j.j.j.",
"j.j.j.j.j.j.j.j.j.j.j.j.p./ f a % = & & > * > - O , e.j.j.j.j.j.",
"j.j.j.j.j.j.j.j.j.j.j.j.j.,.6 % = i 4 4 e , $ : + 9 u.j.j.j.j.j.",
"j.j.j.j.j.j.j.j.j.j.j.j.j.j.>.X.>.i.S > i r > - - 9 y.k.j.j.j.j.",
"j.j.j.j.j.j.j.j.j.j.j.j.j.j.j.j.j.l. ., u e , > @ @ #.k.j.j.j.j.",
"j.j.j.j.j.j.j.j.j.j.j.j.j.j.j.j.j.j.X.> < i e > > . D k.j.j.j.j.",
"j.j.j.j.j.j.j.j.j.j.j.j.j.j.j.j.j.f.v O - e e , , X S l.j.j.j.j.",
"j.j.j.j.j.j.j.j.j.j.j.j.j.j.j.j.j.e., @ O O - > * . S l.j.j.l.j.",
"h.j.j.j.j.j.j.j.j.j.j.j.j.j.j.j.j.H ; < - 9 9 9 e > c +.e.w.o.t.",
"j.j.j.j.j.j.j.j.j.j.j.j.j.j.j.j.e.h y 0 - :.C 9 i < @ * , ,   Z ",
"j.j.j.j.j.j.j.j.j.j.j.j.j.j.j.k.o.9 k ; z h. .9 e < e q @ : ; , ",
"j.j.j.j.j.j.h.j.j.j.j.j.j.j.j.a.c , 9 - :.l...- : u i h o.@.j . ",
"j.j.j.j.j.j.j.j.j.j.j.j.j.j.j.r.> > ; , r.j.a.#.#.y.y.y.j.j.r...",
"j.j.j.j.j.j.j.j.j.j.j.j.j.j.j.t.8 t 9 > r.k.k.k.j.j.j.j.j.j.j.j.",
"j.j.j.j.j.j.j.j.j.j.j.j.j.j.j.y.t t < 8 t.j.j.j.j.j.j.j.j.j.j.j.",
"j.j.j.j.j.j.j.j.j.j.j.j.j.h.j.y.t u < , r.j.j.j.j.j.j.j.j.j.j.j.",
"j.j.j.h.j.j.j.j.j.j.j.j.j.j.j.3.q , - v a.j.j.j.j.j.j.j.j.j.j.j.",
"j.j.j.j.j.j.j.j.j.j.j.j.j.j.1.w > O - e.j.j.j.j.j.j.j.j.j.j.j.j.",
"j.j.j.j.j.j.j.j.j.j.j.j.j.j.a.#.X.c w t.j.j.j.j.j.j.j.j.j.j.j.j.",
"j.j.j.j.j.j.j.j.j.j.j.h.j.h.j.j.l.a.t.h.j.j.j.j.j.j.j.j.j.j.j.j.",
"j.j.j.j.j.j.j.j.j.j.j.j.j.j.j.j.h.j.j.j.j.j.j.j.j.j.j.j.j.j.j.j.",
"j.j.j.j.j.j.j.h.j.j.j.j.j.j.j.j.j.j.j.j.j.j.j.j.j.j.j.j.j.j.j.j."
};
