/* XPM */
static char *result[] = {
/* columns rows colors chars-per-pixel */
"32 32 139 2 ",
"   c #070506",
".  c #100E0F",
"X  c #141315",
"o  c #191719",
"O  c #1C1B1D",
"+  c #271209",
"@  c #2C1916",
"#  c #211E1E",
"$  c #22211F",
"%  c #2B251F",
"&  c #1E1D20",
"*  c #201F21",
"=  c #1F2022",
"-  c #232224",
";  c #2B2627",
":  c #2E2B26",
">  c #24262A",
",  c #292729",
"<  c #25292C",
"1  c #2B2B2C",
"2  c #322E2C",
"3  c #3A2C29",
"4  c #30312E",
"5  c #2A2E31",
"6  c #302F30",
"7  c #2C3133",
"8  c #343333",
"9  c #3A3634",
"0  c #373836",
"q  c #393935",
"w  c #303539",
"e  c #363939",
"r  c #3B3B3A",
"t  c #472A1D",
"y  c #432E2C",
"u  c #4F2F29",
"i  c #52473D",
"p  c #78442C",
"a  c #6B4434",
"s  c #71473B",
"d  c #3C4143",
"f  c #3D494E",
"g  c #40484E",
"h  c #434F55",
"j  c #465459",
"k  c #4A565A",
"l  c #4C5A5F",
"z  c #6F4F49",
"x  c #704F44",
"c  c #63504D",
"v  c #6B574A",
"b  c #7A5344",
"n  c #7B5C53",
"m  c #6B6459",
"M  c #79665F",
"N  c #4D5D63",
"B  c #54666D",
"V  c #596A6F",
"C  c #566C73",
"Z  c #596E75",
"A  c #5B7177",
"S  c #5E727A",
"D  c #746A62",
"F  c #667376",
"G  c #62757B",
"H  c #67797F",
"J  c #8E4D3A",
"K  c #8E543D",
"L  c #93543A",
"P  c #945743",
"I  c #8F644F",
"U  c #95664F",
"Y  c #806656",
"T  c #836358",
"R  c #886559",
"E  c #916557",
"W  c #916D5D",
"Q  c #9F735D",
"!  c #A4664E",
"~  c #846C64",
"^  c #967261",
"/  c #887670",
"(  c #857E7A",
")  c #8F8177",
"_  c #B6816E",
"`  c #BE8469",
"'  c #AC8476",
"]  c #AF8B77",
"[  c #A98678",
"{  c #BB8973",
"}  c #B1907F",
"|  c #C08D77",
" . c #C68E78",
".. c #CF9579",
"X. c #657C85",
"o. c #687D83",
"O. c #6A828A",
"+. c #71868D",
"@. c #749099",
"#. c #79969E",
"$. c #7D9BA5",
"%. c #7F9EA8",
"&. c #8D8C8A",
"*. c #839496",
"=. c #B99585",
"-. c #B19B8B",
";. c #B89E8D",
":. c #82A2AD",
">. c #88A0A8",
",. c #94A5AA",
"<. c #93A8AD",
"1. c #8CACB7",
"2. c #9BAEB0",
"3. c #94AAB2",
"4. c #AAABA7",
"5. c #A6B9BD",
"6. c #C39581",
"7. c #CD9B84",
"8. c #D19C86",
"9. c #CDA087",
"0. c #D1A48D",
"q. c #C7A595",
"w. c #DBA891",
"e. c #D0AB9B",
"r. c #95BAC6",
"t. c #9CC3CF",
"y. c #9EC5D3",
"u. c #B0C1C5",
"i. c #A1C7D3",
"p. c #A4CAD6",
"a. c #AACAD4",
"s. c #A5CEDC",
"d. c #AACEDA",
"f. c #A7D1DE",
"g. c #A9D2DF",
"h. c #ACD7E5",
"j. c #ADD8E6",
"k. c #AEDAE9",
"l. c #B0DBEA",
/* pixels */
"j.j.j.j.j.j.j.j.j.j.j.j.j.h.h.j.j.j.j.h.j.j.j.j.j.j.j.j.j.j.j.j.",
"j.j.j.j.j.j.j.j.j.j.j.j.h.j.d.i.a.d.j.j.h.j.j.j.j.j.j.j.j.j.j.j.",
"j.j.j.j.j.j.j.j.j.j.j.j.j.g.( n R R ,.j.j.j.j.j.j.j.j.j.j.j.h.j.",
"j.j.j.j.j.j.j.j.j.j.j.j.j.d.=.8. .K a <.k.h.j.j.j.j.j.j.j.j.j.j.",
"j.j.j.j.j.j.j.h.j.j.j.j.h.2.Q P J L p &.k.j.h.j.j.j.j.j.j.j.j.j.",
"j.p.p.p.p.p.k.k.l.l.l.l.h.2.E J ! ` U ~ 3.h.k.h.h.j.j.j.j.j.j.j.",
"$.7 e e 0 d Z S F F F *.h.a.=.6.w.0.] v 3 k O.i.j.h.j.j.j.j.j.j.",
"%.Z Z C A G A V % + t M 4.D W e.q.;.-.i % 1 # l f.j.j.j.j.j.j.j.",
"j.k.k.k.k.k.l.k.>.^ { 9.7.b z ~ M ) m : 9 r & j f.h.j.j.j.j.j.j.",
"j.j.j.k.j.j.h.k.u.6.....6.Q T y 9 9 8 4 8 w O X.l.h.j.j.j.j.j.j.",
"j.j.j.j.j.j.j.k.5.] | Q E z c 3 4 9 9 9 6 = = r.j.j.j.j.j.j.j.j.",
"j.j.j.j.j.j.j.j.j.a./ b u @ * * $ $ - $ = X 7 i.j.j.j.j.j.j.j.j.",
"j.j.j.j.j.j.j.h.j.l.>.3 @ ; g w : 4 : $ * O f g.j.j.j.j.j.j.j.j.",
"j.j.j.j.j.j.j.j.j.j.j.r.+.r.s.B - q r - * * 5 r.j.j.j.j.j.j.j.j.",
"j.j.j.j.j.j.j.j.j.j.j.j.l.j.h.N - 0 q - - # < r.j.j.j.j.j.j.j.j.",
"j.j.j.j.j.j.j.j.j.j.j.j.j.j.d.k $ 8 0 8 - - O o.l.j.j.j.j.j.j.j.",
"j.j.j.j.j.j.j.j.j.j.h.k.l.i.G < O - 7 8 2 - X X.h.h.j.j.j.j.j.j.",
"j.j.j.h.j.j.j.j.j.j.h.h.:.k 6 9 - X X 1 8 1 > r.k.h.j.j.j.j.j.j.",
"j.j.j.j.j.j.j.j.h.k.h.r.5 1 4 ; w G G 8 r 8 5 y.k.j.j.h.j.j.j.j.",
"j.j.j.j.j.j.j.j.j.h.k.X.o 1 ; O 8 o.1.e r 5 < y.h.j.h.k.j.j.j.h.",
"j.j.j.j.j.j.j.j.j.j.l.%.7 1 r w 1 # > 1 r 4 < r.l.h.j.j.j.j.j.j.",
"j.j.j.j.j.j.j.j.j.j.h.h.r.O.j 1 ; & o < 9 8 & N f.j.j.j.j.j.j.j.",
"j.j.j.j.j.j.h.h.j.j.h.h.j.l.s.$.Z h = o 8 y w O %.k.h.j.j.j.j.j.",
"j.j.j.j.j.j.j.l.h.j.h.k.h.h.h.k.l.h.@.5 5 8 r - f s.j.j.j.j.j.j.",
"j.j.j.j.j.j.h.j.j.j.j.j.j.j.j.j.h.j.h.i.#.5 9 8 X $.k.j.j.j.j.j.",
"j.j.j.j.j.j.j.j.j.j.j.j.j.j.j.j.j.h.j.k.f.j 1 8 X Z l.j.j.j.j.j.",
"j.j.j.j.j.j.j.j.j.j.j.j.j.j.j.j.j.j.j.j.h.B . o   C k.j.j.j.j.j.",
"j.j.j.j.j.j.j.j.j.j.j.j.h.j.j.j.j.j.j.j.s.O.Z Z C :.k.j.j.j.j.j.",
"j.j.j.j.j.j.j.j.j.j.j.j.j.j.j.j.j.j.j.h.j.l.l.l.l.j.h.j.j.j.h.j.",
"j.j.j.j.j.j.j.j.j.j.j.j.j.j.j.j.j.j.j.j.j.j.j.j.j.j.j.j.j.j.j.j.",
"j.j.j.j.j.j.j.j.j.j.j.j.j.j.j.j.j.j.j.j.j.j.j.j.j.j.j.j.j.j.j.j.",
"j.j.j.j.j.j.j.j.j.j.j.j.j.j.j.j.j.j.j.j.j.j.j.j.j.j.j.j.j.j.j.j."
};
