/* XPM */
static char *result[] = {
/* columns rows colors chars-per-pixel */
"32 32 127 2 ",
"   c #160E0A",
".  c #141314",
"X  c #191715",
"o  c #1A1917",
"O  c #131818",
"+  c #1C1C1B",
"@  c #2A1C1A",
"#  c #21231C",
"$  c #322B18",
"%  c #211F21",
"&  c #1D2223",
"*  c #232324",
"=  c #282025",
"-  c #2B2923",
";  c #2A2528",
":  c #252A2B",
">  c #2C2C2B",
",  c #302F2F",
"<  c #2C3628",
"1  c #323025",
"2  c #32322E",
"3  c #2A2D30",
"4  c #342F32",
"5  c #2D3132",
"6  c #2F3B3D",
"7  c #343434",
"8  c #393435",
"9  c #3B3A35",
"0  c #373838",
"q  c #3B3B3C",
"w  c #433932",
"e  c #413C3E",
"r  c #50413E",
"t  c #624E34",
"y  c #6A4B3E",
"u  c #724D34",
"i  c #6C503B",
"p  c #76623E",
"a  c #373E40",
"s  c #383E41",
"d  c #364042",
"f  c #3C4345",
"g  c #3A474A",
"h  c #3C494C",
"j  c #5C4542",
"k  c #4C5043",
"l  c #585248",
"z  c #424F53",
"x  c #445156",
"c  c #485057",
"v  c #4B5A5E",
"b  c #7C5F51",
"n  c #68614C",
"m  c #796853",
"M  c #79645C",
"N  c #4D5C61",
"B  c #566269",
"V  c #566C72",
"C  c #596D73",
"Z  c #5D7277",
"A  c #5E747B",
"S  c #646A64",
"D  c #786868",
"F  c #6A7573",
"G  c #64777E",
"H  c #82653C",
"J  c #856452",
"K  c #967A56",
"L  c #A27B5B",
"P  c #9A7C69",
"I  c #A07B62",
"U  c #9E897B",
"Y  c #989077",
"T  c #B4856F",
"R  c #B0956C",
"E  c #A18474",
"W  c #AA8778",
"Q  c #B78D71",
"!  c #A69472",
"~  c #AB987B",
"^  c #BC907A",
"/  c #C99E78",
"(  c #C9A170",
")  c #657C84",
"_  c #687D84",
"`  c #6A8288",
"'  c #738A93",
"]  c #7E9090",
"[  c #77959E",
"{  c #7B979F",
"}  c #7D9AA4",
"|  c #848688",
" . c #8B9A9A",
".. c #919F99",
"X. c #AD8F83",
"o. c #AF948B",
"O. c #B69F82",
"+. c #BB9B82",
"@. c #829EA7",
"#. c #819FAA",
"$. c #83A2AD",
"%. c #97A0A3",
"&. c #8FB2BC",
"*. c #9FB2B0",
"=. c #9EB3B9",
"-. c #CC9F80",
";. c #C2A686",
":. c #D7A88C",
">. c #DBA98B",
",. c #93B7C3",
"<. c #95BAC6",
"1. c #97BCC9",
"2. c #A2BEC7",
"3. c #9BC1CE",
"4. c #9EC5D1",
"5. c #A1C4CE",
"6. c #A8C5CC",
"7. c #A0C7D5",
"8. c #A3C9D4",
"9. c #ACCED7",
"0. c #A4CDDB",
"q. c #A7D0DE",
"w. c #A8D2DF",
"e. c #ACD7E5",
"r. c #ADD8E6",
"t. c #AFDAE9",
"y. c #B0DCEA",
/* pixels */
"r.r.r.r.r.r.r.r.r.r.r.r.r.r.r.r.r.r.r.r.r.r.r.r.r.r.r.r.r.r.r.r.",
"r.r.r.r.r.r.r.r.r.r.r.r.r.r.r.e.r.r.e.r.r.r.r.r.r.r.r.r.r.r.r.r.",
"r.r.r.r.r.r.r.r.r.r.r.r.r.r.r.r.w.w.t.r.r.r.r.r.r.r.r.r.r.r.e.r.",
"r.r.r.r.r.r.r.r.r.r.r.r.r.r.r.q.F S ] 5.e.r.r.r.r.r.r.r.r.r.r.r.",
"r.r.r.r.r.r.r.r.r.r.r.r.r.r.t.8.Y ! p n 8.r.r.r.r.r.r.r.r.r.r.r.",
"r.r.r.r.r.r.r.r.r.r.r.r.r.r.t.*.~ K H t 6.r.r.r.r.r.r.r.r.r.r.r.",
"r.r.r.r.e.r.y.t.y.y.y.y.y.t.t. .i u L J %.e.y.r.e.r.r.r.r.r.r.r.",
"r.r.r.r.r.3.A V V V V C Z ` 4.6.+.;.>.W e c @.r.r.r.r.r.r.r.r.r.",
"r.r.r.r.r.$.& . O & 6 .   $ ..| T >.^ o.4 ; 3 } r.r.r.r.r.r.r.r.",
"r.r.r.r.r.e.3.3.3.3.4.} m R ;.y b P X.D 4 q * ) y.r.r.r.r.r.r.r.",
"r.r.r.r.r.r.r.r.r.r.t.q.O.( / E l 1 w 8 4 4 3 <.r.r.r.r.r.r.r.r.",
"r.r.r.r.r.r.r.r.r.r.e.5.W Q I M k < 7 8 0 * & 3.r.r.r.r.r.r.r.r.",
"r.r.r.r.r.r.r.r.r.r.r.r.=.M j @ $ # - * @ X h q.r.r.r.r.r.r.r.r.",
"r.r.r.r.r.r.r.r.r.r.r.r.e.B % % < ; 8 % + X A t.e.r.r.r.r.r.r.r.",
"r.r.r.r.r.r.r.r.r.r.r.e.r.7.' $.&.0 e 4 + o h q.r.r.r.r.r.r.r.r.",
"r.r.r.r.r.r.r.r.r.r.r.r.e.r.t.y.3.5 9 8 + + * 2.r.r.r.r.r.r.r.r.",
"r.r.r.r.r.r.r.r.r.r.r.r.r.r.r.r.3.5 > q > * + [ t.r.r.r.r.r.r.r.",
"r.r.r.r.r.r.r.r.r.r.r.r.r.r.r.r.<.* * q 0 > + } t.r.r.r.r.r.r.r.",
"r.r.r.r.r.r.r.r.r.r.r.r.r.r.r.q.N * * o > > 5 4.r.r.r.r.r.r.r.r.",
"r.r.r.r.r.r.r.r.r.r.r.r.r.r.r.} 7 0 3 d 3 0 5 4.r.r.r.r.r.r.r.r.",
"r.r.r.r.r.r.r.r.r.r.r.r.r.r.4.f q * A ) > 8 > 4.r.r.r.r.r.r.r.r.",
"r.r.r.r.r.r.r.r.r.r.r.r.r.r.} q 7 & 1.A * , : 1.r.r.r.r.r.r.r.r.",
"r.r.r.r.r.r.r.r.r.r.r.r.r.t.} 7 > : 4.} * > + ) y.r.r.r.r.r.r.r.",
"r.r.e.r.r.r.r.r.r.r.r.r.r.r.4.s > 5 <.0.x 2 > x q.r.r.r.r.r.r.r.",
"r.r.r.r.r.r.r.r.r.r.r.r.r.r.4.s 8 & ` t.} 5 8 * } r.r.r.r.r.r.r.",
"r.r.r.r.r.r.r.r.r.r.r.e.r.r.r.G 7 > V r.4.q 7 * Z y.e.r.r.r.r.r.",
"r.r.r.r.r.r.r.r.r.r.r.r.r.e.t.@.; % N e.t.Z * ; x 0.t.r.r.r.r.r.",
"r.r.r.r.r.r.r.r.r.r.r.r.r.r.0.v o . h e.0.h + + * 4.r.r.r.r.r.r.",
"r.r.r.r.r.r.r.r.r.r.r.r.r.r.0.) ) A } r.0.) ) _ ` 0.r.r.r.r.r.r.",
"r.r.r.r.r.e.r.r.r.r.r.r.r.e.r.t.t.t.t.r.r.t.t.t.t.r.e.r.r.r.r.r.",
"r.r.r.r.r.r.r.r.r.r.r.r.r.r.r.r.r.r.r.r.r.r.r.r.e.r.r.r.r.r.r.e.",
"r.r.r.r.r.r.r.r.r.r.r.r.r.r.r.r.r.r.r.r.r.r.r.r.r.r.r.r.r.r.r.r."
};
