/* XPM */
static char *_89de8b3625d49ce80ff296749004895ATTcJVKfGkbNDiyq[] = {
/* columns rows colors chars-per-pixel */
"64 64 194 2 ",
"   c #ADD8E6",
".  c #030204",
"X  c #060608",
"o  c #09060A",
"O  c #060A0B",
"+  c #0C0B0D",
"@  c #120403",
"#  c #1B0D0A",
"$  c #15120D",
"%  c #1D140C",
"&  c #0E0E11",
"*  c #070F10",
"=  c #110E12",
"-  c #120F18",
";  c #0D1312",
":  c #141315",
">  c #1B1515",
",  c #1C1B16",
"<  c #161519",
"1  c #19161A",
"2  c #161A1A",
"3  c #1B1B1C",
"4  c #210E09",
"5  c #3E0503",
"6  c #24140D",
"7  c #2A120A",
"8  c #211105",
"9  c #341C0D",
"0  c #32150C",
"q  c #261D17",
"w  c #221E1E",
"e  c #291A15",
"r  c #311B15",
"t  c #1D201F",
"y  c #2C231E",
"u  c #26201F",
"i  c #32221B",
"p  c #3A2318",
"a  c #1D1D21",
"s  c #171C20",
"d  c #221D22",
"f  c #1D2120",
"g  c #232324",
"h  c #2A2324",
"j  c #252926",
"k  c #2B2A23",
"l  c #262628",
"z  c #292529",
"x  c #272A2A",
"c  c #2A2B2C",
"v  c #3D2A24",
"b  c #332E2D",
"n  c #2C3123",
"m  c #2D322C",
"M  c #263129",
"N  c #34312A",
"B  c #333A2E",
"V  c #313326",
"C  c #2E2E31",
"Z  c #322E33",
"A  c #2F3232",
"S  c #323333",
"D  c #343A34",
"F  c #35363A",
"G  c #3A343B",
"H  c #373A3A",
"J  c #3A3C3C",
"K  c #3A3D35",
"L  c #411105",
"P  c #57190C",
"I  c #572307",
"U  c #4B2515",
"Y  c #472719",
"T  c #583A1C",
"R  c #603616",
"E  c #4C2D23",
"W  c #473429",
"Q  c #5D3526",
"!  c #543629",
"~  c #5E3728",
"^  c #5D3A2C",
"/  c #4C3C31",
"(  c #423F3F",
")  c #553D32",
"_  c #673826",
"`  c #3A403B",
"'  c #384137",
"]  c #6A461F",
"[  c #47433D",
"{  c #5A453B",
"}  c #67412F",
"|  c #6E412F",
" . c #624235",
".. c #68493A",
"X. c #734936",
"o. c #7A4E3B",
"O. c #704635",
"+. c #73533F",
"@. c #785430",
"#. c #744B26",
"$. c #3E3C42",
"%. c #3C3641",
"&. c #413D44",
"*. c #3F4241",
"=. c #424244",
"-. c #454549",
";. c #4C4B4D",
":. c #48434F",
">. c #545043",
",. c #5C5147",
"<. c #5E5B51",
"1. c #674A40",
"2. c #7C5B44",
"3. c #765647",
"4. c #6D5D56",
"5. c #696257",
"6. c #776057",
"7. c #797567",
"8. c #85482E",
"9. c #89523B",
"0. c #94553E",
"q. c #865A48",
"w. c #935D47",
"e. c #86624F",
"r. c #9E704A",
"t. c #836355",
"y. c #8A6553",
"u. c #896955",
"i. c #986C56",
"p. c #84715F",
"a. c #93705C",
"s. c #9E735E",
"d. c #A46B4E",
"f. c #AB6F55",
"g. c #A57252",
"h. c #AA765C",
"j. c #967060",
"k. c #917F72",
"l. c #A67E6A",
"z. c #B27D66",
"x. c #A4805E",
"c. c #B6815D",
"v. c #9C8B7B",
"b. c #9E8074",
"n. c #A5816C",
"m. c #AD856E",
"M. c #AD8164",
"N. c #B38363",
"B. c #BC8265",
"V. c #B3856C",
"C. c #B8876C",
"Z. c #A68B7F",
"A. c #AA8871",
"S. c #BD8D75",
"D. c #B68D7A",
"F. c #B08770",
"G. c #AB947E",
"H. c #B3927B",
"J. c #C48D6C",
"K. c #C3856B",
"L. c #C08D77",
"P. c #CB9474",
"I. c #C3927A",
"U. c #CD997D",
"Y. c #D39978",
"T. c #9A8E81",
"R. c #A39484",
"E. c #AD9384",
"W. c #B69682",
"Q. c #BFA691",
"!. c #C59A83",
"~. c #C29680",
"^. c #C8A188",
"/. c #D2A684",
"(. c #D3A38A",
"). c #D9A48C",
"_. c #D4AC8B",
"`. c #DFAA8E",
"'. c #C4A794",
"]. c #D2AA96",
"[. c #DFAC95",
"{. c #E2AA8E",
"}. c #E0A887",
"|. c #E3AD92",
" X c #E3B297",
".X c #E7BA9E",
"XX c #F0BF9D",
"oX c #C6B6A4",
"OX c #D8B6A5",
"+X c #C8BFB2",
"@X c #F4BFA0",
"#X c #F8C6A8",
"$X c #E2C1B3",
"%X c #E7D6C5",
/* pixels */
"                                                                                                                                ",
"                                                                                                                                ",
"                                                                                                                                ",
"                                                                                                                                ",
"                                                                      1. .^ ..3.3.                                              ",
"                                                                    t.~ _ o.o.O.~ ~  .                                          ",
"                                                                    H.l.C.(.).L.w.| ~ ^                                         ",
"                                                                    ]..X#XXX@X|.z.9._ Q ~                                       ",
"                                                                    A._./.g.d.f.h.w._ _ }                                       ",
"                                                                    T ] R L 5 P 0.9._ o.q.                                      ",
"                                                                    T @.#.I I 8.K.B.w.i.j.b.                                    ",
"                                                                    2.x.N.r.c.Y.{.).S.s.u.t.6.4.                                ",
"                  S -.;.;.=.&.-.;.-.                                H.^._./.XX#X|.(.!.n.t.../ W [                               ",
"              3 . X : < & . & s 2 < < 3 d 3 > > > q i v / 1.        n.!.!.V.(. X!.m.n.'.Z.) 6 @ > u b S                         ",
"                . o < 1 2 ; * O X O : 1 1 $ @ @ @ # 7 0 E t.      3.} D.OX].].^.m.A.W.'.k.i 6 y b z = o +                       ",
"                                            # 4 7 9 Y ~ q.D.!.m.X.U U l.OX$XOXQ.G.oX%XR.,.y u b =.&.c + .                       ",
"                                              Y  .2.i.l.I.).|.I.X.U U t.Z.E.v.v.R.oX+X5.k y N J J -.-.< .                       ",
"                                                W.^. X X|.{.`.U.i.+. .{ { / / >.7.7.<.N , g J =.c S &.< X                       ",
"                                                ].S.g.B.Y.}.P.N.m.W.E.{ y N N V n n n m D J C x $.F g a a                       ",
"                                                ~.I.J.P.P.J.N.M.m.G.R.,.N K D B B D D H ` J F A J C a : &                       ",
"                                                s.z.P.Y.P.C.h.u.+.p.T.>.m ' ' K H H ' ` J H A c c g < = +                       ",
"                                                q.i.V.V.V.F.a...9 [ 7.[ j M m m A S S S S S c h g 1 = : 1                       ",
"                                                    m.e.e.a.3.W 8 % k m j ; ; 2 f g j h j h c c h 1 + 1                         ",
"                                                      ! ! ) p 6 i q $ , t 2 f g g f 3 3 3 < : : < : : d                         ",
"                                                      r i v r 6 % , g l c c c m A c g g 3 1 3 w w 1 = d                         ",
"                                                        y h h w $ > S J c g x A H H S c h g h c c 3 = 3                         ",
"                                                          h h z z         & a A J *.*.D c g g g h g < a                         ",
"                                                                          3 c F H J J A j 3 : : 1 3 1 h                         ",
"                                                                          + d S H J H x f g g g x 3 + :                         ",
"                                                                          1 g c A H J m j c g t j 3 + ; :                       ",
"                                                                          z l x x S *.H A m f 1 g g 1 < :                       ",
"                                                                          d h l t m =.*.J S j g h h g < :                       ",
"                                                                          d d 3 < h J =.` D c c c j t + o                       ",
"                                                                        h : 1 3 < 3 c S S m c j c j 3 + X                       ",
"                                                                        d = 1 3 1 < < 1 3 g g g t t 3 o .                       ",
"                                                                        1 < 3 g 3 < + : < 3 g g 3 3 3 ; X                       ",
"                                                                      o = d z z 3 3 g c c h c c c c h g g                       ",
"                                                                      - a Z G Z 3 g J ;.=.c S J =.J c 3 2 c A C         : X     ",
"                                                                    - C %.%.%.Z : 3 (   J g c J =.=.m 3 < 3 a 3 : : < < + . =   ",
"                                                                    : G :.&.%.Z + +       1 l J =.J S g 3 3 h g < + o 1 < . 1   ",
"                                                                  s a Z $.&.G z + .       1 c J J J S h x J J H l < & h l : a S ",
"                                                                  a l J -.-.z + +         + S ;.J l 3 S =.-.J c 3 3 g < g $.g . ",
"                                                                  1 g J =.Z 3 + 1         X 1 h 1 1 g g l C a < F -.  g g c 1 o ",
"                                                                o < g C c 3 < <           = : : + 1 l h h c 3 3         c c : X ",
"                                                                . : l g a < : :               : 1                           2 . ",
"                                                                . : l c c l = .                                                 ",
"                                                                . 3 J =.J l = .                                                 ",
"                                                                & g J =.J l : o                                                 ",
"                                                                2 l J J D l < +                                                 ",
"                                                                a c $.F C c < +                                                 ",
"                                                                a l S J J c < +                                                 ",
"                                                                + l =.=.J l < o                                                 ",
"                                                                < g S F C 3 : :                                                 ",
"                                                                h g 3 a 3 < <                                                   ",
"                                                            < 3 l l 3 : + :                                                     ",
"                                                          . . X g c c 3 + X                                                     ",
"                                                              : g l a & X .                                                     ",
"                                                                      o X X                                                     ",
"                                                                                                                                ",
"                                                                                                                                ",
"                                                                                                                                ",
"                                                                                                                                ",
"                                                                                                                                ",
"                                                                                                                                "
};
