/* XPM */
static char *result[] = {
/* columns rows colors chars-per-pixel */
"47 64 195 2 ",
"   c #020302",
".  c #0B0C0B",
"X  c #050508",
"o  c #120C0D",
"O  c #170600",
"+  c #0B110F",
"@  c #11120F",
"#  c #0D0E12",
"$  c #050C12",
"%  c #130E12",
"&  c #0F1211",
"*  c #0D141A",
"=  c #141414",
"-  c #151915",
";  c #1A1A16",
":  c #161B1A",
">  c #1B1C1B",
",  c #1A1516",
"<  c #220B07",
"1  c #330D00",
"2  c #24120D",
"3  c #291507",
"4  c #361100",
"5  c #271C15",
"6  c #351F14",
"7  c #1E211E",
"8  c #22221D",
"9  c #3E251E",
"0  c #0F1421",
"q  c #191E22",
"w  c #211F23",
"e  c #1D2323",
"r  c #1D2729",
"t  c #1C2B2D",
"y  c #152022",
"u  c #232423",
"i  c #2C2424",
"p  c #262926",
"a  c #292926",
"s  c #232529",
"d  c #252A29",
"f  c #2B2C2B",
"g  c #29272A",
"h  c #392E2B",
"j  c #2D322D",
"k  c #31322D",
"l  c #38362A",
"z  c #2A2E33",
"x  c #372E31",
"c  c #2C3333",
"v  c #2F3934",
"b  c #293638",
"n  c #333433",
"m  c #3B3433",
"M  c #373935",
"N  c #393A36",
"B  c #33353B",
"V  c #353B39",
"C  c #3B3B3B",
"Z  c #39373A",
"A  c #442B1B",
"S  c #402B16",
"D  c #623E1C",
"F  c #462C22",
"G  c #45332A",
"H  c #593627",
"J  c #423635",
"K  c #453B3A",
"L  c #4A3E3D",
"P  c #483A37",
"I  c #692A21",
"U  c #623E28",
"Y  c #6E393A",
"T  c #723436",
"R  c #7B3533",
"E  c #3E413C",
"W  c #3A4036",
"Q  c #77471F",
"!  c #72551D",
"~  c #464639",
"^  c #574537",
"/  c #754A20",
"(  c #6B4934",
")  c #604331",
"_  c #764131",
"`  c #64513A",
"'  c #3D3C43",
"]  c #353842",
"[  c #443E46",
"{  c #3F4244",
"}  c #434443",
"|  c #4B4B45",
" . c #444A4B",
".. c #4E4445",
"X. c #564741",
"o. c #54534E",
"O. c #4E5355",
"+. c #555555",
"@. c #6C4D45",
"#. c #63524B",
"$. c #785A49",
"%. c #7F4A54",
"&. c #655955",
"*. c #765B55",
"=. c #756448",
"-. c #7A6257",
";. c #6A5E60",
":. c #5D6363",
">. c #7A6B67",
",. c #6F7074",
"<. c #7C7270",
"1. c #844533",
"2. c #835638",
"3. c #8E7135",
"4. c #825945",
"5. c #945140",
"6. c #845656",
"7. c #9C6C4A",
"8. c #936A4E",
"9. c #94734D",
"0. c #896651",
"q. c #906F5E",
"w. c #94755C",
"e. c #9B7759",
"r. c #AA7E5B",
"t. c #A67346",
"y. c #80696C",
"u. c #8A7364",
"i. c #877060",
"p. c #856C70",
"a. c #877874",
"s. c #A57961",
"d. c #AD885D",
"f. c #B78359",
"g. c #B9985E",
"h. c #97806E",
"j. c #9F8670",
"k. c #A6896C",
"l. c #B78764",
"z. c #BA9668",
"x. c #AB8E72",
"c. c #A08478",
"v. c #B58E71",
"b. c #BEA360",
"n. c #C4885B",
"m. c #C3A75D",
"M. c #C38D61",
"N. c #CE9163",
"B. c #CC9A6E",
"V. c #C6906A",
"C. c #D0966E",
"Z. c #CD9573",
"A. c #C4997E",
"S. c #C29776",
"D. c #D19778",
"F. c #C2A360",
"G. c #D0AE6E",
"H. c #C7A079",
"J. c #DCA27D",
"K. c #CDB474",
"L. c #DDBD79",
"P. c #E1A17B",
"I. c #8F898B",
"U. c #94898D",
"Y. c #9E958C",
"T. c #918F92",
"R. c #A98B83",
"E. c #AA9687",
"W. c #BA9B83",
"Q. c #BE9A88",
"!. c #BCA69B",
"~. c #BAACA9",
"^. c #C79C86",
"/. c #CDAC85",
"(. c #C5A485",
"). c #DFAA8C",
"_. c #CEB283",
"`. c #D7B887",
"'. c #C5A691",
"]. c #D1AC99",
"[. c #CDB398",
"{. c #DCBC96",
"}. c #E4AA85",
"|. c #E9BA93",
" X c #DDBEA8",
".X c #E0BEA2",
"XX c #EBCF8E",
"oX c #ECD48E",
"OX c #F3C69D",
"+X c #EAC495",
"@X c #DBCAB8",
"#X c #F6D0AB",
"$X c #E4C6AA",
"%X c #E2CCC1",
"&X c None",
/* pixels */
"&X&X&X&X&X&X&X&X&X&X&X&X&X&X&X&X&X&X&X&X&X&X&X&X&X&X&X&X&X&X&X&X&X&X&X&X&X&X&X&X&X&X&X&X&X&X&X",
"&X&X&X&X&X&X&X&X&X&X&X&X&X&X&X&X&X&X&X&X&X&X&X&X&X&X&X&X&X&X&X&X&X&X&X&X&X&X&X&X&X&X&X&X&X&X&X",
"&X&X&X&X&X&X&X&X&X&X&X&X&X&X&X&X&X&X&X&X&X&X&X&X&X&X&X&X&X&X&X&X&X&X&X&X&X&X&X&X&X&X&X&X&X&X&X",
"&X&X&X&X&X&X&X&X&X&X&X&X&X&X&X&X&X&X&X&X&X&X&X&X&X+.&.a.>.&X&X&X&X&X&X&X&X&X&X&X&X&X&X&X&X&X&X",
"&X&X&X&X&X&X&X&X&X&X&X&X&X&X&X&X&X&X&X&X&X&X&X&X~ 3 S ) H H @.&X&X&X&X&X&X&X&X&X&X&X&X&X&X&X&X",
"&X&X&X&X&X&X&X&X&X&X&X&X&X&X&X&X&X&X&X&X&X&X&X&X=.=.8.r.8._ H @.&X&X&X&X&X&X&X&X&X&X&X&X&X&X&X",
"&X&X&X&X&X&X&X&X&X&X&X&X&X&X&X&X&X&X&X&X&X&X&X&X[.{.OX|.D.1.I Y &X&X&X&X&X&X&X&X&X&X&X&X&X&X&X",
"&X&X&X&X&X&X&X&X&X&X&X&X&X&X&X&X&X&X&X&X&X&X&Xu.$X#XG.C.Z.5.R Y &X&X&X&X&X&X&X&X&X&X&X&X&X&X&X",
"&X&X&X&X&X&X&X&X&X&X&X&X&X&X&X&X&X&X&X&X&X&X&X-.e.9.Q Q 7.R T 6.*.&X&X&X&X&X&X&X&X&X&X&X&X&X&X",
"&X&X&X&X&X&X&X&X&X&X&X&X&X&X&X&X&X&X&X&X&X&X&X@.H ) 4 1 2.1.T 6.p.&X&X&X&X&X&X&X&X&X&X&X&X&X&X",
"&X&X&X&X&X&X&X&X&X&X&X&X&X&X&X&X&X&X&X&X&X&X&X-.( 9.! 3.z.z.s.6.y.&X&X&X&X&X&X&X&X&X&X&X&X&X&X",
"&X&X&X&X&X&X&X&X&X&X&X&X&X&X&X&X&X&X&X&X&X&X&X&Xx.`.K.oXXX`.S.0.a...g &X&X&X&X&X&X&X&X&X&X&X&X",
"&X&X&X  X     .     +     &X. # * 0 q &X&X&X&X&Xx._.b.m.L.L.d.k.#.w , f . &X&X&X&X&X&X&X&X&X&X",
"&X&X  .           X     & & X   X w f l &X&X&Xu.w._.g.m.G.z.d.[.y.% o . : e &X&X&X&X&X&X&X&X&X",
"&X&X&X, = X = = - X : = : ; r + o 2 3 h h.&X&XF $. X{.+Xz.9.'.!...% g C f - - &X&X&X&X&X&X&X&X",
"&X&X&X&X&X&X&X&X&X&X&X&X&X&X7 5 < S U s.^.Q.$.O $. X$XH.e.W.%Xa.i s Z C V > : &X&X&X&X&X&X&X&X",
"&X&X&X&X&X&X&X&X&X&X&X&X&X&X&X` 0.A.).}.).^.@.2 &.E.i.k.E.@XE.} f M C n j = : &X&X&X&X&X&X&X&X",
"&X&X&X&X&X&X&X&X&X&X&X&X&X&X&X&X/.Z.P.P.D.(.R.X.;.J h G ^ ^ n g k M M C k , @ &X&X&X&X&X&X&X&X",
"&X&X&X&X&X&X&X&X&X&X&X&X&X&X&X&XH.t.n.N.J.A.c.].U.i P G G 5 g ] C } C N f > @ &X&X&X&X&X&X&X&X",
"&X&X&X&X&X&X&X&X&X&X&X&X&X&X&X(.S.B.N.n.V.^.p.~.I.s P L P x ' ] } E n k a ;   &X&X&X&X&X&X&X&X",
"&X&X&X&X&X&X&X&X&X&X&X&X&X&X&Xx.7.f.V.f.l.w.6 <.T.u m L L [ ' ] n n M n k :   &X&X&X&X&X&X&X&X",
"&X&X&X&X&X&X&X&X&X&X&X&X&X&X&XW.v.d.l.D.A.( O C ,.: k k x Z z B n > e f . > &X&X&X&X&X&X&X&X&X",
"&X&X&X&X&X&X&X&X&X&X&X&X&X&X&X&X&X].4._ i.F i # t * 8 ; 5 8 u f p a p 7 . u &X&X&X&X&X&X&X&X&X",
"&X&X&X&X&X&X&X&X&X&X&X&X&X&X&X&X&X&X@.3 9 5 5 s * c - 7 8 5 5 ; ; ; = u   , &X&X&X&X&X&X&X&X&X",
"&X&X&X&X&X&X&X&X&X&X&X&X&X&X&X&X&X&X>.2 P , e q t b v j k k k 8 : > > > . : &X&X&X&X&X&X&X&X&X",
"&X&X&X&X&X&X&X&X&X&X&X&X&X&X&X&X&X&X&Xx o # $ b &Xt r s k Z m f > 7 u p - > &X&X&X&X&X&X&X&X&X",
"&X&X&X&X&X&X&X&X&X&X&X&X&X&X&X&X&X&X&X&X{ O.b &X&X&Xy d n Z Z z u ; e p > g &X&X&X&X&X&X&X&X&X",
"&X&X&X&X&X&X&X&X&X&X&X&X&X&X&X&X&X&X&X&X&X&X&X&X&X&Xt z n C Z j i > u p : f &X&X&X&X&X&X&X&X&X",
"&X&X&X&X&X&X&X&X&X&X&X&X&X&X&X&X&X&X&X&X&X&X&X&X&X&Xr t c { W j u p c p % : &X&X&X&X&X&X&X&X&X",
"&X&X&X&X&X&X&X&X&X&X&X&X&X&X&X&X&X&X&X&X&X&X&X&X&X&Xc c d M n j p f f u , : , &X&X&X&X&X&X&X&X",
"&X&X&X&X&X&X&X&X&X&X&X&X&X&X&X&X&X&X&X&X&X&X&X&X&X&XV v e j j W n u > u u , q &X&X&X&X&X&X&X&X",
"&X&X&X&X&X&X&X&X&X&X&X&X&X&X&X&X&X&X&X&X&X&X&X&X&X&Xv d 7 d W ~ C f > u a = s &X&X&X&X&X&X&X&X",
"&X&X&X&X&X&X&X&X&X&X&X&X&X&X&X&X&X&X&X&X&X&X&X&X&X .7 7 + d | ~ E f 7 p p @ p &X&X&X&X&X&X&X&X",
"&X&X&X&X&X&X&X&X&X&X&X&X&X&X&X&X&X&X&X&X&X&X&X&X&X&Xt + - d E M f j d d - . p &X&X&X&X&X&X&X&X",
"&X&X&X&X&X&X&X&X&X&X&X&X&X&X&X&X&X&X&X&X&X&X&X&X&X&X:.& j d ; 8 7 j j f = + 7 &X&X&X&X&X&X&X&X",
"&X&X&X&X&X&X&X&X&X&X&X&X&X&X&X&X&X&X&X&X&X&X&X&X&X&X .j d p 8 - M j j W u ; = &X&X&X&X&X&X&X&X",
"&X&X&X&X&X&X&X&X&X&X&X&X&X&X&X&X&X&X&X&X&X&X&X&X&X&X{ d : u ; 8 j j j a u u &X&X&X&X&X&X&X&X&X",
"&X&X&X&X&X&X&X&X&X&X&X&X&X&X&X&X&X&X&X&X&X&X&X&X&X&X .e u f @ f C f 7 7   M &X&X&X&X&X&X&X&X&X",
"&X&X&X&X&X&X&X&X&X&X&X&X&X&X&X&X&X&X&X&X&X&X&X&X&X&XV > k n u f M M f = - n &X&X&X&X&X&X&X&X&X",
"&X&X&X&X&X&X&X&X&X&X&X&X&X&X&X&X&X&X&X&X&X&X&X&X&X&XC f N u i Z C E f 7 & n &X&X@ X &X&X&X&X&X",
"&X&X&X&X&X&X&X&X&X&X&X&X&X&X&X&X&X&X&X&X&X&X&X&X&X&Xj f g p k C E j f 7 : , = X X > &X&X&X&X&X",
"&X&X&X&X&X&X&X&X&X&X&X&X&X&X&X&X&X&X&X&X&X&X&X&X&X&X&X: : f M n j n ; > u s , = p u . &X&X&X&X",
"&X&X&X&X&X&X&X&X&X&X&X&X&X&X&X&X&X&X&X&X&X&X&X&X&X&X&Xw : Z Z k u + e q n f : : > % ,   &X&X&X",
"&X&X&X&X&X&X&X&X&X&X&X&X&X&X&X&X&X&X&X&X&X&X&X&X&X&X&Xk , g f a f , w k } n , . = : , & &X&X&X",
"&X&X&X&X&X&X&X&X&X&X&X&X&X&X&X&X&X&X&X&X&X&X&X&X&X&X&Xn = > > w > u : s g . , &X&X  X =   &X&X",
"&X&X&X&X&X&X&X&X&X&X&X&X&X&X&X&X&X&X&X&X&X&X&X&X&X&X&Xn q e 5 ; : : 5 u . X   &X&X&X&X    &X&X",
"&X&X&X&X&X&X&X&X&X&X&X&X&X&X&X&X&X&X&X&X&X&X&X&X&X&X&XM f w > . , &X&X&X&X&X&X&X&X&X&X&X&X&X&X",
"&X&X&X&X&X&X&X&X&X&X&X&X&X&X&X&X&X&X&X&X&X&X&X&X&X&Xo Z M > > .   &X&X&X&X&X&X&X&X&X&X&X&X&X&X",
"&X&X&X&X&X&X&X&X&X&X&X&X&X&X&X&X&X&X&X&X&X&X&X&X&X&X: n p V s ,   &X&X&X&X&X&X&X&X&X&X&X&X&X&X",
"&X&X&X&X&X&X&X&X&X&X&X&X&X&X&X&X&X&X&X&X&X&X&X&X&X&X. Z } +.C X &X&X&X&X&X&X&X&X&X&X&X&X&X&X&X",
"&X&X&X&X&X&X&X&X&X&X&X&X&X&X&X&X&X&X&X&X&X&X&X&X&X&Xu p +.+.>   &X&X&X&X&X&X&X&X&X&X&X&X&X&X&X",
"&X&X&X&X&X&X&X&X&X&X&X&X&X&X&X&X&X&X&X&X&X&X&X&X&X  , k +.Z ,   &X&X&X&X&X&X&X&X&X&X&X&X&X&X&X",
"&X&X&X&X&X&X&X&X&X&X&X&X&X&X&X&X&X&X&X&X&X&X&X&X&X# > n [ a .   &X&X&X&X&X&X&X&X&X&X&X&X&X&X&X",
"&X&X&X&X&X&X&X&X&X&X&X&X&X&X&X&X&X&X&X&X&X&X&X&X&X. : B n , X &X&X&X&X&X&X&X&X&X&X&X&X&X&X&X&X",
"&X&X&X&X&X&X&X&X&X&X&X&X&X&X&X&X&X&X&X&X&X&X&X&X&X. = k f =   &X&X&X&X&X&X&X&X&X&X&X&X&X&X&X&X",
"&X&X&X&X&X&X&X&X&X&X&X&X&X&X&X&X&X&X&X&X&X&X&X&X&XX . M n X   &X&X&X&X&X&X&X&X&X&X&X&X&X&X&X&X",
"&X&X&X&X&X&X&X&X&X&X&X&X&X&X&X&X&X&X&X&X&X&X&X&X&X  X N       &X&X&X&X&X&X&X&X&X&X&X&X&X&X&X&X",
"&X&X&X&X&X&X&X&X&X&X&X&X&X&X&X&X&X&X&X&X&X&X&X&X  . @ u     X &X&X&X&X&X&X&X&X&X&X&X&X&X&X&X&X",
"&X&X&X&X&X&X&X&X&X&X&X&X&X&X&X&X&X&X&X&X&X&X  . . . X . .   &X&X&X&X&X&X&X&X&X&X&X&X&X&X&X&X&X",
"&X&X&X&X&X&X&X&X&X&X&X&X&X&X&X&X&X&X&X&X&X&X    . X . X   &X&X&X&X&X&X&X&X&X&X&X&X&X&X&X&X&X&X",
"&X&X&X&X&X&X&X&X&X&X&X&X&X&X&X&X&X&X&X&X&X&X&X&X  . .     &X&X&X&X&X&X&X&X&X&X&X&X&X&X&X&X&X&X",
"&X&X&X&X&X&X&X&X&X&X&X&X&X&X&X&X&X&X&X&X&X&X&X&X&X&X      &X&X&X&X&X&X&X&X&X&X&X&X&X&X&X&X&X&X",
"&X&X&X&X&X&X&X&X&X&X&X&X&X&X&X&X&X&X&X&X&X&X&X&X&X&X&X&X&X&X&X&X&X&X&X&X&X&X&X&X&X&X&X&X&X&X&X",
"&X&X&X&X&X&X&X&X&X&X&X&X&X&X&X&X&X&X&X&X&X&X&X&X&X&X&X&X&X&X&X&X&X&X&X&X&X&X&X&X&X&X&X&X&X&X&X"
};
