/* XPM */
static char *result[] = {
/* columns rows colors chars-per-pixel */
"51 64 187 2 ",
"   c #030201",
".  c #090400",
"X  c #0D0B06",
"o  c #07060A",
"O  c #0B0B0B",
"+  c #080609",
"@  c #1A0C07",
"#  c #150E0D",
"$  c #170A08",
"%  c #0F110E",
"&  c #171006",
"*  c #13120D",
"=  c #1C130C",
"-  c #0D0D11",
";  c #110E13",
":  c #141214",
">  c #1C1414",
",  c #1C1A16",
"<  c #161519",
"1  c #19161A",
"2  c #1C1B1C",
"3  c #171A13",
"4  c #390A00",
"5  c #221412",
"6  c #241914",
"7  c #281E16",
"8  c #221D1D",
"9  c #2B1F1B",
"0  c #1C211B",
"q  c #23211D",
"w  c #2C241D",
"e  c #2F281E",
"r  c #2B2117",
"t  c #36251D",
"y  c #1E1E21",
"u  c #231D22",
"i  c #1F2120",
"p  c #242323",
"a  c #2A2624",
"s  c #2B2A25",
"d  c #252529",
"f  c #29262A",
"g  c #272929",
"h  c #2C2C2C",
"j  c #272926",
"k  c #342B25",
"l  c #332E2A",
"z  c #3A2E2B",
"x  c #382924",
"c  c #2E302F",
"v  c #33322D",
"b  c #3C332C",
"n  c #343025",
"m  c #2F2D32",
"M  c #332D31",
"N  c #2F3130",
"B  c #333333",
"V  c #393631",
"C  c #363836",
"Z  c #3A3934",
"A  c #353539",
"S  c #3B373C",
"D  c #3B3B3B",
"F  c #50241B",
"G  c #572F27",
"H  c #592D22",
"J  c #43372E",
"K  c #4D342D",
"L  c #50352E",
"P  c #423933",
"I  c #4D3C37",
"U  c #423E3A",
"Y  c #4E3E38",
"T  c #453737",
"R  c #523F3A",
"E  c #563B35",
"W  c #62362B",
"Q  c #693F33",
"!  c #3F4239",
"~  c #44443E",
"^  c #4B423C",
"/  c #47453A",
"(  c #57423A",
")  c #62463D",
"_  c #3C3C41",
"`  c #403F43",
"'  c #434342",
"]  c #4D4542",
"[  c #464749",
"{  c #4B494D",
"}  c #494A44",
"|  c #534242",
" . c #5F4840",
".. c #544C4B",
"X. c #5B4B4A",
"o. c #5D534D",
"O. c #4E4E51",
"+. c #524F54",
"@. c #545155",
"#. c #5A5A5D",
"$. c #5B5758",
"%. c #614F4B",
"&. c #604D47",
"*. c #62544C",
"=. c #6B554E",
"-. c #79554A",
";. c #6B5E55",
":. c #6C5D5C",
">. c #645554",
",. c #725F58",
"<. c #6F655B",
"1. c #7A655D",
"2. c #77675C",
"3. c #6A6362",
"4. c #66666B",
"5. c #7C6B64",
"6. c #776768",
"7. c #766768",
"8. c #79797E",
"9. c #81554C",
"0. c #835D50",
"q. c #886358",
"w. c #886760",
"e. c #886F68",
"r. c #866E68",
"t. c #83736C",
"y. c #88746D",
"u. c #94786D",
"i. c #8D7775",
"p. c #8C7A74",
"a. c #837B7A",
"s. c #947B73",
"d. c #907C7B",
"f. c #A27D72",
"g. c #8D8077",
"h. c #93837E",
"j. c #A6857F",
"k. c #B4887F",
"l. c #7D7B81",
"z. c #888884",
"x. c #9A8582",
"c. c #968982",
"v. c #9D8B84",
"b. c #938683",
"n. c #A18582",
"m. c #A48A83",
"M. c #A48E8B",
"N. c #A98D89",
"B. c #B28983",
"V. c #A4918B",
"C. c #AB938D",
"Z. c #B4998F",
"A. c #B2978E",
"S. c #A59290",
"D. c #AD9B93",
"F. c #B39A95",
"G. c #BC9C92",
"H. c #B69D9B",
"J. c #B99D99",
"K. c #B5A69D",
"L. c #BAA49D",
"P. c #B2A197",
"I. c #BFA4A0",
"U. c #BAABA4",
"Y. c #C19D93",
"T. c #C89D94",
"R. c #CFA79F",
"E. c #C7A49E",
"W. c #D0AA9F",
"Q. c #C5AAA4",
"!. c #C9AEAB",
"~. c #C8ADA4",
"^. c #C6B4A9",
"/. c #CBB3AB",
"(. c #CDBBAF",
"). c #DAB3AA",
"_. c #CBBBB4",
"`. c #C9B7B4",
"'. c #DEBCB2",
"]. c #E0BAB1",
"[. c #D9C2BA",
"{. c #E1C0B7",
"}. c #DFC7C3",
"|. c #EDD5CB",
" X c #F1D0C7",
".X c #EBDAD3",
"XX c None",
/* pixels */
"XXXXXXXXXXXXXXXXXXXXXXXXXXXXXXXXXXXXXXXXXXXXXXXXXXXXXXXXXXXXXXXXXXXXXXXXXXXXXXXXXXXXXXXXXXXXXXXXXXXXXX",
"XXXXXXXXXXXXXXXXXXXXXXXXXXXXXXXXXXXXXXXXXXXXXXXXXXXXa.XXXXXXXXXXXXXXXXXXXXXXXXXXXXXXXXXXXXXXXXXXXXXXXX",
"XXXXXXXXXXXXXXXXXXXXXXXXXXXXXXXXXXXXXXXXXXXXXXXXXX3.] ] :.7.>.XXXXXXXXXXXXXXXXXXXXXXXXXXXXXXXXXXXXXXXX",
"XXXXXXXXXXXXXXXXXXXXXXXXXXXXXXXXXXXXXXXXXXXXXXXX6.I I R %. .` >.XXXXXXXXXXXXXXXXXXXXXXXXXXXXXXXXXXXXXX",
"XXXXXXXXXXXXXXXXXXXXXXXXXXXXXXXXXXXXXXXXXXXXXXXXp.p.A.~.L.1.=.( ( XXXXXXXXXXXXXXXXXXXXXXXXXXXXXXXXXXXX",
"XXXXXXXXXXXXXXXXXXXXXXXXXXXXXXXXXXXXXXXXXXXXXXXXP.[. X].].G.) ( Y XXXXXXXXXXXXXXXXXXXXXXXXXXXXXXXXXXXX",
"XXXXXXXXXXXXXXXXXXXXXXXXXXXXXXXXXXXXXXXXXXXXXXXXZ.E.W.f.f.G.-.( Y XXXXXXXXXXXXXXXXXXXXXXXXXXXXXXXXXXXX",
"XXXXXXXXXXXXXXXXXXXXXXXXXXXXXXXXXXXXXXXXXXXXXXXXu.q.-.W Q q.-.) ,.XXXXXXXXXXXXXXXXXXXXXXXXXXXXXXXXXXXX",
"XXXXXXXXXXXXXXXXXXXXXXXXXXXXXXXXXXXXXXXXXXXXXXXX) G F 4 F 0.j.( 5.XXXXXXXXXXXXXXXXXXXXXXXXXXXXXXXXXXXX",
"XXXXXXXXXXXXXXXXXXXXXXXXXXXXXXXXXXXXXXXXXXXXXXXXq.k.k.-.T.).G.m.r.t.XXXXXXXXXXXXXXXXXXXXXXXXXXXXXXXXXX",
"XXXXXXXXXXXXXXXXXXXXXXXXXXXXXXXXXXXXXXXXXXXXXXXXm.Y.).R.].].Z.A.5.=.o.a XXXXXXXXXXXXXXXXXXXXXXXXXXXXXX",
"XXXX.   . X # X , s q h q , 8 q 9 z x J XXXXXXXXj.Q.).j.G.W.E.r.V.*.7 &   X XXXXXXXXXXXXXXXXXXXXXXXXXX",
"XXXX3 %             . . . * X . 6 5 z @ X.XXXXXXw.m.G.Q.^.~.F.y._.<.& = e * X XXXXXXXXXXXXXXXXXXXXXXXX",
"XXXXZ ! } } } ~ ] U ~ U P V V . $ 6 @ x M.M.XXE K C. X/.L.1.p.[.K.b 7 n v s 0   XXXXXXXXXXXXXXXXXXXXXX",
"XXXXXXXXXXXXXXXXXXXXXXXXXXXXY P z I &.i.J.!.j.L t s.(.^.P.v._..Xt.r e / ! ! s   XXXXXXXXXXXXXXXXXXXXXX",
"XXXXXXXXXXXXXXXXXXXXXXXXXXXXXXb.h.M.Q.F.I.!.s.L L 2.2.;.g.h._.h./ e e ^ v ! !   XXXXXXXXXXXXXXXXXXXXXX",
"XXXXXXXXXXXXXXXXXXXXXXXXXXXXXXXX}./.Q.Q.I./.D.=.2.;.J J J o.X.s k s n s Z c 0   XXXXXXXXXXXXXXXXXXXXXX",
"XXXXXXXXXXXXXXXXXXXXXXXXXXXXXXXX!.N.H.N.C.^.c.I.D.;.k ^ P q 8 l s l v v v v p XXXXXXXXXXXXXXXXXXXXXXXX",
"XXXXXXXXXXXXXXXXXXXXXXXXXXXXXXH.m.n.F.v.x.I.t.D.U.;.r P ] U v v b Z Z B h j 1 XXXXXXXXXXXXXXXXXXXXXXXX",
"XXXXXXXXXXXXXXXXXXXXXXXXXXXXXXh.x.V.F.M.h.M.%.*.c.o.w b ^ ~ Z b V V v Z B j 1 XXXXXXXXXXXXXXXXXXXXXXXX",
"XXXXXXXXXXXXXXXXXXXXXXXXXXXXXXXXi.x.S.M.S.d.k 9 X.P w l l s s v Z c s j i +   XXXXXXXXXXXXXXXXXXXXXXXX",
"XXXXXXXXXXXXXXXXXXXXXXXXXXXXXXXXXX`.x.:.6.T = 5 6 8 2 q a h s s s q s q i O O XXXXXXXXXXXXXXXXXXXXXXXX",
"XXXXXXXXXXXXXXXXXXXXXXXXXXXXXXXXXXXX6.5 T $ > # # 6 a k s p 2 h j j p 2 2 % 3 XXXXXXXXXXXXXXXXXXXXXXXX",
"XXXXXXXXXXXXXXXXXXXXXXXXXXXXXXXXXXXXa.X z 6 a 9 8 l B p p a a a p j 2 2 1 0 1 XXXXXXXXXXXXXXXXXXXXXXXX",
"XXXXXXXXXXXXXXXXXXXXXXXXXXXXXXXXXXXXXX] # . ; u ..XX$.+ h D ' h h s i 1 0 < : XXXXXXXXXXXXXXXXXXXXXXXX",
"XXXXXXXXXXXXXXXXXXXXXXXXXXXXXXXXXXXXXXXX3.@...XXXXXX` 2 B D A B B p 2 3 i % y XXXXXXXXXXXXXXXXXXXXXXXX",
"XXXXXXXXXXXXXXXXXXXXXXXXXXXXXXXXXXXXXXXXXXXXXXXXXXXXXXp h ' ! B s j p % g 1 o XXXXXXXXXXXXXXXXXXXXXXXX",
"XXXXXXXXXXXXXXXXXXXXXXXXXXXXXXXXXXXXXXXXXXXXXXXXXXXX[ y B _ D h c j 2 : j : O XXXXXXXXXXXXXXXXXXXXXXXX",
"XXXXXXXXXXXXXXXXXXXXXXXXXXXXXXXXXXXXXXXXXXXXXXXXXXXX{ y B g B B j 0 2 0 p +   XXXXXXXXXXXXXXXXXXXXXXXX",
"XXXXXXXXXXXXXXXXXXXXXXXXXXXXXXXXXXXXXXXXXXXXXXXXXXXXXXy B c D B c j 2 % 2 d : O XXXXXXXXXXXXXXXXXXXXXX",
"XXXXXXXXXXXXXXXXXXXXXXXXXXXXXXXXXXXXXXXXXXXXXXXXXXXXXXd a f U D c s 0 0 0 p 2   XXXXXXXXXXXXXXXXXXXXXX",
"XXXXXXXXXXXXXXXXXXXXXXXXXXXXXXXXXXXXXXXXXXXXXXXXXXXX+.i : : h h C c p q p j h   XXXXXXXXXXXXXXXXXXXXXX",
"XXXXXXXXXXXXXXXXXXXXXXXXXXXXXXXXXXXXXXXXXXXXXXXXXXXXO.  2 p : v ! g h g u 2 < O XXXXXXXXXXXXXXXXXXXXXX",
"XXXXXXXXXXXXXXXXXXXXXXXXXXXXXXXXXXXXXXXXXXXXXXXXXXXX+.; < 2 , p c c h g a 1 : : XXXXXXXXXXXXXXXXXXXXXX",
"XXXXXXXXXXXXXXXXXXXXXXXXXXXXXXXXXXXXXXXXXXXXXXXXXXXXXX< < a < : j c N N B 1 ; 8 XXXXXXXXXXXXXXXXXXXXXX",
"XXXXXXXXXXXXXXXXXXXXXXXXXXXXXXXXXXXXXXXXXXXXXXXXXXXXXX; < d * O j N N C M u 1 u XXXXXXXXXXXXXXXXXXXXXX",
"XXXXXXXXXXXXXXXXXXXXXXXXXXXXXXXXXXXXXXXXXXXXXXXXXXXXXXd < < O 1 h N h B 8 2 a XXXXXXXXXXXXXXXXXXXXXXXX",
"XXXXXXXXXXXXXXXXXXXXXXXXXXXXXXXXXXXXXXXXXXXXXXXXXXXXXX_ < : < g c B h B : < M XXXXXXXXXXXXXXXXXXXXXXXX",
"XXXXXXXXXXXXXXXXXXXXXXXXXXXXXXXXXXXXXXXXXXXXXXXXXXXXXX#.< d h N B B N B 8 ; f XXXXu y XXXXXXXXXXXXXXXX",
"XXXXXXXXXXXXXXXXXXXXXXXXXXXXXXXXXXXXXXXXXXXXXXXXXXXXXX4.< m A B B N h m B # 1 u u 1   < XXXXXXXXXXXXXX",
"XXXXXXXXXXXXXXXXXXXXXXXXXXXXXXXXXXXXXXXXXXXXXXXXXXXXXXl.- h A ~ C N g h f u h u 1 u u 1 T XXXXXXXXXXXX",
"XXXXXXXXXXXXXXXXXXXXXXXXXXXXXXXXXXXXXXXXXXXXXXXXXXXXXXXXy d ` D C h m h a B M u u u u u u B XXXXXXXXXX",
"XXXXXXXXXXXXXXXXXXXXXXXXXXXXXXXXXXXXXXXXXXXXXXXXXXXXXXXXS i A s h B g N h D m u u 8 # 1 f u +.XXXXXXXX",
"XXXXXXXXXXXXXXXXXXXXXXXXXXXXXXXXXXXXXXXXXXXXXXXXXXXXXXXX#.< B B d g B B D p h p XXXXXXu     h XXXXXXXX",
"XXXXXXXXXXXXXXXXXXXXXXXXXXXXXXXXXXXXXXXXXXXXXXXXXXXXXXXXXX: * O p a s M 2 < < XXXXXXXXXXXXXXXXXXXXXXXX",
"XXXXXXXXXXXXXXXXXXXXXXXXXXXXXXXXXXXXXXXXXXXXXXXXXXXXXXXXXX! * 3 8 p h B M XXXXXXXXXXXXXXXXXXXXXXXXXXXX",
"XXXXXXXXXXXXXXXXXXXXXXXXXXXXXXXXXXXXXXXXXXXXXXXXXXXXXXXXXXz.: 0 h h p 8 XXXXXXXXXXXXXXXXXXXXXXXXXXXXXX",
"XXXXXXXXXXXXXXXXXXXXXXXXXXXXXXXXXXXXXXXXXXXXXXXXXXXXXXXXXXXXs B B h f 2 B XXXXXXXXXXXXXXXXXXXXXXXXXXXX",
"XXXXXXXXXXXXXXXXXXXXXXXXXXXXXXXXXXXXXXXXXXXXXXXXXXXXXXXXXXXXO.o D B s 0 : XXXXXXXXXXXXXXXXXXXXXXXXXXXX",
"XXXXXXXXXXXXXXXXXXXXXXXXXXXXXXXXXXXXXXXXXXXXXXXXXXXXXXXXXXXX8.y D A h d 1 B XXXXXXXXXXXXXXXXXXXXXXXXXX",
"XXXXXXXXXXXXXXXXXXXXXXXXXXXXXXXXXXXXXXXXXXXXXXXXXXXXXXXXXXXXXXy d [ B : 3 p XXXXXXXXXXXXXXXXXXXXXXXXXX",
"XXXXXXXXXXXXXXXXXXXXXXXXXXXXXXXXXXXXXXXXXXXXXXXXXXXXXXXXXXXXXXA 2 g A C O B XXXXXXXXXXXXXXXXXXXXXXXXXX",
"XXXXXXXXXXXXXXXXXXXXXXXXXXXXXXXXXXXXXXXXXXXXXXXXXXXXXXXXXXXXXX#.i m ' A f 2 8 XXXXXXXXXXXXXXXXXXXXXXXX",
"XXXXXXXXXXXXXXXXXXXXXXXXXXXXXXXXXXXXXXXXXXXXXXXXXXXXXXXXXXXXXXXXh h D ! h : p XXXXXXXXXXXXXXXXXXXXXXXX",
"XXXXXXXXXXXXXXXXXXXXXXXXXXXXXXXXXXXXXXXXXXXXXXXXXXXXXXXXXXXXXXXX[ d A A h y < XXXXXXXXXXXXXXXXXXXXXXXX",
"XXXXXXXXXXXXXXXXXXXXXXXXXXXXXXXXXXXXXXXXXXXXXXXXXXXXXXXXXXXXXXXXO.` A N D : u XXXXXXXXXXXXXXXXXXXXXXXX",
"XXXXXXXXXXXXXXXXXXXXXXXXXXXXXXXXXXXXXXXXXXXXXXXXXXXXXXXXXXXXXXXXXX@.m y y < y XXXXXXXXXXXXXXXXXXXXXXXX",
"XXXXXXXXXXXXXXXXXXXXXXXXXXXXXXXXXXXXXXXXXXXXXXXXXXXXXXXXXXXXXXXXXXl.y o o   ; XXXXXXXXXXXXXXXXXXXXXXXX",
"XXXXXXXXXXXXXXXXXXXXXXXXXXXXXXXXXXXXXXXXXXXXXXXXXXXXXXXXXXXXXXXXXX4.d < < -   < XXXXXXXXXXXXXXXXXXXXXX",
"XXXXXXXXXXXXXXXXXXXXXXXXXXXXXXXXXXXXXXXXXXXXXXXXXXXXXXXXXXXXXXXX: - g d y o o 2 XXXXXXXXXXXXXXXXXXXXXX",
"XXXXXXXXXXXXXXXXXXXXXXXXXXXXXXXXXXXXXXXXXXXXXXXXXXXXXXXXXXXXXXXXA f m S _ _ [ f XXXXXXXXXXXXXXXXXXXXXX",
"XXXXXXXXXXXXXXXXXXXXXXXXXXXXXXXXXXXXXXXXXXXXXXXXXXXXXXXXXXXXXXXXXXXXXXXXXXXXXXXXXXXXXXXXXXXXXXXXXXXXXX",
"XXXXXXXXXXXXXXXXXXXXXXXXXXXXXXXXXXXXXXXXXXXXXXXXXXXXXXXXXXXXXXXXXXXXXXXXXXXXXXXXXXXXXXXXXXXXXXXXXXXXXX",
"XXXXXXXXXXXXXXXXXXXXXXXXXXXXXXXXXXXXXXXXXXXXXXXXXXXXXXXXXXXXXXXXXXXXXXXXXXXXXXXXXXXXXXXXXXXXXXXXXXXXXX"
};
