/* XPM */
static char *_81dddbc034942bbfd8c7a1a23ffa3a88VNPZq6X4Q037Sw3[] = {
/* columns rows colors chars-per-pixel */
"64 64 194 2 ",
"   c #ADD8E6",
".  c #030203",
"X  c #0A0404",
"o  c #0A0609",
"O  c #060B0B",
"+  c #0B0B0C",
"@  c #0D0807",
"#  c #140101",
"$  c #120D0C",
"%  c #1B0D0B",
"&  c #1B0904",
"*  c #0F100B",
"=  c #11110F",
"-  c #1C100A",
";  c #0D0E11",
":  c #110E12",
">  c #0E1113",
",  c #141314",
"<  c #1A1617",
"1  c #161815",
"2  c #1A1A16",
"3  c #161519",
"4  c #1A161B",
"5  c #171A19",
"6  c #1C1C1D",
"7  c #240B06",
"8  c #2C0B01",
"9  c #3C0804",
"0  c #25140C",
"q  c #2B150C",
"w  c #2D1708",
"e  c #341A0B",
"r  c #221611",
"t  c #221D1C",
"y  c #3A1C13",
"u  c #1F201C",
"i  c #22211F",
"p  c #2D241F",
"a  c #3D2216",
"s  c #31281F",
"d  c #1E1C20",
"f  c #221E22",
"g  c #1F2020",
"h  c #232324",
"j  c #292624",
"k  c #272A25",
"l  c #292925",
"z  c #262529",
"x  c #292629",
"c  c #2C2B2C",
"v  c #3C2A24",
"b  c #322D2E",
"n  c #3D2E2C",
"m  c #392722",
"M  c #2E312C",
"N  c #31322E",
"B  c #2E2D31",
"V  c #322E32",
"C  c #2F3030",
"Z  c #333334",
"A  c #3B3636",
"S  c #373835",
"D  c #3A3836",
"F  c #363638",
"G  c #3A373A",
"H  c #363A39",
"J  c #3B3B3C",
"K  c #44180C",
"L  c #581F06",
"P  c #59240C",
"I  c #482719",
"U  c #562B16",
"Y  c #412C27",
"T  c #4F2F21",
"R  c #46342A",
"E  c #533425",
"W  c #5C362C",
"Q  c #5B392D",
"!  c #593424",
"~  c #4A3E3B",
"^  c #5B3A31",
"/  c #573D35",
"(  c #643D2B",
")  c #6A3E2C",
"_  c #41413F",
"`  c #5E463D",
"'  c #5F4336",
"]  c #68432E",
"[  c #7A432A",
"{  c #63453B",
"}  c #644A3D",
"|  c #6D4B3C",
" . c #694634",
".. c #734B39",
"X. c #754732",
"o. c #3D3D40",
"O. c #423F41",
"+. c #3F4142",
"@. c #434244",
"#. c #4B4344",
"$. c #484649",
"%. c #4A494C",
"&. c #5F4C42",
"*. c #5E504C",
"=. c #6A4C43",
"-. c #664A45",
";. c #734A42",
":. c #67534B",
">. c #6B534B",
",. c #645547",
"<. c #73544B",
"1. c #795B4A",
"2. c #665B56",
"3. c #735E55",
"4. c #6C605A",
"5. c #796256",
"6. c #776962",
"7. c #824A29",
"8. c #89523C",
"9. c #8A5B45",
"0. c #835849",
"q. c #8A634C",
"w. c #956247",
"e. c #866152",
"r. c #896958",
"t. c #936C5E",
"y. c #9C6D57",
"u. c #9E7154",
"i. c #9C725E",
"p. c #97705D",
"a. c #AC7553",
"s. c #A77759",
"d. c #B57E5D",
"f. c #84746D",
"g. c #957463",
"h. c #947C6C",
"j. c #9D7A6B",
"k. c #9A7566",
"l. c #977D71",
"z. c #A17263",
"x. c #A77F75",
"c. c #97826E",
"v. c #9F8475",
"b. c #AC8A6C",
"n. c #A6806F",
"m. c #BB8465",
"M. c #B4846E",
"N. c #BB876D",
"B. c #BB8C6D",
"V. c #B38867",
"C. c #AA8676",
"Z. c #B38574",
"A. c #B58974",
"S. c #BC8B73",
"D. c #B68B7C",
"F. c #B99278",
"G. c #C48A6A",
"H. c #C98C68",
"J. c #C9906F",
"K. c #C38D71",
"L. c #C49A7C",
"P. c #C89375",
"I. c #D29471",
"U. c #D79D7E",
"Y. c #D8A07E",
"T. c #B49383",
"R. c #BC9583",
"E. c #B09D8B",
"W. c #BE9689",
"Q. c #BFA38A",
"!. c #B8AA9C",
"~. c #C59D8E",
"^. c #C99F88",
"/. c #D19F89",
"(. c #CFA283",
"). c #CCA08B",
"_. c #C6AA8F",
"`. c #D8A687",
"'. c #C5A690",
"]. c #D8AA95",
"[. c #DDB19B",
"{. c #DEB89C",
"}. c #E0AA85",
"|. c #E1B18F",
" X c #E6B39A",
".X c #E8BA96",
"XX c #C1B0A0",
"oX c #DDBAA7",
"OX c #D5B8A2",
"+X c #E3B5A4",
"@X c #ECC6AE",
"#X c #F9C7A3",
"$X c #E2C7B3",
"%X c #F7D0BE",
/* pixels */
"                                                                                                                                ",
"                                                                                                                                ",
"                                                                                                                                ",
"                                                                                                                                ",
"                                                                                  } / ` :.>.:.-.                                ",
"                                                                                <.' E { <.<.-.^ /                               ",
"                                                                                j.C.D.T.W.~.k.;.Q ^ =.                          ",
"                                                                                T.OX%X+X[.+XZ.0.) W Q                           ",
"                                                                                g.R.[.Z.y.s.w.8.X.( !                           ",
"                                                                                ( ] ) K 9 P [ 8.X.X...                          ",
"                                                                                ] X.X.P P 7.a.m.w.9.q.r.                        ",
"                                                                                0.i.M.s.a.I.}.`.m.u.q.1.3.6.                    ",
"                                F J J     F H Z                                 j.F.].`.|.#X.X`.B.s.r.} / #.#.                  ",
"                          1 + + 1 6 5 > + O > , o + 4 t < X # % m Y Y           t.n.R.S.L.|.(.B.b.b.h.R & X , h z B             ",
"                          + + + O O O + ; > , 1 < , $ $ % % & # # 7 y {       | ! t.oX@X{.L.b.b._.'.c.R - t c Z h , O           ",
"                                                        0 7 q y a ^ e.Z.R.g.Q I T g.$XoX'.F.Q.OX$XE.,.v j J @.J B 3 .           ",
"                                                          a { e.p.A.).]./.A...I Q r.T.v.h.h.E.XX!.6.s p N _ @.+.J g .           ",
"                                                            ~.].[. X X`.U.`.i.| =.=.{ ` &.:.3.4.2.A 2 l N M S J J h .           ",
"                                                            ).(.N.K.Y.U.I.m.P.R.l.>.m v Y n n V Z Z S G H Z N M c 5 .           ",
"                                                          D.^.`.K.G.H.I.H.a.A.T.h.:.v R R b G @.J J o.H S M M k 1 = 1           ",
"                                                          j.n.S.N.K.J.J.d.w.1.5.f.*.p A O.G G J @.+.J F Z M c k = , h           ",
"                                                            t.z.M.S.S.N.u.X.I v 2.#.t b J J b c F S N M c c l i 1 1 l           ",
"                                                                D.z.9.y.q.E q r b b f t i h h h i i h i i 6 6 4 , 2             ",
"                                                                x. .K U I w 0 t < h Z 6 , 6 h h 6 2 1 6 6 1 4 4 1 4             ",
"                                                                  I 8 e e q % $ 4 f f f h F J J Z h 6 h i 6 u 6 + +             ",
"                                                                    q 0 0 r $ o     d f c J J G G C h h h 6 h h , :             ",
"                                                                        $ $           f h V c c G F z h h 4 d h 4 d             ",
"                                                                                      4 z @.O.J @.J x 6 6 z h d ; 3             ",
"                                                                                      : 6 F J J J Z h 6 6 h h d , 3 B           ",
"                                                                                      f h c Z G G F Z h 4 6 h h , , 6           ",
"                                                                                      c x h c S J J S x 6 1 i h 4 , ,           ",
"                                                                                      f t f c S J J G Z l 6 i h h 4 ,           ",
"                                                                                      , $ , i c S J _ S Z N c h 6 , +           ",
"                                                                                      X X 2 i j l l c S S l u 2 1 1 <           ",
"                                                                                      X $ j h 2 1 2 i M M h i u 1 1 2           ",
"                                                                                      @ < Z h = * 2 k h h c S N 1 = 1           ",
"                                                                                      . , c 6 + 2 l Z h h N J G 1 1 x           ",
"                                                                                      X , h t 6 x Z S G G Z 6 , 4 h             ",
"                                                                                      o + 1 h V Z G J G F c h 4 , h %.J 4 + 4   ",
"                                                                                      < : : c O.F G J Z c h z h , 4 c h 4 3 d z ",
"                                                                                        h 4 F $.G F F B z 6 3 3 h 4 ; + 6 F B h ",
"                                                                                      4 d c F G Z c x x h 6 h F @.G h 3 , , d z ",
"                                                                                      , 4 B Z Z B x h d 4 6 c J %.@.B h h G F Z ",
"                                                                                    4 ; 3 x x h h f 4 h x c Z F F c 6 6 x       ",
"                                                                                    + , 6 h f 6 6 , + h B Z Z c h , o 1         ",
"                                                                                    . h B h x z 3 o . + 3 6 h h                 ",
"                                                                                  f f Z G B c h , +                             ",
"                                                                                  z B J @.o.x , 1                               ",
"                                                                                , h Z o.@.G 6 o 6                               ",
"                                                                                + d F J G x , o                                 ",
"                                                                                o x $.J Z Z 6 +                                 ",
"                                                                                < c $.@.F f , +                                 ",
"                                                                              Z 6 h Z J b $ o                                   ",
"                                                                              D h 6 h x 6 . .                                   ",
"                                                                        o o 6 c j h 6 1 + o                                     ",
"                                                                          . + 1 : , 4 $ +                                       ",
"                                                                              1 , + o . .                                       ",
"                                                                                  + . . .                                       ",
"                                                                                                                                ",
"                                                                                                                                ",
"                                                                                                                                ",
"                                                                                                                                ",
"                                                                                                                                ",
"                                                                                                                                "
};
