/* XPM */
static char *_4a80fb096b24583b382522ac8a4f00aUsxajUiyHI23r37z[] = {
/* columns rows colors chars-per-pixel */
"64 64 183 2 ",
"   c None",
".  c #020302",
"X  c #050508",
"o  c #0B0C0B",
"O  c #170600",
"+  c #120C0D",
"@  c #0B110F",
"#  c #11120F",
"$  c #050C12",
"%  c #0D0E12",
"&  c #130E12",
"*  c #0F1211",
"=  c #0D141A",
"-  c gray8",
";  c #1A1516",
":  c #151915",
">  c #1A1A16",
",  c #161B1A",
"<  c #1B1C1B",
"1  c #220B07",
"2  c #330D00",
"3  c #291507",
"4  c #24120D",
"5  c #361100",
"6  c #271C15",
"7  c #351F14",
"8  c #1E211E",
"9  c #22221D",
"0  c #3E251E",
"q  c #0F1421",
"w  c #191E22",
"e  c #211F23",
"r  c #152022",
"t  c #1D2323",
"y  c #1D2729",
"u  c #1C2B2D",
"i  c #232423",
"p  c #2C2424",
"a  c #262926",
"s  c #292926",
"d  c #232529",
"f  c #29272A",
"g  c #252A29",
"h  c #2B2C2B",
"j  c #392E2B",
"k  c #2D322D",
"l  c #31322D",
"z  c #38362A",
"x  c #2A2E33",
"c  c #372E31",
"v  c #2C3333",
"b  c #2F3934",
"n  c #293638",
"m  c #333433",
"M  c #3B3433",
"N  c #373935",
"B  c #393A36",
"V  c #33353B",
"C  c #39373A",
"Z  c #353B39",
"A  c gray23",
"S  c #402B16",
"D  c #462C22",
"F  c #45332A",
"G  c #593627",
"H  c #423635",
"J  c #483A37",
"K  c #4A3E3D",
"L  c #692A21",
"P  c #623E28",
"I  c #6E393A",
"U  c #723436",
"Y  c #7B3533",
"T  c #3A4036",
"R  c #3E413C",
"E  c #77471F",
"W  c #72551D",
"Q  c #464639",
"!  c #574537",
"~  c #604331",
"^  c #6B4934",
"/  c #764131",
"(  c #64513A",
")  c #353842",
"_  c #3D3C43",
"`  c #443E46",
"'  c #3F4244",
"]  c #434443",
"[  c #4E4445",
"{  c #4B4B45",
"}  c #444A4B",
"|  c #564741",
" . c #4E5355",
".. c #555555",
"X. c #6C4D45",
"o. c #63524B",
"O. c #785A49",
"+. c #655955",
"@. c #765B55",
"#. c #756448",
"$. c #7A6257",
"%. c #6A5E60",
"&. c #5D6363",
"*. c #7A6B67",
"=. c #6F7074",
"-. c #7C7270",
";. c #844533",
":. c #835638",
">. c #8E7135",
",. c #825945",
"<. c #945140",
"1. c #845656",
"2. c #936A4E",
"3. c #9C6C4A",
"4. c #94734D",
"5. c #896651",
"6. c #94755C",
"7. c #9B7759",
"8. c #A67346",
"9. c #AA7E5B",
"0. c #80696C",
"q. c #877060",
"w. c #8A7364",
"e. c #856C70",
"r. c #877874",
"t. c #A57961",
"y. c #AD885D",
"u. c #B78359",
"i. c #B9985E",
"p. c #97806E",
"a. c #A6896C",
"s. c #B78764",
"d. c #BA9668",
"f. c #AB8E72",
"g. c #A08478",
"h. c #B58E71",
"j. c #BEA360",
"k. c #C4885B",
"l. c #C3A75D",
"z. c #CE9163",
"x. c #C6906A",
"c. c #CC9A6E",
"v. c #D0966E",
"b. c #C29776",
"n. c #CD9573",
"m. c #C4997E",
"M. c #D19778",
"N. c #D0AE6E",
"B. c #C7A079",
"V. c #DCA27D",
"C. c #CDB474",
"Z. c #DDBD79",
"A. c #E1A17B",
"S. c #8F898B",
"D. c #94898D",
"F. c #918F92",
"G. c #A98B83",
"H. c #AA9687",
"J. c #BA9B83",
"K. c #BE9A88",
"L. c #BCA69B",
"P. c #BAACA9",
"I. c #C79C86",
"U. c #C5A485",
"Y. c #CDAC85",
"T. c #DFAA8C",
"R. c #CEB283",
"E. c #D7B887",
"W. c #C5A691",
"Q. c #D1AC99",
"!. c #CDB398",
"~. c #DCBC96",
"^. c #E4AA85",
"/. c #E9BA93",
"(. c #DDBEA8",
"). c #EBCF8E",
"_. c #ECD48E",
"`. c #EAC495",
"'. c #F3C69D",
"]. c #DBCAB8",
"[. c #E4C6AA",
"{. c #F6D0AB",
"}. c #E2CCC1",
/* pixels */
"                                                                                                                                ",
"                                                                                                                                ",
"                                                                                                                                ",
"                                                                  ..+.r.*.                                                      ",
"                                                                Q 3 S ~ G G X.                                                  ",
"                                                                #.#.2.9.2./ G X.                                                ",
"                                                                !.~.'./.M.;.L I                                                 ",
"                                                              w.[.{.N.v.n.<.Y I                                                 ",
"                                                              $.7.4.E E 3.Y U 1.@.                                              ",
"                                                              X.G ~ 5 2 :.;.U 1.e.                                              ",
"                                                              $.^ 4.W >.d.d.t.1.0.                                              ",
"                                                                f.E.C._.).E.b.5.r.[ f                                           ",
"                      . X . . o . . @ . .   o % = q w           f.R.j.l.Z.Z.y.a.o.e ; h o                                       ",
"                    . o . . . . . X . . * * X . X e h z       w.6.R.i.l.N.d.y.!.0.& + o , t                                     ",
"                      ; - X - - : X , - , > y @ + 4 3 j p.    D O.(.~.`.d.4.W.L.[ & f A h : :                                   ",
"                                            8 6 1 S P t.I.K.O.O O.(.[.B.7.J.}.r.p d C A Z < ,                                   ",
"                                              ( 5.m.T.^.T.I.X.4 +.H.q.a.H.].H.] h N A m k - ,                                   ",
"                                                Y.n.A.A.M.U.G.| %.H j F ! ! m f l N N A l ; #                                   ",
"                                                B.8.k.z.V.m.g.Q.D.p J F F 6 f ) A ] A B h < #                                   ",
"                                              U.b.c.z.k.x.I.e.P.S.d J K J c _ ) ] R m l s > .                                   ",
"                                              f.3.u.x.u.s.6.7 -.F.i M K K ` _ ) m m N m l , .                                   ",
"                                              J.h.y.s.M.m.^ O A =., l l c C x V m < t h o <                                     ",
"                                                  Q.,./ q.D p % u = 9 > 6 9 i h a s a 8 o i                                     ",
"                                                    X.3 0 6 6 d = v : 8 9 6 6 > > > - i . ;                                     ",
"                                                    *.4 J ; t w u n b k l l l 9 , < < < o ,                                     ",
"                                                      c + % $ n   u y d l C M h < 8 i a : <                                     ",
"                                                        '  .n       r g m C C x i > t a < f                                     ",
"                                                                    u x m A C k p < i a , h                                     ",
"                                                                    y u v ' T k i a v a & ,                                     ",
"                                                                    v v g N m k a h h i ; , ;                                   ",
"                                                                    Z b t k k T m i < i i ; w                                   ",
"                                                                    b g 8 g T Q A h < i s - d                                   ",
"                                                                  } 8 8 @ g { Q R h 8 a a # a                                   ",
"                                                                    u @ : g R N h k g g : o a                                   ",
"                                                                    &.* k g > 9 8 k k h - @ 8                                   ",
"                                                                    } k g a 9 : N k k T i > -                                   ",
"                                                                    ' g , i > 9 k k k s i i                                     ",
"                                                                    } t i h # h A h 8 8 . N                                     ",
"                                                                    Z < l m i h N N h - : m                                     ",
"                                                                    A h B i p C A R h 8 * m     # X                             ",
"                                                                    k h f a l A R k h 8 , ; - X X <                             ",
"                                                                      , , h N m k m > < i d ; - a i o                           ",
"                                                                      e , C C l i @ t w m h , , < & ; .                         ",
"                                                                      l ; f h s h ; e l ] m ; o - , ; *                         ",
"                                                                      m - < < e < i , d f o ;     . X - .                       ",
"                                                                      m w t 6 > , , 6 i o X .         . .                       ",
"                                                                      N h e < o ;                                               ",
"                                                                    + C N < < o .                                               ",
"                                                                    , m a Z d ; .                                               ",
"                                                                    o C ] ..A X                                                 ",
"                                                                    i a ....< .                                                 ",
"                                                                  . ; l ..C ; .                                                 ",
"                                                                  % < m ` s o .                                                 ",
"                                                                  o , V m ; X                                                   ",
"                                                                  o - l h - .                                                   ",
"                                                                  X o N m X .                                                   ",
"                                                                  . X B . . .                                                   ",
"                                                                . o # i . . X                                                   ",
"                                                            . o o o X o o .                                                     ",
"                                                            . . o X o X .                                                       ",
"                                                                . o o . .                                                       ",
"                                                                    . . .                                                       ",
"                                                                                                                                ",
"                                                                                                                                "
};
