/* XPM */
static char *_e8e3305c68947ffe8d24d93ffa90532UGeBlUS7mDB0dLFA[] = {
/* columns rows colors chars-per-pixel */
"64 64 196 2 ",
"   c #ADD8E6",
".  c #030204",
"X  c #0A0402",
"o  c #0C0904",
"O  c #05050A",
"+  c #0A060C",
"@  c #0C0B0C",
"#  c #06080F",
"$  c #130501",
"%  c #1C0B03",
"&  c #130E0D",
"*  c #1A0C0D",
"=  c #180903",
"-  c #11110E",
";  c #0D0C12",
":  c #150D13",
">  c #1C0D12",
",  c #0E1016",
"<  c #141314",
"1  c #1A1415",
"2  c #1B1917",
"3  c #151519",
"4  c #1A161A",
"5  c #1C1B1C",
"6  c #17181D",
"7  c #200E0B",
"8  c #310803",
"9  c #2C1305",
"0  c #24120E",
"q  c #28130B",
"w  c #2D190B",
"e  c #3C1A05",
"r  c #311B0C",
"t  c #241C14",
"y  c #221D1D",
"u  c #261511",
"i  c #311F11",
"p  c #23211C",
"a  c #2D241F",
"s  c #322316",
"d  c #33241B",
"f  c #38261A",
"g  c #1E1E22",
"h  c #211E22",
"j  c #1E2225",
"k  c #242324",
"l  c #292626",
"z  c #2C2927",
"x  c #252429",
"c  c #29272B",
"v  c #2B2B2C",
"b  c #332B23",
"n  c #312D2D",
"m  c #3B2E27",
"M  c #393224",
"N  c #34312D",
"B  c #39352D",
"V  c #2D2D31",
"C  c #312E33",
"Z  c #2F3233",
"A  c #333233",
"S  c #383536",
"D  c #3B3935",
"F  c #37363A",
"G  c #39373A",
"H  c #3B3A3C",
"J  c #491B0D",
"K  c #4F2D0B",
"L  c #442615",
"P  c #58271B",
"I  c #5C3C1C",
"U  c #63381A",
"Y  c #482C20",
"T  c #4B3424",
"R  c #4C392F",
"E  c #48352B",
"W  c #553F28",
"Q  c #413F3C",
"!  c #403734",
"~  c #5A3F34",
"^  c #6C3B27",
"/  c #653E2F",
"(  c #3E423F",
")  c #60411E",
"_  c #574227",
"`  c #43413E",
"'  c #5A4332",
"]  c #5D513F",
"[  c #69462B",
"{  c #78482D",
"}  c #6A502F",
"|  c #7E502B",
" . c #6D4334",
".. c #6E4C37",
"X. c #654937",
"o. c #714535",
"O. c #7C4C3D",
"+. c #7B4B30",
"@. c #70533F",
"#. c #3E3D42",
"$. c #3F4045",
"%. c #434344",
"&. c #494546",
"*. c #454448",
"=. c #4A4A4C",
"-. c #474749",
";. c #584E40",
":. c #5E5248",
">. c #694D43",
",. c #6E5544",
"<. c #655247",
"1. c #785746",
"2. c #665A54",
"3. c #775E51",
"4. c #786257",
"5. c #786B64",
"6. c #85593A",
"7. c #845546",
"8. c #8B5944",
"9. c #835E4D",
"0. c #805C41",
"q. c #915E43",
"w. c #83644E",
"e. c #8C634A",
"r. c #936648",
"t. c #8B6353",
"y. c #8D6B5F",
"u. c #886E56",
"i. c #926F57",
"p. c #93665A",
"a. c #9B725A",
"s. c #9D7E5E",
"d. c #9E7655",
"f. c #A1724D",
"g. c #A5795D",
"h. c #AC7D5D",
"j. c #A67755",
"k. c #B07D5D",
"l. c #847468",
"z. c #987866",
"x. c #A57E6D",
"c. c #A97C67",
"v. c #B17D66",
"b. c #A27F76",
"n. c #96826F",
"m. c #97867B",
"M. c #A4856B",
"N. c #AC856C",
"B. c #AD8163",
"V. c #B28964",
"C. c #BC8A6B",
"Z. c #A98777",
"A. c #B18D74",
"S. c #BA8E77",
"D. c #B48878",
"F. c #AF967C",
"G. c #BD947A",
"H. c #B79379",
"J. c #C58F6E",
"K. c #C38E72",
"L. c #C59272",
"P. c #CB9777",
"I. c #C5937C",
"U. c #C69A7A",
"Y. c #C99D7C",
"T. c #CCA37E",
"R. c #AC9C89",
"E. c #B4978C",
"W. c #B79884",
"Q. c #B8A08A",
"!. c #BFA899",
"~. c #B9AAA1",
"^. c #C29582",
"/. c #C59A83",
"(. c #CB9D8A",
"). c #C69B88",
"_. c #D49C81",
"`. c #CBA388",
"'. c #D2A58B",
"]. c #D2AA8D",
"[. c #DBA685",
"{. c #CDAF9B",
"}. c #C6A093",
"|. c #D9AD91",
" X c #DDAD9B",
".X c #D7A896",
"XX c #DBB096",
"oX c #D7B39A",
"OX c #E6BA9D",
"+X c #E5B798",
"@X c #DBAFA2",
"#X c #C8B3AA",
"$X c #D8B7A5",
"%X c #D2BDB0",
"&X c #E6BAAC",
"*X c #F0C5A7",
/* pixels */
"                                                                                                                                ",
"                                                                                                                                ",
"                                                                                                                                ",
"                                                                                                                                ",
"                                                              y. . .O.7.9.t.y.                                                  ",
"                                                              z.o.^ { 8.8.^  .1.4.                                              ",
"                                                              ).c.v.C._.K.q.{ [ ..@.                                            ",
"                                                            {.oXOXOX+X+X[.k.+.U [ ..                                            ",
"                                                            Z.F.oX`.V.h.j.f.| U { 1.                                            ",
"                                                            W _ } I e 8 J | | { 6.e.x.                                          ",
"                                                            _ _ } ) K U 6.V.j.r.r.a.x.                                          ",
"                                                              u.s.s.d.V.T.+XY.g.e.t.z.3.<.                                      ",
"          c A %.=.-.*.=.=.%.                                  W.`.].].|.OX*X].N.i.9.,.R m !                                     ",
"        g . O ; < , ; 6 5 3 @ O < < o o X X & t d R ,.      z.x.).).S.G.(. X/.A.{.z.f = $ p k g x                               ",
"        h . . + O O O . . . @ < O X o = % $ $ = = Y t.      7.7.^..X.X X`.x.Z.W.!.l.f t p v k 3 # ,                             ",
"                                      s w % r T ~ w.Z.(.D.7.P P D.@X&X@X}.E.$X%Xm.:.b N S G %.F # ;                             ",
"                                        ' ..w.z.A.^.'. XI.O.J J p.D.D.b.Z.E.#X~.2.B b N S H -.$.6 <                             ",
"                                          $XXX'.].|.XX X^.t.o./ >.X.T ~ <.4.5.2.N l n z v H G V g g                             ",
"                                          `.U.C.C.P.'./.H.A.W.Z.' s s m B N D H n v n S H G G V ; ;                             ",
"                                        S.C.L.P.J.L.U.G.A.M.Q.R.] M b B H ` G G %.%.S A A H A g O .                             ",
"                                        N.g.h.C.L.U.G.M.w.X.n.R.;.M B ` -.$.G H %.%.S C n A z 1 + O                             ",
"                                          a.d.j.B.H.H.u.W w <.l.E a N S S Z Z Z A A Z v v c 5 : :                               ",
"                                              c.0.i.z.,.T i f b t 2 5 < < k k j j k k k k x < + 4                               ",
"                                                e L T s w s 0 * a l k k k j j g g g 5 5 5 k & X y                               ",
"                                                9 9 q q 0 0 * * y h k v A Z Z V x g 5 5 k k < X                                 ",
"                                                  w 7 0 0 * * 1   4 5 x A #.#.H V k 5 g k c 4 &                                 ",
"                                                      1 >           : g V #.*.#.A k 5 k k k 4 1 v                               ",
"                                                                    + V #.H H H Z k 5 k k y 4 < h                               ",
"                                                                    6 h c G H G N k y h k 5 5 < <                               ",
"                                                                    h h c H %.H N k k y h k g 3 ; +                             ",
"                                                                    g k v n H ` A N v k 5 g g 5 + ;                             ",
"                                                                    5 k y 1 n ` Q ` Q z 5 3 g h ; <                             ",
"                                                                    < 5 y 1 z D D H H v k k C V ; ;                             ",
"                                                                  1 @ < 2 4 k n N N N k h k c x # O                             ",
"                                                                y 5 2 1 5 k 5 < 2 p k k h 5 5 6 # O                             ",
"                                                              < k v n z k z < . o - 5 v v k 5 3 ;                               ",
"                                                            @ @ A H G F x @ < k k 5 5 v S S v 5 @                               ",
"                                                          & z G A H *.#.x O ;     k k v A S S n k v     k 1 4 h k @ .           ",
"                                                        4 5 A %.H H F g ; ;       5 5 A ` H S v k 5 4 1 4 h 4 < 4 < < 5         ",
"                                                      @ 4 C H #.#.V 5 # O         5 < H =.Q A z 5 2 4 y z n k 1 < 5 v k 5       ",
"                                                      + 1 S H G C 6 .             5 k H %.H A k 5 k S &.&.S C c 4 g V k < .     ",
"                                                    5 @ < k k k 4 5 x             3 < c F F A v A A F -.-.G c g x x 5 + . . O   ",
"                                                    + 5 k l v k + @                 ; 3 g k c A F A C C x < + +           . O   ",
"                                                    O v G G A k O .                 3 < ; ; 3 g h k x k 6 + .                   ",
"                                                  < @ A %.-.S 5 +                     < @ . O + + <                             ",
"                                                  k 5 A %.%.n < +                                                               ",
"                                                  A v A G H v 5 k                                                               ",
"                                                  A v G H S k < v                                                               ",
"                                                A v v %.%.v 5 @                                                                 ",
"                                                c k k H %.v < O                                                                 ",
"                                              %.c k 5 k k k - .                                                                 ",
"                                          ; O < G F x k < + @                                                                   ",
"                                            O + 5 g 5 5 < .                                                                     ",
"                                                . . ; < @ .                                                                     ",
"                                                    3 . . .                                                                     ",
"                                                                                                                                ",
"                                                                                                                                ",
"                                                                                                                                ",
"                                                                                                                                ",
"                                                                                                                                ",
"                                                                                                                                ",
"                                                                                                                                ",
"                                                                                                                                ",
"                                                                                                                                "
};
