/* XPM */
static char *e83803e8578241baf78d839f8e4323aeh3w2Jx9ZWulsjXUd[] = {
/* columns rows colors chars-per-pixel */
"64 64 184 2 ",
"   c None",
".  c #030302",
"X  c #080602",
"o  c #070807",
"O  c #0C0B05",
"+  c #060709",
"@  c #060A09",
"#  c #0B0C0C",
"$  c #110800",
"%  c #1B0A00",
"&  c #0D120C",
"*  c #121505",
"=  c #13120D",
"-  c #1B130B",
";  c #1E1D0B",
":  c #0D0E11",
">  c #0E1211",
",  c #131413",
"<  c #1B1413",
"1  c #151916",
"2  c #1A1A16",
"3  c #15161B",
"4  c #161A19",
"5  c #1B1C1B",
"6  c #22150E",
"7  c #381600",
"8  c #231912",
"9  c #231E1A",
"0  c #301D17",
"q  c #1D201E",
"w  c #2F200D",
"e  c #21221E",
"r  c #2B221D",
"t  c #1C1D21",
"y  c #251F21",
"u  c #1E2222",
"i  c #232424",
"p  c #2A2624",
"a  c #252826",
"s  c #2A2A26",
"d  c #24252A",
"f  c #2D2729",
"g  c #27292B",
"h  c #2A2C2C",
"j  c #322624",
"k  c #322A26",
"l  c #332D2B",
"z  c #3A2B2B",
"x  c #2E312D",
"c  c #34312E",
"v  c #39322D",
"b  c #262631",
"n  c #2D2E32",
"m  c #2E3131",
"M  c #333433",
"N  c #3A3432",
"B  c #363935",
"V  c #3A3935",
"C  c #36363B",
"Z  c #383639",
"A  c #363A39",
"S  c gray23",
"D  c #532B08",
"F  c #462E16",
"G  c #643A16",
"H  c #412D27",
"J  c #4E3B28",
"K  c #553A27",
"L  c #53382D",
"P  c #443B32",
"I  c #4D3D34",
"U  c #543F39",
"Y  c #3E413C",
"T  c #51452F",
"R  c #4D4233",
"E  c #42413D",
"W  c #49423B",
"Q  c #574637",
"!  c #57433B",
"~  c #67472B",
"^  c #6D4D33",
"/  c #644A3B",
"(  c #6B5639",
")  c #795234",
"_  c #3E3F41",
"`  c #413F40",
"'  c #3F4242",
"]  c #434444",
"[  c #4A4547",
"{  c #45454B",
"}  c gray30",
"|  c #5C4A43",
" . c #5B4C49",
".. c #595046",
"X. c #5D5752",
"o. c #614941",
"O. c #685947",
"+. c #64524C",
"@. c #7C5D45",
"#. c #645B59",
"$. c #6F6154",
"%. c #7E6B56",
"&. c #7A6359",
"*. c #7B645A",
"=. c #7C6D5B",
"-. c #7F785C",
";. c #796963",
":. c #80593A",
">. c #8D613D",
",. c #806A43",
"<. c #8D694D",
"1. c #846759",
"2. c #8B755A",
"3. c #977959",
"4. c #A4795B",
"5. c #827365",
"6. c #8A7466",
"7. c #8A7868",
"8. c #947766",
"9. c #937A6D",
"0. c #897875",
"q. c #937F77",
"w. c #8C8068",
"e. c #998667",
"r. c #95866B",
"t. c #9E846A",
"y. c #958575",
"u. c #9D8373",
"i. c #A28563",
"p. c #A68C66",
"a. c #A3846D",
"s. c #AA876C",
"d. c #B18F6C",
"f. c #B8926D",
"g. c #A48B76",
"h. c #AD8C75",
"j. c #A3857A",
"k. c #B38B72",
"l. c #A99775",
"z. c #A49679",
"x. c #B69372",
"c. c #B49B7D",
"v. c #BB9A7D",
"b. c #C19570",
"n. c #C19D7A",
"m. c #C4A47E",
"M. c #8A8182",
"N. c #9B8681",
"B. c #9C9090",
"V. c #A88F88",
"C. c #A6948C",
"Z. c #AA978A",
"A. c #B59B87",
"S. c #AC9C97",
"D. c #B79A94",
"F. c #AFA083",
"G. c #BEAB8B",
"H. c #BAA797",
"J. c #BCAC94",
"K. c #C3A983",
"L. c #C6A689",
"P. c #CCA58B",
"I. c #D5AC8B",
"U. c #CDA991",
"Y. c #C7A89A",
"T. c #D3AD95",
"R. c #D1AE98",
"E. c #C6B395",
"W. c #CCBB9D",
"Q. c #D7B899",
"!. c #E5BB9A",
"~. c #CAB2A4",
"^. c #C9B9A4",
"/. c #D6B5A2",
"(. c #CFBCB1",
"). c #D4BDB9",
"_. c #E3BFAF",
"`. c #D6C6A4",
"'. c #D4C3B4",
"]. c #EBC8A8",
"[. c #E6CAB9",
"{. c #E3CDC0",
"}. c #F2D3C1",
"|. c #EDDCD5",
/* pixels */
"                                                                                                                                ",
"                                                                  q.*.                                                          ",
"                                                              V.7.| L +.#.+. .                                                  ",
"                                                              q.O.I H / U H ! I                                                 ",
"                                                              C.*.u.6.j.9.1.K J Q                                               ",
"                                                              (.A.[.}././.j.@.F J                                               ",
"                                                              '.W.[.R.s.P.k.<.~ K                                               ",
"                                                              Z.g.G.^ :.4.4.) ^ ^                                               ",
"                                                              %.F ~ 7 D G >.) ) @.2.                                            ",
"                                                              2.( 3.G G >.b.4.<.@.j.7.                                          ",
"                                                              z.t.E.f.f.I.!.I.h.@.1.y...                                        ",
"                                                              E.J.Q.].!._.!.T.s.2./ $.P k                                       ",
"                O X O X O , , - 2 5 5 9 e a a x B Y W X.      H.F.J.Y.A.T.T.L.g.g.=.% O - O O                                   ",
"                = . O X . O X O O O O X o O . & 1 e e W       w.w.W.Y./._.U.t.g.J.5.r 8 - 2 , .                                 ",
"                O O . O . . X X O = = = 2 5 & & O * - ..    =.T O.^.)._./.j.u.Y.(.R $ r V E l O .                               ",
"                                          c * * ; R 5.^.H.r./ w O.'.{.~.D.V.H.'.;.k 8 N k l l p X                               ",
"                                            O.-.z.G.c.Q.Q.c.^ % o.V.N.N.N.).|.S.P j k k l N M < ,                               ",
"                                            J.F.G.K.K.Q.L.U.1.` o.+.` ` +.N.0.+.y z N k h l y 9 +                               ",
"                                            `.c.l.m.n.n.L.h.N.D.;.z H H H  .k j r v N l N c p 2 .                               ",
"                                            W.K.p.i.n.x.U.a.Y.).0.< z ` z z j l N N c N S l 2 , X                               ",
"                                          z.l.K.K.m.d.v.h.8.&.S.B.8 s c v v N z N S N c x p , 9                                 ",
"                                            2.,.p.i.s.3.8.L 0 ;.M.y B Y Y x B B V c c s a 2 , +                                 ",
"                                              e.2.i.A.A.8.0 6 ` X.h s s Y x c B N a a a u , + #                                 ",
"                                                r.2.K 5.+.8 < i u 4 u q u u e e e e a 5 1 5 O >                                 ",
"                                                  O.6 v - 9 p d 3 : u @ q q q 2 1 1 1 1 1 & > @                                 ",
"                                                  E X s 9 l f d n Z q u a x x s e q 1 q 4 & 1 @                                 ",
"                                                    a i u 3 : n Z m u m x ' B x s a q u q 1 4 >                                 ",
"                                                      4 h i n m     1 a B m M s a a u u q q 5 >                                 ",
"                                                                    h 1 m m M x x a u u u u > >                                 ",
"                                                                    h 1 4 m x S M q u g g q + #                                 ",
"                                                                    t M t m M A m u u h u u # ,                                 ",
"                                                                    p d _ d Z Z x h h u u u @ #                                 ",
"                                                                    n d n a M A S m h a u 4 q & .                               ",
"                                                                    s Z i d M S ] ' A m u u u > @                               ",
"                                                                  h n Z a i M S S M m u u u a 1 .                               ",
"                                                                d g h h t y Z { [ S A x x u 4 o o                               ",
"                                                              h 1 { M 1 a 2 q u a a g 4 4 4 @ &                                 ",
"                                                            n d n ] ] a 2 i & @ > 4 x 4 u u > >                                 ",
"                                                          n d b } C B s 1 = & @ q Y ' x Y m > 4                                 ",
"                                                        u n Z { S ] S i = e q q a x ' ' ' Y > 1                                 ",
"                                                        t d n n C b M h s         i B Y x B & 1                                 ",
"                                                      b t b b y t t 5 h           q M ] Y B & >                                 ",
"                                                      3 3 n b t b n h 2 , e       e M Y E M & q                                 ",
"                                                      t b } _ _ b y p 5 p s a s a x B Y Y M & 1                                 ",
"                                                      b 3 n ` _ d _ _ s 9 M q e e V B Y B M 1 2                                 ",
"                                                        d d b _ b _ Z S S s 2 * 1 V E Y s B q ,                                 ",
"                                                          b t t b t M M ` s 5 = q s E E x B a 2 .                               ",
"                                                              t 3 y y i y 5 5 s E 9 V } E M M = @                               ",
"                                                                    3 : : : d _ S i e } { { S 4 # X                             ",
"                                                                          @ 1 h ] h i V S ` Z M 4 .                             ",
"                                                                              3 t d i Z M Y A M i +                             ",
"                                                                                # , # N Z M A S A 5 :                           ",
"                                                                                  + , s n y A S l a :                           ",
"                                                                                        , M A S M ] . :                         ",
"                                                                                        # t n _ m d i :                         ",
"                                                                                          t Z _ M M , :                         ",
"                                                                                          5 h n h g t :                         ",
"                                                                                          3 3 : u t : .                         ",
"                                                                                          t 3 f t i 5 X 1                       ",
"                                                                                          + 3 5 1 @ 1 . :                       ",
"                                                                                          > u t t 5 , #                         ",
"                                                                                                                                ",
"                                                                                                                                ",
"                                                                                                                                "
};
