/* XPM */
static char *result[] = {
/* columns rows colors chars-per-pixel */
"51 64 197 2 ",
"   c #030302",
".  c #080602",
"X  c #070807",
"o  c #0C0B05",
"O  c #060709",
"+  c #060A09",
"@  c #0B0C0C",
"#  c #1B0A00",
"$  c #110F0B",
"%  c #110800",
"&  c #0D120C",
"*  c #121505",
"=  c #13120D",
"-  c #1B130B",
";  c #1E1D0B",
":  c #0D0E11",
">  c #0E1211",
",  c #131413",
"<  c #1B1413",
"1  c #151916",
"2  c #1A1A16",
"3  c #15161B",
"4  c #161A19",
"5  c #1B1C1B",
"6  c #22150E",
"7  c #381600",
"8  c #231E1A",
"9  c #231912",
"0  c #301D17",
"q  c #1D201E",
"w  c #2F200D",
"e  c #21221E",
"r  c #2B221D",
"t  c #34241B",
"y  c #1C1D21",
"u  c #251F21",
"i  c #1E2222",
"p  c #232424",
"a  c #2A2624",
"s  c #252826",
"d  c #2A2A26",
"f  c #24252A",
"g  c #27292B",
"h  c #2A2C2C",
"j  c #2D2729",
"k  c #322624",
"l  c #322A26",
"z  c #332D2B",
"x  c #3A2B2B",
"c  c #2E312D",
"v  c #34312E",
"b  c #39322D",
"n  c #2D2E32",
"m  c #262631",
"M  c #2E3131",
"N  c #333433",
"B  c #3A3432",
"V  c #363935",
"C  c #3A3935",
"Z  c #36363B",
"A  c #363A39",
"S  c #3B3B3B",
"D  c #383639",
"F  c #56340F",
"G  c #462E16",
"H  c #532B08",
"J  c #643A16",
"K  c #412D27",
"L  c #4E3B28",
"P  c #493426",
"I  c #553A27",
"U  c #53382D",
"Y  c #4D3D34",
"T  c #413F3B",
"R  c #4C3E3E",
"E  c #443B32",
"W  c #543F39",
"Q  c #3E413C",
"!  c #51452F",
"~  c #4D4233",
"^  c #42413D",
"/  c #49423B",
"(  c #57433B",
")  c #574637",
"_  c #67472B",
"`  c #6D4D33",
"'  c #644A3B",
"]  c #795234",
"[  c #6B5639",
"{  c #3E3F41",
"}  c #413F40",
"|  c #3F4242",
" . c #434444",
".. c #45454B",
"X. c #4D4D4D",
"o. c #4A4547",
"O. c #5C4A43",
"+. c #5B4C49",
"@. c #595046",
"#. c #5B504E",
"$. c #4E5251",
"%. c #5D5752",
"&. c #614941",
"*. c #64524C",
"=. c #685947",
"-. c #7C5D45",
";. c #645B59",
":. c #7E6048",
">. c #6F6154",
",. c #7E6B56",
"<. c #7B645A",
"1. c #7C6D5B",
"2. c #7A6359",
"3. c #7F785C",
"4. c #796963",
"5. c #80593A",
"6. c #8D613D",
"7. c #8D694D",
"8. c #806A43",
"9. c #8B755A",
"0. c #977959",
"q. c #846759",
"w. c #A4795B",
"e. c #827365",
"r. c #8A7466",
"t. c #8A7868",
"y. c #937A6D",
"u. c #947766",
"i. c #897875",
"p. c #937F77",
"a. c #8C8068",
"s. c #95866B",
"d. c #9E846A",
"f. c #998667",
"g. c #958575",
"h. c #9D8373",
"j. c #A68C66",
"k. c #A3846D",
"l. c #AA876C",
"z. c #A28563",
"x. c #B18F6C",
"c. c #B8926D",
"v. c #AD8C75",
"b. c #A3857A",
"n. c #A48B76",
"m. c #B38B72",
"M. c #A49679",
"N. c #A99775",
"B. c #B69372",
"V. c #BB9A7D",
"C. c #B49B7D",
"Z. c #C19D7A",
"A. c #C19570",
"S. c #C4A47E",
"D. c #8A8182",
"F. c #9B8681",
"G. c #9C9090",
"H. c #A88F88",
"J. c #A6948C",
"K. c #AA978A",
"L. c #B59B87",
"P. c #AC9C97",
"I. c #B79A94",
"U. c #AFA083",
"Y. c #BEAB8B",
"T. c #B5A586",
"R. c #BCAC94",
"E. c #BAA797",
"W. c #C3A983",
"Q. c #CCA58B",
"!. c #C6A689",
"~. c #D5AC8B",
"^. c #C3AC91",
"/. c #CDA991",
"(. c #C7A89A",
"). c #D3AD95",
"_. c #D1AE98",
"`. c #CCBB9D",
"'. c #C6B395",
"]. c #D7B899",
"[. c #E5BB9A",
"{. c #CAB2A4",
"}. c #C9B9A4",
"|. c #CCBBAB",
" X c #D6B5A2",
".X c #D5B8A6",
"XX c #CFBCB1",
"oX c #D4BDB9",
"OX c #E3BFAF",
"+X c #D4C3B4",
"@X c #D6C6A4",
"#X c #EBC8A8",
"$X c #E6CAB9",
"%X c #E3CDC0",
"&X c #F2D3C1",
"*X c #EDDCD5",
"=X c None",
/* pixels */
"=X=X=X=X=X=X=X=X=X=X=X=X=X=X=X=X=X=X=X=X=X=X=X=X=X=X=X=X=X=X=X=X=X=X=X=X=X=X=X=X=X=X=X=X=X=X=X=X=X=X=X",
"=X=X=X=X=X=X=X=X=X=X=X=X=X=X=X=X=X=X=X=X=X=X=X=X=X=X=Xp.<.=X=X=X=X=X=X=X=X=X=X=X=X=X=X=X=X=X=X=X=X=X=X",
"=X=X=X=X=X=X=X=X=X=X=X=X=X=X=X=X=X=X=X=X=X=X=X=X=XH.t.O.U *.;.*.+.=X=X=X=X=X=X=X=X=X=X=X=X=X=X=X=X=X=X",
"=X=X=X=X=X=X=X=X=X=X=X=X=X=X=X=X=X=X=X=X=X=X=X=X=Xp.=.Y K ' W K ( Y =X=X=X=X=X=X=X=X=X=X=X=X=X=X=X=X=X",
"=X=X=X=X=X=X=X=X=X=X=X=X=X=X=X=X=X=X=X=X=X=X=X=X=XJ.<.h.r.b.y.q.I L ) =X=X=X=X=X=X=X=X=X=X=X=X=X=X=X=X",
"=X=X=X=X=X=X=X=X=X=X=X=X=X=X=X=X=X=X=X=X=X=X=X=X=XXXL.$X&X X Xb.-.G L =X=X=X=X=X=X=X=X=X=X=X=X=X=X=X=X",
"=X=X=X=X=X=X=X=X=X=X=X=X=X=X=X=X=X=X=X=X=X=X=X=X=X+X`.$X_.l.Q.m.7._ I =X=X=X=X=X=X=X=X=X=X=X=X=X=X=X=X",
"=X=X=X=X=X=X=X=X=X=X=X=X=X=X=X=X=X=X=X=X=X=X=X=X=XK.n.Y.` 5.w.w.] ` ` =X=X=X=X=X=X=X=X=X=X=X=X=X=X=X=X",
"=X=X=X=X=X=X=X=X=X=X=X=X=X=X=X=X=X=X=X=X=X=X=X=X=X,.G _ 7 H J 6.] ] -.9.=X=X=X=X=X=X=X=X=X=X=X=X=X=X=X",
"=X=X=X=X=X=X=X=X=X=X=X=X=X=X=X=X=X=X=X=X=X=X=X=X=X9.[ 0.J J 6.A.w.7.-.b.t.=X=X=X=X=X=X=X=X=X=X=X=X=X=X",
"=X=X=X=X=X=X=X=X=X=X=X=X=X=X=X=X=X=X=X=X=X=X=X=X=XM.d.'.c.c.~.[.~.v.-.q.g.@.=X=X=X=X=X=X=X=X=X=X=X=X=X",
"=X=X=X=X=X=X=X=X=X=X=X=X=X=X=X=X=X=X=X=X=X=X=X=X=X'.R.].#X[.OX[.).l.9.' >.E l =X=X=X=X=X=X=X=X=X=X=X=X",
"=X=Xo . o . o , , - 2 5 5 8 e s s c V Q / %.=X=X=XE.U.R.(.L.).).!.n.n.1.# o - o o =X=X=X=X=X=X=X=X=X=X",
"=X=X=   o .   o . o o o o . X o   & 1 e e / =X=X=Xa.a.`.(. XOX/.d.n.R.e.r 9 - 2 ,   =X=X=X=X=X=X=X=X=X",
"=X=Xo o   o     . . o = = = 2 5 & & o * - @.=X=X1.! =.}.oXOX Xb.h.(.XX~ % r C ^ z o   =X=X=X=X=X=X=X=X",
"=X=X=X=X=X=X=X=X=X=X=X=X=X=X=Xv * * ; ~ e.}.E.s.' w =.+X%X{.I.H.E.+X4.l 9 B l z z a . =X=X=X=X=X=X=X=X",
"=X=X=X=X=X=X=X=X=X=X=X=X=X=X=X=X=.3.M.Y.C.].].C.` # &.H.F.F.F.oX*XP.E k l l z B N < , =X=X=X=X=X=X=X=X",
"=X=X=X=X=X=X=X=X=X=X=X=X=X=X=X=XR.U.Y.W.W.].!./.q.} &.*.} } *.F.i.*.u x B l h z u 8 O =X=X=X=X=X=X=X=X",
"=X=X=X=X=X=X=X=X=X=X=X=X=X=X=X=X@XC.N.S.Z.Z.!.v.F.I.4.x K K K +.l k r b B z B v a 2   =X=X=X=X=X=X=X=X",
"=X=X=X=X=X=X=X=X=X=X=X=X=X=X=X=X`.W.j.z.Z.B./.k.(.oXi.< x } x x k z B B v B S z 2 , . =X=X=X=X=X=X=X=X",
"=X=X=X=X=X=X=X=X=X=X=X=X=X=X=XM.N.W.W.S.x.V.v.u.2.P.G.9 d v b b B x B S B v c a , 8 =X=X=X=X=X=X=X=X=X",
"=X=X=X=X=X=X=X=X=X=X=X=X=X=X=X=X9.8.j.z.l.0.u.U 0 4.D.u V Q Q c V V C v v d s 2 , O =X=X=X=X=X=X=X=X=X",
"=X=X=X=X=X=X=X=X=X=X=X=X=X=X=X=X=Xf.9.z.L.L.u.0 6 } %.h d d Q c v V B s s s i , O @ =X=X=X=X=X=X=X=X=X",
"=X=X=X=X=X=X=X=X=X=X=X=X=X=X=X=X=X=Xs.9.I e.*.9 < p i 4 i q i i e e e e s 5 1 5 o > =X=X=X=X=X=X=X=X=X",
"=X=X=X=X=X=X=X=X=X=X=X=X=X=X=X=X=X=X=X=.6 b - 8 a f 3 : i + q q q 2 1 1 1 1 1 & > + =X=X=X=X=X=X=X=X=X",
"=X=X=X=X=X=X=X=X=X=X=X=X=X=X=X=X=X=X=X^ . d 8 z j f n D q i s c c d e q 1 q 4 & 1 + =X=X=X=X=X=X=X=X=X",
"=X=X=X=X=X=X=X=X=X=X=X=X=X=X=X=X=X=X=X=Xs p i 3 : n D M i M c | V c d s q i q 1 4 > =X=X=X=X=X=X=X=X=X",
"=X=X=X=X=X=X=X=X=X=X=X=X=X=X=X=X=X=X=X=X=X4 h p n M =X=X1 s V M N d s s i i q q 5 > =X=X=X=X=X=X=X=X=X",
"=X=X=X=X=X=X=X=X=X=X=X=X=X=X=X=X=X=X=X=X=X=X=X=X=X=X=X=Xh 1 M M N c c s i i i i > > =X=X=X=X=X=X=X=X=X",
"=X=X=X=X=X=X=X=X=X=X=X=X=X=X=X=X=X=X=X=X=X=X=X=X=X=X=X=Xh 1 4 M c S N q i g g q O @ =X=X=X=X=X=X=X=X=X",
"=X=X=X=X=X=X=X=X=X=X=X=X=X=X=X=X=X=X=X=X=X=X=X=X=X=X=X=Xy N y M N A M i i h i i @ , =X=X=X=X=X=X=X=X=X",
"=X=X=X=X=X=X=X=X=X=X=X=X=X=X=X=X=X=X=X=X=X=X=X=X=X=X=X=Xa f { f D D c h h i i i + @ =X=X=X=X=X=X=X=X=X",
"=X=X=X=X=X=X=X=X=X=X=X=X=X=X=X=X=X=X=X=X=X=X=X=X=X=X=X=Xn f n s N A S M h s i 4 q &   =X=X=X=X=X=X=X=X",
"=X=X=X=X=X=X=X=X=X=X=X=X=X=X=X=X=X=X=X=X=X=X=X=X=X=X=X=Xd D p f N S  .| A M i i i > + =X=X=X=X=X=X=X=X",
"=X=X=X=X=X=X=X=X=X=X=X=X=X=X=X=X=X=X=X=X=X=X=X=X=X=X=Xh n D s p N S S N M i i i s 1   =X=X=X=X=X=X=X=X",
"=X=X=X=X=X=X=X=X=X=X=X=X=X=X=X=X=X=X=X=X=X=X=X=X=X=Xf g h h y u D ..o.S A c c i 4 X X =X=X=X=X=X=X=X=X",
"=X=X=X=X=X=X=X=X=X=X=X=X=X=X=X=X=X=X=X=X=X=X=X=X=Xh 1 ..N 1 s 2 q i s s g 4 4 4 + & =X=X=X=X=X=X=X=X=X",
"=X=X=X=X=X=X=X=X=X=X=X=X=X=X=X=X=X=X=X=X=X=X=X=Xn f n  . .s 2 p & + > 4 c 4 i i > > =X=X=X=X=X=X=X=X=X",
"=X=X=X=X=X=X=X=X=X=X=X=X=X=X=X=X=X=X=X=X=X=X=Xn f m X.Z V d 1 = & + q Q | c Q M > 4 =X=X=X=X=X=X=X=X=X",
"=X=X=X=X=X=X=X=X=X=X=X=X=X=X=X=X=X=X=X=X=X=Xi n D ..S  .S p = e q q s c | | | Q > 1 =X=X=X=X=X=X=X=X=X",
"=X=X=X=X=X=X=X=X=X=X=X=X=X=X=X=X=X=X=X=X=X=Xy f n n Z m N h d =X=X=X=Xp V Q c V & 1 =X=X=X=X=X=X=X=X=X",
"=X=X=X=X=X=X=X=X=X=X=X=X=X=X=X=X=X=X=X=X=Xm y m m u y y 5 h =X=X=X=X=Xq N  .Q V & > =X=X=X=X=X=X=X=X=X",
"=X=X=X=X=X=X=X=X=X=X=X=X=X=X=X=X=X=X=X=X=X3 3 n m y m n h 2 , e =X=X=Xe N Q ^ N & q =X=X=X=X=X=X=X=X=X",
"=X=X=X=X=X=X=X=X=X=X=X=X=X=X=X=X=X=X=X=X=Xy m X.{ { m u a 5 a d s d s c V Q Q N & 1 =X=X=X=X=X=X=X=X=X",
"=X=X=X=X=X=X=X=X=X=X=X=X=X=X=X=X=X=X=X=X=Xm 3 n } { f { { d 8 N q e e C V Q V N 1 2 =X=X=X=X=X=X=X=X=X",
"=X=X=X=X=X=X=X=X=X=X=X=X=X=X=X=X=X=X=X=X=X=Xf f m { m { D S S d 2 * 1 C ^ Q d V q , =X=X=X=X=X=X=X=X=X",
"=X=X=X=X=X=X=X=X=X=X=X=X=X=X=X=X=X=X=X=X=X=X=Xm y y m y N N } d 5 = q d ^ ^ c V s 2   =X=X=X=X=X=X=X=X",
"=X=X=X=X=X=X=X=X=X=X=X=X=X=X=X=X=X=X=X=X=X=X=X=X=Xy 3 u u p u 5 5 d ^ 8 C X.^ N N = + =X=X=X=X=X=X=X=X",
"=X=X=X=X=X=X=X=X=X=X=X=X=X=X=X=X=X=X=X=X=X=X=X=X=X=X=X=X3 : : : f { S p e X.....S 4 @ . =X=X=X=X=X=X=X",
"=X=X=X=X=X=X=X=X=X=X=X=X=X=X=X=X=X=X=X=X=X=X=X=X=X=X=X=X=X=X=X+ 1 h  .h p C S } D N 4   =X=X=X=X=X=X=X",
"=X=X=X=X=X=X=X=X=X=X=X=X=X=X=X=X=X=X=X=X=X=X=X=X=X=X=X=X=X=X=X=X=X3 y f p D N Q A N p O =X=X=X=X=X=X=X",
"=X=X=X=X=X=X=X=X=X=X=X=X=X=X=X=X=X=X=X=X=X=X=X=X=X=X=X=X=X=X=X=X=X=X@ , @ B D N A S A 5 : =X=X=X=X=X=X",
"=X=X=X=X=X=X=X=X=X=X=X=X=X=X=X=X=X=X=X=X=X=X=X=X=X=X=X=X=X=X=X=X=X=X=XO , d n u A S z s : =X=X=X=X=X=X",
"=X=X=X=X=X=X=X=X=X=X=X=X=X=X=X=X=X=X=X=X=X=X=X=X=X=X=X=X=X=X=X=X=X=X=X=X=X=X, N A S N  .  : =X=X=X=X=X",
"=X=X=X=X=X=X=X=X=X=X=X=X=X=X=X=X=X=X=X=X=X=X=X=X=X=X=X=X=X=X=X=X=X=X=X=X=X=X@ y n { M f p : =X=X=X=X=X",
"=X=X=X=X=X=X=X=X=X=X=X=X=X=X=X=X=X=X=X=X=X=X=X=X=X=X=X=X=X=X=X=X=X=X=X=X=X=X=Xy D { N N , : =X=X=X=X=X",
"=X=X=X=X=X=X=X=X=X=X=X=X=X=X=X=X=X=X=X=X=X=X=X=X=X=X=X=X=X=X=X=X=X=X=X=X=X=X=X5 h n h g y : =X=X=X=X=X",
"=X=X=X=X=X=X=X=X=X=X=X=X=X=X=X=X=X=X=X=X=X=X=X=X=X=X=X=X=X=X=X=X=X=X=X=X=X=X=X3 3 : i y :   =X=X=X=X=X",
"=X=X=X=X=X=X=X=X=X=X=X=X=X=X=X=X=X=X=X=X=X=X=X=X=X=X=X=X=X=X=X=X=X=X=X=X=X=X=Xy 3 j y p 5 . 1 =X=X=X=X",
"=X=X=X=X=X=X=X=X=X=X=X=X=X=X=X=X=X=X=X=X=X=X=X=X=X=X=X=X=X=X=X=X=X=X=X=X=X=X=XO 3 5 1 + 1   : =X=X=X=X",
"=X=X=X=X=X=X=X=X=X=X=X=X=X=X=X=X=X=X=X=X=X=X=X=X=X=X=X=X=X=X=X=X=X=X=X=X=X=X=X> i y y 5 , @ =X=X=X=X=X",
"=X=X=X=X=X=X=X=X=X=X=X=X=X=X=X=X=X=X=X=X=X=X=X=X=X=X=X=X=X=X=X=X=X=X=X=X=X=X=X=X=X=X=X=X=X=X=X=X=X=X=X",
"=X=X=X=X=X=X=X=X=X=X=X=X=X=X=X=X=X=X=X=X=X=X=X=X=X=X=X=X=X=X=X=X=X=X=X=X=X=X=X=X=X=X=X=X=X=X=X=X=X=X=X",
"=X=X=X=X=X=X=X=X=X=X=X=X=X=X=X=X=X=X=X=X=X=X=X=X=X=X=X=X=X=X=X=X=X=X=X=X=X=X=X=X=X=X=X=X=X=X=X=X=X=X=X"
};
