/* XPM */
static char *_cb4f6cce46c4ce298cde282affc4fb4MWZJK0hFiz1ZvQsQ[] = {
/* columns rows colors chars-per-pixel */
"64 64 179 2 ",
"   c #ADD8E6",
".  c #020202",
"X  c #0A0201",
"o  c #0B0C04",
"O  c #0C0C0C",
"+  c #060D05",
"@  c #170000",
"#  c #190D00",
"$  c #120A08",
"%  c #110E05",
"&  c #171006",
"*  c #10150E",
"=  c #1B140B",
"-  c #0D0C11",
";  c #0F1113",
":  c #131313",
">  c #1A1617",
",  c #161914",
"<  c #191A17",
"1  c #191718",
"2  c #1C1C1C",
"3  c #141318",
"4  c #2C0500",
"5  c #2B0A00",
"6  c #240B07",
"7  c #261200",
"8  c #2E1308",
"9  c #2E1E0F",
"0  c #321800",
"q  c #3B1C08",
"w  c #241E14",
"e  c #281914",
"r  c #221F1B",
"t  c #361F14",
"y  c #232219",
"u  c #2B2118",
"i  c #2C2314",
"p  c #30281D",
"a  c #1E1F21",
"s  c #1E2023",
"d  c #242424",
"f  c #2A2422",
"g  c #262827",
"h  c #2B2B26",
"j  c #26262A",
"k  c #2B2C2B",
"l  c #272B2C",
"z  c #362E23",
"x  c #32322E",
"c  c #3E332B",
"v  c #2E2E36",
"b  c #2D3132",
"n  c #343434",
"m  c #3A3632",
"M  c #3B3B36",
"N  c #383639",
"B  c #3C3C3B",
"V  c #353938",
"C  c #43240A",
"Z  c #48280F",
"A  c #462104",
"S  c #432E1F",
"D  c #4F2A18",
"F  c #4A2A15",
"G  c #553415",
"H  c #423628",
"J  c #593E29",
"K  c #413C35",
"L  c #413F3D",
"P  c #65451F",
"I  c #5E4026",
"U  c #404133",
"Y  c #43423D",
"T  c #4B423D",
"R  c #5D463A",
"E  c #6F4724",
"W  c #714B26",
"Q  c #65463B",
"!  c #6F573D",
"~  c #6B5435",
"^  c #394444",
"/  c #424242",
"(  c #4F4F45",
")  c #4C4C4B",
"_  c #4B4643",
"`  c #4F4F51",
"'  c #545352",
"]  c #5B5B5B",
"[  c #684F4B",
"{  c #685046",
"}  c #675941",
"|  c #715643",
" . c #645E58",
".. c #68685F",
"X. c #776B5F",
"o. c #746756",
"O. c #646467",
"+. c #7B7B7A",
"@. c #727272",
"#. c #8E603E",
"$. c #845C4C",
"%. c #89684A",
"&. c #926C45",
"*. c #9F754F",
"=. c #896E59",
"-. c #996F56",
";. c #AC724D",
":. c #A87A59",
">. c #A87B52",
",. c #B97C5D",
"<. c #8A7769",
"1. c #977760",
"2. c #9C7765",
"3. c #867B72",
"4. c #957F71",
"5. c #927F78",
"6. c #A4865E",
"7. c #AE8359",
"8. c #9C866D",
"9. c #8E8779",
"0. c #988876",
"q. c #A28863",
"w. c #B08E60",
"e. c #B9876E",
"r. c #BC8C66",
"t. c #BE9267",
"y. c #A68D77",
"u. c #A88875",
"i. c #AE997E",
"p. c #B29077",
"a. c #BC9B7C",
"s. c #C7835E",
"d. c #CE8A66",
"f. c #C48768",
"g. c #DB916A",
"h. c #C4977A",
"j. c #D69B78",
"k. c #CDA977",
"l. c #968281",
"z. c #9A928F",
"x. c #AF9C8D",
"c. c #B39382",
"v. c #A09F9D",
"b. c #B49B9A",
"n. c #B7A08E",
"m. c #BAA68E",
"M. c #B9A398",
"N. c #B4A3A3",
"B. c #B3AFA6",
"V. c #B6B1AB",
"C. c #C09F8C",
"Z. c #D49F80",
"A. c #D4A68C",
"S. c #D8A886",
"D. c #DCB08B",
"F. c #CDA994",
"G. c #C0AA9F",
"H. c #C5A598",
"J. c #DDAB90",
"K. c #DBB397",
"L. c #E4BA88",
"P. c #E4B491",
"I. c #ECBB9D",
"U. c #CDBCAA",
"Y. c #D5B8A2",
"T. c #C3B9B2",
"R. c #E8BCA3",
"E. c #E5C396",
"W. c #F7CB9C",
"Q. c #C8C3B6",
"!. c #F7CCAA",
"~. c #E5C5B8",
"^. c #F6CAB2",
"/. c #D1D0C2",
"(. c #E3CDC0",
"). c #E9DAC3",
"_. c #FFDBC0",
"`. c #F0DFCD",
"'. c #FFFCEA",
/* pixels */
"                                                                                                                                ",
"                                                                                                                                ",
"                                                                                                                                ",
"                                                                                                                                ",
"                                                                                                                                ",
"                                                                                                                                ",
"                                                                                                                                ",
"                                                                  K  .9.3.T.                                                    ",
"                                                                S F Z G C J G.                                                  ",
"                                                                u.h.P.D.*.G q M.                                                ",
"                                                                F._.P.D.t.E C =.                                                ",
"                                                                c.A.#.>.7.W I 4.                                                ",
"                                                              ( 8 D 4 4 &.P ! 0.V.                                              ",
"                                                              ..{ 2.A &.E.6.~ 0.B.                                              ",
"                                                                c.R.S.W.L.k.6.} 9.+.                                            ",
"                          . . . . . . . o . . . . O * ,         c.I.r.t.L.w.q.8.X . 2 ^                                         ",
"                          . . . . . . . X . . . . + y % T     l.$.J.h.!.K.%.Y.0.w r d ; .                                       ",
"                          .         . $     3 V . o X 9 <.b.N.@ $.^.^.F.%.y.`.H = m / B O a                                     ",
"                                                U } 8.p.F.H.[ 6 Q Y.C.y.x.'.3.p w L n N O d                                     ",
"                                                  i.I.I.A.K.H.t R Q t R <.X.z = f x N L . :                                     ",
"                                                ).a.;.d.f.Z.1.x.5.e c u = = K Y n B n N . >                                     ",
"                                              /.m.h.j.g.s.j.=.U.3.f _ Y m Y M B ) N n n .                                       ",
"                                              Q.<.-.,.d.f.:.0 o.z.d B L k M M N / b d a .                                       ",
"                                                (.u.e.f.A.%.7 i ..s b h x N g n d k N 3 O                                       ",
"                                                    ~.5 | S # = : < : < O < , d s a j : /                                       ",
"                                                    N.X c & y r . d x d k < d < , : 2 2                                         ",
"                                                      V : k O . +.' : x Y Y x k d d B -                                         ",
"                                                        ^ b v O.  v.. h B M B 2 2 k N . g                                       ",
"                                                                    < h x M x k d d k . `                                       ",
"                                                                  ; . g M k M d n d 2 : o                                       ",
"                                                                    O b x x ) n 2 d d > .                                       ",
"                                                                    s l d / _ N r 2 1 d o 2                                     ",
"                                                                    j 2 2 ) N N d d 2 d . :                                     ",
"                                                                    . n d B ) / N g 2 d . 2                                     ",
"                                                                    . n : d j j k d < : .                                       ",
"                                                                  , d 2 d O . , < < 2 < O                                       ",
"                                                                  O 2 d d 2 O : d n k j .                                       ",
"                                                                . o d g 2 o / n n B N g :             .                         ",
"                                                                . N / N k :   d g N n g o o , o o . O . .                       ",
"                                                              . : N N N < :   2 k N N k : , 2 O . O . : .                       ",
"                                                              . : N N k .     < d N N n 2 d n o o . . . .                       ",
"                                                              . : / g < 2     : , B n < g B : O : . . . .                       ",
"                                                              . ; B d , .     . o : g d d d < .     . . .                       ",
"                                                              . N k 2 .         . . . : 2 , O         . . .                     ",
"                                                              . n d d :                                 .                       ",
"                                                            . . +.] n .                                                         ",
"                                                            . . ) @.o O                                                         ",
"                                                              . O.) . .                                                         ",
"                                                            . . / ' . .                                                         ",
"                                                            . . _ ] . .                                                         ",
"                                                            . . L B . .                                                         ",
"                                                            . . / / . .                                                         ",
"                                                            . . , . .                                                           ",
"                                                        . O . . 2 . .                                                           ",
"                                                        . . . . . . .                                                           ",
"                                                            . . . . .                                                           ",
"                                                                  .                                                             ",
"                                                                                                                                ",
"                                                                                                                                ",
"                                                                                                                                ",
"                                                                                                                                ",
"                                                                                                                                ",
"                                                                                                                                ",
"                                                                                                                                "
};
