/* XPM */
static char *result[] = {
/* columns rows colors chars-per-pixel */
"32 32 142 2 ",
"   c #130E0E",
".  c #151414",
"X  c #191616",
"o  c #191917",
"O  c #141619",
"+  c #191719",
"@  c #1D1C1D",
"#  c #260E08",
"$  c #26150C",
"%  c #271711",
"&  c #201D1E",
"*  c #291D1A",
"=  c #1F201E",
"-  c #21211F",
";  c #3F221A",
":  c #1F1E20",
">  c #201E21",
",  c #242324",
"<  c #292321",
"1  c #282826",
"2  c #242629",
"3  c #25282B",
"4  c #2C2C2C",
"5  c #372924",
"6  c #322E2B",
"7  c #292C31",
"8  c #2D3034",
"9  c #343334",
"0  c #383536",
"q  c #353639",
"w  c #383738",
"e  c #34393A",
"r  c #3B3A3B",
"t  c #402E26",
"y  c #42322D",
"u  c #543423",
"i  c #72432F",
"p  c #634035",
"a  c #664B3E",
"s  c #714531",
"d  c #3E4447",
"f  c #394549",
"g  c #3E4A4F",
"h  c #5D4C40",
"j  c #5B4E4A",
"k  c #414E54",
"l  c #465258",
"z  c #4E595F",
"x  c #505B5F",
"c  c #6E584F",
"v  c #705145",
"b  c #7B5442",
"n  c #735848",
"m  c #7F5C4D",
"M  c #796157",
"N  c #72635D",
"B  c #7F6559",
"V  c #54666D",
"C  c #58686E",
"Z  c #576C73",
"A  c #5A6D75",
"S  c #597177",
"D  c #5E727A",
"F  c #7B6760",
"G  c #736862",
"H  c #616F76",
"J  c #60737A",
"K  c #62787D",
"L  c #6D797E",
"P  c #814F3A",
"I  c #8C573F",
"U  c #885840",
"Y  c #986143",
"T  c #96664B",
"R  c #876757",
"E  c #8C6253",
"W  c #866A5B",
"Q  c #916452",
"!  c #9E6D52",
"~  c #957667",
"^  c #95766A",
"/  c #8F7D71",
"(  c #84807D",
")  c #BE8867",
"_  c #B1896C",
"`  c #BE886B",
"'  c #A38475",
"]  c #AD8571",
"[  c #AC8B7C",
"{  c #BA8A73",
"}  c #C28969",
"|  c #C49177",
" . c #C99376",
".. c #D29776",
"X. c #657B83",
"o. c #6A7E85",
"O. c #6C848B",
"+. c #70858D",
"@. c #6F8790",
"#. c #78919A",
"$. c #7B96A1",
"%. c #7F9DA6",
"&. c #898885",
"*. c #8A9497",
"=. c #8E9A9D",
"-. c #AE9486",
";. c #BE9483",
":. c #BF9F85",
">. c #BAA08B",
",. c #8D9FA4",
"<. c #8DA0A5",
"1. c #84A4AE",
"2. c #8CA4AC",
"3. c #90A2A8",
"4. c #A8A8A5",
"5. c #C89B83",
"6. c #C29A89",
"7. c #C99F88",
"8. c #C5A187",
"9. c #D0A281",
"0. c #D2A088",
"q. c #DBAB8A",
"w. c #D1AE9A",
"e. c #96BAC6",
"r. c #98BCC7",
"t. c #97BBC8",
"y. c #99BFCC",
"u. c #A9BCC1",
"i. c #9CC3CF",
"p. c #9EC5D2",
"a. c #B1C3C7",
"s. c #A3C7D2",
"d. c #ACC7D1",
"f. c #A4C9D5",
"g. c #A5CDDB",
"h. c #ABCDD8",
"j. c #A7D0DE",
"k. c #A9D1DE",
"l. c #ACD7E5",
"z. c #ADD8E6",
"x. c #AFDBE9",
"c. c #B0DBEA",
/* pixels */
"z.z.z.z.z.z.z.z.x.l.l.l.z.z.l.z.z.z.z.l.z.x.z.z.z.z.z.z.z.z.z.z.",
"z.z.z.z.z.z.z.z.l.l.l.x.z.z.z.z.z.z.l.z.j.s.s.g.z.z.z.z.z.z.z.z.",
"z.z.z.z.z.z.z.z.l.x.l.l.z.z.z.z.z.z.z.l.( c B N <.k.z.z.z.z.z.z.",
"z.z.z.z.z.z.z.z.l.l.x.x.z.z.z.z.z.z.l.h.-.6.;.E p *.x.z.z.z.z.z.",
"z.z.z.z.z.z.l.z.x.l.x.x.z.l.z.x.z.z.c.d.~ E P I i &.x.z.l.z.z.z.",
"z.z.z.z.z.z.z.z.p.l.j.p.x.x.x.x.x.z.z.s.R U Y } ! W =.g.x.z.l.z.",
"z.z.z.z.z.z.1.V e l g q V J H H L 2.z.s.' 6.q.9._ n 5 z O.p.z.z.",
"z.z.z.z.z.x.1.Z S S D D D C * # ; B 4.G U w.8.>.>.h < 8 : X.x.z.",
"z.z.z.z.z.l.z.x.c.c.c.x.x.x.,.~ { 0.| b v W F / N 6 9 r - S x.z.",
"z.z.z.z.z.z.z.z.z.z.z.z.l.l.a.7.| ..} ] M y y y r 0 9 4 = S x.z.",
"z.z.z.z.z.z.z.z.z.z.z.z.z.z.u.[ { ` T v j 6 w 9 w 9 4 , o O.x.z.",
"z.z.z.z.z.z.z.z.z.z.z.z.z.z.z.d.^ s u % , , > 2 - = = o 1 r.z.z.",
"z.z.z.z.z.z.z.z.z.z.z.z.z.z.z.z.,.t $ 4 C 9 4 0 4 , @ @ 2 i.x.z.",
"z.z.z.z.z.z.z.z.z.z.z.z.z.z.z.z.l.e.O.e.z.J 3 w q 2 : @ 2 r.z.z.",
"z.z.z.z.z.z.z.z.z.z.z.z.z.z.z.z.z.z.c.z.x.X., r q , @ = O O.x.z.",
"z.z.z.z.z.z.z.z.z.z.z.z.z.z.z.z.z.z.z.z.x.o.@ 6 r 9 = , o D x.z.",
"z.z.z.z.z.z.z.z.z.z.z.z.l.z.z.z.z.z.z.z.c.D   , 6 q 4 - . D x.z.",
"z.z.z.z.z.z.z.z.z.z.z.z.z.z.z.z.z.z.z.z.c.A X @ o , 4 1 . K c.z.",
"z.z.z.z.z.z.z.z.z.z.z.z.z.z.z.z.z.z.z.z.c.A X @ 1 9 4 1 2 #.p.j.",
"z.z.z.z.z.z.z.z.z.z.z.z.z.z.z.z.z.z.z.z.x.X.. 6 0 0 4 @ @ e 4 l ",
"z.z.z.z.z.z.z.z.z.z.z.z.z.z.z.z.z.z.z.z.c.#.2 0 9 4 : , 4 + @ > ",
"z.z.z.z.z.z.z.l.z.z.z.z.z.z.z.z.z.z.z.z.g.k > 7 , : , 9 9 : z O.",
"z.z.z.z.z.z.z.z.z.z.z.z.z.z.z.z.z.z.z.z.t.2 , > O , e d D X.s.x.",
"z.z.z.z.z.z.z.z.z.z.z.z.z.z.z.z.z.z.z.z.o.4 0 : g e.p.p.x.x.z.x.",
"z.l.z.z.z.z.z.z.z.z.z.z.z.z.z.z.z.z.x.p.e 0 0 : %.x.x.l.x.l.x.l.",
"z.z.z.z.z.z.z.z.z.z.z.z.z.z.z.z.l.x.x.t.7 r 4 7 p.x.l.x.l.l.z.z.",
"z.z.z.z.z.z.z.z.z.l.z.z.z.z.z.z.z.l.p.o.2 4 O A l.l.l.l.z.z.z.z.",
"z.z.z.z.z.z.z.z.z.z.z.z.z.z.z.z.z.g.V 3 +   f p.x.l.x.l.z.z.z.z.",
"z.z.z.z.z.z.z.z.z.z.z.z.z.z.z.z.l.z.g.%.g O X.x.l.z.z.z.z.z.z.z.",
"z.z.z.z.z.z.z.z.z.z.z.z.z.z.z.z.z.l.l.x.g.t.g.l.z.z.z.z.z.l.z.z.",
"z.z.z.z.z.z.z.l.z.z.z.z.z.z.z.z.z.z.z.l.z.x.z.l.z.z.z.z.z.z.z.z.",
"z.z.z.z.z.z.z.z.z.z.z.z.z.z.z.z.z.z.z.z.z.z.z.z.z.z.z.z.z.z.z.z."
};
