/* XPM */
static char *result[] = {
/* columns rows colors chars-per-pixel */
"57 64 206 2 ",
"   c #030302",
".  c #0B0402",
"X  c #060900",
"o  c #0B0C04",
"O  c #050508",
"+  c #08040A",
"@  c #0C0C0C",
"#  c #110300",
"$  c #1B0600",
"%  c #100D0D",
"&  c #190A07",
"*  c #0E100E",
"=  c #131205",
"-  c #12130D",
";  c #1A160A",
":  c #0E0F11",
">  c #0F1012",
",  c #131313",
"<  c #1A1514",
"1  c #1B1B15",
"2  c #1C1C1B",
"3  c #181518",
"4  c #290700",
"5  c #370A00",
"6  c #241303",
"7  c #28190B",
"8  c #341D0B",
"9  c #211C17",
"0  c #221C1E",
"q  c #2A1915",
"w  c #361F11",
"e  c #1E201C",
"r  c #22231D",
"t  c #2A221B",
"y  c #26291E",
"u  c #2A2317",
"i  c #322213",
"p  c #362618",
"a  c #373212",
"s  c #272904",
"d  c #1E1F22",
"f  c #221D24",
"g  c #1F2024",
"h  c #242423",
"j  c #2B2724",
"k  c #272924",
"l  c #292B24",
"z  c #2B2429",
"x  c #272929",
"c  c #2C2C2B",
"v  c #322A24",
"b  c #3A2D24",
"n  c #312F2B",
"m  c #2F322A",
"M  c #34332E",
"N  c #3B342A",
"B  c #3B3524",
"V  c #2E2E31",
"C  c #2F3032",
"Z  c #333333",
"A  c #3A3633",
"S  c #3A3A35",
"D  c #353439",
"F  c #3B3B3B",
"G  c #393737",
"H  c #441F0C",
"J  c #43240F",
"K  c #462913",
"L  c #4A3218",
"P  c #53331D",
"I  c #5E341B",
"U  c #432F22",
"Y  c #493B2D",
"T  c #43372A",
"R  c #573220",
"E  c #423C35",
"W  c #423E3B",
"Q  c #4B3C36",
"!  c #543F32",
"~  c #563F39",
"^  c #3F413B",
"/  c #5A422E",
"(  c #524429",
")  c #414234",
"_  c #44423E",
"`  c #4A433C",
"'  c #4A4035",
"]  c #584738",
"[  c #5D503F",
"{  c #684328",
"}  c #74452B",
"|  c #795539",
" . c #634835",
".. c #3E3F42",
"X. c #434344",
"o. c #4B4944",
"O. c #48464C",
"+. c #554C43",
"@. c #594B40",
"#. c #5E5244",
"$. c #55554D",
"%. c #5B5955",
"&. c #6D5E4F",
"*. c #685646",
"=. c #715A4B",
"-. c #785D45",
";. c #605752",
":. c #775F55",
">. c #676941",
",. c #7C634D",
"<. c #6D665C",
"1. c #7A675B",
"2. c #6C6761",
"3. c #7E776F",
"4. c #7B7871",
"5. c #865A46",
"6. c #87684A",
"7. c #96744C",
"8. c #8B6C5C",
"9. c #8B6953",
"0. c #91775D",
"q. c #967658",
"w. c #9A6B59",
"e. c #A1715B",
"r. c #816F61",
"t. c #85756D",
"y. c #8A7E6B",
"u. c #8D7869",
"i. c #967A66",
"p. c #897E73",
"a. c #A97C67",
"s. c #9C8465",
"d. c #8F8377",
"f. c #998679",
"g. c #AB8A67",
"h. c #B28C66",
"j. c #AE996E",
"k. c #A28471",
"l. c #AB8E7A",
"z. c #A78A75",
"x. c #B78C76",
"c. c #B9977D",
"v. c #A99879",
"b. c #A7A678",
"n. c #C3A97E",
"m. c #C5A278",
"M. c #928985",
"N. c #9C8E81",
"B. c #9F9482",
"V. c #A18881",
"C. c #A99488",
"Z. c #B49B8D",
"A. c #B99887",
"S. c #B99E94",
"D. c #B7A988",
"F. c #BFB085",
"G. c #B7A798",
"H. c #ABA496",
"J. c #B5AAA2",
"K. c #BBB3B0",
"L. c #C29B8A",
"P. c #C8A988",
"I. c #D1A98F",
"U. c #CAB08F",
"Y. c #D8B58A",
"T. c #CCA796",
"R. c #C4AC95",
"E. c #C6A798",
"W. c #D4AE9B",
"Q. c #D0AC92",
"!. c #CBB796",
"~. c #DEBC96",
"^. c #D7B793",
"/. c #E5B99C",
"(. c #CDBAA9",
"). c #DDBBA3",
"_. c #D2BDAD",
"`. c #D7B8A7",
"'. c #C0B5B1",
"]. c #D1BDB4",
"[. c #E6BEAD",
"{. c #E4B7A0",
"}. c #CAC198",
"|. c #D1C9A5",
" X c #CAC1BC",
".X c #D8C2B8",
"XX c #DAD8B1",
"oX c #E7C5A7",
"OX c #E4C8BD",
"+X c #F1C9B7",
"@X c #FFD3BC",
"#X c #DCD2C6",
"$X c #EACEC0",
"%X c #E4D3C4",
"&X c #ECD7C9",
"*X c #F1D6C5",
"=X c #F1DAC9",
"-X c #E9DCD4",
";X c #F3E2DB",
":X c #EFE8E0",
">X c #F2EDE9",
",X c #FAEAE6",
"<X c #FEF3EB",
"1X c #FFFDFA",
"2X c #F7F3F0",
"3X c None",
/* pixels */
"3X3X3X3X3X3X3X3X3X3X3X3X3X3X3X3X3X3X3X3X3X3X3X3X3X3X3X3X3X2X>X3X3X3X3X3X3X3X3X3X3X3X3X3X3X3X3X3X3X3X3X3X3X3X3X3X3X",
"3X3X3X3X3X3X3X3X3X3X3X3X3X3X3X3X3X3X3X3X3X3X3X3X3X3X3X3X>3X>3X3X3X3X3X3X3X3X3X3X3X3X3X3X3X3X3X3X3X3X3X3X3X3X3X3X3X",
"3X3X3X3X3X3X3X3X3X3X3X3X3X3X3X3X3X3X3X3X3X3X3X3X3X3X3X` ;.M.K.J.:X3X3X3X3X3X3X3X3X3X3X3X3X3X3X3X3X3X3X3X3X3X3X3X3X",
"3X3X3X3X3X3X3X3X3X3X3X3X3X3X3X3X3X3X3X3X3X3X3X3X3X2.+.+.E b q q #.` 3X3X3X3X3X3X3X3X3X3X3X3X3X3X3X3X3X3X3X3X3X3X3X",
"3X3X3X3X3X3X3X3X3X3X3X3X3X3X3X3X3X3X3X3X3X3X3X3X3Xf.B @.Y 1.:.=.! p U 3X3X3X3X3X3X3X3X3X3X3X3X3X3X3X3X3X3X3X3X3X3X",
"3X3X3X3X3X3X3X3X3X3X3X3X3X3X3X3X3X3X3X3X3X3X3X3X3XH.f.(._.Z.W.E.P / p 3X3X3X3X3X3X3X3X3X3X3X3X3X3X3X3X3X3X3X3X3X3X",
"3X3X3X3X3X3X3X3X3X3X3X3X3X3X3X3X3X3X3X3X3X3X3X3X3XG.G.%X*X+X[.x.I / J U 3X3X3X3X3X3X3X3X3X3X3X3X3X3X3X3X3X3X3X3X3X",
"3X3X3X3X3X3X3X3X3X3X3X3X3X3X3X3X3X3X3X3X3X3X3X3X3XB..X&Xk.9.x.a.{ { J ] 3X3X3X3X3X3X3X3X3X3X3X3X3X3X3X3X3X3X3X3X3X",
"3X3X3X3X3X3X3X3X3X3X3X3X3X3X3X3X3X3X3X3X3X3X3X3X3X#.1.a.H 5.w.e.} } L { 3X3X3X3X3X3X3X3X3X3X3X3X3X3X3X3X3X3X3X3X3X",
"3X3X3X3X3X3X3X3X3X3X3X3X3X3X3X3X3X3X3X3X3X3X3X3X3X! 7 4 5 5 5 } } I 6.,.Y 3X3X3X3X3X3X3X3X3X3X3X3X3X3X3X3X3X3X3X3X",
"3X3X3X3X3X3X3X3X3X3X3X3X3X3X3X3X3X3X3X3X3X3X3X3X3Xr.=.l.R R 5.@Xx.h.6.-.] 3X3X3X3X3X3X3X3X3X3X3X3X3X3X3X3X3X3X3X3X",
"3X3X3X3X3X3X3X3X3X3X3X3X3X3X3X3X3X3X3X3X3X3X3X3X3XG.z.`.A.[.[.{./.oX9.( 3X3X3X3X3X3X3X3X3X3X3X3X3X3X3X3X3X3X3X3X3X",
"3X3X3X3X3X3X3X3X1 < 3X3X3X3X3X3X3X3X3X3X3X3X3X3X3XC.S.E.T.L.W.A.I.7.s.u.# ; 0 3X3X3X3X3X3X3X3X3X3X3X3X3X3X3X3X3X3X",
"y X   = o = o - * X     - < < < ; 1 h _ 3 M.3X-X,X].S.OXA.8.T.{.Q.i.|.D.. 9 < X 0 % 3X3X3X3X3X3X3X3X3X3X3X3X3X3X3X",
"l X                   X o o 1 1 l k 9 M . K.1X,X;X~ V.$XS.W.).W.x.-.*Xd.7 = N _ 0 < < 3X3X3X3X3X3X3X3X3X3X3X3X3X3X",
"3Xe e - o - * o * * - ; e r y r X ; = = N J.#X<Xt.$ N.&X*X$XE.i.-.D.%X6 y 9 _ M _ G . % 3X3X3X3X3X3X3X3X3X3X3X3X3X",
"3X3X3X3X3X3X3X3X3X3X3X3X3X3X3XX X s a ( R.D.f.Z.4 b 1.%X%X.XV.&.G.2Xt.i q A ` _ A n + , 3X3X3X3X3X3X3X3X3X3X3X3X3X",
"3X3X3X3X3X3X3X3X3X3X3X3X3X3X3X3X>.b.}.}.U.oXP.k.i 7 ' #Xd.y.D.-X<X].v E n E W A z n   @ 3X3X3X3X3X3X3X3X3X3X3X3X3X",
"3X3X3X3X3X3X3X3X3X3X3X3X3X3X3X3XXXb.U.n.Y.^.).A.=.i ] ' N Y *.[ 2.E t W j E G A E 3 O o 3X3X3X3X3X3X3X3X3X3X3X3X3X",
"3X3X3X3X3X3X3X3X3X3X3X3X3X3X3X3X|.s.j.n.Y.P.~.k.f.d.d.. v N p B q 9 W t 9 M W _ F % + 3X3X3X3X3X3X3X3X3X3X3X3X3X3X",
"3X3X3X3X3X3X3X3X3X3X3X3X3X3X3X3Xv.U.n.7.m.h.m.q.|.;X3.m B B ^ B ` o.S S M M S S c 0 @ 3X3X3X3X3X3X3X3X3X3X3X3X3X3X",
"3X3X3X3X3X3X3X3X3X3X3X3X3X3X3Xd.!.c.~.~.Y.h.Y.q.] -X<.- ` ^ ^ ^ _ _ n S M m M W j - 2 3X3X3X3X3X3X3X3X3X3X3X3X3X3X",
"3X3X3X3X3X3X3X3X3X3X3X3X3X3X3X<.&.z.s.q.7.g.6.L 7 J.4.- ^ ^ m ^ M M _ S A M l h 2 O 3 3X3X3X3X3X3X3X3X3X3X3X3X3X3X",
"3X3X3X3X3X3X3X3X3X3X3X3X3X3X3X3X,.8.l.E.D.).0.6 X <.$.X m ^ F m M ^ S ^ M k l y @   2 3X3X3X3X3X3X3X3X3X3X3X3X3X3X",
"3X3X3X3X3X3X3X3X3X3X3X3X3X3X3X3X3X3Xy.] :.t.~ 4 q # m 1 e m F F M M ^ e h e e l   X 1 3X3X3X3X3X3X3X3X3X3X3X3X3X3X",
"3X3X3X3X3X3X3X3X3X3X3X3X3X3X3X3X3X3X3X# q Q & < N % y l e , g g l e k m g l e e   , 3X3X3X3X3X3X3X3X3X3X3X3X3X3X3X",
"3X3X3X3X3X3X3X3X3X3X3X3X3X3X3X3X3X3X3X0 z E 0 f r y ; l ^ V V F Z h e x e l g e * * 3X3X3X3X3X3X3X3X3X3X3X3X3X3X3X",
"3X3X3X3X3X3X3X3X3X3X3X3X3X3X3X3X3X3X3XD + O.f , - o y l h D O...^ ^ m 2 e e g l h , 3X3X3X3X3X3X3X3X3X3X3X3X3X3X3X",
"3X3X3X3X3X3X3X3X3X3X3X3X3X3X3X3X3X3X3X3XD + 3   X 1 3X3XX F O.o.S X.c e h e e e > : 3X3X3X3X3X3X3X3X3X3X3X3X3X3X3X",
"3X3X3X3X3X3X3X3X3X3X3X3X3X3X3X3X3X3X3X3X3X3XD 3X3X3X3X3Xh 2 F c S F c c e e 2 < e @ 3X3X3X3X3X3X3X3X3X3X3X3X3X3X3X",
"3X3X3X3X3X3X3X3X3X3X3X3X3X3X3X3X3X3X3X3X3X3X3X3X3X3X3X3Xc < c S S F C h 1 2 2 3 h 3 3X3X3X3X3X3X3X3X3X3X3X3X3X3X3X",
"3X3X3X3X3X3X3X3X3X3X3X3X3X3X3X3X3X3X3X3X3X3X3X3X3X3X3X3X  l 1 _ n X.^ < e 1 2 e < < d 3X3X3X3X3X3X3X3X3X3X3X3X3X3X",
"3X3X3X3X3X3X3X3X3X3X3X3X3X3X3X3X3X3X3X3X3X3X3X3X3X3X3X3X+ r c E X.F F F M c c h 2 O h 3X3X3X3X3X3X3X3X3X3X3X3X3X3X",
"3X3X3X3X3X3X3X3X3X3X3X3X3X3X3X3X3X3X3X3X3X3X3X3X3X3X3X3Xl c F Z X.F Z c h 2 < , 3 3 O 3X3X3X3X3X3X3X3X3X3X3X3X3X3X",
"3X3X3X3X3X3X3X3X3X3X3X3X3X3X3X3X3X3X3X3X3X3X3X3X3X3X3X3Xc A x S X.X.X.F Z V c x c r 2 3X3X3X3X3X3X3X3X3X3X3X3X3X3X",
"3X3X3X3X3X3X3X3X3X3X3X3X3X3X3X3X3X3X3X3X3X3X3X3X3X3X3X3X@ G , 2 c c c c Z Z V x g c O * 3X3X3X3X3X3X3X3X3X3X3X3X3X",
"3X3X3X3X3X3X3X3X3X3X3X3X3X3X3X3X3X3X3X3X3X3X3X3X3X3X3X3XO n 2 h Z Z Z x x c Z F F Z   , 3X3X3X3X3X3X3X3X3X3X3X3X3X",
"3X3X3X3X3X3X3X3X3X3X3X3X3X3X3X3X3X3X3X3X3X3X3X3X3X3X3Xh   x , - 2 Z Z M c c c C Z 3   3X3X3X3X3X3X3X3X3X3X3X3X3X3X",
"3X3X3X3X3X3X3X3X3X3X3X3X3X3X3X3X3X3X3X3X3X3X3X3X3X3X3XO , 3 2 e h h 3 @ 3 h l c c * e 3X3X3X3X3X3X3X3X3X3X3X3X3X3X",
"3X3X3X3X3X3X3X3X3X3X3X3X3X3X3X3X3X3X3X3X3X3X3X3X3X3X, c c h 2 3 @ g h 3 d d h c n @ g 3X3X3X3X3X3X3X3X3X3X3X3X3X3X",
"3X3X3X3X3X3X3X3X3X3X3X3X3X3X3X3X3X3X3X3X3X3X3X3X3X> 2 V Z C e g @ e , h h h h 2 h + < 3X3X3X3X3X3X3X3X3X3X3X3X3X3X",
"3X3X3X3X3X3X3X3X3X3X3X3X3X3X3X3X3X3X3X3X3X3X3X3XC c D ..D Z C D 3 3 3X* C c Z V c + , 3X3X3X3X3X3X3X@ + 3X3X3X3X3X",
"3X3X3X3X3X3X3X3X3X3X3X3X3X3X3X3X3X3X3X3X3X3X3Xx   ..Z V ^ Z c @ < 3X3XO F c F Z c , 3 3X3XO 2 * * , 3 , 3X3X3X3X3X",
"3X3X3X3X3X3X3X3X3X3X3X3X3X3X3X3X3X3X3X3X3X3X3X  F D V V ..C h 2 3X3X3XO c c Z c Z e   O O , x < @ O x , 2 3X3X3X3X",
"3X3X3X3X3X3X3X3X3X3X3X3X3X3X3X3X3X3X3X3X3X3XD C O...D D g 2 x 3X3X3X3X, x G c Z c h < 2 Z Z h C c Z 2 F x @ 3X3X3X",
"3X3X3X3X3X3X3X3X3X3X3X3X3X3X3X3X3X3X3X3X3Xd @ V V X.D x * * 3X3X3X3X3X* c Z Z Z c e c h C C Z G G 2 C Z Z   @ 3X3X",
"3X3X3X3X3X3X3X3X3X3X3X3X3X3X3X3X3X3X3X3X3Xx O C D ....d 3 3X3X3X3X3X3X, c c Z Z x Z Z C F Z F Z h *   h Z 3 O 3X3X",
"3X3X3X3X3X3X3X3X3X3X3X3X3X3X3X3X3X3X3X3X3X3 c h 2 g , O : 3X3X3X3X3X3X@ c Z V Z c h F F Z F Z c @ , 3X, O   o @ 3X",
"3X3X3X3X3X3X3X3X3X3X3X3X3X3X3X3X3X3X3X3X3X  c h g , x   3X3X3X3X3X3X3X3 2 Z Z V c h F F h Z c h @ 3X3X3X3X, : , 3X",
"3X3X3X3X3X3X3X3X3X3X3X3X3X3X3X3X3X3X3X3X3X: Z S F < e O 3X3X3X3X3X3X3X3X@ 2 2 h x F ,   , h c 3 , 3X3X3X3X3X3X3X3X",
"3X3X3X3X3X3X3X3X3X3X3X3X3X3X3X3X3X3X3X3X, 2 O.F D e h 3 3X3X3X3X3X3X3X3X3X< O     2 < * < 3X3X3X3X3X3X3X3X3X3X3X3X",
"3X3X3X3X3X3X3X3X3X3X3X3X3X3X3X3X3X3X3X3X, 3 Z c D n , O 3X3X3X3X3X3X3X3X3X3X3X3X3X3X3X3X3X3X3X3X3X3X3X3X3X3X3X3X3X",
"3X3X3X3X3X3X3X3X3X3X3X3X3X3X3X3X3X3X3X3X  h G X.n F * O 3X3X3X3X3X3X3X3X3X3X3X3X3X3X3X3X3X3X3X3X3X3X3X3X3X3X3X3X3X",
"3X3X3X3X3X3X3X3X3X3X3X3X3X3X3X3X3X3X3X3X* Z x C n V 2   3X3X3X3X3X3X3X3X3X3X3X3X3X3X3X3X3X3X3X3X3X3X3X3X3X3X3X3X3X",
"3X3X3X3X3X3X3X3X3X3X3X3X3X3X3X3X3X3X3X3X  h F X.C 2 2 3X3X3X3X3X3X3X3X3X3X3X3X3X3X3X3X3X3X3X3X3X3X3X3X3X3X3X3X3X3X",
"3X3X3X3X3X3X3X3X3X3X3X3X3X3X3X3X3X3X3X  * F c C x e 3 3X3X3X3X3X3X3X3X3X3X3X3X3X3X3X3X3X3X3X3X3X3X3X3X3X3X3X3X3X3X",
"3X3X3X3X3X3X3X3X3X3X3X3X3X3X3X3X3X3X3XX : O.X.D V h * 3X3X3X3X3X3X3X3X3X3X3X3X3X3X3X3X3X3X3X3X3X3X3X3X3X3X3X3X3X3X",
"3X3X3X3X3X3X3X3X3X3X3X3X3X3X3X3X3X3X3XO   c X.o.h     3X3X3X3X3X3X3X3X3X3X3X3X3X3X3X3X3X3X3X3X3X3X3X3X3X3X3X3X3X3X",
"3X3X3X3X3X3X3X3X3X3X3X3X3X3X3X3X  + *   3 O 3 3   : 3X3X3X3X3X3X3X3X3X3X3X3X3X3X3X3X3X3X3X3X3X3X3X3X3X3X3X3X3X3X3X",
"3X3X3X3X3X3X3X3X3X3X3X3X3X3X3X3X  2 , h e h n * 2 3X3X3X3X3X3X3X3X3X3X3X3X3X3X3X3X3X3X3X3X3X3X3X3X3X3X3X3X3X3X3X3X",
"3X3X3X3X3X3X3X3X3X3X3X3X3X3X3X3X3XO   2 h 2 x <   3X3X3X3X3X3X3X3X3X3X3X3X3X3X3X3X3X3X3X3X3X3X3X3X3X3X3X3X3X3X3X3X",
"3X3X3X3X3X3X3X3X3X3X3X3X3X3X3X3X3X3X3X+ , < h @   3X3X3X3X3X3X3X3X3X3X3X3X3X3X3X3X3X3X3X3X3X3X3X3X3X3X3X3X3X3X3X3X",
"3X3X3X3X3X3X3X3X3X3X3X3X3X3X3X3X3X3X3X3X3X  O     3X3X3X3X3X3X3X3X3X3X3X3X3X3X3X3X3X3X3X3X3X3X3X3X3X3X3X3X3X3X3X3X",
"3X3X3X3X3X3X3X3X3X3X3X3X3X3X3X3X3X3X3X3X3X3X3X  3X3X3X3X3X3X3X3X3X3X3X3X3X3X3X3X3X3X3X3X3X3X3X3X3X3X3X3X3X3X3X3X3X"
};
