/* XPM */
static char *cb6a21788a824093d483156e13ff29bcerCNHzOiFu89Cm9Y[] = {
/* columns rows colors chars-per-pixel */
"64 64 192 2 ",
"   c None",
".  c #030302",
"X  c #0B0402",
"o  c #060900",
"O  c #0B0C04",
"+  c #050508",
"@  c #08040A",
"#  c #0C0C0C",
"$  c #110300",
"%  c #1B0600",
"&  c #190A07",
"*  c #100D0D",
"=  c #0E100E",
"-  c #131205",
";  c #12130D",
":  c #1A160A",
">  c #0E0F11",
",  c #0F1012",
"<  c #131313",
"1  c #1A1514",
"2  c #1B1B15",
"3  c #181518",
"4  c #1C1C1B",
"5  c #290700",
"6  c #370A00",
"7  c #241303",
"8  c #28190B",
"9  c #211C17",
"0  c #2A1915",
"q  c #221C1E",
"w  c #1E201C",
"e  c #272904",
"r  c #22231D",
"t  c #2A221B",
"y  c #26291E",
"u  c #322213",
"i  c #362618",
"p  c #373212",
"a  c #1E1F22",
"s  c #221D24",
"d  c #1F2024",
"f  c #242423",
"g  c #2B2724",
"h  c #272924",
"j  c #292B24",
"k  c #2B2429",
"l  c #272929",
"z  c #2C2C2B",
"x  c #322A24",
"c  c #3A2D24",
"v  c #312F2B",
"b  c #2F322A",
"n  c #3B3524",
"m  c #34332E",
"M  c #3B342A",
"N  c #2E2E31",
"B  c #2F3032",
"V  c gray20",
"C  c #3A3633",
"Z  c #393737",
"A  c #3A3A35",
"S  c #353439",
"D  c gray23",
"F  c #441F0C",
"G  c #43240F",
"H  c #4A3218",
"J  c #53331D",
"K  c #5E341B",
"L  c #432F22",
"P  c #493B2D",
"I  c #573220",
"U  c #423C35",
"Y  c #4B3C36",
"T  c #423E3B",
"R  c #543F32",
"E  c #563F39",
"W  c #3F413B",
"Q  c #524429",
"!  c #5A422E",
"~  c #4A4035",
"^  c #44423E",
"/  c #4A433C",
"(  c #584738",
")  c #5D503F",
"_  c #684328",
"`  c #74452B",
"'  c #3E3F42",
"]  c #434344",
"[  c #4B4944",
"{  c #48464C",
"}  c #554C43",
"|  c #594B40",
" . c #5E5244",
".. c #55554D",
"X. c #685646",
"o. c #6D5E4F",
"O. c #785D45",
"+. c #715A4B",
"@. c #605752",
"#. c #775F55",
"$. c #676941",
"%. c #7C634D",
"&. c #6D665C",
"*. c #7A675B",
"=. c #6C6761",
"-. c #7E776F",
";. c #7B7871",
":. c #865A46",
">. c #87684A",
",. c #96744C",
"<. c #8B6953",
"1. c #8B6C5C",
"2. c #9A6B59",
"3. c #967658",
"4. c #91775D",
"5. c #A1715B",
"6. c #816F61",
"7. c #85756D",
"8. c #8D7869",
"9. c #8A7E6B",
"0. c #967A66",
"q. c #A97C67",
"w. c #9C8465",
"e. c #8F8377",
"r. c #998679",
"t. c #AB8A67",
"y. c #B28C66",
"u. c #AE996E",
"i. c #A28471",
"p. c #A78A75",
"a. c #AB8E7A",
"s. c #B78C76",
"d. c #A99879",
"f. c #B9977D",
"g. c #A7A678",
"h. c #C5A278",
"j. c #C3A97E",
"k. c #928985",
"l. c #9C8E81",
"z. c #9F9482",
"x. c #A18881",
"c. c #A99488",
"v. c #B99887",
"b. c #B49B8D",
"n. c #B99E94",
"m. c #B7A988",
"M. c #ABA496",
"N. c #B7A798",
"B. c #B5AAA2",
"V. c #BBB3B0",
"C. c #C29B8A",
"Z. c #C8A988",
"A. c #D1A98F",
"S. c #CAB08F",
"D. c #D8B58A",
"F. c #CCA796",
"G. c #C4AC95",
"H. c #C6A798",
"J. c #D0AC92",
"K. c #D4AE9B",
"L. c #CBB796",
"P. c #D7B793",
"I. c #DEBC96",
"U. c #E5B99C",
"Y. c #CDBAA9",
"T. c #D7B8A7",
"R. c #DDBBA3",
"E. c #D2BDAD",
"W. c #D1BDB4",
"Q. c #E4B7A0",
"!. c #E6BEAD",
"~. c #CAC198",
"^. c #D1C9A5",
"/. c #D8C2B8",
"(. c #DAD8B1",
"). c #E7C5A7",
"_. c #E4C8BD",
"`. c #F1C9B7",
"'. c #FFD3BC",
"]. c #DCD2C6",
"[. c #EACEC0",
"{. c #E4D3C4",
"}. c #ECD7C9",
"|. c #F1D6C5",
" X c #E9DCD4",
".X c #F3E2DB",
"XX c #EFE8E0",
"oX c #FAEAE6",
"OX c #F2EDE9",
"+X c #FEF3EB",
"@X c #F7F3F0",
"#X c #FFFDFA",
/* pixels */
"                                                                @XOX                                                            ",
"                                                              . .                                                               ",
"                                                            / @.k.V.B.XX                                                        ",
"                                                        =.} } U c 0 0  ./                                                       ",
"                                                        r.n | P *.#.+.R i L                                                     ",
"                                                        M.r.Y.E.b.K.H.J ! i                                                     ",
"                                                        N.N.{.|.`.!.s.K ! G L                                                   ",
"                                                        z./.}.i.<.s.q._ _ G (                                                   ",
"                                                         .*.q.F :.2.5.` ` H _                                                   ",
"                                                        R 8 5 6 6 6 ` ` K >.%.P                                                 ",
"                                                        6.+.a.I I :.'.s.y.>.O.(                                                 ",
"                                                        N.p.T.v.!.!.Q.U.).<.Q                                                   ",
"                      2 1                               c.n.H.F.C.K.v.A.,.w.8.$ : q                                             ",
"      y o . - O - O ; = o . . ; 1 1 1 : 2 f ^ 3 k.   XoXW.n._.v.1.F.Q.J.0.^.m.X 9 1 o q *                                       ",
"      j o . . . . . . . . . o O O 2 2 j h 9 m X V.#XoX.XE x.[.n.K.R.K.s.O.|.e.8 - M ^ q 1 1                                     ",
"        w w ; O ; = O = = ; : w r y r o : - - M B.].+X7.% l.}.|.[.H.0.O.m.{.7 y 9 ^ m ^ Z X *                                   ",
"                                    o o e p Q G.m.r.b.5 c *.{.{./.x.o.N.@X7.u 0 C / ^ C v @ <                                   ",
"                                      $.g.~.~.S.).Z.i.u 8 ~ ].e.9.m. X+XW.x U v U T C k v . #                                   ",
"                                      (.g.S.j.D.P.R.v.+.u ( ~ M P X.) =.U t T g U Z C U 3 + O                                   ",
"                                      ^.w.u.j.D.Z.I.i.r.e.e.X x M i n 0 9 T t 9 m T ^ D * @                                     ",
"                                      d.S.j.,.h.y.h.3.^..X-.b n n W n / [ A A m m A A z q #                                     ",
"                                    e.L.f.I.I.D.y.D.3.(  X&.; / W W W ^ ^ v A m b m T g ; 4                                     ",
"                                    &.o.p.w.3.,.t.>.H 8 B.;.; W W b W m m ^ A C m j f 4 + 3                                     ",
"                                      %.1.a.H.m.R.4.7 o &...o b W D b m W A W m h j y # . 4                                     ",
"                                          9.( #.7.E 5 0 $ b 2 w b D D m m W w f w w j . o 2                                     ",
"                                            $ 0 Y & 1 M * y j w < d d j w h b d j w w . <                                       ",
"                                            q k U q s r y : j W N N D V f w l w j d w = =                                       ",
"                                            S @ { s < ; O y j f S { ' W W b 4 w w d j f <                                       ",
"                                              S @ 3 . o 2     o D { [ A ] z w f w w w , >                                       ",
"                                                  S           f 4 D z A D z z w w 4 1 w #                                       ",
"                                                              z 1 z A A D B f 2 4 4 3 f 3                                       ",
"                                                              . j 2 ^ v ] W 1 w 2 4 w 1 1 a                                     ",
"                                                              @ r z U ] D D D m z z f 4 + f                                     ",
"                                                              j z D V ] D V z f 4 1 < 3 3 +                                     ",
"                                                              z C l A ] ] ] D V N z l z r 4                                     ",
"                                                              # Z < 4 z z z z V V N l d z + =                                   ",
"                                                              + v 4 f V V V l l z V D D V . <                                   ",
"                                                            f . l < ; 4 V V m z z z B V 3 .                                     ",
"                                                            + < 3 4 w f f 3 # 3 f j z z = w                                     ",
"                                                          < z z f 4 3 # d f 3 a a f z v # d                                     ",
"                                                        , 4 N V B w d # w < f f f f 4 f @ 1                                     ",
"                                                      B z S ' S V B S 3 3   = B z V N z @ <               # @                   ",
"                                                    l . ' V N W V z # 1     + D z D V z < 3     + 4 = = < 3 <                   ",
"                                                    . D S N N ' B f 4       + z z V z V w . + + < l 1 # + l < 4                 ",
"                                                  S B { ' S S d 4 l         < l Z z V z f 1 4 V V f B z V 4 D l #               ",
"                                                a # N N ] S l = =           = z V V V z w z f B B V Z Z 4 B V V . #             ",
"                                                l + B S ' ' a 3             < z z V V l V V B D V D V f = . f V 3 +             ",
"                                                3 z f 4 d < + >             # z V N V z f D D V D V z # <   < + . O #           ",
"                                                . z f d < l .               3 4 V V N z f D D f V z f #         < > <           ",
"                                                > V A D 1 w +                 # 4 4 f l D < . < f z 3 <                         ",
"                                              < 4 { D S w f 3                   1 + . . 4 1 = 1                                 ",
"                                              < 3 V z S v < +                                                                   ",
"                                              . f Z ] v D = +                                                                   ",
"                                              = V l B v N 4 .                                                                   ",
"                                              . f D ] B 4 4                                                                     ",
"                                            . = D z B l w 3                                                                     ",
"                                            o > { ] S N f =                                                                     ",
"                                            + . z ] [ f . .                                                                     ",
"                                      . @ = . 3 + 3 3 . >                                                                       ",
"                                      . 4 < f w f v = 4                                                                         ",
"                                        + . 4 f 4 l 1 .                                                                         ",
"                                            @ < 1 f # .                                                                         ",
"                                                . + . .                                                                         ",
"                                                    .                                                                           "
};
