/* XPM */
static char *_963d30c591047a9b98afe401c12f1ebbSrwbaohJJ9FAj3f[] = {
/* columns rows colors chars-per-pixel */
"64 64 189 2 ",
"   c #ADD8E6",
".  c #030204",
"X  c #0B0304",
"o  c #07060B",
"O  c #090709",
"+  c #0B0A0C",
"@  c #07080B",
"#  c #140D0E",
"$  c #1B0F0B",
"%  c #160501",
"&  c #1E150F",
"*  c #0E0E11",
"=  c #110F12",
"-  c #131215",
";  c #1A1514",
":  c #1C1A17",
">  c #161619",
",  c #19171A",
"<  c #1C1B1D",
"1  c #230E05",
"2  c #3D0D03",
"3  c #24140B",
"4  c #2C140D",
"5  c #361D0F",
"6  c #2B1413",
"7  c #211815",
"8  c #2D1C16",
"9  c #211D1C",
"0  c #311F1B",
"q  c #1F201D",
"w  c #2A2217",
"e  c #22211E",
"r  c #2B241C",
"t  c #2F2A1C",
"y  c #3B241B",
"u  c #3C2B1E",
"i  c #36241B",
"p  c #1E1E21",
"a  c #211E22",
"s  c #1F2022",
"d  c #242324",
"f  c #2B2423",
"g  c #2A2A26",
"h  c #262529",
"j  c #29262A",
"k  c #27292A",
"l  c #2B2A2C",
"z  c #342B25",
"x  c #3A2E26",
"c  c #342D2B",
"v  c #362927",
"b  c #2F302E",
"n  c #34332D",
"m  c #3A332E",
"M  c #2E2E31",
"N  c #312F31",
"B  c #2F3032",
"V  c #343334",
"C  c #3A3734",
"Z  c #3B3935",
"A  c #363639",
"S  c #39373A",
"D  c #363A3B",
"F  c #3C3B3B",
"G  c #4A1B06",
"H  c #4D1F10",
"J  c #54270E",
"K  c #472B1E",
"L  c #542B15",
"P  c #56301D",
"I  c #64361A",
"U  c #452822",
"Y  c #45362D",
"T  c #46362B",
"R  c #5D3A23",
"E  c #5B3C2B",
"W  c #563929",
"Q  c #413D3B",
"!  c #4D3A3B",
"~  c #573730",
"^  c #6B3C25",
"/  c #633D26",
"(  c #3F413F",
")  c #46433A",
"_  c #55443D",
"`  c #5D523F",
"'  c #64432B",
"]  c #6B4226",
"[  c #75492C",
"{  c #644434",
"}  c #674A35",
"|  c #664C3A",
" . c #6E4A35",
".. c #774B34",
"X. c #75533E",
"o. c #755036",
"O. c #3F3E40",
"+. c #413F41",
"@. c #3E4243",
"#. c #434244",
"$. c #494747",
"%. c #464548",
"&. c #595242",
"*. c #65544C",
"=. c #6B5442",
"-. c #755542",
";. c #7B5643",
":. c #795945",
">. c #675A55",
",. c #7B6254",
"<. c #75675D",
"1. c #7E6969",
"2. c #815436",
"3. c #855D3E",
"4. c #845A42",
"5. c #825F4E",
"6. c #83634C",
"7. c #986846",
"8. c #856457",
"9. c #846A5F",
"0. c #8E6A57",
"q. c #986958",
"w. c #A4724F",
"e. c #AA7A5A",
"r. c #A57355",
"t. c #876D64",
"y. c #966E63",
"u. c #8C7162",
"i. c #987767",
"p. c #8B7873",
"a. c #AC7C64",
"s. c #AB7C6B",
"d. c #A47962",
"f. c #B5805E",
"g. c #8E806E",
"h. c #9C8074",
"j. c #9D8C75",
"k. c #AB866B",
"l. c #AB8364",
"z. c #B5856C",
"x. c #B8856C",
"c. c #A18673",
"v. c #AB8173",
"b. c #AB8D74",
"n. c #A98E78",
"m. c #BA8574",
"M. c #B38974",
"N. c #BD8B74",
"B. c #B18878",
"V. c #AD927F",
"C. c #B8917B",
"Z. c #C58C74",
"A. c #C68D78",
"S. c #CA9475",
"D. c #C89777",
"F. c #D39D7C",
"G. c #9E8D80",
"H. c #9E8181",
"J. c #A99A8D",
"K. c #B49584",
"L. c #BB9385",
"P. c #B49B8B",
"I. c #B29C91",
"U. c #B9A89B",
"Y. c #C69A84",
"T. c #C99C84",
"R. c #CA9883",
"E. c #D29D82",
"W. c #CDA08E",
"Q. c #C9A088",
"!. c #D5A58D",
"~. c #DEA48A",
"^. c #D9A485",
"/. c #CDAA93",
"(. c #C2AA9C",
"). c #DAAA93",
"_. c #DEB39B",
"`. c #D8B195",
"'. c #E3AF8B",
"]. c #E1AE95",
"[. c #E9B79F",
"{. c #F3BC98",
"}. c #C8B4AB",
"|. c #DEB8A2",
" X c #E3BDA5",
".X c #FAC19F",
"XX c #EDC2AE",
"oX c #FFCFAF",
"OX c #E0CCBE",
/* pixels */
"                                                                                                                                ",
"                                                                                                                                ",
"                                                                                                                                ",
"                                                                                                                                ",
"                                                                            { R P / ;.X.X.                                      ",
"                                                                          ..^ I ^ [ 2.] /  .-.                                  ",
"                                                                          d.z.S.S.F.S.7.[ / ' }                                 ",
"                                                                          T.[.oX.X{.'.e.2.] R E                                 ",
"                                                                          M.Q.^.f.w.w.7.3.o.{ E                                 ",
"                                                                          R I I G 2 G [ 3.' -.,.                                ",
"                                                                          L ..2.G J 2.l.k.6.8.t.H.                              ",
"                                                                          ;.d.N.w.e.D.`./.c.u.9.p.1.>.                          ",
"                        A #.#.#.%.%.#.S                                   C.Y.!.)._._. X`.V.h.t.*.! c c                         ",
"                    A + . o * - > - - + O O # , : # X X $ r x Y           M.N.N.x.T._./.K.c.P.G.i X X + - > k                   ",
"                    k @ . . @ @ . . O O O O + O X X X % % 3 1 5 =.      4.^ r.!.!._.|.b.i.P.U.G.T w v l h > + .                 ",
"                                                  $ 1 4 y K E ;.M.T.z.^ H J s.XX X/.L.K.(.OXJ.*.w w m Q F M - .                 ",
"                                                    K | 5.y.M.Y.!.].E...H J q.Q.V.i.9.I.}.U.<.x w t m F ( S > .                 ",
"                                                      L.W._.[.].E.E.E.a.4.' } | W T _ p.p._ x z m m C Z V M - .                 ",
"                                                      ).E.a.A.~.~.Z.e.k.b.c.=.u Y m z v v m m v r z Q F A M - .                 ",
"                                                    B.W.).R.A.Z.Z.x.a.k.n.j.` t Z ) Q V V F Q Q C m V S M > * *                 ",
"                                                    v.s.m.Z.N.m.N.s.0.:.,.g.&.t n Z F F S S #.#.#.V j N l - - >                 ",
"                                                      q.q.s.s.v.L.i.{ y T >.) r g l b b b V V S S l d l d * - p                 ",
"                                                          L.y.8.h.,.u 3 3 t r 9 e d d q q g d p d d d d , . -                   ",
"                                                            ~ U U i 8 z z & ; : : e g g d d , - , , < < < > a                   ",
"                                                            6 4 0 8 & 7 7 ; < e < d n V V l d < d < , a < = >                   ",
"                                                              6 f 7 # # ;     g d l V V S Z V l h d 9 h a = >                   ",
"                                                                  ; = <         d l n V F %.S l e d h j d - p                   ",
"                                                                                > d V Z F $.V < < e g l a + ,                   ",
"                                                                                - a V F F F l < e e d d < + , M                 ",
"                                                                                a d j N V V V V d < < < < , , <                 ",
"                                                                                l h p j N A #.F h < < < < d < -                 ",
"                                                                                h d p l A #.F A l d d s d k a <                 ",
"                                                                              d < a d d l A V V @.A d l k < - =                 ",
"                                                                                + - a , < k l B D D A l a - - <                 ",
"                                                                                X - l , - < d h d l A B d - < l                 ",
"                                                                                . , N p > , < s p d l V l , a N                 ",
"                                                                                . + , d d - a b S V h V V < d                   ",
"                                                                                . @ - , , < V #.F F F c d < j                   ",
"                                                                                  + > < h V Z F F F C f < , j F k = @ h         ",
"                                                                                  + - d V F Q F C c f d < > a k > * + < l       ",
"                                                                                  @ . j C V #.$.V d : d d < , - . - l a 9 V     ",
"                                                                                  . . l F l V V h 9 < a j V a - > < < < > O <   ",
"                                                                                    . < l V V l p h V +.#.O.l a S F l , - - , < ",
"                                                                                    . * p M l d < l F #.S k h l       d a d p < ",
"                                                                                      + - d < , < h M N d O ,                   ",
"                                                                                      . @ < > - > , , l                         ",
"                                                                                        + d h h l < * d                         ",
"                                                                                        - > l F F V d a                         ",
"                                                                                          * l #.O.A l , -                       ",
"                                                                                          - k F F V h - @                       ",
"                                                                                          > M O.F #.#.< + <                     ",
"                                                                                          , p l S F V < - <                     ",
"                                                                                            - < F #.V l < - ,                   ",
"                                                                                              - A %.#.A d = ,                   ",
"                                                                                              + d V #.S j - ,                   ",
"                                                                                                > , d M j - <                   ",
"                                                                                                l p > < > . -                   ",
"                                                                                                h h d < - @ - <                 ",
"                                                                                              @ + < l d , > - *                 ",
"                                                                                            @ . . . . + + . .                   ",
"                                                                                                                                ",
"                                                                                                                                ",
"                                                                                                                                ",
"                                                                                                                                "
};
