/* XPM */
static char *_dac3d813cb34b1ca7cf644d82b6268c9Oa8ectLu6lG84C5[] = {
/* columns rows colors chars-per-pixel */
"64 64 178 2 ",
"   c #ADD8E6",
".  c #020202",
"X  c #0B0500",
"o  c #0D0A01",
"O  c #070709",
"+  c #090408",
"@  c #0C0C0B",
"#  c #1C0500",
"$  c #110A08",
"%  c #0E130D",
"&  c #13120E",
"*  c #19130E",
"=  c #181A0D",
"-  c #0E0E10",
";  c #0A1112",
":  c #0E1618",
">  c gray8",
",  c #191613",
"<  c #1D1A15",
"1  c #161618",
"2  c #191719",
"3  c #171D1D",
"4  c gray11",
"5  c #280200",
"6  c #220C02",
"7  c #2D1704",
"8  c #251C0E",
"9  c #361707",
"0  c #211C14",
"q  c #231D19",
"w  c #2D1E1B",
"e  c #17201F",
"r  c #1D221A",
"t  c #35200B",
"y  c #21221E",
"u  c #222919",
"i  c #34241B",
"p  c #3E231A",
"a  c #1E1E20",
"s  c #231F23",
"d  c #1D2124",
"f  c #232323",
"g  c #282527",
"h  c #252A26",
"j  c #2B2A25",
"k  c #272729",
"l  c #2A282A",
"z  c gray17",
"x  c #332C23",
"c  c #3B2820",
"v  c #2E302D",
"b  c #3D3022",
"n  c #34332F",
"m  c #38332C",
"M  c #2E2E30",
"N  c #2D3232",
"B  c #2F3938",
"V  c #343433",
"C  c #3A3634",
"Z  c #363834",
"A  c #393A35",
"S  c #363638",
"D  c #39363A",
"F  c #363C3C",
"G  c #3C3C3C",
"H  c #4C220C",
"J  c #422415",
"K  c #4B2C17",
"L  c #49301C",
"P  c #472E22",
"I  c #443526",
"U  c #493529",
"Y  c #4B352A",
"T  c #4E3C2B",
"R  c #593F26",
"E  c #4B3B31",
"W  c #423D3C",
"Q  c #533D30",
"!  c #5F3F30",
"~  c #3E423F",
"^  c #52412F",
"/  c #41423E",
"(  c #56443B",
")  c #5A493C",
"_  c #664729",
"`  c #634B2B",
"'  c #704429",
"]  c #6A502F",
"[  c #664633",
"{  c #76523B",
"}  c #785338",
"|  c #3E3F42",
" . c #413F40",
".. c #3C4344",
"X. c #444444",
"o. c #434A4B",
"O. c #4B4A4C",
"+. c #5A4D44",
"@. c #4D4D50",
"#. c #515151",
"$. c #585A59",
"%. c #6C4F41",
"&. c #665946",
"*. c #685848",
"=. c #765A47",
"-. c #65604D",
";. c #6F6259",
":. c #766456",
">. c #626760",
",. c #7A7967",
"<. c #896745",
"1. c #977246",
"2. c #886E58",
"3. c #86745E",
"4. c #977658",
"5. c #B4764D",
"6. c #A67855",
"7. c #B27E59",
"8. c #977767",
"9. c #967B66",
"0. c #7D8172",
"q. c #968760",
"w. c #9B816B",
"e. c #898A7A",
"r. c #948274",
"t. c #9E937F",
"y. c #AB8567",
"u. c #AA8B64",
"i. c #AC856D",
"p. c #BA8769",
"a. c #B18F73",
"s. c #BE967D",
"d. c #C08155",
"f. c #CC936B",
"g. c #C5996C",
"h. c #D8996E",
"j. c #C69774",
"k. c #D79D77",
"l. c #D2A87E",
"z. c #999282",
"x. c #A48E83",
"c. c #A99481",
"v. c #AC9A82",
"b. c #BE9E83",
"n. c #B79688",
"m. c #B49F94",
"M. c #A3A18C",
"N. c #BBA083",
"B. c #A1A493",
"V. c #BFAB93",
"C. c #ADB3A7",
"Z. c #BDBFA7",
"A. c #CA9C83",
"S. c #D09E85",
"D. c #CCA181",
"F. c #C7A38B",
"G. c #CBA28B",
"H. c #D8A985",
"J. c #D4B187",
"K. c #C5A799",
"L. c #D5AE98",
"P. c #DDB997",
"I. c #D2B59D",
"U. c #E3B48B",
"Y. c #E4B498",
"T. c #E4B99B",
"R. c #CEB5A1",
"E. c #DAB7A7",
"W. c #E3BFAC",
"Q. c #ECBEA9",
"!. c #D1C3A9",
"~. c #D9D1BC",
"^. c #E4C5A7",
"/. c #F7C4A4",
"(. c #EECBB7",
"). c #FFD6B3",
"_. c #F9DCC7",
"`. c #FFFADB",
/* pixels */
"                                                                                                                                ",
"                                                                                                                                ",
"                                                                                                                                ",
"                                                                ( +.                                                            ",
"                                                              x E Y Q Y p !                                                     ",
"                                                              i T %.%.%.! J P                                                   ",
"                                                              x.m.K.K.W.i.! K 6                                                 ",
"                                                              m.(._.Q.E.i.K [ $                                                 ",
"                                                              K._.8.} D.q.' ^ 7                                                 ",
"                                                            E Q s.9 =.} <._ ` %.                                                ",
"                                                            c 9 [ 5 5 9 u._ ` 3.)                                               ",
"                                                              %.E.H ' l.Y.u.4.=.r.                                              ",
"                                                              8.L.Y.Q.).l.J.u.2.^   u                                           ",
"                . % X O @ & @ > X . O   @ @ @ % 4 f <         n.G.S.7.g.U.l.<.I.I 8 0 r @                                       ",
"                . % . . . . . . . . % f 2 O . X f G $         8.Q.j.p./.U.g.u._.^ ^ j ; % . .                                   ",
"                . O . . . . . . O @ . . > q $ * o . 0       5 ! Q.S.Q.H.g.1.^.V.b x m G Z 3 .                                   ",
"                                        , $ * X X b V.:.  Y # =.(.W.L.a.] q.`.-.i < j C Z Z O .                                 ",
"                                          w E z.c.I.K.E.K.J 7 L R.F.9.t.!.`.Z.~ j n / G m n @ O                                 ",
"                                            9.^.P.T.A.G.!.8.9 ^ *.I ) &.t.B.r u h v n n C V @                                   ",
"                                            R.y.f.H.Y.T.y.w.3.z.8 x i w y r r Z j y j m ~ n @                                   ",
"                                            s.f.d.5.5.D.A.v.~.,.= Z n @.X.G  .A n n A A C 4 .                                   ",
"                                          9.s.k.h.f.7.p.N.-.M.0.r v Z S V G z Z n C C z f @ .                                   ",
"                                          2.{ 6.p.y.6.b.R o e.C.% / C D G W W C Z n n f y X .                                   ",
"                                            8.4.y.F.E.c.b o r >.r n V s j C C n Z Z Z h 4 . .                                   ",
"                                                =.t :.;.0 q q - g 1 > < q y 0 q f f q 4 @ @                                     ",
"                                                  X m , , z z s s f q & 4 * & > , < 4 4 @ >                                     ",
"                                                  , W & > g > D k o.f F S V G 4 , , 2 f 2 1                                     ",
"                                                  q @ a 2 + .     d : ....O.| s f g s f > @                                     ",
"                                                    1 N M z       N : | ....| g 4 2 2 z f 1                                     ",
"                                                                  V e B ..O.D z g g a f % @                                     ",
"                                                                  ; h N $.X.C s 2 > > f 1 @ 1                                   ",
"                                                                  . h ~ F / W z s f f z < O @                                   ",
"                                                                  X.N z n O.D  .z 4 d f y y @                                   ",
"                                                                  G z f f G  .X.V f 4 4 2 4 >                                   ",
"                                                                  1 Z @ d G D  .G D g f f k O                                   ",
"                                                                  O z 1 z Z V | X. .f 2 f z @                                   ",
"                                                                  O 1 z f f V D / X.G z < > O                                   ",
"                                                                  G - Z f . @ 1 4 4 4 z 4 4 2                                   ",
"                                                                  O.@ 1 2 @ @ < z f f D V h >                                   ",
"                                                                  O.@ f f 4 1 h Z V z ..V z z                                   ",
"                                                                  O.- k f % z V z z h 2 f > f                                   ",
"                                                                  X.. f @ f D | D V V f f >       2                             ",
"                                                                    . 4 4 z X.D Z V M r g 1 f 1 h O >                           ",
"                                                                    1 @ S | f V z z f > 4 2 a @ > n O z                         ",
"                                                                    V N D Z V Z M k 4 1 z z z < . ~ O.2 @                       ",
"                                                                    - V G M Z z f f 4 f Z G Z f @ 2 X.#.@ >                     ",
"                                                                  1 1 z M z z g 1 > f z V V z d z z > f z . >                   ",
"                                                                  . 1 q 4 4 2 f @ & z G X.D z . f     O O . .                   ",
"                                                                1 > f f d 4 f z f V D Z 4 4 O @                                 ",
"                                                                @ 4 f 2 f 4 1 . > @ @ > @ .                                     ",
"                                                              1 2 z z z f 1 4 2                                                 ",
"                                                              4 @ / O.X.M 1 -                                                   ",
"                                                              2 4 n V D d .                                                     ",
"                                                              r z D X.Z f 1                                                     ",
"                                                              1 X.Z z z % @                                                     ",
"                                                              O X.D G z O O                                                     ",
"                                                            k z #.G D z .                                                       ",
"                                                            a f X.o.z V .                                                       ",
"                                                            k . Z z z 4 .                                                       ",
"                                                      - a z 4 > O . @ 4                                                         ",
"                                                      - : z | z a k O                                                           ",
"                                                        1 . . k 4 1 .                                                           ",
"                                                            4 1 O - @                                                           ",
"                                                                2 O .                                                           "
};
