/* XPM */
static char *result[] = {
/* columns rows colors chars-per-pixel */
"32 32 133 2 ",
"   c #0E0D0F",
".  c #1C0A05",
"X  c #1A120F",
"o  c #161416",
"O  c #181719",
"+  c #1B1A1C",
"@  c #281E17",
"#  c #211C18",
"$  c #331C13",
"%  c #21201F",
"&  c #2C201D",
"*  c #34241B",
"=  c #1F1E20",
"-  c #201F21",
";  c #1E2225",
":  c #232324",
">  c #2D2927",
",  c #252628",
"<  c #292728",
"1  c #262A2E",
"2  c #2B2A2C",
"3  c #342B22",
"4  c #302E2B",
"5  c #37312D",
"6  c #3C342D",
"7  c #2C2E31",
"8  c #312F30",
"9  c #2C3135",
"0  c #333334",
"q  c #3A3635",
"w  c #3B3834",
"e  c #313539",
"r  c #33383C",
"t  c #3B3A3B",
"y  c #583B2C",
"u  c #483732",
"i  c #413B30",
"p  c #4E423A",
"a  c #534535",
"s  c #5F463C",
"d  c #6C432D",
"f  c #71462A",
"g  c #724D3B",
"h  c #7B5439",
"j  c #373C41",
"k  c #3C4144",
"l  c #404C52",
"z  c #445055",
"x  c #485053",
"c  c #45545A",
"v  c #4A5659",
"b  c #4C595E",
"n  c #6D5343",
"m  c #675649",
"M  c #7A5843",
"N  c #74554C",
"B  c #755A4A",
"V  c #7D6354",
"C  c #5C5D60",
"Z  c #52656D",
"A  c #556A72",
"S  c #5A6E75",
"D  c #5E7077",
"F  c #5F757E",
"G  c #64767C",
"H  c #855439",
"J  c #87583A",
"K  c #8C5D44",
"L  c #80604B",
"P  c #9B6B4F",
"I  c #876451",
"U  c #AC7A5D",
"Y  c #836E65",
"T  c #886C60",
"R  c #807367",
"E  c #987E68",
"W  c #887E77",
"Q  c #927F73",
"!  c #AA7F63",
"~  c #A67D6B",
"^  c #A87E6D",
"/  c #AC8167",
"(  c #A5836C",
")  c #B48473",
"_  c #BA8B74",
"`  c #C38F77",
"'  c #CC967C",
"]  c #D39C7B",
"[  c #627780",
"{  c #667C84",
"}  c #697E86",
"|  c #698089",
" . c #76878A",
".. c #758F99",
"X. c #7F9BA5",
"o. c #7F9EA8",
"O. c #8E8A8C",
"+. c #90938F",
"@. c #9E9993",
"#. c #9D9E9A",
"$. c #A6978C",
"%. c #B79884",
"&. c #BE9C89",
"*. c #AA9C96",
"=. c #BAA192",
"-. c #819EA8",
";. c #83A1AC",
":. c #87A6B1",
">. c #9DB0B4",
",. c #95B1BA",
"<. c #ABA8A2",
"1. c #B0AEAA",
"2. c #A6B3B7",
"3. c #C59780",
"4. c #CC9881",
"5. c #CFA087",
"6. c #D4A085",
"7. c #D5AC95",
"8. c #C0ADA4",
"9. c #96BBC7",
"0. c #96BBC8",
"q. c #99BECA",
"w. c #9BC1CE",
"e. c #9EC4D1",
"r. c #A3C6D1",
"t. c #A3C9D5",
"y. c #A5CEDB",
"u. c #A7D0DD",
"i. c #AAD2DE",
"p. c #ACD7E4",
"a. c #ADD8E6",
"s. c #AEDAE9",
"d. c #B0DCEA",
/* pixels */
"a.a.a.a.a.a.a.a.a.a.a.a.a.a.a.a.a.p.a.a.s.s.a.a.a.a.a.a.a.a.a.a.",
"a.a.a.a.a.a.a.a.a.a.a.a.a.a.a.a.a.a.p.t.r.t.i.a.a.a.a.a.a.a.a.a.",
"a.a.a.a.a.a.a.a.a.a.a.a.a.a.a.a.a.a.>.B M L R >.p.a.a.a.a.a.a.a.",
"a.a.a.a.a.a.a.a.a.a.a.a.a.a.a.a.a.a.1.' ] U f m r.a.a.a.a.a.a.a.",
"a.a.a.a.a.a.a.a.a.s.a.a.a.a.a.a.a.a.#.P J J h B r.s.a.a.a.a.a.a.",
"a.a.a.a.a.a.t.t.t.t.a.d.s.d.d.d.a.s.+.K J ! ( Y O.,.a.d.a.a.a.a.",
"a.a.a.a.u.[ 9 e 0 r Z D S S G  .t.s.<._ 4.7.%.W u 4 S ;.a.a.a.a.",
"a.a.a.a.y.} A S S S S S k . $ y $.@.g _ 7.&.=.( 3 4 : 1 w.a.a.a.",
"a.a.a.p.a.s.s.s.s.s.d.d.r.W ~ 3.6.U d I V Y ( u 3 q 0 ; q.s.a.a.",
"a.a.a.a.a.a.a.a.s.a.a.s.p.8.4.' ` / E a q q r q 4 q < ; e.a.a.a.",
"a.a.a.a.a.a.a.a.a.a.a.a.i.*.) ) ^ n m i 4 0 0 t q < + 7 e.a.a.a.",
"a.a.a.a.a.a.a.a.a.a.a.p.p.p.2.N s * @ # # < , - - = o S s.a.a.a.",
"a.a.a.a.a.p.a.a.a.a.a.a.p.s.u.C @ X x v : 8 0 < - - o [ s.a.a.a.",
"a.a.a.a.a.a.a.a.a.a.a.a.p.p.a.u.-.{ t.q.0 0 i 7 - , O S s.a.a.a.",
"a.a.a.a.a.a.a.a.a.a.a.a.a.a.p.a.a.d.a.e.e 2 r 2 - # o r e.s.a.a.",
"a.a.a.a.a.a.a.a.a.a.a.a.a.a.a.a.a.a.a.0.e : q t < - = 7 e.a.a.a.",
"a.a.a.a.a.a.a.a.p.a.a.a.a.a.a.a.a.a.d.:.: = 1 0 e 2 + 2 e.a.a.a.",
"a.a.a.a.a.a.a.a.a.a.a.a.a.a.a.a.a.a.a.q.: - O - < 8 - j t.a.a.p.",
"a.a.a.p.a.a.a.a.a.a.a.a.a.a.a.a.a.a.d.e.1 o + 7 0 8 - S e.e.a.a.",
"a.a.a.a.a.a.a.a.a.a.a.a.a.a.a.a.a.a.a.a.A o 8 t q > = 7 1 9 o.s.",
"a.a.a.a.a.a.a.a.a.a.a.a.a.a.a.a.a.a.a.d.[ o 0 t < : < O o O 2 ..",
"a.a.a.a.a.a.a.a.a.a.a.a.a.a.a.p.a.a.a.a.9.1 < < , 0 8 e } b 1 r ",
"a.a.a.a.a.p.a.a.a.a.a.a.a.a.a.a.a.a.a.a.a.S o + + 8 D ;.s.y.e.e.",
"a.a.a.a.a.a.a.a.a.a.a.a.a.a.a.a.a.a.a.p.a.0.7 1 2 7 q.d.a.a.a.a.",
"p.a.a.a.a.a.a.a.a.a.a.a.a.p.a.a.a.a.a.a.a.s.S 7 t - F a.a.a.a.a.",
"a.a.a.a.a.a.a.a.a.a.a.a.a.a.a.a.a.a.a.a.a.s.} 1 j < 7 q.a.a.a.a.",
"a.a.a.a.a.a.a.a.a.a.a.a.a.a.a.a.a.a.a.a.a.a.e.z q 8 + } a.a.a.a.",
"a.a.a.a.a.p.a.a.a.a.a.a.a.a.a.a.a.a.a.a.a.a.s.o.7 7 + [ d.p.a.a.",
"a.p.a.a.a.a.a.a.a.a.a.a.a.a.a.a.a.a.a.a.a.a.a.0.7 =   l u.a.a.a.",
"a.a.a.a.a.a.a.a.a.a.a.a.a.a.a.a.a.a.a.a.a.a.u.Z ; 7 = c y.a.a.a.",
"a.a.a.a.a.a.a.a.a.a.a.a.a.a.a.a.a.a.a.a.a.a.a.q.q.e.q.y.a.a.a.a.",
"a.a.a.a.a.a.a.a.a.p.a.a.a.a.a.a.a.a.a.a.a.a.a.a.s.a.a.a.p.a.a.a."
};
