/* XPM */
static char *_240a9b892e24016e91b756ed9799b1fD9gty5ZXWnTg4bDl[] = {
/* columns rows colors chars-per-pixel */
"64 64 205 2 ",
"   c #ADD8E6",
".  c #020203",
"X  c #0A0B07",
"o  c #0A070B",
"O  c #0C0C0C",
"+  c #070808",
"@  c #160A05",
"#  c #190A04",
"$  c #110E0D",
"%  c #160605",
"&  c #12110E",
"*  c #1B110C",
"=  c #0E0D12",
"-  c #120E13",
";  c #1A0F11",
":  c #0F1214",
">  c #131314",
",  c #1B1414",
"<  c #1B1A15",
"1  c #151519",
"2  c #19161C",
"3  c #16191B",
"4  c #1C1B1C",
"5  c #230C01",
"6  c #230908",
"7  c #2E130F",
"8  c #28150A",
"9  c #241514",
"0  c #2C1917",
"q  c #221C1D",
"w  c #281916",
"e  c #351915",
"r  c #3C1C0A",
"t  c #1E201E",
"y  c #24221D",
"u  c #2B241D",
"i  c #2B251B",
"p  c #372217",
"a  c #1D1D21",
"s  c #211E22",
"d  c #321F20",
"f  c #1E2123",
"g  c #242324",
"h  c #292525",
"j  c #272826",
"k  c #2C2A24",
"l  c #252629",
"z  c #2A262A",
"x  c #2C2B2C",
"c  c #27292B",
"v  c #322D2B",
"b  c #342825",
"n  c #2F312D",
"m  c #32332D",
"M  c #3A322B",
"N  c #2E2E30",
"B  c #312E30",
"V  c #2E3132",
"C  c #343433",
"Z  c #3B3635",
"A  c #363934",
"S  c #3A3A35",
"D  c #3B373B",
"F  c #3C3C3B",
"G  c #373C38",
"H  c #4A0804",
"J  c #5C1D08",
"K  c #451D15",
"L  c #46241A",
"P  c #50311C",
"I  c #562917",
"U  c #64230E",
"Y  c #702E1C",
"T  c #70351C",
"R  c #652818",
"E  c #452A28",
"W  c #43352A",
"Q  c #553425",
"!  c #5B372A",
"~  c #423E3C",
"^  c #473635",
"/  c #543931",
"(  c #623E2D",
")  c #6D3E2E",
"_  c #683824",
"`  c #723C26",
"'  c #633E36",
"]  c #6B3F31",
"[  c #3E413C",
"{  c #42433E",
"}  c #414337",
"|  c #584232",
" . c #66452E",
".. c #7D4226",
"X. c #7F462D",
"o. c #694334",
"O. c #6A443A",
"+. c #6B4932",
"@. c #744B33",
"#. c #794535",
"$. c #73503D",
"%. c #403F41",
"&. c #3E4042",
"*. c #444343",
"=. c #4A4443",
"-. c #4D4C4B",
";. c #484845",
":. c #534443",
">. c #594A45",
",. c #5A544A",
"<. c #504E51",
"1. c #575451",
"2. c #644743",
"3. c #6B4D49",
"4. c #744C43",
"5. c #764E49",
"6. c #655449",
"7. c #745445",
"8. c #6A5A56",
"9. c #6D6B5E",
"0. c #7D6554",
"q. c #7A6A5D",
"w. c #7A6D66",
"e. c #834E34",
"r. c #904F36",
"t. c #8A5239",
"y. c #96553A",
"u. c #825D4C",
"i. c #855844",
"p. c #995B44",
"a. c #956146",
"s. c #846452",
"d. c #8A6354",
"f. c #896559",
"g. c #946759",
"h. c #94715D",
"j. c #AB664E",
"k. c #AA6D53",
"l. c #B16F56",
"z. c #AE785D",
"x. c #B1755A",
"c. c #836B63",
"v. c #867062",
"b. c #9C7362",
"n. c #9D7A6C",
"m. c #90746E",
"M. c #967A75",
"N. c #AC7C62",
"B. c #AA7B6D",
"V. c #A17466",
"C. c #B47E6F",
"Z. c #BD7E61",
"A. c #A27F76",
"S. c #9F8069",
"D. c #9B847B",
"F. c #8A8378",
"G. c #A2816E",
"H. c #B9826E",
"J. c #A48679",
"K. c #B28674",
"L. c #BB8672",
"P. c #B58B73",
"I. c #BB8973",
"U. c #B58D79",
"Y. c #BD8B7A",
"T. c #BB937B",
"R. c #B99179",
"E. c #C3896D",
"W. c #C08368",
"Q. c #CA8E73",
"!. c #C28873",
"~. c #CE9476",
"^. c #C4927C",
"/. c #CB957B",
"(. c #D2967A",
"). c #D4997D",
"_. c #A78881",
"`. c #A69384",
"'. c #B79481",
"]. c #B69B87",
"[. c #B1A799",
"{. c #C39581",
"}. c #CB9A86",
"|. c #C29A86",
" X c #D59D83",
".X c #C19D91",
"XX c #CAA28B",
"oX c #D8A48C",
"OX c #D7A78F",
"+X c #C2A695",
"@X c #CDA896",
"#X c #D5A391",
"$X c #D5AC94",
"%X c #DAAE99",
"&X c #E1A98D",
"*X c #E3AF96",
"=X c #E4B399",
"-X c #C6B3A2",
";X c #C7B9AC",
":X c #D9B2A1",
">X c #D5B6A9",
",X c #ECBBA4",
"<X c #F5BCA5",
"1X c #FAC1AA",
"2X c #F4C1A8",
/* pixels */
"                                                                                                                                ",
"                                                                                                                                ",
"                                                                                                                                ",
"                                                                                                                                ",
"                                                          / ' O.5.u.d.f.                                                        ",
"                                                        7.o.] o.i.#.) ) o.                                                      ",
"                                                        b.K.{.}.#XL.p.#._ !                                                     ",
"                                                        {.,X1X<X1X Xk.t.` I Q                                                   ",
"                                                        P.oXQ.x.l.j.p.y.X._ (                                                   ",
"                                                       .@.e.R H H Y y.....i.u.                                                  ",
"                                                      +.@.t.T J U r.Z.k.a.i.f.m.                                                ",
"                                                        g.N.z.x.W.).&X XN.i.s.c.8.                                              ",
"    x *.<.1.1.1.-.;.;.-.                                R.{.OX*X<X2X,XOXU.h.0.6.^ M v                                           ",
"  < . $ & + O > & O O g g & > < y h u * # 8 W 6.        n.U.^.Y.I.}.%XR.R.+Xv.W @ @ 9 * > g                                     ",
"  1 . X O X . . O > > > O X & , * @ % # 5 8 | 0.      P $.|.%X:X:X@X].J.].>Xq.i u k m x g 4 y                                   ",
"                                u 8 5 p Q o.s.S.'.G.7.r ! .X>X>X>X+X`.-X-X`.,.u u v F F v 2 3 4                                 ",
"                                  Q ( u.V.K.T.XX$XU.u.L P n._._.D.D.D.;X[.,.M u v A { F x > > a                                 ",
"                                    XX}.oX*X=X=X%X{.b.O.! 2.2.>.^ >.w.F.9.k < y { ;.F S j > 1                                   ",
"                                    #XI.E.~.~.~./.Y.K.'.A.3.E 0 b M M i i } m y n S { G c 4 2                                   ",
"                                  K.Y.^.(.(.Q.E./.I.B..XJ./ E ^ =.Z k A F S A m C C C x 4 X O                                   ",
"                                  h.b.L.(./.!.H.Y.g.4.M.M.:.^ Z ~ ~ Z S F F F F Z V x g 3 O                                     ",
"                                    d.B.L.C.C.B.V.O.e 2.8.:.v q j C F v v S S C V x l 3 : 1                                     ",
"                                        b.i.g.g.5.E 6 d b q 4 4 2 4 g v k q g l l f 3 O + 1                                     ",
"                                          K ! ' L e 0 w q , 4 g g < O < y q , > 1 a g > O 4                                     ",
"                                          e 7 7 e 0 w , , 2 g c V C m x k y < 4 4 g c 1 =                                       ",
"                                            # % w w 9 ; >   a g c G [ ~ A k j g f l c 2 > l                                     ",
"                                                * ,           1 4 j n *.;.A x g a g l 2 1 g                                     ",
"                                                              4 g x m { *.C g 2 2 s z a 1 2                                     ",
"                                                            > 1 g C F [ S j g g g g g 4 > -                                     ",
"                                                              4 g c x F F n x z g s 4 s 4 -                                     ",
"                                                              4 a g x G F G C x s q s z g , 2                                   ",
"                                                            2 4 4 x *.C V F C x z z z x g > 2                                   ",
"                                                            2 2 g 4 > x &.*.%.D C x g g 4 o -                                   ",
"                                                        o - h x 2 2 g g c x N C C v g s 1 o -                                   ",
"                                                      4 z B D D g 4 a > = 1 g B C v c s 1 O                                     ",
"                                                  X $ C ;.<.*.Z x s > o o > g C B C Z c 2 O                                     ",
"                                                . 4 D Z Z D Z x g 4 2 g x x x C C F *.Z g X                                     ",
"                                                + g *.C g g 4 s x C         z N *.*.F x f 1                                     ",
"                                              = - 4 c l g t 2 < Z F         < g *.;.S j 4 4                                     ",
"                                              = 4 s g x C x t < x x y <     y g S { F j 2 >                                     ",
"                                              > a c D &.*.F n g g < 1 $ > g v C C F *.n 2 +                                     ",
"                                                . O 4 N *.-.-.*.F Z C l 2 O 4 C F F Z x 4 >                                     ",
"                                                    1 > > 1 l D *.F N a > > a x F Z c x c 1 1                                   ",
"                                                          . > 4 s a a 2 a c l x D Z x D C 2 > 1                                 ",
"                                                              + . . - 2 g N g g Z F F *.D 4 > O                                 ",
"                                                                      > > 1 O O x *.*.*.Z c 2 > 4                               ",
"                                                                          X X 1 c C C Z F *.c & O                               ",
"                                                                            O 1 c c g Z F F C 4 X +                             ",
"                                                                                  g g C D Z D C X .                             ",
"                                                                                    1 c Z Z *.F O . 1                           ",
"                                                                                    > c Z F D C c 1 .                           ",
"                                                                                      O 2 C x g g > .                           ",
"                                                                                      + > c c g 2 O .                           ",
"                                                                                      X O 4 4 2 O + .                           ",
"                                                                                    . + . . . . . . .                           ",
"                                                                                                                                ",
"                                                                                                                                ",
"                                                                                                                                ",
"                                                                                                                                ",
"                                                                                                                                ",
"                                                                                                                                ",
"                                                                                                                                ",
"                                                                                                                                ",
"                                                                                                                                "
};
