/* XPM */
static char *result[] = {
/* columns rows colors chars-per-pixel */
"32 32 148 2 ",
"   c #1F0D04",
".  c #120E10",
"X  c #141214",
"o  c #181614",
"O  c #171619",
"+  c #1A1719",
"@  c #161A1B",
"#  c #1D1B1D",
"$  c #2D1A0F",
"%  c #271816",
"&  c #2C1C15",
"*  c #221F1E",
"=  c #362315",
"-  c #1F1D20",
";  c #211F21",
":  c #1E2227",
">  c #1E2228",
",  c #232224",
"<  c #24262A",
"1  c #282629",
"2  c #25282C",
"3  c #2C2B2C",
"4  c #382E25",
"5  c #312E2C",
"6  c #342A23",
"7  c #34312D",
"8  c #272D33",
"9  c #2B2E32",
"0  c #322F32",
"q  c #2E3135",
"w  c #333234",
"e  c #383636",
"r  c #3A3836",
"t  c #353639",
"y  c #383738",
"u  c #3B3B3D",
"i  c #4A3429",
"p  c #5A3E2F",
"a  c #463C32",
"s  c #403B38",
"d  c #683D2E",
"f  c #48423D",
"g  c #514233",
"h  c #5D4433",
"j  c #714529",
"k  c #7C4E2D",
"l  c #6B4F3B",
"z  c #7F553C",
"x  c #3C3F41",
"c  c #3D474F",
"v  c #3C4144",
"b  c #3E4A51",
"n  c #42494E",
"m  c #424644",
"M  c #424D52",
"N  c #455056",
"B  c #445259",
"V  c #49555B",
"C  c #4A585F",
"Z  c #5A5B57",
"A  c #794F42",
"S  c #765F4E",
"D  c #7E5A4C",
"F  c #7F6040",
"G  c #7A6859",
"H  c #54676E",
"J  c #556770",
"K  c #576B74",
"L  c #5A6E75",
"P  c #5B6F79",
"I  c #5D727A",
"U  c #61737A",
"Y  c #895A3C",
"T  c #825B3D",
"R  c #805C4E",
"E  c #825C45",
"W  c #91674F",
"Q  c #8B6655",
"!  c #836456",
"~  c #967557",
"^  c #AB7B5C",
"/  c #8C7864",
"(  c #8A7569",
")  c #977764",
"_  c #807E70",
"`  c #8B7D75",
"'  c #A37562",
"]  c #91837A",
"[  c #90887F",
"{  c #A6826A",
"}  c #AD8264",
"|  c #B08564",
" . c #B98C6E",
".. c #A08572",
"X. c #AC8972",
"o. c #BF967D",
"O. c #C89677",
"+. c #C59A7F",
"@. c #CA987A",
"#. c #C59477",
"$. c #647A82",
"%. c #687B82",
"&. c #697F88",
"*. c #6C838B",
"=. c #748081",
"-. c #738F9A",
";. c #77949E",
":. c #79949D",
">. c #7B97A0",
",. c #7D99A3",
"<. c #7F9EA8",
"1. c #A7948A",
"2. c #BF9181",
"3. c #A99D93",
"4. c #A19B99",
"5. c #BFA292",
"6. c #BCAA9B",
"7. c #809EA9",
"8. c #82A1AC",
"9. c #8BADBA",
"0. c #95AFB7",
"q. c #90B2BD",
"w. c #9CB5BB",
"e. c #A1ABAC",
"r. c #BEB2A7",
"t. c #A7BABF",
"y. c #C39981",
"u. c #C09A8A",
"i. c #CAA085",
"p. c #D3A58F",
"a. c #D8AC93",
"s. c #D5A898",
"d. c #93B6C3",
"f. c #95BAC6",
"g. c #97BCC9",
"h. c #98BDC9",
"j. c #9BC1CE",
"k. c #9DC4D1",
"l. c #A4C7D3",
"z. c #A4C9D5",
"x. c #A8CBD5",
"c. c #A5CDDB",
"v. c #A7D0DD",
"b. c #A9D1DD",
"n. c #ACD7E4",
"m. c #ADD8E6",
"M. c #AEDAE9",
"N. c #B0DCEA",
/* pixels */
"m.m.m.m.m.m.m.m.n.M.n.n.M.n.n.n.M.n.n.n.n.m.m.m.m.m.m.m.m.m.m.m.",
"m.m.m.m.m.m.m.m.n.M.M.n.M.n.n.b.x.x.x.n.m.n.m.m.m.m.n.m.m.m.m.m.",
"m.m.m.m.m.m.m.m.M.n.n.n.n.n.M.e.R W Q ` 0.n.m.m.m.m.m.m.m.m.m.m.",
"m.m.m.m.m.m.m.m.n.n.M.M.M.n.n.r.#.O.^ j G x.m.m.m.m.m.m.m.m.m.m.",
"m.n.M.M.m.m.m.m.n.n.n.n.m.m.x./ ~ T Y k E t.M.m.m.m.m.m.m.m.m.m.",
"n.m.v.k.z.z.c.m.N.N.N.N.M.m.b._ z T } ^ W ] 0.M.M.m.n.m.m.m.m.m.",
"m.c.C 8 t t x H L L L U =.w.n.3.y.i.a.+.) i e U 8.n.m.m.m.m.m.n.",
"M.c.$.K P L K K L m   & p 1.4.A 2.s.2.6.( 6 3 , 8 j.m.m.m.m.m.m.",
"n.m.M.M.m.M.M.M.N.c.[ { o.p.' d R ! ( ] f 5 y t q j.m.m.m.m.m.m.",
"m.m.m.M.m.m.m.m.m.m.6.#.@.y.X...g 4 r u e w y 1 : j.m.m.m.m.m.m.",
"m.m.m.m.m.m.m.m.m.n.3.}  .{ l G a 7 t w y w 3 + c c.m.m.m.m.m.m.",
"m.m.m.m.m.m.m.m.n.m.b.e.l h = & * * , , , ; - . *.M.m.m.m.m.m.m.",
"m.m.m.m.m.m.m.m.m.n.m.b.Z & % 5 n , w w , # , , q.m.m.m.m.m.m.m.",
"m.m.m.m.m.m.m.m.m.m.m.m.b.,.,.z.d.9 y x 3 * , o *.M.n.m.m.m.m.m.",
"m.m.m.m.m.m.n.m.m.m.m.n.m.m.m.N.k.w 0 u 3 * : O b v.m.m.m.m.m.m.",
"m.m.m.m.m.m.m.m.m.m.m.m.m.m.m.m.k.w , e r 3 # # > j.m.m.m.m.m.m.",
"m.m.m.m.m.m.m.m.m.m.m.m.m.m.m.m.>.- + 3 e 3 , , > j.M.m.m.m.m.m.",
"m.m.m.m.m.m.m.m.m.m.m.m.m.m.m.>.9 ; * X o , , O b v.N.M.N.M.m.m.",
"m.m.m.m.m.m.m.m.m.m.m.m.m.m.>.q w t + b M , w 1 V d.*.U U <.m.m.",
"m.m.m.m.m.m.m.m.m.m.m.m.M.<.3 t t < B c.%.1 s 5 - 3 , + X 2 ,.m.",
"m.m.m.m.m.m.m.m.m.m.m.m.v.b # 7 * I c.M.*., t 9 1 t t , q q : -.",
"m.m.m.m.m.m.m.m.m.m.m.m.f.1 3 , < g.M.M.g.8 X - 1 u 9 B g.k.;.>.",
"m.m.m.m.m.m.m.m.m.m.m.M.*., x , J m.m.M.n.<.K I %.g.k.c.M.m.m.M.",
"m.m.m.m.m.m.m.m.m.m.m.m.%.3 r , *.m.M.n.M.M.m.M.M.m.m.m.m.m.m.m.",
"m.m.m.m.m.m.m.m.m.m.m.k.v w w : f.m.m.m.m.m.m.m.m.m.m.m.m.m.m.m.",
"m.m.m.m.m.m.m.m.m.m.9.N 1 , O B c.m.m.m.m.m.m.m.m.m.m.m.m.m.m.m.",
"m.m.m.m.m.m.m.m.m.M.j.P 8 X @ f.m.n.m.m.m.m.m.m.m.m.m.m.m.m.m.m.",
"m.m.m.m.m.n.m.m.m.m.m.m.g.U $.c.m.m.m.m.m.m.m.m.m.m.m.m.m.m.m.m.",
"m.m.m.m.m.m.m.m.m.m.m.m.m.M.m.m.m.m.m.m.m.m.m.m.m.m.m.m.m.m.m.m.",
"m.n.m.m.m.m.m.m.m.m.m.m.m.m.m.n.m.m.m.m.m.m.n.m.m.m.m.m.m.m.m.m.",
"m.m.m.m.m.m.m.m.m.m.m.m.m.m.m.m.m.m.m.m.m.m.m.m.m.m.m.m.m.m.m.m.",
"m.m.m.m.m.m.m.m.m.m.m.m.m.m.m.m.m.m.m.m.m.m.m.m.m.m.m.m.m.m.m.m."
};
