/* XPM */
static char *_1269deb1d7848d7d7354a979d206554ih9PN7VsR0zBVPdh[] = {
/* columns rows colors chars-per-pixel */
"64 64 191 2 ",
"   c #ADD8E6",
".  c #040305",
"X  c #0A0100",
"o  c #060509",
"O  c #09070A",
"+  c #0B0A0D",
"@  c #07080B",
"#  c #160401",
"$  c #1A0301",
"%  c #110A05",
"&  c #190C04",
"*  c #130E0B",
"=  c #1B0B0B",
"-  c #16120D",
";  c #1A130D",
":  c #1E1007",
">  c #0E0D11",
",  c #100E12",
"<  c #131315",
"1  c #1C1A15",
"2  c #161419",
"3  c #18161A",
"4  c #161919",
"5  c #1B1B1C",
"6  c #1F1012",
"7  c #240D04",
"8  c #210D0B",
"9  c #290A06",
"0  c #380903",
"q  c #23160D",
"w  c #2B150B",
"e  c #3A1905",
"r  c #261515",
"t  c #2D1613",
"y  c #251B14",
"u  c #221D1C",
"i  c #2A1D16",
"p  c #331B15",
"a  c #25211E",
"s  c #2F2419",
"d  c #34241E",
"f  c #382317",
"g  c #1E1D21",
"h  c #211E23",
"j  c #1F2022",
"k  c #232224",
"l  c #2A2423",
"z  c #252926",
"x  c #2B2926",
"c  c #26262A",
"v  c #29262A",
"b  c #26292B",
"n  c #2B2B2C",
"m  c #332B24",
"M  c #322C2C",
"N  c #392925",
"B  c #2E312E",
"V  c #31322E",
"C  c #3B312C",
"Z  c #2D2C31",
"A  c #312E32",
"S  c #2E3333",
"D  c #333334",
"F  c #3B3734",
"G  c #3B3935",
"H  c #363538",
"J  c #383639",
"K  c #37393A",
"L  c #3B3B3C",
"P  c #363833",
"I  c #451A03",
"U  c #441F13",
"Y  c #5A2A0D",
"T  c #442218",
"R  c #4A2C1D",
"E  c #482517",
"W  c #522915",
"Q  c #5B341C",
"!  c #663619",
"~  c #462922",
"^  c #44372F",
"/  c #5E3C2A",
"(  c #583726",
")  c #453B35",
"_  c #423E3D",
"`  c #403531",
"'  c #623E26",
"]  c #693E28",
"[  c #3D403E",
"{  c #46413C",
"}  c #5B4335",
"|  c #5A463C",
" . c #594638",
".. c #6C422B",
"X. c #784A2D",
"o. c #634433",
"O. c #694A3D",
"+. c #754C34",
"@. c #794D36",
"#. c #744E3C",
"$. c #7C5239",
"%. c #76503D",
"&. c #3E3D40",
"*. c #413F42",
"=. c #3F4045",
"-. c #424243",
";. c #49484B",
":. c #48464A",
">. c #504E51",
",. c #674E42",
"<. c #645549",
"1. c #775747",
"2. c #6D5B51",
"3. c #665851",
"4. c #786357",
"5. c #7D6E66",
"6. c #845E4A",
"7. c #815941",
"8. c #87624B",
"9. c #95664A",
"0. c #846353",
"q. c #8A6451",
"w. c #8C6C5A",
"e. c #8A6C5A",
"r. c #926B54",
"t. c #946F5E",
"y. c #9C6F58",
"u. c #9B7156",
"i. c #9B735F",
"p. c #A2745B",
"a. c #A97A5D",
"s. c #8D786B",
"d. c #897568",
"f. c #927363",
"g. c #9A7566",
"h. c #947968",
"j. c #9A7867",
"k. c #8B7C70",
"l. c #A67C63",
"z. c #AD7F65",
"x. c #9C826E",
"c. c #9A8273",
"v. c #AC8166",
"b. c #A5816B",
"n. c #AB836B",
"m. c #B78266",
"M. c #BC8362",
"N. c #B5856C",
"B. c #B8896B",
"V. c #A18777",
"C. c #AE8B75",
"Z. c #A68A79",
"A. c #AB897A",
"S. c #BB8D75",
"D. c #B68B77",
"F. c #AD927F",
"G. c #B79075",
"H. c #BA9173",
"J. c #B89379",
"K. c #C58A66",
"L. c #C58F74",
"P. c #C39177",
"I. c #C59479",
"U. c #C9967A",
"Y. c #CA9B7D",
"T. c #D59C7A",
"R. c #A79285",
"E. c #B59A85",
"W. c #B69E8B",
"Q. c #BC9B89",
"!. c #BAA595",
"~. c #C29A81",
"^. c #D59F82",
"/. c #C7A48B",
"(. c #DCA684",
"). c #D9A98C",
"_. c #D2A285",
"`. c #CBAB95",
"'. c #C3AC9B",
"]. c #C4A792",
"[. c #D2AC94",
"{. c #DBB293",
"}. c #D7B49D",
"|. c #E1AB89",
" X c #E3B08E",
".X c #E4B092",
"XX c #CCB8A9",
"oX c #DABBA5",
"OX c #D4BAA8",
"+X c #E6BDA4",
"@X c #F9C6A8",
/* pixels */
"                                                                                                                                ",
"                                                                                                                                ",
"                                                                                                                                ",
"                                                                                                                                ",
"                                                                              O./ o.%.6.r.f.                                    ",
"                                                                            q.7.] ..@.$.$.#.6.t.                                ",
"                                                                            D.P.P.U.U.S.y.....#.q.                              ",
"                                                                            [.+X@X@X.X).N.@.( / w.                              ",
"                                                                          C.~._.^.B.9.p.p.q.../ b.                              ",
"                                                                          0.+.! Y I 0 W ..1.#.#.j.A.                            ",
"                                                                          6.$.X.! Y Q 8.b.b.0.1.j.Z.R.                          ",
"                                                                            r.p.z.a.l.~.[.`.Z.e.0.e.s.5.                        ",
"                                                                            n.G.{.{./.[.}.OX!.c.4.,.| { _                       ",
"                      X % ; * % ; ; ; % % ; ; ; ; & # : q q i d N           n.B.H.G.J.`.`.E.F.Z.c.| X X * v n v                 ",
"                      - 1 a a u u 1 ; * % * - ; % & 7 # # $ 7 e R (       I 7.G./.}.+XoX!.x.W.'.s. .i C G v 5 3 5               ",
"                                                    w $ 9 E W ' r.l.v.u.Q e ..b.}.oX].E.W.'.OX!.| s s G -.K c 2 +               ",
"                                                      9 U +.9.a._.).Y.m.$.e Q 8.F.F.h.s.R.XX!.d.d y m D L -.D 5 @               ",
"                                                          a.U.|.(.|. XY.u.' / o.} | <.2.5.k.<.C d m F D H -.D j <               ",
"                                                          m.M.K.K.T.(.N.n.Q.V.2.q y ^ C m i C ) x x D J L K b 4 4               ",
"                                                        z.U.^.T.M.M.B.v.C.Q.c.3.) C C F G G F G L L J Z n S 5 + g               ",
"                                                      r.i.N.P.L.m.B.N.6.1.f.s.4.` M F _ { G G G L L L v k n < o k               ",
"                                                        r.y.p.l.N.D.n./ f } 2.3.i u V P D n V D B D P z k k + .                 ",
"                                                            t.t.g.g.0.R 9 p d m u 1 1 k z z z z z x v k 5 5 + .                 ",
"                                                              O.T T ~ ~ p 8 y l l u 3 5 5 4 4 4 < < 5 < < k 3 <                 ",
"                                                              ( 9 9 t N d = = u h v D S n b n n a 5 5 5 5 3 3 3                 ",
"                                                                t 8 8 r r 6     3 z D L &.&.L D x a u z k 3 4 3                 ",
"                                                                    = X X         < 5 D -.;.L v k u u k k 5 3 3                 ",
"                                                                                  < . c =.:.L n k u 1 k k 3 < <                 ",
"                                                                                2 g c Z H &.-.J u 1 u k k 5 > O                 ",
"                                                                                  k Z Z D D L L v u 1 h k k 2 < k               ",
"                                                                                  c Z Z Z D J L H n a 5 k c 5 2 5               ",
"                                                                                  c Z g g H J J L J D k g k 5 < <               ",
"                                                                                5 2 2 + 2 D L L J D V v n J n 5 <               ",
"                                                                                  2 > < 5 c D D D n n n n k 3 < 5               ",
"                                                                                  < > k k 3 5 k k z D K D z < O 5               ",
"                                                                                    < v v < < < 5 z D H J D 3 o 5               ",
"                                                                                    2 h c v 3 < D B k 5 k v 5 < D               ",
"                                                                                    , 2 g v k z D [ L n z k c Z                 ",
"                                                                                    , v A k v A -.-.L D c 5 k A                 ",
"                                                                                    > Z J v M J *.L D c k k h g h k g 2 <       ",
"                                                                                    + < h A L *.D D D 3 3 A k 2 < > + + > z     ",
"                                                                                    < < k L L J D A v n k < z D g 5 k D D g     ",
"                                                                                    2 , h *.H v v h 5 g n L ;.-.< > g n c < 5 D ",
"                                                                                    5 + 5 H Z k h 5 5 5 n L D k < < z D c < < < ",
"                                                                                    5 > < v v k k 5 3 g k k + o g       D 5 + o ",
"                                                                                    < , < h v n g < , 5   3 5                 z ",
"                                                                                    O g k 3 5 5 + O                             ",
"                                                                                  O o c A 5 2 < <                               ",
"                                                                                  < < k n v 5 , 3                               ",
"                                                                                  k v k n H h + 3                               ",
"                                                                                < k D -.:.L 3 .                                 ",
"                                                                                > 5 n H J J 3 .                                 ",
"                                                                                < c &.J D A 3 .                                 ",
"                                                                                , Z >.-.A k < O                                 ",
"                                                                                + k -.*.Z < O o                                 ",
"                                                                                , k *.&.n , +                                   ",
"                                                                              g < h Z n 5 o O                                   ",
"                                                                          + 3 h k g 3 2 , o                                     ",
"                                                                          . , h c 5 + o O                                       ",
"                                                                            o . . O + O o                                       ",
"                                                                                  + . .                                         ",
"                                                                                                                                ",
"                                                                                                                                ",
"                                                                                                                                "
};
