/* XPM */
static char *result[] = {
/* columns rows colors chars-per-pixel */
"49 64 183 2 ",
"   c #020203",
".  c #0B0302",
"X  c #070803",
"o  c #060609",
"O  c #090408",
"+  c #0C0C0C",
"@  c #0C0B07",
"#  c #100700",
"$  c #1C0300",
"%  c #160E09",
"&  c #0C100F",
"*  c #11110E",
"=  c #0C0E11",
"-  c #180E14",
";  c #0F1012",
":  c #141415",
">  c #1B1514",
",  c #1B1B16",
"<  c #151718",
"1  c #17181A",
"2  c #1B1C1C",
"3  c #2F0600",
"4  c #280D06",
"5  c #370600",
"6  c #271300",
"7  c #25140C",
"8  c #241712",
"9  c #281511",
"0  c #211816",
"q  c #221D1C",
"w  c #281815",
"e  c #32210D",
"r  c #232017",
"t  c #24221E",
"y  c #2B241C",
"u  c #30241D",
"i  c #3F271B",
"p  c #1E1E20",
"a  c #1F2325",
"s  c #232323",
"d  c #2A2624",
"f  c #242629",
"g  c #26282B",
"h  c #2B2B2C",
"j  c #2A2927",
"k  c #352B23",
"l  c #322D2A",
"z  c #3E2D23",
"x  c #2C302F",
"c  c #34312D",
"v  c #3A342F",
"b  c #222B31",
"n  c #2C2E31",
"m  c #302E33",
"M  c #2D3135",
"N  c #2F393D",
"B  c #343434",
"V  c #3B3534",
"C  c #3B3A35",
"Z  c #373639",
"A  c #353A3D",
"S  c #3B3B3B",
"D  c #44240D",
"F  c #492D18",
"G  c #44281C",
"H  c #63310E",
"J  c #633B1D",
"K  c #452E20",
"L  c #4B3326",
"P  c #483229",
"I  c #463528",
"U  c #593A26",
"Y  c #413A36",
"T  c #423F3F",
"R  c #45423B",
"E  c #5A4436",
"W  c #564538",
"Q  c #6B472F",
"!  c #77482C",
"~  c #634333",
"^  c #784E35",
"/  c #745036",
"(  c #383D40",
")  c #353E43",
"_  c #3D4244",
"`  c #434344",
"'  c #444649",
"]  c #4E4E4E",
"[  c #474945",
"{  c #574841",
"}  c #594C44",
"|  c #4E4E50",
" . c #4B5459",
".. c #565555",
"X. c #5A5553",
"o. c #595955",
"O. c #57575A",
"+. c #585859",
"@. c #53585C",
"#. c #6A4F42",
"$. c #6F5640",
"%. c #6C594B",
"&. c #66554E",
"*. c #785A4F",
"=. c #72574C",
"-. c #645E50",
";. c #7D715B",
":. c #636363",
">. c #73736E",
",. c #6C6C71",
"<. c #737375",
"1. c #7E7875",
"2. c #885B3B",
"3. c #986B48",
"4. c #836857",
"5. c #886654",
"6. c #8F745E",
"7. c #82705D",
"8. c #9C7A55",
"9. c #A57C5D",
"0. c #876E6A",
"q. c #827463",
"w. c #8F7260",
"e. c #82766A",
"r. c #927B6D",
"t. c #9E7E73",
"y. c #A67965",
"u. c #9B836B",
"i. c #9C917F",
"p. c #AC826C",
"a. c #AB8561",
"s. c #B5836C",
"d. c #B38D69",
"f. c #AB8577",
"g. c #BE8870",
"h. c #B08C7C",
"j. c #AE967E",
"k. c #B3947D",
"l. c #BF907C",
"z. c #B59677",
"x. c #C28D73",
"c. c #C89075",
"v. c #CB977F",
"b. c #D4A97F",
"n. c #7F7F80",
"m. c #828284",
"M. c #978A86",
"N. c #AF9586",
"B. c #B39384",
"V. c #B4A087",
"C. c #AEA295",
"Z. c #BDAD9C",
"A. c #B9A596",
"S. c #B4ACA7",
"D. c #C69B86",
"F. c #CFA28F",
"G. c #C4A185",
"H. c #D2A58B",
"J. c #D7AD85",
"K. c #DFB58B",
"L. c #C5A995",
"P. c #D4AC94",
"I. c #DCAA93",
"U. c #D9B89A",
"Y. c #E0B38C",
"T. c #E1B397",
"R. c #CBADA2",
"E. c #C5B4A7",
"W. c #D7B0A1",
"Q. c #D5B7AF",
"!. c #D3BCA7",
"~. c #E6BFA2",
"^. c #DDC1AC",
"/. c #D1C4BB",
"(. c #E7C6A7",
"). c #F7C7A3",
"_. c #E8C5B1",
"`. c #F4CCB7",
"'. c #F0D1BD",
"]. c #F1DBC6",
"[. c #F6E2C9",
"{. c #F2E0D2",
"}. c None",
/* pixels */
"}.}.}.}.}.}.}.}.}.}.}.}.}.}.}.}.}.}.}.}.}.}.}.}.}.}.}.}.}.}.}.}.}.}.}.}.}.}.}.}.}.}.}.}.}.}.}.}.}.",
"}.}.}.}.}.}.}.}.}.}.}.}.}.}.}.}.}.}.}.}.}.}.}.}.}.}.}.}.}.}.}.}.}.}.}.}.}.}.}.}.}.}.}.}.}.}.}.}.}.",
"}.}.}.}.}.}.}.}.}.}.}.}.}.}.}.}.}.}.}.}.}.}.}.}.}.}.}.}.}.}.}.}.}.}.}.}.}.}.}.}.}.}.}.}.}.}.}.}.}.",
"}.}.}.}.}.}.}.}.}.}.}.}.}.}.}.}.}.}.}.}.}.}.}.}.}.}.}.}.}.}.}.}.}.}.}.}.}.}.}.}.}.}.}.}.}.}.}.}.}.",
"}.}.}.}.}.}.}.}.}.}.}.}.}.}.}.}.}.}.}.}.}.}.}.}.}.}.}.}.}.}.}.}.}.}.}.}.}.}.}.}.}.}.}.}.}.}.}.}.}.",
"}.}.}.}.}.}.}.}.}.}.}.}.}.}.}.}.}.}.}.}.}.}.}.}.}.}.}.}.}.}.}.}.}.}.}.}.}.}.}.}.}.}.}.}.}.}.}.}.}.",
"}.}.}.}.}.}.}.}.}.}.}.}.}.}.}.}.}.q.$.=.i W }.}.}.}.}.}.}.}.}.}.}.}.}.}.}.}.}.}.}.}.}.}.}.}.}.}.}.",
"}.}.}.}.}.}.}.}.}.}.}.}.}.}.}.}.E F ~ ~ ~ K C.}.}.}.}.}.}.}.}.}.}.}.}.}.}.}.}.}.}.}.}.}.}.}.}.}.}.",
"}.}.}.}.}.}.}.}.}.}.}.}.}.}.}.I U / P.`._.L.E.}.}.}.}.}.}.}.}.}.}.}.}.}.}.}.}.}.}.}.}.}.}.}.}.}.}.",
"}.}.}.}.}.}.}.}.}.}.}.}.}.}.}.L Q 2.H.p.`.'.Z.}.}.}.}.}.}.}.}.}.}.}.}.}.}.}.}.}.}.}.}.}.}.}.}.}.}.",
"}.}.}.}.}.}.}.}.}.}.}.}.}.}.}./ J 2.3.! ^ h.7.}.}.}.}.}.}.}.}.}.}.}.}.}.}.}.}.}.}.}.}.}.}.}.}.}.}.",
"}.}.}.}.}.}.}.}.}.}.}.}.}.}.M.;.J 3.H 5 3 D I }.}.}.}.}.}.}.}.}.}.}.}.}.}.}.}.}.}.}.}.}.}.}.}.}.}.",
"}.}.}.}.}.}.}.}.}.}.}.}.}.}.}.4.d.K.).3.9.B.r.}.}.}.}.}.}.}.}.}.}.}.}.}.}.}.}.}.}.}.}.}.}.}.}.}.}.",
"}.}.}.}.}.}.}.}.}.}.}.}.1.W P w.a.b.K.K.(.k.Z.}.}.}.}.}.}.}.}.}.}.}.}.}.}.}.}.}.}.}.}.}.}.}.}.}.}.",
"}.}.}.}.}.}.}.}.}.}.[   # % E Q.3.K.J.9.G.L.Z.}.}.}.m Z - O > Z p o   o = o   o o }.}.}.}.}.}.}.}.",
"}.}.}.}.}.}.}.}.}.& @ C v k z ^.z.8.U.(.U.k.e }.}.S.. 0 - q -   : + o             }.}.}.}.}.}.}.}.",
"}.}.}.}.}.}.}.}.}.X C v R l y e.].6.u.!.[.V.# / P.B.*.4 9 > +.}.}.}.}.}.}.}.}.}.}.}.}.}.}.}.}.}.}.",
"}.}.}.}.}.}.}.}.}.X d C C C r y E.{.A.e.i.;.6 E U.H.F.W.A.&.}.}.}.}.}.}.}.}.}.}.}.}.}.}.}.}.}.}.}.",
"}.}.}.}.}.}.}.}.}.* q [ l C t r k } Y v r -.%.6.I.D.D.T.f.}.}.}.}.}.}.}.}.}.}.}.}.}.}.}.}.}.}.}.}.",
"}.}.}.}.}.}.}.}.}.j @ S c C x C V v B c x o./.N.D.c.c.y.y.R.}.}.}.}.}.}.}.}.}.}.}.}.}.}.}.}.}.}.}.",
"}.}.}.}.}.}.}.}.}.+.X j c C B C Y Z _ _ a _ S.%.D.y.c.x.D.t.}.}.}.}.}.}.}.}.}.}.}.}.}.}.}.}.}.}.}.",
"}.}.}.}.}.}.}.}.}.1.X s f d V V V S A A b @.M.. U l.I.s.t.r.}.}.}.}.}.}.}.}.}.}.}.}.}.}.}.}.}.}.}.",
"}.}.}.}.}.}.}.}.}.}.  : 2 , h j l u s n + _ t 8 G h.5.f.Q.}.}.}.}.}.}.}.}.}.}.}.}.}.}.}.}.}.}.}.}.",
"}.}.}.}.}.}.}.}.}.}.s : : < p q q 0 t : p q 0 u 9 P 3 0.}.}.}.}.}.}.}.}.}.}.}.}.}.}.}.}.}.}.}.}.}.",
"}.}.}.}.}.}.}.}.}.}.Z 1 p 2 1 h T v V q V v % u 7 I w }.}.}.}.}.}.}.}.}.}.}.}.}.}.}.}.}.}.}.}.}.}.",
"}.}.}.}.}.}.}.}.}.}.Z 2 f a g M ' T ` q l }.X.  0 X T }.}.}.}.}.}.}.}.}.}.}.}.}.}.}.}.}.}.}.}.}.}.",
"}.}.}.}.}.}.}.}.}.}.2 1 s 1 g b _ ( Z p >.}.}.}.}.}.}.}.}.}.}.}.}.}.}.}.}.}.}.}.}.}.}.}.}.}.}.}.}.",
"}.}.}.}.}.}.}.}.}.}.  2 1 : ; a ) N ( : +.}.}.}.}.}.}.}.}.}.}.}.}.}.}.}.}.}.}.}.}.}.}.}.}.}.}.}.}.",
"}.}.}.}.}.}.}.}.}.<.o n a p : x N  .M f g }.}.}.}.}.}.}.}.}.}.}.}.}.}.}.}.}.}.}.}.}.}.}.}.}.}.}.}.",
"}.}.}.}.}.}.}.}.}.S = p 1 < a B _ ( f g ,.}.}.}.}.}.}.}.}.}.}.}.}.}.}.}.}.}.}.}.}.}.}.}.}.}.}.}.}.",
"}.}.}.}.}.}.}.}.}.2 2 p a 2 A _ Z S s 2 ,.}.}.}.}.}.}.}.}.}.}.}.}.}.}.}.}.}.}.}.}.}.}.}.}.}.}.}.}.",
"}.}.}.}.}.}.}.}.}.= 2 n g g ' _ Y c * g M }.}.}.}.}.}.}.}.}.}.}.}.}.}.}.}.}.}.}.}.}.}.}.}.}.}.}.}.",
"}.}.}.}.}.}.}.}.}.m   p Z Z | ( h j s + h }.}.}.}.}.}.}.}.}.}.}.}.}.}.}.}.}.}.}.}.}.}.}.}.}.}.}.}.",
"}.}.}.}.}.}.}.}.}.O.  2 f ; s : @ 1 s o <.}.}.}.}.}.}.}.}.}.}.}.}.}.}.}.}.}.}.}.}.}.}.}.}.}.}.}.}.",
"}.}.}.}.}.}.}.}.}.' < ' ' d Z 2 * 2 s X }.}.}.}.}.}.}.}.}.}.}.}.}.}.}.}.}.}.}.}.}.}.}.}.}.}.}.}.}.",
"}.}.}.}.}.}.}.}.}.m.p n B Z Z f s 2 Z * }.}.}.}.}.}.}.}.}.}.}.}.}.}.}.}.}.}.}.}.}.}.}.}.}.}.}.}.}.",
"}.}.}.}.}.}.}.}.}.}.s Z g x Z Z h : s   }.}.}.}.}.}.}.}.}.}.}.}.}.}.}.}.}.}.}.}.}.}.}.}.}.}.}.}.}.",
"}.}.}.}.}.}.p   :.n.p 1 j Z C S S l : : }.}.}.}.}.}.}.}.}.}.}.}.}.}.}.}.}.}.}.}.}.}.}.}.}.}.}.}.}.",
"}.}.}.}.}.Z ; ..o @ : 1 2 s Z C n C 1 h }.}.}.}.}.}.}.}.}.}.}.}.}.}.}.}.}.}.}.}.}.}.}.}.}.}.}.}.}.",
"}.}.}.}.2 g O.s 1 h g l 1 s h S S S C g }.}.}.}.}.}.}.}.}.}.}.}.}.}.}.}.}.}.}.}.}.}.}.}.}.}.}.}.}.",
"}.}.}...  h = p s c B S B + , h B B Z + }.}.}.}.}.}.}.}.}.}.}.}.}.}.}.}.}.}.}.}.}.}.}.}.}.}.}.}.}.",
"}.}.}.n h ` }.}.s s Z C M 2 : 2 2 s s < g }.}.}.}.}.}.}.}.}.}.}.}.}.}.}.}.}.}.}.}.}.}.}.}.}.}.}.}.",
"}.}.}.}.}.}.}.}.:.  + 2 B j : , 2 q p 2 + }.}.}.}.}.}.}.}.}.}.}.}.}.}.}.}.}.}.}.}.}.}.}.}.}.}.}.}.",
"}.}.}.}.}.}.}.}.}.}.}...v j & * s s : B * :.}.}.}.}.}.}.}.}.}.}.}.}.}.}.}.}.}.}.}.}.}.}.}.}.}.}.}.",
"}.}.}.}.}.}.}.}.}.}.}.}.}.}.}.}.: s ( C j p }.}.}.}.}.}.}.}.}.}.}.}.}.}.}.}.}.}.}.}.}.}.}.}.}.}.}.",
"}.}.}.}.}.}.}.}.}.}.}.}.}.}.}.}.` 2 Z ` C + }.}.}.}.}.}.}.}.}.}.}.}.}.}.}.}.}.}.}.}.}.}.}.}.}.}.}.",
"}.}.}.}.}.}.}.}.}.}.}.}.}.}.}.}.}.  C S C 2 }.}.}.}.}.}.}.}.}.}.}.}.}.}.}.}.}.}.}.}.}.}.}.}.}.}.}.",
"}.}.}.}.}.}.}.}.}.}.}.}.}.}.}.}.}.  Z s ` 1 ] }.}.}.}.}.}.}.}.}.}.}.}.}.}.}.}.}.}.}.}.}.}.}.}.}.}.",
"}.}.}.}.}.}.}.}.}.}.}.}.}.}.}.}.}.2 s Z C s B }.}.}.}.}.}.}.}.}.}.}.}.}.}.}.}.}.}.}.}.}.}.}.}.}.}.",
"}.}.}.}.}.}.}.}.}.}.}.}.}.}.}.}.}.` : S S B Z }.}.}.}.}.}.}.}.}.}.}.}.}.}.}.}.}.}.}.}.}.}.}.}.}.}.",
"}.}.}.}.}.}.}.}.}.}.}.}.}.}.}.}.}.:.X h B   x }.}.}.}.}.}.}.}.}.}.}.}.}.}.}.}.}.}.}.}.}.}.}.}.}.}.",
"}.}.}.}.}.}.}.}.}.}.}.}.}.}.}.}.}.}.' +   : s h   S }.}.}.}.}.}.}.}.}.}.}.}.}.}.}.}.}.}.}.}.}.}.}.",
"}.}.}.}.}.}.}.}.}.}.}.}.}.}.}.}.}.}.}.@ s Z s + < }.}.}.}.}.}.}.}.}.}.}.}.}.}.}.}.}.}.}.}.}.}.}.}.",
"}.}.}.}.}.}.}.}.}.}.}.}.}.}.}.}.}.}.}.s 1 + : +.}.}.}.}.}.}.}.}.}.}.}.}.}.}.}.}.}.}.}.}.}.}.}.}.}.",
"}.}.}.}.}.}.}.}.}.}.}.}.}.}.}.}.}.}.}.| X o.}.}.}.}.}.}.}.}.}.}.}.}.}.}.}.}.}.}.}.}.}.}.}.}.}.}.}.",
"}.}.}.}.}.}.}.}.}.}.}.}.}.}.}.}.}.}.}.}.}.}.}.}.}.}.}.}.}.}.}.}.}.}.}.}.}.}.}.}.}.}.}.}.}.}.}.}.}.",
"}.}.}.}.}.}.}.}.}.}.}.}.}.}.}.}.}.}.}.}.}.}.}.}.}.}.}.}.}.}.}.}.}.}.}.}.}.}.}.}.}.}.}.}.}.}.}.}.}.",
"}.}.}.}.}.}.}.}.}.}.}.}.}.}.}.}.}.}.}.}.}.}.}.}.}.}.}.}.}.}.}.}.}.}.}.}.}.}.}.}.}.}.}.}.}.}.}.}.}.",
"}.}.}.}.}.}.}.}.}.}.}.}.}.}.}.}.}.}.}.}.}.}.}.}.}.}.}.}.}.}.}.}.}.}.}.}.}.}.}.}.}.}.}.}.}.}.}.}.}.",
"}.}.}.}.}.}.}.}.}.}.}.}.}.}.}.}.}.}.}.}.}.}.}.}.}.}.}.}.}.}.}.}.}.}.}.}.}.}.}.}.}.}.}.}.}.}.}.}.}.",
"}.}.}.}.}.}.}.}.}.}.}.}.}.}.}.}.}.}.}.}.}.}.}.}.}.}.}.}.}.}.}.}.}.}.}.}.}.}.}.}.}.}.}.}.}.}.}.}.}.",
"}.}.}.}.}.}.}.}.}.}.}.}.}.}.}.}.}.}.}.}.}.}.}.}.}.}.}.}.}.}.}.}.}.}.}.}.}.}.}.}.}.}.}.}.}.}.}.}.}.",
"}.}.}.}.}.}.}.}.}.}.}.}.}.}.}.}.}.}.}.}.}.}.}.}.}.}.}.}.}.}.}.}.}.}.}.}.}.}.}.}.}.}.}.}.}.}.}.}.}.",
"}.}.}.}.}.}.}.}.}.}.}.}.}.}.}.}.}.}.}.}.}.}.}.}.}.}.}.}.}.}.}.}.}.}.}.}.}.}.}.}.}.}.}.}.}.}.}.}.}."
};
