/* XPM */
static char *_68dd2db78cb4fee9c37c8527e447dfddETj7LuNUUrAjGq2[] = {
/* columns rows colors chars-per-pixel */
"48 64 185 2 ",
"   c None",
".  c #030302",
"X  c #0D0304",
"o  c #03050A",
"O  c #05090D",
"+  c #0C0C0C",
"@  c #0A0B02",
"#  c #130100",
"$  c #150900",
"%  c #15130E",
"&  c #1C140D",
"*  c #121003",
"=  c #0F1110",
"-  c #141414",
";  c #1C1A15",
":  c #141619",
">  c #17181A",
",  c #1C1B1C",
"<  c #181415",
"1  c #240500",
"2  c #250A02",
"3  c #2C1303",
"4  c #391A07",
"5  c #251E1D",
"6  c #23221D",
"7  c #2D271E",
"8  c #3B2116",
"9  c #3C2A1E",
"0  c #342419",
"q  c #1E2024",
"w  c #242424",
"e  c #292021",
"r  c #262827",
"t  c #242629",
"y  c #272A2A",
"u  c #2B2B2B",
"i  c #2A2829",
"p  c #312E2A",
"a  c #382E2F",
"s  c #352F23",
"d  c #32312C",
"f  c #39332A",
"g  c #2D2E31",
"h  c #2F3334",
"j  c #343434",
"k  c #3C3631",
"l  c #3A3A37",
"z  c #333739",
"x  c #343939",
"c  c #3B3B3B",
"v  c #373833",
"b  c #401F10",
"n  c #46240B",
"m  c #492C16",
"M  c #512A19",
"N  c #563218",
"B  c #62341A",
"V  c #472C23",
"C  c #413028",
"Z  c #4B3529",
"A  c #4C3F2E",
"S  c #58382B",
"D  c #443D3C",
"F  c #403635",
"G  c #503730",
"H  c #693826",
"J  c #703E23",
"K  c #3F413E",
"L  c #64431A",
"P  c #45433F",
"I  c #59483B",
"U  c #684629",
"Y  c #764829",
"T  c #6A4C38",
"R  c #7B4B34",
"E  c #755232",
"W  c #3C3D41",
"Q  c #3E4345",
"!  c #434343",
"~  c #4C4945",
"^  c #4A4A4A",
"/  c #45494C",
"(  c #50504D",
")  c #535354",
"_  c #5C5C5C",
"`  c #585659",
"'  c #695B4E",
"]  c #6A5C55",
"[  c #796959",
"{  c #646464",
"}  c #6D6D6D",
"|  c #676A6B",
" . c gray46",
".. c #7C7C7C",
"X. c #895D3A",
"o. c #9F713F",
"O. c #875848",
"+. c #825747",
"@. c #8A6148",
"#. c #9D644D",
"$. c #926745",
"%. c #9A744D",
"&. c #826857",
"*. c #8A6A59",
"=. c #946C52",
"-. c #9C795B",
";. c #AF6F4B",
":. c #AE6C52",
">. c #A87C59",
",. c #B17958",
"<. c #8D6D60",
"1. c #956D61",
"2. c #877566",
"3. c #8A7363",
"4. c #A77961",
"5. c #AB7D66",
"6. c #9D836C",
"7. c #8D8070",
"8. c #A6816B",
"9. c #B4856C",
"0. c #B88767",
"q. c #A48273",
"w. c #AF8F76",
"e. c #A58F78",
"r. c #AA8573",
"t. c #B38C7B",
"y. c #AE947B",
"u. c #B89376",
"i. c #C9845B",
"p. c #C68A68",
"a. c #D28A62",
"s. c #C3946C",
"d. c #C29965",
"f. c #DB966F",
"g. c #C79071",
"h. c #CC9579",
"j. c #C89A76",
"k. c #DA9771",
"l. c #DC9F7C",
"z. c #D1967A",
"x. c #D4A36D",
"c. c #C5A479",
"v. c #E4A675",
"b. c #828282",
"n. c #888888",
"m. c #8A878C",
"M. c #A49385",
"N. c #A7998C",
"B. c #B69885",
"V. c #AB9F9F",
"C. c #AD9990",
"Z. c #B9A195",
"A. c #BBAE9D",
"S. c #C79D87",
"D. c #D5A384",
"F. c #D3A388",
"G. c #D3A986",
"H. c #C1A790",
"J. c #C9A591",
"K. c #C6AC95",
"L. c #D6AB95",
"P. c #CEB49C",
"I. c #DCB999",
"U. c #E7A784",
"Y. c #EEB689",
"T. c #E2AE96",
"R. c #EABC97",
"E. c #E8BE98",
"W. c #E2B79B",
"Q. c #F1B797",
"!. c #CFB3A1",
"~. c #D4B8A4",
"^. c #E3BEA1",
"/. c #F5C89E",
"(. c #D8C1AF",
"). c #F0CDAF",
"_. c #FCCEAA",
"`. c #FDD3A6",
"'. c #E9C9B8",
"]. c #FFD6B3",
"[. c #D3C4C1",
"{. c #E7D4CE",
"}. c #FFDCC9",
"|. c #FFF6E1",
" X c #FFF9E3",
/* pixels */
"                                                                                                ",
"                                                                                                ",
"                                                                                                ",
"                                                                                                ",
"                                                                                                ",
"                                              M.]                                               ",
"                                        T 4 n n m m M.                                          ",
"                                      S N @.>.X.Y N e.                                          ",
"                                    8 M B D./.`._.G.H.                                          ",
"                                    4 R J s.s.j.].^.K.                                          ",
"                                    S J Y 0.%.U -.~.2.                                          ",
"                                  N.1.H R Y 1 2 4 3 9                                           ",
"                                  C.+.#.0.R.L 1 T &.I                                           ",
"                                  2.O.z.Q.Y.`.c.I.B.Z.                                          ",
"                            ) ; * 0 S.:.U.v.x.d.R.j.!.        m.              } { _ _ _ { { { { ",
"                        u , + @ @ A }.#.l.Y.x.o.G.u.B.      D a k . - - - > . . o . . . . . . . ",
"                      - + j ^ c % 7 (.S.$.s./.E.W.u.2       V # 0 ; - : O o : , . . . . . . . . ",
"                      . w j j ! 6 6 '  X8.E u.).).B.3 S   q.t.U 3 $ . w                         ",
"                      . , j j c K d s A.|.K.y.6.~.*.8 4 q.L.T.F.J.3.C                           ",
"                      , - j ! j Q u f f 7.[ I 9 Z ' 8 T L.F.U.l.T.J.                            ",
"                      u - u j c u u v d % & 7 k & ] C.q.5.Q.f.k.,.4.'.                          ",
"                      ^ + i i g z Q x K c l c j i D {.B.9.z.i.a.p.F.J.'.                        ",
"                      b.. w j y z z z c z c Q / g D [.Z @.h.;.k.h.9.r.Z.                        ",
"                        . - w y h c x z z h h z q ` V.X b 8.h.g.9.=.*.                          ",
"                        + . , w r r i u r i q t : u 5 X 2 <.t.*.w.P.                            ",
"                        ^ . - + , 6 , , % ; - + , w < e # s G #                                 ",
"                        ` . w - - w - 5 d p p c j . , i , X F .                                 ",
"                        _ . i , , ; w ~ P P ~ u l   w o w u - u                                 ",
"                        _ . w , w w i P c ! l . (     c : , W                                   ",
"                        j + , w , u r j ! ! i +                                                 ",
"                        . + - - , - g ) Q x y O |                                               ",
"                        . - c u g : u Q z c y o /                                               ",
"                      ) . , - - , j j c z j g =                                                 ",
"                      w + i w w j j j j c , - , b.                                              ",
"                      - + w w u j j c ! j , j w )                                               ",
"                      . , j c j j c c c u , i . )                                               ",
"                       .. l u j j w u u + - - + -                                               ",
"                        , i - , + - o , , , , w - -                                             ",
"                        . w i w w w . . , i w j ! - ,                                           ",
"        {               . u j j ! .  .{ . i j j c c , !                                         ",
"      | . - { w , {   _ . u c c c . ..  i . j c j c ! . }                                       ",
"      - w - . w i + . . , j j c j . ..    , . j j j ! ! .                                       ",
"    , c c w , j j j i w w u c c c . b.      w + w c j j w !                                     ",
"  u + ! j . i j c c j j , u j j c + b.        - - w j j j .                                     ",
"  + - . j { , j ^ j j c w w w j ! .             + , w w w + |                                   ",
"+ . w       i - u j ! j j i , i j .             , . , , i - j                                   ",
"            ..c w + . O w w , , . c             ^ + w c c w w                                   ",
"                    b.{ j . . . j                 . i j c c -                                   ",
"                                                  . i j j ! . n.                                ",
"                                                  . i j j c . }                                 ",
"                                                  , - u j c . {                                 ",
"                                                  ` + j c c w u                                 ",
"                                                  ) + j c j w ,                                 ",
"                                                  ... w j j + c                                 ",
"                                                    c . - - + - i j ^                           ",
"                                                      w - - u ! ^ . u                           ",
"                                                      ! + , - , , n.                            ",
"                                                      ^ . . )                                   ",
"                                                        i                                       ",
"                                                                                                ",
"                                                                                                ",
"                                                                                                ",
"                                                                                                ",
"                                                                                                "
};
