/* XPM */
static char *result[] = {
/* columns rows colors chars-per-pixel */
"32 32 138 2 ",
"   c #1E110C",
".  c #141213",
"X  c #191413",
"o  c #171A1B",
"O  c #1C1B1C",
"+  c #30170A",
"@  c #241612",
"#  c #2B1A13",
"$  c #211E1C",
"%  c #21201F",
"&  c #2C211C",
"*  c #1D1F21",
"=  c #211F21",
"-  c #1E2123",
";  c #1F272A",
":  c #232323",
">  c #2B2927",
",  c #222629",
"<  c #262829",
"1  c #2B2B2C",
"2  c #332C25",
"3  c #3B2F22",
"4  c #34322D",
"5  c #262C31",
"6  c #2C2E31",
"7  c #2E3234",
"8  c #2D3539",
"9  c #333334",
"0  c #3B3433",
"q  c #393835",
"w  c #343639",
"e  c #3A3A3A",
"r  c #40261A",
"t  c #59361F",
"y  c #433730",
"u  c #5D422E",
"i  c #524335",
"p  c #55493F",
"a  c #644A35",
"s  c #6A4738",
"d  c #744B31",
"f  c #77533B",
"g  c #7F553B",
"h  c #3F3E41",
"j  c #374347",
"k  c #3F4A4E",
"l  c #3F4C51",
"z  c #594B40",
"x  c #474E50",
"c  c #445155",
"v  c #495154",
"b  c #4B595E",
"n  c #775C47",
"m  c #7B5C46",
"M  c #725D4C",
"N  c #77604D",
"B  c #7E6B59",
"V  c #56686E",
"C  c #566B74",
"Z  c #596D74",
"A  c #5B6F78",
"S  c #5D7077",
"D  c #5C7179",
"F  c #646768",
"G  c #657377",
"H  c #61757D",
"J  c #6E7879",
"K  c #875140",
"L  c #8B5642",
"P  c #895944",
"I  c #836255",
"U  c #836A56",
"Y  c #896950",
"T  c #83705F",
"R  c #A16A54",
"E  c #A97D5F",
"W  c #A57E66",
"Q  c #AC7C64",
"!  c #9C826B",
"~  c #8A8074",
"^  c #8A877E",
"/  c #938274",
"(  c #9B8573",
")  c #99847B",
"_  c #9B8978",
"`  c #AE856A",
"'  c #BA866D",
"]  c #B4886C",
"[  c #BF8D6F",
"{  c #A58475",
"}  c #AC8B73",
"|  c #A08C7F",
" . c #B28C77",
".. c #CA8E6F",
"X. c #CA9173",
"o. c #C2967C",
"O. c #CB997E",
"+. c #657B82",
"@. c #698087",
"#. c #6F8993",
"$. c #7B97A0",
"%. c #7E9CA6",
"&. c #9C9B94",
"*. c #BDA38D",
"=. c #AAA59D",
"-. c #82A2AC",
";. c #89A7B1",
":. c #89A9B4",
">. c #90ABB2",
",. c #91B3BE",
"<. c #9CB5BB",
"1. c #ABA8A1",
"2. c #B8B4AD",
"3. c #A1B6B9",
"4. c #A9B7BA",
"5. c #CA9C82",
"6. c #C3A187",
"7. c #DAA786",
"8. c #CBAD94",
"9. c #D1AA91",
"0. c #D5B9A4",
"q. c #93B7C3",
"w. c #95B9C5",
"e. c #9ABECA",
"r. c #A5BCC0",
"t. c #9EC5D2",
"y. c #A1C7D3",
"u. c #A4C9D4",
"i. c #A9CCD6",
"p. c #A6CFDC",
"a. c #ACCED9",
"s. c #A7D0DD",
"d. c #AAD2DF",
"f. c #B2D5DF",
"g. c #ACD7E4",
"h. c #ADD8E6",
"j. c #AEDAE9",
"k. c #B0DCEA",
/* pixels */
"h.h.h.h.h.h.h.h.h.h.h.h.j.h.g.g.g.h.h.h.h.h.h.h.h.h.h.h.h.h.h.h.",
"h.h.h.h.h.h.h.h.g.h.h.d.i.y.i.g.h.h.h.h.h.h.h.h.h.h.h.h.h.h.h.h.",
"h.h.h.h.h.h.h.h.g.g.<.~ U n N 3.h.g.h.h.h.h.h.h.h.h.h.h.h.h.h.h.",
"h.h.h.h.h.h.h.h.h.i.N d ` O.O.2.h.h.h.h.h.h.h.h.h.h.h.h.h.h.g.h.",
"h.h.h.h.h.h.g.h.j.t.g g P K R { d.g.j.h.h.h.h.h.h.j.j.g.g.h.h.h.",
"h.h.h.h.g.h.j.j.<.^ Y ` Q L L ) d.j.j.j.j.j.k.h.u.y.t.d.j.g.h.h.",
"h.h.h.h.h.g.-.A q i ! 6.9.5.o.1.j.>.J G H S S C 8 5 5 k -.j.h.h.",
"h.h.h.g.j.%.: : > 3 ) *.*.8.} a &._ t +   x C C Z Z S C %.j.h.h.",
"h.h.h.h.j.+.o 9 q 2 p / T B M u E 7.[ ` | i.j.j.j.k.j.j.j.h.h.h.",
"h.h.h.h.j.w.; 5 4 0 0 0 y 2 z ( ] X...O.0.g.h.h.h.j.h.h.h.h.h.h.",
"h.h.h.h.h.t.1 O > w q 9 0 2 p M f Q '  .=.d.h.h.h.h.h.h.h.h.h.h.",
"h.h.h.h.h.h.C X O - - : : = # # r s I 4.d.h.h.h.h.h.h.h.h.h.h.h.",
"h.h.h.h.g.k.H X : O < 9 6 1 v 9 @ # F d.h.h.h.h.h.h.h.h.h.h.h.h.",
"h.h.h.h.g.k.H X : O 1 h 9 1 ,.e.H %.s.h.h.h.h.h.h.h.h.h.h.h.h.h.",
"h.h.h.h.h.p.x o : O w e 1 6 :.j.k.j.g.g.h.h.h.h.h.h.h.h.h.h.h.h.",
"h.h.h.h.j.-.* * * 1 e 0 : e e.j.h.h.h.h.h.h.h.h.h.h.h.h.h.h.h.h.",
"h.h.h.h.j.%.- - 1 6 9 2 X % ;.j.h.h.h.h.h.h.h.h.h.h.h.h.h.h.h.h.",
"h.h.h.h.h.t., - 9 1 = O $ v s.h.h.h.h.h.h.h.h.h.h.h.h.h.h.h.h.h.",
"h.h.h.h.j.g.b : 1 6 : : O H k.g.h.h.h.h.h.h.h.h.h.h.h.h.h.h.h.h.",
"h.h.j.t.+.H v $ > e 9 1 $ H k.h.h.h.h.h.h.h.h.h.h.h.h.h.h.h.h.h.",
"h.h.t.b O . O = : 1 e 9 o H j.h.h.h.h.h.h.h.h.h.h.h.h.h.h.g.h.h.",
"h.j.+.. 9 , : 9 = $ > 6 o @.j.g.h.h.h.h.h.h.h.h.h.h.h.h.h.h.h.h.",
"g.j.#.D ;.-.c w w : = : . +.j.h.h.h.h.h.h.h.h.h.h.h.h.h.h.h.h.h.",
"g.g.g.j.j.j.s.t.u.A . O O c s.h.h.h.h.h.h.h.g.h.h.h.h.h.h.h.h.h.",
"h.g.h.h.g.g.h.j.j.q.- : 1 7 e.j.h.h.h.h.h.h.h.h.h.h.h.h.h.h.h.h.",
"h.h.h.h.h.h.h.h.h.s.k 1 q < @.j.h.h.h.h.h.h.g.h.h.h.h.h.h.h.h.h.",
"h.h.h.h.h.h.h.h.h.j.S O e 1 +.j.g.h.h.h.h.h.h.h.h.h.h.h.j.g.h.h.",
"h.h.h.h.h.h.h.h.h.j.$.o q 1 D j.j.g.h.h.h.h.h.h.h.h.h.h.g.h.h.h.",
"h.h.h.h.h.h.h.h.h.h.s.c O % 7 V -.j.h.h.h.h.h.h.h.h.h.h.j.j.g.j.",
"h.h.h.h.h.h.h.h.h.h.h.q.o . , j -.j.h.h.h.h.h.h.h.h.h.h.g.g.h.g.",
"h.h.h.h.h.h.h.h.h.h.h.s.H +.q.a.j.g.h.h.h.h.h.h.h.g.h.h.h.h.h.h.",
"h.h.g.h.h.h.h.h.h.h.g.h.j.j.j.h.g.h.h.h.h.h.h.h.g.j.h.h.h.h.h.h."
};
