/* XPM */
static char *result[] = {
/* columns rows colors chars-per-pixel */
"48 64 183 2 ",
"   c #040303",
".  c #090302",
"X  c #07070F",
"o  c #0B0B0B",
"O  c #0B0804",
"+  c #150001",
"@  c #120F08",
"#  c #170B07",
"$  c #0D1005",
"%  c #16120C",
"&  c #181807",
"*  c #0D0D13",
"=  c #140E10",
"-  c #141414",
";  c #1A1312",
":  c #1E1B11",
">  c #17181A",
",  c #1C1C1C",
"<  c #181219",
"1  c #240100",
"2  c #290803",
"3  c #310E00",
"4  c #340700",
"5  c #281D07",
"6  c #2B1515",
"7  c #28171F",
"8  c #221C1B",
"9  c #3F1F12",
"0  c #1C261C",
"q  c #2C2605",
"w  c #21261B",
"e  c #2B251E",
"r  c #3C211D",
"t  c #332A18",
"y  c #3C3116",
"u  c #1D1C23",
"i  c #171520",
"p  c #281D24",
"a  c #1F2022",
"s  c #232323",
"d  c #282524",
"f  c #2C2C25",
"g  c #25272B",
"h  c #29262C",
"j  c #2B2B2B",
"k  c #30272A",
"l  c #342C2E",
"z  c #2E332D",
"x  c #233023",
"c  c #34322D",
"v  c #39362D",
"b  c #2B2D31",
"n  c #312F3A",
"m  c #2E3135",
"M  c #333434",
"N  c #343833",
"B  c #3A3935",
"V  c #36373C",
"C  c #36393C",
"Z  c #3A3A3A",
"A  c #441705",
"S  c #412F07",
"D  c #5A260E",
"F  c #433005",
"G  c #472C16",
"H  c #5A2A16",
"J  c #5B2D1E",
"K  c #533B13",
"L  c #65331D",
"P  c #432B2B",
"I  c #532E26",
"U  c #5A3823",
"Y  c #443C36",
"T  c #573B39",
"R  c #574C2B",
"E  c #564124",
"W  c #49443A",
"Q  c #51543E",
"!  c #6C4B28",
"~  c #734826",
"^  c #684B34",
"/  c #794D39",
"(  c #6B593B",
")  c #7A5736",
"_  c #6C633C",
"`  c #373741",
"'  c #3C3F41",
"]  c #3D4246",
"[  c #434343",
"{  c #4C4545",
"}  c #454549",
"|  c #4B464A",
" . c #5B4140",
".. c #5E5A46",
"X. c #4D4A55",
"o. c #505050",
"O. c #7A4F46",
"+. c #6F5F46",
"@. c #7C564D",
"#. c #7E6048",
"$. c #73654A",
"%. c #60685A",
"&. c #626751",
"*. c #7E6569",
"=. c #835436",
"-. c #8F5A45",
";. c #835B42",
":. c #805F5A",
">. c #8C6A43",
",. c #8B634A",
"<. c #96634A",
"1. c #97684E",
"2. c #906D47",
"3. c #8E665C",
"4. c #8F6954",
"5. c #9B6A56",
"6. c #8F7859",
"7. c #947058",
"8. c #B06E4C",
"9. c #A77756",
"0. c #B4795A",
"q. c #997F68",
"w. c #967967",
"e. c #A27668",
"r. c #B8875B",
"t. c #8B8065",
"y. c #988066",
"u. c #9F807D",
"i. c #988A75",
"p. c #B7836E",
"a. c #B48662",
"s. c #A78B73",
"d. c #BE8E77",
"f. c #A2957B",
"g. c #AF917A",
"h. c #B79677",
"j. c #C58D6B",
"k. c #C89469",
"l. c #C28975",
"z. c #C3987A",
"x. c #D79972",
"c. c #C9A379",
"v. c #D0A77B",
"b. c #E7A47A",
"n. c #817782",
"m. c #947E81",
"M. c #959281",
"N. c #AC8D8A",
"B. c #B59F8A",
"V. c #BA9F94",
"C. c #B3A389",
"Z. c #A898A2",
"A. c #BCB2A6",
"S. c #CC9C83",
"D. c #C29689",
"F. c #D19D8F",
"G. c #C9A289",
"H. c #DCAD84",
"J. c #D2AB8A",
"K. c #D3A786",
"L. c #CBB38D",
"P. c #DEB48A",
"I. c #C9AD98",
"U. c #D8A999",
"Y. c #CEB192",
"T. c #D7B797",
"R. c #E2B18A",
"E. c #E5B79B",
"W. c #D4B5B3",
"Q. c #E4BAA1",
"!. c #D7C49B",
"~. c #DBC3A9",
"^. c #EDC2A1",
"/. c #E4CAAA",
"(. c #F5C8A8",
"). c #E8D0AA",
"_. c #F6D0AC",
"`. c #E7C2B9",
"'. c #FACDB3",
"]. c #FFDFC6",
"[. c #FAE8D2",
"{. c #FFF6EA",
"}. c None",
/* pixels */
"}.}.}.}.}.}.}.}.}.}.}.}.}.}.}.}.}.}.}.}.}.}.}.}.}.}.}.}.}.}.}.}.}.}.}.}.}.}.}.}.}.}.}.}.}.}.}.}.",
"}.}.}.}.}.}.}.}.}.}.}.}.}.}.}.}.}.}.}.}.}.}.}.}.}.}.}.}.}.}.}.}.}.}.}.}.}.}.}.}.}.}.}.}.}.}.}.}.",
"}.}.}.}.}.}.}.}.}.}.}.}.}.}.}.}.}.}.}.}.}.}.}.}.}.}.}.}.}.}.}.}.}.}.}.}.}.}.}.}.}.}.}.}.}.}.}.}.",
"}.}.}.}.}.}.}.}.}.}.}.}.}.}.}.}.}.}.}.}.}.}.}.}.}.}.}.}.}.}.}.}.}.}.}.}.}.}.}.}.}.}.}.}.}.}.}.}.",
"}.}.}.}.}.}.}.}.}.}.}.}.}.}.}.}.}.}.}.}.}.}._ R }.}.}.}.}.}.}.}.}.}.}.}.}.}.}.}.}.}.}.}.}.}.}.}.",
"}.}.}.}.}.}.}.}.}.}.}.}.}.}.}.}.}.}.}.y 5 K F S R }.}.}.}.}.}.}.}.}.}.}.}.}.}.}.}.}.}.}.}.}.}.}.",
"}.}.}.}.}.}.}.}.}.}.}.}.}.}.}.}.}.}.P K ) ) ! K E }.}.}.}.}.}.}.}.}.}.}.}.}.}.}.}.}.}.}.}.}.}.}.",
"}.}.}.}.}.}.}.}.}.}.}.}.}.}.}.}.}.A ! >.^.^._./.q.}.}.}.}.}.}.}.}.}.}.}.}.}.}.}.}.}.}.}.}.}.}.}.",
"}.}.}.}.}.}.}.}.}.}.}.}.}.}.}.}.}.A / -.U.l.Q.].f.}.}.}.}.}.}.}.}.}.}.}.}.}.}.}.}.}.}.}.}.}.}.}.",
"}.}.}.}.}.}.}.}.}.}.}.}.}.}.}.}.}.L L -.p.5./ I.i...}.}.}.}.}.}.}.}.}.}.}.}.}.}.}.}.}.}.}.}.}.}.",
"}.}.}.}.}.}.}.}.}.}.}.}.}.}.}.}.K =.D 1.H 4 1 ^ # Q }.}.}.}.}.}.}.}.}.}.}.}.}.}.}.}.}.}.}.}.}.}.",
"}.}.}.}.}.}.}.}.}.}.}.}.}.}.}.}.! ~ <.S.S.H 3 B.R &.}.}.}.}.}.}.}.}.}.}.}.}.}.}.}.}.}.}.}.}.}.}.",
"}.}.}.}.}.}.}.}.}.}.}.}.}.}.}.}.^ 2.c.E.^.'.G.~.6.}.}.}.}.}.}.}.}.}.}.}.}.}.}.}.}.}.}.}.}.}.}.}.",
"}.}.}.}.}.}.}.}.}.}.}.}.}.O o . ( h.>.P.H.r.z.Y.C.}.}.}.}.x 0 $   X }.}.}.        O   O     }.}.",
"}.}.}.}.}.}.}.}.}.}.}.      - 8 $.).>.v.R.k.r.J.6.M.}.}.%.$ w $ O o O   O     X         X   }.}.",
"}.}.}.}.}.}.}.}.}.}.    o N e : q ).h.y.H.R.R.'.^ G }.}.f.  $ & % % % o X O o               }.}.",
"}.}.}.}.}.}.}.}.}.}.  O C N Z f 5 i.[.q.7.F.'.T.;.1 @.y.f.y.q q & . }.}.}.}.}.}.}.}.}.}.}.}.}.}.",
"}.}.}.}.}.}.}.}.}.}.  - M [ B d Y f A.{.V.w.3.D.J A ;.T.T.L.!.!.( +.}.}.}.}.}.}.}.}.}.}.}.}.}.}.",
"}.}.}.}.}.}.}.}.}.}.  * Z M Z j w f $ W Y r P I @.U l.K.K.c.P.c.J.}.}.}.}.}.}.}.}.}.}.}.}.}.}.}.",
"}.}.}.}.}.}.}.}.}.}.  * M V Z j z z c - k | T 6 N.`.e.F.d.k.r.r.J.g.}.}.}.}.}.}.}.}.}.}.}.}.}.}.",
"}.}.}.}.}.}.}.}.}.}.  O N m M M z N V M | p | p m.W.3.D.0.j.b.x.K.s.}.}.}.}.}.}.}.}.}.}.}.}.}.}.",
"}.}.}.}.}.}.}.}.}.}.}.  s d c M W B N Z V ` X.p Z.:.2 e.p.8.8.0.1.4.}.}.}.}.}.}.}.}.}.}.}.}.}.}.",
"}.}.}.}.}.}.}.}.}.}.}.  > , j l c c B M h ` n i n.l + :.U.F.l.<.5.}.}.}.}.}.}.}.}.}.}.}.}.}.}.}.",
"}.}.}.}.}.}.}.}.}.}.}.* O - s c e e d d h * X i < X ; P m.I O.}.}.}.}.}.}.}.}.}.}.}.}.}.}.}.}.}.",
"}.}.}.}.}.}.}.}.}.}.}.o o , > - % & % @ g - s - * p < ; 6 +  .}.}.}.}.}.}.}.}.}.}.}.}.}.}.}.}.}.",
"}.}.}.}.}.}.}.}.}.}.}.o o , , , < 8 k M Z 8 M V b o V = Y 8 p }.}.}.}.}.}.}.}.}.}.}.}.}.}.}.}.}.",
"}.}.}.}.}.}.}.}.}.}.}.o - s p s h b C | ' > - }.}.d ; . . o }.}.}.}.}.}.}.}.}.}.}.}.}.}.}.}.}.}.",
"}.}.}.}.}.}.}.}.}.}.}.o - s 0 s g m b m Z g > }.}.}.}.. }.}.}.}.}.}.}.}.}.}.}.}.}.}.}.}.}.}.}.}.",
"}.}.}.}.}.}.}.}.}.}.}.X - d , > b ] ' b M a - }.}.}.}.}.}.}.}.}.}.}.}.}.}.}.}.}.}.}.}.}.}.}.}.}.",
"}.}.}.}.}.}.}.}.}.}.}.  , g s , a M ] N C g o }.}.}.}.}.}.}.}.}.}.}.}.}.}.}.}.}.}.}.}.}.}.}.}.}.",
"}.}.}.}.}.}.}.}.}.}.O O d 0 s s j c B B z M s }.}.}.}.}.}.}.}.}.}.}.}.}.}.}.}.}.}.}.}.}.}.}.}.}.",
"}.}.}.}.}.}.}.}.}.}.o   s * < w c c B B - m x }.}.}.}.}.}.}.}.}.}.}.}.}.}.}.}.}.}.}.}.}.}.}.}.}.",
"}.}.}.}.}.}.}.}.}.}.o , , h s 0 M Z } j , g > }.}.}.}.}.}.}.}.}.}.}.}.}.}.}.}.}.}.}.}.}.}.}.}.}.",
"}.}.}.}.}.}.}.}.}.}.  > j s j Z [ Z [ d @ s o }.}.}.}.}.}.}.}.}.}.}.}.}.}.}.}.}.}.}.}.}.}.}.}.}.",
"}.}.}.}.}.}.}.}.}.}.O   s d d [ M j d u > >   }.}.}.}.}.}.}.}.}.}.}.}.}.}.}.}.}.}.}.}.}.}.}.}.}.",
"}.}.}.}.}.}.}.}.}.}.}.  a j s u , % w > , d o }.}.}.}.}.}.}.}.}.}.}.}.}.}.}.}.}.}.}.}.}.}.}.}.}.",
"}.}.}.}.}.}.}.}.}.}.}.O w } j d g , @ u g - - }.}.}.}.}.}.}.}.}.}.}.}.}.}.}.}.}.}.}.}.}.}.}.}.}.",
"}.}.}.}.}.}.}.}.}.}.}.  - g M j N j - - s - w }.}.}.}.}.}.}.}.}.}.}.}.}.}.}.}.}.}.}.}.}.}.}.}.}.",
"}.}.}.}.}.}.}.}.}.}.}.  o u c Z M M M   d o o }.}.}.}.}.}.}.}.}.}.}.}.}.}.}.}.}.}.}.}.}.}.}.}.}.",
"}.}.}.}.}.}.}.O   O }.o O , Z M j C N - g - }.}.}.}.}.}.}.}.}.}.}.}.}.}.}.}.}.}.}.}.}.}.}.}.}.}.",
"}.}.}.}.}.}.}.o o O o o s , s M l b Z N s * }.}.}.}.}.}.}.}.}.}.}.}.}.}.}.}.}.}.}.}.}.}.}.}.}.}.",
"}.}.}.}.}.}.X O     o - s s g g W M Z } j   }.}.}.}.}.}.}.}.}.}.}.}.}.}.}.}.}.}.}.}.}.}.}.}.}.}.",
"}.}.}.}.}.o O X X o O o g M c d g | o.C u > }.}.}.}.}.}.}.}.}.}.}.}.}.}.}.}.}.}.}.}.}.}.}.}.}.}.",
"}.}.}.}.  o o O o   o   > M g f s N M j - @ }.}.}.}.}.}.}.}.}.}.}.}.}.}.}.}.}.}.}.}.}.}.}.}.}.}.",
"}.}.}.}.  O   }.}.}.}.  - , M N V N > f > }.}.}.}.}.}.}.}.}.}.}.}.}.}.}.}.}.}.}.}.}.}.}.}.}.}.}.",
"}.}.}.}.}.}.}.}.}.}.}.X o o - g p , s o - }.}.}.}.}.}.}.}.}.}.}.}.}.}.}.}.}.}.}.}.}.}.}.}.}.}.}.",
"}.}.}.}.}.}.}.}.}.}.}.}.}.}.> > > > o X }.}.}.}.}.}.}.}.}.}.}.}.}.}.}.}.}.}.}.}.}.}.}.}.}.}.}.}.",
"}.}.}.}.}.}.}.}.}.}.}.}.}.}.O % f g , @ }.}.}.}.}.}.}.}.}.}.}.}.}.}.}.}.}.}.}.}.}.}.}.}.}.}.}.}.",
"}.}.}.}.}.}.}.}.}.}.}.}.}.O O * M o - o }.}.}.}.}.}.}.}.}.}.}.}.}.}.}.}.}.}.}.}.}.}.}.}.}.}.}.}.",
"}.}.}.}.}.}.}.}.}.}.}.}.}.o o V V % o   }.}.}.}.}.}.}.}.}.}.}.}.}.}.}.}.}.}.}.}.}.}.}.}.}.}.}.}.",
"}.}.}.}.}.}.}.}.}.}.}.}.  O * M } o o }.}.}.}.}.}.}.}.}.}.}.}.}.}.}.}.}.}.}.}.}.}.}.}.}.}.}.}.}.",
"}.}.}.}.}.}.}.}.}.}.}.}.  % o ' o o o }.}.}.}.}.}.}.}.}.}.}.}.}.}.}.}.}.}.}.}.}.}.}.}.}.}.}.}.}.",
"}.}.}.}.}.}.}.}.}.}.}.}.  X C Z o -   }.}.}.}.}.}.}.}.}.}.}.}.}.}.}.}.}.}.}.}.}.}.}.}.}.}.}.}.}.",
"}.}.}.}.}.}.}.}.}.}.}.  O - B o o - }.}.}.}.}.}.}.}.}.}.}.}.}.}.}.}.}.}.}.}.}.}.}.}.}.}.}.}.}.}.",
"}.}.}.}.}.}.}.}.}.}.}.  o * N o o o }.}.}.}.}.}.}.}.}.}.}.}.}.}.}.}.}.}.}.}.}.}.}.}.}.}.}.}.}.}.",
"}.}.}.}.}.}.}.}.}.}.}.  o O o X   }.}.}.}.}.}.}.}.}.}.}.}.}.}.}.}.}.}.}.}.}.}.}.}.}.}.}.}.}.}.}.",
"}.}.}.}.}.}.}.}.}.}.}.    g   O o }.}.}.}.}.}.}.}.}.}.}.}.}.}.}.}.}.}.}.}.}.}.}.}.}.}.}.}.}.}.}.",
"}.}.}.}.}.}.}.}.}.}.}.  o > o o }.}.}.}.}.}.}.}.}.}.}.}.}.}.}.}.}.}.}.}.}.}.}.}.}.}.}.}.}.}.}.}.",
"}.}.}.}.}.}.}.}.}.}.}.  * ,   O   }.}.}.}.}.}.}.}.}.}.}.}.}.}.}.}.}.}.}.}.}.}.}.}.}.}.}.}.}.}.}.",
"}.}.}.}.}.}.}.}.}.}.  O   o o     o }.}.}.}.}.}.}.}.}.}.}.}.}.}.}.}.}.}.}.}.}.}.}.}.}.}.}.}.}.}.",
"}.}.}.}.}.}.}.}.}.}.}.O     o   o   }.}.}.}.}.}.}.}.}.}.}.}.}.}.}.}.}.}.}.}.}.}.}.}.}.}.}.}.}.}.",
"}.}.}.}.}.}.}.}.}.}.}.}.}.}.}.}.}.}.}.}.}.}.}.}.}.}.}.}.}.}.}.}.}.}.}.}.}.}.}.}.}.}.}.}.}.}.}.}.",
"}.}.}.}.}.}.}.}.}.}.}.}.}.}.}.}.}.}.}.}.}.}.}.}.}.}.}.}.}.}.}.}.}.}.}.}.}.}.}.}.}.}.}.}.}.}.}.}.",
"}.}.}.}.}.}.}.}.}.}.}.}.}.}.}.}.}.}.}.}.}.}.}.}.}.}.}.}.}.}.}.}.}.}.}.}.}.}.}.}.}.}.}.}.}.}.}.}."
};
