/* XPM */
static char *cd6301ca236a498df32ab34f9cd3b38fIHIKXcEfYLi52b5C[] = {
/* columns rows colors chars-per-pixel */
"64 64 187 2 ",
"   c #ADD8E6",
".  c #010401",
"X  c #080604",
"o  c #020B01",
"O  c #0A0B05",
"+  c #090709",
"@  c #010D09",
"#  c #0C0B0A",
"$  c #120200",
"%  c #130B00",
"&  c #100F0C",
"*  c #041304",
"=  c #0A1504",
"-  c #011803",
";  c #0B1A07",
":  c #0C120B",
">  c #161709",
",  c #13130E",
"<  c #110F12",
"1  c #180F14",
"2  c #041010",
"3  c #141413",
"4  c #191514",
"5  c #141B13",
"6  c #1B1C16",
"7  c #17141B",
"8  c #1C151E",
"9  c #121A19",
"0  c #1C1C1B",
"q  c #260100",
"w  c #241502",
"e  c #2E1600",
"r  c #281B0C",
"t  c #3A1600",
"y  c #331C03",
"u  c #231C14",
"i  c #20161F",
"p  c #221D1D",
"a  c #1D2708",
"s  c #102510",
"d  c #1C2214",
"f  c #1C221C",
"g  c #23250D",
"h  c #3B2005",
"j  c #33240A",
"k  c #3C280F",
"l  c #22221D",
"z  c #2E2118",
"x  c #25291A",
"c  c #362414",
"v  c #3C2C11",
"b  c #312019",
"n  c #372C18",
"m  c #3B2B1C",
"M  c #293318",
"N  c #1F1E21",
"B  c #241D22",
"V  c #281F20",
"C  c #1D2321",
"Z  c #242423",
"A  c #292625",
"S  c #242923",
"D  c #292A25",
"F  c #262529",
"G  c #2B252B",
"H  c #232B2C",
"J  c #2C2C2B",
"K  c #312D25",
"L  c #312E2C",
"P  c #293325",
"I  c #2C312C",
"U  c #3E3B24",
"Y  c #32322C",
"T  c #3A3128",
"R  c #2E2F31",
"E  c #312F32",
"W  c #382F32",
"Q  c #2F3336",
"!  c #2F3739",
"~  c #343333",
"^  c #3A3534",
"/  c #373835",
"(  c #3A3A36",
")  c #353539",
"_  c #3A3639",
"`  c #353A3D",
"'  c gray23",
"]  c #4E2F1D",
"[  c #423218",
"{  c #5E3016",
"}  c #55341A",
"|  c #5F371E",
" . c #473821",
".. c #4A3B26",
"X. c #43342B",
"o. c #503F2B",
"O. c #483E35",
"+. c #423D3E",
"@. c #58422A",
"#. c #44423E",
"$. c #554638",
"%. c #5A583F",
"&. c #6B492C",
"*. c #71452A",
"=. c #6B4A31",
"-. c #654A39",
";. c #6A4D38",
":. c #76533F",
">. c #7B563D",
",. c #3B3D40",
"<. c #413F44",
"1. c #434344",
"2. c #484347",
"3. c #49434D",
"4. c #484A49",
"5. c #564744",
"6. c #565246",
"7. c #4C4D51",
"8. c #7B5B46",
"9. c #665E53",
"0. c #62664D",
"q. c #71624F",
"w. c #766657",
"e. c #7C6C52",
"r. c #82593D",
"t. c #81634B",
"y. c #94664C",
"u. c #9B6C52",
"i. c #877351",
"p. c #8C7357",
"a. c #967157",
"s. c #9F7253",
"d. c #A57758",
"f. c #8F7365",
"g. c #A27C65",
"h. c #B8845F",
"j. c #9B8361",
"k. c #9B836C",
"l. c #8D897A",
"z. c #958973",
"x. c #A98366",
"c. c #A28468",
"v. c #AE856F",
"b. c #B68567",
"n. c #BF8466",
"m. c #B98867",
"M. c #B1866C",
"N. c #BB8E6F",
"B. c #A78874",
"V. c #A18C74",
"C. c #B28A71",
"Z. c #B48E79",
"A. c #BF9373",
"S. c #B29A7A",
"D. c #C38161",
"F. c #C78D67",
"G. c #D3936F",
"H. c #C58F73",
"J. c #C99775",
"K. c #C4947C",
"L. c #C19878",
"P. c #D29575",
"I. c #D59878",
"U. c #DCA07C",
"Y. c #A19680",
"T. c #AF9F85",
"R. c #B49382",
"E. c #B4A28E",
"W. c #B7A799",
"Q. c #DD9D81",
"!. c #C1A188",
"~. c #D6A488",
"^. c #D5A78F",
"/. c #DEAD92",
"(. c #CBB09D",
"). c #E7A584",
"_. c #E1AC8C",
"`. c #E3AF97",
"'. c #E3B599",
"]. c #EDBB9C",
"[. c #C4B7A7",
"{. c #DBBDA1",
"}. c #E3BBA5",
"|. c #E5BFAC",
" X c #E5C2AB",
".X c #E6C7B5",
"XX c #E5CBBB",
/* pixels */
"                                                                                                                                ",
"                                                                                                                                ",
"                                                                                                                                ",
"                                                                                                                                ",
"                                                                                                                                ",
"                                                                                                                                ",
"                                                                                                                                ",
"                                                          = a M                                                                 ",
"                                                        j [ v  .n                                                               ",
"                                                    % [ =.>.8.;.-.                                                              ",
"                                                  X v } >.^.}.|.R.z.                                                            ",
"                                                  % k =.r.K.K. X.XY.                                                            ",
"                                                  U @.} y.u.| =.V.%.                                                            ",
"                                                P 6.;.&.u.{ q h ..g                                                             ",
"                                              * Y ..t.C.`./.a.k.z.0.                                                            ",
"                                            @ @ O m B.M./.].^.{.T.l.      s - o o o o o . . o o o     *                         ",
"                                        @ @ 2 9 , $.(.x.~._.m.L.S.e.      x d O : : 3 + # 6 : 5 ; ; = * o                       ",
"                                      . o 9 H Q 0 T W.!.d._.].'.C.y w E.m c r % > , 3 4 # . # O O = = * o                       ",
"                                      . @ Z ` ' D K w.XXg.v.}. Xk.e t g.Z.:.] c $ O . o . o o                                   ",
"                                      . O S / ~ J D O.W.XXB.f.k.q.y *.I.~.'.^.Z.] w                                             ",
"                                      o O S / ~ Y l l ^ 5.X.b z 9.$.s.U.).).Q.H.C.v                                             ",
"                                      . O 6 Y ^ / J ~ E _ W +.L 6.[.M.F.G.G.D.n.A.S.                                            ",
"                                      . O , A L / ' ` ,.` ,.<.L 4.W.t.J.h.P.P.J.A.j.                                            ",
"                                        O O p G J Q ! ) ` ` ) J 7.l.j &.x.N.b.d.r.i.                                            ",
"                                        . # 1 G F F H C S C Z N ) L % o.V.k.p.c.p.                                              ",
"                                        . # i B 7 0 f f 5 6 0 J F 0 u u X.r                                                     ",
"                                        . + i 8 8 F C S D Y Y ( # B V p K >                                                     ",
"                                        . + B F F Z S J ' #.L 6 O # p A S *                                                     ",
"                                        . # 0 0 F 0 J / ' #.6 X   O X .                                                         ",
"                                        . O 4 , l Z R 1.2._ 4 # P                                                               ",
"                                        . O u l f 6 ) 1.3.G 0 O o                                                               ",
"                                      . O , 6 l f Z ` <.) G Z O P                                                               ",
"                                      . # 6 0 l Z ' ) ~ ) 4 I O =                                                               ",
"                                      . # 0 Z J R 1.' ' Z 6 I : =                                                               ",
"                                      . # 4 Z ' 1./ ' ' 6 6 6 o X                                                               ",
"                                        . , Z Z J J 4 0 Z J 5 : o                                                               ",
"                                        . 6 ( ~ ~ ~ 0 + 0 / ' ( O o                                                             ",
"                                        X 3 ~ / ( ~ X X 4 / 1.' Y X o                                                           ",
"                                        o 5 ' ~ ~ J # < + 0 / ( 2.f .                                                           ",
"                                        . . J / ( J + < + # J ' 2.~ * o                                                         ",
"                                        . O J ( ( J # # . . N J _ 1.Z .                                                         ",
"                                        . O Y ~ L A + X   # + 8 _ ( Y o                                                         ",
"                                      . O : J ~ L Z .     . + 8 J J J .                                                         ",
"                                      . , 3 A Y L 4 .     . 0 F / ' l o                                                         ",
"                                    O . 3 J _ ( ~ p X     . 3 Z ( ( l .                                                         ",
"                                    . # Z +.+.( p .     + + N ~ ` / X .                                                         ",
"                                    X 4 A _ +.' 4 .     . + F ~ ( ( & o                                                         ",
"                                  o . 0 ~ ' / Z .       . 4 A / ,.Z O .                                                         ",
"                                  o 3 F ( / ~ 0 .       . 0 J ( _ J .                                                           ",
"                                  X 3 J ( #.J O O     O . , L +._ p o                                                           ",
"                                . & Z ~ ' Z 3 .       . # D J ~ Z & .                                                           ",
"                                + # 3 0 Z l O .       . O # 3 Z 3 O o                                                           ",
"                                + 3 0 4 Z 3 . .       . O l D Z D o o o                                                         ",
"                                + # # , D f : . .     . O O : : 5 : o o                                                         ",
"                                . : O . . o o o .     . . o . o . . o                                                           ",
"                                          o                                                                                     ",
"                                                                                                                                ",
"                                                                                                                                ",
"                                                                                                                                ",
"                                                                                                                                ",
"                                                                                                                                ",
"                                                                                                                                ",
"                                                                                                                                ",
"                                                                                                                                "
};
