/* XPM */
static char *_d1bae2596e74205f56bca9463a00805tcUcMgkvovXmYr0A[] = {
/* columns rows colors chars-per-pixel */
"64 64 193 2 ",
"   c None",
".  c #020203",
"X  c #0C0201",
"o  c #0A0A06",
"O  c #06060A",
"+  c #090408",
"@  c #0C0C0B",
"#  c #110B03",
"$  c #140C0B",
"%  c #0C100E",
"&  c #12120E",
"*  c #0D0E11",
"=  c #0F1012",
"-  c #141415",
";  c #1A1213",
":  c #1B1915",
">  c #161719",
",  c #1B1619",
"<  c #17191A",
"1  c #1B1C1C",
"2  c #141817",
"3  c #2C0300",
"4  c #230A05",
"5  c #360600",
"6  c #241002",
"7  c #2C180A",
"8  c #3A1403",
"9  c #231914",
"0  c #221D1C",
"q  c #281814",
"w  c #3A1E16",
"e  c #23201D",
"r  c #292219",
"t  c #34241B",
"y  c #312015",
"u  c #1E1F21",
"i  c #1E2224",
"p  c #232324",
"a  c #2A2624",
"s  c #2B2926",
"d  c #252629",
"f  c #26292B",
"g  c #2B2B2C",
"h  c #2C272B",
"j  c #332E2C",
"k  c #352A23",
"l  c #35312D",
"z  c #39332E",
"x  c #252D32",
"c  c #2D2E31",
"v  c #302F32",
"b  c #2E3233",
"n  c #2E383C",
"m  c #343434",
"M  c #3B3634",
"N  c #3C3A35",
"B  c #353639",
"V  c #35393C",
"C  c #3B3B3B",
"Z  c #39373B",
"A  c #532004",
"S  c #422617",
"D  c #4D3019",
"F  c #633C1E",
"G  c #432C21",
"H  c #473529",
"J  c #4B3628",
"K  c #523521",
"L  c #5A3B26",
"P  c #543B2C",
"I  c #413A34",
"U  c #423E3C",
"Y  c #43423D",
"T  c #4A4439",
"R  c #5D4D3C",
"E  c #57463B",
"W  c #68452C",
"Q  c #73462B",
"!  c #7A4E2F",
"~  c #654535",
"^  c #694838",
"/  c #7A4F30",
"(  c #7A5236",
")  c #333C42",
"_  c #3C3D40",
"`  c #3C4143",
"'  c #434344",
"]  c #43464A",
"[  c #4B4B4C",
"{  c #44484C",
"}  c #584B41",
"|  c #4D504A",
" . c #4E4E50",
".. c #475157",
"X. c #4D5054",
"o. c #535353",
"O. c #595452",
"+. c #575759",
"@. c #59595A",
"#. c #634B40",
"$. c #6D594B",
"%. c #725443",
"&. c #71564B",
"*. c #695750",
"=. c #7B5954",
"-. c #79634C",
";. c #6D6355",
":. c #7A6556",
">. c #6B6B6C",
",. c #696964",
"<. c #6A6B70",
"1. c #717172",
"2. c #797778",
"3. c #7A7A7B",
"4. c #7D7774",
"5. c #895A33",
"6. c #88604A",
"7. c #8E6140",
"8. c #996C4A",
"9. c #956745",
"0. c #886B57",
"q. c #9D6F5A",
"w. c #8A725B",
"e. c #9A7451",
"r. c #A57C5D",
"t. c #856F61",
"y. c #877769",
"u. c #957360",
"i. c #997A67",
"p. c #837C77",
"a. c #A47A63",
"s. c #A57D6B",
"d. c #A47E72",
"f. c #84807B",
"g. c #978879",
"h. c #AB8367",
"j. c #B3846B",
"k. c #B28C69",
"l. c #A58579",
"z. c #B38F7C",
"x. c #B88B78",
"c. c #AD927C",
"v. c #BA997B",
"b. c #B49679",
"n. c #C68E73",
"m. c #CA9175",
"M. c #C79D77",
"N. c #C3957B",
"B. c #C69775",
"V. c #CAA076",
"C. c #D2A97E",
"Z. c #828284",
"A. c #9A8987",
"S. c #A59689",
"D. c #B69B8D",
"F. c #B69482",
"G. c #BCA28A",
"H. c #BCAD9C",
"J. c #B3A79B",
"K. c #AEA5A0",
"L. c #B3AAA5",
"P. c #C49983",
"I. c #CA9983",
"U. c #C69B86",
"Y. c #CEA087",
"T. c #CDA18B",
"R. c #C9A88D",
"E. c #DEB48A",
"W. c #CAA992",
"Q. c #DEAC95",
"!. c #D5AB9B",
"~. c #DEB097",
"^. c #D4B19B",
"/. c #DCBB9C",
"(. c #E2B393",
"). c #E4BE9F",
"_. c #CDAFA3",
"`. c #C5B2A4",
"'. c #C7B6A8",
"]. c #D2B5A5",
"[. c #D6B7A8",
"{. c #D9BCB4",
"}. c #E5BCA6",
"|. c #EBC298",
" X c #D3C5BC",
".X c #E6C5A7",
"XX c #EBC8A7",
"oX c #F9CCA5",
"OX c #EACAB4",
"+X c #F4CCB7",
"@X c #EDD2BE",
"#X c #FFDDC7",
"$X c #F1DCC7",
/* pixels */
"                                                                                                                                ",
"                                                                                                                                ",
"                                                                                                                                ",
"                                                                                                                                ",
"                                                                                                                                ",
"                                                                                                                                ",
"                                            y.w.%.&.G P R                                                                       ",
"                                          E K K ~ ~ ^ S $.J.                                                                    ",
"                                        P L W a.}.+XOX^.].'.                                                                    ",
"                                        P W ! j.Y.h.}.#X@XH.                                                                    ",
"                                        ( F / 8.9.Q Q i.F.:.                                                                    ",
"                                    A.S.-.F 7.5.A 5 3 8 D H                                                                     ",
"                                        w.k.C.oX(.8.e.z.D.y.                                                                    ",
"                                p.} G #.i.h.V.E.E.E.XXR.G.H.                                                                    ",
"                          | p . # $ t g.].8.M.|.M.r.v.W.].H.        c C h $ + $ s B 1 @ . . O * @ . . O O O                     ",
"                        % o a U z k q t.OXv.e.b..X.X/.^.w.7       K.$ X 0 ; 0 , + O - @ O O . . . . . . . .                     ",
"                        o m N M Y l 0 I S.$Xc.-.G.[.    g.X L N.^.c.:.w 4 9 ; o.                                                ",
"                        o r M N N N s # T '.    `.y.g.g.R 6 H b.).Y.T.!.[.D.*.                                                  ",
"                        & : C Y j N s 0 r k E } N z 9 T ;.$.0.P.Q.P.P.(.~.d.                                                    ",
"                        s @ d C l N b m N M z m m l g B f. XD.F.I.m.m.j.q.x._.                                                  ",
"                        +.& & l l N m m N I M C ] ` d i >.L.;.s.P.a.n.n.N.U.l.                                                  ",
"                        4.: @ g d a l N M M C C V V x ) 2.g.; 6 6.I.Q.n.s.l.i.                                                  ",
"                          . @ < 1 : d g s j k r d c @ f ` 0 9 7 %.z.0.u.[.{.                                                    ",
"                          d 1 - - - 1 0 0 0 9 0 e - 1 p 0 9 t q t G 3 =.A.                                                      ",
"                          C d - u 1 > 1 m U M M j 0 j U a $ r q y H q                                                           ",
"                          C f 1 d i d g B ] ' ' C 0 j     O.@ $ & @ U                                                           ",
"                          1 1 1 p < p f x ` ` _ g p >.                                                                          ",
"                          . - u > - = - f ) V ` b - o.                                                                          ",
"                        1.> - b i u - 1 b n ..] f d g                                                                           ",
"                        C - - u > > u f B ` ` b u g <.                                                                          ",
"                        1 1 1 i i < c ` ` B C m < 1 >.                                                                          ",
"                        * < f c d d _ { ` I M 1 - f B                                                                           ",
"                        c O @ g B B [ [ V g s f < @ f                                                                           ",
"                        +.* O d p = 1 p - o - d - O >.                                                                          ",
"                        ] 1 g X.' a m c - & - d 1 .                                                                             ",
"                        Z.c 1 B m B C c d p < g m &                                                                             ",
"                          p m m d g m Z B g - 1 1 .                                                                             ",
"                u . g 3.3.g * 1 s B N N C C m 0 - -                                                                             ",
"              v = [ m . @ - > < 1 p m C M c N s 1 g                                                                             ",
"          1 u B +.m - u g f j a > p f m C C C C N d                                                                             ",
"        @.> @ g * < p a l m C C g @ & p g m m C c O                                                                             ",
"        c g C '     d d p m C N c 1 - > 1 1 p d 1 > d                                                                           ",
"                    3.o.. O - d m g < - 1 1 0 0 u 1 -                                                                           ",
"                            @.O.l s 2 @ - p d > 1 m @ ' 1.                                                                      ",
"                                          - 1 b ` N g d 1                                                                       ",
"                                          ' d p _ ' Y e O                                                                       ",
"                                            . 1 Y C C g -                                                                       ",
"                                            . u B p ' d d o.                                                                    ",
"                                            < p f B C f f m                                                                     ",
"                                            [ c - C C m C B                                                                     ",
"                                            1.C . g C - @ b                                                                     ",
"                                                ' O . @ < d v O - '                                                             ",
"                                                  o 1 m m p @ - <                                                               ",
"                                                  p 1 - O < +.                                                                  ",
"                                                   .@ m ,.                                                                      ",
"                                                                                                                                ",
"                                                                                                                                ",
"                                                                                                                                ",
"                                                                                                                                ",
"                                                                                                                                ",
"                                                                                                                                ",
"                                                                                                                                ",
"                                                                                                                                ",
"                                                                                                                                "
};
