/* XPM */
static char *result[] = {
/* columns rows colors chars-per-pixel */
"32 32 147 2 ",
"   c #151314",
".  c #191616",
"X  c #1D1B17",
"o  c #151818",
"O  c #1C1C1D",
"+  c #210F05",
"@  c #26130E",
"#  c #30150A",
"$  c #281B16",
"%  c #211E1E",
"&  c #381F16",
"*  c #21201F",
"=  c #3D231A",
"-  c #1F1F21",
";  c #201F20",
":  c #1C2122",
">  c #242324",
",  c #292626",
"<  c #232827",
"1  c #2E2A25",
"2  c #252729",
"3  c #282728",
"4  c #26292B",
"5  c #2B2A2A",
"6  c #302D2D",
"7  c #393024",
"8  c #34312E",
"9  c #38312B",
"0  c #272F31",
"q  c #302F30",
"w  c #2D3134",
"e  c #2D353A",
"r  c #333333",
"t  c #393531",
"y  c #393936",
"u  c #353738",
"i  c #35393B",
"p  c #3B3B3B",
"a  c #4E3A2A",
"s  c #593427",
"d  c #483C37",
"f  c #5A4A3F",
"g  c #664231",
"h  c #6B473B",
"j  c #71473E",
"k  c #393E40",
"l  c #3A4246",
"z  c #3E474B",
"x  c #3F4C51",
"c  c #464D4B",
"v  c #504C45",
"b  c #424D52",
"n  c #445154",
"m  c #48575E",
"M  c #4B585F",
"N  c #654F42",
"B  c #6A4E47",
"V  c #6F5244",
"C  c #785340",
"Z  c #6D5855",
"A  c #785E54",
"S  c #725C52",
"D  c #7D635F",
"F  c #7D6859",
"G  c #566B72",
"H  c #596C73",
"J  c #5B7176",
"K  c #5F737A",
"L  c #706967",
"P  c #637376",
"I  c #63757B",
"U  c #66787C",
"Y  c #7C7273",
"T  c #89543C",
"R  c #83513C",
"E  c #90533E",
"W  c #865F4B",
"Q  c #89624A",
"!  c #85624C",
"~  c #96745B",
"^  c #B07455",
"/  c #837364",
"(  c #9C7D65",
")  c #8B7F73",
"_  c #837E75",
"`  c #9C7D72",
"'  c #A87960",
"]  c #AF7F6A",
"[  c #8D847B",
"{  c #9A8775",
"}  c #B38166",
"|  c #BA896C",
" . c #B3866B",
".. c #A48474",
"X. c #B8927C",
"o. c #B4917D",
"O. c #B68578",
"+. c #CF936F",
"@. c #CE9574",
"#. c #CC967A",
"$. c #C59B7E",
"%. c #D19977",
"&. c #627981",
"*. c #6A7E85",
"=. c #747D81",
"-. c #728D96",
";. c #79959F",
":. c #7896A0",
">. c #7C9AA3",
",. c #929C9A",
"<. c #BF9E84",
"1. c #A29C99",
"2. c #B1A69A",
"3. c #839DA5",
"4. c #809FA9",
"5. c #84A2AB",
"6. c #9CA4A2",
"7. c #87A9B3",
"8. c #98AEB7",
"9. c #95ADB5",
"0. c #95B0B7",
"q. c #9DB3B8",
"w. c #A1A6A5",
"e. c #B6ACA1",
"r. c #AAB0AD",
"t. c #C99987",
"y. c #CEA183",
"u. c #D7A187",
"i. c #DDAA8A",
"p. c #C2A790",
"a. c #D0AE98",
"s. c #C2B1A4",
"d. c #96BAC6",
"f. c #97BCC8",
"g. c #99BDCA",
"h. c #9CC2CE",
"j. c #9EC4D1",
"k. c #A3C5CE",
"l. c #A2C7D3",
"z. c #A3C9D5",
"x. c #A5CEDB",
"c. c #A7D0DE",
"v. c #AAD1DD",
"b. c #ACD7E5",
"n. c #ADD8E6",
"m. c #AEDAE8",
"M. c #B0DCEA",
/* pixels */
"n.n.n.n.n.n.n.n.n.n.n.n.n.n.n.n.n.n.n.n.n.n.n.n.n.n.n.n.n.n.n.n.",
"n.n.n.n.n.n.n.n.n.n.v.z.z.z.n.n.n.n.n.n.n.n.n.n.n.n.n.n.n.n.n.n.",
"n.n.n.n.n.n.n.n.n.8.Y D A S q.n.n.n.n.n.n.n.n.n.n.n.n.n.n.n.n.n.",
"n.n.n.n.n.n.n.n.z.Z j O.t.X.r.m.n.n.n.n.n.n.n.n.n.n.n.n.n.n.n.n.",
"n.n.n.n.n.n.n.m.k.V R E W ~ 6.m.n.n.n.n.n.b.n.n.m.m.n.n.b.n.n.n.",
"n.n.n.b.n.n.m.0._ Q } ^ T W ,.m.n.m.M.M.m.M.c.l.j.j.z.n.n.b.n.n.",
"n.n.n.n.n.5.P 9 a ( $.i.#.o.w.m.9.=.I P U P n 0 e u 0 U c.n.n.n.",
"n.n.m.m.>.< 1 1 7 { p.t.a...B 1.` s # + c J J J G J G ;.b.n.n.n.",
"n.n.n.m.>.> u y 1 v ) / ! F h ] u.#.' [ z.m.m.m.m.m.m.m.m.n.n.n.",
"n.n.n.n.j.4 < w i i y t 9 v { } @.%.%.s.n.n.n.n.n.m.n.n.n.n.n.n.",
"n.n.n.m.l.w O 4 w u w i 6 d N C } | | 2.v.m.n.n.n.n.n.n.n.n.n.n.",
"n.n.n.n.n.G   % - > < 2 - , $ = g Q 2.v.n.n.n.n.n.n.n.n.n.n.n.n.",
"n.b.n.b.M.P   % - 2 r r > b 5 @ = L v.b.b.n.n.n.n.n.n.n.n.n.n.n.",
"n.n.n.n.n.H . % % r y r w d.g.*.3.c.n.b.n.n.n.n.n.n.b.n.n.n.n.n.",
"n.n.n.m.l.w X % % 9 p 1 w j.m.m.n.n.b.n.n.n.n.n.n.n.n.n.n.n.n.n.",
"n.n.n.n.h.5 % > 5 p 9 , u j.n.b.n.n.n.n.n.n.n.n.n.n.n.n.n.n.n.n.",
"m.b.b.m.g.2 % , 8 r 1 . < h.n.n.n.n.n.n.n.n.n.n.n.n.n.n.n.n.n.n.",
"b.b.m.m.l.2 % 6 5 : . - < h.n.n.n.n.n.n.b.n.n.n.n.n.n.n.n.n.n.b.",
"b.b.b.j.g.z ; q 8 5 - - n x.n.n.n.n.n.n.n.n.n.n.n.n.n.n.n.n.n.n.",
"m.c.:.0 u 2 . 2 u p w O &.M.b.n.n.n.n.n.n.n.n.n.n.n.n.n.n.n.n.n.",
"x.m ; ;   2 3 ; 2 q p 2 K m.n.n.n.n.n.n.n.n.n.n.n.n.n.n.n.n.n.n.",
"g.e M *.w 2 u 3 > - 2 2 2 5.m.n.n.n.n.n.n.n.n.n.n.n.n.n.n.n.n.n.",
"b.g.c.M.4.G l i 0 o O 3 . G b.b.n.n.n.n.n.n.n.n.n.n.n.b.n.n.n.n.",
"m.m.m.m.m.m.j.h.j.-.- q r i g.b.n.n.n.n.n.n.n.n.n.n.n.n.n.n.n.n.",
"m.b.m.b.b.b.m.m.m.c.x 2 p 2 -.b.b.n.n.n.n.n.n.n.n.n.n.n.b.n.n.n.",
"m.b.b.b.m.b.b.b.n.m.J O p 6 I M.n.b.b.n.n.n.n.n.n.n.n.n.n.n.n.n.",
"b.b.m.m.b.m.m.b.n.m.>.: , , l >.x.n.n.n.n.n.n.n.n.n.n.n.n.n.n.n.",
"m.b.b.b.b.b.b.m.n.n.m.K   . % p 7.n.n.n.n.n.n.n.n.n.n.n.n.n.n.n.",
"b.b.m.b.m.m.b.m.n.n.n.f.w 4 I g.b.n.n.n.b.n.n.n.n.n.n.n.n.n.n.n.",
"m.m.b.b.b.b.b.b.n.n.n.b.h.h.n.n.n.b.n.n.n.n.n.n.n.n.n.n.n.n.n.n.",
"b.b.b.m.b.m.m.b.n.n.n.n.n.n.n.b.n.n.n.n.n.n.n.n.n.n.n.n.n.b.n.n.",
"b.m.b.m.b.b.m.b.n.n.n.n.n.n.n.n.n.n.n.n.n.n.n.n.n.n.n.n.n.n.n.n."
};
