/* XPM */
static char *result[] = {
/* columns rows colors chars-per-pixel */
"32 32 138 2 ",
"   c #0B0A0A",
".  c #151314",
"X  c #181516",
"o  c #1A1718",
"O  c #1D1B1C",
"+  c #250D04",
"@  c #21130E",
"#  c #2E1E15",
"$  c #201E1E",
"%  c #2D231E",
"&  c #3F2114",
"*  c #1F1E22",
"=  c #211F20",
"-  c #242324",
";  c #282627",
":  c #252629",
">  c #282728",
",  c #262A2D",
"<  c #2D2B2C",
"1  c #3E2D23",
"2  c #302E2E",
"3  c #3D3327",
"4  c #34312D",
"5  c #3C312B",
"6  c #2C2F33",
"7  c #2C3134",
"8  c #343333",
"9  c #383637",
"0  c #3B3934",
"q  c #333639",
"w  c #393738",
"e  c #35393C",
"r  c #3B3A3B",
"t  c #523729",
"y  c #423F33",
"u  c #6E3A23",
"i  c #7C482E",
"p  c #6E433D",
"a  c #6D4938",
"s  c #7E523B",
"d  c #7C5E3E",
"f  c #403F41",
"g  c #364348",
"h  c #3E494E",
"j  c #434B4F",
"k  c #424D52",
"l  c #455155",
"z  c #4F5857",
"x  c #485459",
"c  c #4A595E",
"v  c #6A5143",
"b  c #615248",
"n  c #7D5443",
"m  c #7C5D4D",
"M  c #6A5F59",
"N  c #7E6C54",
"B  c #4B5960",
"V  c #55666C",
"C  c #566B73",
"Z  c #5B6E76",
"A  c #5B6F78",
"S  c #5E737A",
"D  c #746960",
"F  c #60757D",
"G  c #6C777A",
"H  c #8C593D",
"J  c #815545",
"K  c #8D5E56",
"L  c #8F6949",
"P  c #966045",
"I  c #866557",
"U  c #8C6756",
"Y  c #8F6954",
"T  c #84635A",
"R  c #906A50",
"E  c #9B6D56",
"W  c #936B59",
"Q  c #866D64",
"!  c #947D62",
"~  c #877670",
"^  c #8E7F76",
"/  c #927F73",
"(  c #96857C",
")  c #A48069",
"_  c #B5876D",
"`  c #AD8876",
"'  c #B78970",
"]  c #B98D73",
"[  c #B38D7A",
"{  c #C99475",
"}  c #C0937A",
"|  c #CA997B",
" . c #657A82",
".. c #687D85",
"X. c #6B828A",
"o. c #6F8790",
"O. c #728E97",
"+. c #77939D",
"@. c #78949E",
"#. c #7D9AA4",
"$. c #8E8B86",
"%. c #869295",
"&. c #8E9190",
"*. c #939390",
"=. c #B29585",
"-. c #B59A8D",
";. c #BB9A8C",
":. c #83A2AC",
">. c #8AA3AA",
",. c #97A9AC",
"<. c #90B3BF",
"1. c #B3B1AD",
"2. c #C49C87",
"3. c #CB9E83",
"4. c #C49F89",
"5. c #CFA691",
"6. c #CCA498",
"7. c #D2A994",
"8. c #D2A59C",
"9. c #92B6C2",
"0. c #95BAC6",
"q. c #99BCC8",
"w. c #9CC3CF",
"e. c #9EC5D2",
"r. c #B3C3C6",
"t. c #B9C9CA",
"y. c #A1C7D3",
"u. c #A4C9D5",
"i. c #AACBD5",
"p. c #A5CDDB",
"a. c #ABCEDA",
"s. c #A7D0DD",
"d. c #AAD2DF",
"f. c #B0D1DB",
"g. c #ACD7E5",
"h. c #ADD8E6",
"j. c #AFDBE9",
"k. c #B0DCEA",
/* pixels */
"h.h.h.h.h.h.h.h.h.g.j.h.h.g.g.h.j.h.h.h.h.h.h.h.h.h.h.h.h.h.h.h.",
"h.h.h.h.h.h.h.h.h.h.g.h.g.h.j.a.u.y.a.h.g.h.h.h.h.h.h.h.h.h.h.h.",
"h.h.h.h.h.h.h.h.h.h.g.j.h.u.*.I U n ( g.h.h.h.h.h.h.h.h.h.h.h.h.",
"h.h.h.h.h.h.h.h.h.h.h.g.j.&.u P { { 4.a.h.h.h.h.h.g.h.h.h.h.h.h.",
"h.h.h.h.h.h.h.h.h.h.g.h.d.( i H s L ! i.h.h.h.h.h.h.g.h.h.j.h.h.",
"h.h.h.h.h.h.h.h.h.h.j.p.$.W E _ R n N u.h.h.j.j.j.j.k.s.y.u.y.y.",
"h.h.h.h.h.h.h.h.h.e.X.z & N [ 7.7.2.=.i.g.%.G Z Z S S l q 8 6 : ",
"h.h.h.h.h.h.h.h.g.Z O < % b -.;.6.8.U ~ 1.m & + % V A A C C Z C ",
"h.h.h.h.h.h.h.h.s.B > f 8 4 N ( T T p J 3.3.' ! ,.j.k.k.k.k.k.k.",
"h.h.h.h.h.h.h.g.k.S * 9 8 8 q 0 5 1 Q ` } | { 3.t.h.h.h.h.h.h.g.",
"h.h.h.g.h.h.h.h.k. .. - < 8 8 8 8 4 M v W ] _ ] r.h.h.h.h.h.h.h.",
"h.h.h.h.h.h.h.h.j.0.* o * % - - - $ % # t a ^ f.g.h.h.h.h.h.h.h.",
"h.h.h.h.h.h.h.h.h.e.: O = = < 8 ; q j $ @ 5 >.k.h.g.h.h.h.h.h.h.",
"h.h.h.h.h.h.h.h.j.0., O $ - 9 r - Z a.:. .q.g.h.h.h.h.h.h.h.h.h.",
"h.h.h.h.h.h.h.h.j. .. O $ - 9 r - F h.h.j.h.h.g.h.h.h.h.h.h.h.h.",
"h.h.h.h.g.h.h.h.j.F X O - 8 r < % ..k.h.h.h.h.h.h.h.h.g.h.h.h.h.",
"h.h.h.h.g.j.h.h.k.Z . - ; 8 6 $ X h y.j.g.h.h.h.h.h.g.h.h.h.h.h.",
"h.h.g.h.j.j.j.j.k.S . = = $ . O * - B e.j.g.h.h.h.h.h.h.h.h.h.h.",
"h.g.h.g.0... .F :.Z $ 8 2 ; V : < r , c e.j.h.h.h.h.h.h.h.h.h.h.",
"h.h.g.<.e X . $ : : > r q 8 e.@.- > r < c s.h.h.h.h.h.h.h.h.h.h.",
"h.h.w., - q - 6 r < , 8 6 q e.j.@.> - , O #.j.h.h.h.h.h.h.h.h.h.",
"h.h.p. .#.y.+.7 r < $ O . S h.h.j.V X < $ S k.h.h.h.h.h.h.h.h.h.",
"h.g.h.j.h.h.h.e.q.X.S A  .e.h.g.k.S o r 8 x s.h.h.h.h.h.h.h.h.h.",
"h.h.h.h.h.h.h.h.h.k.k.k.j.h.g.h.h.0., 8 8 e e.h.h.h.h.h.h.h.h.h.",
"h.h.h.h.h.h.h.h.h.h.h.h.h.h.h.h.h.e.6 - 9 < :.k.h.g.h.h.h.h.h.h.",
"h.h.h.h.h.h.h.h.h.h.h.h.h.h.h.h.h.g.O.O $ - j O.p.h.h.h.h.h.h.h.",
"h.h.h.h.h.h.h.h.h.h.h.h.h.h.h.h.g.h.s.g   - h #.h.h.h.h.h.h.h.h.",
"h.h.h.h.h.h.h.h.h.h.h.h.h.h.h.h.h.g.j.:.F 9.p.h.h.g.h.h.h.h.h.h.",
"h.h.h.h.h.h.h.h.h.h.h.g.h.h.h.h.h.h.g.j.j.h.h.h.h.h.h.h.h.h.h.h.",
"h.h.h.h.h.h.h.h.h.h.h.h.h.h.h.h.h.h.h.h.h.h.h.h.g.h.h.h.h.h.h.h.",
"h.h.h.h.h.g.h.h.h.h.h.h.h.h.h.h.h.h.h.h.h.h.h.h.h.h.h.h.h.h.h.h.",
"h.h.h.h.h.h.h.h.h.h.h.h.h.h.h.h.h.h.h.h.h.h.h.h.h.h.h.h.h.h.h.h."
};
