/* XPM */
static char *c751f15e3abe43cae27a377ea314de817lTzKSMhF4gjBrby[] = {
/* columns rows colors chars-per-pixel */
"64 64 207 2 ",
"   c #ADD8E6",
".  c #020404",
"X  c #080604",
"o  c #030804",
"O  c #030609",
"+  c #060909",
"@  c #0B0C0D",
"#  c #0D0A07",
"$  c #140D04",
"%  c #130E0B",
"&  c #180C00",
"*  c #0D110B",
"=  c #13130C",
"-  c #19150C",
";  c #141106",
":  c #0D0E11",
">  c #0E1114",
",  c #0F1419",
"<  c #131414",
"1  c #1A1614",
"2  c #151A14",
"3  c #1A1A15",
"4  c #151619",
"5  c #161A1C",
"6  c #1B1B1C",
"7  c #181719",
"8  c #240D02",
"9  c #261809",
"0  c #241D15",
"q  c #221D1C",
"w  c #271A14",
"e  c #341D10",
"r  c #1E241C",
"t  c #23221E",
"y  c #2B241B",
"u  c #33281C",
"i  c #362419",
"p  c #161B22",
"a  c #1C1E21",
"s  c #121722",
"d  c #201F20",
"f  c #1D2124",
"g  c #1E252B",
"h  c #232324",
"j  c #2A2723",
"k  c #2C2A24",
"l  c #24262A",
"z  c #282729",
"x  c #26292C",
"c  c #2C2B2C",
"v  c #342C23",
"b  c #322F2D",
"n  c #3C2E25",
"m  c #2E312B",
"M  c #33312D",
"N  c #3C342C",
"B  c #3C392F",
"V  c #3E3023",
"C  c #252A31",
"Z  c #2C2E32",
"A  c #302F30",
"S  c #2F3135",
"D  c #2B3238",
"F  c #343334",
"G  c #393635",
"H  c #363A34",
"J  c #3B3936",
"K  c #363639",
"L  c #393739",
"P  c #3C3B3B",
"I  c #37393D",
"U  c #461705",
"Y  c #55220E",
"T  c #5C331E",
"R  c #582B16",
"E  c #402C26",
"W  c #4B3124",
"Q  c #4D352A",
"!  c #473428",
"~  c #5A3422",
"^  c #543627",
"/  c #423B33",
"(  c #423E3B",
")  c #483B30",
"_  c #573E32",
"`  c #693A26",
"'  c #43413D",
"]  c #4A4337",
"[  c #5B4639",
"{  c #5A473B",
"}  c #63412C",
"|  c #634738",
" . c #734D3B",
".. c #7A4B37",
"X. c #6B503D",
"o. c #7B503E",
"O. c #363D45",
"+. c #3B3D40",
"@. c #403F40",
"#. c #3C4044",
"$. c #3D434B",
"%. c #424243",
"&. c #494A4C",
"*. c #484749",
"=. c #5A4D42",
"-. c #5C574A",
";. c #4E4F51",
":. c #4E5054",
">. c #515254",
",. c #595555",
"<. c #525559",
"1. c #59595B",
"2. c #674C42",
"3. c #625145",
"4. c #6A5342",
"5. c #6D5849",
"6. c #745541",
"7. c #765C4C",
"8. c #6E5C51",
"9. c #725E57",
"0. c #7C624E",
"q. c #6D6457",
"w. c #756255",
"e. c #7A6053",
"r. c #78675C",
"t. c #636364",
"y. c #696668",
"u. c #7B6B65",
"i. c #7B7269",
"p. c #804D38",
"a. c #895B48",
"s. c #855F53",
"d. c #8D624E",
"f. c #856757",
"g. c #966955",
"h. c #8B705D",
"j. c #9F705C",
"k. c #816D64",
"l. c #906D60",
"z. c #887569",
"x. c #947D6C",
"c. c #967968",
"v. c #8B7D7A",
"b. c #8E7971",
"n. c #967D71",
"m. c #AB7965",
"M. c #9F806B",
"N. c #94816D",
"B. c #978675",
"V. c #A8866D",
"C. c #B1836C",
"Z. c #A58673",
"A. c #AA8B74",
"S. c #A28D7A",
"D. c #AC8D7A",
"F. c #A98877",
"G. c #B28D74",
"H. c #B88E76",
"J. c #B48778",
"K. c #B48D7B",
"L. c #B78975",
"P. c #AC927E",
"I. c #BC947B",
"U. c #B2937B",
"Y. c #C2967C",
"T. c #9A8C8A",
"R. c #A48A81",
"E. c #BF8F81",
"W. c #A69487",
"Q. c #AC958A",
"!. c #AC9688",
"~. c #B39584",
"^. c #BD9C86",
"/. c #B79A8C",
"(. c #A99A96",
"). c #B09E90",
"_. c #BCA18C",
"`. c #A9A09E",
"'. c #BAA595",
"]. c #B9A69B",
"[. c #C49C84",
"{. c #C09E88",
"}. c #C5A48D",
"|. c #CBA18A",
" X c #C8A186",
".X c #C2A593",
"XX c #CBA993",
"oX c #C4AB9C",
"OX c #D3AB93",
"+X c #D3AA96",
"@X c #DCB29A",
"#X c #DFB89E",
"$X c #E0B99F",
"%X c #D6AFA3",
"&X c #C9B7AA",
"*X c #C9B5A7",
"=X c #D2B7A5",
"-X c #DAB3A5",
";X c #DAB9A8",
":X c #CBBDB7",
">X c #DABCB5",
",X c #E5BCA2",
"<X c #DEC3AE",
"1X c #D2C1B4",
"2X c #EFC5AC",
"3X c #F6C8AF",
"4X c #E4CBC2",
/* pixels */
"                                                                                                                                ",
"                                                                                                                                ",
"                                                                                                                                ",
"                                                      r.r.w.r.9.9.u.                                                            ",
"                                                    9.| Q _ 2.2.Q E k.T.                                                        ",
"                                                  [ ^ [ s.F./.R.n.z.Q.Q.                                                        ",
"                                              3.2.W ^ o.J.%X-X%X;X>X>X(.                                                        ",
"                                              7.X.^  .d.C.E.J.K.-X>X4X*X                                                        ",
"                                              4.6.~ T a.m.j.o...s.n.R.b.                                                        ",
"                                              | 6.} T d.j.p.Y U ~ | [ 9.u.                                                      ",
"                                              4.6.| a.H.Y.g.` R  .7.e.3.                                                        ",
"                                              4.0.h.K.OX3X2X[.C.^..XoXR.                                                        ",
"                                        M v v =.z.Z.^.@X,X,X@XOX;X=X'.N.                                                        ",
"                                b j % # % $ y 8./..XM.G. X|.I.I.}..XoXW.          / / / N j c b t j c z 6 * 5 > . @ < @ > @ @ < ",
"                              t = < q c b k y 3.!.'.M.G.|.#X$XXX.X_.x.r.q.    -.-.u w y y - ; - . < 3 * . o . . o O o o + + + + ",
"                              < 1 L %.F L F % u b.1X*Xc.c.U.}.;X<X=Xe.Q 3.    z.k.! 9 & & X X 0 k t                             ",
"                              4 < ( ( b G c < $ r.(.  &X1X(.].&X1X).5.e i l.~..X^.V.h.5.{ V u N                                 ",
"                              4 + c ( G G c h h L y.(.:X`.v.i.u.z.z._ 8 ! J.-X-X+X+XXXXXP.S.N.                                  ",
"                              4 @ h F L L G F c c F P t.,.( ' / n { =.| f.~.+X|.[.OX+X{.~.*X].                                  ",
"                              4 6 z c A P L G F F z q % - k P / y ) b.'./.D.D.K.Y.Y.I.A.P.=X&X                                  ",
"                              < O h c A P G L @.P P *.G P / N L v ] W.:XQ.B.~.[.I.H.I.I.U.}./.                                  ",
"                                < < 6 F P L G G F F G G M F ' / v / B.S.[ W f.A.G.H.V.A.A.P.x.                                  ",
"                                + @ c P F G S c A F z z m m F G t ] i.q.u 9 w.~.}.^.Z.A.B.S.N.                                  ",
"                                h + 6 L z Z Z c z h h h h a 6 3 = B B 0 ; - =.n.c.f.c.!.B.w.                                    ",
"                                h < d z 6 a a 6 6 3 4 < < 7 6 2 r 3 $ = 3 ; y { { [ 3.                                          ",
"                                F z z h 4 5 3 3 3 3 6 h h h r t m 2 o 3 F k 0 y y w N                                           ",
"                                c 6 h z 6 6 6 h h h c L %.L h t H H H H y = t 6 1 b (                                           ",
"                                F 6 6 A z c c z c F L %.>.F o < x       z t h 6 h h                                             ",
"                                P h > h J F A F F G L L ' x + @ f                                                               ",
"                                K f 4 z c c z F F G L G G F 6 @ f                                                               ",
"                                h < 4 h 3 t z F F J L L P c = @ f                                                               ",
"                                6 6 6 6 < 6 z F F G G L P F f < f                                                               ",
"                                : h h 6 6 h z F L L G ' c f c Z h                                                               ",
"                                : 6 h 6 6 c F F J ( ' ' h < 6 f x                                                               ",
"                                O 6 z h h F L L P ' ( P h 4 5 5 f                                                               ",
"                                + c G z x F G L P ( M M F x < : 5                                                               ",
"                                @ @ = 6 z x z F F b q h F F 6 o 5                                                               ",
"                                4 6 3 6 h a 6 < < 3 % 1 t z f < 5                                                               ",
"                                3 h 6 d c h 6 @ : 4 < < < 6 4 > f f                                                             ",
"                                h c F P L c z c c z 6 4 6 < : < f h                                                             ",
"                              6 6 h F G K K z h 6   a 6 6 z c a 4 a                                                             ",
"          4 @ h S l x f a 6 4 6 3 h z Z K F 4 6 h   < 6 h c z c c h x z                                                         ",
"        F 5 < 5 > . O : 4 < < < 6 h h F P F h a 6     6 x K L F F h Z S                                                         ",
"        %.4 < c Z 4 + h K F h 6 6 h h h A L 6 5 5     a z F G F %.%.h f C                                                       ",
"        F + z x 6 6 5 Z P +.F l h h h h L %.a < 5     5 a h F ( F P I x 6                                                       ",
"        c a > f K F z h h c F G G F F F F L l 6 4       a h h M L #.K Z C                                                       ",
"    Z F h 4 f       z a < a x c c a 2 6 h 6 a p >       6 6 h F F %.P Z z                                                       ",
"    c z 6 ,             a l l z c h a 6 3 4 5           5 6 6 h G P F z s                                                       ",
"    l 6 .                                                   6 O < M Z l a                                                       ",
"                                                            6 6 F <.&.F l p                                                     ",
"                                                            < c *.t.t.*.K D                                                     ",
"                                                            6 K ;.>.>.>.&.O.                                                    ",
"                                                            G h P 1.y.t.<.$.                                                    ",
"                                                            *.%.<.>.&.$.O.O.                                                    ",
"                                                            %.%.>.<.>.K x $.                                                    ",
"                                                            G h P ,.1.+.x O.                                                    ",
"                                                            *.L L %.:.F > Z                                                     ",
"                                                            h h %.&.+.c x g                                                     ",
"                                                            6 h 6 h < . 4 C                                                     ",
"                                                              h . a h > f #.Z g g                                               ",
"                                                              h < f h 5 5 f g p >                                               ",
"                                                              6 @ @ < 4 5 C $.$.Z                                               ",
"                                                              3 . * c F S D                                                     ",
"                                                                                                                                "
};
