/* XPM */
static char *result[] = {
/* columns rows colors chars-per-pixel */
"32 32 141 2 ",
"   c #180B05",
".  c #141312",
"X  c #191615",
"o  c #191817",
"O  c #151719",
"+  c #181719",
"@  c #1C1B1B",
"#  c #301A0F",
"$  c #211E1D",
"%  c #25211F",
"&  c #2D221C",
"*  c #332116",
"=  c #1D1E20",
"-  c #211F20",
";  c #1D2123",
":  c #1F2528",
">  c #222324",
",  c #292524",
"<  c #242629",
"1  c #252A2C",
"2  c #2B2A2A",
"3  c #312622",
"4  c #332A26",
"5  c #3B2E26",
"6  c #312F2D",
"7  c #2B302C",
"8  c #34322D",
"9  c #373B2F",
"0  c #262D30",
"q  c #2C2E31",
"w  c #2D3232",
"e  c #343434",
"r  c #393636",
"t  c #343936",
"y  c #3D3A36",
"u  c #343739",
"i  c #3A3738",
"p  c #343A3C",
"a  c #3A3A3A",
"s  c #553726",
"d  c #543D31",
"f  c #654434",
"g  c #764730",
"h  c #6F503C",
"j  c #74543F",
"k  c #7F5138",
"l  c #3B3E40",
"z  c #354043",
"x  c #3D4A4F",
"c  c #3C4445",
"v  c #3F4D51",
"b  c #4B4740",
"n  c #524840",
"m  c #584A40",
"M  c #445056",
"N  c #475258",
"B  c #675347",
"V  c #6F5444",
"C  c #6E5A4F",
"Z  c #785B4E",
"A  c #6C5E50",
"S  c #755C50",
"D  c #7C695C",
"F  c #506269",
"G  c #56686E",
"H  c #566C73",
"J  c #596D74",
"K  c #5C7077",
"L  c #5C7279",
"P  c #7F726B",
"I  c #62757B",
"U  c #61787F",
"Y  c #717C7F",
"T  c #825133",
"R  c #83583D",
"E  c #8D5C3F",
"W  c #845B40",
"Q  c #82614F",
"!  c #8E6B57",
"~  c #996D52",
"^  c #A4775E",
"/  c #A97A5D",
"(  c #827364",
")  c #847A71",
"_  c #AC7E62",
"`  c #A87C68",
"'  c #87807A",
"]  c #928477",
"[  c #9B8476",
"{  c #B38165",
"}  c #B3856B",
"|  c #BF8668",
" . c #AB8874",
".. c #A38473",
"X. c #BE977F",
"o. c #CC9171",
"O. c #C0947B",
"+. c #CB9578",
"@. c #657C84",
"#. c #687F86",
"$. c #727F81",
"%. c #678088",
"&. c #7A97A1",
"*. c #7B99A3",
"=. c #8C8F8A",
"-. c #9F8F84",
";. c #969A96",
":. c #BE9E8A",
">. c #BFA18E",
",. c #A1A09D",
"<. c #809DA6",
"1. c #819FA9",
"2. c #81A1AC",
"3. c #8EAFBA",
"4. c #93ACB3",
"5. c #97B2BA",
"6. c #A8ABA8",
"7. c #AAAAA5",
"8. c #A1B6BB",
"9. c #ADB9BA",
"0. c #B1B5B2",
"q. c #CC9F85",
"w. c #D6A58B",
"e. c #D8AF94",
"r. c #D0AE9B",
"t. c #C1BFB9",
"y. c #95BAC6",
"u. c #97BDC9",
"i. c #98BDCA",
"p. c #9BC1CE",
"a. c #9DC4D1",
"s. c #A4C4CE",
"d. c #A0C6D2",
"f. c #A3C8D4",
"g. c #A5CEDB",
"h. c #A7D1DE",
"j. c #A9D1DF",
"k. c #ACD7E5",
"l. c #ADD8E6",
"z. c #AEDAE9",
"x. c #B0DBEA",
/* pixels */
"l.l.l.l.l.l.l.l.l.l.l.z.l.l.z.z.z.z.z.l.l.l.l.l.l.l.l.l.l.l.l.l.",
"l.l.l.l.l.l.l.l.l.l.j.z.z.j.f.f.f.j.l.l.l.l.l.l.l.l.l.l.l.l.l.l.",
"l.l.l.l.l.l.l.l.z.l.z.l.s.P Z S A 8.z.j.l.l.l.l.l.l.l.l.l.l.l.l.",
"l.l.l.l.l.l.l.l.z.j.z.f.B g { +.X.0.z.z.l.l.l.l.l.l.l.l.l.l.l.l.",
"l.l.l.l.l.l.l.l.j.z.x.s.h T Q k ~ ;.z.l.l.l.l.l.l.z.z.z.l.l.l.l.",
"l.l.l.l.l.l.k.l.x.z.4.' ! { { k W =.z.z.z.z.x.x.x.j.a.a.f.l.l.l.",
"l.l.l.l.l.l.l.k.*.K 4 d ..X.e.+.O.7.z.5.$.I K K L M w 1 t F 2.z.",
"l.l.l.l.l.l.l.p.0 & & 5 [ >.>.r. .V ,.-.s #   c K K L H H H 2.z.",
"l.l.l.l.l.l.l.p.1 i a 4 n ] P D Z f ` w.X.^ ) a.z.z.z.z.z.z.z.l.",
"l.l.l.l.l.l.l.p.< 1 e r 9 9 9 5 m [ } +.o.o.t.z.l.l.l.l.z.l.l.l.",
"l.l.l.l.l.l.l.a.< X 2 6 t t w 2 b A j / | } 6.l.l.l.l.l.l.l.l.l.",
"l.l.l.l.l.l.l.l.J . $ $ > < < = % % * f Q 9.h.l.l.l.l.l.l.l.l.l.",
"l.l.l.l.l.l.l.x.I X - - > e q < M 0 X & Y l.l.l.l.l.l.l.l.l.l.l.",
"l.l.l.l.l.l.l.l.J + - > 0 d e q y.p.%.*.h.l.l.l.l.l.l.l.l.l.l.l.",
"l.l.l.l.l.l.l.a.0 + - = q y 6 6 p.z.z.z.l.l.l.l.l.l.l.l.l.l.l.l.",
"l.l.l.l.l.l.l.p.1 = : 1 p e - r d.l.l.l.l.l.l.l.l.l.l.l.l.l.l.l.",
"l.l.l.l.l.l.l.p.: = 1 w e < + 2 u.z.l.l.l.l.l.l.l.l.l.l.l.l.l.l.",
"l.l.l.z.x.l.x.p.< @ % > O + @ + I l.l.l.l.l.l.l.l.l.l.l.l.l.l.l.",
"l.l.k.&.*.a.<.J ; 7 e 2 c < < < 7 p.l.l.l.l.l.l.l.l.l.l.l.l.l.l.",
"l.l.u.< o < > @ % i a r 3.M > l 1 U l.l.l.l.l.l.l.l.l.l.l.l.l.l.",
"l.z.#.@ X + < r 1 2 i e a.*.= r t z f.z.l.l.l.l.l.l.l.l.l.l.l.l.",
"l.x.H ; @.&.v 0 e 0 = p p.k.M > 7 < *.x.l.l.l.l.l.l.l.l.l.l.l.l.",
"l.l.2.*.z.z.g.p.a.y.%.y.k.z.L o 2 X J x.l.l.l.l.l.l.l.k.l.l.l.l.",
"l.l.l.x.l.k.k.z.l.z.z.l.l.x.L @ i 1 L z.l.l.l.l.l.l.l.l.l.l.l.l.",
"l.l.l.l.l.l.l.l.l.l.l.l.l.l.K @ i 2 #.z.l.l.l.l.l.l.l.l.l.l.l.l.",
"l.l.l.l.l.l.l.l.l.l.l.l.l.z.H @ a 2 U x.k.l.l.l.l.l.l.l.l.l.l.l.",
"l.l.l.l.l.l.l.l.l.l.l.l.l.z.&.@ 2 > K h.l.k.l.l.l.l.l.k.l.l.l.l.",
"l.l.l.l.l.l.l.l.l.l.l.l.l.l.h.x . % > G h.l.l.l.l.l.l.l.l.l.l.l.",
"l.l.l.l.l.l.l.l.l.l.l.l.l.l.l.@.: I %.y.k.k.l.l.l.l.l.l.l.k.l.l.",
"l.l.l.l.l.l.l.l.l.l.l.l.l.l.l.g.p.l.l.l.l.k.l.k.k.l.l.l.l.l.l.l.",
"l.l.l.l.l.l.l.l.l.l.l.l.l.l.l.l.l.l.l.l.l.l.l.l.l.l.l.l.l.l.l.l.",
"l.l.l.l.l.l.l.l.l.l.l.l.l.l.l.l.l.l.l.l.l.l.l.l.l.l.l.l.l.l.l.l."
};
