/* XPM */
static char *_91795d5852c480e98c2e453144d0127WwBoBJXLqNOpmw9a[] = {
/* columns rows colors chars-per-pixel */
"64 64 190 2 ",
"   c #ADD8E6",
".  c #010401",
"X  c #0B0402",
"o  c #020A02",
"O  c #090B06",
"+  c #01040A",
"@  c #090708",
"#  c #010D0B",
"$  c #0B0C0C",
"%  c #130E05",
"&  c #100D09",
"*  c #041103",
"=  c #081708",
"-  c #0B130C",
";  c #0D190D",
":  c #1C1103",
">  c #11140D",
",  c #19140B",
"<  c #191E0D",
"1  c #030913",
"2  c #0C0D11",
"3  c #130F11",
"4  c #0A1717",
"5  c #0E1514",
"6  c #131313",
"7  c #181516",
"8  c #141812",
"9  c #1A1A14",
"0  c #161519",
"q  c #1A151B",
"w  c #141A1B",
"e  c #1B1B1C",
"r  c #220B00",
"t  c #280E00",
"y  c #3A0700",
"u  c #221B04",
"i  c #2C1A02",
"p  c #241F0E",
"a  c #201D1D",
"s  c #0B240E",
"d  c #1F2E0E",
"f  c #132114",
"g  c #182015",
"h  c #1D231C",
"j  c #1E2B1D",
"k  c #222D0B",
"l  c #332302",
"z  c #22231C",
"x  c #292318",
"c  c #2B2C1C",
"v  c #362A1C",
"b  c #2C3616",
"n  c #373B1C",
"m  c #221F21",
"M  c #1D2621",
"N  c #242324",
"B  c #292526",
"V  c #242924",
"C  c #2A2D26",
"Z  c #272629",
"A  c #292629",
"S  c #2C2C2B",
"D  c #362921",
"F  c #2C332C",
"G  c #2C3D2A",
"H  c #333224",
"J  c #333D22",
"K  c #33312D",
"L  c #36392A",
"P  c #2D2D31",
"I  c #332D31",
"U  c #2E3331",
"Y  c #343334",
"T  c #383636",
"R  c #343934",
"E  c #3B3C34",
"W  c #363539",
"Q  c #39363A",
"!  c #363A39",
"~  c #3B3B3C",
"^  c #4C1C00",
"/  c #511B01",
"(  c #442E17",
")  c #462E1B",
"_  c #463115",
"`  c #58351A",
"'  c #4C3D23",
"]  c #513C29",
"[  c #413D3A",
"{  c #6A3E27",
"}  c #2B432B",
"|  c #3C4A28",
" . c #3E433C",
".. c #474224",
"X. c #55452E",
"o. c #464335",
"O. c #41413D",
"+. c #57463C",
"@. c #595239",
"#. c #6D432B",
"$. c #724429",
"%. c #63523E",
"&. c #75523A",
"*. c #393D40",
"=. c #423D41",
"-. c #3D4142",
";. c #424243",
":. c #454943",
">. c #494748",
",. c #4B4B4C",
"<. c #524F46",
"1. c #4B5F44",
"2. c #5A5B47",
"3. c #514F50",
"4. c #545255",
"5. c #695B46",
"6. c #6D5E4C",
"7. c #596246",
"8. c #566E51",
"9. c #686547",
"0. c #746349",
"q. c #6B6D57",
"w. c #7B6C57",
"e. c #6E7757",
"r. c #7D795C",
"t. c #5D6160",
"y. c #915E43",
"u. c #936148",
"i. c #806657",
"p. c #976A53",
"a. c #877456",
"s. c #8B765C",
"d. c #977459",
"f. c #9A795C",
"g. c #A07C5C",
"h. c #B17A5C",
"j. c #8A7364",
"k. c #857A69",
"l. c #9A7C64",
"z. c #7E8866",
"x. c #8D8A6B",
"c. c #958466",
"v. c #948575",
"b. c #9D8A74",
"n. c #99987A",
"m. c #A7876C",
"M. c #B98A6C",
"N. c #AC8C76",
"B. c #A38A79",
"V. c #B38C71",
"C. c #B88B72",
"Z. c #A99276",
"A. c #AA937D",
"S. c #BD9376",
"D. c #B9957D",
"F. c #CB9A7A",
"G. c #AA9784",
"H. c #AB9B85",
"J. c #BE9F82",
"K. c #B19F95",
"L. c #ABA283",
"P. c #BAA286",
"I. c #B6A58A",
"U. c #B5A192",
"Y. c #B7B4A5",
"T. c #C39D86",
"R. c #C2A18B",
"E. c #CAA289",
"W. c #D8A787",
"Q. c #C4AC92",
"!. c #CCAC92",
"~. c #CAAB96",
"^. c #D9AC91",
"/. c #CCB39D",
"(. c #D5B59B",
"). c #DBB49B",
"_. c #E5B69A",
"`. c #C9B9A9",
"'. c #D6B5A4",
"]. c #D4BAA3",
"[. c #E8BDA5",
"{. c #DEC7A9",
"}. c #E9C8AC",
"|. c #EDC9B9",
" X c #FBD4B9",
".X c #DCD2C6",
"XX c #E3CFC4",
"oX c #E9DECA",
"OX c #F3D9CB",
"+X c #ECE4D9",
/* pixels */
"                                                                                                                                ",
"                                                                                                                                ",
"                                                                                                                                ",
"                                                                                                                                ",
"                                                                                                                                ",
"                                                                                                                                ",
"                                                        d k b b b                                                               ",
"                                                    n n n @.@...: 7.                                                            ",
"                                                    ' ' a.{.{.].I.x.z.                                                          ",
"                                                  u _ &.f.).). X(.L.e.                                                          ",
"                                                  i ` #.C.M.$.V.}.a.9.                                                          ",
"                                                o ( { #.u./ y ^ ` l 9.                                                          ",
"                                              . L ' &.p.^.y.^ $.d._ r.|                                                         ",
"                                            o o x ] l.[.[. X_.).J.c.n.e.8.                                                      ",
"                                          . . 9 X %.m.R.E.^.S.}.!.Z.n.J 1.} s s = * o o o . . .       .                         ",
"                                      o . . > 6 , U./.N.!.).V.D.Q.s.r.q.7.* G j . . . . . . . . . . . . . .                     ",
"                                    o . . O ,.6 z +.OXi.B.'.|./.R.r 6.k.k.p O % z , % 8 o . . . . X X X .                       ",
"                                    o . 6 >.e ;.& D K.XXj.U.`.OXG.) t B.v.`.6.v : X c o . *                                     ",
"                                    . . 8 V Q Y S K o.+X.Xv.k.H.w.r ) A.~./.].'.j.5.<                                           ",
"                                    . O e ;.T ~ V S - C o.H c x @.%.5.A.!.T.).C.N.H.2.                                          ",
"                                    . . $ S Y A S C F F R F L c o.oXH.l.!.m.M.h.C.A.2.                                          ",
"                                      . O Y S A Q ~ ! ! R F F 9 H `.w.b.N.S.F.W.W.I.                                            ",
"                                      . . N V A Q Q Y -.! -.R C E Y.p X.s.f.g.M.f.0.                                            ",
"                                      . . 6 N A A Y Y S W S S e K <.X : b.Q.P.m.s.                                              ",
"                                      . . e 6 e e e a 7 m 3 $ 7 N & 9 % 2.@.u 9.                                                ",
"                                        . N N e 6 6 z 6 e I $ =.q I B & 9 z <                                                   ",
"                                        . e 6 Y N S V  .~ =.S Z 7 A . C R j                                                     ",
"                                        . 7 A V h h V U ;.Y 0 0 P . e O = =                                                     ",
"                                      > . A e N V e U Y U S . $     o .                                                         ",
"                                      o . 6 V e e 6 S :.V F h - h                                                               ",
"                                      . O a N Y e m Y Q S h g *                                                                 ",
"                                    o . . N 6 6 A I I =.>.N - .                                                                 ",
"                                    . . 6 Y P e P ;.Y Q =.$ 7 .                                                                 ",
"                                    . . $ 6 N Z N ~ ;.Y 3 S 6 8 .                                                               ",
"                                    . . 6 S A S Y ;.;.;.N 3 $ $ - .                                                             ",
"                                      . . 7 e ~ V w 6 . e e V 6 - ; .                                                           ",
"                                      . O m B S Q M . - e e ,.! w M o o                                                         ",
"                                      . . ~ T ;.V z Y 5 . $ w -.Y ~ R *                                                         ",
"                                      O . Y ~ ~ N e . . 6 w w Q P ~ K R ;                                                       ",
"                                      . O 6 ~ W V 9 . . t.6 U q P =.A E o                                                       ",
"                                      . . e Y O.9 a @ + e w w N P q B S .                                                       ",
"                                      o . $ W ~ T B X B 6 2 e Q Y Y Y O.g                                                       ",
"                                      . . N ~ Q A Y 3 e A S Q Y W W :. .*                                                       ",
"                                    . . 6 Y Q S ,.e @ 6 Q ,.~ F C :.h f                                                         ",
"                                    o . - Y Q 3.W $ ~ 6 S R ! 8 - f                                                             ",
"                                    . . e ;.,.4.Q 2 *.! . 6 -                                                                   ",
"                                  o o . ~ ;.Q ;.6 P -.6 O . .                                                                   ",
"                                  o . + ;.Y A Z $ 5 # #                                                                         ",
"                                . . . + Q 2 e $ w . o                                                                           ",
"                                o . . S ;.$ $ . . o                                                                             ",
"                                o . . E Y . > .                                                                                 ",
"                              f . . T [ . 9 .                                                                                   ",
"                              # $ . W T 3 0 .                                                                                   ",
"                              . . 2 2 0 . 6 .                                                                                   ",
"                              . 2 + Y + 6 N .                                                                                   ",
"                              # + + + 1 4 w 4                                                                                   ",
"                              # + 1 1 + + 4 #                                                                                   ",
"                                                                                                                                ",
"                                                                                                                                ",
"                                                                                                                                ",
"                                                                                                                                ",
"                                                                                                                                ",
"                                                                                                                                ",
"                                                                                                                                "
};
