/* XPM */
static char *b5608b410bf34a74a550cec49dffb41e0WwSgOfG2HtBkx5d[] = {
/* columns rows colors chars-per-pixel */
"52 64 196 2 ",
"   c None",
".  c #020303",
"X  c #020805",
"o  c #030609",
"O  c #060A0A",
"+  c #0B0C0D",
"@  c #0D0A06",
"#  c #130A03",
"$  c #120E0C",
"%  c #180C00",
"&  c #0C120C",
"*  c #0F1106",
"=  c #131005",
"-  c #14150D",
";  c #1A170B",
":  c #0D0E11",
">  c #0D1113",
",  c #0F1419",
"<  c #131314",
"1  c #1B1615",
"2  c #1A1A16",
"3  c #151619",
"4  c #151A1C",
"5  c #1B1B1C",
"6  c #131811",
"7  c #27190A",
"8  c #351A0E",
"9  c #231C15",
"0  c #211D1B",
"q  c #241711",
"w  c #1F241D",
"e  c #24221E",
"r  c #2C251A",
"t  c #2D2317",
"y  c #38261A",
"u  c #141922",
"i  c #1C1E21",
"p  c #1D2124",
"a  c #1D232A",
"s  c #1F292A",
"d  c #232324",
"f  c #2B2625",
"g  c #2C2A24",
"h  c #24262A",
"j  c #26292B",
"k  c #2C2B2C",
"l  c #282826",
"z  c #332B23",
"x  c #322F2C",
"c  c #3D2F26",
"v  c #2E312B",
"b  c #3C3226",
"n  c #32312D",
"m  c #3D342C",
"M  c #252A31",
"N  c #2C2E32",
"B  c #312F30",
"V  c #2F3234",
"C  c #2D323A",
"Z  c #343334",
"A  c #393635",
"S  c #363B35",
"D  c #3B3A35",
"F  c #353639",
"G  c #3A3738",
"H  c #3B3B3B",
"J  c #37383C",
"K  c #451604",
"L  c #5B321D",
"P  c #572A15",
"I  c #63301B",
"U  c #493326",
"Y  c #4A342A",
"T  c #533323",
"R  c #52362A",
"E  c #5D3323",
"W  c #423A33",
"Q  c #423E3B",
"!  c #4C3935",
"~  c #593E33",
"^  c #603F2C",
"/  c #434137",
"(  c #43413C",
")  c #544235",
"_  c #5E4B3E",
"`  c #694934",
"'  c #634739",
"]  c #744E3C",
"[  c #794A36",
"{  c #6A513F",
"}  c #353C44",
"|  c #3C3E41",
" . c #393F48",
".. c #413F40",
"X. c #3F464D",
"o. c #394046",
"O. c #434343",
"+. c #4B4644",
"@. c #454649",
"#. c #46494D",
"$. c #4C4C4D",
"%. c #5D4E43",
"&. c #595448",
"*. c #4B4C50",
"=. c #4F5052",
"-. c #535456",
";. c #53565A",
":. c #5C595A",
">. c #614D42",
",. c #684D46",
"<. c #655245",
"1. c #6A5543",
"2. c #685B4D",
"3. c #795B4C",
"4. c #6E5C56",
"5. c #725E5A",
"6. c #705C51",
"7. c #6F6357",
"8. c #7C695C",
"9. c #776459",
"0. c #5E5F61",
"q. c #676667",
"w. c #786B65",
"e. c #797365",
"r. c #845947",
"t. c #95644F",
"y. c #836553",
"u. c #8A6256",
"i. c #966A56",
"p. c #8C715E",
"a. c #806F62",
"s. c #936F63",
"d. c #887669",
"f. c #957969",
"g. c #837672",
"h. c #8D7A77",
"j. c #937B71",
"k. c #9C7F72",
"l. c #907772",
"z. c #A87864",
"x. c #94816D",
"c. c #9C8674",
"v. c #998779",
"b. c #A0816C",
"n. c #AC876D",
"m. c #B1836C",
"M. c #A78B75",
"N. c #AA8B73",
"B. c #AC8C7B",
"V. c #A78770",
"C. c #B98F77",
"Z. c #B48C7C",
"A. c #BA8B7C",
"S. c #AE947B",
"D. c #BB947A",
"F. c #B99479",
"G. c #C2967E",
"H. c #C69A7F",
"J. c #968C89",
"K. c #9F9697",
"L. c #A68D84",
"P. c #AA9889",
"I. c #B39984",
"U. c #BD9C86",
"Y. c #B7958A",
"T. c #B59A87",
"R. c #B19C97",
"E. c #B3A195",
"W. c #BCA292",
"Q. c #BCAA99",
"!. c #B7A9A0",
"~. c #C49B83",
"^. c #C69C8E",
"/. c #C4A28D",
"(. c #CBA389",
"). c #C4A692",
"_. c #CDAA93",
"`. c #C7AD9C",
"'. c #D3AB92",
"]. c #D3AC99",
"[. c #D9AC95",
"{. c #DCB49B",
"}. c #E4B89F",
"|. c #D4AEA3",
" X c #C9B5AB",
".X c #C6B4A7",
"XX c #DCBBA6",
"oX c #DDB5A9",
"OX c #DAB7AC",
"+X c #C6BEBC",
"@X c #D6B9B3",
"#X c #E4BCA2",
"$X c #DEC3AE",
"%X c #D5C2B4",
"&X c #FBCDB5",
"*X c #E7DAD4",
/* pixels */
"                                                                                                        ",
"                                                                                                        ",
"                                                  g.g.                                                  ",
"                                            9.6.8.5.5.5.                                                ",
"                                          6.~ R ' ,.Y ! h.                                              ",
"                                        ) R ' s.Y.L.j.l.L.                                              ",
"                                      >.R T r.^.oX|.OX@XR.                                              ",
"                                      1.T ] i.A.A.Z.oX@X X                                              ",
"                                      { ^ L t.z.r.[ u.k.l.                                              ",
"                                      ' ` L i.t.I K E ' >.w.                                            ",
"                                      { ` r.G.m.[ P ] 3.<.                                              ",
"                                      1.y.Z.[.&X'.m.U.W.L.                                              ",
"                                x z b 7.k.U.{.#X}.'.XX`.v.                            S                 ",
"                          x 0 @ $ # b j.`.b.F.(.~.F./.W.P.        m W W z g x e g k 5 & 4 O O < + > O < ",
"                        e $ 1 f x g z d.Q.b.C.'.#X_.).I.8.7.    &.b q r 9 = ; . 2 - X X . X o X X O O O ",
"                        < 1 O.A A Z # %..X.Xp.M.U.XX$XW.Y _     a.) 7 % # . 9 g 2                       ",
"                        3 3 +.B A k $ z J.*X.X!.R. X%Xv.U 8 s.Y.).N.p.1.) t m                           ",
"                        3 O H A A k d k :.K.+XJ.g.w.d.8.8 y Z.oX].'._.).c.x.                            ",
"                        3 + k A H A Z k Z H q.+.( W c %._ 3.I.].~.'.'.U.T.Q.                            ",
"                        3 5 k k H H A Z k 0 $ 9 A W r %.P.W.B.B.C.H.D.N.I..X                            ",
"                        < o k k H A H ..G +.A ( m D z 2. XE.c.T.G.C.D.D.S.T.                            ",
"                          < < k H H A A Z A A n H / z &.P.<.U f.N.C.n.N.M.x.                            ",
"                          O < H Z A N k Z l k v n D e &.e.b 7 d.U./.V.M.x.x.                            ",
"                          d . Z k N N k d d d d 5 2 - / r ; ; 6.k.y.f.P.a.                              ",
"                          d < k 5 i i 5 2 3 < < 5 6 w - = 2 = z >.) <.                                  ",
"                          Z d k 3 4 2 2 2 5 d d w w v & * n g 9 z q m                                   ",
"                          k 3 k 5 5 5 d d k H O.k w S S S g - e 1 f Q                                   ",
"                          Z < k k k k k Z H O.$.& & j     l e d 5 d                                     ",
"                          H 3 5 A Z B Z A H H H > O p         Z                                         ",
"                          F 3 d k k k Z A H A A d + p                                                   ",
"                          d + d 2 e k Z D H H H 2 O p                                                   ",
"                          5 2 5 < 5 k Z A A D H j < p                                                   ",
"                        d : k 5 5 d k A D A ( d j N p                                                   ",
"                        i : d i 5 k Z A Q ( Q 2 5 p s                                                   ",
"                        5 o d d d Z G D ( Q D 5 4 4 p                                                   ",
"                        : O A k j Z A H Q n n V 4 : 4                                                   ",
"                          + + 2 h j k Z n 0 d A j X 4                                                   ",
"                          3 2 2 d i 2 < 2 $ 2 d h < 4                                                   ",
"                          2 d 5 k d 2 + 3 < < 2 5 > p 4                                                 ",
"                          d k A H k k k k 5 3 2 : < p i                                                 ",
"        < 4             5 5 k A F F d 5   i 5 p k p 3 i                                                 ",
"        3 + V h j p i 3 5 2 d k F Z < 5   < 5 k k k k d h                                               ",
"      Z 4 < 4 o o > 3 < < 5 d k H Z p 5     5 N H Z Z d N                                               ",
"      O., 5 V i O j J k 5 5 d d k H 3 4     i k A Z O.H 5 M                                             ",
"      Z O N i i 4 V | F h d d d Z O., 3     4 i k Q Z | N i                                             ",
"      j i , N F h d h Z A A Z Z Z H p 3       i d x H | N M                                             ",
"    N h 3 p     h 4 3 h k k 5 2 d 5 i ,       5 5 Z Z O.N h                                             ",
"    j 5 ,           i h h k d 5 2 3 3         4 5 d G H k u                                             ",
"    i o                       3 <               e o 2 Z h i                                             ",
"                                                2 5 H ;.H h u                                           ",
"                                              < < k $.q.-.F C                                           ",
"                                              3 2 Z =.=.-.#.}                                           ",
"                                                A d O.0.q.;. .                                          ",
"                                                O.O.;.=.#.} }                                           ",
"                                                H O.-.-.@.h X.                                          ",
"                                                A d O.:.*.j }                                           ",
"                                                O.H H #.@.> N                                           ",
"                                                d d O.@.Z j a                                           ",
"                                                3 d 5 d . > M                                           ",
"                                                  d . j 3 4 o.s a                                       ",
"                                                  d < h 5 4 p a ,                                       ",
"                                                  5 + : 3 4 M X.C                                       ",
"                                                  2 . 2 Z V C                                           ",
"                                                  h 3 H                                                 "
};
