/* XPM */
static char *result[] = {
/* columns rows colors chars-per-pixel */
"64 64 194 2 ",
"   c #030303",
".  c #090505",
"X  c #060608",
"o  c #0B070A",
"O  c #060A0A",
"+  c #0C0B0C",
"@  c #0B0B06",
"#  c #110502",
"$  c #130B07",
"%  c #1A0C03",
"&  c #110D0B",
"*  c #14120E",
"=  c #191008",
"-  c #0E0E11",
";  c #110F10",
":  c #0D1214",
">  c #141414",
",  c #1B1512",
"<  c #1B1917",
"1  c #151619",
"2  c #1C151B",
"3  c #151B1B",
"4  c #1B1B1C",
"5  c #200F03",
"6  c #380803",
"7  c #23140C",
"8  c #251106",
"9  c #261A14",
"0  c #2B1B13",
"q  c #221C1B",
"w  c #2B1F1A",
"e  c #321E12",
"r  c #3A1E10",
"t  c #24211E",
"y  c #2B221E",
"u  c #2A2D1E",
"i  c #3D2615",
"p  c #34231B",
"a  c #37291F",
"s  c #1D1E21",
"d  c #151D20",
"f  c #211E21",
"g  c #1D2224",
"h  c #242324",
"j  c #2A2524",
"k  c #2B2925",
"l  c #232629",
"z  c #28272B",
"x  c #25292B",
"c  c #2B2B2B",
"v  c #262D27",
"b  c #332B23",
"n  c #322E2D",
"m  c #382C29",
"M  c #26302B",
"N  c #323326",
"B  c #34322C",
"V  c #3C332B",
"C  c #313A2E",
"Z  c #3F3022",
"A  c #2D2E31",
"S  c #2C3234",
"D  c #2E3837",
"F  c #343333",
"G  c #383534",
"H  c #363C34",
"J  c #3B3935",
"K  c #353539",
"L  c #3A3739",
"P  c #353B3A",
"I  c #3B3B3B",
"U  c #461606",
"Y  c #421E03",
"T  c #57290F",
"R  c #4B2616",
"E  c #492916",
"W  c #572E1B",
"Q  c #5C3014",
"!  c #663B1E",
"~  c #6C3C1F",
"^  c #472F24",
"/  c #4D3222",
"(  c #49362B",
")  c #5B3623",
"_  c #5A3926",
"`  c #5B3C2B",
"'  c #543525",
"]  c #423D3C",
"[  c #453D34",
"{  c #593D32",
"}  c #673C25",
"|  c #663926",
" . c #39453E",
".. c #42413E",
"X. c #5B453B",
"o. c #5F4A3F",
"O. c #6B422A",
"+. c #634432",
"@. c #634539",
"#. c #6A4A3B",
"$. c #7A4B37",
"%. c #7C523D",
"&. c #765038",
"*. c #3C3D41",
"=. c #3C4144",
"-. c #434444",
";. c #484747",
":. c #594F41",
">. c #535248",
",. c #505050",
"<. c #724E43",
"1. c #6C564C",
"2. c #765341",
"3. c #7B5342",
"4. c #785A47",
"5. c #665F54",
"6. c #7C5F52",
"7. c #7E604A",
"8. c #6D6256",
"9. c #776355",
"0. c #7C7466",
"q. c #804D2F",
"w. c #8D5C39",
"e. c #8B5D47",
"r. c #935F40",
"t. c #8C654D",
"y. c #99684C",
"u. c #846755",
"i. c #8C6958",
"p. c #976A54",
"a. c #997359",
"s. c #9C755A",
"d. c #AD7D5D",
"f. c #AA7555",
"g. c #BC7D5C",
"h. c #877C6F",
"j. c #8E7060",
"k. c #9C7461",
"l. c #9A7866",
"z. c #AC7B63",
"x. c #A67F67",
"c. c #B37D62",
"v. c #9A8576",
"b. c #A6826D",
"n. c #AB856E",
"m. c #AF8064",
"M. c #BB8569",
"N. c #B1886C",
"B. c #B88769",
"V. c #A28B7D",
"C. c #AC8A76",
"Z. c #B48D7B",
"A. c #B88A75",
"S. c #AD917E",
"D. c #B2917E",
"F. c #BE947D",
"G. c #B99176",
"H. c #C38A6D",
"J. c #CC8C6C",
"K. c #CE9172",
"L. c #C4967A",
"P. c #D29271",
"I. c #D39E7F",
"U. c #D0977C",
"Y. c #9E9183",
"T. c #A99284",
"R. c #BE9985",
"E. c #BB9E8E",
"W. c #B59784",
"Q. c #BBA594",
"!. c #B7A396",
"~. c #C29A83",
"^. c #CB9D89",
"/. c #CA9F82",
"(. c #D79E81",
"). c #CDA48C",
"_. c #D3A48E",
"`. c #D6A789",
"'. c #C6A693",
"]. c #CEA995",
"[. c #D6AC95",
"{. c #DDB396",
"}. c #D8B49D",
"|. c #E3AE93",
" X c #E7B69A",
".X c #CFAFA0",
"XX c #D9BAAA",
"oX c #D2C3B5",
"OX c #EFC1A2",
"+X c #F0C6AA",
"@X c #E1C2B2",
"#X c #FCD1B2",
"$X c #E9D1C0",
"%X c #ADD8E6",
/* pixels */
"%X%X%X%X%X%X%X%X%X%X%X%X%X%X%X%X%X%X%X%X%X%X%X%X%X%X%X%X%X%X%X%X%X%X%X%X%X%X%X%X%X%X%X%X%X%X%X%X%X%X%X%X%X%X%X%X%X%X%X%X%X%X%X%X",
"%X%X%X%X%X%X%X%X%X%X%X%X%X%X%X%X%X%X%X%X%X%X%X%X%X%X%X%X%X%X%X%X%X%X%X%X%X%X%X%X%X%X%X%X%X%X%X%X%X%X%X%X%X%X%X%X%X%X%X%X%X%X%X%X",
"%X%X%X%X%X%X%X%X%X%X%X%X%X%X%X%X%X%X%X%X%X%X%X%X%X%X%X%X%X%X%X%X%X%X%X%X%X%X%X%X%X%X%X%X%X%X%X%X%X%X%X%X%X%X%X%X%X%X%X%X%X%X%X%X",
"%X%X%X%X%X%X%X%X%X%X%X%X%X%X%X%X%X%X%X%X%X%X%X%X%X%X%X%X%X%X%X%X%X%X%X%X%X%X%X%X%X%X%X%X%X%X%X%X%X%X%X%X%X%X%X%X%X%X%X%X%X%X%X%X",
"%X%X%X%X%X%X%X%X%X%X%X%X%X%X%X%X%X%X%X%X%X%X%X%X%X%X%X<.<.<.{ ^ / { %X%X%X%X%X%X%X%X%X%X%X%X%X%X%X%X%X%X%X%X%X%X%X%X%X%X%X%X%X%X",
"%X%X%X%X%X%X%X%X%X%X%X%X%X%X%X%X%X%X%X%X%X%X%X%X%X%X| T | %.3.#.' +.i.%X%X%X%X%X%X%X%X%X%X%X%X%X%X%X%X%X%X%X%X%X%X%X%X%X%X%X%X%X",
"%X%X%X%X%X%X%X%X%X%X%X%X%X%X%X%X%X%X%X%X%X%X%X%X' _ | $.y.L._._.n.b.D.%X%X%X%X%X%X%X%X%X%X%X%X%X%X%X%X%X%X%X%X%X%X%X%X%X%X%X%X%X",
"%X%X%X%X%X%X%X%X%X%X%X%X%X%X%X%X%X%X%X%X%X%X%X%X/ W } y.H.|. XOX+X}.'.%X%X%X%X%X%X%X%X%X%X%X%X%X%X%X%X%X%X%X%X%X%X%X%X%X%X%X%X%X",
"%X%X%X%X%X%X%X%X%X%X%X%X%X%X%X%X%X%X%X%X%X%X%X%X` ! ! r.f.d.y.f. X).b.%X%X%X%X%X%X%X%X%X%X%X%X%X%X%X%X%X%X%X%X%X%X%X%X%X%X%X%X%X",
"%X%X%X%X%X%X%X%X%X%X%X%X%X%X%X%X%X%X%X%X%X%X%X%X&.O.~ w.q.Y 6 Y ! ! E %X%X%X%X%X%X%X%X%X%X%X%X%X%X%X%X%X%X%X%X%X%X%X%X%X%X%X%X%X",
"%X%X%X%X%X%X%X%X%X%X%X%X%X%X%X%X%X%X%X%X%X%X%Xl.i.t.y.H.d.~ T Q &.O.Y %X%X%X%X%X%X%X%X%X%X%X%X%X%X%X%X%X%X%X%X%X%X%X%X%X%X%X%X%X",
"%X%X%X%X%X%X%X%X%X%X%X%X%X%X%X%X%X%X%X%X%XX.1.6.u.l.G.`.`.L.m.s.N.s.&.%X%X%X%X%X%X%X%X%X%X%X%X%X%X%X%X%X%X%X%X%X%X%X%X%X%X%X%X%X",
"%X%X%X%X%X%X%X%X%X%X%X%X%X%X%X%X%X%X%X%Xp a ( #.j.C.~.).{.#X{.L.`.).R.%X%X%X%X%X%X%X%X%X%X%X%X%X%X%X%XK L L F A L G %X%X%X%X%X%X",
"%X%X%X%X%X%X%X%X%X%X%X%X%X%X%X%X%Xq q $ # % 0 o.W.E.b.G.).}.F.N.).R.b.%X%X%X%XX.^ y 7 , * + * 1 : + + 1 4 < X   1 1 X     %X%X%X",
"%X%X%X%X%X%X%X%X%X%X%X%X%X%X%X%X  . , w p w 0 ( V.Q.S.C.F.].}.[.].s.+.i.%X%X%X4.r 8 7 . . $ $ + O : > O X + O   X O + O O %X%X%X",
"%X%X%X%X%X%X%X%X%X%X%X%X%X%X%X%X  1 L ] ] m y b 8.Q.@X'.S.Q.XX@X.Xj.E W 3.D.~.b.2._ E r 7 % = %X%X%X%X%X%X%X%X%X%X%X%X%X%X%X%X%X",
"%X%X%X%X%X%X%X%X%X%X%X%X%X%X%X%X  4 ;.;.] ] j w m h.oX!.V.v.v.V.C.6.R R 3.^.[.`.F.b.p.e.+.e %X%X%X%X%X%X%X%X%X%X%X%X%X%X%X%X%X%X",
"%X%X%X%X%X%X%X%X%X%X%X%X%X%X%X%X  3 L K L ] m j 9 V 8.h.0.:.+...X.@.{ <.k.^.|.|.|.|.`.L.F.%X%X%X%X%X%X%X%X%X%X%X%X%X%X%X%X%X%X%X",
"%X%X%X%X%X%X%X%X%X%X%X%X%X%X%X%X1 3 l *.I z K ] G N N u N N N a b 1.T.W.A.A.U.`.P.g.f.U. X%X%X%X%X%X%X%X%X%X%X%X%X%X%X%X%X%X%X%X",
"%X%X%X%X%X%X%X%X%X%X%X%X%X%X%X%XX - s F K F L ] I H C C C C C J ( 5.T.T.n.c.B.K.P.J.J.I.).%X%X%X%X%X%X%X%X%X%X%X%X%X%X%X%X%X%X%X",
"%X%X%X%X%X%X%X%X%X%X%X%X%X%X%X%X  + 1 h c F F G I I P  . .H H H n 8.Y.9.%.a.m.H.P.K.H.c.z.%X%X%X%X%X%X%X%X%X%X%X%X%X%X%X%X%X%X%X",
"%X%X%X%X%X%X%X%X%X%X%X%X%X%X%X%Xo + * < h k b m B H H D D S M x k >.0.Z i 4.s.N.d.M.H.p.e.%X%X%X%X%X%X%X%X%X%X%X%X%X%X%X%X%X%X%X",
"%X%X%X%X%X%X%X%X%X%X%X%X%X%X%X%X%X> , < 9 q j n t l M g d g d 3 v C k = 5 / 6.a.%.p.^.%X%X%X%X%X%X%X%X%X%X%X%X%X%X%X%X%X%X%X%X%X",
"%X%X%X%X%X%X%X%X%X%X%X%X%X%X%X%X%X> , < 4 , > > 4 s g g g g d d 4 > * u p % i ` _ O.%X%X%X%X%X%X%X%X%X%X%X%X%X%X%X%X%X%X%X%X%X%X",
"%X%X%X%X%X%X%X%X%X%X%X%X%X%X%X%X%X> * q q 4 < 2 4 h k F F z z x x g > > , 9 0 p e %X%X%X%X%X%X%X%X%X%X%X%X%X%X%X%X%X%X%X%X%X%X%X",
"%X%X%X%X%X%X%X%X%X%X%X%X%X%X%X%X%X> > h z h h j k c G L K F z f S %Xs O & 4 q 9 9 %X%X%X%X%X%X%X%X%X%X%X%X%X%X%X%X%X%X%X%X%X%X%X",
"%X%X%X%X%X%X%X%X%X%X%X%X%X%X%X%X%X1 1 j z h l z n G ] [ L F f > %X%X%X%X1 d < %X%X%X%X%X%X%X%X%X%X%X%X%X%X%X%X%X%X%X%X%X%X%X%X%X",
"%X%X%X%X%X%X%X%X%X%X%X%X%X%X%X%X%X1 4 1 3 2 2 s h G -.J G n s - %X%X%X%X%X%X%X%X%X%X%X%X%X%X%X%X%X%X%X%X%X%X%X%X%X%X%X%X%X%X%X%X",
"%X%X%X%X%X%X%X%X%X%X%X%X%X%X%X%X+ + - l A s s s c G [ ] J B f ; %X%X%X%X%X%X%X%X%X%X%X%X%X%X%X%X%X%X%X%X%X%X%X%X%X%X%X%X%X%X%X%X",
"%X%X%X%X%X%X%X%X%X%X%X%X%X%X%X%X: - - g z s f l z F J J F k w q %X%X%X%X%X%X%X%X%X%X%X%X%X%X%X%X%X%X%X%X%X%X%X%X%X%X%X%X%X%X%X%X",
"%X%X%X%X%X%X%X%X%X%X%X%X%X%X%X%X> 1 4 s g d l A S L ..B j j t f %X%X%X%X%X%X%X%X%X%X%X%X%X%X%X%X%X%X%X%X%X%X%X%X%X%X%X%X%X%X%X%X",
"%X%X%X%X%X%X%X%X%X%X%X%X%X%X%X%X- 1 z l l s l S L =...v q t j j %X%X%X%X%X%X%X%X%X%X%X%X%X%X%X%X%X%X%X%X%X%X%X%X%X%X%X%X%X%X%X%X",
"%X%X%X%X%X%X%X%X%X%X%X%X%X%X%X%XO > s g x A S P -.-. .g 1 4 q q %X%X%X%X%X%X%X%X%X%X%X%X%X%X%X%X%X%X%X%X%X%X%X%X%X%X%X%X%X%X%X%X",
"%X%X%X%X%X%X%X%X%X%X%X%X%X%X%X%XO - 4 h x A A S S M l 3 1 q , & %X%X%X%X%X%X%X%X%X%X%X%X%X%X%X%X%X%X%X%X%X%X%X%X%X%X%X%X%X%X%X%X",
"%X%X%X%X%X%X%X%X%X%X%X%X%X%X%X%X+ 1 4 g h h j g 4 : : 3 4 4 > & t %X%X%X%X%X%X%X%X%X%X%X%X%X%X%X%X%X%X%X%X%X%X%X%X%X%X%X%X%X%X%X",
"%X%X%X%X%X%X%X%X%X%X%X%X%X%X%X%X- < g s 4 4 f f 3 > + 1 s 4 q 4 , %X%X%X%X%X%X%X%X%X%X%X%X%X%X%X%X%X%X%X%X%X%X%X%X%X%X%X%X%X%X%X",
"%X%X%X%X%X%X%X%X%X%X%X%X%X%X%X%X> 4 k k c k h h F A h s f K A f + @ %X%X%X%X%X%X%X%X%X%X%X%X%X%X%X%X%X%X%X%X%X%X%X%X%X%X%X%X%X%X",
"%X%X%X%X%X%X%X  4 %X%X%X%X4 f 1 X < L =. .J c c I -.L s s z A A 4 4 %X%X%X%X%X%X%X%X%X%X%X%X%X%X%X%X%X%X%X%X%X%X%X%X%X%X%X%X%X%X",
"%X%X%X%X%X%Xo . O + < & & 1 , 1 < t n  .;...k < %X%XK 2 s K =.P D g : %X%X%X%X%X%X%X%X%X%X%X%X%X%X%X%X%X%X%X%X%X%X%X%X%X%X%X%X%X",
"%X%X%X%X%X%X; + & > * + * h h t t j c ] -...j > %X%X%Xo 2 *.=.=.=.M : %X%X%X%X%X%X%X%X%X%X%X%X%X%X%X%X%X%X%X%X%X%X%X%X%X%X%X%X%X",
"%X%X%X%X%X4 < s z 4 ; < c I *.L 4 j J I ] L h < %X%X%X  + z K *.=.S g g %X%X%X%X%X%X%X%X%X%X%X%X%X%X%X%X%X%X%X%X%X%X%X%X%X%X%X%X",
"%X%X%X%X%XX c I > - > 1 s F =.;.=.A 4 h L ,.A & %X%X%X%Xo - c -.-.*.M g %X%X%X%X%X%X%X%X%X%X%X%X%X%X%X%X%X%X%X%X%X%X%X%X%X%X%X%X",
"%X%X%X%X%XX 1 f > > %X4 > O 4 j q s g s h A 4 + %X%X%X%X1 1 j F I S g 3 %X%X%X%X%X%X%X%X%X%X%X%X%X%X%X%X%X%X%X%X%X%X%X%X%X%X%X%X",
"%X%X%X%X%X  O ; %X%X%X%X%X  - 2 1 < h 1 > + : > %X%X%X%X%X< 1 4 A c s > + %X%X%X%X%X%X%X%X%X%X%X%X%X%X%X%X%X%X%X%X%X%X%X%X%X%X%X",
"%X%X%X%X%X  o %X%X%X%X%X%X%X%X%X%X%X%X%X    %X%X%X%X%X%X%X> > < h k h >   %X%X%X%X%X%X%X%X%X%X%X%X%X%X%X%X%X%X%X%X%X%X%X%X%X%X%X",
"%X%X%X%X%X%X%X%X%X%X%X%X%X%X%X%X%X%X%X%X%X%X%X%X%X%X%X%X%XX < v k c x > O %X%X%X%X%X%X%X%X%X%X%X%X%X%X%X%X%X%X%X%X%X%X%X%X%X%X%X",
"%X%X%X%X%X%X%X%X%X%X%X%X%X%X%X%X%X%X%X%X%X%X%X%X%X%X%X%X%XX 1 A K I I ,   %X%X%X%X%X%X%X%X%X%X%X%X%X%X%X%X%X%X%X%X%X%X%X%X%X%X%X",
"%X%X%X%X%X%X%X%X%X%X%X%X%X%X%X%X%X%X%X%X%X%X%X%X%X%X%X%X%XO > h L -.I x < %X%X%X%X%X%X%X%X%X%X%X%X%X%X%X%X%X%X%X%X%X%X%X%X%X%X%X",
"%X%X%X%X%X%X%X%X%X%X%X%X%X%X%X%X%X%X%X%X%X%X%X%X%X%X%X%X%XX 1 j P I P c x %X%X%X%X%X%X%X%X%X%X%X%X%X%X%X%X%X%X%X%X%X%X%X%X%X%X%X",
"%X%X%X%X%X%X%X%X%X%X%X%X%X%X%X%X%X%X%X%X%X%X%X%X%X%X%X%X%X  < F L L F j t %X%X%X%X%X%X%X%X%X%X%X%X%X%X%X%X%X%X%X%X%X%X%X%X%X%X%X",
"%X%X%X%X%X%X%X%X%X%X%X%X%X%X%X%X%X%X%X%X%X%X%X%X%X%X%X%X%X  1 c I I F h g %X%X%X%X%X%X%X%X%X%X%X%X%X%X%X%X%X%X%X%X%X%X%X%X%X%X%X",
"%X%X%X%X%X%X%X%X%X%X%X%X%X%X%X%X%X%X%X%X%X%X%X%X%X%X%X%X%X  > k  .;.L g , %X%X%X%X%X%X%X%X%X%X%X%X%X%X%X%X%X%X%X%X%X%X%X%X%X%X%X",
"%X%X%X%X%X%X%X%X%X%X%X%X%X%X%X%X%X%X%X%X%X%X%X%X%X%X%X%X%X  + 4 G L F 4 1 %X%X%X%X%X%X%X%X%X%X%X%X%X%X%X%X%X%X%X%X%X%X%X%X%X%X%X",
"%X%X%X%X%X%X%X%X%X%X%X%X%X%X%X%X%X%X%X%X%X%X%X%X%X%X%X%X%X%XO , h h g j k %X%X%X%X%X%X%X%X%X%X%X%X%X%X%X%X%X%X%X%X%X%X%X%X%X%X%X",
"%X%X%X%X%X%X%X%X%X%X%X%X%X%X%X%X%X%X%X%X%X%X%X%X%X%X%X%X%X%X1 + O 1 h c S q < %X%X%X%X%X%X%X%X%X%X%X%X%X%X%X%X%X%X%X%X%X%X%X%X%X",
"%X%X%X%X%X%X%X%X%X%X%X%X%X%X%X%X%X%X%X%X%X%X%X%X%X%X%X%X%X%X%XX < 4 4 k 4   X > %X%X%X%X%X%X%X%X%X%X%X%X%X%X%X%X%X%X%X%X%X%X%X%X",
"%X%X%X%X%X%X%X%X%X%X%X%X%X%X%X%X%X%X%X%X%X%X%X%X%X%X%X%X%X%X%X  O 1 4 k h - %X%X%X%X%X%X%X%X%X%X%X%X%X%X%X%X%X%X%X%X%X%X%X%X%X%X",
"%X%X%X%X%X%X%X%X%X%X%X%X%X%X%X%X%X%X%X%X%X%X%X%X%X%X%X%X%X%X%X    & %X%X%X%X%X%X%X%X%X%X%X%X%X%X%X%X%X%X%X%X%X%X%X%X%X%X%X%X%X%X",
"%X%X%X%X%X%X%X%X%X%X%X%X%X%X%X%X%X%X%X%X%X%X%X%X%X%X%X%X%X%X%X%X%X%X%X%X%X%X%X%X%X%X%X%X%X%X%X%X%X%X%X%X%X%X%X%X%X%X%X%X%X%X%X%X",
"%X%X%X%X%X%X%X%X%X%X%X%X%X%X%X%X%X%X%X%X%X%X%X%X%X%X%X%X%X%X%X%X%X%X%X%X%X%X%X%X%X%X%X%X%X%X%X%X%X%X%X%X%X%X%X%X%X%X%X%X%X%X%X%X",
"%X%X%X%X%X%X%X%X%X%X%X%X%X%X%X%X%X%X%X%X%X%X%X%X%X%X%X%X%X%X%X%X%X%X%X%X%X%X%X%X%X%X%X%X%X%X%X%X%X%X%X%X%X%X%X%X%X%X%X%X%X%X%X%X",
"%X%X%X%X%X%X%X%X%X%X%X%X%X%X%X%X%X%X%X%X%X%X%X%X%X%X%X%X%X%X%X%X%X%X%X%X%X%X%X%X%X%X%X%X%X%X%X%X%X%X%X%X%X%X%X%X%X%X%X%X%X%X%X%X",
"%X%X%X%X%X%X%X%X%X%X%X%X%X%X%X%X%X%X%X%X%X%X%X%X%X%X%X%X%X%X%X%X%X%X%X%X%X%X%X%X%X%X%X%X%X%X%X%X%X%X%X%X%X%X%X%X%X%X%X%X%X%X%X%X",
"%X%X%X%X%X%X%X%X%X%X%X%X%X%X%X%X%X%X%X%X%X%X%X%X%X%X%X%X%X%X%X%X%X%X%X%X%X%X%X%X%X%X%X%X%X%X%X%X%X%X%X%X%X%X%X%X%X%X%X%X%X%X%X%X"
};
