/* XPM */
static char *result[] = {
/* columns rows colors chars-per-pixel */
"32 32 139 2 ",
"   c #09070A",
".  c #141315",
"X  c #1B1618",
"o  c #1C1B1D",
"O  c #211006",
"+  c #311A0E",
"@  c #231410",
"#  c #221E1C",
"$  c #2A1D18",
"%  c #301D17",
"&  c #2F201A",
"*  c #382219",
"=  c #342A1D",
"-  c #231F21",
";  c #1D2123",
":  c #232223",
">  c #292624",
",  c #2E2A23",
"<  c #262629",
"1  c #292728",
"2  c #26282C",
"3  c #2B2B2C",
"4  c #322A22",
"5  c #302E2F",
"6  c #31312F",
"7  c #3E332B",
"8  c #2D2E31",
"9  c #2E3232",
"0  c #2F3438",
"q  c #343333",
"w  c #3B3735",
"e  c #363834",
"r  c #3B3A34",
"t  c #333539",
"y  c #363939",
"u  c #3B3B3B",
"i  c #493526",
"p  c #5A3D2C",
"a  c #4C3B33",
"s  c #623E2C",
"d  c #4B443D",
"f  c #5D4538",
"g  c #7C4422",
"h  c #664734",
"j  c #644639",
"k  c #765139",
"l  c #333A40",
"z  c #3B474D",
"x  c #3F4B51",
"c  c #40474A",
"v  c #4C524F",
"b  c #424E54",
"n  c #494E51",
"m  c #47545A",
"M  c #49545A",
"N  c #4D595D",
"B  c #715242",
"V  c #785948",
"C  c #745E52",
"Z  c #7B6558",
"A  c #5E6060",
"S  c #55686F",
"D  c #566B72",
"F  c #5A6F76",
"G  c #5B6F78",
"H  c #5E737C",
"J  c #7C6E63",
"K  c #607174",
"L  c #62767C",
"P  c #677A7D",
"I  c #697A7C",
"U  c #7F7B75",
"Y  c #884C29",
"T  c #8C4D36",
"R  c #8E5237",
"E  c #985535",
"W  c #835C45",
"Q  c #83624D",
"!  c #91624A",
"~  c #8C6E5B",
"^  c #B57955",
"/  c #B47B5C",
"(  c #88786B",
")  c #877F77",
"_  c #907F71",
"`  c #A37962",
"'  c #A97D67",
"]  c #A07D6D",
"[  c #A87F6B",
"{  c #8B827B",
"}  c #90867D",
"|  c #AB846E",
" . c #B4866F",
".. c #AA8572",
"X. c #B78C75",
"o. c #B58C79",
"O. c #CA9277",
"+. c #C3957D",
"@. c #CB947A",
"#. c #D29D7E",
"$. c #657B83",
"%. c #697C83",
"&. c #6A8189",
"*. c #758182",
"=. c #7E9BA6",
"-. c #9C8E82",
";. c #999892",
":. c #BF9882",
">. c #A89C92",
",. c #B59E90",
"<. c #BCA798",
"1. c #819FAA",
"2. c #82A1AB",
"3. c #89ABB7",
"4. c #96ADB4",
"5. c #9CAFB4",
"6. c #99B5BB",
"7. c #A1ABAB",
"8. c #A0AEB0",
"9. c #CC9F87",
"0. c #CFA086",
"q. c #CBA995",
"w. c #D9AD94",
"e. c #93B7C4",
"r. c #94B9C5",
"t. c #97BBC8",
"y. c #99BECA",
"u. c #9CC1CD",
"i. c #9EC5D2",
"p. c #A3C2CB",
"a. c #A4C7D2",
"s. c #A4C9D5",
"d. c #A6CFDC",
"f. c #A7D0DD",
"g. c #A9D1DD",
"h. c #ACD7E5",
"j. c #ADD8E6",
"k. c #AEDAE9",
"l. c #B0DCEA",
/* pixels */
"j.j.j.j.j.j.j.j.h.j.j.j.j.j.h.h.j.j.j.k.j.h.j.j.j.j.j.j.j.j.j.j.",
"j.j.j.j.j.j.j.j.k.h.j.j.j.j.h.j.g.s.s.s.j.j.j.j.j.j.j.j.j.j.j.j.",
"j.j.j.j.j.j.j.j.j.j.j.j.j.h.k.s.~ W Z C 4.k.j.j.j.j.j.j.j.j.j.j.",
"j.j.j.j.j.j.j.j.j.j.j.j.j.j.f.J g  .#.| 5.j.j.j.j.j.j.j.j.j.j.j.",
"j.j.j.j.j.j.j.j.j.j.j.h.j.j.i.k Y E Y ! } g.j.j.j.j.j.h.j.k.j.j.",
"j.j.j.j.j.j.j.j.j.h.j.k.j.i.U R ^  .R ! { g.j.k.k.k.k.k.f.i.s.s.",
"j.j.j.j.j.j.j.j.k.j.k.=.K r i ~ X.w.#.X.7.k.6.*.P P P P N y 0 y ",
"j.j.j.j.j.j.j.j.k.l.=.2 & = = { ,.<.q.| h ;.} h + O v L H H H F ",
"j.j.j.j.j.j.j.j.j.k.%.X q r , d } J Z V s | 0.X.` { s.l.l.k.k.l.",
"j.j.j.j.j.j.j.j.h.j.r.2 3 e 9 e r 7 7 f ] o.+.@.O.<.g.j.k.j.j.j.",
"j.j.j.j.j.j.j.j.h.h.f.x o 3 9 y e q 4 a C B |  . .>.g.k.j.j.j.j.",
"j.j.j.j.j.j.j.j.k.h.k.$.  ; ; ; : : $ $ % * j k 5.g.l.j.j.j.j.j.",
"j.j.j.j.j.j.j.j.h.h.k.$.. ; o < q q 1 n 6 @ & A f.k.h.j.j.j.j.j.",
"j.j.j.j.j.j.j.j.k.h.k.$.. o o q u 5 0 t.u.&.1.s.h.h.j.j.j.j.j.j.",
"j.j.j.j.j.j.j.j.h.k.d.b X o : q u 9 0 i.k.k.k.j.h.j.j.j.j.j.j.j.",
"j.j.j.j.j.j.j.j.k.h.y.2 - : 3 e e 1 8 t.l.j.h.j.j.j.j.j.j.j.j.j.",
"j.j.j.j.j.j.k.h.h.k.i.; o 3 q t 3 o : M 1.l.j.j.j.j.j.j.j.j.j.j.",
"j.j.j.j.j.j.h.h.h.h.d.x o 5 5 X . o 5 e u %.i.j.j.j.j.j.j.j.j.j.",
"j.j.j.j.h.k.h.k.k.h.k.$.1 l 5 M &.c > 3 5 < G k.j.j.j.j.j.j.j.j.",
"j.j.j.j.j.h.k.h.k.h.h.F < a 5 M %.u - - 3 : l i.j.j.j.j.j.j.j.j.",
"j.j.j.j.h.h.k.h.h.k.i.8 < e e o o 3 5 u 5 < $.k.j.j.j.j.j.j.j.j.",
"j.j.j.j.k.h.h.k.h.k.=.; 6 q 8 o # - < 8 b 1.s.k.h.j.j.j.j.j.j.j.",
"j.j.j.h.h.k.h.k.k.i.z ; u u : o 8 S $.e.s.k.j.h.j.j.j.j.j.j.j.j.",
"j.j.j.j.h.k.h.k.k.$.X t u 8 8 m y.k.k.k.k.h.j.j.j.j.j.j.j.j.j.j.",
"j.j.j.j.j.j.j.j.d.x : u 5 M y.d.j.j.h.j.j.j.j.j.j.j.j.j.j.j.j.j.",
"j.j.j.j.j.j.h.k.e.; 2 t 3 1.l.j.j.j.j.j.j.j.j.j.j.j.j.j.j.j.j.j.",
"j.j.j.j.j.j.j.k.H   . X ; e.j.j.j.j.j.j.j.j.j.j.j.j.j.j.j.h.j.j.",
"j.j.j.j.j.j.j.k.2.D G F G 3.k.j.j.j.j.j.j.j.j.j.j.j.j.j.j.j.j.j.",
"j.j.j.j.j.j.j.h.k.l.k.l.k.j.h.j.j.j.j.j.j.j.j.j.j.j.j.j.j.j.j.j.",
"j.j.j.j.j.j.j.j.j.j.j.j.j.j.j.j.j.j.j.j.j.j.j.j.j.j.j.j.j.j.j.j.",
"j.j.j.j.j.j.j.j.j.j.j.j.j.j.j.j.j.j.j.j.j.j.j.j.j.j.j.j.j.j.j.j.",
"j.j.j.j.j.j.j.j.j.j.j.j.j.j.j.j.j.j.j.j.j.j.h.j.j.j.j.j.j.j.j.j."
};
