/* XPM */
static char *a0db194add53436d99336d4ef9fff46esD1Z6MzFaWMVooOg[] = {
/* columns rows colors chars-per-pixel */
"64 64 205 2 ",
"   c None",
".  c #020202",
"X  c #0D0401",
"o  c #090906",
"O  c #030509",
"+  c #0C0C0B",
"@  c #070B0F",
"#  c #1A0100",
"$  c #130C01",
"%  c #180A05",
"&  c #110D0E",
"*  c #140506",
"=  c #18130D",
"-  c #0B0D10",
";  c #0F1316",
":  c #141414",
">  c #1B1516",
",  c #1B1916",
"<  c #141618",
"1  c #181718",
"2  c #1C1B1C",
"3  c #17181B",
"4  c #290B05",
"5  c #2A1102",
"6  c #27100C",
"7  c #311401",
"8  c #3A1B06",
"9  c #351C0F",
"0  c #361800",
"q  c #231D16",
"w  c #211D1D",
"e  c #2C1411",
"r  c #391E12",
"t  c #22211F",
"y  c #292418",
"u  c #36261D",
"i  c #3B271B",
"p  c #201F20",
"a  c #1E2024",
"s  c #242424",
"d  c #292525",
"f  c #262827",
"g  c #2E2C26",
"h  c #27292A",
"j  c #2B2B2B",
"k  c #262629",
"l  c #312F2D",
"z  c #302A21",
"x  c #34322D",
"c  c #39332B",
"v  c #3F382E",
"b  c #2D2E30",
"n  c #2E3233",
"m  c #343434",
"M  c #393935",
"N  c #333739",
"B  c #353A3A",
"V  c #3B3B3B",
"C  c #3C3332",
"Z  c #401C0D",
"A  c #43230D",
"S  c #49260C",
"D  c #542A0E",
"F  c #4C2D15",
"G  c #502917",
"H  c #59351A",
"J  c #6F3C1D",
"K  c #4A2D23",
"L  c #463126",
"P  c #4B3A2E",
"I  c #5A3928",
"U  c #403636",
"Y  c #423E3C",
"T  c #433830",
"R  c #573C33",
"E  c #6B3C25",
"W  c #3F403E",
"Q  c #4E422F",
"!  c #5D402D",
"~  c #43423F",
"^  c #5B493D",
"/  c #574539",
"(  c #6B432A",
")  c #74432A",
"_  c #7A4A2D",
"`  c #674736",
"'  c #7E4F33",
"]  c #734333",
"[  c #7D5A38",
"{  c #3C3F41",
"}  c #3C4143",
"|  c #434343",
" . c #4C4C4B",
".. c #474747",
"X. c #574F44",
"o. c #50504F",
"O. c #525253",
"+. c #5D5D5D",
"@. c #665648",
"#. c #795B49",
"$. c #7D5D43",
"%. c #6D5E51",
"&. c #7B604F",
"*. c #7F6F5F",
"=. c #7C6454",
"-. c #636363",
";. c #656668",
":. c #6A6A6A",
">. c #656868",
",. c #6D7172",
"<. c #747474",
"1. c #7D7D7D",
"2. c #7B6B63",
"3. c #865937",
"4. c #875944",
"5. c #9B5C47",
"6. c #86624A",
"7. c #926B4A",
"8. c #8A6857",
"9. c #966E53",
"0. c #987359",
"q. c #A27849",
"w. c #B0714E",
"e. c #A46D53",
"r. c #A17354",
"t. c #A87758",
"y. c #BB775B",
"u. c #9A7768",
"i. c #8A7D79",
"p. c #8E7868",
"a. c #AA7E67",
"s. c #B37961",
"d. c #B98953",
"f. c #9D846B",
"g. c #918473",
"h. c #AD856C",
"j. c #B28363",
"k. c #BB8C65",
"l. c #B4856C",
"z. c #BD8168",
"x. c #A98875",
"c. c #B58F7E",
"v. c #BE8A70",
"b. c #AB957F",
"n. c #B6907A",
"m. c #CB865D",
"M. c #CA8A68",
"N. c #C79C68",
"B. c #DC966F",
"V. c #C18D70",
"C. c #CA9375",
"Z. c #CA977A",
"A. c #C69778",
"S. c #DA9A77",
"D. c #C9A27B",
"F. c #DCA570",
"G. c #E4A47A",
"H. c #E6B27F",
"J. c #838383",
"K. c #89878C",
"L. c #8B8889",
"P. c #999494",
"I. c #AA9A8B",
"U. c #B99783",
"Y. c #AF9A90",
"T. c #B39C92",
"R. c #B9A296",
"E. c #B1A093",
"W. c #A2A2A2",
"Q. c #C19D8D",
"!. c #C39E83",
"~. c #CBA281",
"^. c #C6A48E",
"/. c #C9A18A",
"(. c #D4A383",
"). c #D8A78A",
"_. c #C2A693",
"`. c #C6AC95",
"'. c #CDB29B",
"]. c #DBB29C",
"[. c #D7B395",
"{. c #D9AC95",
"}. c #E5A783",
"|. c #E8AB8A",
" X c #EEB589",
".X c #E3AF98",
"XX c #E4B59B",
"oX c #E8BB95",
"OX c #F2B897",
"+X c #CCB5A4",
"@X c #D8BAA3",
"#X c #CEBEBB",
"$X c #E4BFAB",
"%X c #F3C39E",
"&X c #E9C497",
"*X c #D4C7B7",
"=X c #E7C3AB",
"-X c #FBCEA0",
";X c #F6CCA8",
":X c #FDD2AE",
">X c #FED4A7",
",X c #ECC8B5",
"<X c #F2CFB1",
"1X c #F4D1B2",
"2X c #F5D7C7",
/* pixels */
"                                                                                                                                ",
"                                                                                                                                ",
"                                                                                                                                ",
"                                                                                                                                ",
"                                                                                                                                ",
"                                                              I.2.                                                              ",
"                                                      ` A 8 S S F 8 #.I.                                                        ",
"                                                  R I H 4.t.r.3._ D $.b.                                                        ",
"                                                i G D E Z.%X-X>X:XoX[._.                                                        ",
"                                                7 ( _ ) k.Z.k.D.:X1X=X`.                                                        ",
"                                                I ) J ' j.j.[ ( 7.'.'.*.                                                        ",
"                                              E.u.] E ' _ Z # 4 8 7 9 i                                                         ",
"                                              T.8.4.e.V.oXq.0 4 ` 8.=./                                                         ",
"                                              p.4.s.|.OX X-X&XD.[.^._.R.                                                        ",
"                                      O.t $ $ L U.z.y.|.G.F.N.N.oX(.{.+X          K.K.                  :.<.-.+.+.+.+.-.-.-.-.-.",
"                                j k : + o . y Q   5.M.}. XH.d.q.~.~.!.U.        Y U C c . + 1 : : 1 : . . O O . . . . . . . . . ",
"                              : + s |  .| t X v +X$Xa.7.k.oX-XoXXX[.6.#         K 6 % u q : < < @ O @ 3 2 + . . . . . . . . . . ",
"                              . s m m m | x : g %.    h.[ 9.[.1X<X@X&.5 I     c.U.6.F 5 % . : k                                 ",
"                              . 1 j m m V ~ V g y I.*X  `.'.f.x.+XU.` 9 7 #.Q.{..X).).^.u.^ u                                   ",
"                              2 : k V | m { V j c z X.g.*.@.P i L @.^ r ! n.].(.}.G.).XX].                                      ",
"                              j : 2 m m V m j j m M s & = q c c = T i.Y.x.u.A.OXB.B.M.t.r.,X2X                                  ",
"                               .: 1 j j b m V } B V W V M V V m d | m   U.A.v.Z.m.m.M.M.(./.=X,X                                ",
"                              1.: + m m j n B N N V V N V { ....m s i.#X/ I j.C.w.m.S.C.l.a.Q.R.                                ",
"                                . + 1 k h b N V B N N N n n N m a N L.I.> # ` x.Z.C.V.l.9.0.8.                                  ",
"                                + . + 2 k k f f j j j f j s s s < s j w * X K u.c.u.8.U.@X                                      ",
"                                 .t . : + : t t 2 2 , = , , - + 1 k 2 > d % % c R e .                                           ",
"                                +.s . k : : 2 s : > d x l g m V V : . p j k + * U 2 .                                           ",
"                                -.k . j 2 1 2 , s Y  .~ ~  .V j V     k O : j j : k j                                           ",
"                                -.k . k 2 s k s k V ~ V | | 2 +  .      V h - s {                                               ",
"                                m 2 + 2 k 2 s j f j V | | m 2 +                                                                 ",
"                                . + : : : 1 1 : h  .O.} B m ; ; ;.                                                              ",
"                                . + k V j b k < k V } N V m : - ..                                                              ",
"                              O.+ + 2 : : : k m m V V N m m s +                                                                 ",
"                              s + 2 j s s j m m m m V V p : + j J.                                                              ",
"                              : + 1 k k j m m m V | | m 2 j j j O.                                                              ",
"                              . 1 j V V m m m V V V m j 1 j : + O.                                                              ",
"                              <.+ 2 V j m M j k j m 2 + : : : + :                                                               ",
"                                1 j s : 2 : & : O : 2 2 2 1 s s : : :                                                           ",
"                                . 1 j d k s k s . . + 2 j k k V | k : 2                                                         ",
"          -.-.                  . 2 m m m  .s + >.J.V . s m m m V | j p |                                                       ",
"        ,.m . s -.| + k -.    +.+ : V V V | 1 + <.    j . 2 V V m m | V .  .J.                                                  ",
"        : s s : . : j k + . . . 1 j m m V | : + <.      2 + : V m m V |  .1 .                                                   ",
"      p V | m s 1 j m m m j d k k k m V V | 1 + 1.        j 2 + 2 m V m m k m |                                                 ",
"  m s + V | 2 . s m m V V m m m 2 s m m m | 2 : 1.            : : 2 j m m V s .                                                 ",
"  + : : . 1 O.+.s s |  .M m V V k s s k m  .j .                 + : s k k j : : >.                                              ",
"+ . : k         j 2 1 j m | V m m l s 1 k V k .                 2 + o 2 2 d w : m                                               ",
"                1.+.j s + . . - s d s 2 2 . 1 V                  .k + j V V m k k                                               ",
"                          J.L.+.V : . . . j V                     . & j m V | V 1                                               ",
"                                                                  . & j m m | V . -.W.                                          ",
"                                                                  . & j m m V m . o.J.                                          ",
"                                                                  2 1 : j m V m .  .<.                                          ",
"                                                                  ;.| + j V V V k j j                                           ",
"                                                                  -.| + j V V m k s 1                                           ",
"                                                                  P.+.. 2 m V j + j |                                           ",
"                                                                      V + o 1 : + + 2 j m  . .                                  ",
"                                                                        k 2 + : j V  .| . 2 m                                   ",
"                                                                        | s + 2 : 2 : j J.                                      ",
"                                                                         .k . + O.                                              ",
"                                                                          j j                                                   ",
"                                                                                                                                ",
"                                                                                                                                ",
"                                                                                                                                ",
"                                                                                                                                ",
"                                                                                                                                "
};
