/* XPM */
static char *result[] = {
/* columns rows colors chars-per-pixel */
"32 32 138 2 ",
"   c #110E0E",
".  c #161515",
"X  c #1A1615",
"o  c #1B1816",
"O  c #191718",
"+  c #1B1A1B",
"@  c #220C0A",
"#  c #20130B",
"$  c #2C1D14",
"%  c #241E1C",
"&  c #1A211E",
"*  c #23201D",
"=  c #29231E",
"-  c #1F1F20",
";  c #211F22",
":  c #1E2322",
">  c #232324",
",  c #292627",
"<  c #252629",
"1  c #25282A",
"2  c #2B2B2B",
"3  c #332722",
"4  c #302E2F",
"5  c #353025",
"6  c #33352B",
"7  c #3D302D",
"8  c #3D3829",
"9  c #2A2F33",
"0  c #2F3232",
"q  c #333233",
"w  c #3A3437",
"e  c #3E3933",
"r  c #353638",
"t  c #393738",
"y  c #35393B",
"u  c #3B3B3D",
"i  c #41231B",
"p  c #403724",
"a  c #51392B",
"s  c #403A36",
"d  c #653F28",
"f  c #6E4C33",
"g  c #664C3A",
"h  c #6C4E3F",
"j  c #764E3D",
"k  c #373C41",
"l  c #3B3C41",
"z  c #3D4B51",
"x  c #464C4D",
"c  c #454F53",
"v  c #455155",
"b  c #455258",
"n  c #49555A",
"m  c #635446",
"M  c #68574C",
"N  c #765141",
"B  c #7C6250",
"V  c #7B6759",
"C  c #485D61",
"Z  c #536267",
"A  c #55666D",
"S  c #526A6E",
"D  c #596C75",
"F  c #5A6F78",
"G  c #5C7077",
"H  c #5E737A",
"J  c #7D6860",
"K  c #62767E",
"L  c #64787D",
"P  c #804F38",
"I  c #875943",
"U  c #8B5D44",
"Y  c #865E4C",
"T  c #95654D",
"R  c #836253",
"E  c #836E57",
"W  c #8C6D56",
"Q  c #926D59",
"!  c #93745D",
"~  c #837062",
"^  c #857268",
"/  c #957466",
"(  c #817D74",
")  c #887B76",
"_  c #978073",
"`  c #A6816A",
"'  c #B4836F",
"]  c #AD8A7C",
"[  c #B58673",
"{  c #B38A72",
"}  c #B58E7A",
"|  c #AD907C",
" . c #C7937C",
".. c #CC957C",
"X. c #C9987D",
"o. c #667C83",
"O. c #6C7980",
"+. c #687F88",
"@. c #6A8087",
"#. c #6A8189",
"$. c #7E8B8E",
"%. c #6F8890",
"&. c #7996A0",
"*. c #7E9BA5",
"=. c #8C8F8B",
"-. c #988E89",
";. c #889191",
":. c #8B989B",
">. c #B69080",
",. c #BE9883",
"<. c #BD9F8E",
"1. c #AE9C92",
"2. c #8CA0A7",
"3. c #86A6B1",
"4. c #92B3BE",
"5. c #CF9B84",
"6. c #D29C85",
"7. c #CCA38C",
"8. c #D3A489",
"9. c #D4A88F",
"0. c #DAA98E",
"q. c #95BAC6",
"w. c #9ABECA",
"e. c #ACBEC2",
"r. c #9BC1CD",
"t. c #9EC5D1",
"y. c #A3C5CF",
"u. c #B2C4C7",
"i. c #A6C7D2",
"p. c #A3CAD6",
"a. c #ABCCD6",
"s. c #A5CDDA",
"d. c #A7D1DE",
"f. c #A9D1DE",
"g. c #ACD7E5",
"h. c #ADD8E6",
"j. c #AFDBE9",
"k. c #B0DCEA",
/* pixels */
"h.h.h.h.h.h.h.h.h.h.g.h.h.h.h.h.h.h.h.h.g.h.h.h.h.h.h.h.g.h.h.h.",
"h.h.h.h.h.h.h.h.h.g.h.h.a.p.y.f.h.g.h.h.h.h.h.h.h.h.h.h.h.h.h.h.",
"h.h.h.h.h.h.h.h.g.h.p.=.B U j ) f.h.h.h.h.h.h.h.h.h.h.h.h.h.h.h.",
"h.h.h.h.h.h.h.h.g.j.;.d T X.8.| a.h.h.h.h.h.h.h.h.h.h.h.h.h.h.h.",
"h.h.h.h.h.h.h.g.h.g._ g U P T / a.h.h.h.h.h.g.g.h.k.h.h.h.h.h.h.",
"h.h.h.h.h.g.h.k.p.:.J ! { U U R i.h.k.k.k.k.k.h.p.p.p.p.f.h.g.h.",
"h.h.h.h.h.h.t.#.v 3 V | 9.0.X.} a.a.$.L L F K D k k u q c 4.h.h.",
"h.h.h.h.h.d.C & 2 = M <.,.7.8.U ^ 1.j 3 @ $ A F F D F D K y.h.h.",
"h.h.h.h.h.h.S : y q 7 V _ B W f I 6.6.[ / 2.h.j.k.k.k.k.h.h.h.h.",
"h.h.h.h.h.k.H + y w w w e 8 p E / [ 6.5.7.u.h.h.h.h.h.h.h.h.h.h.",
"h.h.h.h.h.h.o.. < 2 t t 0 6 5 m j Q ' / >.e.h.h.h.h.h.h.h.h.h.h.",
"h.h.h.g.h.h.q.> + - - : > > * $ $ a N -.p.g.h.h.h.h.h.h.h.h.h.h.",
"h.h.h.h.h.h.t.1 * - - 9 q 1 y x $ # e w.h.h.h.h.h.h.h.h.h.h.h.h.",
"h.h.h.h.h.h.q.1 ; > < u u > H f.2.o.w.g.h.h.h.h.h.h.h.h.h.h.h.h.",
"h.h.h.h.h.k.#.. ; ; < t r > o.j.h.h.h.h.g.h.h.h.h.h.h.h.h.h.h.h.",
"h.h.h.h.h.h.o.O ; > q u 2 * +.h.h.h.h.h.h.h.h.h.h.h.h.h.h.h.h.h.",
"h.h.h.h.h.j.H O , q 6 2 % O o.j.h.h.h.h.h.h.h.h.h.h.h.h.h.h.h.h.",
"h.h.h.h.h.j.#.O 2 3 > + O O H j.h.h.h.h.h.h.h.h.h.h.h.h.h.h.h.h.",
"h.h.j.j.s.t.q.2 2 q q > + . o.j.h.h.h.h.h.h.h.h.h.h.h.h.h.h.h.h.",
"h.h.j.t.n 1 Z ; * q u r : : q.h.h.h.h.h.h.h.h.h.h.h.h.h.h.h.h.h.",
"h.h.t.b O O   > > < q t < z s.h.h.h.h.h.h.h.h.h.h.h.h.h.h.h.h.h.",
"h.j.%.: c #.b , q 2 ; 2 O o.j.h.h.h.h.h.h.h.h.h.h.h.h.h.h.h.h.h.",
"h.h.s.t.s.k.t.o.c ; + + 1 q.h.h.h.h.h.h.h.h.h.h.h.h.h.h.h.h.h.h.",
"h.g.g.j.h.h.h.g.n ; 2 ; K h.h.h.h.h.h.h.h.h.h.h.h.h.h.h.h.h.h.h.",
"h.h.h.h.h.g.j.q.< 4 t q q.h.h.h.h.h.h.h.h.h.h.h.h.h.h.h.h.h.h.h.",
"h.h.h.h.h.h.g.H O w q n s.h.h.h.h.h.h.h.h.h.h.h.h.h.h.h.h.h.h.h.",
"h.g.h.h.g.h.t.9 2 u 2 *.k.h.h.h.h.h.h.h.h.h.h.g.h.h.h.h.h.h.h.h.",
"h.h.h.h.h.j.r.1 2 2 n d.h.h.h.h.h.h.h.h.h.h.h.h.h.h.g.h.h.h.h.h.",
"j.g.g.g.h.h.&.O O + L h.h.h.h.h.h.h.h.h.h.h.h.h.h.h.h.h.h.h.h.h.",
"g.g.j.g.h.h.o.+ < 9 y 3.h.h.h.h.h.h.h.h.h.h.h.h.h.h.h.h.h.h.h.h.",
"g.j.g.j.j.g.t.r.r.r.w.p.h.h.h.h.h.h.g.h.h.h.h.h.h.h.h.h.g.h.h.h.",
"g.g.j.g.g.g.j.j.h.h.h.h.g.h.h.h.h.h.h.h.h.h.h.h.h.h.h.h.h.h.h.h."
};
