/* XPM */
static char *cca6907dcfac4598b9f9fa7336c2c851EIWpP2CMlh8YkP9y[] = {
/* columns rows colors chars-per-pixel */
"45 64 191 2 ",
"   c None",
".  c #010401",
"X  c #0B0402",
"o  c #020A02",
"O  c #090B06",
"+  c #01040A",
"@  c #010D0B",
"#  c #0B0C0C",
"$  c #090708",
"%  c #130E05",
"&  c #100D09",
"*  c #041103",
"=  c #0B130C",
"-  c #0D190D",
";  c #081708",
":  c #1C1103",
">  c #11140D",
",  c #19140B",
"<  c #191E0D",
"1  c #151808",
"2  c #030913",
"3  c #0C0D11",
"4  c #130F11",
"5  c #0E1514",
"6  c #0A1717",
"7  c #131313",
"8  c #181516",
"9  c #141812",
"0  c #1A1A14",
"q  c #161519",
"w  c #1A151B",
"e  c #141A1B",
"r  c #1B1B1C",
"t  c #220B00",
"y  c #280E00",
"u  c #3A0700",
"i  c #221B04",
"p  c #241F0E",
"a  c #2C1A02",
"s  c #201D1D",
"d  c #0B240E",
"f  c #1F2E0E",
"g  c #132114",
"h  c #1D231C",
"j  c #1E2B1D",
"k  c #182015",
"l  c #222D0B",
"z  c #332302",
"x  c #22231C",
"c  c #2B2C1C",
"v  c #292318",
"b  c #362A1C",
"n  c #2C3616",
"m  c #373B1C",
"M  c #221F21",
"N  c #1D2621",
"B  c #242324",
"V  c #292526",
"C  c #242924",
"Z  c #2A2D26",
"A  c #272629",
"S  c #292629",
"D  c #2C2C2B",
"F  c #362921",
"G  c #2C332C",
"H  c #2C3D2A",
"J  c #333224",
"K  c #33312D",
"L  c #36392A",
"P  c #333D22",
"I  c #2D2D31",
"U  c #332D31",
"Y  c #2E3331",
"T  c #343334",
"R  c #383636",
"E  c #343934",
"W  c #3B3C34",
"Q  c #363539",
"!  c #39363A",
"~  c #363A39",
"^  c #3B3B3C",
"/  c #4C1C00",
"(  c #511B01",
")  c #462E1B",
"_  c #442E17",
"`  c #463115",
"'  c #58351A",
"]  c #4C3D23",
"[  c #513C29",
"{  c #413D3A",
"}  c #6A3E27",
"|  c #2B432B",
" . c #3C4A28",
".. c #3E433C",
"X. c #474224",
"o. c #55452E",
"O. c #41413D",
"+. c #464335",
"@. c #595239",
"#. c #57463C",
"$. c #6D432B",
"%. c #724429",
"&. c #63523E",
"*. c #75523A",
"=. c #393D40",
"-. c #423D41",
";. c #3D4142",
":. c #424243",
">. c #454943",
",. c #4B4B4C",
"<. c #494748",
"1. c #524F46",
"2. c #4B5F44",
"3. c #5A5B47",
"4. c #514F50",
"5. c #545255",
"6. c #6D5E4C",
"7. c #695B46",
"8. c #596246",
"9. c #566E51",
"0. c #686547",
"q. c #746349",
"w. c #6B6D57",
"e. c #7B6C57",
"r. c #6E7757",
"t. c #7D795C",
"y. c #5D6160",
"u. c #915E43",
"i. c #936148",
"p. c #806657",
"a. c #976A53",
"s. c #8B765C",
"d. c #877456",
"f. c #9A795C",
"g. c #977459",
"h. c #A07C5C",
"j. c #B17A5C",
"k. c #8A7364",
"l. c #857A69",
"z. c #9A7C64",
"x. c #7E8866",
"c. c #8D8A6B",
"v. c #948575",
"b. c #9D8A74",
"n. c #99987A",
"m. c #958466",
"M. c #A7876C",
"N. c #B98A6C",
"B. c #AC8C76",
"V. c #A38A79",
"C. c #B38C71",
"Z. c #B88B72",
"A. c #AA937D",
"S. c #A99276",
"D. c #BD9376",
"F. c #B9957D",
"G. c #CB9A7A",
"H. c #AB9B85",
"J. c #AA9784",
"K. c #BE9F82",
"L. c #B19F95",
"P. c #ABA283",
"I. c #B6A58A",
"U. c #BAA286",
"Y. c #B5A192",
"T. c #B7B4A5",
"R. c #C39D86",
"E. c #C2A18B",
"W. c #CAA289",
"Q. c #D8A787",
"!. c #C4AC92",
"~. c #CCAC92",
"^. c #CAAB96",
"/. c #D9AC91",
"(. c #CCB39D",
"). c #DBB49B",
"_. c #D5B59B",
"`. c #E5B69A",
"'. c #C9B9A9",
"]. c #D4BAA3",
"[. c #D6B5A4",
"{. c #E8BDA5",
"}. c #DEC7A9",
"|. c #E9C8AC",
" X c #EDC9B9",
".X c #FBD4B9",
"XX c #DCD2C6",
"oX c #E3CFC4",
"OX c #E9DECA",
"+X c #F3D9CB",
"@X c #ECE4D9",
/* pixels */
"                                                                                          ",
"                                                                                          ",
"                                                                                          ",
"                                                                                          ",
"                                                                                          ",
"                                                                                          ",
"                                      f l n n n                                           ",
"                                  m m m @.@.X.: 8.                                        ",
"                                  ] ] d.}.}.].I.c.x.                                      ",
"                                i ` *.f.).)..X_.P.r.                                      ",
"                                a ' $.Z.N.%.C.|.d.0.                                      ",
"                              o _ } $.i.( u / ' z 0.                                      ",
"                            . L ] *.a./.u./ %.g.` t. .                                    ",
"                          o o v [ z.{.{..X`.).K.m.n.r.9.                                  ",
"                        . . 0 X &.M.E.W./.D.|.~.S.n.P 2.| d d ; * o o o . . .       .     ",
"                    o . . > 7 , Y.(.B.~.).C.F.!.s.t.w.8.* H j . . . . . . . . . . . . . . ",
"                  o . . O ,.7 x #.+Xp.V.[. X(.E.t 6.l.l.p O % x , % 9 o . . . . X X X .   ",
"                  o . 7 <.r :.& F L.oXk.Y.'.+XJ.) y V.v.'.6.b : X c o . *                 ",
"                  . . 9 C ! T D K +.@XXXv.l.H.e.t ) A.^.(.].[.k.7.<                       ",
"                  . O r :.R ^ C D = Z +.J c v @.&.7.A.~.R.).Z.B.H.3.                      ",
"                  . . # D T S D Z G G E G L c +.OXH.z.~.M.N.j.Z.A.3.                      ",
"                    . O T D S ! ^ ~ ~ E G G 0 J '.e.b.B.D.G.Q.Q.I.                        ",
"                    . . B C S ! ! T ;.~ ;.E Z W T.p o.s.f.h.N.f.q.                        ",
"                    . . 7 B S S T T D Q D D r K 1.X : b.!.U.M.s.                          ",
"                    . . r 7 r r r s 8 M 4 # 8 B & 0 % 3.@.i 0.                            ",
"                      . B B r 7 7 x 7 r U # -.w U V & 0 x <                               ",
"                      . r 7 T B D C ..^ -.D A 8 S . Z E j                                 ",
"                      . 8 S C h h C Y :.T q q I . r O ; ;                                 ",
"                    > . S r B C r Y T Y D . #     o .                                     ",
"                    o . 7 C r r 7 D >.C G h = h                                           ",
"                    . O s B T r M T ! D h k *                                             ",
"                  o . . B 7 7 S U U -.<.B = .                                             ",
"                  . . 7 T I r I :.T ! -.# 8 .                                             ",
"                  . . # 7 B A B ^ :.T 4 D 7 9 .                                           ",
"                  . . 7 D S D T :.:.:.B 4 # # = .                                         ",
"                    . . 8 r ^ C e 7 . r r C 7 = - .                                       ",
"                    . O M V D ! N . = r r ,.~ e N o o                                     ",
"                    . . ^ R :.C x T 5 . # e ;.T ^ E *                                     ",
"                    O . T ^ ^ B r . . 7 e e ! I ^ K E -                                   ",
"                    . O 7 ^ Q C 0 . . y.7 Y w I -.S W o                                   ",
"                    . . r T O.0 s $ + r e e B I w V D .                                   ",
"                    o . # Q ^ R V X V 7 3 r ! T T T O.k                                   ",
"                    . . B ^ ! S T 4 r S D ! T Q Q >...*                                   ",
"                  . . 7 T ! D ,.r $ 7 ! ,.^ G Z >.h g                                     ",
"                  o . = T ! 4.Q # ^ 7 D E ~ 9 = g                                         ",
"                  . . r :.,.5.! 3 =.~ . 7 =                                               ",
"                o o . ^ :.! :.7 I ;.7 O . .                                               ",
"                o . + :.T S A # 5 @ @                                                     ",
"              . . . + ! 3 r # e . o                                                       ",
"              o . . D :.# # . . o                                                         ",
"              o . . W T . > .                                                             ",
"            g . . R { . 0 .                                                               ",
"            @ # . Q R 4 q .                                                               ",
"            . . 3 3 q . 7 .                                                               ",
"            . 3 + T + 7 B .                                                               ",
"            @ + + + 2 6 e 6 .                                                             ",
"            @ + 2 2 + + 6 @                                                               ",
"                                                                                          ",
"                                                                                          ",
"                                                                                          ",
"                                                                                          ",
"                                                                                          ",
"                                                                                          ",
"                                                                                          "
};
