/* XPM */
static char *_154f8babecb4ee6d79a80ce9143801frhJpVkTRletozOzk[] = {
/* columns rows colors chars-per-pixel */
"64 64 192 2 ",
"   c #ADD8E6",
".  c #020203",
"X  c #070709",
"o  c #0A060B",
"O  c #0C0B0D",
"+  c #080705",
"@  c #120502",
"#  c #1A0C03",
"$  c #130D0D",
"%  c #170C01",
"&  c #14120E",
"*  c #0E0E13",
"=  c #110D14",
"-  c #0F1014",
";  c #141315",
":  c #181616",
">  c #1D1A16",
",  c #161619",
"<  c #191519",
"1  c #161A1A",
"2  c #1C1B1C",
"3  c #210A00",
"4  c #2A0F06",
"5  c #25180B",
"6  c #361709",
"7  c #231612",
"8  c #231C14",
"9  c #2B1914",
"0  c #221D1D",
"q  c #281E1A",
"w  c #331C14",
"e  c #1B201E",
"r  c #22211E",
"t  c #2B251C",
"y  c #2B2417",
"u  c #34291D",
"i  c #34251C",
"p  c #1E1E21",
"a  c #161E20",
"s  c #221E21",
"d  c #1E2323",
"f  c #242324",
"g  c #292526",
"h  c #262927",
"j  c #2D2924",
"k  c #262529",
"l  c #292629",
"z  c #262A2C",
"x  c #2C2B2C",
"c  c #332D25",
"v  c #3D2D23",
"b  c #322D2D",
"n  c #382A24",
"m  c #32312D",
"M  c #39342A",
"N  c #2E2E30",
"B  c #312F32",
"V  c #2D3433",
"C  c #263030",
"Z  c #333333",
"A  c #393636",
"S  c #3C3C35",
"D  c #363639",
"F  c #393638",
"G  c #353939",
"H  c #3C3B3C",
"J  c #363932",
"K  c #4F1204",
"L  c #5C1E04",
"P  c #490604",
"I  c #631E0F",
"U  c #49220E",
"Y  c #4B2918",
"T  c #532C17",
"R  c #512F1E",
"E  c #5A3116",
"W  c #6A3A1D",
"Q  c #422C25",
"!  c #423223",
"~  c #4B3424",
"^  c #48372D",
"/  c #563A2B",
"(  c #413D34",
")  c #423D3B",
"_  c #593F35",
"`  c #633920",
"'  c #6A3420",
"]  c #3E413F",
"[  c #43413A",
"{  c #4C423B",
"}  c #5D4435",
"|  c #5B453B",
" . c #5E4A39",
".. c #54443D",
"X. c #684025",
"o. c #7D4422",
"O. c #794629",
"+. c #644434",
"@. c #6A4636",
"#. c #684C3A",
"$. c #7C4F34",
"%. c #714E3C",
"&. c #714930",
"*. c #7B553C",
"=. c #715138",
"-. c #3F3E41",
";. c #413F41",
":. c #3E4142",
">. c #434244",
",. c #4A4647",
"<. c #4B494B",
"1. c #474748",
"2. c #594C47",
"3. c #524E51",
"4. c #7B5A43",
"5. c #735649",
"6. c #775946",
"7. c #735C54",
"8. c #75604D",
"9. c #72645A",
"0. c #7E6451",
"q. c #796F67",
"w. c #7F7A73",
"e. c #874623",
"r. c #95522C",
"t. c #945631",
"y. c #9C613E",
"u. c #A5613A",
"i. c #865E4B",
"p. c #8D5E45",
"a. c #8B634D",
"s. c #82604B",
"d. c #956649",
"f. c #8B695A",
"g. c #936E5C",
"h. c #916955",
"j. c #9D755E",
"k. c #B36E4A",
"l. c #B4734D",
"z. c #AD7351",
"x. c #A8765D",
"c. c #B87958",
"v. c #997767",
"b. c #A37961",
"n. c #AA7C64",
"m. c #A17C69",
"M. c #AA7E6A",
"N. c #B87E62",
"B. c #BC815E",
"V. c #9F816F",
"C. c #978376",
"Z. c #AD846E",
"A. c #B48267",
"S. c #BD886E",
"D. c #AC8C76",
"F. c #A58C7D",
"G. c #AB8A77",
"H. c #B58A75",
"J. c #BB8C74",
"K. c #B48A77",
"L. c #BC927A",
"P. c #C28D74",
"I. c #C98F76",
"U. c #C0947C",
"Y. c #CE967B",
"T. c #CA9A7E",
"R. c #D49B7D",
"E. c #D19774",
"W. c #C88E6A",
"Q. c #908880",
"!. c #A58B81",
"~. c #BB9787",
"^. c #A89284",
"/. c #BEA18F",
"(. c #B4A397",
"). c #BCAFA5",
"_. c #BEB4AA",
"`. c #CC9F89",
"'. c #C99D85",
"]. c #CBA18A",
"[. c #D5A489",
"{. c #CDAA95",
"}. c #DDAE96",
"|. c #E6AA86",
" X c #E1AD92",
".X c #E0B197",
"XX c #F4BE9E",
"oX c #C6B2A4",
"OX c #D8B8A5",
"+X c #F0BDA0",
"@X c #FCC39F",
"#X c #F3C3A6",
/* pixels */
"                                                                                                                                ",
"                                                                                                                                ",
"                                                                                                                                ",
"                                                                                                                                ",
"                                                                  a.*.*.=.+.} }                                                 ",
"                                                                W W O.$.$.&.@.} |                                               ",
"                                                              ` W o.y.W.[.T.Z.f.7.                                              ",
"                                                            T E o.t.l.|.@XXX}.~.                                                ",
"                                                            ` W o.r.u.k.c.c.A.Z.f.                                              ",
"                                                            *.$.o.e.r.I P K ' $.@.+.                                            ",
"                                                          #.*.p.d.z.c.e.L L O.p.%.@.                                            ",
"                                                         .5.4.a.A.R.|.E.B.z.x.n.i.                                              ",
"                                                    u u ~ #.6.g.L.}.#X#X+X X'.J.                                  >.1.>.>.,.<.3.",
"                                              2 > 8 5 % 5 ! 8.D.G.~.{.L.H.L.J.n.a.         .^ v u y 8 t t r 8 > r 2 ; = O O o o ",
"                                            2 2 2 j M 8 5 ! C.oXF.F./.OXOX].'.Z.X.E       0.~ 3 # @ @ # 8 t > & 2 2 2 ; ; , = O ",
"                                          : ; 2 x S ( c y y 9.(.oX(.^.oXOX{.{.m.U U *.b.D.m.s./ R 6 3 5 i                       ",
"                                          2 ; ; Z ) ( ( c 8 M 9._.).C.C.C.F.V.4.6 T a.H.'.].U.Z.j.4./ ~                         ",
"                                          z ; ; x S ] [ J t > m w.Q.q...^ | #.+.R %.M.`.}.}..X}.[.].{.                          ",
"                                            ; , x A S J m x m m j c c n i u / 5.v.K.~.`.'.P.Y.Y.N.S.[.                          ",
"                                            ; , k V J Z V J H H S b j ( { ^ v } ~.~.m.K.U.J.P.I.R.Y.U.D.                        ",
"                                            = ; 2 k V V V H :.] D A H [ ( v Q 2.!.v.+.g.K.J.J.P.Y.S.b.Z.                        ",
"                                              = = 2 z C V V G G x A H m t q v ..9._ 6 5.v.Z.Z.M.n.x.h.                          ",
"                                              = * ; 1 d d a d z V x f 2 > 7 7 9 n w 4 ~ 5.g.h.i.v.                              ",
"                                              = . * d d d 1 1 1 2 ; ; 2 r q q q 9 9 9 w Q / ~ Y                                 ",
"                                              = o 2 x e 1 2 d f h x V Z Z x g q 7 7 7 9 w w w w                                 ",
"                                              ; = p x 2 1 d z Z S ] H Z z g g   0 7 7 7 7 7 9                                   ",
"                                              , , p k e 2 r x S >.>.A d 2 p         0 $ $                                       ",
"                                              ; = < r r r 2 x S -.H Z N x k                                                     ",
"                                              = < 0 f r 2 0 z A S H D D z -                                                     ",
"                                            < < 2 0 0 2 r x m Z H D N x f ,                                                     ",
"                                            < 2 s s 0 0 g Z Z Z S S Z k p f                                                     ",
"                                            = < g x x x z z Z S Z S H x 2 2                                                     ",
"                                            o O s l z x Z H ;.>.>.z O 2 f , 2                                                   ",
"                                            O O ; 2 k N A A Z x x k s 2 s x f < &                                               ",
"                                            ; ; , p k N Z N f ; O , f f g A H A f 2                                             ",
"                                              , f x Z Z Z x 2 O o O ; f x Z ,.3.) x 0 >                                         ",
"                                              ; z S >.H Z x k k S k $ ; f Z b b ) >.A : +                                       ",
"                                              ; h D >.:.D x N         A b 2 s l g Z H f ;                                       ",
"                                              ; 2 x H >.F s l       b F b < 2 s f f k p , *                                     ",
"                                              ; 1 x H >.A f k x g f f g g s f l B x f k p O                                     ",
"                                            O ; f Z H S A A x 2 ; 2 f s s l Z -.>.H Z N k                                       ",
"                                            O * f z x >.>.Z : o 2 g Z A H 1.3.<.Z l 0 O o                                       ",
"                                            ; 2 Z Z z H H z 2 ; < f Z H H A g 2 ; ; ;                                           ",
"                                          ; ; p S S Z Z B k g k 2 2 2 s 0 2 ; X .                                               ",
"                                          O , k S ;.H A z 2 z x 2 ; O . . o                                                     ",
"                                        O O p Z H >.>.H x = ; 2 ; :                                                             ",
"                                      , ; ; N >.H D Z Z z ; O $                                                                 ",
"                                      ; ; 2 Z >.H A x x k ; ;                                                                   ",
"                                      o ; Z D S H Z k z                                                                         ",
"                                    ; X 2 1.H N S x ;                                                                           ",
"                                    X f N N H -.Z z 2                                                                           ",
"                                    O ; 2 k D D ; O                                                                             ",
"                                  O o O , f N x ; ;                                                                             ",
"                                  X . O ; ; 2 2 ; ;                                                                             ",
"                                  . . . . X . . . . .                                                                           ",
"                                                                                                                                ",
"                                                                                                                                ",
"                                                                                                                                ",
"                                                                                                                                ",
"                                                                                                                                ",
"                                                                                                                                ",
"                                                                                                                                ",
"                                                                                                                                ",
"                                                                                                                                "
};
