/* XPM */
static char *result[] = {
/* columns rows colors chars-per-pixel */
"54 64 181 2 ",
"   c #020202",
".  c #090002",
"X  c #060806",
"o  c #090907",
"O  c #050908",
"+  c #0C0C0C",
"@  c #140402",
"#  c #190C03",
"$  c #0D110F",
"%  c #1A1007",
"&  c #1B140D",
"*  c #13100C",
"=  c #180B12",
"-  c #0F1311",
";  c #131413",
":  c #1A1615",
">  c #191917",
",  c #161619",
"<  c #191718",
"1  c #171C18",
"2  c #1C1C1C",
"3  c #161815",
"4  c #2E0100",
"5  c #221409",
"6  c #29180C",
"7  c #341304",
"8  c #381400",
"9  c #35190D",
"0  c #251A15",
"q  c #241D19",
"w  c #231314",
"e  c #311F11",
"r  c #34240C",
"t  c #362405",
"y  c #24231F",
"u  c #3B2216",
"i  c #35211A",
"p  c #1D1D20",
"a  c #211F20",
"s  c #1E2023",
"d  c #232323",
"f  c #2A2624",
"g  c #262827",
"h  c #292826",
"j  c #2C2C2C",
"k  c #25272A",
"l  c #332F2E",
"z  c #362B25",
"x  c #34312E",
"c  c #3D332A",
"v  c #2D2E30",
"b  c #312F30",
"n  c #2B343B",
"m  c #343334",
"M  c #3A3535",
"N  c #363837",
"B  c #3B3A37",
"V  c #363638",
"C  c #383639",
"Z  c #3B3A3A",
"A  c #373B3A",
"S  c #462F19",
"D  c #4E3314",
"F  c #483519",
"G  c #58321B",
"H  c #68361D",
"J  c #463426",
"K  c #563820",
"L  c #573B27",
"P  c #403732",
"I  c #433F3D",
"U  c #4D3831",
"Y  c #603B20",
"T  c #693B24",
"R  c #58401E",
"E  c #5A4729",
"W  c #43413E",
"Q  c #534137",
"!  c #65422F",
"~  c #644434",
"^  c #654B3A",
"/  c #7E4E38",
"(  c #764D3B",
")  c #77553B",
"_  c #3F3F41",
"`  c #3E4444",
"'  c #424142",
"]  c #494748",
"[  c #4A4A4A",
"{  c #464746",
"}  c #5C4D48",
"|  c #525252",
" . c #5D5C54",
".. c #625647",
"X. c #785B49",
"o. c #635C52",
"O. c #74614A",
"+. c #6D6A59",
"@. c #7D6A59",
"#. c #6D6E68",
"$. c #75726B",
"%. c #7A7A72",
"&. c #8D5C3E",
"*. c #905E45",
"=. c #846C4A",
"-. c #916344",
";. c #90664E",
":. c #806E56",
">. c #886A59",
",. c #82715F",
"<. c #A16B47",
"1. c #AD7C5D",
"2. c #A07356",
"3. c #B27B5C",
"4. c #8D7E67",
"5. c #947464",
"6. c #AE7F63",
"7. c #A3865E",
"8. c #B2805F",
"9. c #9F856E",
"0. c #978577",
"q. c #9C8A74",
"w. c #A48662",
"e. c #B5846E",
"r. c #B78A6D",
"t. c #BF8C6D",
"y. c #BC8565",
"u. c #BE946C",
"i. c #A58970",
"p. c #AF8C70",
"a. c #AC8E78",
"s. c #AB8771",
"d. c #B78874",
"f. c #B2937B",
"g. c #BC9377",
"h. c #C3917A",
"j. c #CA9673",
"k. c #D6A37D",
"l. c #918C86",
"z. c #949083",
"x. c #959188",
"c. c #9B9995",
"v. c #AA988A",
"b. c #BA9886",
"n. c #A5A592",
"m. c #BFA297",
"M. c #BEB096",
"N. c #B3ABA0",
"B. c #B5B3A2",
"V. c #C89B87",
"C. c #D69F81",
"Z. c #C3A185",
"A. c #CCA387",
"S. c #DBA384",
"D. c #D6A886",
"F. c #D7A78D",
"G. c #CAB48F",
"H. c #C1A798",
"J. c #C3A695",
"K. c #D7AD94",
"L. c #CFBB9A",
"P. c #DEB798",
"I. c #D6B596",
"U. c #E1AC87",
"Y. c #E8B48F",
"T. c #E1B99F",
"R. c #EABC9A",
"E. c #D3B4A2",
"W. c #E5BFA3",
"Q. c #D6C29F",
"!. c #EBC39F",
"~. c #DFC4A8",
"^. c #CDC4BD",
"/. c #D5C6B6",
"(. c #E7CAAC",
"). c #FFD5AB",
"_. c #F1C8B6",
"`. c #FDD2BF",
"'. c #E3D3C6",
"]. c #FAD8C1",
"[. c None",
/* pixels */
"[.[.[.[.[.[.[.[.[.[.[.[.[.[.[.[.[.[.[.[.[.[.[.[.[.[.[.[.[.[.[.[.[.[.[.[.[.[.[.[.[.[.[.[.[.[.[.[.[.[.[.[.[.[.",
"[.[.[.[.[.[.[.[.[.[.[.[.[.[.[.[.[.[.[.[.[.[.[.[.[.[.[.[.[.[.[.[.[.[.[.[.[.[.[.[.[.[.[.[.[.[.[.[.[.[.[.[.[.[.",
"[.[.[.[.[.[.[.[.[.[.[.[.[.[.[.[.[.[.[.[.[.[.[.[.[.[.[.[.[.[.[.[.[.[.[.[.[.[.[.[.[.[.[.[.[.[.[.[.[.[.[.[.[.[.",
"[.[.[.[.[.[.[.[.[.[.[.[.[.[.[.[.[.[.[.[.[.[.[.[.[.[.[.[.[.[.[.[.[.[.[.[.[.[.[.[.[.[.[.[.[.[.[.[.[.[.[.[.[.[.",
"[.[.[.[.[.[.[.[.[.[.[.[.[.[.[.[.[.[.[.[.[.[.S E F t r [.[.[.[.[.[.[.[.[.[.[.[.[.[.[.[.[.[.[.[.[.[.[.[.[.[.[.",
"[.[.[.[.[.[.[.[.[.[.[.[.[.[.[.[.[.[.[.[.i 7 G ) R D t [.[.[.[.[.[.[.[.[.[.[.[.[.[.[.[.[.[.[.[.[.[.[.[.[.[.[.",
"[.[.[.[.[.[.[.[.[.[.[.[.[.[.[.[.[.[.[.& 9 ! s.(.G.(.i.[.[.[.[.[.[.[.[.[.[.[.[.[.[.[.[.[.[.[.[.[.[.[.[.[.[.[.",
"[.[.[.[.[.[.[.[.[.[.[.[.[.[.[.[.[.[.[.6 ! ( ;.K.Z.`.L.@.[.[.[.[.[.[.[.[.[.[.[.[.[.[.[.[.[.[.[.[.[.[.[.[.[.[.",
"[.[.[.[.[.[.[.[.[.[.[.[.[.[.[.[.[.[.[.r Y T e.r.Y f.H.,.[.[.[.[.[.[.[.[.[.[.[.[.[.[.[.[.[.[.[.[.[.[.[.[.[.[.",
"[.[.[.[.[.[.[.[.[.[.[.[.[.[.[.[.[.[.[.L / T *.4 8 D F ..[.[.[.[.[.[.[.[.[.[.[.[.[.[.[.[.[.[.[.[.[.[.[.[.[.[.",
"[.[.[.[.[.[.[.[.[.[.[.[.[.[.[.[.[.[.[.( / e.U.-.8 =.O.+.[.[.[.[.[.[.[.[.[.[.[.[.[.[.[.[.[.[.[.[.[.[.[.[.[.[.",
"[.[.[.[.[.[.[.[.[.[.[.[.[.[.[.[.[.[.U } h.S.Y.).P.G.M.n.[.[.[.[.[.[.[.[.[.[.[.[.[.[.[.[.[.[.[.[.[.[.[.[.[.[.",
"[.[.[.[.[.[.[.[.[.[.[.[.[.[.[.  = @ w 5.6.k.k.u.7.Q.q.B.[.[.[.n d $ O     [.                    [.[.[.[.[.[.",
"[.[.[.[.[.[.[.[.[.[.[.[.[.    ; . w e J.d.t.!.!.7.L.0.q.[.[.[.s V o O     o +   o               [.[.[.[.[.[.",
"[.[.[.[.[.[.[.[.[.[.[.[.[.    < I c & >.].*.2.!.(.(.q.X z.[.c.3 X   o ; d ; + o   o             [.[.[.[.[.[.",
"[.[.[.[.[.[.[.[.[.[.[.[.[.  ; M m l & J E.].>.a././.0.@ c v.b.b.U z 0 0 [.[.[.[.[.[.[.[.[.[.[.[.[.[.[.[.[.[.",
"[.[.[.[.[.[.[.[.[.[.[.[.[.  d Z Z B l P } '.^.l. .$. .6 O.b.t.D.E.I.5.m.[.[.[.[.[.[.[.[.[.[.[.[.[.[.[.[.[.[.",
"[.[.[.[.[.[.[.[.[.[.[.[.[.  2 V Z M ' M q z k k g -  .o.w.Q.k.U.k.1.K.[.[.[.[.[.[.[.[.[.[.[.[.[.[.[.[.[.[.[.",
"[.[.[.[.[.[.[.[.[.[.[.[.[.  2 Z C b Z Z I l v Z ` s %.^.i.p.D.;.j.3.F._.[.[.[.[.[.[.[.[.[.[.[.[.[.[.[.[.[.[.",
"[.[.[.[.[.[.[.[.[.[.[.[.[.  ; V Z _ m M I { ' _ ` 1 #.M.@.f.g.u.y.k.h.V.[.[.[.[.[.[.[.[.[.[.[.[.[.[.[.[.[.[.",
"[.[.[.[.[.[.[.[.[.[.[.[.[.  O j v C l Z M P Z B n 3 c.x.# ^ f.A.j.3.*.g.[.[.[.[.[.[.[.[.[.[.[.[.[.[.[.[.[.[.",
"[.[.[.[.[.[.[.[.[.[.[.[.[.[.O 2 j d d l f f h g 1 1 { x . e J.b.6.1.V.[.[.[.[.[.[.[.[.[.[.[.[.[.[.[.[.[.[.[.",
"[.[.[.[.[.[.[.[.[.[.[.[.[.[.- , p p 2 2 : : 2 q s g - + q % Q u G [.[.[.[.[.[.[.[.[.[.[.[.[.[.[.[.[.[.[.[.[.",
"[.[.[.[.[.[.[.[.[.[.[.[.[.[.< 2 p p s d f j y j y m   d y & 0 5 X.[.[.[.[.[.[.[.[.[.[.[.[.[.[.[.[.[.[.[.[.[.",
"[.[.[.[.[.[.[.[.[.[.[.[.[.[.d 2 p a p k M b b m f A [.O 3 f f # [.[.[.[.[.[.[.[.[.[.[.[.[.[.[.[.[.[.[.[.[.[.",
"[.[.[.[.[.[.[.[.[.[.[.[.[.[.; d k k a p C l b m + f [.[.N d q $ [.[.[.[.[.[.[.[.[.[.[.[.[.[.[.[.[.[.[.[.[.[.",
"[.[.[.[.[.[.[.[.[.[.[.[.[.[.o V p a k a m C v b ; [.[.[.[.[.[.[.[.[.[.[.[.[.[.[.[.[.[.[.[.[.[.[.[.[.[.[.[.[.",
"[.[.[.[.[.[.[.[.[.[.[.[.[.[.  2 d k p p b _ b V   - [.[.[.[.[.[.[.[.[.[.[.[.[.[.[.[.[.[.[.[.[.[.[.[.[.[.[.[.",
"[.[.[.[.[.[.[.[.[.[.[.[.[.2 o a ' V f a C ' V b d O [.[.[.[.[.[.[.[.[.[.[.[.[.[.[.[.[.[.[.[.[.[.[.[.[.[.[.[.",
"[.[.[.[.[.[.[.[.[.[.[.[.[.; d d < 2 a f C _ k V d [.[.[.[.[.[.[.[.[.[.[.[.[.[.[.[.[.[.[.[.[.[.[.[.[.[.[.[.[.",
"[.[.[.[.[.[.[.[.[.[.[.[.[.+ ; j < d Z { _ V , p 1 [.[.[.[.[.[.[.[.[.[.[.[.[.[.[.[.[.[.[.[.[.[.[.[.[.[.[.[.[.",
"[.[.[.[.[.[.[.[.[.[.[.[.[.; j d 2 j Z ] ' C - , ; + [.[.[.[.[.[.[.[.[.[.[.[.[.[.[.[.[.[.[.[.[.[.[.[.[.[.[.[.",
"[.[.[.[.[.[.[.[.[.[.[.[.[.; + ; d j m Z [ [ , ;   + [.[.[.[.[.[.[.[.[.[.[.[.[.[.[.[.[.[.[.[.[.[.[.[.[.[.[.[.",
"[.[.[.[.[.[.[.[.[.[.[.[.[.; o m j j d 2 d + j ; 2 [.[.[.[.[.[.[.[.[.[.[.[.[.[.[.[.[.[.[.[.[.[.[.[.[.[.[.[.[.",
"[.[.[.[.[.[.[.[.[.[.[.[.[.; + b _ N m j ; 2 m g ; [.[.[.[.[.[.[.[.[.[.[.[.[.[.[.[.[.[.[.[.[.[.[.[.[.[.[.[.[.",
"[.[.[.[.[.[.[.[.[.[.[.[.[.$   j d h m j + j ; ; + [.[.[.[.[.[.[.[.[.[.[.[.[.[.[.[.[.[.[.[.[.[.[.[.[.[.[.[.[.",
"[.[.[.[.[.[.[.[.[.[.[.[.[.[.  : j N Z Z m d m ; 2 [.[.[.[.[.[.[.[.[.[.[.[.[.[.[.[.[.[.[.[.[.[.[.[.[.[.[.[.[.",
"[.[.[.[.[.[.[.[.[.[.[.[.[.[.2 $ j m V Z j ; Z ; ; [.[.[.[.[.[.[.[.[.[.[.[.[.[.[.[.[.[.[.[.[.[.[.[.[.[.[.[.[.",
"[.[.[.[.[.[.[.[.[.[.2 ; + + ; $ m j Z W j m m ; ; [.[.[.[.[.[.[.[.[.[.[.[.[.[.[.[.[.[.[.[.[.[.[.[.[.[.[.[.[.",
"[.[.[.[.[.[.[.[.[.[.  <     o ; j j A Z Z ' 2 ; 2 [.[.[.[.[.[.[.[.[.[.[.[.[.[.[.[.[.[.[.[.[.[.[.[.[.[.[.[.[.",
"[.[.[.[.[.[.[.[.[.2 , $ : d a b 2 d d j Z Z d   [.[.[.[.[.[.[.[.[.[.[.[.[.[.[.[.[.[.[.[.[.[.[.[.[.[.[.[.[.[.",
"[.[.[.[.[.[.[.[.; o + ;   ; m ' + d m 2 2 Z d ; [.[.[.[.[.[.[.[.[.[.[.[.[.[.[.[.[.[.[.[.[.[.[.[.[.[.[.[.[.[.",
"[.[.[.[.[.[.[.[.+ 2   2 + $ < $ 2 2 2 j d j d o [.[.[.[.[.[.[.[.[.[.[.[.[.[.[.[.[.[.[.[.[.[.[.[.[.[.[.[.[.[.",
"[.[.[.[.[.[.[.+   + [.[.[.$   $     ; d d d 2 - [.[.[.[.[.[.[.[.[.[.[.[.[.[.[.[.[.[.[.[.[.[.[.[.[.[.[.[.[.[.",
"[.[.[.[.[.[.[.[.[.[.[.[.[.[.;   + o < a q s s 2 o [.[.[.[.[.[.[.[.[.[.[.[.[.[.[.[.[.[.[.[.[.[.[.[.[.[.[.[.[.",
"[.[.[.[.[.[.[.[.[.[.[.[.[.[.[.[.[.[.[.  , < j j 2 [.[.[.[.[.[.[.[.[.[.[.[.[.[.[.[.[.[.[.[.[.[.[.[.[.[.[.[.[.",
"[.[.[.[.[.[.[.[.[.[.[.[.[.[.[.[.[.[.[.; O f m g ; [.[.[.[.[.[.[.[.[.[.[.[.[.[.[.[.[.[.[.[.[.[.[.[.[.[.[.[.[.",
"[.[.[.[.[.[.[.[.[.[.[.[.[.[.[.[.[.[.[.+ 2 [ | j k [.[.[.[.[.[.[.[.[.[.[.[.[.[.[.[.[.[.[.[.[.[.[.[.[.[.[.[.[.",
"[.[.[.[.[.[.[.[.[.[.[.[.[.[.[.[.[.[.[.  2 | [ k ; + [.[.[.[.[.[.[.[.[.[.[.[.[.[.[.[.[.[.[.[.[.[.[.[.[.[.[.[.",
"[.[.[.[.[.[.[.[.[.[.[.[.[.[.[.[.[.[.[.[.2 ; [ j q p [.[.[.[.[.[.[.[.[.[.[.[.[.[.[.[.[.[.[.[.[.[.[.[.[.[.[.[.",
"[.[.[.[.[.[.[.[.[.[.[.[.[.[.[.[.[.[.[.[.; d | m m 2 [.[.[.[.[.[.[.[.[.[.[.[.[.[.[.[.[.[.[.[.[.[.[.[.[.[.[.[.",
"[.[.[.[.[.[.[.[.[.[.[.[.[.[.[.[.[.[.[.[.+ 2 V Z Z m [.[.[.[.[.[.[.[.[.[.[.[.[.[.[.[.[.[.[.[.[.[.[.[.[.[.[.[.",
"[.[.[.[.[.[.[.[.[.[.[.[.[.[.[.[.[.[.[.[.+ 2 Z Z j o [.[.[.[.[.[.[.[.[.[.[.[.[.[.[.[.[.[.[.[.[.[.[.[.[.[.[.[.",
"[.[.[.[.[.[.[.[.[.[.[.[.[.[.[.[.[.[.[.[.+ 2 2 [ j $ [.[.[.[.[.[.[.[.[.[.[.[.[.[.[.[.[.[.[.[.[.[.[.[.[.[.[.[.",
"[.[.[.[.[.[.[.[.[.[.[.[.[.[.[.[.[.[.[.[.o o d Z d + [.[.[.[.[.[.[.[.[.[.[.[.[.[.[.[.[.[.[.[.[.[.[.[.[.[.[.[.",
"[.[.[.[.[.[.[.[.[.[.[.[.[.[.[.[.[.[.[.[.[.O 2 2   ; ; + [.[.[.[.[.[.[.[.[.[.[.[.[.[.[.[.[.[.[.[.[.[.[.[.[.[.",
"[.[.[.[.[.[.[.[.[.[.[.[.[.[.[.[.[.[.[.[.[.[.  o + ; < 2   [.[.[.[.[.[.[.[.[.[.[.[.[.[.[.[.[.[.[.[.[.[.[.[.[.",
"[.[.[.[.[.[.[.[.[.[.[.[.[.[.[.[.[.[.[.[.[.[.  2 d a 2 ; + [.[.[.[.[.[.[.[.[.[.[.[.[.[.[.[.[.[.[.[.[.[.[.[.[.",
"[.[.[.[.[.[.[.[.[.[.[.[.[.[.[.[.[.[.[.[.[.[.  +   ; 2 [.[.[.[.[.[.[.[.[.[.[.[.[.[.[.[.[.[.[.[.[.[.[.[.[.[.[.",
"[.[.[.[.[.[.[.[.[.[.[.[.[.[.[.[.[.[.[.[.[.[.;   2 [.[.[.[.[.[.[.[.[.[.[.[.[.[.[.[.[.[.[.[.[.[.[.[.[.[.[.[.[.",
"[.[.[.[.[.[.[.[.[.[.[.[.[.[.[.[.[.[.[.[.[.[.[.[.[.[.[.[.[.[.[.[.[.[.[.[.[.[.[.[.[.[.[.[.[.[.[.[.[.[.[.[.[.[.",
"[.[.[.[.[.[.[.[.[.[.[.[.[.[.[.[.[.[.[.[.[.[.[.[.[.[.[.[.[.[.[.[.[.[.[.[.[.[.[.[.[.[.[.[.[.[.[.[.[.[.[.[.[.[.",
"[.[.[.[.[.[.[.[.[.[.[.[.[.[.[.[.[.[.[.[.[.[.[.[.[.[.[.[.[.[.[.[.[.[.[.[.[.[.[.[.[.[.[.[.[.[.[.[.[.[.[.[.[.[.",
"[.[.[.[.[.[.[.[.[.[.[.[.[.[.[.[.[.[.[.[.[.[.[.[.[.[.[.[.[.[.[.[.[.[.[.[.[.[.[.[.[.[.[.[.[.[.[.[.[.[.[.[.[.[."
};
