/* XPM */
static char *result[] = {
/* columns rows colors chars-per-pixel */
"64 64 201 2 ",
"   c #030303",
".  c #0D0503",
"X  c #030509",
"o  c #0A0708",
"O  c #07080A",
"+  c #0C0B0B",
"@  c #180904",
"#  c #120E0D",
"$  c #1A0E0C",
"%  c #130701",
"&  c #11110F",
"*  c #0E0D11",
"=  c #100E11",
"-  c #0D1215",
";  c #141314",
":  c #1A1513",
">  c #151519",
",  c #19171B",
"<  c #15191A",
"1  c #1C1B1C",
"2  c #1B1817",
"3  c #230D03",
"4  c #290E00",
"5  c #3A0403",
"6  c #22140A",
"7  c #28170B",
"8  c #3B1A02",
"9  c #311A0B",
"0  c #2C1713",
"q  c #241B15",
"w  c #2B1A12",
"e  c #221D1C",
"r  c #221413",
"t  c #331E15",
"y  c #24221E",
"u  c #2E211D",
"i  c #2F2414",
"p  c #322217",
"a  c #392418",
"s  c #1E1E21",
"d  c #221F21",
"f  c #1F2224",
"g  c #1F262A",
"h  c #232324",
"j  c #2A2624",
"k  c #2B2926",
"l  c #252529",
"z  c #252A2C",
"x  c #2B2B2C",
"c  c #282A28",
"v  c #352B24",
"b  c #3A2D24",
"n  c #322D2C",
"m  c #382B2A",
"M  c #2E302F",
"N  c #32302B",
"B  c #3A342B",
"V  c #3E3027",
"C  c #2D2E32",
"Z  c #302F32",
"A  c #2E3232",
"S  c #263032",
"D  c #333334",
"F  c #3A3635",
"G  c #363A33",
"H  c #3C3934",
"J  c #353639",
"K  c #3A363A",
"L  c #353A3B",
"P  c #3C3B3C",
"I  c #4C1A0C",
"U  c #531B0C",
"Y  c #43250D",
"T  c #442511",
"R  c #462819",
"E  c #562313",
"W  c #53341D",
"Q  c #59341A",
"!  c #652C18",
"~  c #683A1E",
"^  c #403429",
"/  c #563A2C",
"(  c #533328",
")  c #413634",
"_  c #433A36",
"`  c #493E36",
"'  c #423D3B",
"]  c #4B3F3A",
"[  c #643F25",
"{  c #6E3420",
"}  c #743B27",
"|  c #56412D",
" . c #4B463D",
".. c #46413D",
"X. c #5C4C3B",
"o. c #5D473F",
"O. c #63442D",
"+. c #664027",
"@. c #664835",
"#. c #734E33",
"$. c #74533B",
"%. c #7B553B",
"&. c #765337",
"*. c #3D3B40",
"=. c #443E43",
"-. c #3F4244",
";. c #424243",
":. c #49494A",
">. c #464749",
",. c #564B42",
"<. c #5F5240",
"1. c #664F44",
"2. c #655444",
"3. c #6C5949",
"4. c #795A45",
"5. c #6C5D53",
"6. c #7C5C51",
"7. c #7F614E",
"8. c #786759",
"9. c #6D6562",
"0. c #7B6E65",
"q. c #7C7067",
"w. c #824E3D",
"e. c #82533C",
"r. c #82644C",
"t. c #8C6549",
"y. c #91654C",
"u. c #836853",
"i. c #896954",
"p. c #926B52",
"a. c #926C5C",
"s. c #976857",
"d. c #8F7058",
"f. c #947257",
"g. c #A26D58",
"h. c #A3765B",
"j. c #A8765F",
"k. c #8E7765",
"l. c #997C66",
"z. c #9B7D6C",
"x. c #997160",
"c. c #8E7C70",
"v. c #AA7E67",
"b. c #B37E69",
"n. c #95816D",
"m. c #9B8874",
"M. c #988575",
"N. c #AE836C",
"B. c #AB8465",
"V. c #BB8264",
"C. c #B3836D",
"Z. c #B8866A",
"A. c #A48D77",
"S. c #AB8A74",
"D. c #A88172",
"F. c #B38D73",
"G. c #BB8E76",
"H. c #B48D7E",
"J. c #AC9277",
"K. c #B69177",
"L. c #BC9276",
"P. c #BA967B",
"I. c #C58565",
"U. c #C08A72",
"Y. c #C99174",
"T. c #C2947B",
"R. c #C79A7B",
"E. c #C99777",
"W. c #D5997A",
"Q. c #9F8D81",
"!. c #AE9884",
"~. c #B59B86",
"^. c #B79C8A",
"/. c #BCA187",
"(. c #BEAA97",
"). c #C89983",
"_. c #D49E87",
"`. c #C6A48A",
"'. c #CAA78C",
"]. c #DBA483",
"[. c #D4A68D",
"{. c #C5AC94",
"}. c #CCAC92",
"|. c #D5AB93",
" X c #DBAC94",
".X c #CAB198",
"XX c #D5B199",
"oX c #DDB39A",
"OX c #D9BA9F",
"+X c #E0A987",
"@X c #E1B18F",
"#X c #E4B392",
"$X c #E4B498",
"%X c #CAB8A5",
"&X c #D7BCA5",
"*X c #EBBAA1",
"=X c #F5C3A8",
"-X c #E7C8B6",
";X c #F0CBB1",
":X c #F7D6BD",
">X c #ADD8E6",
/* pixels */
">X>X>X>X>X>X>X>X>X>X>X>X>X>X>X>X>X>X>X>X>X>X>X>X>X>X>X>X>X>X>X>X>X>X>X>X>X>X>X>X>X>X>X>X>X>X>X>X>X>X>X>X>X>X>X>X>X>X>X>X>X>X>X>X",
">X>X>X>X>X>X>X>X>X>X>X>X>X>X>X>X>X>X>X>X>X>X>X>X>X>X>X>X>X>X>X>X>X>X>X>X>X>X>X>X>X>X>X>X>X>X>X>X>X>X>X>X>X>X>X>X>X>X>X>X>X>X>X>X",
">X>X>X>X>X>X>X>X>X>X>X>X>X>X>X>X>X>X>X>X>X>X>X>X>X>X>X>X>X>X>X>X>X>X>X>X>X>X>X>X>X>X>X>X>X>X>X>X>X>X>X>X>X>X>X>X>X>X>X>X>X>X>X>X",
">X>X>X>X>X>X>X>X>X>X>X>X>X>X>X>X>X>X>X>X>X>X>X>X>X>X>X>X>X>X>X>X>X>X>X>X>X>X>X>X>X>X>X>X>X>X>X>X>X>X>X>X>X>X>X>X>X>X>X>X>X>X>X>X",
">X>X>X>X>X>X>X>X>X>X>X>X>X>X>X>X>X>X>X>X>X>X>Xu.u.4.O.W W O.>X>X>X>X>X>X>X>X>X>X>X>X>X>X>X>X>X>X>X>X>X>X>X>X>X>X>X>X>X>X>X>X>X>X",
">X>X>X>X>X>X>X>X>X>X>X>X>X>X>X>X>X>X>X>X>Xi.7.&.$.%.%.+.[ $.r.>X>X>X>X>X>X>X>X>X>X>X>X>X>X>X>X>X>X>X>X>X>X>X>X>X>X>X>X>X>X>X>X>X",
">X>X>X>X>X>X>X>X>X>X>X>X>X>X>X>X>X>X>X>X$.O.+.#.f.L.R.T.L.L.G.>X>X>X>X>X>X>X>X>X>X>X>X>X>X>X>X>X>X>X>X>X>X>X>X>X>X>X>X>X>X>X>X>X",
">X>X>X>X>X>X>X>X>X>X>X>X>X>X>X>X>X>X>X>X$.W ~ e.R. X$X=X=X*X|.>X>X>X>X>X>X>X>X>X>X>X>X>X>X>X>X>X>X>X>X>X>X>X>X>X>X>X>X>X>X>X>X>X",
">X>X>X>X>X>X>X>X>X>X>X>X>X>X>X>X>X>X>X>Xr.+.#.t.v.v.g.U._._.).H.>X>X>X>X>X>X>X>X>X>X>X>X>X>X>X>X>X>X>X>X>X>X>X>X>X>X>X>X>X>X>X>X",
">X>X>X>X>X>X>X>X>X>X>X>X>X>X>X>X>X>X>Xn.i.#.%.e.! I 5 U ! { %.s.>X>X>X>X>X>X>X>X>X>X>X>X>X>X>X>X>X>X>X>X>X>X>X>X>X>X>X>X>X>X>X>X",
">X>X>X>X>X>X>X>X>X>X>X>X>X>X>X>X>X>X>Xm.d.&.p.B.v.e.U ! { } w.s.>X>X>X>X>X>X>X>X>X>X>X>X>X>X>X>X>X>X>X>X>X>X>X>X>X>X>X>X>X>X>X>X",
">X>X>X>X>X>X>X>X>X>X>X>X>X>X>X>X>X9.q.8.r.f.K.[. XT.v.b.b.g.s.>X>X>X>X>X>X>X>X>X>X>X>X>X>X>X>X>X>X>X>X>X>X>X>X>X>X>X>X>X>X>X>X>X",
">X>X>X>X>X>X>X>X>X>X>X>X>X>X>X>XH  .X.X.u.J.'.XXoX|.[.oXoXT.G.>X>X>X>X>X>X>X>X>X>X>X>X>X>X>X>X>XA J L L K D n >X>X>X>X>X>X>X>X>X",
">X>X>X>X>X>X>X>X>X>X>X>X>X1 2 : + o % 2.m.J.P./.|.`.F.F.K.R.G.>X>X>X>Xa a p 6 $ $ ; # + * , > - - * X * ; ; ; +   >X>X>X>X>X>X>X",
">X>X>X>X>X>X>X>X>X>X>X>X+ & h N G N i X.m.{.J.l.{.&XOX|.'.S.#.8 >X>X>XW Y 4 4 @ . $ e o   + X X X X X X X         >X>X>X>X>X>X>X",
">X>X>X>X>X>X>X>X>X>X>X  + 1 c G  .B 6 i 5.%X%X(.~./..X&X{.f.W 8 %.F.L.B.t.Q R 9 % 6 ] >X>X>X>X>X>X>X>X>X>X>X>X>X>X>X>X>X>X>X>X>X",
">X>X>X>X>X>X>X>X>X>X>X+ ; z S G G G b 6 B M.(.%Xm.k.n.!.A.3.a Y t.E.#X@XR.h.p.r.1.1.>X>X>X>X>X>X>X>X>X>X>X>X>X>X>X>X>X>X>X>X>X>X",
">X>X>X>X>X>X>X>X>X>X>X; 1 z G L N .. .v u V 5.c.8.3.X.X.X.X.| @.f.E.#X+X].].[.XX-X-X>X>X>X>X>X>X>X>X>X>X>X>X>X>X>X>X>X>X>X>X>X>X",
">X>X>X>X>X>X>X>X>X>X>X>X- - S -.B N a k m _ n u a B b $ p 3.m.^.Z.E.].Y.I.I.b.E.;X:X>X>X>X>X>X>X>X>X>X>X>X>X>X>X>X>X>X>X>X>X>X>X",
">X>X>X>X>X>X>X>X>X>X>X>X< X g L c N H ;.=.K F F ` ) B b ..8.Q./.v.B.Y.I.I.W._.T.'.'.>X>X>X>X>X>X>X>X>X>X>X>X>X>X>X>X>X>X>X>X>X>X",
">X>X>X>X>X>X>X>X>X>X>X>X> X s C j Z ' *.*.*.K K ' ' _ v ` 0.c.k.#.t.Z.b.Z.Y.T.F.S.S.>X>X>X>X>X>X>X>X>X>X>X>X>X>X>X>X>X>X>X>X>X>X",
">X>X>X>X>X>X>X>X>X>X>X>X; o > d d x J C C J Z Z D D N q v 5.3./ T #.C.Z.C.b.v.z.z.>X>X>X>X>X>X>X>X>X>X>X>X>X>X>X>X>X>X>X>X>X>X>X",
">X>X>X>X>X>X>X>X>X>X>X>X>Xo ; 2 ; < x C z f z C x h ; $ q v p 7 4 / x.a.x.D.H.>X>X>X>X>X>X>X>X>X>X>X>X>X>X>X>X>X>X>X>X>X>X>X>X>X",
">X>X>X>X>X>X>X>X>X>X>X>X>X# 2 e 1 s s - * ; > > < 1 d j j 0 w w t a R R ( 6.>X>X>X>X>X>X>X>X>X>X>X>X>X>X>X>X>X>X>X>X>X>X>X>X>X>X",
">X>X>X>X>X>X>X>X>X>X>X>X>X: 2 e e d h > s J D x x x x x j j : $ u t 0 3 0 ,.>X>X>X>X>X>X>X>X>X>X>X>X>X>X>X>X>X>X>X>X>X>X>X>X>X>X",
">X>X>X>X>X>X>X>X>X>X>X>X>X; : 2 d h h h z G *.-.*.J M l j >Xr $ d r @ 6 0 >X>X>X>X>X>X>X>X>X>X>X>X>X>X>X>X>X>X>X>X>X>X>X>X>X>X>X",
">X>X>X>X>X>X>X>X>X>X>X>X>X; 2 e h d 1 h h h J >.;.A 2 h >X>X>X>Xr o . >X>X>X>X>X>X>X>X>X>X>X>X>X>X>X>X>X>X>X>X>X>X>X>X>X>X>X>X>X",
">X>X>X>X>X>X>X>X>X>X>X>X>X2 2 1 d 2 = e x D =.>.-.s   h >X>X>X>X>X>X>X>X>X>X>X>X>X>X>X>X>X>X>X>X>X>X>X>X>X>X>X>X>X>X>X>X>X>X>X>X",
">X>X>X>X>X>X>X>X>X>X>X>X>X+ ; 1 x l s 1 c >.P D C x l d s >X>X>X>X>X>X>X>X>X>X>X>X>X>X>X>X>X>X>X>X>X>X>X>X>X>X>X>X>X>X>X>X>X>X>X",
">X>X>X>X>X>X>X>X>X>X>X>X< ; < h l d 1 1 x ;.P D Z x x x >X>X>X>X>X>X>X>X>X>X>X>X>X>X>X>X>X>X>X>X>X>X>X>X>X>X>X>X>X>X>X>X>X>X>X>X",
">X>X>X>X>X>X>X>X>X>X>X>X2 < h h 1 1 h x D P P J x j k Z >X>X>X>X>X>X>X>X>X>X>X>X>X>X>X>X>X>X>X>X>X>X>X>X>X>X>X>X>X>X>X>X>X>X>X>X",
">X>X>X>X>X>X>X>X>X>X>X1 < ; 1 f s h C K ' P H N e y n n >X>X>X>X>X>X>X>X>X>X>X>X>X>X>X>X>X>X>X>X>X>X>X>X>X>X>X>X>X>X>X>X>X>X>X>X",
">X>X>X>X>X>X>X>X>X>X>X1 s f z S z x Z K P =.' n & + ; y j >X>X>X>X>X>X>X>X>X>X>X>X>X>X>X>X>X>X>X>X>X>X>X>X>X>X>X>X>X>X>X>X>X>X>X",
">X>X>X>X>X>X>X>X>X>X>X>X1 - < g C Z x x x F x e : $ + $ >X>X>X>X>X>X>X>X>X>X>X>X>X>X>X>X>X>X>X>X>X>X>X>X>X>X>X>X>X>X>X>X>X>X>X>X",
">X>X>X>X>X>X>X>X>X>X>X>X< o - z J J C h h j 1 : j u : : >X>X>X>X>X>X>X>X>X>X>X>X>X>X>X>X>X>X>X>X>X>X>X>X>X>X>X>X>X>X>X>X>X>X>X>X",
">X>X>X>X>X>X>X>X>X>X>X>X2 O 1 D J D l k d > ; e j j e >X>X>X>X>X>X>X>X>X>X>X>X>X>X>X>X>X>X>X>X>X>X>X>X>X>X>X>X>X>X>X>X>X>X>X>X>X",
">X>X>X>X>X>X>X>X>X>X>X>X1 ; c A h l c x j = 1 h 2 ; # >X>X>X>X>X>X>X>X>X>X>X>X>X>X>X>X>X>X>X>X>X>X>X>X>X>X>X>X>X>X>X>X>X>X>X>X>X",
">X>X>X>X>X>X>X>X>X>X>X>X>Xx h 1 h x P ' D h j n l 1 ; >X>X>X>X>X>X>X>X>X>X>X>X>X>X>X>X>X>X>X>X>X>X>X>X>X>X>X>X>X>X>X>X>X>X>X>X>X",
">X>X>X>X>X>X>X>X>X>X>X>X>XG y : c F ;.;.K x k l C l > >X>X>X>X>X>X>X>X>X>X>X>X>X>X>X>X>X>X>X>X>X>X>X>X>X>X>X>X>X>X>X>X>X>X>X>X>X",
">X>X>X>X>X>X>X>X+ ; 1 1 y y y y y n P P P K l l C d * >X>X>X>X>X>X>X>X>X>X>X>X>X>X>X>X>X>X>X>X>X>X>X>X>X>X>X>X>X>X>X>X>X>X>X>X>X",
">X>X>X>X>X>X>X; * * * o + ; y k : 2 c D ' -.D z l > + >X>X>X>X>X>X>X>X>X>X>X>X>X>X>X>X>X>X>X>X>X>X>X>X>X>X>X>X>X>X>X>X>X>X>X>X>X",
">X>X>X>X>X>X> d K Z , s l D 1 + k x l x K ' P D 1 2 > >X>X>X>X>X>X>X>X>X>X>X>X>X>X>X>X>X>X>X>X>X>X>X>X>X>X>X>X>X>X>X>X>X>X>X>X>X",
">X>X>X>X>XC > = x x s * d =.:.;.c y 1 c x c J D < < l >X>X>X>X>X>X>X>X>X>X>X>X>X>X>X>X>X>X>X>X>X>X>X>X>X>X>X>X>X>X>X>X>X>X>X>X>X",
">X>X>X>X>X= = s x Z z > > d K *.y ; 2 s h h N D ; 2 x >X>X>X>X>X>X>X>X>X>X>X>X>X>X>X>X>X>X>X>X>X>X>X>X>X>X>X>X>X>X>X>X>X>X>X>X>X",
">X>X>X>X>XX > l K >X>XC 2   ; h s 2 < 1 1 h c l ; ; c >X>X>X>X>X>X>X>X>X>X>X>X>X>X>X>X>X>X>X>X>X>X>X>X>X>X>X>X>X>X>X>X>X>X>X>X>X",
">X>X>X>X>XC >X>X>X>X>X>X>Xc l M D x 1 2 h l 1 2 ; < y >X>X>X>X>X>X>X>X>X>X>X>X>X>X>X>X>X>X>X>X>X>X>X>X>X>X>X>X>X>X>X>X>X>X>X>X>X",
">X>X>X>X>X>X>X>X>X>X>X>X>X>X>X>X>X>X>X+ & s y f h 2 + >X>X>X>X>X>X>X>X>X>X>X>X>X>X>X>X>X>X>X>X>X>X>X>X>X>X>X>X>X>X>X>X>X>X>X>X>X",
">X>X>X>X>X>X>X>X>X>X>X>X>X>X>X>X>X>X>X  + ; 1 y c 1 ; < >X>X>X>X>X>X>X>X>X>X>X>X>X>X>X>X>X>X>X>X>X>X>X>X>X>X>X>X>X>X>X>X>X>X>X>X",
">X>X>X>X>X>X>X>X>X>X>X>X>X>X>X>X>X>X>X>X+ + 1 l x h < 1 >X>X>X>X>X>X>X>X>X>X>X>X>X>X>X>X>X>X>X>X>X>X>X>X>X>X>X>X>X>X>X>X>X>X>X>X",
">X>X>X>X>X>X>X>X>X>X>X>X>X>X>X>X>X>X>X>X+ + h G D x l c >X>X>X>X>X>X>X>X>X>X>X>X>X>X>X>X>X>X>X>X>X>X>X>X>X>X>X>X>X>X>X>X>X>X>X>X",
">X>X>X>X>X>X>X>X>X>X>X>X>X>X>X>X>X>X>X>X+ o c ..;...D h 2 >X>X>X>X>X>X>X>X>X>X>X>X>X>X>X>X>X>X>X>X>X>X>X>X>X>X>X>X>X>X>X>X>X>X>X",
">X>X>X>X>X>X>X>X>X>X>X>X>X>X>X>X>X>X>X>X>X- c K D N x 1 ; >X>X>X>X>X>X>X>X>X>X>X>X>X>X>X>X>X>X>X>X>X>X>X>X>X>X>X>X>X>X>X>X>X>X>X",
">X>X>X>X>X>X>X>X>X>X>X>X>X>X>X>X>X>X>X>X>XO 1 M D P K h 2 >X>X>X>X>X>X>X>X>X>X>X>X>X>X>X>X>X>X>X>X>X>X>X>X>X>X>X>X>X>X>X>X>X>X>X",
">X>X>X>X>X>X>X>X>X>X>X>X>X>X>X>X>X>X>X>X>X  & h P :.>.x 1 >X>X>X>X>X>X>X>X>X>X>X>X>X>X>X>X>X>X>X>X>X>X>X>X>X>X>X>X>X>X>X>X>X>X>X",
">X>X>X>X>X>X>X>X>X>X>X>X>X>X>X>X>X>X>X>X>X  + 2 L ;.-.l < >X>X>X>X>X>X>X>X>X>X>X>X>X>X>X>X>X>X>X>X>X>X>X>X>X>X>X>X>X>X>X>X>X>X>X",
">X>X>X>X>X>X>X>X>X>X>X>X>X>X>X>X>X>X>X>X>X>X+ ; J ' G h 1 >X>X>X>X>X>X>X>X>X>X>X>X>X>X>X>X>X>X>X>X>X>X>X>X>X>X>X>X>X>X>X>X>X>X>X",
">X>X>X>X>X>X>X>X>X>X>X>X>X>X>X>X>X>X>X>X>X>Xo O h x x 1 1 x >X>X>X>X>X>X>X>X>X>X>X>X>X>X>X>X>X>X>X>X>X>X>X>X>X>X>X>X>X>X>X>X>X>X",
">X>X>X>X>X>X>X>X>X>X>X>X>X>X>X>X>X>X>X>X>X>X>X  & < 2 y l z 2 o + >X>X>X>X>X>X>X>X>X>X>X>X>X>X>X>X>X>X>X>X>X>X>X>X>X>X>X>X>X>X>X",
">X>X>X>X>X>X>X>X>X>X>X>X>X>X>X>X>X>X>X>X>X>X>X>XO + & h j 1 +     >X>X>X>X>X>X>X>X>X>X>X>X>X>X>X>X>X>X>X>X>X>X>X>X>X>X>X>X>X>X>X",
">X>X>X>X>X>X>X>X>X>X>X>X>X>X>X>X>X>X>X>X>X>X>X>X  & 1 O   O o >X>X>X>X>X>X>X>X>X>X>X>X>X>X>X>X>X>X>X>X>X>X>X>X>X>X>X>X>X>X>X>X>X",
">X>X>X>X>X>X>X>X>X>X>X>X>X>X>X>X>X>X>X>X>X>X>X>X    o o >X>X>X>X>X>X>X>X>X>X>X>X>X>X>X>X>X>X>X>X>X>X>X>X>X>X>X>X>X>X>X>X>X>X>X>X",
">X>X>X>X>X>X>X>X>X>X>X>X>X>X>X>X>X>X>X>X>X>X>X>X>X>X>X>X>X>X>X>X>X>X>X>X>X>X>X>X>X>X>X>X>X>X>X>X>X>X>X>X>X>X>X>X>X>X>X>X>X>X>X>X",
">X>X>X>X>X>X>X>X>X>X>X>X>X>X>X>X>X>X>X>X>X>X>X>X>X>X>X>X>X>X>X>X>X>X>X>X>X>X>X>X>X>X>X>X>X>X>X>X>X>X>X>X>X>X>X>X>X>X>X>X>X>X>X>X",
">X>X>X>X>X>X>X>X>X>X>X>X>X>X>X>X>X>X>X>X>X>X>X>X>X>X>X>X>X>X>X>X>X>X>X>X>X>X>X>X>X>X>X>X>X>X>X>X>X>X>X>X>X>X>X>X>X>X>X>X>X>X>X>X"
};
