/* XPM */
static char *b058bb8799be412ba4cf3bb4bcf7f842WEMnRS19Ei5oIYJT[] = {
/* columns rows colors chars-per-pixel */
"64 64 197 2 ",
"   c #ADD8E6",
".  c #030203",
"X  c #0B0403",
"o  c #07070A",
"O  c #0A060A",
"+  c #050A0A",
"@  c #0C0B0C",
"#  c #140201",
"$  c #190C06",
"%  c #110D0D",
"&  c #1A0A03",
"*  c #0E100F",
"=  c #1C120F",
"-  c #0E0D11",
";  c #120E11",
":  c #0D1010",
">  c #141314",
",  c #191516",
"<  c #161419",
"1  c #191619",
"2  c #151919",
"3  c #1C1B1C",
"4  c #1A1817",
"5  c #240900",
"6  c #360C03",
"7  c #261309",
"8  c #2D1A0E",
"9  c #2A150D",
"0  c #321D0F",
"q  c #381609",
"w  c #231A14",
"e  c #2C1B14",
"r  c #201E1F",
"t  c #211615",
"y  c #321D14",
"u  c #21211E",
"i  c #28251E",
"p  c #34241A",
"a  c #3B241B",
"s  c #3A2719",
"d  c #1D1B21",
"f  c #211F20",
"g  c #242223",
"h  c #282625",
"j  c #292629",
"k  c #2C2B2C",
"l  c #282727",
"z  c #3A2E23",
"x  c #302E2E",
"c  c #332D26",
"v  c #363325",
"b  c #35322D",
"n  c #3B322A",
"m  c #3C3A2E",
"M  c #393426",
"N  c #2E2D30",
"B  c #312F31",
"V  c #2C3031",
"C  c #343334",
"Z  c #393635",
"A  c #3A3A35",
"S  c #393738",
"D  c #3C3B3B",
"F  c #37363B",
"G  c #42130E",
"H  c #4C1A14",
"J  c #4B2605",
"K  c #442314",
"L  c #46281A",
"P  c #512318",
"I  c #553617",
"U  c #6B341D",
"Y  c #66351D",
"T  c #41332A",
"R  c #48382A",
"E  c #52362B",
"W  c #52392A",
"Q  c #5A3224",
"!  c #423E3F",
"~  c #553C33",
"^  c #673A25",
"/  c #6E3B26",
"(  c #6E3F2C",
")  c #653A2A",
"_  c #753F27",
"`  c #6B3E36",
"'  c #3E4034",
"]  c #62441F",
"[  c #574223",
"{  c #42423D",
"}  c #414234",
"|  c #594337",
" . c #644B27",
".. c #77442B",
"X. c #67502F",
"o. c #684A37",
"O. c #7E4B32",
"+. c #774A3C",
"@. c #79523C",
"#. c #74533C",
"$. c #3E3C41",
"%. c #413F40",
"&. c #434243",
"*. c #4A4343",
"=. c #4A474B",
"-. c #4D4C4C",
";. c #4E504D",
":. c #535152",
">. c #664B44",
",. c #734D4A",
"<. c #6B5246",
"1. c #7C5646",
"2. c #6D5D54",
"3. c #675C56",
"4. c #6B6158",
"5. c #7C6859",
"6. c #7C7168",
"7. c #834F2F",
"8. c #834C36",
"9. c #84523D",
"0. c #935B3D",
"q. c #865C49",
"w. c #835251",
"e. c #8A624D",
"r. c #81604E",
"t. c #956349",
"y. c #8C6253",
"u. c #886954",
"i. c #936956",
"p. c #976C58",
"a. c #9A735C",
"s. c #997C5C",
"d. c #90785A",
"f. c #A97A5D",
"g. c #A57455",
"h. c #9E6B69",
"j. c #877062",
"k. c #9C7764",
"l. c #9B7B72",
"z. c #AD7D64",
"x. c #A47A67",
"c. c #B67D63",
"v. c #A77E79",
"b. c #9F8A7E",
"n. c #AC826B",
"m. c #AA8A6B",
"M. c #B48266",
"N. c #BE8769",
"B. c #B28568",
"V. c #A28373",
"C. c #AB8472",
"Z. c #AD8975",
"A. c #AC897C",
"S. c #B98D75",
"D. c #B78D77",
"F. c #BC937D",
"G. c #C18D6C",
"H. c #C4906E",
"J. c #C28C71",
"K. c #C59372",
"L. c #CA9574",
"P. c #C39579",
"I. c #C9987C",
"U. c #D29B7D",
"Y. c #A98A80",
"T. c #B88B85",
"R. c #A99388",
"E. c #BB9281",
"W. c #B69786",
"Q. c #A99A90",
"!. c #BF9F90",
"~. c #BAA499",
"^. c #C59D8B",
"/. c #C99D8C",
"(. c #C59984",
"). c #CCA28B",
"_. c #C9A98B",
"`. c #D2A284",
"'. c #D1A48C",
"]. c #D6AE8D",
"[. c #D8AA8C",
"{. c #C9A99A",
"}. c #DBAE94",
"|. c #D5AB9D",
" X c #D6AB9A",
".X c #DCB297",
"XX c #E5AD8F",
"oX c #E0B59D",
"OX c #ECBB9C",
"+X c #E6B798",
"@X c #D8AAA2",
"#X c #C5B2A8",
"$X c #DBB0A7",
"%X c #E2B3AB",
"&X c #E2BAA0",
"*X c #D8C2B6",
"=X c #F3C7B2",
/* pixels */
"                                                                                                                                ",
"                                                                                                                                ",
"                                                                                                                                ",
"                                                                                                                                ",
"                                                            y.y.q.1.( ) `                                                       ",
"                                                        q.@.( / 9.9._ U ..x.                                                    ",
"                                                      ) ^ / 8.t.L.U.J.c.M./.                                                    ",
"                                                      ^ Y U 0.N.XXOX+XOX+X}.                                                    ",
"                                                      9.O._ 0.g.g.f.B.]._.m.                                                    ",
"                                                    C.q.O...7...q 6 J ]  .I                                                     ",
"                                                  V.C.p.t.t.f.f.@.I I  .X.[                                                     ",
"                                                <.5.i.y.i.n.'.oXI.m.s.s.d.u.                                                    ",
"                                              m T | <.r.k.F.oX=X&X X_.).W.W.                                  &.;.-.&.&.$.$.N g ",
"                                        3 u u w & 7 W V.!.Z.^. X(.E.E./.(.C.        <.E a e $ X X % 4 3 , @ @ @ , 2 * @ @ @ o . ",
"                                      @ @ 3 g h w w z b.{.A.V.A.|.$X|.%XT.+.y.      1.K 5 & # # $ $ X . O , : + . . . + @ O . . ",
"                                      . > $.%.Z Z c n 2.R.*X{.W.{.$X%X@Xh.H Q y.E.^.Z.@.Q L q 5 0 p                             ",
"                                    j - d &.=.&.Z x b n 4.#X#XR.l.v.T.v.w.G P q.)..X'.S.x.a.e.#.o.                              ",
"                                      d d j $.&.k l l i m 4.6.5.| E ~ ,.,.` +.i.).}.'.}.}.[.OX&X                                ",
"                                      - 1 F $.D D C j k b m M v R s 8 a >.Y.W.D.(.`.`.L.G.G.U.`.                                ",
"                                      O < N B C F S S D D A ' } m M z T 2.~.W.n.S.P.P.K.H.L.L.K.].                              ",
"                                      @ > 3 j B B C S { { S D { { A A A 3.Q.j.o.i.n.P.P.J.N.M.M.(.                              ",
"                                      > > @ 3 k k k k S S k k b S C x k *.6.~ 0 o.a.F.S.n.z.z.z.                                ",
"                                        @ o , g g g g g g g r 3 3 3 4 1 g Z p 0 W r.x.e.e./.                                    ",
"                                        , O , g 3 4 , 3 g 3 r g g g 3 g g % w y 8 L E K K                                       ",
"                                        1 O 1 g r 3 r 3 g B C B k j j j g % = w e 9 7 y a                                       ",
"                                        3 @ 3 l g g g g k D &.D k g g j   , , , t = $ p                                         ",
"                                        3 > 3 g g r 3 j S S &.D k 3 >         1 % ;                                             ",
"                                        3 3 3 r g 4 , k S S S S S g @                                                           ",
"                                      > > , 4 3 g 3 4 j C D D S k f ,                                                           ",
"                                      % > , 3 f g g g g x %.&.S j g 3                                                           ",
"                                      > , 3 3 3 3 j C k C &.D k l g g                                                           ",
"                                      > 4 g 4 > 3 k ! D D &.k 4 3 g g                                                           ",
"                                      o ; k k j g C &.S S ! g > g r >                                                           ",
"                                      . @ g g g f j S C B k f 1 r 4 % 1                                                         ",
"                                      @ > 3 3 3 f r r g 3 > 3 g 4 , 4 3 3                                                       ",
"                                      , , 1 f g l 3 > > @ o 4 j 3 g x j r 4                                                     ",
"                                      @ > 3 k S C j f , 4 j 3 , k D &.D j O >                                                   ",
"                    . 3 j f , > g     g g B C S Z k 3 f     X O k D &.S C S g @                                                 ",
"                , > > 1 , > 3 3 > > 4 r l B S %.D B g g       @ > g S S D *.C 3 2                                               ",
"                4 g j 1 ; 1 l k g r 3 4 r k S %.=.Z 3 3         . @ r k S &.D k 2 -                                             ",
"            . O g k k d 3 j x S -.&.k 3 3 k k S :.S > 3           ; @ 4 j S S V 2 >                                             ",
"            o . @ , g g g 4 k &.-.&.C C C k N C S j > 3             r > 1 g j g > @ @                                           ",
"            @ O >         - - 4 k S S C k k k k d , ;                 O ; g g g l 4 O                                           ",
"                            o @ g k k g 3 4 4 , - - >                 . - j C S S g @                                           ",
"                                    g 1 - o o o O -                   . - j D *.&.j >                                           ",
"                                                                      . @ 3 k D &.C 4 3                                         ",
"                                                                        @ 3 C ' &.S g j                                         ",
"                                                                        > f N S S C k j                                         ",
"                                                                        1 > g S D S k g                                         ",
"                                                                        @ . , C -.&.g g g                                       ",
"                                                                          . , g g 4 , g k                                       ",
"                                                                            O @ > 3 C D C , > ,                                 ",
"                                                                            . . > 4 3 g 4 O @                                   ",
"                                                                              . @ @ . . .                                       ",
"                                                                              . . .                                             ",
"                                                                                                                                ",
"                                                                                                                                ",
"                                                                                                                                ",
"                                                                                                                                ",
"                                                                                                                                ",
"                                                                                                                                ",
"                                                                                                                                ",
"                                                                                                                                ",
"                                                                                                                                "
};
