/* XPM */
static char *result[] = {
/* columns rows colors chars-per-pixel */
"64 64 198 2 ",
"   c #030202",
".  c #090405",
"X  c #07060C",
"o  c #0A060A",
"O  c #050C0B",
"+  c #0C0B0B",
"@  c #030905",
"#  c #130304",
"$  c #1C0E05",
"%  c #110E0D",
"&  c #1A0904",
"*  c #0C150F",
"=  c #14110D",
"-  c #1C110C",
";  c #0C0E11",
":  c #120E11",
">  c #141314",
",  c #191515",
"<  c #1C1A17",
"1  c #151418",
"2  c #1A161A",
"3  c #151B1B",
"4  c #1C1B1C",
"5  c #161817",
"6  c #250D08",
"7  c #26130C",
"8  c #2A190E",
"9  c #25100A",
"0  c #34190E",
"q  c #241B15",
"w  c #211E1D",
"e  c #281D16",
"r  c #341816",
"t  c #16221D",
"y  c #1C201E",
"u  c #22211D",
"i  c #2C221C",
"p  c #34261D",
"a  c #342E1D",
"s  c #3A2718",
"d  c #3B321D",
"f  c #1D1D20",
"g  c #211F22",
"h  c #1E2221",
"j  c #242324",
"k  c #282626",
"l  c #272826",
"z  c #2B2925",
"x  c #26252A",
"c  c #292629",
"v  c #252A29",
"b  c #2C2B2B",
"n  c #312922",
"m  c #34262C",
"M  c #322D2D",
"N  c #3A2E2E",
"B  c #362624",
"V  c #29312E",
"C  c #3B3725",
"Z  c #32312E",
"A  c #3B3B2C",
"S  c #2C2F31",
"D  c #352D32",
"F  c #2E3232",
"G  c #2D3A35",
"H  c #343334",
"J  c #393635",
"K  c #393B34",
"L  c #353639",
"P  c #3A3639",
"I  c #373B3C",
"U  c #3B3B3B",
"Y  c #333A36",
"T  c #441303",
"R  c #4D1F0D",
"E  c #4C2209",
"W  c #50220A",
"Q  c #442A1C",
"!  c #542817",
"~  c #65331E",
"^  c #432822",
"/  c #40302E",
"(  c #5C3424",
")  c #573A27",
"_  c #403E3F",
"`  c #4B3931",
"'  c #593F33",
"]  c #633421",
"[  c #673926",
"{  c #673D28",
"}  c #753E2A",
"|  c #5B432C",
" . c #42413F",
".. c #4F4039",
"X. c #5D4434",
"o. c #534338",
"O. c #6A4026",
"+. c #64442B",
"@. c #6D432D",
"#. c #6C4C2F",
"$. c #76492D",
"%. c #654034",
"&. c #674838",
"*. c #764833",
"=. c #72533E",
"-. c #3D3D41",
";. c #413D40",
":. c #3F4344",
">. c #434243",
",. c #464449",
"<. c #4B474C",
"1. c #564C48",
"2. c #514D51",
"3. c #535156",
"4. c #5F5250",
"5. c #604E48",
"6. c #794F40",
"7. c #6B5B4D",
"8. c #7B5344",
"9. c #775D48",
"0. c #7E5950",
"q. c #6E624C",
"w. c #7C664D",
"e. c #796658",
"r. c #7B6C65",
"t. c #84573E",
"y. c #855D44",
"u. c #8C5C43",
"i. c #865B4A",
"p. c #8D6345",
"a. c #98684F",
"s. c #8B6955",
"d. c #846858",
"f. c #9B6D5C",
"g. c #966A52",
"h. c #8E735D",
"j. c #A56F55",
"k. c #A47256",
"l. c #A47559",
"z. c #A6795D",
"x. c #976F64",
"c. c #8E7B6C",
"v. c #887468",
"b. c #997966",
"n. c #917F71",
"m. c #A37B64",
"M. c #AA7B6A",
"N. c #A37969",
"B. c #AB7F70",
"V. c #9C816D",
"C. c #9B877E",
"Z. c #AD836D",
"A. c #A8886F",
"S. c #B3846D",
"D. c #BA856C",
"F. c #BB886C",
"G. c #A28C73",
"H. c #AE8D75",
"J. c #AA8471",
"K. c #BD8B74",
"L. c #B48C7A",
"P. c #BB8D7B",
"I. c #B58871",
"U. c #AF997D",
"Y. c #B39279",
"T. c #BF937D",
"R. c #C58D76",
"E. c #C4947C",
"W. c #CC937A",
"Q. c #D0967D",
"!. c #AD8F80",
"~. c #AC9688",
"^. c #B49582",
"/. c #BC9283",
"(. c #BD9A8A",
"). c #BFA392",
"_. c #CC9A84",
"`. c #CA9E8B",
"'. c #C39A85",
"]. c #D09B81",
"[. c #D5A38B",
"{. c #DBA68F",
"}. c #D7AB8F",
"|. c #C0A69A",
" X c #D5A994",
".X c #DCAC93",
"XX c #DCAD9C",
"oX c #D7B399",
"OX c #E2A88F",
"+X c #E3B296",
"@X c #E6B49D",
"#X c #F0B99B",
"$X c #C7ADA1",
"%X c #EABCA4",
"&X c #E7BCA3",
"*X c #FFCFB9",
"=X c #F0C4AF",
"-X c #ADD8E6",
/* pixels */
"-X-X-X-X-X-X-X-X-X-X-X-X-X-X-X-X-X-X-X-X-X-X-X-X-X-X-X-X-X-X-X-X-X-X-X-X-X-X-X-X-X-X-X-X-X-X-X-X-X-X-X-X-X-X-X-X-X-X-X-X-X-X-X-X",
"-X-X-X-X-X-X-X-X-X-X-X-X-X-X-X-X-X-X-X-X-X-X-X-X-X-X-X-X-X-X-X-X-X-X-X-X-X-X-X-X-X-X-X-X-X-X-X-X-X-X-X-X-X-X-X-X-X-X-X-X-X-X-X-X",
"-X-X-X-X-X-X-X-X-X-X-X-X-X-X-X-X-X-X-X-X-X-X-X-X-X-X-X-X-X-X-X-X-X-X-X-X-X-X-X-X-X-X-X-X-X-X-X-X-X-X-X-X-X-X-X-X-X-X-X-X-X-X-X-X",
"-X-X-X-X-X-X-X-X-X-X-X-X-X-X-X-X-X-X-X-X-X-X-X-X-X-X-X-X-X-X-X-X-X-X-X-X-X-X-X-X-X-X-X-X-X-X-X-X-X-X-X-X-X-X-X-X-X-X-X-X-X-X-X-X",
"-X-X-X-X-X-X-X-X-X-X-X-X-X-X-X-X-X-X-X-X-X-X-X-X8.i.t.[ ~ ] ' -X-X-X-X-X-X-X-X-X-X-X-X-X-X-X-X-X-X-X-X-X-X-X-X-X-X-X-X-X-X-X-X-X",
"-X-X-X-X-X-X-X-X-X-X-X-X-X-X-X-X-X-X-X-X-X-X=.@.[ *.t.} ~ ~ } 6.-X-X-X-X-X-X-X-X-X-X-X-X-X-X-X-X-X-X-X-X-X-X-X-X-X-X-X-X-X-X-X-X",
"-X-X-X-X-X-X-X-X-X-X-X-X-X-X-X-X-X-X-X-X-X%.+.{ *.j.W.Q.W.R.M.f.-X-X-X-X-X-X-X-X-X-X-X-X-X-X-X-X-X-X-X-X-X-X-X-X-X-X-X-X-X-X-X-X",
"-X-X-X-X-X-X-X-X-X-X-X-X-X-X-X-X-X-X-X-X-X) ) $.p.R.+X#X=X*XXXE.-X-X-X-X-X-X-X-X-X-X-X-X-X-X-X-X-X-X-X-X-X-X-X-X-X-X-X-X-X-X-X-X",
"-X-X-X-X-X-X-X-X-X-X-X-X-X-X-X-X-X-X-X-X-X| | #.p.a.k.k.D. X`.L.-X-X-X-X-X-X-X-X-X-X-X-X-X-X-X-X-X-X-X-X-X-X-X-X-X-X-X-X-X-X-X-X",
"-X-X-X-X-X-X-X-X-X-X-X-X-X-X-X-X-X-X-X-Xe.9.#.#.y.O.T T R ~ ( ) -X-X-X-X-X-X-X-X-X-X-X-X-X-X-X-X-X-X-X-X-X-X-X-X-X-X-X-X-X-X-X-X",
"-X-X-X-X-X-X-X-X-X-X-X-X-X-X-X-X-X-X-X-XV.d.w.s.I.V.$.W W t.@.! -X-X-X-X-X-X-X-X-X-X-X-X-X-X-X-X-X-X-X-X-X-X-X-X-X-X-X-X-X-X-X-X",
"-X-X-X-X-X-X-X-X-X-X-X-X-X-X-X-X-X-X4.r.r.e.h.H.oXQ.R.z.z.P.f.6.-X-X-X-X-X-X-X-X-X-X-X-X-X-X-X-X-X-X-X-X-X-X-X-X-X-X-X-X-X-X-X-X",
"-X-X-X-X-X-X-X-X-X-X-X-X-X-X-X-X-XM N ..7.v.V.Y.oX&X+X+X+X[.E.K.-X-X-X-X-X-X-X-X-X-X-X-X-X-X-X-X>.<.3.3.3.2.2.<.J -X-X-X-X-X-X-X",
"-X-X-X-X-X-X-X-X-X-X-X-X-X-X3 > 5 +   & | ~.~.H.[.}.+XE.F.F.K.T.-X-X-X-Xo.^ B m , o . g c 4 f 2 1 ; X 1 2 2 : .   % M -X-X-X-X-X",
"-X-X-X-X-X-X-X-X-X-X-X-X-XO t h l z z 8 ..~.).~.m.E.&X+X}.[.a.O.g.-X-Xs.&.0 6 6 # # # o . o + % ; X X X + : o .   % -X-X-X-X-X-X",
"-X-X-X-X-X-X-X-X-X-X-X-X* @ h G Y K K w n e.).=X(.Y.U.}.&X#Xa.W ! *.P._.Z.6.( ^ r 9 6 9 -X-X-X-X-X-X-X-X-X-X-X-X-X-X-X-X-X-X-X-X",
"-X-X-X-X-X-X-X-X-X-X-X-X-X@ t G I I J k i ` v.$X$X!.s.b.Y.'.9.E R u.{.OX{.R.B.x.0.%.B -X-X-X-X-X-X-X-X-X-X-X-X-X-X-X-X-X-X-X-X-X",
"-X-X-X-X-X-X-X-X-X-X-X-X-X* h V I I D P N B / 5.C.c.5.) | =.+.+.u.B.`.OX{.#X@XXX X'.-X-X-X-X-X-X-X-X-X-X-X-X-X-X-X-X-X-X-X-X-X-X",
"-X-X-X-X-X-X-X-X-X-X-X-X-XO y F I -.;.D m D D D n n C C d a w.U.L.m.j.].OX].D.B.`. X-X-X-X-X-X-X-X-X-X-X-X-X-X-X-X-X-X-X-X-X-X-X",
"-X-X-X-X-X-X-X-X-X-X-X-X-X4 + 1 Y U H D ;.;.;.P H K A A C a q.G.A.Z.M.B.R.R.R.]..X`.L.-X-X-X-X-X-X-X-X-X-X-X-X-X-X-X-X-X-X-X-X-X",
"-X-X-X-X-X-X-X-X-X-X-X-X-X5 + > S H c Y ;.;.;.-.K K K A C a 7.c.w.9.g.Z.K.K.K.D.K.B.Z.-X-X-X-X-X-X-X-X-X-X-X-X-X-X-X-X-X-X-X-X-X",
"-X-X-X-X-X-X-X-X-X-X-X-X-X= = - k l j b D -.L F V V V A z i 1.7.Q Q &.A./.M.M.N.f.f.-X-X-X-X-X-X-X-X-X-X-X-X-X-X-X-X-X-X-X-X-X-X",
"-X-X-X-X-X-X-X-X-X-X-X-X-X-X% = < y y h h h h h h j j u u u a p 6 8 ' d.b.s.N.'.-X-X-X-X-X-X-X-X-X-X-X-X-X-X-X-X-X-X-X-X-X-X-X-X",
"-X-X-X-X-X-X-X-X-X-X-X-X-X-X: % < u 3 3 f 3 3 h j v v u u q $ - p s 8 s Q ^ ' -X-X-X-X-X-X-X-X-X-X-X-X-X-X-X-X-X-X-X-X-X-X-X-X-X",
"-X-X-X-X-X-X-X-X-X-X-X-X-X-X: - u j g 4 3 h v S F S v x l z w - e q 9 8 8 7 -X-X-X-X-X-X-X-X-X-X-X-X-X-X-X-X-X-X-X-X-X-X-X-X-X-X",
"-X-X-X-X-X-X-X-X-X-X-X-X-X-X> , k k j f j x L -.I G S j j Z -Xw - - - q q 7 -X-X-X-X-X-X-X-X-X-X-X-X-X-X-X-X-X-X-X-X-X-X-X-X-X-X",
"-X-X-X-X-X-X-X-X-X-X-X-X-X-X1 > g x g x x S I :.U I F h 4 -X-X-X-X+ = < -X-X-X-X-X-X-X-X-X-X-X-X-X-X-X-X-X-X-X-X-X-X-X-X-X-X-X-X",
"-X-X-X-X-X-X-X-X-X-X-X-X-X-X1 1 g x g g f j H >.-.I F f 1 -X-X-X-X-X-X-X-X-X-X-X-X-X-X-X-X-X-X-X-X-X-X-X-X-X-X-X-X-X-X-X-X-X-X-X",
"-X-X-X-X-X-X-X-X-X-X-X-X-X4 : 2 g m x f f x H U U -.H 2 * -X-X-X-X-X-X-X-X-X-X-X-X-X-X-X-X-X-X-X-X-X-X-X-X-X-X-X-X-X-X-X-X-X-X-X",
"-X-X-X-X-X-X-X-X-X-X-X-X-X1 1 1 f g x 2 g D U P H V l j 4 -X-X-X-X-X-X-X-X-X-X-X-X-X-X-X-X-X-X-X-X-X-X-X-X-X-X-X-X-X-X-X-X-X-X-X",
"-X-X-X-X-X-X-X-X-X-X-X-X-X2 4 f f g g f x _ >._ Z j 4 z H -X-X-X-X-X-X-X-X-X-X-X-X-X-X-X-X-X-X-X-X-X-X-X-X-X-X-X-X-X-X-X-X-X-X-X",
"-X-X-X-X-X-X-X-X-X-X-X-X-X4 h x g g f x b P  ._ Z z j k z -X-X-X-X-X-X-X-X-X-X-X-X-X-X-X-X-X-X-X-X-X-X-X-X-X-X-X-X-X-X-X-X-X-X-X",
"-X-X-X-X-X-X-X-X-X-X-X-X-X+ 5 y k k z U  .Z H Z i w 4 q w -X-X-X-X-X-X-X-X-X-X-X-X-X-X-X-X-X-X-X-X-X-X-X-X-X-X-X-X-X-X-X-X-X-X-X",
"-X-X-X-X-X-X-X-X-X-X-X-X-X* > 4 y b H K K z z i < 4 w , = -X-X-X-X-X-X-X-X-X-X-X-X-X-X-X-X-X-X-X-X-X-X-X-X-X-X-X-X-X-X-X-X-X-X-X",
"-X-X-X-X-X-X-X-X-X-X-X-X-X1 * > z Z Z b k u u 4 , < i = % -X-X-X-X-X-X-X-X-X-X-X-X-X-X-X-X-X-X-X-X-X-X-X-X-X-X-X-X-X-X-X-X-X-X-X",
"-X-X-X-X-X-X-X-X-X-X-X-X-Xu = > Z H l u u u < 1 = < j , % -X-X-X-X-X-X-X-X-X-X-X-X-X-X-X-X-X-X-X-X-X-X-X-X-X-X-X-X-X-X-X-X-X-X-X",
"-X-X-X-X-X-X-X-X-X-X-X-X-X-X, 4 Z H b b S H 4 > < 4 j > > -X-X-X-X-X-X-X-X-X-X-X-X-X-X-X-X-X-X-X-X-X-X-X-X-X-X-X-X-X-X-X-X-X-X-X",
"-X-X-X-X-X-X-X-X-X-X-X-X-X-X4 u y Z >.U U :.H f j 4 1 + + -X-X-X-X-X-X-X-X-X-X-X-X-X-X-X-X-X-X-X-X-X-X-X-X-X-X-X-X-X-X-X-X-X-X-X",
"-X-X-X-X-X-X-X-X-X% . + -X-X, > 2 c U U -.-.-.S h 3 * > -X-X-X-X-X-X-X-X-X-X-X-X-X-X-X-X-X-X-X-X-X-X-X-X-X-X-X-X-X-X-X-X-X-X-X-X",
"-X-X-X-X-X-X-X-X2 > % + : q > > w g x Y L -.-.L S f O 1 -X-X-X-X-X-X-X-X-X-X-X-X-X-X-X-X-X-X-X-X-X-X-X-X-X-X-X-X-X-X-X-X-X-X-X-X",
"-X-X-X-X-X-X-X4 1 j b > + > 4 g g g j c H ,.-.H I x O ; -X-X-X-X-X-X-X-X-X-X-X-X-X-X-X-X-X-X-X-X-X-X-X-X-X-X-X-X-X-X-X-X-X-X-X-X",
"-X-X-X-X-X-X> + 5 3 u 4 > % l H g g k 4 g H I U U l X -X-X-X-X-X-X-X-X-X-X-X-X-X-X-X-X-X-X-X-X-X-X-X-X-X-X-X-X-X-X-X-X-X-X-X-X-X",
"-X-X-X-X-X> > 1 = 2 l b j 4 D >.;.;.H j 4 x D L c 5 . -X-X-X-X-X-X-X-X-X-X-X-X-X-X-X-X-X-X-X-X-X-X-X-X-X-X-X-X-X-X-X-X-X-X-X-X-X",
"-X-X-X-X-X> , 5 1 -X-X-X-Xw w c P _ J c w 4 k c 4 + + -X-X-X-X-X-X-X-X-X-X-X-X-X-X-X-X-X-X-X-X-X-X-X-X-X-X-X-X-X-X-X-X-X-X-X-X-X",
"-X-X-X-X-X-X-X-X-X-X-X-X-X-X. + w x k j g , w f + + -X-X-X-X-X-X-X-X-X-X-X-X-X-X-X-X-X-X-X-X-X-X-X-X-X-X-X-X-X-X-X-X-X-X-X-X-X-X",
"-X-X-X-X-X-X-X-X-X-X-X-X-X-X-X-X-X, > 4 2 > 4 4 + o -X-X-X-X-X-X-X-X-X-X-X-X-X-X-X-X-X-X-X-X-X-X-X-X-X-X-X-X-X-X-X-X-X-X-X-X-X-X",
"-X-X-X-X-X-X-X-X-X-X-X-X-X-X-X-X-X4 , g c b j 2 % -X-X-X-X-X-X-X-X-X-X-X-X-X-X-X-X-X-X-X-X-X-X-X-X-X-X-X-X-X-X-X-X-X-X-X-X-X-X-X",
"-X-X-X-X-X-X-X-X-X-X-X-X-X-X-X-X2 4 k H P J b 4 2 -X-X-X-X-X-X-X-X-X-X-X-X-X-X-X-X-X-X-X-X-X-X-X-X-X-X-X-X-X-X-X-X-X-X-X-X-X-X-X",
"-X-X-X-X-X-X-X-X-X-X-X-X-X-X-X-X> 4 k I _ P b g -X-X-X-X-X-X-X-X-X-X-X-X-X-X-X-X-X-X-X-X-X-X-X-X-X-X-X-X-X-X-X-X-X-X-X-X-X-X-X-X",
"-X-X-X-X-X-X-X-X-X-X-X-X-X-X-X-X+ 4 b D J I b 4 -X-X-X-X-X-X-X-X-X-X-X-X-X-X-X-X-X-X-X-X-X-X-X-X-X-X-X-X-X-X-X-X-X-X-X-X-X-X-X-X",
"-X-X-X-X-X-X-X-X-X-X-X-X-X-X-X+ . h  .>._ _ k o -X-X-X-X-X-X-X-X-X-X-X-X-X-X-X-X-X-X-X-X-X-X-X-X-X-X-X-X-X-X-X-X-X-X-X-X-X-X-X-X",
"-X-X-X-X-X-X-X-X-X-X-X-X-X-X-X> > w D P P b w -X-X-X-X-X-X-X-X-X-X-X-X-X-X-X-X-X-X-X-X-X-X-X-X-X-X-X-X-X-X-X-X-X-X-X-X-X-X-X-X-X",
"-X-X-X-X-X-X-X-X-X-X-X-X-X-X> > j M P >.J 1 > -X-X-X-X-X-X-X-X-X-X-X-X-X-X-X-X-X-X-X-X-X-X-X-X-X-X-X-X-X-X-X-X-X-X-X-X-X-X-X-X-X",
"-X-X-X-X-X-X-X-X-X-X-X-X-X-X+ : b U ,.>.M > -X-X-X-X-X-X-X-X-X-X-X-X-X-X-X-X-X-X-X-X-X-X-X-X-X-X-X-X-X-X-X-X-X-X-X-X-X-X-X-X-X-X",
"-X-X-X-X-X-X-X-X-X-X-X-X-X-X> 1 w J >.k 1 > -X-X-X-X-X-X-X-X-X-X-X-X-X-X-X-X-X-X-X-X-X-X-X-X-X-X-X-X-X-X-X-X-X-X-X-X-X-X-X-X-X-X",
"-X-X-X-X-X-X-X-X-X-X-X-X-X-X% , b b l j j -X-X-X-X-X-X-X-X-X-X-X-X-X-X-X-X-X-X-X-X-X-X-X-X-X-X-X-X-X-X-X-X-X-X-X-X-X-X-X-X-X-X-X",
"-X-X-X-X-X-X-X-X-X-X-X-X-X-X+ : 4 4 > l b -X-X-X-X-X-X-X-X-X-X-X-X-X-X-X-X-X-X-X-X-X-X-X-X-X-X-X-X-X-X-X-X-X-X-X-X-X-X-X-X-X-X-X",
"-X-X-X-X-X-X-X-X-X-X-X-X-X  + = > 4 g k c -X-X-X-X-X-X-X-X-X-X-X-X-X-X-X-X-X-X-X-X-X-X-X-X-X-X-X-X-X-X-X-X-X-X-X-X-X-X-X-X-X-X-X",
"-X-X-X-X-X-X-X-X-X-X-X-X-X  + : > w c z w > -X-X-X-X-X-X-X-X-X-X-X-X-X-X-X-X-X-X-X-X-X-X-X-X-X-X-X-X-X-X-X-X-X-X-X-X-X-X-X-X-X-X",
"-X-X-X-X-X-X-X-X-X-X-X-X-X      + + + + +   . -X-X-X-X-X-X-X-X-X-X-X-X-X-X-X-X-X-X-X-X-X-X-X-X-X-X-X-X-X-X-X-X-X-X-X-X-X-X-X-X-X",
"-X-X-X-X-X-X-X-X-X-X-X-X-X-X-X-X-X-X-X-X-X-X-X-X-X-X-X-X-X-X-X-X-X-X-X-X-X-X-X-X-X-X-X-X-X-X-X-X-X-X-X-X-X-X-X-X-X-X-X-X-X-X-X-X",
"-X-X-X-X-X-X-X-X-X-X-X-X-X-X-X-X-X-X-X-X-X-X-X-X-X-X-X-X-X-X-X-X-X-X-X-X-X-X-X-X-X-X-X-X-X-X-X-X-X-X-X-X-X-X-X-X-X-X-X-X-X-X-X-X",
"-X-X-X-X-X-X-X-X-X-X-X-X-X-X-X-X-X-X-X-X-X-X-X-X-X-X-X-X-X-X-X-X-X-X-X-X-X-X-X-X-X-X-X-X-X-X-X-X-X-X-X-X-X-X-X-X-X-X-X-X-X-X-X-X",
"-X-X-X-X-X-X-X-X-X-X-X-X-X-X-X-X-X-X-X-X-X-X-X-X-X-X-X-X-X-X-X-X-X-X-X-X-X-X-X-X-X-X-X-X-X-X-X-X-X-X-X-X-X-X-X-X-X-X-X-X-X-X-X-X"
};
