/* XPM */
static char *_2bd458ba6364c3882d280ece4333c97Ao25mBoFhOTdYcHH[] = {
/* columns rows colors chars-per-pixel */
"64 64 209 2 ",
"   c None",
".  c #040303",
"X  c #090604",
"o  c #0C0904",
"O  c #06060D",
"+  c #080709",
"@  c #0B0B0B",
"#  c #070A01",
"$  c #1C0404",
"%  c #100D05",
"&  c #130E0A",
"*  c #1D0A08",
"=  c #161304",
"-  c #15120C",
";  c #171809",
":  c #060711",
">  c #0B0B12",
",  c #070810",
"<  c #150F13",
"1  c #0F1010",
"2  c #131314",
"3  c #1A1513",
"4  c #151619",
"5  c #1A141A",
"6  c #171819",
"7  c #1B1B1C",
"8  c #191B13",
"9  c #290704",
"0  c #3B0D01",
"q  c #271F04",
"w  c #351008",
"e  c #221B1D",
"r  c #261C17",
"t  c #351818",
"y  c #1D241B",
"u  c #1D251A",
"i  c #392C07",
"p  c #23251B",
"a  c #2A231C",
"s  c #222C1E",
"d  c #3A2818",
"f  c #3E321E",
"g  c #2A2609",
"h  c #1C1C22",
"j  c #181721",
"k  c #251D23",
"l  c #291E25",
"z  c #211F2A",
"x  c #1F2023",
"c  c #232323",
"v  c #292625",
"b  c #2A2925",
"n  c #24252A",
"m  c #2B242A",
"M  c #272929",
"N  c #2B2B2C",
"B  c #222921",
"V  c #3C2322",
"C  c #322C25",
"Z  c #342A2E",
"A  c #2F342E",
"S  c #2A3226",
"D  c #34322E",
"F  c #3E3D2D",
"G  c #2B2D31",
"H  c #322F30",
"J  c #2F3134",
"K  c #2E3931",
"L  c #333434",
"P  c #3A3734",
"I  c #353934",
"U  c #3A3935",
"Y  c #35363B",
"T  c #37393B",
"R  c #3A3B3B",
"E  c #3B363B",
"W  c #4C1D09",
"Q  c #56240E",
"!  c #49350B",
"~  c #462819",
"^  c #4B3517",
"/  c #543D15",
"(  c #532713",
")  c #68341D",
"_  c #472B29",
"`  c #542C23",
"'  c #5C382B",
"]  c #413833",
"[  c #403F3B",
"{  c #5A3F3E",
"}  c #473C2C",
"|  c #6A3A28",
" . c #3D413E",
".. c #62451C",
"X. c #594928",
"o. c #454139",
"O. c #5B513B",
"+. c #6B4A27",
"@. c #75512A",
"#. c #644835",
"$. c #774935",
"%. c #794A35",
"&. c #655537",
"*. c #7C593A",
"=. c #795A32",
"-. c #754827",
";. c #3C3D44",
":. c #423D42",
">. c #3E4245",
",. c #424244",
"<. c #4C494C",
"1. c #474448",
"2. c #574A46",
"3. c #4C5345",
"4. c #4E4C58",
"5. c #525151",
"6. c #7C4F45",
"7. c #77554A",
"8. c #60585D",
"9. c #5F6246",
"0. c #726841",
"q. c #766844",
"w. c #68705C",
"e. c #7B725D",
"r. c #70796A",
"t. c #7B717D",
"y. c #814F33",
"u. c #84523A",
"i. c #8E5E44",
"p. c #835F52",
"a. c #8E6A4A",
"s. c #926A4F",
"d. c #96744C",
"f. c #8A6358",
"g. c #9A6A54",
"h. c #946B5B",
"j. c #986F58",
"k. c #96795B",
"l. c #8D765B",
"z. c #AF6C4A",
"x. c #A36D56",
"c. c #A7735A",
"v. c #B57958",
"b. c #967C63",
"n. c #846E72",
"m. c #8E7271",
"M. c #A77766",
"N. c #B37A60",
"B. c #A97F75",
"V. c #B78659",
"C. c #AB855A",
"Z. c #998069",
"A. c #9E9379",
"S. c #AB8D6F",
"D. c #A08867",
"F. c #BC876F",
"G. c #BD8D6C",
"H. c #B4886B",
"J. c #A58973",
"K. c #BD8C7A",
"L. c #A2937F",
"P. c #AC9A7D",
"I. c #B49878",
"U. c #BB956B",
"Y. c #C9956C",
"T. c #C58D7A",
"R. c #C59B72",
"E. c #C7927B",
"W. c #DB9D76",
"Q. c #CCA47D",
"!. c #D4A87E",
"~. c #E5A47A",
"^. c #9C8D98",
"/. c #97978A",
"(. c #A88C8D",
"). c #BD9585",
"_. c #BB9893",
"`. c #B6A38A",
"'. c #BBAC8E",
"]. c #BEB4A7",
"[. c #C89686",
"{. c #CE998B",
"}. c #CA9C89",
"|. c #CBA888",
" X c #D4AB8B",
".X c #D7A884",
"XX c #CBB48D",
"oX c #DDB48A",
"OX c #C7AA99",
"+X c #D4AE95",
"@X c #DBAB98",
"#X c #CEB297",
"$X c #D1B394",
"%X c #DFB999",
"&X c #E0AE87",
"*X c #E3B48A",
"=X c #EABD9A",
"-X c #D2B6B6",
";X c #D3C097",
":X c #DAC3A7",
">X c #E9C6A6",
",X c #F3C6A4",
"<X c #F2C4A9",
"1X c #E8C5BE",
"2X c #F4D3B2",
"3X c #FBD4B4",
"4X c #FBD5BB",
"5X c #E5D2A8",
"6X c #FCDEC4",
/* pixels */
"                                                                                                                                ",
"                                                                                                                                ",
"                                                                                                                                ",
"                                                                                                                                ",
"                                                          0.q.X.                                                                ",
"                                                  ^ d q ^ ! i ! X.                                                              ",
"                                                _ ^ ..*.*.@.../ X.                                                              ",
"                                              W +.=.H.,X,X,X3X>XJ.                                                              ",
"                                              W $.u.M.@XT.}.4X6X`.                                                              ",
"                                              ) ) %.c.F.c.$.h.#XL.e.O.                                                          ",
"                                          ! @.y.Q u.i.Q 0 $ ~ #.* F 9.                                                          ",
"                                          +.@.-.i.F.@XE.| 9 #.`.&.9.w.                                                          ",
"                                          #.*.d.R.%X=X,X3X+X+X:XD.                                                              ",
"                                  X @ + . f k.I.a.U.=X!.V.G.|.$XOX            S u ; o . O         . . . . . . o . + + . .       ",
"                              . . . + 2 7 } P.>Xd.C.*X&XY.V.R.|.k.A./.    r.3.o y 8 o o + o X . o + . + O + . . . . + O +       ",
"                          . . . + M P a r o 0.2X|.b.S.&X*X.X,X<X7.^ ~     '.e.. # ; ; - - - - @ O + o + + . . . . . . . .       ",
"                          + . @ Y T I R D = O.L.  Z.S.j.[.<X2X$Xs.w t f.b.A.P.l.i q g ; X                                       ",
"                          . + 6 J ,.,.P v ] C U ].    OXJ.p.B.).| 0 ( s.$X%X$XXX;X5XI.&.q.                                      ",
"                          . . 2 L U L R N p v v o C 2.] d V _ ' 7.' %.E..X XQ.Q.oX!.oX X                                        ",
"                          . . 2 L T T U N N A A D 7 3 Z 1.2.V t B.1XOXM.{.[.G.Y.V.V.Y. X).                                      ",
"                          + . @ D Y J L L A A I T L R 1.l :.E m n.-X_.f.).F.v.Y.~.W.W. XI.                                      ",
"                              + c v b D L o.o.U I R T Y Y 4.Y Z ^.(._ w h.K.N.z.z.v.c.g.j.                                      ",
"                              + 4 7 c N Z D D D U R N m Y ;.h z t.8.& $ 7.}.@X{.T.x.x.g.                                        ",
"                              > o @ 6 v D b a a v v m n 2 O > j 5 > @ 3 V n.n.` 6.                                              ",
"                              + + 2 7 4 2 - ; ; - % 8 n 2 7 c 2 > e k 2 3 r * $ {                                               ",
"                              + + 2 7 7 7 5 5 e m H R P e b T Y J 1 7 Y < C P e l                                               ",
"                              @ 2 7 v k c n N G Y ,.<.T 7 2 2     v v - X . + @                                                 ",
"                              @ 2 7 B u c n G J G G Y R N h 2           X                                                       ",
"                              , 2 c v 6 4 c Y >.>.J G L c 6 2                                                                   ",
"                              + 6 n M c 7 7 v L >.T I T N 2 +                                                                   ",
"                          o X o c B u c c M N D U U P A L N c                                                                   ",
"                          @ + + c 6 > 5 y S D D U [ b 2 G K s                                                                   ",
"                          + 2 7 7 v m c u N L R 1.Y c 7 n c 2                                                                   ",
"                          . + 7 M v c N R ,.R R ,.L 3 - c 4 +                                                                   ",
"                          o . + c b c b ,.R N M v c j 6 6 @ .                                                                   ",
"                              + 7 N M c h h 3 - p y 4 7 v 2 +                                                                   ",
"                              o u  .:.b c n n 6 & 2 n n 2 2 2                                                                   ",
"                              + 2 c G L M D P M 2 2 7 c 2 y s                                                                   ",
"                              . + 4 n D R L L L T @ @ v @ + @                                                                   ",
"                  o + . o     @ o - M R L M G T I 7 6 M 6                                                                       ",
"                  + @ + o @ + @ c c 6 v L L N G R R A c >                                                                       ",
"                O + X . . + @ 2 c c v n n U o.L T 1.,.v +                                                                       ",
"              @ o + : O @ o X @ n L P D v c L <.5.,.G h 7                                                                       ",
"          . + @ @ o o + . + + . 2 N L n b c M I L L c 2 -                                                                       ",
"          . + o .             + 2 6 v L I Y T I 6 c b 4                                                                         ",
"                              , @ + @ 2 n m e 7 c 2 @ 2                                                                         ",
"                                      7 6 4 6 4 @ @ :                                                                           ",
"                                      o - a N n 7 - %                                                                           ",
"                                  + o + @ N M + 2 2 +                                                                           ",
"                                  @ + @ L ;.M & + + .                                                                           ",
"                                . X + 2 N <.L + +                                                                               ",
"                                . & o 2 R c . @ @                                                                               ",
"                                . . j ;.;.6 + 2 +                                                                               ",
"                              . o @ v P 2 + 2 2                                                                                 ",
"                              + + O x I 2 + @ +                                                                                 ",
"                              + + o o + , + .                                                                                   ",
"                              . . h h . X @ @                                                                                   ",
"                              . + 2 2 + +                                                                                       ",
"                              + , 7 2 . X + .                                                                                   ",
"                          . + o . + @ + + . + @                                                                                 ",
"                              o . . + + . + + .                                                                                 ",
"                                                                                                                                ",
"                                                                                                                                ",
"                                                                                                                                "
};
