/* XPM */
static char *result[] = {
/* columns rows colors chars-per-pixel */
"64 64 203 2 ",
"   c #020303",
".  c #0C0503",
"X  c #050B09",
"o  c #0C0C0C",
"O  c #0B0C05",
"+  c #140600",
"@  c #170A03",
"#  c #130E0C",
"$  c #1B0905",
"%  c #0D110C",
"&  c #14130D",
"*  c #1C160C",
"=  c #0D0D10",
"-  c #130E11",
";  c #0E1212",
":  c #141314",
">  c #191515",
",  c #1A1A16",
"<  c #161619",
"1  c #191718",
"2  c #171A1B",
"3  c #1C1B1C",
"4  c #101913",
"5  c #240802",
"6  c #3F0303",
"7  c #25130C",
"8  c #291509",
"9  c #35160A",
"0  c #34190D",
"q  c #391A0C",
"w  c #241311",
"e  c #2B1914",
"r  c #211D1E",
"t  c #261E14",
"y  c #341B13",
"u  c #22211C",
"i  c #2B251D",
"p  c #262015",
"a  c #35231A",
"s  c #1D1E21",
"d  c #211F20",
"f  c #1F2124",
"g  c #232324",
"h  c #292524",
"j  c #2C2A26",
"k  c #262629",
"l  c #292728",
"z  c #27292C",
"x  c #2B2B2B",
"c  c #322A23",
"v  c #322E2C",
"b  c #352626",
"n  c #3B3126",
"m  c #34322E",
"M  c #3C332B",
"N  c #39352B",
"B  c #2C2E31",
"V  c #312F31",
"C  c #2E3133",
"Z  c #2F3438",
"A  c #343334",
"S  c #393633",
"D  c #363836",
"F  c #3C3936",
"G  c #343539",
"H  c #383638",
"J  c #353A3B",
"K  c #3B3B3B",
"L  c #4E1D12",
"P  c #561603",
"I  c #44200C",
"U  c #5C2008",
"Y  c #442111",
"T  c #4A2A1D",
"R  c #49251B",
"E  c #5F2E15",
"W  c #54301F",
"Q  c #432E29",
"!  c #4E2A21",
"~  c #48382B",
"^  c #5B3729",
"/  c #413E3C",
"(  c #5D3C31",
")  c #5F3F3B",
"_  c #633A2E",
"`  c #783A20",
"'  c #653E36",
"]  c #56412F",
"[  c #43413C",
"{  c #5C443D",
"}  c #584636",
"|  c #6B432C",
" . c #64482C",
".. c #644B35",
"X. c #63443C",
"o. c #694A3C",
"O. c #684A3A",
"+. c #764A36",
"@. c #73503F",
"#. c #3C3E41",
"$. c #3D4143",
"%. c #434242",
"&. c #494A4B",
"*. c #5C514D",
"=. c #6B4F4B",
"-. c #654843",
";. c #714842",
":. c #724D49",
">. c #6C5B4D",
",. c #66524A",
"<. c #7C5447",
"1. c #7F5B45",
"2. c #775A49",
"3. c #76564A",
"4. c #6D5551",
"5. c #665C53",
"6. c #6F655A",
"7. c #77675B",
"8. c #834425",
"9. c #825545",
"0. c #875C48",
"q. c #905942",
"w. c #835E56",
"e. c #84644C",
"r. c #95674F",
"t. c #8C6755",
"y. c #846258",
"u. c #886654",
"i. c #926451",
"p. c #9F6450",
"a. c #86705E",
"s. c #9C735A",
"d. c #A96D4C",
"f. c #AA714D",
"g. c #AB7B5D",
"h. c #AD705B",
"j. c #A36855",
"k. c #816F61",
"l. c #8F7865",
"z. c #977868",
"x. c #A37D6A",
"c. c #A77D67",
"v. c #B17F68",
"b. c #A47D73",
"n. c #98826F",
"m. c #8C8276",
"M. c #9D8875",
"N. c #AD886D",
"B. c #B4836A",
"V. c #BA876B",
"C. c #BC8566",
"Z. c #AC8B73",
"A. c #A38677",
"S. c #B28C73",
"D. c #B98C71",
"F. c #B78E7D",
"G. c #A4917E",
"H. c #B69478",
"J. c #C78A65",
"K. c #CD926D",
"L. c #C6906E",
"P. c #C08B7E",
"I. c #C49173",
"U. c #C59C7D",
"Y. c #C89574",
"T. c #D49D7D",
"R. c #D79974",
"E. c #DFA27E",
"W. c #A88E81",
"Q. c #AD9685",
"!. c #BC9D84",
"~. c #B79686",
"^. c #BDA38C",
"/. c #BDA187",
"(. c #BBAB9A",
"). c #BBADA0",
"_. c #C59E8A",
"`. c #C99887",
"'. c #D59F85",
"]. c #D39F8A",
"[. c #CE9E93",
"{. c #C5A48B",
"}. c #CAA183",
"|. c #DBA584",
" X c #D7A987",
".X c #D3A58A",
"XX c #DBAA8B",
"oX c #D8A38D",
"OX c #C8A990",
"+X c #D2AC96",
"@X c #C6B098",
"#X c #D3B29A",
"$X c #E5AB8E",
"%X c #E6AD90",
"&X c #E7B79B",
"*X c #F4BA99",
"=X c #DEBEAC",
"-X c #DEBDB2",
";X c #EEB6A6",
":X c #DCC8B3",
">X c #EBC1AB",
",X c #F3CAB3",
"<X c #ADD8E6",
/* pixels */
"<X<X<X<X<X<X<X<X<X<X<X<X<X<X<X<X<X<X<X<X<X<X<X<X<X<X<X<X<X<X<X<X<X<X<X<X<X<X<X<X<X<X<X<X<X<X<X<X<X<X<X<X<X<X<X<X<X<X<X<X<X<X<X<X",
"<X<X<X<X<X<X<X<X<X<X<X<X<X<X<X<X<X<X<X<X<X<X<X<X<X<X<X<X<X<X<X<X<X<X<X<X<X<X<X<X<X<X<X<X<X<X<X<X<X<X<X<X<X<X<X<X<X<X<X<X<X<X<X<X",
"<X<X<X<X<X<X<X<X<X<X<X<X<X<X<X<X<X<X<X<X<X<X<X<X<X<X<X<X<X<X<X<X<X<X<X<X<X<X<X<X<X<X<X<X<X<X<X<X<X<X<X<X<X<X<X<X<X<X<X<X<X<X<X<X",
"<X<X<X<X<X<X<X<X<X<X<X<X<X<X<X<X<X<X<X<X<X<X<X<X<X<X<X<X<X<X<X<X<X<X<X<X<X<X<X<X<X<X<X<X<X<X<X<X<X<X<X<X<X<X<X<X<X<X<X<X<X<X<X<X",
"<X<X<X<X<X<X<X<X<X<X<X<X<X<X<X<X<X<X<X<X<X4.4.=.=.X.( o.<X<X<X<X<X<X<X<X<X<X<X<X<X<X<X<X<X<X<X<X<X<X<X<X<X<X<X<X<X<X<X<X<X<X<X<X",
"<X<X<X<X<X<X<X<X<X<X<X<X<X<X<X<X<X<X<X-.) ' :.<.;._ W o.2.<X<X<X<X<X<X<X<X<X<X<X<X<X<X<X<X<X<X<X<X<X<X<X<X<X<X<X<X<X<X<X<X<X<X<X",
"<X<X<X<X<X<X<X<X<X<X<X<X<X<X<X<X<X<X4.) ' :.b.[.`.~.N.z.z.<X<X<X<X<X<X<X<X<X<X<X<X<X<X<X<X<X<X<X<X<X<X<X<X<X<X<X<X<X<X<X<X<X<X<X",
"<X<X<X<X<X<X<X<X<X<X<X<X<X<X<X<X<X<X-.' ' <.P.;X;X;X,X#X/.<X<X<X<X<X<X<X<X<X<X<X<X<X<X<X<X<X<X<X<X<X<X<X<X<X<X<X<X<X<X<X<X<X<X<X",
"<X<X<X<X<X<X<X<X<X<X<X<X<X<X<X<X<X<X] _ +.q.j.h.j.V.+X{.~.<X<X<X<X<X<X<X<X<X<X<X<X<X<X<X<X<X<X<X<X<X<X<X<X<X<X<X<X<X<X<X<X<X<X<X",
"<X<X<X<X<X<X<X<X<X<X<X<X<X<X<X<X<X<Xo.| +.q.` P P I  . .} <X<X<X<X<X<X<X<X<X<X<X<X<X<X<X<X<X<X<X<X<X<X<X<X<X<X<X<X<X<X<X<X<X<X<X",
"<X<X<X<X<X<X<X<X<X<X<X<X<X<X<X<X<Xe.a.8.p.V.d.8.P E +.....<X<X<X<X<X<X<X<X<X<X<X<X<X<X<X<X<X<X<X<X<X<X<X<X<X<X<X<X<X<X<X<X<X<X<X",
"<X<X<X<X<X<X<X<X<X<X<X<X<X<X<X,.>.2.1.s.D.|.|.K.d.g.S.z.a.<X<X<X<X<X<X<X<X<X<X<X<X<X<X<X<X<X<X<X<X<X<X<X<X<X<X<X<X<X<X<X<X<X<X<X",
"<X<X<X<X<X<X<X<X<X<X<X<X<X<Xn M ] ..e.N.U. X*X*X XXX#X~.W.<X<X<X<X<X<X<X<X<X<X<X<X<X<X<X<XD J K K $.&./ D z <X<X<X<X<X<X<X<X<X<X",
"<X<X<X<X<X<X<X<X<X<X<Xi i p # + @ ] M.Z.S.U. XXXI.H.F.A.z.<X<X<X<X{ Q Q a $ + $ i h , & % % % % ; ; ; 2 :     o <X<X<X<X<X<X<X<X",
"<X<X<X<X<X<X<X<X<X<X% u m N c t * } G.{./.Z.H.U.#X>X#Xw.X.w.<X<XA.X.9 5 $ + + + * & O % ; 4 %   X   X         <X<X<X<X<X<X<X<X<X",
"<X<X<X<X<X<X<X<X<X% O , j F [ N p n 6.(.:X@X^./.OX-X-Xy.! R <.F.`.b.9._ I 9 8 8 i <X<X<X<X<X<X<X<X<X<X<X<X<X<X<X<X<X<X<X<X<X<X<X",
"<X<X<X<X<X<X<X<X<X& o g D F [ [ j u N m.).(.Q.M.l.A.Q.3.! R t.'.]..X'.B.r.@.O.] <X<X<X<X<X<X<X<X<X<X<X<X<X<X<X<X<X<X<X<X<X<X<X<X",
"<X<X<X<X<X<X<X<X<X<X; D $.D Z D D j 2 [ 5.6.6.5.} } { X.o.<.c.'.'.$X*X$X$X.X+X<X<X<X<X<X<X<X<X<X<X<X<X<X<X<X<X<X<X<X<X<X<X<X<X<X",
"<X<X<X<X<X<X<X<X<X<XO 2 z D C B J D Z D D i j j M c n 7.Q._.S.V.T.T.R.J.J.E.oX<X<X<X<X<X<X<X<X<X<X<X<X<X<X<X<X<X<X<X<X<X<X<X<X<X",
"<X<X<X<X<X<X<X<X<X<X: ; 2 B B B D $.$.J D $.D C S N Q >.n.H.N.g.K.K.J.J.L. X}.~.<X<X<X<X<X<X<X<X<X<X<X<X<X<X<X<X<X<X<X<X<X<X<X<X",
"<X<X<X<X<X<X<X<X<X<X3 : < z z B Z #.$.$.J J $.$.#.v b >.k.2.1.i.C.I.K.C.C.D.D.Z.<X<X<X<X<X<X<X<X<X<X<X<X<X<X<X<X<X<X<X<X<X<X<X<X",
"<X<X<X<X<X<X<X<X<X<X3 < 2 k z z z B C J J f D $.H d r *.,.a T @.c.S.D.V.B.c.N.<X<X<X<X<X<X<X<X<X<X<X<X<X<X<X<X<X<X<X<X<X<X<X<X<X",
"<X<X<X<X<X<X<X<X<X<X<X- : d g d f f k k f f f f s 3 r M c $ y ( t.i.0.S._.{.<X<X<X<X<X<X<X<X<X<X<X<X<X<X<X<X<X<X<X<X<X<X<X<X<X<X",
"<X<X<X<X<X<X<X<X<X<X<Xo o 1 3 d 3 2 2 < f B z f = d V h r e 7 0 T Y Y t.{.<X<X<X<X<X<X<X<X<X<X<X<X<X<X<X<X<X<X<X<X<X<X<X<X<X<X<X",
"<X<X<X<X<X<X<X<X<X<X<Xo - 1 r s s 3 g k C $.K A f f k 3 > $ w y 0 9 0 ;.<X<X<X<X<X<X<X<X<X<X<X<X<X<X<X<X<X<X<X<X<X<X<X<X<X<X<X<X",
"<X<X<X<X<X<X<X<X<X<X<Xo - 3 r d f g l A H D K J k 3 s <X- # w e y y T <X<X<X<X<X<X<X<X<X<X<X<X<X<X<X<X<X<X<X<X<X<X<X<X<X<X<X<X<X",
"<X<X<X<X<X<X<X<X<X<X<X: > d d d u g j D F x m A s 3 <X<X<X<X> w e <X<X<X<X<X<X<X<X<X<X<X<X<X<X<X<X<X<X<X<X<X<X<X<X<X<X<X<X<X<X<X",
"<X<X<X<X<X<X<X<X<X<X<X: > r d r 3 u l / %.D / [ f s <X<X<X<X<X<X<X<X<X<X<X<X<X<X<X<X<X<X<X<X<X<X<X<X<X<X<X<X<X<X<X<X<X<X<X<X<X<X",
"<X<X<X<X<X<X<X<X<X<Xh O # h h d r u h F / m D x % = <X<X<X<X<X<X<X<X<X<X<X<X<X<X<X<X<X<X<X<X<X<X<X<X<X<X<X<X<X<X<X<X<X<X<X<X<X<X",
"<X<X<X<X<X<X<X<X<X<X> # > j i 3 1 g v F / m c h d g <X<X<X<X<X<X<X<X<X<X<X<X<X<X<X<X<X<X<X<X<X<X<X<X<X<X<X<X<X<X<X<X<X<X<X<X<X<X",
"<X<X<X<X<X<X<X<X<X<X: > r h r 3 r v / / F v j h x x <X<X<X<X<X<X<X<X<X<X<X<X<X<X<X<X<X<X<X<X<X<X<X<X<X<X<X<X<X<X<X<X<X<X<X<X<X<X",
"<X<X<X<X<X<X<X<X<X<X3 r r r h b v m F / / M h r u k <X<X<X<X<X<X<X<X<X<X<X<X<X<X<X<X<X<X<X<X<X<X<X<X<X<X<X<X<X<X<X<X<X<X<X<X<X<X",
"<X<X<X<X<X<X<X<X<X<X. > d h l l v F F [ F j u > & 1 <X<X<X<X<X<X<X<X<X<X<X<X<X<X<X<X<X<X<X<X<X<X<X<X<X<X<X<X<X<X<X<X<X<X<X<X<X<X",
"<X<X<X<X<X<X<X<X<X<X: 1 w r d j F S x j j u u , O o <X<X<X<X<X<X<X<X<X<X<X<X<X<X<X<X<X<X<X<X<X<X<X<X<X<X<X<X<X<X<X<X<X<X<X<X<X<X",
"<X<X<X<X<X<X<X<X<X<X3 - 1 d k j V x u 3 , , g g = % <X<X<X<X<X<X<X<X<X<X<X<X<X<X<X<X<X<X<X<X<X<X<X<X<X<X<X<X<X<X<X<X<X<X<X<X<X<X",
"<X<X<X<X<X<X<X<X<X<X1 - 1 H H v g g g 2 : > g k > : <X<X<X<X<X<X<X<X<X<X<X<X<X<X<X<X<X<X<X<X<X<X<X<X<X<X<X<X<X<X<X<X<X<X<X<X<X<X",
"<X<X<X<X<X<X<X<X<X<Xd o > A H V h x x k 2 < f z > : <X<X<X<X<X<X<X<X<X<X<X<X<X<X<X<X<X<X<X<X<X<X<X<X<X<X<X<X<X<X<X<X<X<X<X<X<X<X",
"<X<X<X<X<X<X<X<X<X<X<X1 1 s x A H K H x f < f g ; <X<X<X<X<X<X<X<X<X<X<X<X<X<X<X<X<X<X<X<X<X<X<X<X<X<X<X<X<X<X<X<X<X<X<X<X<X<X<X",
"<X<X<X<X<X<Xo   3 H H 1 - g k z H K #.#.Z z s < ; <X<X<X<X<X<X<X<X<X<X<X<X<X<X<X<X<X<X<X<X<X<X<X<X<X<X<X<X<X<X<X<X<X<X<X<X<X<X<X",
"<X<X<X<X<X3 1 : 1 d g - < g d s B H #.#.#.#.f ; < <X<X<X<X<X<X<X<X<X<X<X<X<X<X<X<X<X<X<X<X<X<X<X<X<X<X<X<X<X<X<X<X<X<X<X<X<X<X<X",
"<X<X<X= 1 k A A < = - d d 1 1 s z A A B #.&.B 1 g <X<X<X<X<X<X<X<X<X<X<X<X<X<X<X<X<X<X<X<X<X<X<X<X<X<X<X<X<X<X<X<X<X<X<X<X<X<X<X",
"<X<X< = < k s - = 1 B K H B k k s g k A J J B k g <X<X<X<X<X<X<X<X<X<X<X<X<X<X<X<X<X<X<X<X<X<X<X<X<X<X<X<X<X<X<X<X<X<X<X<X<X<X<X",
"<X<X  = s G J G l k x &.&.H k 1 g g k x x x A B 2 1 <X<X<X<X<X<X<X<X<X<X<X<X<X<X<X<X<X<X<X<X<X<X<X<X<X<X<X<X<X<X<X<X<X<X<X<X<X<X",
"<X<X= < s <X<X<XB 3 < z H #.B z z k 3 3 g l x l : - 2 <X<X<X<X<X<X<X<X<X<X<X<X<X<X<X<X<X<X<X<X<X<X<X<X<X<X<X<X<X<X<X<X<X<X<X<X<X",
"<X<X<X<X<X<X<X<X<X=   = s B A A z < o : 2 k k u > : : <X<X<X<X<X<X<X<X<X<X<X<X<X<X<X<X<X<X<X<X<X<X<X<X<X<X<X<X<X<X<X<X<X<X<X<X<X",
"<X<X<X<X<X<X<X<X<X<X<X<Xz g s s -     % , u k z x 3 o <X<X<X<X<X<X<X<X<X<X<X<X<X<X<X<X<X<X<X<X<X<X<X<X<X<X<X<X<X<X<X<X<X<X<X<X<X",
"<X<X<X<X<X<X<X<X<X<X<X<X<X<X<X<X<X<X<Xo : g A F F l 1 s <X<X<X<X<X<X<X<X<X<X<X<X<X<X<X<X<X<X<X<X<X<X<X<X<X<X<X<X<X<X<X<X<X<X<X<X",
"<X<X<X<X<X<X<X<X<X<X<X<X<X<X<X<X<X<X<X<Xo < x K #.F z l <X<X<X<X<X<X<X<X<X<X<X<X<X<X<X<X<X<X<X<X<X<X<X<X<X<X<X<X<X<X<X<X<X<X<X<X",
"<X<X<X<X<X<X<X<X<X<X<X<X<X<X<X<X<X<X<X<Xo o g H %.%.x g 3 <X<X<X<X<X<X<X<X<X<X<X<X<X<X<X<X<X<X<X<X<X<X<X<X<X<X<X<X<X<X<X<X<X<X<X",
"<X<X<X<X<X<X<X<X<X<X<X<X<X<X<X<X<X<X<X<X<Xo r D %.K x 2 - <X<X<X<X<X<X<X<X<X<X<X<X<X<X<X<X<X<X<X<X<X<X<X<X<X<X<X<X<X<X<X<X<X<X<X",
"<X<X<X<X<X<X<X<X<X<X<X<X<X<X<X<X<X<X<X<X<Xo 2 x A #.%.h : <X<X<X<X<X<X<X<X<X<X<X<X<X<X<X<X<X<X<X<X<X<X<X<X<X<X<X<X<X<X<X<X<X<X<X",
"<X<X<X<X<X<X<X<X<X<X<X<X<X<X<X<X<X<X<X<X<X  1 x H %.%.v d <X<X<X<X<X<X<X<X<X<X<X<X<X<X<X<X<X<X<X<X<X<X<X<X<X<X<X<X<X<X<X<X<X<X<X",
"<X<X<X<X<X<X<X<X<X<X<X<X<X<X<X<X<X<X<X<X<X  o 2 D H V l g H <X<X<X<X<X<X<X<X<X<X<X<X<X<X<X<X<X<X<X<X<X<X<X<X<X<X<X<X<X<X<X<X<X<X",
"<X<X<X<X<X<X<X<X<X<X<X<X<X<X<X<X<X<X<X<X<X<X    g j d d x #.H <X<X<X<X<X<X<X<X<X<X<X<X<X<X<X<X<X<X<X<X<X<X<X<X<X<X<X<X<X<X<X<X<X",
"<X<X<X<X<X<X<X<X<X<X<X<X<X<X<X<X<X<X<X<X<X<X<X= - 3 g s h K j 1 % <X<X<X<X<X<X<X<X<X<X<X<X<X<X<X<X<X<X<X<X<X<X<X<X<X<X<X<X<X<X<X",
"<X<X<X<X<X<X<X<X<X<X<X<X<X<X<X<X<X<X<X<X<X<X<X< < 3 1 o # 3 1 - <X<X<X<X<X<X<X<X<X<X<X<X<X<X<X<X<X<X<X<X<X<X<X<X<X<X<X<X<X<X<X<X",
"<X<X<X<X<X<X<X<X<X<X<X<X<X<X<X<X<X<X<X<X<X<X<X<X. X o : > 1 <X<X<X<X<X<X<X<X<X<X<X<X<X<X<X<X<X<X<X<X<X<X<X<X<X<X<X<X<X<X<X<X<X<X",
"<X<X<X<X<X<X<X<X<X<X<X<X<X<X<X<X<X<X<X<X<X<X<X<X      > <X<X<X<X<X<X<X<X<X<X<X<X<X<X<X<X<X<X<X<X<X<X<X<X<X<X<X<X<X<X<X<X<X<X<X<X",
"<X<X<X<X<X<X<X<X<X<X<X<X<X<X<X<X<X<X<X<X<X<X<X<X<X<X<X<X<X<X<X<X<X<X<X<X<X<X<X<X<X<X<X<X<X<X<X<X<X<X<X<X<X<X<X<X<X<X<X<X<X<X<X<X",
"<X<X<X<X<X<X<X<X<X<X<X<X<X<X<X<X<X<X<X<X<X<X<X<X<X<X<X<X<X<X<X<X<X<X<X<X<X<X<X<X<X<X<X<X<X<X<X<X<X<X<X<X<X<X<X<X<X<X<X<X<X<X<X<X",
"<X<X<X<X<X<X<X<X<X<X<X<X<X<X<X<X<X<X<X<X<X<X<X<X<X<X<X<X<X<X<X<X<X<X<X<X<X<X<X<X<X<X<X<X<X<X<X<X<X<X<X<X<X<X<X<X<X<X<X<X<X<X<X<X",
"<X<X<X<X<X<X<X<X<X<X<X<X<X<X<X<X<X<X<X<X<X<X<X<X<X<X<X<X<X<X<X<X<X<X<X<X<X<X<X<X<X<X<X<X<X<X<X<X<X<X<X<X<X<X<X<X<X<X<X<X<X<X<X<X",
"<X<X<X<X<X<X<X<X<X<X<X<X<X<X<X<X<X<X<X<X<X<X<X<X<X<X<X<X<X<X<X<X<X<X<X<X<X<X<X<X<X<X<X<X<X<X<X<X<X<X<X<X<X<X<X<X<X<X<X<X<X<X<X<X",
"<X<X<X<X<X<X<X<X<X<X<X<X<X<X<X<X<X<X<X<X<X<X<X<X<X<X<X<X<X<X<X<X<X<X<X<X<X<X<X<X<X<X<X<X<X<X<X<X<X<X<X<X<X<X<X<X<X<X<X<X<X<X<X<X"
};
