/* XPM */
static char *_73dab84028c4a93b753af304166afccJPcyBbvl2NVmv6cT[] = {
/* columns rows colors chars-per-pixel */
"64 64 164 2 ",
"   c #ADD8E6",
".  c #020202",
"X  c #090002",
"o  c #060806",
"O  c #090907",
"+  c #050908",
"@  c #0C0C0C",
"#  c #140402",
"$  c #190C03",
"%  c #0D110F",
"&  c #1A1007",
"*  c #1B140D",
"=  c #180B12",
"-  c #0F1311",
";  c #131413",
":  c #1A1615",
">  c #161815",
",  c #161619",
"<  c #191718",
"1  c #171C18",
"2  c gray11",
"3  c #2E0100",
"4  c #221409",
"5  c #29180C",
"6  c #341304",
"7  c #381400",
"8  c #35190D",
"9  c #231314",
"0  c #251A15",
"q  c #241D19",
"w  c #311F11",
"e  c #362405",
"r  c #34240C",
"t  c #24231F",
"y  c #3B2216",
"u  c #35211A",
"i  c #1D1D20",
"p  c #211F20",
"a  c #1E2023",
"s  c #232323",
"d  c #2A2624",
"f  c #262827",
"g  c #292826",
"h  c #25272A",
"j  c #2C2C2C",
"k  c #362B25",
"l  c #332F2E",
"z  c #34312E",
"x  c #3D332A",
"c  c #2D2E30",
"v  c #312F30",
"b  c #2B343B",
"n  c #343334",
"m  c #3A3535",
"M  c #363837",
"N  c #3B3A37",
"B  c #363638",
"V  c #383639",
"C  c #373B3A",
"Z  c #3B3A3A",
"A  c #462F19",
"S  c #4E3314",
"D  c #483519",
"F  c #58321B",
"G  c #463426",
"H  c #573B27",
"J  c #403732",
"K  c #4D3831",
"L  c #433F3D",
"P  c #603B20",
"I  c #693B24",
"U  c #58401E",
"Y  c #5A4729",
"T  c #43413E",
"R  c #534137",
"E  c #65422F",
"W  c #654B3A",
"Q  c #764D3B",
"!  c #7E4E38",
"~  c #77553B",
"^  c #3F3F41",
"/  c #3E4444",
"(  c #424142",
")  c #464746",
"_  c #494748",
"`  c gray29",
"'  c #5C4D48",
"]  c gray32",
"[  c #5D5C54",
"{  c #625647",
"}  c #785B49",
"|  c #635C52",
" . c #74614A",
".. c #6D6A59",
"X. c #7D6A59",
"o. c #6D6E68",
"O. c #75726B",
"+. c #7A7A72",
"@. c #905E45",
"#. c #846C4A",
"$. c #916344",
"%. c #90664E",
"&. c #886A59",
"*. c #82715F",
"=. c #A07356",
"-. c #AD7C5D",
";. c #B27B5C",
":. c #947464",
">. c #AE7F63",
",. c #A3865E",
"<. c #978577",
"1. c #9C8A74",
"2. c #A48662",
"3. c #BC8565",
"4. c #B5846E",
"5. c #B78A6D",
"6. c #BF8C6D",
"7. c #BE946C",
"8. c #AB8771",
"9. c #A58970",
"0. c #AF8C70",
"q. c #AC8E78",
"w. c #B78874",
"e. c #BC9377",
"r. c #B2937B",
"t. c #CA9673",
"y. c #C3917A",
"u. c #D6A37D",
"i. c #918C86",
"p. c #949083",
"a. c #959188",
"s. c #9B9995",
"d. c #AA988A",
"f. c #BA9886",
"g. c #A5A592",
"h. c #BFA297",
"j. c #BEB096",
"k. c #B5B3A2",
"l. c #C89B87",
"z. c #C3A185",
"x. c #CCA387",
"c. c #DBA384",
"v. c #D6A886",
"b. c #D7A78D",
"n. c #CAB48F",
"m. c #C3A695",
"M. c #C1A798",
"N. c #D7AD94",
"B. c #CFBB9A",
"V. c #D6B596",
"C. c #DEB798",
"Z. c #E1AC87",
"A. c #E8B48F",
"S. c #D3B4A2",
"D. c #D6C29F",
"F. c #EBC39F",
"G. c #CDC4BD",
"H. c #D5C6B6",
"J. c #E7CAAC",
"K. c #FFD5AB",
"L. c #F1C8B6",
"P. c #FDD2BF",
"I. c #E3D3C6",
"U. c #FAD8C1",
/* pixels */
"                                                                                                                                ",
"                                                                                                                                ",
"                                                                                                                                ",
"                                                                                                                                ",
"                                                      A Y D e r                                                                 ",
"                                                  u 6 F ~ U S e                                                                 ",
"                                                * 8 E 8.J.n.J.9.                                                                ",
"                                                5 E Q %.N.z.P.B.X.                                                              ",
"                                                r P I 4.5.P r.M.*.                                                              ",
"                                                H ! I @.3 7 S D {                                                               ",
"                                                Q ! 4.Z.$.7 #. ...                                                              ",
"                                              K ' y.c.A.K.C.n.j.g.                                                              ",
"                                        . = # 9 :.>.u.u.7.,.D.1.k.      b s % + . .   . . . . . . . . . .                       ",
"                                    . . ; X 9 w m.w.6.F.F.,.B.<.1.      a B O + . . O @ . O . . . . . . .                       ",
"                                    . . < L x * &.U.@.=.F.J.J.1.o p.  s.> o . O ; s ; @ O . O . . . . . .                       ",
"                                    . ; m n l * G S.U.&.q.H.H.<.# x d.f.f.K k 0 0                                               ",
"                                    . s Z Z N l J ' I.G.i.[ O.[ 5  .f.6.v.S.V.:.h.                                              ",
"                                    . 2 B Z m ( m q k h h f - [ | 2.D.u.Z.u.-.N.                                                ",
"                                    . 2 Z V v Z Z L l c Z / a +.G.9.0.v.%.t.;.b.L.                                              ",
"                                    . ; B Z ^ n m L ) ( ^ / 1 o.j.X.r.e.7.3.u.y.l.                                              ",
"                                    . + j c V l Z m J Z N b > s.a.$ W r.x.t.;.@.e.                                              ",
"                                      + 2 j s s l d d g f 1 1 ) z X w m.f.>.-.l.                                                ",
"                                      - , i i 2 2 : : 2 q a f - @ q & R y F                                                     ",
"                                      < 2 i i a s d j t j t n . s t * 0 4 }                                                     ",
"                                      s 2 i p i h m v v n d C   + > d d $                                                       ",
"                                      ; s h h p i V l v n @ d     M s q %                                                       ",
"                                      O B i p h p n V c v ;                                                                     ",
"                                      . 2 s h i i v ^ v B . -                                                                   ",
"                                    2 O p ( B d p V ( B v s +                                                                   ",
"                                    ; s s < 2 p d V ^ h B s                                                                     ",
"                                    @ ; j < s Z ) ^ B , i 1                                                                     ",
"                                    ; j s 2 j Z _ ( V - , ; @                                                                   ",
"                                    ; @ ; s j n Z ` ` , ; . @                                                                   ",
"                                    ; O n j j s 2 s @ j ; 2                                                                     ",
"                                    ; @ v ^ M n j ; 2 n f ;                                                                     ",
"                                    % . j s g n j @ j ; ; @                                                                     ",
"                                      . : j M Z Z n s n ; 2                                                                     ",
"                                      2 % j n B Z j ; Z ; ;                                                                     ",
"                              2 ; @ @ ; % n j Z T j n n ; ;                                                                     ",
"                              . < . . O ; j j C Z Z ( 2 ; 2                                                                     ",
"                            2 , % : s p v 2 s s j Z Z s .                                                                       ",
"                          ; O @ ; . ; n ( @ s n 2 2 Z s ;                                                                       ",
"                          @ 2 . 2 @ % < % 2 2 2 j s j s O                                                                       ",
"                        @ . @       % . % . . ; s s s 2 -                                                                       ",
"                                      ; . @ O < p q a a 2 O                                                                     ",
"                                                . , < j j 2                                                                     ",
"                                                ; + d n f ;                                                                     ",
"                                                @ 2 ` ] j h                                                                     ",
"                                                . 2 ] ` h ; @                                                                   ",
"                                                  2 ; ` j q i                                                                   ",
"                                                  ; s ] n n 2                                                                   ",
"                                                  @ 2 B Z Z n                                                                   ",
"                                                  @ 2 Z Z j O                                                                   ",
"                                                  @ 2 2 ` j %                                                                   ",
"                                                  O O s Z s @                                                                   ",
"                                                    + 2 2 . ; ; @                                                               ",
"                                                      . O @ ; < 2 .                                                             ",
"                                                      . 2 s p 2 ; @                                                             ",
"                                                      . @ . ; 2                                                                 ",
"                                                      ; . 2                                                                     ",
"                                                                                                                                ",
"                                                                                                                                ",
"                                                                                                                                ",
"                                                                                                                                "
};
