/* XPM */
static char *result[] = {
/* columns rows colors chars-per-pixel */
"32 32 119 2 ",
"   c LightBlue",
".  c #ADD7E5",
"X  c #ACD8E6",
"o  c #ACD9E7",
"O  c #ACD8E7",
"+  c #ABDAEA",
"@  c #B0D1DB",
"#  c #B6C7CC",
"$  c #B4CAD0",
"%  c #ABDAE9",
"&  c #B8C3C6",
"*  c #D1957E",
"=  c #E67145",
"-  c #F65317",
";  c #F65418",
":  c #F25B22",
">  c #DA8767",
",  c #C5ABA0",
"<  c #B0D2DD",
"1  c #ACD9E8",
"2  c #C9A495",
"3  c #F4581E",
"4  c #FE4302",
"5  c #FF4200",
"6  c #FF4300",
"7  c #FB4A0A",
"8  c #E27850",
"9  c #B7C4C8",
"0  c #E17A53",
"q  c #FB4A09",
"w  c #FF4400",
"e  c OrangeRed",
"r  c #FE4402",
"t  c #F4571D",
"y  c #C4AEA4",
"u  c #C9A496",
"i  c #FF4E00",
"p  c #FF4F00",
"a  c #FF4900",
"s  c #FF4100",
"d  c #E76E42",
"f  c #B3CBD2",
"g  c #F3581F",
"h  c #FF4D00",
"j  c #FF7400",
"k  c #FF9500",
"l  c #FF9A00",
"z  c #FF8700",
"x  c #FF6000",
"c  c #D68E73",
"v  c #FF8400",
"b  c #FFAA00",
"n  c #FFBE0E",
"m  c #FFC319",
"M  c #FFB503",
"N  c #FF9D00",
"B  c #FF6400",
"V  c #F25B23",
"C  c #B4CBD1",
"Z  c #E67146",
"A  c #FFCF3D",
"S  c #FFF4B4",
"D  c #FFFADB",
"F  c #FFE67C",
"G  c #FFB80D",
"H  c #FF9800",
"J  c #FF5200",
"K  c #FB4B0A",
"L  c #C5AB9F",
"P  c #ABD9E9",
"I  c #B5C7CC",
"U  c #F65319",
"Y  c #FFBE0B",
"T  c #FFF3B2",
"R  c white",
"E  c #FFFDF3",
"W  c #FFDC4E",
"Q  c #FFA900",
"!  c #FF7000",
"~  c #D68D73",
"^  c #F65419",
"/  c #FFC318",
"(  c #FFFADA",
")  c #FFE476",
"_  c #FFAC00",
"`  c #FF7500",
"'  c #FFB500",
"]  c #FFE67B",
"[  c #FFFDF5",
"{  c #FFFEFD",
"}  c #FFF8D1",
"|  c #FFCB23",
" . c #FFA300",
".. c #FF6200",
"X. c #D2947C",
"o. c #D98769",
"O. c #FFB80B",
"+. c #FFAA02",
"@. c #FF8300",
"#. c #FF4800",
"$. c #F75115",
"%. c #B9C1C3",
"&. c #FF4C00",
"*. c #E57046",
"=. c #B0D1DC",
"-. c #FE4400",
";. c #F75114",
":. c #F3571F",
">. c #D58E73",
",. c #E76E41",
"<. c #FE4301",
"1. c #D68E72",
"2. c #B4CAD1",
"3. c #FA4B0B",
"4. c #E67044",
"5. c #C6AB9F",
"6. c #D68D71",
"7. c #B9C1C2",
"8. c white",
/* pixels */
"                                                                ",
"                                                                ",
"                                                                ",
"                                                                ",
"                                                                ",
"                                                                ",
"                          . X o o O X .                         ",
"                    . X o + @ # # $ O % X .                     ",
"                  . O X & * = - ; : > , < 1 X .                 ",
"                . O < 2 3 4 5 6 6 6 5 7 8 9 . X                 ",
"              . O < 0 q 6 w w w w w e w r t y + .               ",
"              X X u 7 6 e w w i p a 6 w w s d f O .             ",
"              o & g 6 e w h j k l z x w w w 6 c X X             ",
"            . + * 6 w w h v b n m M N B w w 6 V C O             ",
"            X @ Z 5 w w j b A S D F G H J w w K L P             ",
"            o I U 6 w i k Y T R R E W Q ! 6 e s ~ +             ",
"            o I ^ 6 w p l / ( R R R ) _ ` 6 e 5 c +             ",
"            O $ : 6 w a z ' ] [ { } |  ...6 w w X.+             ",
"            X O o.5 e 6 x N O.W ) | +.@.#.w w $.%.o             ",
"            . % , 7 w w w B H Q _  .@.&.w e 5 *.=.X             ",
"              X < 8 -.w w w J ! ` ..#.w e w ;.y % .             ",
"              . 1 9 :.s w w w 6 6 6 w e w 5 >.1 X               ",
"                X . y ,.<.6 w e e w w 5 $.1.2.O .               ",
"                . X + f 1.: 3.s 5 r ;.4.y 1 O .                 ",
"                    . O X C 5.6.1.X.7.=.% X .                   ",
"                      . X O P + + + 1 X .                       ",
"                                                                ",
"                                                                ",
"                                                                ",
"                                                                ",
"                                                                ",
"                                                                "
};
