/* XPM */
static char *_002593e12344383b43801b1939e222e3dlGUlviHGPA23N7[] = {
/* columns rows colors chars-per-pixel */
"64 64 5 1 ",
"  c #ADD8E6",
". c OrangeRed",
"X c orange",
"o c gold",
"O c white",
/* pixels */
"                                                                ",
"                                                                ",
"                                                                ",
"                                                                ",
"                                                                ",
"                                                                ",
"                                                                ",
"                                                                ",
"                            .........                           ",
"                        .................                       ",
"                      .....................                     ",
"                    .........................                   ",
"                   ...........................                  ",
"                 ...............................                ",
"                .................................               ",
"               ...................................              ",
"              .....................................             ",
"             .......................................            ",
"             .......................................            ",
"            .........................................           ",
"           ..................XXXXXXX..................          ",
"           ................XXXXXXXXXXX................          ",
"          ...............XXXXXXXXXXXXXXX...............         ",
"          ..............XXXXXXXXXXXXXXXXX..............         ",
"         ..............XXXXXXXoooooXXXXXXX..............        ",
"         .............XXXXXXoooooooooXXXXXX.............        ",
"         .............XXXXXoooOOOOOoooXXXXX.............        ",
"         ............XXXXXoooOOOOOOOoooXXXXX............        ",
"        .............XXXXoooOOOOOOOOOoooXXXX.............       ",
"        ............XXXXXooOOOOOOOOOOOooXXXXX............       ",
"        ............XXXXooOOOOOOOOOOOOOooXXXX............       ",
"        ............XXXXooOOOOOOOOOOOOOooXXXX............       ",
"        ............XXXXooOOOOOOOOOOOOOooXXXX............       ",
"        ............XXXXooOOOOOOOOOOOOOooXXXX............       ",
"        ............XXXXooOOOOOOOOOOOOOooXXXX............       ",
"        ............XXXXXooOOOOOOOOOOOooXXXXX............       ",
"        .............XXXXoooOOOOOOOOOoooXXXX.............       ",
"         ............XXXXXoooOOOOOOOoooXXXXX............        ",
"         .............XXXXXoooOOOOOoooXXXXX.............        ",
"         .............XXXXXXoooooooooXXXXXX.............        ",
"         ..............XXXXXXXoooooXXXXXXX..............        ",
"          ..............XXXXXXXXXXXXXXXXX..............         ",
"          ...............XXXXXXXXXXXXXXX...............         ",
"           ................XXXXXXXXXXX................          ",
"           ..................XXXXXXX..................          ",
"            .........................................           ",
"             .......................................            ",
"             .......................................            ",
"              .....................................             ",
"               ...................................              ",
"                .................................               ",
"                 ...............................                ",
"                   ...........................                  ",
"                    .........................                   ",
"                      .....................                     ",
"                        .................                       ",
"                            .........                           ",
"                                                                ",
"                                                                ",
"                                                                ",
"                                                                ",
"                                                                ",
"                                                                ",
"                                                                "
};
