/* XPM */
static char *result[] = {
/* columns rows colors chars-per-pixel */
"32 32 129 2 ",
"   c #ADD7E5",
".  c #ACD9E7",
"X  c #B0D2DC",
"o  c #CD9E8B",
"O  c #FB4A09",
"+  c #FF4400",
"@  c OrangeRed",
"#  c #FF4300",
"$  c #E96C3D",
"%  c #B8C2C4",
"&  c #ACD8E6",
"*  c #B3CCD3",
"=  c #E27850",
"-  c #FB4B0A",
";  c #FE4502",
":  c #F3581F",
">  c #C7A79A",
",  c #ACD8E7",
"<  c #E17851",
"1  c #FE4300",
"2  c #F75115",
"3  c #C7A99C",
"4  c #CC9E8C",
"5  c #FA4B0C",
"6  c #ED6332",
"7  c #FB4A0A",
"8  c #FF4E00",
"9  c #FF4F00",
"0  c #FF4900",
"q  c #FF4800",
"w  c #FF6200",
"e  c #FF7900",
"r  c #FF9600",
"t  c #FF9A00",
"y  c #FF9B00",
"u  c #FF8800",
"i  c #FF7000",
"p  c #FF5200",
"a  c #FF6000",
"s  c #FFA100",
"d  c #FFA600",
"f  c orange",
"g  c #FF9800",
"h  c #FF7500",
"j  c #FF4D00",
"k  c #FF6400",
"l  c #FF9D00",
"z  c #FFA400",
"x  c #FF8500",
"c  c #FF4C00",
"v  c #FFA900",
"b  c #FFB400",
"n  c #FFB600",
"m  c #FF7A00",
"M  c #FFAE00",
"N  c #FFA700",
"B  c #FFB500",
"V  c #FFCF00",
"C  c #FFD70D",
"Z  c #FFCE1C",
"A  c #FF631B",
"S  c #FF9718",
"D  c #FFD503",
"F  c #FFC500",
"G  c #FF8300",
"H  c #FFD201",
"J  c #FFE348",
"K  c #FFF3B3",
"L  c #FFF9E5",
"P  c #FFECE3",
"I  c #FFF1D9",
"U  c #FFEB80",
"Y  c #FFDA18",
"T  c #FFC600",
"R  c #FF6100",
"E  c #FFD200",
"W  c #FFE454",
"Q  c #FFFBE8",
"!  c white",
"~  c #FFFEFE",
"^  c #FFF1AA",
"/  c #FFDA16",
"(  c #FFE34A",
")  c #FFF1A6",
"_  c #FFD90B",
"`  c #FFBB00",
"'  c #FFA300",
"]  c #FF9C00",
"[  c #FF5300",
"{  c #FFD60B",
"}  c #FFF3B1",
"|  c #FFFDF3",
" . c #FFE34D",
".. c #FFC700",
"X. c #FFBE00",
"o. c #FFDC1B",
"O. c #FFFAE3",
"+. c #FFEB7F",
"@. c #FFD100",
"#. c #FFAA00",
"$. c #FFBD00",
"%. c #FFD000",
"&. c #FFDB18",
"*. c #FFF8D8",
"=. c #FFE974",
"-. c #FFCE00",
";. c #FFAC00",
":. c #FFF9DB",
">. c #FFDD23",
",. c #FFC000",
"<. c #FFA000",
"1. c #FFB300",
"2. c #FFFEFC",
"3. c #FFF9DD",
"4. c #FFE455",
"5. c #FFE34E",
"6. c #FFEB81",
"7. c #FFD202",
"8. c #FF5100",
"9. c #FE4501",
"0. c #F35821",
"q. c #FE4400",
"w. c #DB8564",
"e. c #E2774E",
"r. c #B4C9D0",
"t. c #C7A99D",
"y. c #ED6330",
"u. c #ABD9E8",
"i. c white",
/* pixels */
"  . X o O + @ @ @ @ @ @ @ @ @ @ @ @ @ @ @ @ @ @ @ @ @ # $ % & & ",
". * = - + @ @ @ @ @ @ @ @ @ @ @ @ @ @ @ @ @ @ @ @ @ @ + ; : > , ",
"X < 1 + @ @ @ @ @ @ @ @ @ @ @ @ @ @ @ @ @ @ @ @ @ @ @ @ + # 2 3 ",
"4 5 + @ @ @ @ @ @ @ @ @ @ @ @ @ @ @ @ @ @ @ @ @ @ @ @ @ @ @ # 6 ",
"7 + @ @ @ @ @ @ @ @ @ @ @ + + + + + + @ @ @ @ @ @ @ @ @ @ @ @ # ",
"+ @ @ @ @ @ @ @ @ @ @ + # + 8 9 9 9 0 # + + @ @ @ @ @ @ @ @ @ @ ",
"@ @ @ @ @ @ @ @ @ + # q w e r t t y u i p + + @ @ @ @ @ @ @ @ @ ",
"@ @ @ @ @ @ @ @ + + a u s d f f f f d f g h j + @ @ @ @ @ @ @ @ ",
"@ @ @ @ @ @ @ + + k l d f z z z d f z z f d x c + @ @ @ @ @ @ @ ",
"@ @ @ @ @ @ + + k l f z f v b n m r M N z f f x c + @ @ @ @ @ @ ",
"@ @ @ @ @ @ # a l f z z B V C Z A S D F v z f f G q + @ @ @ @ @ ",
"@ @ @ @ @ + q u d z z B H J K L P I U Y T v z f s R # @ @ @ @ @ ",
"@ @ @ @ @ # w s f f B E W Q ! ! ! ! ~ ^ / T v z d u 0 + @ @ @ @ ",
"@ @ @ @ + + e d z v V ( Q ! ! ! ! ! ! ~ ) _ ` ' f ] [ + @ @ @ @ ",
"@ @ @ @ + 8 r f z b { } ! ! ! ! ! ! ! ! |  ...N z f i # @ @ @ @ ",
"@ @ @ @ + 9 t f z X.o.O.! ! ! ! ! ! ! ! ! +.@.#.z d h # @ @ @ @ ",
"@ @ @ @ + 9 t f z $.o.O.! ! ! ! ! ! ! ! ! +.%.#.z d h # @ @ @ @ ",
"@ @ @ @ + 9 y f z ` &.*.! ! ! ! ! ! ! ! ! =.-.v z N h # @ @ @ @ ",
"@ @ @ @ + 0 u d z ;.E +.! ! ! ! ! ! ! ! :.>.,.z f <.w # @ @ @ @ ",
"@ @ @ @ @ # i f z N F / ^ ~ ! ! ! ! ! Q W E 1.z f r j + @ @ @ @ ",
"@ @ @ @ @ + p g f z v T / ) | ! ! 2.3.4.E B z f f h + + @ @ @ @ ",
"@ @ @ @ @ + + h d f z v T _ 5.6.U =.>.7.B z z d g 8.+ @ @ @ @ @ ",
"@ @ @ @ @ @ + j x f f z v ` ..@.%.-.,.1.z z f l k + + @ @ @ @ @ ",
"@ @ @ @ @ @ @ + c x f f z ' N #.#.v z z f d l k + + @ @ @ @ @ @ ",
"@ @ @ @ @ @ @ @ + c G s d f z z z z f f f g k + + @ @ @ @ @ @ @ ",
"@ @ @ @ @ @ @ @ @ + q R u ] f d d N <.r h 8.+ + @ @ @ @ @ @ @ @ ",
"@ @ @ @ @ @ @ @ @ @ + # 0 [ i h h h w j + + + @ @ @ @ @ @ @ @ @ ",
"# + @ @ @ @ @ @ @ @ @ @ + + # # # # # + + @ @ @ @ @ @ @ @ @ @ + ",
"$ 9.+ @ @ @ @ @ @ @ @ @ @ @ @ @ @ @ @ @ @ @ @ @ @ @ @ @ @ @ + - ",
"% 0.# @ @ @ @ @ @ @ @ @ @ @ @ @ @ @ @ @ @ @ @ @ @ @ @ @ @ + q.w.",
"& > 2 # @ @ @ @ @ @ @ @ @ @ @ @ @ @ @ @ @ @ @ @ @ @ @ @ + q.e.r.",
"& , t.y.# @ @ @ @ @ @ @ @ @ @ @ @ @ @ @ @ @ @ @ @ @ @ + - w.r.u."
};
