/* XPM */
static char *_301ab445b99457cc17188aca8f2dbe23ozpJE5VhrUBq2Z4[] = {
/* columns rows colors chars-per-pixel */
"64 64 4 1 ",
"  c #ADD8E6",
". c OrangeRed",
"X c orange",
"o c white",
/* pixels */
"                                                                ",
"                                                                ",
"                                                                ",
"                                                                ",
"                                                                ",
"                                                                ",
"                                                                ",
"                                                                ",
"                                                                ",
"                                                                ",
"                                                                ",
"                                                                ",
"                                                                ",
"                                                                ",
"                                                                ",
"                                                                ",
"                                                                ",
"                                                                ",
"                                                                ",
"                                                                ",
"                                                                ",
"                                                                ",
"                                                                ",
"                                                                ",
"                              .....                             ",
"                            .........                           ",
"                           ...........                          ",
"                          .............                         ",
"                         ......XXX......                        ",
"                         ....XXXXXXX....                        ",
"                        .....XXoooXX.....                       ",
"                        ....XXoooooXX....                       ",
"                        ....XXoooooXX....                       ",
"                        ....XXoooooXX....                       ",
"                        .....XXoooXX.....                       ",
"                         ....XXXXXXX....                        ",
"                         ......XXX......                        ",
"                          .............                         ",
"                           ...........                          ",
"                            .........                           ",
"                              .....                             ",
"                                                                ",
"                                                                ",
"                                                                ",
"                                                                ",
"                                                                ",
"                                                                ",
"                                                                ",
"                                                                ",
"                                                                ",
"                                                                ",
"                                                                ",
"                                                                ",
"                                                                ",
"                                                                ",
"                                                                ",
"                                                                ",
"                                                                ",
"                                                                ",
"                                                                ",
"                                                                ",
"                                                                ",
"                                                                ",
"                                                                "
};
