/* XPM */
static char *_c1a73f5d5714cfce8b334d9f5834fd1N1pxSAUswL1d4YC0[] = {
/* columns rows colors chars-per-pixel */
"64 64 5 1 ",
"  c #ADD8E6",
". c OrangeRed",
"X c orange",
"o c gold",
"O c white",
/* pixels */
"                                                                ",
"                                                                ",
"                                                                ",
"                                                                ",
"                                                                ",
"                                                                ",
"                                                                ",
"                                                                ",
"                                                                ",
"                                                                ",
"                                                                ",
"                                                                ",
"                                                                ",
"                                                                ",
"                                                                ",
"                                                                ",
"                             .......                            ",
"                          .............                         ",
"                        .................                       ",
"                       ...................                      ",
"                     .......................                    ",
"                    .........................                   ",
"                    .........................                   ",
"                   ...........................                  ",
"                  ............XXXXX............                 ",
"                  ..........XXXXXXXXX..........                 ",
"                 ..........XXXXXXXXXXX..........                ",
"                 .........XXXXoooooXXXX.........                ",
"                 ........XXXXooOOOooXXXX........                ",
"                .........XXXoOOOOOOOoXXX.........               ",
"                ........XXXooOOOOOOOooXXX........               ",
"                ........XXXoOOOOOOOOOoXXX........               ",
"                ........XXXoOOOOOOOOOoXXX........               ",
"                ........XXXoOOOOOOOOOoXXX........               ",
"                ........XXXooOOOOOOOooXXX........               ",
"                .........XXXoOOOOOOOoXXX.........               ",
"                 ........XXXXooOOOooXXXX........                ",
"                 .........XXXXoooooXXXX.........                ",
"                 ..........XXXXXXXXXXX..........                ",
"                  ..........XXXXXXXXX..........                 ",
"                  ............XXXXX............                 ",
"                   ...........................                  ",
"                    .........................                   ",
"                    .........................                   ",
"                     .......................                    ",
"                       ...................                      ",
"                        .................                       ",
"                          .............                         ",
"                             .......                            ",
"                                                                ",
"                                                                ",
"                                                                ",
"                                                                ",
"                                                                ",
"                                                                ",
"                                                                ",
"                                                                ",
"                                                                ",
"                                                                ",
"                                                                ",
"                                                                ",
"                                                                ",
"                                                                ",
"                                                                "
};
