/* XPM */
static char *a4c4a8bd4aaf4c88e45d72dd9cfcdc34cMeKjV17veARqjlt[] = {
/* columns rows colors chars-per-pixel */
"64 64 5 1 ",
"  c #ADD8E6",
". c OrangeRed",
"X c orange",
"o c gold",
"O c white",
/* pixels */
"        .................................................       ",
"       ...................................................      ",
"     .......................................................    ",
"    .........................................................   ",
"   ...........................................................  ",
"  ............................................................. ",
"  ............................................................. ",
" ...............................................................",
"................................................................",
"................................................................",
"................................................................",
"................................................................",
"............................XXXXXXXXX...........................",
".........................XXXXXXXXXXXXXXX........................",
".......................XXXXXXXXXXXXXXXXXXX......................",
".....................XXXXXXXXXXXXXXXXXXXXXXX....................",
"....................XXXXXXXXXXXXXXXXXXXXXXXXX...................",
"...................XXXXXXXXXXXXXXXXXXXXXXXXXXX..................",
"..................XXXXXXXXXXXXXXXXXXXXXXXXXXXXX.................",
".................XXXXXXXXXXXXooo...oXXXXXXXXXXXX................",
"................XXXXXXXXXXoooooo...ooooXXXXXXXXXX...............",
"...............XXXXXXXXXXooooooo...oooooXXXXXXXXXX..............",
"...............XXXXXXXXXoooooOOOOOOOoooooXXXXXXXXX..............",
"..............XXXXXXXXXooooOOOOOOOOOOOooooXXXXXXXXX.............",
"..............XXXXXXXXooooOOOOOOOOOOOOOooooXXXXXXXX.............",
".............XXXXXXXXooooOOOOOOOOOOOOOOOooooXXXXXXXX............",
".............XXXXXXXooooOOOOOOOOOOOOOOOOOooooXXXXXXX............",
".............XXXXXXXoooOOOOOOOOOOOOOOOOOOOoooXXXXXXX............",
"............XXXXXXXXoooOOOOOOOOOOOOOOOOOOOoooXXXXXXXX...........",
"............XXXXXXXoooOOOOOOOOOOOOOOOOOOOOOoooXXXXXXX...........",
"............XXXXXXXoooOOOOOOOOOOOOOOOOOOOOOoooXXXXXXX...........",
"............XXXXXXXoooOOOOOOOOOOOOOOOOOOOOOoooXXXXXXX...........",
"............XXXXXXXoooOOOOOOOOOOOOOOOOOOOOOoooXXXXXXX...........",
"............XXXXXXXoooOOOOOOOOOOOOOOOOOOOOOoooXXXXXXX...........",
"............XXXXXXXoooOOOOOOOOOOOOOOOOOOOOOoooXXXXXXX...........",
"............XXXXXXXoooOOOOOOOOOOOOOOOOOOOOOoooXXXXXXX...........",
"............XXXXXXXXoooOOOOOOOOOOOOOOOOOOOoooXXXXXXXX...........",
".............XXXXXXXoooOOOOOOOOOOOOOOOOOOOoooXXXXXXX............",
".............XXXXXXXooooOOOOOOOOOOOOOOOOOooooXXXXXXX............",
".............XXXXXXXXooooOOOOOOOOOOOOOOOooooXXXXXXXX............",
"..............XXXXXXXXooooOOOOOOOOOOOOOooooXXXXXXXX.............",
"..............XXXXXXXXXooooOOOOOOOOOOOooooXXXXXXXXX.............",
"...............XXXXXXXXXoooooOOOOOOOoooooXXXXXXXXX..............",
"...............XXXXXXXXXXoooooooooooooooXXXXXXXXXX..............",
"................XXXXXXXXXXoooooooooooooXXXXXXXXXX...............",
".................XXXXXXXXXXXXoooooooXXXXXXXXXXXX................",
"..................XXXXXXXXXXXXXXXXXXXXXXXXXXXXX.................",
"...................XXXXXXXXXXXXXXXXXXXXXXXXXXX..................",
"....................XXXXXXXXXXXXXXXXXXXXXXXXX...................",
".....................XXXXXXXXXXXXXXXXXXXXXXX....................",
".......................XXXXXXXXXXXXXXXXXXX......................",
".........................XXXXXXXXXXXXXXX........................",
"............................XXXXXXXXX...........................",
"................................................................",
"................................................................",
"................................................................",
"................................................................",
" ...............................................................",
"  ............................................................. ",
"  ............................................................. ",
"   ...........................................................  ",
"    .........................................................   ",
"     .......................................................    ",
"       ...................................................      "
};
