/* XPM */
static char *bdd55617fecd4b658099e1e04a54633dkJtSRGcrosieEUOA[] = {
/* columns rows colors chars-per-pixel */
"64 64 8 1 ",
"  c #ADD8E6",
". c #323232",
"X c #464646",
"o c #505050",
"O c #646464",
"+ c red",
"@ c #009600",
"# c blue",
/* pixels */
"                                                                ",
"                                                                ",
"                                                                ",
"                                                                ",
"                                                                ",
"                                                                ",
"                                                                ",
"                                                                ",
"                                                                ",
"                                                                ",
"                                                                ",
"                                                                ",
"                                                                ",
"                                                                ",
"                                                                ",
"                                                                ",
"                                                                ",
"                                                                ",
"                                                                ",
"                                                                ",
"                  .............................                 ",
"                  .ooooooooooooooooooooooooooo.                 ",
"                  .ooooooooooooooooooooooooooo.                 ",
"                  .ooooooooooooooooooooooooooo.                 ",
"                  .oooXXXXXXXXXXXXXXXXXXXXXooo.                 ",
"                  .oooXOOOOOOOOOOOOOOOOOOOXooo.                 ",
"                  .oooXOOOOO@@@@@@@@@OOOOOXooo.                 ",
"                  .oooXOOOOO@@@@@@@@@OOOOOXooo.                 ",
"                  .oooXOOOOO@@@@@@@@@OOOOOXooo.                 ",
"            +     .oooXOOOOO@@@@@@@@@OOOOOXooo.                 ",
"            ++++  .oooXOOOOO@@@@@@@@@OOOOOXooo.     #           ",
"               ++++oooXOOOOO@@@@@@@@@OOOOOXooo.  ####           ",
"                  +oooXOOOOO@@@@@@@@@OOOOOXooo####              ",
"                  .oooXOOOOO@@@@@@@@@OOOOOXooo#                 ",
"                  .oooXOOOOO@@@@@@@@@OOOOOXooo.                 ",
"                  .oooXOOOOOOOOOOOOOOOOOOOXooo.                 ",
"                  .oooXXXX+++++++++++++XXXXooo.                 ",
"                  .ooooooooooooooooooooooooooo.                 ",
"                  .ooooooooooooooooooooooooooo.                 ",
"                  .ooooooooooooooooooooooooooo.                 ",
"                  .ooooooooooooooooooooooooooo.                 ",
"                  .ooooooooooooooooooooooooooo.                 ",
"                  .ooooooooooooooooooooooooooo.                 ",
"                  .ooooooooooooooooooooooooooo.                 ",
"                  .............................                 ",
"                                                                ",
"                                                                ",
"                                                                ",
"                                                                ",
"                                                                ",
"                                                                ",
"                                                                ",
"                                                                ",
"                                                                ",
"                                                                ",
"                                                                ",
"                                                                ",
"                                                                ",
"                                                                ",
"                                                                ",
"                                                                ",
"                                                                ",
"                                                                ",
"                                                                "
};
