/* XPM */
static char *result[] = {
/* columns rows colors chars-per-pixel */
"32 32 160 2 ",
"   c LightBlue",
".  c #ADD7E5",
"X  c #ACD8E6",
"o  c #ACD9E8",
"O  c #ACD8E7",
"+  c #B5C9CF",
"@  c #C9A597",
"#  c #DB8564",
"$  c #ED6532",
"%  c #FF4300",
"&  c OrangeRed",
"*  c #FF4400",
"=  c #FB4C0A",
"-  c #DF7E59",
";  c #D68D70",
":  c #BBBEBE",
">  c #B0D1DB",
",  c #ABDAEA",
"<  c #B7C4C7",
"1  c #D58E73",
"2  c #F25C24",
"3  c #FA4C0C",
"4  c #FF4200",
"5  c #FD4502",
"6  c #F75215",
"7  c #E67145",
"8  c #C5ACA1",
"9  c #B0D2DD",
"0  c #ACD9E7",
"q  c #AFD2DD",
"w  c #C9A495",
"e  c #F4581E",
"r  c #FE4402",
"t  c #FB4A0A",
"y  c #E27850",
"u  c #B7C4C8",
"i  c #B3CCD3",
"p  c #E2784F",
"a  c #F4571E",
"s  c #C8A799",
"d  c #E3754C",
"f  c #FE4300",
"g  c #F75014",
"h  c #C4AEA5",
"j  c #C9A496",
"k  c #FF4900",
"l  c #FF4F00",
"z  c #FF4E00",
"x  c #E76E42",
"c  c #B3CBD2",
"v  c #F3581F",
"b  c #FF5200",
"n  c #FF7000",
"m  c #FF8800",
"M  c #FF9B00",
"N  c #FF9A00",
"B  c #FF9600",
"V  c #FF7900",
"C  c #FF6200",
"Z  c #FF4800",
"A  c #D58E74",
"S  c #FF6600",
"D  c #FF9800",
"F  c orange",
"G  c #FFA600",
"H  c #FFA100",
"J  c #FF8300",
"K  c #FF5100",
"L  c #F35921",
"P  c #B9C1C2",
"I  c #F15C24",
"U  c #FF8200",
"Y  c #FFA400",
"T  c #FFA700",
"R  c #FFAA00",
"E  c #FFA900",
"W  c #FF6000",
"Q  c #FE4400",
"!  c #D68D71",
"~  c #FA4C0B",
"^  c #FFB200",
"/  c #FFC803",
"(  c #FFD518",
")  c #FFD61C",
"_  c #FFD10D",
"`  c #FFBD00",
"'  c #FF8900",
"]  c #FF4D00",
"[  c #ED6432",
"{  c #DA8566",
"}  c #FFB500",
"|  c #FFD618",
" . c #FFEC80",
".. c #FFF9D9",
"X. c #FFFBE5",
"o. c #FFF3B3",
"O. c #FFE348",
"+. c #FFC601",
"@. c #FF7500",
"#. c #FFD616",
"$. c #FFF2AA",
"%. c #FFFEFE",
"&. c white",
"*. c #FFFBE8",
"=. c #FFE454",
"-. c #FFC500",
";. c #FFC800",
":. c #FFEB7F",
">. c #FFF9DB",
",. c #FFDA23",
"<. c #FFB400",
"1. c #FFA000",
"2. c #FFF9D8",
"3. c #FFEA74",
"4. c #FFD61B",
"5. c #FFFBE3",
"6. c #FFEC7F",
"7. c #FFD10B",
"8. c #FFF3B1",
"9. c #FFFDF3",
"0. c #FFE34D",
"q. c #FFBB00",
"w. c #FFE34A",
"e. c #FFF1A6",
"r. c #FFD20B",
"t. c #FFAB00",
"y. c #FF9C00",
"u. c #FF5300",
"i. c #DE7E59",
"p. c #FFC600",
"a. c #FFE455",
"s. c #FFF9DD",
"d. c #FFFEFC",
"f. c #FE4500",
"g. c #FFC502",
"h. c #FFEC82",
"j. c #FFE34E",
"k. c #BABEBE",
"l. c #F65217",
"z. c #FF7400",
"x. c #DE7D59",
"c. c #E57147",
"v. c #FA4B0B",
"b. c #C8A598",
"n. c #C5ACA2",
"m. c #B0D1DC",
"M. c #F75114",
"N. c #ABDAE9",
"B. c #F3571F",
"V. c #B4CBD2",
"C. c #FE4200",
"Z. c #E76E41",
"A. c #FE4301",
"S. c #F75115",
"D. c #D68E72",
"F. c #F35920",
"G. c #ED6431",
"H. c #DF7D58",
"J. c #C8A597",
"K. c white",
/* pixels */
"            . X o O + @ # $ % & & * = - ; : > , X .             ",
"          . O X < 1 2 3 4 * & & & & * % 5 6 7 8 9 o X .         ",
"        . 0 q w e r % * & & & & & & & & * * 4 t y u X X .       ",
"      . o i p t % * & & & & & & & & & & & & & * r a s o X .     ",
"    . o i d f * & & & & & & & & & & & & & & & & * % g s o X .   ",
"  . 0 i d f * & & & & & & & & & & & & & & & & & & & % g s O X   ",
". O q y f * & & & & & & & & * * * * * & & & & & & & & % g h , . ",
"X X j t * & & & & & & * * % k l l z * % * & & & & & & & 4 x c O ",
"o < v % & & & & & & * * b n m M N B V C Z * * & & & & & * % A 0 ",
"O 1 * * & & & & & * Z S D F G F F F G H J K & * & & & & & % L P ",
"+ I % & & & & & * Z U H F Y T R R E Y F F D W % & & & & & * Q ! ",
"@ ~ * & & & & * * S H F Y ^ / ( ) _ ` E Y G ' ] * & & & & & * [ ",
"{ 4 & & & & & * b D F Y } |  ...X.o.O.+.E Y G @.* * & & & & & % ",
"$ * & & & & & % n F Y ^ #.$.%.&.&.&.*.=.-.G F B ] * & & & & & & ",
"% & & & & & * k m G T ;.:.&.&.&.&.&.&.>.,.<.Y 1.C % & & & & & & ",
"& & & & & & * l M F R ( 2.&.&.&.&.&.&.&.3.` Y T @.% & & & & & & ",
"& & & & & & * l N F R 4.5.&.&.&.&.&.&.&.6.` Y G @.% & & & & & & ",
"* & & & & & * z B F E 7.8.&.&.&.&.&.&.9.0.q.Y F n % & & & & & & ",
"= * & & & & * * V G Y ` w.*.&.&.&.&.%.e.r.t.F y.u.* & & & & & & ",
"i.% & & & & & % C H F E p.a.s.d.&.9.e.#.} Y G m k * & & & & & * ",
"; f.* & & & & * Z J F Y E g.,.3.h.j.r.} Y F y.W % & & & & & * = ",
"k.l.* & & & & & * K D G Y G <.` ` q.t.Y F G z.% * & & & & & % x.",
"> c.4 & & & & & * & W ' G F Y Y Y Y F G y.z.] * & & & & & * v.b.",
", n.t * & & & & & * % ] @.B 1.T G F y.m W % * & & & & & & 4 c.m.",
"X 9 y Q * & & & & & & * * ] C @.@.n u.k % * & & & & & & * M.h N.",
". o u B.% & & & & & & & * * % % % % * * & & & & & & & * 4 1 o X ",
"  X X s g % & & & & & & & & & & & & & & & & & & & & * f d V.O . ",
"  . X o s g % & & & & & & & & & & & & & & & & & & * f d i o .   ",
"    . X o s g 4 * & & & & & & & & & & & & & & & * C.d i o .     ",
"      . X O h Z.A.% * & & & & & & & & & & & * 4 S.D.V.o .       ",
"        . X , c 1 F.r * & & & & & & & & * % v.7 h o O .         ",
"            . O 0 P ! G.% & & & & & & * = H.J.m.N.X .           "
};
