/* XPM */
static char *result[] = {
/* columns rows colors chars-per-pixel */
"32 32 65 1 ",
"  c LightBlue",
". c #ADD7E5",
"X c #ACD8E6",
"o c #ACD8E7",
"O c #ACD9E7",
"+ c #B4CAD0",
"@ c #B6C7CC",
"# c #B0D1DB",
"$ c #ABDAE9",
"% c #ACD9E8",
"& c #B4CBD2",
"* c #D68E72",
"= c #F25A22",
"- c #F65216",
"; c #E67044",
": c #C4AEA4",
"> c #E3754C",
", c #FE4100",
"< c #FF4700",
"1 c #FF4C00",
"2 c #FF4100",
"3 c #F75014",
"4 c #C8A799",
"5 c #D68E73",
"6 c #FF5A00",
"7 c #FF8D0E",
"8 c #FFA019",
"9 c #FF7403",
"0 c #F3571F",
"q c #B8C3C6",
"w c #FF8D0C",
"e c #FFE1A4",
"r c #FFF4DD",
"t c #FFBC4B",
"y c #FF6100",
"u c #FF4200",
"i c #D2947C",
"p c #ABDAEA",
"a c #B5C7CC",
"s c #F65219",
"d c #FFA018",
"f c #FFF3DA",
"g c white",
"h c #FFD076",
"j c #FF7000",
"k c #FF3F00",
"l c #D68C73",
"z c #E67046",
"x c #FF7401",
"c c #FFD077",
"v c #FF9C18",
"b c #FF5100",
"n c #FB490A",
"m c #C5AA9F",
"M c #ABD9E9",
"N c #FE4400",
"B c #E27750",
"V c #B0D2DD",
"C c #F4571E",
"Z c #FE4202",
"A c #E2774F",
"S c #B3CBD3",
"D c #D68C70",
"F c #C6AA9F",
"G c white",
/* pixels */
"                                ",
"                                ",
"                                ",
"                                ",
"                                ",
"                                ",
"                                ",
"                                ",
"                                ",
"                                ",
"             .XoOX.             ",
"            .oX+@#$X.           ",
"           .%&*=-;:oX.          ",
"          .o&>,<1234XX          ",
"          XX526789<0qO          ",
"          o+=<wertyuip          ",
"          Oas1dfghjklp          ",
"          X#z2xtcvbnmM          ",
"          .$:3<yjbNBVX          ",
"           Xo4CZknASO.          ",
"           .XXqiDFVO.           ",
"            .XOppMX.            ",
"                                ",
"                                ",
"                                ",
"                                ",
"                                ",
"                                ",
"                                ",
"                                ",
"                                ",
"                                "
};
