/* XPM */
static char *c452ea7aa5a24ea791bdcdb4300abf18W2Zn1fI5wYKh7NsA[] = {
/* columns rows colors chars-per-pixel */
"64 64 5 1 ",
"  c #ADD8E6",
". c OrangeRed",
"X c orange",
"o c gold",
"O c white",
/* pixels */
"                           ...........                          ",
"                       ...................                      ",
"                    .........................                   ",
"                  .............................                 ",
"                .................................               ",
"               ...................................              ",
"             .......................................            ",
"            .........................................           ",
"           ...........................................          ",
"          .............................................         ",
"         ...............................................        ",
"        .................................................       ",
"       ...................................................      ",
"      .....................................................     ",
"      .....................................................     ",
"     .......................................................    ",
"    .........................XXXXXXX.........................   ",
"    ......................XXXXXXXXXXXXX......................   ",
"   .....................XXXXXXXXXXXXXXXXX.....................  ",
"   ....................XXXXXXXXXXXXXXXXXXX....................  ",
"  ...................XXXXXXXXXXXXXXXXXXXXXXX................... ",
"  ..................XXXXXXXXXXXXXXXXXXXXXXXXX.................. ",
"  ..................XXXXXXXXXoooooooXXXXXXXXX.................. ",
" ..................XXXXXXXXoooooooooooXXXXXXXX..................",
" .................XXXXXXXXooooOOOOOooooXXXXXXXX.................",
" .................XXXXXXXoooOOOOOOOOOoooXXXXXXX.................",
" ................XXXXXXXoooOOOOOOOOOOOoooXXXXXXX................",
".................XXXXXXoooOOOOOOOOOOOOOoooXXXXXX................",
".................XXXXXXooOOOOOOOOOOOOOOOooXXXXXX................",
"................XXXXXXoooOOOOOOOOOOOOOOOoooXXXXXX...............",
"................XXXXXXooOOOOOOOOOOOOOOOOOooXXXXXX...............",
"................XXXXXXooOOOOOOOOOOOOOOOOOooXXXXXX...............",
"................XXXXXXooOOOOOOOOOOOOOOOOOooXXXXXX...............",
"................XXXXXXooOOOOOOOOOOOOOOOOOooXXXXXX...............",
"................XXXXXXooOOOOOOOOOOOOOOOOOooXXXXXX...............",
"................XXXXXXoooOOOOOOOOOOOOOOOoooXXXXXX...............",
".................XXXXXXooOOOOOOOOOOOOOOOooXXXXXX................",
".................XXXXXXoooOOOOOOOOOOOOOoooXXXXXX................",
" ................XXXXXXXoooOOOOOOOOOOOoooXXXXXXX................",
" .................XXXXXXXoooOOOOOOOOOoooXXXXXXX.................",
" .................XXXXXXXXooooOOOOOooooXXXXXXXX.................",
" ..................XXXXXXXXoooooooooooXXXXXXXX..................",
"  ..................XXXXXXXXXoooooooXXXXXXXXX.................. ",
"  ..................XXXXXXXXXXXXXXXXXXXXXXXXX.................. ",
"  ...................XXXXXXXXXXXXXXXXXXXXXXX................... ",
"   ....................XXXXXXXXXXXXXXXXXXX....................  ",
"   .....................XXXXXXXXXXXXXXXXX.....................  ",
"    ......................XXXXXXXXXXXXX......................   ",
"    .........................XXXXXXX.........................   ",
"     .......................................................    ",
"      .....................................................     ",
"      .....................................................     ",
"       ...................................................      ",
"        .................................................       ",
"         ...............................................        ",
"          .............................................         ",
"           ...........................................          ",
"            .........................................           ",
"             .......................................            ",
"               ...................................              ",
"                .................................               ",
"                  .............................                 ",
"                    .........................                   ",
"                       ...................                      "
};
