/* XPM */
static char *result[] = {
/* columns rows colors chars-per-pixel */
"32 32 155 2 ",
"   c LightBlue",
".  c #ADD7E5",
"X  c #ACD8E6",
"o  c #ACD8E7",
"O  c #ACD9E7",
"+  c #ABDAEA",
"@  c #B4CAD0",
"#  c #B6C7CC",
"$  c #B5C7CC",
"%  c #B0D1DB",
"&  c #ABDBEB",
"*  c #ABD9E9",
"=  c #B8C3C6",
"-  c #D2957D",
";  c #D98768",
":  c #F25B22",
">  c #F65418",
",  c #F65519",
"<  c #F65317",
"1  c #E67146",
"2  c #D68E73",
"3  c #C6AA9F",
"4  c #B0D2DD",
"5  c #ABDAE9",
"6  c #B3CBD2",
"7  c #D68E72",
"8  c #F3581F",
"9  c #FE4302",
"0  c #FF4200",
"q  c #FF4300",
"w  c #FF4100",
"e  c #FB4A0A",
"r  c #E67044",
"t  c #C4AEA4",
"y  c #ACD9E8",
"u  c #C4AEA5",
"i  c #E76E41",
"p  c #FE4301",
"a  c #FF4400",
"s  c OrangeRed",
"d  c #F75115",
"f  c #B4CBD2",
"g  c #C8A799",
"h  c #F75014",
"j  c #FE4200",
"k  c #E3754C",
"l  c #B3CCD3",
"z  c #FE4300",
"x  c #E27850",
"c  c #AFD2DD",
"v  c #E76E42",
"b  c #FF4900",
"n  c #FF4F00",
"m  c #FF4E00",
"M  c #C9A496",
"N  c #D58E73",
"B  c #FF4800",
"V  c #FF6100",
"C  c #FF8800",
"Z  c #FF9A00",
"A  c #FF9600",
"S  c #FF7500",
"D  c #FF5100",
"F  c #B8C4C7",
"G  c #FF4C00",
"H  c #FF8300",
"J  c #FFA100",
"K  c #FFA600",
"L  c #FFAA00",
"P  c #FFAB00",
"I  c #FFA800",
"U  c #FFA400",
"Y  c #FF9800",
"T  c #FF6400",
"R  c orange",
"E  c #FFA900",
"W  c #FFBE03",
"Q  c #FFD318",
"!  c #FFD61C",
"~  c #FFCA0D",
"^  c #FFB200",
"/  c #FF9D00",
"(  c #FF6000",
")  c #F25A23",
"_  c #D98769",
"`  c #FFC600",
"'  c #FFE555",
"]  c #FFF9DA",
"[  c #FFFBE6",
"{  c #FFF2A7",
"}  c #FFD616",
"|  c #FFB500",
" . c #F75215",
".. c #B9C1C3",
"X. c #FFBE00",
"o. c #FFE554",
"O. c #FFFBE8",
"+. c white",
"@. c #FFFEFE",
"#. c #FFF2AA",
"$. c #FFD416",
"%. c #FFAC00",
"&. c #FF6200",
"*. c #D2947C",
"=. c #F65419",
"-. c #FFF9D8",
";. c #FFE974",
":. c #FFBB00",
">. c #FFD61B",
",. c #FFFAE3",
"<. c #FFEC7F",
"1. c #FFBD00",
"2. c #F65319",
"3. c #FFCA0B",
"4. c #FFF2A6",
"5. c #FFE04A",
"6. c #FFB300",
"7. c #FF7100",
"8. c #D68D73",
"9. c #FFE454",
"0. c #FFC500",
"q. c #FFA700",
"w. c #FF9700",
"e. c #FF5200",
"r. c #FB4B0A",
"t. c #C5AB9F",
"y. c #ABDBEA",
"u. c #D58E74",
"i. c #FFD418",
"p. c #FFE975",
"a. c #FFEC82",
"s. c #FFC501",
"d. c #F55419",
"f. c #B5C8CE",
"g. c #C5AA9F",
"h. c #FF8500",
"j. c #FF4D00",
"k. c #E67046",
"l. c #E57046",
"z. c #C5ABA1",
"x. c #F75114",
"c. c #FE4400",
"v. c #F3571F",
"b. c #B7C4C8",
"n. c #E2784F",
"m. c #FE4402",
"M. c #F4571E",
"N. c #C9A495",
"B. c #F4581E",
"V. c #F25A22",
"C. c #FA4B0C",
"Z. c #F65417",
"A. c #B9C1C2",
"S. c #D68D71",
"D. c white",
/* pixels */
"                                                                ",
"                                                                ",
"                        . X o O O O X .                         ",
"                  . X O + o @ # $ # % & * X .                   ",
"                . o O = - ; : > , < 1 2 3 4 5 X .               ",
"            . X + 6 7 8 9 0 q q q q q w e r t y o .             ",
"          . X o u i p q a s s s s s s s a 0 d 7 f y .           ",
"          X o g h 0 a s s s s s s s s s s s a j k l O .         ",
"        . + u h q s s s s s a a a a a s s s s a z x c o .       ",
"      . o 6 v 0 s s s s a q b n n m a a a s s s a e M X X       ",
"      X O N q a s s s a B V C Z Z A S D a a s s s q 8 F y .     ",
"      O = 8 q s s s a G H J K L P I U Y T a a s s a a 2 X X     ",
"    . + - q a s s a B H R E W Q ! ~ ^ R / ( q s s s q ) @ o     ",
"    X o _ 0 s s s q V J E ` ' ] [ { } | K C B a s s a  ...O     ",
"    o @ : q s s a b C K X.o.O.+.+.@.#.$.%.J &.q s s a a *.+     ",
"    O $ =.q s s a n Z L Q -.+.+.+.+.+.;.:.K S q s s s 0 2 +     ",
"    O $ , q s s a n Z P >.,.+.+.+.+.+.<.1.R S q s s s 0 2 +     ",
"    O $ 2.q s s a m A I 3.4.@.+.+.+.O.5.6.R 7.q s s s w 8.+     ",
"    X % 1 q s s a a S U ^ } #.@.+.O.9.0.q.w.e.a s s a r.t.*     ",
"    . y.u.w s s s a D Y R | i.p.a.5.s.E K S a a s s q d.f.O     ",
"      * g.e a s s a a T / K %.:.1.6.q.K h.j.a s s s 0 k.% X     ",
"      X 4 l.0 s s s a a ( C J K R R w.S j.a s s s a e z.5 .     ",
"      . 5 t x.a s s s a q B &.S S 7.e.a a s s s a c.x 4 X       ",
"        X y N 0 a s s s s a q q q q a a s s s s q v.b.y .       ",
"        . o f k z a s s s s s s s s s s s s a q h g X X         ",
"          . y l n.e q a s s s s s s s s s a m.M.g y X .         ",
"            . O c N.B.m.q a a s s s a q 0 e x b.X X .           ",
"              . o X F 7 V. .m.0 0 w C.Z.r z.4 y X .             ",
"                . X y X @ A.*.7 2 S.t.f.% 5 X .                 ",
"                    . X o y + + + + * O X .                     ",
"                                                                ",
"                                                                "
};
