/* XPM */
static char *_5f600be50174681f05c7e25cbd990b1Uj5xUjyRBvom1t74[] = {
/* columns rows colors chars-per-pixel */
"32 32 168 2 ",
"   c #2B2A2F",
".  c #1B1E24",
"X  c #2E363C",
"o  c #2C353C",
"O  c #2D353C",
"+  c #2C353B",
"@  c #2D363C",
"#  c #1B1F23",
"$  c #2D2B2E",
"%  c #505F67",
"&  c #88A7B6",
"*  c #86A4B5",
"=  c #87A3B6",
"-  c #86A2B8",
";  c #85A2B6",
":  c #85A2B5",
">  c #85A1B6",
",  c #85A0B6",
"<  c #86A1B6",
"1  c #87A1B6",
"2  c #87A2B6",
"3  c #86A3B5",
"4  c #86A3B7",
"5  c #8BA5BA",
"6  c #515E67",
"7  c #2C2B2E",
"8  c #2C2C2E",
"9  c #53646E",
"0  c #8EAFC3",
"q  c #8BAEC1",
"w  c #7A96AE",
"e  c #4D6285",
"r  c #506489",
"t  c #52648A",
"y  c #526589",
"u  c #516489",
"i  c #516589",
"p  c #526489",
"a  c #526389",
"s  c #4F6186",
"d  c #7B96B0",
"f  c #54626C",
"g  c #53636D",
"h  c #8FAEC2",
"j  c #8BAFC0",
"k  c #6E85A3",
"l  c #2C3B64",
"z  c #5C6F94",
"x  c #677E9D",
"c  c #687F9E",
"v  c #68809E",
"b  c #69819E",
"n  c #697F9F",
"m  c #687E9E",
"M  c #2D3B65",
"N  c #6E85A4",
"B  c #8CAEC0",
"V  c #8DAFC0",
"C  c #52636C",
"Z  c #2B2B2E",
"A  c #53626C",
"S  c #8EAEC2",
"D  c #8BAFC1",
"F  c #6F85A5",
"G  c #2B3964",
"H  c #4E6185",
"J  c #69829D",
"K  c #6D86A1",
"L  c #6D87A1",
"P  c #6D86A2",
"I  c #69829E",
"U  c #4E6184",
"Y  c #6F86A4",
"T  c #8EADC0",
"R  c #8DAFC1",
"E  c #2D3A65",
"W  c #58688D",
"Q  c #6E87A2",
"!  c #718BA5",
"~  c #728BA5",
"^  c #728BA6",
"/  c #6F87A3",
"(  c #586A8C",
")  c #2D3B66",
"_  c #8EAFC1",
"`  c #8FADC2",
"'  c #8DAEC0",
"]  c #6E84A3",
"[  c #2D3860",
"{  c #5C6B8A",
"}  c #6D859B",
"|  c #6E889E",
" . c #6F879F",
".. c #6F889E",
"X. c #6F879E",
"o. c #6D859C",
"O. c #5B6C8B",
"+. c #2D375E",
"@. c #6E84A2",
"#. c #8EADC2",
"$. c #8FAFC0",
"%. c #53636C",
"&. c #90ADC2",
"*. c #8EAEC0",
"=. c #697E8F",
"-. c #121521",
";. c #1D2228",
":. c #1E2528",
">. c #1E2529",
",. c #1D2428",
"<. c #1D2529",
"1. c #1D2528",
"2. c #111521",
"3. c #697E91",
"4. c #52636E",
"5. c #8FAEC0",
"6. c #687D89",
"7. c #08090B",
"8. c black",
"9. c #000003",
"0. c #000001",
"q. c #07090A",
"w. c #687E8A",
"e. c #8EAFC0",
"r. c #51626E",
"t. c #687E89",
"y. c #070809",
"u. c #687D8B",
"i. c #8EAEC1",
"p. c #52626D",
"a. c #52626C",
"s. c #8CAFC3",
"d. c #677E89",
"f. c #687C8C",
"g. c #8DAFC3",
"h. c #8CAFC1",
"j. c #8DAEC3",
"k. c #8CAFC2",
"l. c #8CB0C1",
"z. c #687D8C",
"x. c #8FAEC1",
"c. c #687D8A",
"v. c #697D8B",
"b. c #52626B",
"n. c #8DAEC2",
"m. c #2B2B2D",
"M. c #677D89",
"N. c #07080A",
"B. c #687C8A",
"V. c #51636F",
"C. c #58565D",
"Z. c #707D87",
"A. c #98AFBF",
"S. c #99B0BE",
"D. c #7F8E9B",
"F. c #414047",
"G. c #3C3B3F",
"H. c #3D3C42",
"J. c #3D3C43",
"K. c #3C3C42",
"L. c #3B3B3F",
"P. c #3D3B42",
"I. c #404046",
"U. c #818F99",
"Y. c #98AFBE",
"T. c #707D89",
"R. c #57565D",
"E. c white",
/* pixels */
"  . X o O O + + o o O O O O O O O O O O O O O O O O o + o @ #   ",
"$ % & * = - ; : : > , , , , , , , , , , , , < 1 1 1 2 3 4 5 6 7 ",
"8 9 0 q w e r t y u u u i u u u u u u u u u y p t a s d q 0 f 8 ",
"8 g h j k l z x c c c c c c c c c c c c v b v n m z M N B V C 8 ",
"Z A S D F G H J K K K K K K K K K K K K K L K P I U G Y T R C 8 ",
"7 A S B F E W Q ! ! ~ ~ ~ ~ ~ ~ ~ ~ ~ ~ ~ ~ ~ ^ / ( ) Y T _ C 8 ",
"8 A ` ' ] [ { } | |  .......X.X....... .........o.O.+.@.#.$.%.8 ",
"8 A &.*.=.-.;.:.>.,.,.,.,.<.,.,.,.,.,.<.,.,.<.<.1.;.2.3.S $.4.8 ",
"8 A &.5.6.7.8.8.8.8.8.8.8.9.8.8.8.8.8.9.8.8.8.0.8.8.q.w.e.e.r.8 ",
"8 A S *.t.y.8.8.8.8.8.8.8.8.8.8.8.8.8.8.8.8.8.8.8.8.y.u.i.i.p.8 ",
"8 a.s.R d.y.8.8.8.8.8.8.8.8.8.8.8.8.8.8.8.8.8.8.8.8.y.f.S i.a.8 ",
"8 a.g.h.d.y.8.8.8.8.8.8.8.8.8.8.8.8.8.8.8.8.8.8.8.8.y.f.S i.a.8 ",
"8 a.g.h.d.y.8.8.8.8.8.8.8.8.8.8.8.8.8.8.8.8.8.8.8.8.y.f.S i.a.8 ",
"8 a.g.h.d.y.8.8.8.8.8.8.8.8.8.8.8.8.8.8.8.8.8.8.8.8.y.f.S i.a.8 ",
"8 a.s.V d.y.8.8.8.8.8.8.8.8.8.8.8.8.8.8.8.8.8.8.8.8.y.f.S i.a.8 ",
"8 a.j.e.d.y.8.8.8.8.8.8.8.8.8.8.8.8.8.8.8.8.8.8.8.8.y.f.S i.a.8 ",
"8 a.k.V d.y.8.8.8.8.8.8.8.8.8.8.8.8.8.8.8.8.8.8.8.8.y.f.S i.a.8 ",
"8 a.k.l.d.y.8.8.8.8.8.8.8.8.8.8.8.8.8.8.8.8.8.8.8.8.y.f.S i.a.8 ",
"8 a.g.h.d.y.8.8.8.8.8.8.8.8.8.8.8.8.8.8.8.8.8.8.8.8.y.f.S i.a.8 ",
"8 a.g.h.d.y.8.8.8.8.8.8.8.8.8.8.8.8.8.8.8.8.8.8.8.8.y.f.S i.a.8 ",
"8 a.g.h.d.y.8.8.8.8.8.8.8.8.8.8.8.8.8.8.8.8.8.8.8.8.y.f.S i.a.8 ",
"8 a.g.h.d.y.8.8.8.8.8.8.8.8.8.8.8.8.8.8.8.8.8.8.8.8.y.f.S i.a.8 ",
"8 a.g.h.d.y.8.8.8.8.8.8.8.8.8.8.8.8.8.8.8.8.8.8.8.8.y.f.S i.a.8 ",
"8 a.s.V d.y.8.8.8.8.8.8.8.8.8.8.8.8.8.8.8.8.8.8.8.8.y.f.S i.a.8 ",
"8 a.g.h.d.y.8.8.8.8.8.8.8.8.8.8.8.8.8.8.8.8.8.8.8.8.y.f.S i.a.8 ",
"8 a.g.h.d.y.8.8.8.8.8.8.8.8.8.8.8.8.8.8.8.8.8.8.8.8.y.f.S i.a.8 ",
"8 a.s.V d.y.8.8.8.8.8.8.8.8.8.8.8.8.8.8.8.8.8.8.8.8.y.f.S i.a.8 ",
"8 a.s.e.d.y.8.8.8.8.8.8.8.8.8.8.8.8.8.8.8.8.8.8.8.8.y.z.S x.A 8 ",
"8 a.k.e.c.y.8.8.8.8.8.8.8.8.8.8.8.8.8.8.8.8.8.8.8.8.y.v.i.5.a.8 ",
"8 b.n._ c.y.8.8.8.8.8.8.8.8.8.8.8.8.8.8.8.8.8.8.8.8.y.v.i.V C 8 ",
"m.C S $.M.N.8.0.0.8.8.8.8.8.8.8.8.8.8.8.8.8.8.8.8.8.N.B.i.V V.Z ",
"C.Z.A.S.D.F.G.H.J.K.L.K.H.K.L.K.H.K.L.K.H.K.L.K.H.P.I.U.S.Y.T.R."
};
