/* XPM */
static char *da9f4ff5926e4a2f950c5409e19a5311AC6TFJ2bBH7HTx0d[] = {
/* columns rows colors chars-per-pixel */
"64 64 3 1 ",
"  c #2C2C2C",
". c gray44",
"X c #A9A9A9",
/* pixels */
"................................................................",
"................................................................",
"................................................................",
"................................................................",
".... XXX                                                XXX ....",
"....XXXXX                                              XXXXX....",
"....XXXXX                                              XXXXX....",
"....XXXXX                                              XXXXX....",
".... XXX                                                XXX ....",
"....                                                        ....",
"....    .................................................   ....",
"....    .................................................   ....",
"....    .................................................   ....",
"....    .................................................   ....",
"....    XXXXXXXXXXXXXXXXXXXXXXXXXXXXXXXXXXXXXXXXXXXXXXXXX   ....",
"....    XXXXXXXXXXXXXXXXXXXXXXXXXXXXXXXXXXXXXXXXXXXXXXXXX   ....",
"....    XXXXXXXXXXXXXXXXXXXXXXXXXXXXXXXXXXXXXXXXXXXXXXXXX   ....",
"....                                                        ....",
"....                                                        ....",
"....                                                        ....",
"....                                                        ....",
"....                                                        ....",
"....    .................................................   ....",
"....    .................................................   ....",
"....    .................................................   ....",
"....    .................................................   ....",
"....    XXXXXXXXXXXXXXXXXXXXXXXXXXXXXXXXXXXXXXXXXXXXXXXXX   ....",
"....    XXXXXXXXXXXXXXXXXXXXXXXXXXXXXXXXXXXXXXXXXXXXXXXXX   ....",
"....    XXXXXXXXXXXXXXXXXXXXXXXXXXXXXXXXXXXXXXXXXXXXXXXXX   ....",
"....                                                        ....",
"....                                                        ....",
"....                                                        ....",
"....                                                        ....",
"....                                                        ....",
"....    .................................................   ....",
"....    .................................................   ....",
"....    .................................................   ....",
"....    .................................................   ....",
"....    XXXXXXXXXXXXXXXXXXXXXXXXXXXXXXXXXXXXXXXXXXXXXXXXX   ....",
"....    XXXXXXXXXXXXXXXXXXXXXXXXXXXXXXXXXXXXXXXXXXXXXXXXX   ....",
"....    XXXXXXXXXXXXXXXXXXXXXXXXXXXXXXXXXXXXXXXXXXXXXXXXX   ....",
"....                                                        ....",
"....                                                        ....",
"....                                                        ....",
"....                                                        ....",
"....                                                        ....",
"....    .................................................   ....",
"....    .................................................   ....",
"....    .................................................   ....",
"....    .................................................   ....",
"....    XXXXXXXXXXXXXXXXXXXXXXXXXXXXXXXXXXXXXXXXXXXXXXXXX   ....",
"....    XXXXXXXXXXXXXXXXXXXXXXXXXXXXXXXXXXXXXXXXXXXXXXXXX   ....",
"....    XXXXXXXXXXXXXXXXXXXXXXXXXXXXXXXXXXXXXXXXXXXXXXXXX   ....",
"....                                                        ....",
"....                                                        ....",
".... XXX                                                XXX ....",
"....XXXXX                                              XXXXX....",
"....XXXXX                                              XXXXX....",
"....XXXXX                                              XXXXX....",
".... XXX                                                XXX ....",
"................................................................",
"................................................................",
"................................................................",
"................................................................"
};
