/* XPM */
static char *_7617f2a387e41c097abd94a7c05a075X2OaZ0bh0mBIMaeh[] = {
/* columns rows colors chars-per-pixel */
"32 32 158 2 ",
"   c #08080C",
".  c #0A0B10",
"X  c #12151C",
"o  c #2B3764",
"O  c #2D3966",
"+  c #2F3D68",
"@  c #303F67",
"#  c #303D69",
"$  c #3E4B56",
"%  c #35446D",
"&  c #37486F",
"*  c #384B6F",
"=  c #374670",
"-  c #394771",
";  c #3B4B74",
":  c #49474D",
">  c #4C4B51",
",  c #43535F",
"<  c #435361",
"1  c #595960",
"2  c #415677",
"3  c #425778",
"4  c #76747C",
"5  c #4C5C84",
"6  c #4F6286",
"7  c #516487",
"8  c #5C6284",
"9  c #54668B",
"0  c #55698B",
"q  c #586C8F",
"w  c #5A728D",
"e  c #5A6D92",
"r  c #5C7391",
"t  c #727B88",
"y  c #696E92",
"u  c #6C7293",
"i  c #617A95",
"p  c #647A9A",
"a  c #6A849D",
"s  c #6C889F",
"d  c #778794",
"f  c #79829F",
"g  c #6E87A1",
"h  c #6E89A1",
"j  c #7086A6",
"k  c #718AA4",
"l  c #758FA9",
"z  c #798EAE",
"x  c #7F96A6",
"c  c #7E98A7",
"v  c #7791AA",
"b  c #7992AB",
"n  c #7E99AA",
"m  c #7D94B1",
"M  c #7F9AB5",
"N  c #8196A6",
"B  c #809AAB",
"V  c #8197B5",
"C  c #829AB6",
"Z  c #859DB9",
"A  c #889FBC",
"S  c #889FBC",
"D  c #93A0AF",
"F  c #84A1B7",
"G  c #84A2B7",
"H  c #85A2B7",
"J  c #86A3B7",
"K  c #86A4B7",
"L  c #83A3B8",
"P  c #83A2B8",
"I  c #85A1B8",
"U  c #86A1B8",
"Y  c #86A1B9",
"T  c #87A1B9",
"R  c #84A2B8",
"E  c #85A2B8",
"W  c #84A3B8",
"Q  c #85A3B8",
"!  c #85A2B9",
"~  c #85A3B9",
"^  c #86A2B8",
"/  c #86A3B8",
"(  c #86A2B9",
")  c #87A2B9",
"_  c #86A3B9",
"`  c #87A3B9",
"'  c #86A0BA",
"]  c #87A0BB",
"[  c #87A3BA",
"{  c #86A4B8",
"}  c #86A4BA",
"|  c #86A5BA",
" . c #86A4BB",
".. c #85A6BA",
"X. c #85A6BB",
"o. c #87A6BB",
"O. c #85A1B8",
"+. c #88A5BA",
"@. c #88A4BB",
"#. c #89A4BB",
"$. c #8BABBD",
"%. c #8BA8BF",
"&. c #8AA9BF",
"*. c #8BABBE",
"=. c #8BAABF",
"-. c #8BABBF",
";. c #8CAABE",
":. c #8DAABE",
">. c #8CABBE",
",. c #8DABBE",
"<. c #8EABBF",
"1. c #8DACBE",
"2. c #8CACBF",
"3. c #8DACBF",
"4. c #8EACBF",
"5. c #8CABBF",
"6. c #99A5BC",
"7. c #96AABC",
"8. c #99AEBF",
"9. c #8AA9C0",
"0. c #8BABC0",
"q. c #8CAAC0",
"w. c #8DAAC0",
"e. c #8CABC0",
"r. c #8CABC1",
"t. c #8DABC1",
"y. c #8BACC0",
"u. c #8BACC1",
"i. c #8CACC0",
"p. c #8DACC0",
"a. c #8DADC0",
"s. c #8DACC1",
"d. c #8CADC1",
"f. c #8DADC1",
"g. c #8EACC0",
"h. c #8FADC0",
"j. c #8FACC1",
"k. c #8EADC1",
"l. c #8FADC1",
"z. c #8CAEC1",
"x. c #8FAEC0",
"c. c #8FAEC1",
"v. c #8FAFC1",
"b. c #8EACC2",
"n. c #8FADC3",
"m. c #8DACC0",
"M. c #90AEC1",
"N. c #91ADC3",
"B. c #90AEC2",
"V. c #91AEC3",
"C. c #90AEC4",
"Z. c #92ACC6",
"A. c #93ADC6",
"S. c #91AEC2",
"D. c #99AEC0",
"F. c #96AFC9",
"G. c #95AFC8",
"H. c #94B1C7",
/* pixels */
"  X X X X X X X X X X X X X X X X X X X X X X X X X X X X X . : ",
"X d N x x c c c c c c c c c c c c c c c c c c c c c B N x n $ > ",
"X N c.C.k 9 q 9 q q q 9 9 q q 9 9 q q q q q q q q q r #.c.c.< > ",
"X N :.c.9 % 0 9 9 9 9 0 0 9 9 0 0 9 9 9 0 9 9 9 9 6 O C e.:., > ",
"X N :.c.9 q H.N.c.c.c.c.c.c.c.c.c.c.c.c.c.c.N.c.N.Z % V =.=., > ",
"X x 1.c.9 & w a h h h h h h h h h h h h h h h s a 6 # C =.=., > ",
"X x 1.c.9 = q a h h h h h h h h h h h h h h h h a 6 # C =.=.< > ",
"X x 1.c.9 q F.c.e.c.c.c.c.c.c.c.c.c.c.c.c.c.c.1.c.S % C 9.y.< > ",
"X x 1.c.9 5 C _ _ _ _ _ _ _ _ _ _ _ _ _ _ _ _ _ _ l % C =.y.< > ",
"X x 1.c.9 - r l l l l l l l l l l l l l l l l l k 0 # C =.y.< > ",
"X x 1.c.9 q C.:.=.y.y.c.y.y.y.y.c.y.y.c.y.y.1.:.e.Z % C =.y.< > ",
"X x 1.c.9 5 Z _ _ _ _ _ _ _ _ _ _ _ _ _ _ _ | K _ z % C =.e.< > ",
"X x 1.c.q o 2 i i i i i i i i i i i i i i i i i r * O C =.e.< > ",
"X x 1.c.9 7 _ _ _ _ _ L G L L L L L L L G L _ _ G l % C =.e.< > ",
"X x 1.c.9 7 Z _ L _ _ _ G _ _ _ _ _ _ _ G _ G G G l % C =.e.< > ",
"X x 1.c.9 O 3 w i i i i i i i i i i i i i i i i w ; O C =.y.< > ",
"X x 1.c.9 6 _ #.| | | | | | | | | | | | | | | #.#.m % C =.y.< > ",
"X x 1.c.q q C.c.c.e.9.y.9.e.e.9.9.9.9.9.9.9.c.1.c.Z % C =.y.< > ",
"X x 1.c.9 ; p l v v v v v v v v v v v v v v v v l q # C =.y.< > ",
"X x 1.c.9 5 Z _ G | | | | | | | | | | | | | _ _ _ z % C =.y.< > ",
"X x 1.c.9 q C.c.e.y.c.c.c.c.c.c.c.c.c.c.c.c.c.1.c.Z % V =.y.< > ",
"X x 1.c.9 ; p b b v v v v v v v v v v v v v b b l e # C =.y.< > ",
"X x 1.c.9 5 m _ _ Z Z Z Z Z Z Z Z Z Z Z Z Z Z _ Z j % C =.y.< > ",
"X x 1.c.9 e F.c.y.1.:.-.-.-.-.-.-.-.-.-.1.1.:.:.:.Z % C =.e.< > ",
"X x 1.c.q - r h k k k k k k k k k k k k k k k k g 7 # C =.e.< > ",
"X x 1.c.q ; r h k h h h h h h h h h h h h h k k a 9 + C =.e.< > ",
"X x 1.c.9 q F.N.c.c.:.e.e.e.e.e.c.e.e.:.:.e.e.c.c.Z % C =.e.< > ",
"X N 1.c.9 - q a h h h h h h h h h h h h h h h a a 6 # C =.y.< > ",
"X N 1.e.9 = q a g k k k k k k k k k k k k k h g a 6 # C =.y.< > ",
"X N 1.e.q q F.c.c.c.N.N.N.c.N.N.N.N.c.c.c.c.c.9.c.S % C 9.y.< > ",
"X N e.9.7 6 Z C C C C C C C C C C C C M M C C C C z @ m y.c.< : ",
"1 D 7.7.f y u u u u u u u u u u u u u u u u u u u u 8 6.D.8.t 4 "
};
