/* XPM */
static char *_e5de875eae544819f997f57555d2e0ehvaYfsYE0zapKQTJ[] = {
/* columns rows colors chars-per-pixel */
"64 64 162 2 ",
"   c #000000",
".  c #030208",
"X  c #020616",
"o  c #0F0F17",
"O  c #040818",
"+  c #0F1016",
"@  c #101222",
"#  c #1E2427",
"$  c #1E2429",
"%  c #1F282D",
"&  c #1E2631",
"*  c #212A2F",
"=  c #212A30",
"-  c #151F46",
";  c #142044",
":  c #14244D",
">  c #19284F",
",  c #162351",
"<  c #1A2254",
"1  c #1A2955",
"2  c #1E2558",
"3  c #1F2A58",
"4  c #1F3254",
"5  c #222B5A",
"6  c #263459",
"7  c #29335E",
"8  c #2B3B5D",
"9  c #2C3364",
"0  c #2D3B66",
"q  c #2F3F68",
"w  c #3C484F",
"e  c #3D4752",
"r  c #3C4851",
"t  c #36456D",
"y  c #39466B",
"u  c #41494F",
"i  c #424851",
"p  c #4F5C66",
"a  c #4F5F69",
"s  c #505F66",
"d  c #5F5F64",
"f  c #515E6A",
"g  c #48547D",
"h  c #47587C",
"j  c #48597C",
"k  c #555F75",
"l  c #615E65",
"z  c #685F62",
"x  c #51616C",
"c  c #49627F",
"v  c #526278",
"b  c #626166",
"n  c #516685",
"m  c #526987",
"M  c #546C8A",
"N  c #586F8C",
"B  c #57718B",
"V  c #58708C",
"C  c #5D6E94",
"Z  c #5F6F99",
"A  c #5D7092",
"S  c #667D9B",
"D  c #6A7F9F",
"F  c #67819D",
"G  c #6A809E",
"H  c #6B82A1",
"J  c #6E89A7",
"K  c #7187A7",
"L  c #728BA6",
"P  c #7183A9",
"I  c #7189A8",
"U  c #83818B",
"Y  c #89868F",
"T  c #888790",
"R  c #8A8890",
"E  c #8D8F99",
"W  c #8C9099",
"Q  c #9F9CA7",
"!  c #9A9EA8",
"~  c #819DB7",
"^  c #839CBA",
"/  c #A29DA9",
"(  c #8AA6BE",
")  c #87AEBE",
"_  c #8CACBD",
"`  c #94AEBC",
"'  c #9AABBC",
"]  c #8FB0BE",
"[  c #99B1BF",
"{  c #A3AFBC",
"}  c #A4B1BC",
"|  c #8B9DC2",
" . c #8BA6C1",
".. c #8BABC1",
"X. c #88ABC0",
"o. c #8FA9C0",
"O. c #8CABC0",
"+. c #8CABC1",
"@. c #8CAAC0",
"#. c #8FAAC1",
"$. c #8EABC1",
"%. c #8FABC1",
"&. c #8EAAC0",
"*. c #8FAAC2",
"=. c #8FABC2",
"-. c #89ACC1",
";. c #89ADC0",
":. c #8AACC0",
">. c #8DACC1",
",. c #8FACC1",
"<. c #8FAFC2",
"1. c #8CACC2",
"2. c #8DA9C4",
"3. c #8AABC1",
"4. c #91A5C5",
"5. c #91A9C1",
"6. c #90AAC3",
"7. c #91AFC0",
"8. c #90AFC1",
"9. c #91AEC1",
"0. c #91AEC2",
"q. c #91AFC2",
"w. c #91AEC3",
"e. c #90ABC5",
"r. c #91AEC4",
"t. c #93ADC0",
"y. c #9AAFC5",
"u. c #93AFC8",
"i. c #94AFC8",
"p. c #95AFCA",
"a. c #94AFCA",
"s. c #99ABCC",
"d. c #9AA9CF",
"f. c #91B2C3",
"g. c #92B5C3",
"h. c #90B6C3",
"j. c #94B4C1",
"k. c #93B3C7",
"l. c #95B3C5",
"z. c #94B3C4",
"x. c #91B5C4",
"c. c #92B4C5",
"v. c #91B5C6",
"b. c #92B4C6",
"n. c #92B2C4",
"m. c #9EB7C1",
"M. c #9DB6C2",
"N. c #98B2C6",
"B. c #93B1C8",
"V. c #93B3C8",
"C. c #93B3CA",
"Z. c #94B0C9",
"A. c #96B1C8",
"S. c #94B2C8",
"D. c #94B3CA",
"F. c #96B0CA",
"G. c #93B4C8",
"H. c #96B1C8",
"J. c #9FB3CF",
"K. c #A8B6C2",
"L. c #AEB8C2",
"P. c #A2B1CD",
/* pixels */
"d . .                                                                                                                     . . d ",
"l   o i e e e e e e e e r w w w e e r r r r r r r r r r r r r r r r r r r r r r r r r r r r r r r r r r r r r e e e r r u +   l ",
"b   % m.j.g.c.l.l.A.C.C.G.c.c.c.c.c.C.A.A.A.A.A.A.A.A.A.A.A.A.A.A.A.A.A.A.A.A.A.A.A.A.A.A.A.A.A.A.A.A.A.A.k.g.c.c.G.C.l.m.%   b ",
"z   $ ` _ ) _ &._ 1.w.r.w.w.w.w.w.w.1.1.1.1.1.1.1.1.1.1.1.1.1.1.1.1.1.1.1.1.1.1.1.1.1.1.1.w.w.w.w.w.w.w.w.w.1.&.&.&.2.6.' $   b ",
"b   % ` ) -.-.) _ ~ J I J I I I L L L I I I I L L L L I I I I I L L L L I I I I I L L L L L I I I I I K I L ~ &._ 1...&.' $   b ",
"b   % ` &.-.-.) f.A : 1 , < < < < < < < < < < < < < < < < < < < < < < < < < < < < < < < < < < < < < < < 2 , A C.) ) ) -.` $   b ",
"b   % ` &.1._ _ A.A : q P H H H H H H H H H H H H H H H H H H H H H H H H H H H H H H H H H H H H H H P q : A A._ ) ) _ ` $   b ",
"b   $ ` &.-.) ) p.C : t | ^ ( ( ( ( ( ( ( ( ( ( ( ( ( ( ( ( ( ( ( ( ( ( ( ( ( ( ( ( _ _ ( ( (  . .( ^ | t , A a.-._ &.) ` $   b ",
"l   $ ` &.-.) ) p.C 1 3 1 4 c M m m m m m m m m m m m m m m m m m m m m m m m m m m m m m m m m M c 4 > 5 1 A a._ _ _ ) ` $   b ",
"l   $ ` &.-.) _ p.C , 0 C N L L L L L L L L L L L L L L L L L L L L L L L L L L L L L L L L L L L L N C 0 , A a._ _ &.) ` $   b ",
"b   $ ` &...) _ p.A : t d.4.6._ &.&.&.&.&.&.&.&.&.&.&.&.&.&.&.&.&.&.&.&.&.&.&.&.&.&.&.&.&.&.&.e.o.e.o.d.t : A A._ _ &.) ` $   b ",
"b   $ ` &...) _ p.C , 5 7 8 n B V M N V N N N V V V V V N N N N V V V V V N N N N V V V N N N N N m 8 6 5 1 A A._ _ &.) ` $   b ",
"b   $ ` &...) _ a.Z 1 9 g h S G F F G D D D D G G G G G D D D D G G G G G D D D D G G D D G G G H D j g 9 < C p....._ _ ` $   b ",
"b   $ ` &.&._ _ a.C - y P.y.z.` z.f.f.f.f.f.f.f.f.f.f.f.f.f.f.f.f.f.f.f.f.f.f.f.f.f.f.f.f.f.f.f.] f.A.J.y ; N p.2._ _ _ ` $   b ",
"b   $ ` &.&._ _ k.k O @ = * * * * * = = = = = = = = = = = = = = = = = = = = = = = = = = = = * * * = = = @ X v p..._ _ _ ` %   b ",
"b   $ ` &.&._ _ l.s   .                                                                                 .   a l.1._ _ _ w.$   b ",
"b   $ ` &.&._ _ l.f   .         . .                 . .                     . .           . . .     .   .   x N._ _ _ _ w.$   b ",
"b   $ ` &.&._ _ l.s   .                             . .                     . .                             a z._ _ _ _ w.$   b ",
"b   $ ` &.&._ _ l.s                                                                                         a z._ _ _ _ w.$   b ",
"b   $ ` -.-._ _ c.s                                                                                         a A..._ _ ..` $   b ",
"b   $ ` -.-._ _ c.s                                                                                         a A..._ _ ..` $   b ",
"b   $ ` -.-._ ) c.s                                                                                         a A..._ _ ..` $   b ",
"b   $ ` -.-._ ) c.s                                                                                         a A..._ _ ..` $   b ",
"b   $ ` -.-._ ) c.s                                                                                         a A..._ _ ..` $   b ",
"b   $ ` -.-._ ) c.s                                                                                         a A..._ _ ..` $   b ",
"b   $ ` -.-._ ) c.s                                                                                         a A..._ _ ..` $   b ",
"b   $ ` -.-._ ) c.s                                                                                         a A..._ _ ..` $   b ",
"b   $ ` -.-._ ) c.s                                                                                         a A..._ _ ..` $   b ",
"b   $ ` -.-._ _ c.s                                                                                         a A..._ _ ..` $   b ",
"b   $ ` -.-._ _ c.s                                                                                         a A..._ _ ..` $   b ",
"b   $ ` -.-._ _ c.s                                                                                         a A..._ _ ..` $   b ",
"b   $ ` -.-._ _ c.s                                                                                         a A..._ _ ..` $   b ",
"b   $ ` ..-._ _ c.s                                                                                         a A..._ _ ..` $   b ",
"b   $ ` -.) _ _ c.s                                                                                         a A..._ _ ..` $   b ",
"b   $ ` -.) _ ) c.s                                                                                         a A..._ _ ..` $   b ",
"b   $ ` -.-._ ) c.s                                                                                         a A..._ _ ..` $   b ",
"b   $ ` -.-._ ) c.s                                                                                         a A..._ _ ..` $   b ",
"b   $ ` -.-._ ) c.s                                                                                         a A..._ _ ..` $   b ",
"b   $ ` -.-._ ) c.s                                                                                         a A..._ _ ..` $   b ",
"b   $ ` -.-._ ) c.s                                                                                         a A..._ _ ..` $   b ",
"b   $ ` -.-._ ) c.s                                                                                         a A..._ _ ..` $   b ",
"b   $ ` -.-._ ) c.s                                                                                         a A..._ _ ..` $   b ",
"b   $ ` -.-._ ) c.s                                                                                         a A..._ _ ..` $   b ",
"b   $ ` -.-._ ) c.s                                                                                         a A..._ _ ..` $   b ",
"b   $ ` -.-._ ) c.s                                                                                         a A..._ _ ..` $   b ",
"b   $ ` -.-._ ) c.s                                                                                         a A..._ _ ..` $   b ",
"b   $ ` -.-._ _ c.s                                                                                         a A..._ _ ..` $   b ",
"b   $ ` -.-._ _ c.s                                                                                         a A..._ _ ..` $   b ",
"b   $ ` -.-._ ) c.s                                                                                         a A..._ _ ..` $   b ",
"b   $ ` -.-._ ) c.s                                                                                         a A..._ _ ..` $   b ",
"b   $ ` -.-._ ) c.s                                                                                         a A..._ _ ..` $   b ",
"b   $ ` -.-._ ) c.s                                                                                         a A..._ _ ..` $   b ",
"b   $ ` -.-._ _ c.s                                                                                         a A..._ _ ..` $   b ",
"b   $ ` -.-._ _ c.s                                                                                         a A..._ _ ..` $   b ",
"b   $ ` -.-._ _ c.s                                                                                         a A..._ _ ..` $   b ",
"b   $ ` -.-._ _ c.s                                                                                         a A..._ _ ..` $   b ",
"b   $ ` -.-._ _ k.s                                                                                         f l..._ _ &.` $   b ",
"b   $ ` -.) _ _ k.s                                                                                         f N._ _ _ _ t.$   b ",
"b   # ` -..._ _ k.s                                                                                         f l..._ _ ) ` $   b ",
"b   # ` -..._ _ k.s                                                                                         f l..._ _ ) ` $   b ",
"b   # ` -...` _ k.s                                                                                         f l.1._ _ ) ` %   b ",
"l   % ` .._ _ _ k.s   .       . .                                                                       .   f z._ _ _ _ w.&   l ",
"l   % ` -._ ` _ f.p . .     . . . . . .     . . . . . .     . . . . . .     . . . . . .     . . . . . . .   p [ _ _ _ _ t.&   l ",
"/ U W } } { } } K.! U T R R T T T T T T T T T T T T T T T T T T T T T T T T T T T T T T T T T T T T R Y T U ! L.} } { { } E U Q "
};
