/* XPM */
static char *fb54313098dd4ff49af556abe1d13525tmlKnU5T8k8NTSTk[] = {
/* columns rows colors chars-per-pixel */
"64 64 169 2 ",
"   c #000104",
".  c #080003",
"X  c #01010C",
"o  c #00080F",
"O  c #0E090F",
"+  c #000612",
"@  c #030911",
"#  c #0C0A13",
"$  c #100E11",
"%  c #1A1519",
"&  c #09123B",
"*  c #0E1740",
"=  c #0D1C47",
"-  c #121A4B",
";  c #0D2145",
":  c #122647",
">  c #13254C",
",  c #172D4C",
"<  c #172551",
"1  c #192554",
"2  c #1C2C54",
"3  c #1E2659",
"4  c #1E2B59",
"5  c #1D3154",
"6  c #1E3058",
"7  c #202753",
"8  c #232B54",
"9  c #232C5C",
"0  c #213157",
"q  c #24335B",
"w  c #263A5C",
"e  c #293D5E",
"r  c #232A60",
"t  c #263460",
"y  c #2A3361",
"u  c #293B63",
"i  c #264059",
"p  c #2E4564",
"a  c #435B77",
"s  c #435A7A",
"d  c #4C637E",
"f  c #4D6582",
"g  c #4F6984",
"h  c #516684",
"j  c #526A85",
"k  c #566E8A",
"l  c #586D8A",
"z  c #567089",
"x  c #5A718D",
"c  c #5D7490",
"v  c #7D94B3",
"b  c #96939E",
"n  c #9A999F",
"m  c #8192B0",
"M  c #839AB6",
"N  c #8A98B3",
"B  c #8092B8",
"V  c #859ABC",
"C  c #899FBD",
"Z  c #9F9FBB",
"A  c #85A0B3",
"S  c #8CA4B7",
"D  c #86AAB6",
"F  c #84A3BD",
"G  c #8AA6BE",
"H  c #87ACBF",
"J  c #8CABBD",
"K  c #94A6B4",
"L  c #96A9B7",
"P  c #91A6BC",
"I  c #92ABBC",
"U  c #9EADBB",
"Y  c #8AB0BB",
"T  c #A5A1AB",
"R  c #A8A7AD",
"E  c #ADADB7",
"W  c #A2A4B9",
"Q  c #A4AEBD",
"!  c #ADB3BF",
"~  c #B5B4BA",
"^  c #B8B3B9",
"/  c #8C9FC3",
"(  c #8DA1C2",
")  c #8BA6C1",
"_  c #8BA4C2",
"`  c #8DA7C0",
"'  c #8CA5C3",
"]  c #8EA0C4",
"[  c #8EA5C4",
"{  c #8DA6C4",
"}  c #8EA7C5",
"|  c #8DA3C2",
" . c #81AAC0",
".. c #8BABC0",
"X. c #8AAAC1",
"o. c #8FA9C0",
"O. c #8CABC0",
"+. c #8EAAC0",
"@. c #8FABC1",
"#. c #8FA9C2",
"$. c #8FABC3",
"%. c #8EAAC2",
"&. c #89ACC0",
"*. c #89AEC1",
"=. c #8DACC0",
"-. c #8DACC1",
";. c #8CACC1",
":. c #8EADC2",
">. c #8FAEC2",
",. c #8FAAC7",
"<. c #8FAFC4",
"1. c #8EACC6",
"2. c #8EABC1",
"3. c #90A3C3",
"4. c #91A4C4",
"5. c #92A5C5",
"6. c #93A6C6",
"7. c #94A7C7",
"8. c #91A3C2",
"9. c #91A9C1",
"0. c #91AAC1",
"q. c #92ABC1",
"w. c #90A8C2",
"e. c #90AAC3",
"r. c #92AFC1",
"t. c #90ACC2",
"y. c #90AFC3",
"u. c #91ABC4",
"i. c #90AAC5",
"p. c #90ACC4",
"a. c #90AFC4",
"s. c #92AEC5",
"d. c #94ACC6",
"f. c #91ABC4",
"g. c #94A6CB",
"h. c #92A9C9",
"j. c #92ABC9",
"k. c #91A8CA",
"l. c #93AACA",
"z. c #96A9C9",
"x. c #92ADC8",
"c. c #94AACA",
"v. c #98ADCC",
"b. c #8CB1C3",
"n. c #8CB2C7",
"m. c #8EB1C5",
"M. c #95B1C6",
"N. c #94B0C6",
"B. c #91B0C5",
"V. c #94B3C8",
"C. c #96B0CB",
"Z. c #96B0CA",
"A. c #99B1CB",
"S. c #9BAED3",
"D. c #9FB3D6",
"F. c #ABACC4",
"G. c #AEAEC9",
"H. c #A5B1C1",
"J. c #AAB6C2",
"K. c #AAB4C3",
"L. c #A2B4CA",
"P. c #AFB1C8",
"I. c #B3B5C2",
"U. c #B3B4CC",
"Y. c #B6BCCC",
"T. c #A0B2D6",
"R. c #BCB7D7",
"E. c #BCBFD2",
"W. c #CFCCD5",
/* pixels */
"%   X     . .                                                                                                               # b ",
"    @ X o   X X X X                                                                                           X X X X     O . T ",
"  @ J.L L L L I I I I I I I I I I I J J J J J J J J J J J J J J J J J J J J J J J J J J J J J J J J J J J J L L I I J I K @   ~ ",
"X X K I I S r.G G D D D D Y D D D D &.+.+.=.+.+.+.+.+.+.+.+.+.+.+.+.+.=.+.+.+.+.+.+.+.+.+.+.+.+.+.+.G +.+.M.J J G m. .m.J o   ~ ",
"  X K J =.<.G X.<.} 6.6.7.z.6.6.6.6.+.J J J J J J J J J +.J J J J J J J +.+.+.+.+.+.+.+.+.+.+.+.+.+.=.C.=.d.r.P s.$.F e.P X . ^ ",
"    K J J =.M.M.e.2 = 9 q 2 6 6 6 9 9 r 9 9 9 9 9 9 9 9 9 9 9 9 9 9 9 9 9 9 9 9 9 9 9 9 9 9 9 9 9 9 y y - 1 ` J =.=.=.J K o   ~ ",
"  X L I J G J &.( 4 1 6 5 5 5 5 5 5 6 4 4 4 4 4 4 4 4 4 4 4 4 4 4 4 4 4 4 4 8 4 4 4 4 4 4 5 5 2 5 5 2 q > 3 ( e.=.G G D I o   ~ ",
"  X L I J G J &.( t 9 l.+.d.e.i.$.$.+.+.+.=.=.=.=.=.+.+.+.+.=.=.=.=.+.+.+.=.=.=.=.=.=.+.+.d.i.r.d.d.` l.2 4 6.i.=.J G D J X   ~ ",
"  X L I J G J H ( 9 q _ =.=.+.+.=.=.J J J J J J J J J J J J J J J J J J J J J J J J J J J J J J J +.l.} q 1 ( +.G G G D J X   ~ ",
"  X L J J =.I H ( q 6 C.G r.G +.J J J J J J J J J J J J J J J J J J J J J J J J J J J J J J H J J G _ } > 9 8.e.X.G G D J X   ~ ",
"  X L J J =.J H ( t 4 _ r.d.G +.=.=.+.e.e.+.e.e.+.+.e.e.e.e.e.e.+.+.e.e.e.e.+.e.+.+.+.e.e.r.J J X.+.l.l.q 1 8.e.&.J G D J X   ~ ",
"  X L J J =.J H ] 9 9 0 , i d d j j j j j j j j j j j j j j j j j j j j j j j j j j j j j f j f f f 5 2 4 9 8.e.&.J G D J X   ~ ",
"  X L J J J J H ] 3 3 2 ; 5 l d j f g g g g g g j j g g j g g g g g g j j j j g g g g g g h h h k s > ; 1 9 8.e.&.J G D J X   ~ ",
"  X L J J J J &.( 2 1 S.l.d.s.s.J <.d.B.B.B.B.B.B.B.B.B.B.B.B.B.B.B.B.B.B.B.B.B.B.B.B.B.B.e.s.s.+.d.v.D.1 9 8.e.H G G H J X   ~ ",
"  X L J J =.I H ( q q _ v.+.J J G G =.=.=.=.=.=.=.=.=.=.=.=.=.=.=.=.=.=.=.=.=.=.=.=.=.=.=.J J G J G d.l.q < 8.e.&.G G H J X   ~ ",
"  X L J J J I &.( q 6 } d.G r.=.J &.H H H H H J J J H H H H H H H H H H J J H H H H H H H J J J J J +.l.5 1 8.e.&.G G H J X   ~ ",
"  X L J J =.J H ( q 4 ] d.d.G +.=.=.+.+.+.+.+.+.+.+.+.+.+.+.+.+.+.+.+.+.+.+.+.+.+.+.+.+.+.r.J J J J d.l.q 1 8.e.H G G H J X   ~ ",
"  X L J J =.J H ( y 1 g._ C A.e.d.<.+.e.e.+.+.+.+.+.e.e.e.e.+.+.e.+.e.e.e.e.+.+.+.+.+.e.e.i.s.s.+.C._ v.2 1 8.e.H G G H J X   ~ ",
"  X L J J =.I H ( 3 3 2 ; 6 l d g g j j j j j j j j j j j j j j j j j j j j j j j j j j j h h f k a : ; 1 9 8.e.H G G H J X   ~ ",
"  X L J J J J H ( 9 1 B v M i.+.G X.G G G G G G G G G G G G G G G G G G G G G G G G G G G _ G G e.i.v V 2 3 8.e.H G G H J X   ~ ",
"  X L J J =.J H ( q q _ v.+.J J G G =.=.=.=.=.=.=.=.=.=.=.=.=.=.=.=.=.=.=.=.=.=.=.=.=.=.=.J J G J G d.l.q < 8.e.H G G H J X   ~ ",
"  X L J J =.J H ( 0 6 l.+.d.+.J J =.H H H H H J H H H H H H H H H J H H H H H J H H H H H J J J G G +.i.2 4 8.e.H G G H J X   ~ ",
"  X L J J =.J H ( q 2 } $.G J r.H G =.=.=.=.=.=.=.=.=.=.=.=.=.=.=.=.=.=.=.=.=.=.=.=.=.=.=.=.J J J G d.v.6 1 8.e.H G G H J X   ~ ",
"  X L J J =.J H ( 9 4 g.G i.s.G J X.+.+.+.+.+.+.+.+.e.e.+.+.+.+.+.+.+.+.+.+.+.+.+.+.+.+.+.J J +.J r.` 6.4 9 8.e.H G G J J X   ~ ",
"  X L J J J J H ( y 3 < 2 e c k x k k l l l l l l l l l l l l l l l l l l l l l l l l l l l x k x f 2 1 9 3 8.e.H G G H I X   ~ ",
"  X L J J J I H ( y 9 u w p x j x c z z z z z z z z z z z z z z z z z z z z z z z z z z z x k k x k w w 3 3 8.e.H G G J J X   ~ ",
"  X L J J J I H ( 9 q / i.G G r.G X.G G G G G G G G G G G G G G G G G G G G G G G G G G G +.e.J D G ` } 6 1 8.e.H G G H J X   ~ ",
"  X L J J =.I H ( 0 6 l.+.d.+.J J =.H J J H H H J J H H H H H H H H H H H H H H J J H H H J G J G G +.i.2 2 8.e.H G G H J X   ~ ",
"  X L J J =.J H ( q 6 v._ d.J =.G &.H J J J J J J J J J J J J J J J J J J J J J J J J J J G J G J J G +.> 4 8.e.H G G J J X   ~ ",
"  X L J J =.J H ( 9 4 g.G i.s.G J X.+.+.+.+.+.+.+.+.+.+.+.+.+.+.+.+.+.+.+.+.+.+.+.+.+.+.+.J J +.J r.` 6.4 9 8.e.H G G H J X   ~ ",
"  X L J J =.J H ( 9 9 q 2 e f d j g j j j j j j j j j j j j j j j j j j j j j j j j j j j f j f d d 5 2 4 9 8.e.H G G H J X   ~ ",
"  X L J J =.J H ( y 9 u w p x j x c z z z z z z z z z z z z z z z z z z z z z z z z z z z x k k x k w w 3 3 8.e.H G G H J X   ~ ",
"  X L J J J I &.( 2 1 S.l.d.s.s.J <.d.B.B.B.B.B.B.B.B.B.B.B.B.B.B.B.B.B.B.B.B.B.B.B.B.B.B.e.s.s.+.d.v.D.1 9 8.e.H G G H J X   ~ ",
"  X L J J =.I H ( q 1 } G +.d.J =.m.G G G G H H H H G G G G G G G G H H G G G G G G H H H =.J =.=.=.+.l.2 2 8.e.H G G H J X   ~ ",
"  X L J J J J &.( q 6 } d.G r.=.J &.H H H H H H H H J H H H H H H H H H H H H H H H H H H J J J J J +.l.6 1 8.e.H G G H J X   ~ ",
"  X L J J =.J H ( q 4 ] d.d.G +.=.=.+.+.+.+.+.+.+.+.+.+.+.+.+.+.+.+.+.+.+.+.+.+.+.+.+.+.+.r.J J J J d.l.q 1 8.e.H G G H J X   ~ ",
"  X L J J J J H ( y 1 g._ C A.e.d.<.+.e.e.+.+.+.e.e.e.e.e.e.+.+.+.+.e.e.e.e.+.+.+.+.+.e.e.i.s.s.+.C._ v.2 1 8.e.H G G H J X   ~ ",
"  X L J J J J H ( 3 3 2 ; 6 l d g f j j j j j j j j j j j j j j j j j j j j j j j j j j j h h f k a : ; 1 r 8.e.H G G H J X   ~ ",
"  X L J J J I &.( 2 1 S.l.d.s.s.J <.d.B.B.B.B.B.B.B.B.B.B.B.B.B.B.B.B.B.B.B.B.B.B.B.B.B.B.e.s.s.+.d.v.D.1 9 8.e.H G G H J X   ~ ",
"  X L J J J I H ( q q _ v.+.J J G G =.=.=.=.=.=.=.=.=.=.=.=.=.=.=.=.=.=.=.=.=.=.=.=.=.=.=.J J J J G d.l.q < 8.e.H G G H J X   ~ ",
"  X L J J J J &.( q 6 } d.G r.=.J &.H H H H J J H J H J H H J H H J H H H H J J H H H H J J J J J J +.l.6 1 8.e.H G G H J X   ~ ",
"  X L J J =.J H ( q 2 } $.G J r.H G =.=.=.=.=.=.=.=.=.=.=.=.=.=.=.=.=.=.=.=.=.=.=.=.=.=.=.=.J J J G d.v.6 1 8.e.H G G H J X   ~ ",
"  X L J J =.I H ( y 1 g._ C A.e.d.<.+.e.e.+.+.e.+.+.e.e.e.e.e.+.+.+.e.e.e.e.e.+.+.+.+.e.e.i.s.s.+.C._ v.3 1 8.e.H G G H J X   ~ ",
"  X L J J =.J H ( y 3 < 2 e c k x k k l l l l l l l l l l l l l l l l l l l l l l l l l l l x k x f 2 1 9 3 8.e.H G G H J X   ~ ",
"  X L J J J J H ( 9 1 B v M i.+.G X.G G G G G G G G G G G G G G G G G G G G G G G G G G G _ G G e.i.v V 4 3 8.e.H G G H J X   ~ ",
"  X L J J J J H ( 9 q / i.G G r.G X.G G G G G G G G G G G G G G G G G G G G G G G G G G G +.e.J D G ` } 6 1 8.e.H G G H J X   ~ ",
"  X L J J =.J H ( 0 6 l.+.d.+.J J b.J J J J H H H H H H H H H H H H H H H H H H H J H J H J J J G G +.i.2 4 8.e.H G G H J X   ~ ",
"  X L J J =.J H ( q 6 v._ d.J =.H &.H J J J J J J J J J J J J J J J J J J J J J J J J J J G J G J J G +.> 4 8.e.H G G J J X   ~ ",
"  X L J J J J H ( 9 4 g.G i.s.G J X.+.+.+.+.+.+.+.+.+.+.+.+.+.+.+.+.+.+.+.+.+.+.+.+.+.+.+.J J +.J r.` 6.4 9 8.e.H G G H I X   ~ ",
"  X L J J J I H ( y 3 < 2 e c k x k k l l k l l l l l l l l l l l l l l l l l l l l l l l l x k x f 2 1 9 3 8.e.H G G J J X   ~ ",
"  X L J J =.I H ( y 9 u w p x j x c z z z z z z z z z z z z z z z z z z z z z z z z z z z x k k x k w w 3 3 8.e.H G G H J X   ~ ",
"  X L J J J I H ( 9 q / i.G G r.G X.G G G G G G G G G G G G G G G G G G G G G G G G G G G +.e.J D G ` } 6 1 8.e.H G G H J X   ~ ",
"  X L J J =.J H ( q 1 } G +.d.J =.m.G H G G G G H G G H G G G G H H G H G G G G G G G H G =.J =.=.=.+.l.2 2 8.e.H G G J J X   ~ ",
"  X L J J =.J H ( q 6 v._ d.J =.H &.H J J J J J J J J J J J J J J J J J J J J J J J J J J G J G J J G +.> 4 8.e.H G G H J X   ~ ",
"  X L J J =.J H ( q 4 ] d.d.G +.=.=.=.+.+.+.+.+.+.+.+.+.+.+.+.+.+.+.+.+.+.+.+.+.+.+.+.+.+.r.J J J J d.l.q 1 8.e.H G G H J X   ~ ",
"  X L J J =.J H ( 9 9 q 2 e f d j g j j j j j j j j j j j j j j j j j j j j j j j j j j j f j f d d 5 2 4 9 8.e.H G G H J X   ~ ",
"    L I J J J G ( 2 3 2 ; 5 l d g f j j j j j j j j j j j j j j j j j j j j h h h h h j j h h f k a : ; 1 r 8.e.H G G H J X   ~ ",
"    L I J H I X.( 1 2 S.i.i.d.s.J d.s.B.d.d.d.d.d.d.d.d.d.d.d.d.d.d.d.B.d.d.s.s.s.s.d.d.B.=.d.d.+.d.v.T.1 9 8.e.&.G G H J X   ~ ",
"  X L I J H I G _ t 9 / v.` J J G G r.r.r.r.r.r.r.r.=.=.r.r.r.r.r.r.r.r.=.=.=.=.=.=.=.=.=.G G G J G d.z.q < 8.e.&.G G H J X   ~ ",
"  X L I +.H I X._ q 6 6.d.J =.=.J H H J J J J J J J G G J J J J J J J J H H H H H H H H H H H H H =.+.v.0 1 8.e.&.G G H J X   ~ ",
"    L P +.H J X._ 6 , i.C.+.+.H H +.+.+.+.J J J J J +.+.+.+.J J J J +.+.+.+.H H H H J +.+.+.+.+.J +.} ( 2 4 C e.&.H =.G I X   ~ ",
". # L P e.H e.F C q 2 g.v.z.l.l.l.z.z.z.z.z.z.z.z.z.z.z.z.z.z.z.z.z.z.z.z.z.z.l.z.z.z.z.z.g.z.z.z.z.S.g.q > M e.H H B.J I +   R ",
"$ # K P S D P M m 8 8 y 7 8 8 8 8 8 8 8 8 8 8 8 8 8 8 8 8 8 8 8 8 8 8 8 8 8 8 8 8 8 8 8 8 8 8 8 8 8 8 8 & * N L.M.A M.S L X   n ",
"n E ! Q U U Q K.U.W U.R.G.F.F.F.F.F.F.F.F.F.F.F.F.F.F.F.F.F.F.F.F.F.F.F.F.F.F.F.F.F.F.F.F.G.F.F.F.P.F.G.F.Z E.Y.Q H.U J.Q I.T W."
};
