/* XPM */
static char *result[] = {
/* columns rows colors chars-per-pixel */
"64 64 225 2 ",
"   c #130D13",
".  c #1A131A",
"X  c #1A1419",
"o  c #0B050B",
"O  c #21161F",
"+  c #1F1920",
"@  c #231C23",
"#  c #281F27",
"$  c #292229",
"%  c #352B2C",
"&  c #2F2C33",
"*  c #342C34",
"=  c #3C343C",
"-  c #383539",
";  c #39302E",
":  c #703A1F",
">  c #482C24",
",  c #4D3D2B",
"<  c #56392A",
"1  c #483A38",
"2  c #583A35",
"3  c #53311F",
"4  c #52432E",
"5  c #584739",
"6  c #48433A",
"7  c #65473B",
"8  c #725234",
"9  c #3E3A41",
"0  c #433D42",
"q  c #4C3F46",
"w  c #733F47",
"e  c #3D4C54",
"r  c #4A4648",
"t  c #554948",
"y  c #59534E",
"u  c #4A4C54",
"i  c #564C56",
"p  c #485159",
"a  c #5C5255",
"s  c #58565A",
"d  c #654C47",
"f  c #62554C",
"g  c #68544A",
"h  c #765946",
"j  c #6B5C52",
"k  c #63565D",
"l  c #655C5A",
"z  c #685556",
"x  c #765B58",
"c  c #7A4C4F",
"v  c #65615C",
"b  c #68605C",
"n  c #79675B",
"m  c #7B604E",
"M  c #4D5B62",
"N  c #455860",
"B  c #535A62",
"V  c #5B5C64",
"C  c #5C5F6B",
"Z  c #545A64",
"A  c #655C64",
"S  c #6D5D62",
"D  c #795F62",
"F  c #54626A",
"G  c #5C636C",
"H  c #59656A",
"J  c #5D6573",
"K  c #5C6B75",
"L  c #626165",
"P  c #6C6362",
"I  c #63646C",
"U  c #636A6E",
"Y  c #69696E",
"T  c #6C626A",
"R  c #7D6C64",
"E  c #736767",
"W  c #7D7265",
"Q  c #646B74",
"!  c #6A6C74",
"~  c #646C7A",
"^  c #6D6E7A",
"/  c #666672",
"(  c #746C76",
")  c #6A7176",
"_  c #64727B",
"`  c #6C737C",
"'  c #637177",
"]  c #727175",
"[  c #73747C",
"{  c #7B7679",
"}  c #86593A",
"|  c #965336",
" . c #8D4D34",
".. c #AF5E3F",
"X. c #896339",
"o. c #925A48",
"O. c #875D59",
"+. c #876448",
"@. c #9C6B4B",
"#. c #97724A",
"$. c #8A6956",
"%. c #996C57",
"&. c #9A7259",
"*. c #B97D4D",
"=. c #A27A5C",
"-. c #B47455",
";. c #A76C4B",
":. c #866B66",
">. c #9E6D69",
",. c #887569",
"<. c #987768",
"1. c #877A79",
"2. c #927572",
"3. c #A77867",
"4. c #B87A6A",
"5. c #A07B76",
"6. c #C47355",
"7. c #C87D64",
"8. c #B8875A",
"9. c #9B8479",
"0. c #8D8275",
"q. c #AD866B",
"w. c #B88867",
"e. c #A68676",
"r. c #B78A73",
"t. c #B99378",
"y. c #AD917D",
"u. c #C78A5A",
"i. c #CD8A55",
"p. c #E4975F",
"a. c #C88767",
"s. c #D9996A",
"d. c #CA9677",
"f. c #D29B74",
"g. c #D08B74",
"h. c #E69E68",
"j. c #E69B79",
"k. c #DDA37B",
"l. c #DAA277",
"z. c #CAA077",
"x. c #E6A579",
"c. c #FAB27F",
"v. c #F1A770",
"b. c #6C7983",
"n. c #697482",
"m. c #737B84",
"M. c #7C7E85",
"N. c #737E8A",
"B. c #7C7D89",
"V. c #646F80",
"C. c #847E85",
"Z. c #74828A",
"A. c #7B848C",
"S. c #7B8489",
"D. c #7C8692",
"F. c #7C8992",
"G. c #84848C",
"H. c #82898C",
"J. c #9A8C86",
"K. c #828C94",
"L. c #8D8D94",
"P. c #828E99",
"I. c #8F8F9A",
"U. c #948C93",
"Y. c #8E949B",
"T. c #91929B",
"R. c #939196",
"E. c #97928E",
"W. c #AA8D87",
"Q. c #B89887",
"!. c #A59A96",
"~. c #BE9997",
"^. c #B28F88",
"/. c #BCA497",
"(. c #ACA195",
"). c #999AA3",
"_. c #959AA0",
"`. c #AB99A3",
"'. c #9EA1A8",
"]. c #A8A7A8",
"[. c #B7ACA8",
"{. c #B1AFB6",
"}. c #B5B8BA",
"|. c #AFB0B3",
" X c #CA9A85",
".X c #D79985",
"XX c #C29899",
"oX c #C9A78C",
"OX c #DBA885",
"+X c #CAA596",
"@X c #D6AB96",
"#X c #D4B395",
"$X c #E7AA84",
"%X c #EAB58B",
"&X c #F6B688",
"*X c #E8B594",
"=X c #EDB398",
"-X c #CDB5AC",
";X c #E8BBA6",
":X c #F9C196",
">X c #F2C295",
",X c #DCCABD",
"<X c #FCCEA2",
"1X c #B7BBC1",
"2X c #C6C5C9",
"3X c #D7CAC0",
"4X c #D7D6DC",
"5X c #CAC9D0",
"6X c #E5D2C8",
"7X c #E3DDDA",
"8X c #EDDDD5",
"9X c #EFD0CC",
"0X c #EEE5DC",
"qX c #D8DBE3",
"wX c #E9DFE2",
"eX c #DDE2E5",
"rX c #E4E5EB",
"tX c #E7EAEE",
"yX c #E7E4E5",
"uX c #EBECF3",
"iX c #E7E8F0",
"pX c #EDF1F5",
"aX c #F5F8FB",
"sX c #F9EAEC",
"dX c #ADD8E6",
/* pixels */
"dXdXdXdXdXdXdXdXdXdXdXdXdXdXdXdXdXdXdXdXdXdXdXdXdXdXdXdXdXdXdXdXdXdXdXdXdXdXdXdXdXdXdXdXdXdXdXdXdXdXdXdXdXdXdXdXdXdXdXdXdXdXdXdX",
"dXdXdXdXdXdXdXdXdXdXdXdXdXdXdXdXdXdXdXdXdXdXdXdXdXdXdXdXdXdXdXdXdXdXdXdXdXdXdXdXdXdXdXdXdXdXdXdXdXdXdXdXdXdXdXdXdXdXdXdXdXdXdXdX",
"dXdXdXdXdXdXdXdXdXdXdXdXdXdXdXdXdXdXdXdXdXdXdXdXdXdXdXdXdXdXdXdXdXdXdXdXdXdXdXdXdXdXdXdXdXdXdXdXdXdXdXdXdXdXdXdXdXdXdXdXdXdXdXdX",
"dXdXdXdXdXdXdXdXdXdXdXdXdXdXdXdXdXdXdXdXdXdXdXdXdXdXdXdXdXdXdXdXdXdXdXdXdXdXdXdXdXdXdXdXdXdXdXdXdXdXdXdXdXdXdXdXdXdXdXdXdXdXdXdX",
"dXdXdXdXdXdXdXdXdXdXdXdXdXdXdXdXdXdXdXdXdXdXdXdXdXdXdXdXdXdXdXdXdXdXB.I.I.I.dXdXdXdXdXdXdXdXdXdXdXdXdXdXdXdXdXdXdXdXdXdXdXdXdXdX",
"dXdXdXdXdXdXdXdXdXdXdXdXdXdXdXdXdXdXdXdXdXdXdXdXdXdXdXdXdXdXdX^ ).L.).I.m.B.[ dXdXdXdXdXdXdXdXdXdXdXdXdXdXdXdXdXdXdXdXdXdXdXdXdX",
"dXdXdXdXdXdXdXdXdXdXdXdXdXdXdXdXdXdXdXdXdXdXdXdXdXdXdXdXdX] ] { G.B./ Z Z Z A V dXdXdXdXdXdXdXdXdXdXdXdXdXdXdXdXdXdXdXdXdXdXdXdX",
"dXdXdXdXdXdXdXdXdXdXdXdXdXdXdXdXdXdXdXdXdXdXdXdXdXdXdXdXdXs r r 0 0 & 9 u u s r i dXdXdXdXdXdXdXdXdXdXdXdXdXdXdXdXdXdXdXdXdXdXdX",
"dXdXdXdXdXdXdXdXdXdXdXdXdXdXdXdXdXdXdXdXdXdXdXdXdXdXdXdX0 1 % ; ; % t u s r = t q T dXdXdXdXdXdXdXdXdXdXdXdXdXdXdXdXdXdXdXdXdXdX",
"dXdXdXdXdXdXdXdXdXdXdXdXdXdXdXdXdXdXdXdXdXdXdXdXdXE { E z 5 1 t 1 y y y l P v P S { 1.dXdXdXdXdXdXdXdXdXdXdXdXdXdXdXdXdXdXdXdXdX",
"dXdXdXdXdXdXdXdXdXdXdXdXdXdXdXdXdXdXdXdXdXdXdXdXdXk l z f d d c m e.,.W j R 2.:.x E dXdXdXdXdXdXdXdXdXdXdXdXdXdXdXdXdXdXdXdXdXdX",
"dXdXdXdXdXdXdXdXdXdXdXdXdXdXdXdXdXdXdXdXdXdXdXdXdXdXdXdX5.>. .: z.#X#X+.<.+X-Xx g dXdXdXdXdXdXdXdXdXdXdXdXdXdXdXdXdXdXdXdXdXdXdX",
"dXdXdXdXdXdXdXdXdXdXdXdXdXdXdXdXdXdXdXdXdXdXdXdXdXdXdXdX^.4.7. .x.>Xz.*X&.#X+X<.5.dXdXdXdXdXdXdXdXdXdXdXdXdXdXdXdXdXdXdXdXdXdXdX",
"dXdXdXdXdXdXdXdXdXdXdXdXdXdXdXdXdXdXdXdXdXdXdXdXdXdXdXdX>.7.7.$Xh.:X&X>X*Xt.OX<.5.dXdXdXdXdXdXdXdXdXdXdXdXdXdXdXdXdXdXdXdXdXdXdX",
"dXdXdXdXdXdXdXdXdXdXdXdXdXdXdXdXdXdXdXdXdXdXdXY ] { R /.@X4.;.$Xx.x.x.;.z.>XOX/./.dXdXdXdXdXdXdXdXdXdXdXdXdXdXdXdXdXdXdXdXdXdXdX",
"dXdXdXdXdXdXdXdXdXdXdXdXdXdXdXdXdXdXdX|.2X4X5X5X1.P T 2.9X+X@.OXf.x.&Xa.;.w.t.Q.9.dXdXdXdXdXdXdXdXdXdXdXdXdXdXdXdXdXdXdXdXdXdXdX",
"dXdXdXdXdXdXdXdXdXdXdXdXdXdXdXdXdX{.4XuXuXuXiX5XqXA.I E 0.0X/.+.q.d.%X=X*XOXoX<.R [.dXdXdXdXdXdXdXdXdXdXdXdXdXdXdXdXdXdXdXdXdXdX",
"dXdXdXdXdXdXdXdXdXdXdXdXdXdXdXdXdX5XpXrXtXrXaXiX{.eX) Q U L.7X-X<.e.4.=X;X;X+Xn ,.-XJ.dXdXdXdXdXdXdXdXdXdXdXdXdXdXdXdXdXdXdXdXdX",
"dXdXdXdXdXdXdXdXdXdXdXdXdXdXdXdX|.4XuXtXuXaXiXaX'.qXK.' ' K 2X0X6XXXXX>.>.Q.~.j W E.3XdXdXdXdXdXdXdXdXdXdXdXdXdXdXdXdXdXdXdXdXdX",
"dXdXdXdXdXdXdXdXdXdXdXdXdXdXdXdX1XuXrXtXuXqXaXaX].5XY.` F ` ' 0XsX9X>.O.^.8X8Xf W !.2XdXdXdXdXdXdXdXdXdXdXdXdXdXdXdXdXdXdXdXdXdX",
"dXdXdXdXdXdXdXdXdXdXdXdXdXdXdXdX2XpXtXpXuXaXaXaX'.eXP.H G G A `.-XXXw c :.W.!.f E '.7XE.dXdXdXdXdXdXdXdXdXdXdXdXdXdXdXdXdXdXdXdX",
"dXdXdXdXdXdXdXdXdXdXdXdXdXdXdXdX].}.|.}.}.1X1X2X_.eXH r r r t z 2.XXw c n J.; r L { [.C.a dXdXdXdXdXdXdXdXdXdXdXa A R.dXdXdXdXdX",
"dXdXdXdXdXdXdXdXdXdXdXdXdXdXdXdX!.7X0X7X4XyXeXqX|.].y 6 t b f x d D k z b R v v v L P y 1 f g g f y t z A T ( k A a E S dXdXdXdX",
"dXdXdXdXdXdXdXdXdXdXdXdXdXdXdX1.(.,X6X,X6X0X8X7X,X,., 4 4 , , , > 2 q 1 1 1 t t 6 , d 2 3 < < 3 < < 7 , t dXdXdXT S dXdXdXdXdXdX",
"dXdXdXdXdXdXdXdXdXdXdXdXdXdXdXdXy.y.t.oXt.r.r.t.=.#.+.X.#.8 } &.O.w 2 7 d g 5 :.5 7 t.q.8 } ..o.>.4.e.e.dXdXdXdXdXdXdXdXdXdXdXdX",
"dXdXdXdXdXdXdXdXdXdXdXdXdXdXdX+.=.k.x.l.k.&X%X%Xl.8.#.X.#.X.w.$XOX4.@.<.$.c 5 0.7 m #Xz.-.7.7.| 7.=X@XXXdXdXdXdXdXdXdXdXdXdXdXdX",
"dXdXdXdXdXdXdXdXdXdXdXdXdXdX+.#.u.s.h.h.h.c.c.&X>X%Xk.8 8 8 z.x.s.$Xx.=XoXh 5 m 5 8 @X.Xa.7.6...f..X4.^.dXdXdXdXdXdXdXdXdXdXdXdX",
"dXdXdXdXdXdXdXdXdXdXdXdXdXdX@.-.8.i.h.v.p.c.c.&X<X>X#.9.+XoX+.OXj.h.s.OX+.g j 9.W 7 +X.Xg.-.| 6..X.Xe.dXdXdXdXdXdXdXdXdXdXdXdXdX",
"dXdXdXdXdXdXdXdXdXdXdXdXdXdX%.8.i.*.u.u.s.x.x.l.#X#X0.0.y.e.+.OX$Xk.u.d.m /.j J.z 5 ,.$.>.o.o. X.X4.dXdXdXdXdXdXdXdXdXdXdXdXdXdX",
"dXdXdXdXdXdXdXdXdXdXdXdXdXdX+.w.l.u.*.| #.w.t.t.q.q.9.5 6 8 Q.z.d.l.f.3.q.3Xt v t r dXdXdXdXdXdXdXdXdXdXdXdXdXdXdXdXdXdXdXdXdXdX",
"dXdXdXdXdXdXdXdXdXdXdXdXdXdX&.t.q.#.8 dX$.,.9./.#X/.0.f y n $.<.<.&.$.$.6X].a v t i dXdXdXdXdXdXdXdXdXdXdXdXdXdXdXdXdXdXdXdXdXdX",
"dXdXdXdXdXdXdXdXdXdXdXdXdXdXx h h dXdXdXP T i l U v f v v v b P P y l i ( dXL A dXdXdXdXdXdXdXdXdXdXdXdXdXdXdXdXdXdXdXdXdXdXdXdX",
"dXdXdXdXdXdXdXdXdXdXdXdXdXdXdXdXdXdXdX{ s s B I M p M N F N K M G u I Z i dXdXdXdXdXdXdXdXdXdXdXdXdXdXdXdXdXdXdXdXdXdXdXdXdXdXdX",
"dXdXdXdXdXdXdXdXdXdXdXdXdXdXdXdXdXdXdXY ` Q Q J K _ K F F N K F M G C J / dXdXdXdXdXdXdXdXdXdXdXdXdXdXdXdXdXdXdXdXdXdXdXdXdXdXdX",
"dXdXdXdXdXdXdXdXdXdXdXdXdXdXdXdXdXdXdXI Q Q ~ ' n._ K ' ' M K M K m.` G./ dXdXdXdXdXdXdXdXdXdXdXdXdXdXdXdXdXdXdXdXdXdXdXdXdXdXdX",
"dXdXdXdXdXdXdXdXdXdXdXdXdXdXdXdXdXdXdXQ ) m.N.A.N.D.Z.Z.M e _ M F A.! B.! dXdXdXdXdXdXdXdXdXdXdXdXdXdXdXdXdXdXdXdXdXdXdXdXdXdXdX",
"dXdXdXdXdXdXdXdXdXdXdXdXdXdXdXdXdXdXdXV C m.m.A.' ` _ Z._ F F p Q C / ! dXdXdXdXdXdXdXdXdXdXdXdXdXdXdXdXdXdXdXdXdXdXdXdXdXdXdXdX",
"dXdXdXdXdXdXdXdXdXdXdXdXdXdXdXdX# dXdXdXC ^ Q ~ m.Z.F.F.F.Z.K e ` A.m.V dXdXdXdXdXdXdXdXdXdXdXdXdXdXdXdXdXdXdXdXdXdXdXdXdXdXdXdX",
"dXdXdXdXdXdXdXdXdXdXdXdXdXdXO O . # dXdX^ Y b.) F.Z.F.F.Z.F.F.K F A.[ I dXdXdXdXdXdXdXdXdXdXdXdXdXdXdXdXdXdXdXdXdXdXdXdXdXdXdXdX",
"dXdXdXdXdXdXdXdXdXdXdXdXdX# # @ % dXdXdXdX^ ) Q b.Z.Z.F.P.P.N.N.G Q ! ! dXdXdXdXdXdXdXdXdXdXdXdXdXdXdXdXdXdXdXdXdXdXdXdXdXdXdXdX",
"dXdXdXdXdXdXdXdXdXdXdX$ @ . # = dXdXdX# s Q s J ' ` Z.D.Z.Z.P.F.` Q i dXdXdXdXdXdXdXdXdXdXdXdXdXdXdXdXdXdXdXdXdXdXdXdXdXdXdXdXdX",
"dXdXdXdXdXdXdXdXdXdX@ . @ * = dXdXr & & u B U M F b.Z.D.F.N.D.P.! ~ I G dXdXdXdXdXdXdXdXdXdXdXdXdXdXdXdXdXdXdXdXdXdXdXdXdXdXdXdX",
"dXdXdXdXdXdXdXdXdX. . + * = - dXdX0 & 9 s S.` F M Z K N.F.n.N.n.b.~ / G dXdXdXdXdXdXdXdXdXdXdXdXdXdXdXdXdXdXdXdXdXdXdXdXdXdXdXdX",
"dXdXdXdXdXdXdXdXdXX @ * 0 dXdXdXdXdXu s H.).[ H ) K G J N.n.n.n.J ~ ~ ^ C dXdXdXdXdXdXdXdXdXdXdXdXdXdXdXdXdXdXdXdXdXdXdXdXdXdXdX",
"dXdXdXdXdXdXdXdXdXdXdXdXdXdXdXdXdXdXdXS.Y.Y.U ) H.A.Q G J J V.V.K V./ ~ ^ C dXdXdXdXdXdXdXdXdXdXdXdXdXdXdXdXdXdXdXdXdXdXdXdXdXdX",
"dXdXdXdXdXdXdXdXdXdXdXdXdXdXdXdXdXdXdXL.T.R.L Q H.I.A.! C C ~ ~ ~ N.C n.V.I dXdXdXdXdXdXdXdXdXdXdXdXdXdXdXdXdXdXdXdXdXdXdXdXdXdX",
"dXdXdXdXdXdXdXdXdXdXdXdXdXdXdXdXdXdXdXdXY.R.L L { G.C.C.~ C ~ ~ ~ Q N.B.^ ^ dXdXdXdXdXdXdXdXdXdXdXdXdXdXdXdXdXdXdXdXdXdXdXdXdXdX",
"dXdXdXdXdXdXdXdXdXdXdXdXdXdXdXdXdXdXdXdXdXdXdXdX/ ( n.C.^ J / / n./ K.K.C./ V dXdXdXdXdXdXdXdXdXdXdXdXdXdXdXdXdXdXdXdXdXdXdXdXdX",
"dXdXdXdXdXdXdXdXdXdXdXdXdXdXdXdXdXdXdXdXdXdXdXdXdXdXdXdX^ V ! ! b.` A.Z.G.m.G dXdXdXdXdXdXdXdXdXdXdXdXdXdXdXdXdXdXdXdXdXdXdXdXdX",
"dXdXdXdXdXdXdXdXdXdXdXdXdXdXdXdXdXdXdXdXdXdXdXdXdXdXdXdXdXdXT b.Q ! K.H.A.M.) A dXdXdXdXdXdXdXdXdXdXdXdXdXdXdXdXdXdXdXdXdXdXdXdX",
"dXdXdXdXdXdXdXdXdXdXdXdXdXdXdXdXdXdXdXdXdXdXdXdXdXdXdXdXdXdX] S.Q ! S.K.K.m.Y Y dXdXdXdXdXdXdXdXdXdXdXdXdXdXdXdXdXdXdXdXdXdXdXdX",
"dXdXdXdXdXdXdXdXdXdXdXdXdXdXdXdXdXdXdXdXdXdXdXdXdXdXdXdXdXdXdX! ` ) [ K.D.S.Q Y L dXdXdXdXdXdXdXdXdXdXdXdXdXdXdXdXdXdXdXdXdXdXdX",
"dXdXdXdXdXdXdXdXdXdXdXdXdXdXdXdXdXdXdXdXdXdXdXdXdXdXdXdXdXdXdX! S.) ) S.H Q G m.L.G.dXdXdXdXdXdXdXdXdXdXdXdXdXdXdXdXdXdXdXdXdXdX",
"dXdXdXdXdXdXdXdXdXdXdXdXdXdXdXdXdXdXdXdXdXdXdXdXdXdXdXdXdXdXdXdXL H s s U A.L.U.U.C.dXdXdXdXdXdXdXdXdXdXdXdXdXdXdXdXdXdXdXdXdXdX",
"dXdXdXdXdXdXdXdXdXdXdXdXdXdXdXdXdXdXdXdXdXdXdXdXdXdXdXdXdXdXdXdXY L F H._.B.C.{ i dXdXdXdXdXdXdXdXdXdXdXdXdXdXdXdXdXdXdXdXdXdXdX",
"dXdXdXdXdXdXdXdXdXdXdXdXdXdXdXdXdXdXdXdXdXdXdXdXdXdXdXdXdXdXdXdXY [ ] Y [ V dXdXq * = = $ # dXdXdXdXdXdXdXdXdXdXdXdXdXdXdXdXdXdX",
"dXdXdXdXdXdXdXdXdXdXdXdXdXdXdXdXdXdXdXdXdXdXdXdXdXdXdXdXdXdXdXdXdXL Y L dXdXdXdX$ * #     X dXdXdXdXdXdXdXdXdXdXdXdXdXdXdXdXdXdX",
"dXdXdXdXdXdXdXdXdXdXdXdXdXdXdXdXdXdXdXdXdXdXdXdXdXdXdXdXdXdXdXdXdXdXdX] dX= . . . . .   dXdXdXdXdXdXdXdXdXdXdXdXdXdXdXdXdXdXdXdX",
"dXdXdXdXdXdXdXdXdXdXdXdXdXdXdXdXdXdXdXdXdXdXdXdXdXdXdXdXdXdXdXdXdXdXdX- $ $     o dXdXdXdXdXdXdXdXdXdXdXdXdXdXdXdXdXdXdXdXdXdXdX",
"dXdXdXdXdXdXdXdXdXdXdXdXdXdXdXdXdXdXdXdXdXdXdXdXdXdXdXdXdXdXdXdXdXdXdX$ . . o dXdXdXdXdXdXdXdXdXdXdXdXdXdXdXdXdXdXdXdXdXdXdXdXdX",
"dXdXdXdXdXdXdXdXdXdXdXdXdXdXdXdXdXdXdXdXdXdXdXdXdXdXdXdXdXdXdXdXdXdXdXdXdXdXdXdXdXdXdXdXdXdXdXdXdXdXdXdXdXdXdXdXdXdXdXdXdXdXdXdX",
"dXdXdXdXdXdXdXdXdXdXdXdXdXdXdXdXdXdXdXdXdXdXdXdXdXdXdXdXdXdXdXdXdXdXdXdXdXdXdXdXdXdXdXdXdXdXdXdXdXdXdXdXdXdXdXdXdXdXdXdXdXdXdXdX",
"dXdXdXdXdXdXdXdXdXdXdXdXdXdXdXdXdXdXdXdXdXdXdXdXdXdXdXdXdXdXdXdXdXdXdXdXdXdXdXdXdXdXdXdXdXdXdXdXdXdXdXdXdXdXdXdXdXdXdXdXdXdXdXdX",
"dXdXdXdXdXdXdXdXdXdXdXdXdXdXdXdXdXdXdXdXdXdXdXdXdXdXdXdXdXdXdXdXdXdXdXdXdXdXdXdXdXdXdXdXdXdXdXdXdXdXdXdXdXdXdXdXdXdXdXdXdXdXdXdX"
};
