/* XPM */
static char *result[] = {
/* columns rows colors chars-per-pixel */
"64 64 224 2 ",
"   c #130D13",
".  c #151114",
"X  c #1B141B",
"o  c #1D181E",
"O  c #181216",
"+  c #0C070B",
"@  c #201A1E",
"#  c #29201F",
"$  c #221C22",
"%  c #211720",
"&  c #2C252B",
"*  c #292229",
"=  c #322C32",
"-  c #342C38",
";  c #3B343A",
":  c #302931",
">  c #693A16",
",  c #4D3729",
"<  c #56392A",
"1  c #483A39",
"2  c #563F35",
"3  c #452B22",
"4  c #4E2E1B",
"5  c #4B413A",
"6  c #5B4939",
"7  c #53432D",
"8  c #654537",
"9  c #765637",
"0  c #714B2E",
"q  c #3E3A42",
"w  c #433B43",
"e  c #49434B",
"r  c #484449",
"t  c #5B4C43",
"y  c #554848",
"u  c #58544D",
"i  c #4E4B55",
"p  c #4A4954",
"a  c #544E55",
"s  c #594B53",
"d  c #4B525A",
"f  c #54535B",
"g  c #5C545A",
"h  c #595859",
"j  c #664B4B",
"k  c #63534B",
"l  c #65564A",
"z  c #78584A",
"x  c #614F54",
"c  c #754C57",
"v  c #665A53",
"b  c #61545B",
"n  c #695858",
"m  c #755856",
"M  c #72624D",
"N  c #766558",
"B  c #6E6C5E",
"V  c #4E5864",
"C  c #535B63",
"Z  c #5B5B64",
"A  c #565968",
"S  c #655C62",
"D  c #675A63",
"F  c #705F60",
"G  c #5C636D",
"H  c #59646C",
"J  c #5C6671",
"K  c #5E6974",
"L  c #64646D",
"P  c #6A646B",
"I  c #6C6A6E",
"U  c #676568",
"Y  c #72646A",
"T  c #786866",
"R  c #78716A",
"E  c #636672",
"W  c #636A75",
"Q  c #6A6B74",
"!  c #646D79",
"~  c #6B6D7A",
"^  c #6B6770",
"/  c #736D72",
"(  c #766B76",
")  c #6D7277",
"_  c #65727B",
"`  c #6C737D",
"'  c #72747D",
"]  c #777476",
"[  c #8B573C",
"{  c #9C5A36",
"}  c #924C2E",
"|  c #8B623B",
" . c #9D623C",
".. c #AA6139",
"X. c #915B4A",
"o. c #8B6849",
"O. c #98684B",
"+. c #86675B",
"@. c #9A6D56",
"#. c #897658",
"$. c #987557",
"%. c #A46D4C",
"&. c #B67A48",
"*. c #A67B58",
"=. c #B87E59",
"-. c #B46F56",
";. c #845E67",
":. c #886A66",
">. c #8A7465",
",. c #987866",
"<. c #847676",
"1. c #9C7D73",
"2. c #9A6F61",
"3. c #A77968",
"4. c #A37C7D",
"5. c #C87A51",
"6. c #C77960",
"7. c #9A816A",
"8. c #93857B",
"9. c #AD816C",
"0. c #B68668",
"q. c #A88777",
"w. c #B68674",
"e. c #B89575",
"r. c #AB9476",
"t. c #C98757",
"y. c #C68665",
"u. c #C9936D",
"i. c #D7996A",
"p. c #C78C74",
"a. c #C99877",
"s. c #DB9B72",
"d. c #D49777",
"f. c #D58D6A",
"g. c #DAA47B",
"h. c #E8A56E",
"j. c #E6A879",
"k. c #F1B27E",
"l. c #6D7581",
"z. c #6E7A84",
"x. c #6B7987",
"c. c #727682",
"v. c #747B85",
"b. c #797C85",
"n. c #737D89",
"m. c #7B7E8A",
"M. c #847D85",
"N. c #74828A",
"B. c #7B838C",
"V. c #79868A",
"C. c #7C8692",
"Z. c #7B8996",
"A. c #84848B",
"S. c #89878B",
"D. c #9A8787",
"F. c #828692",
"G. c #838B94",
"H. c #8B8B95",
"J. c #848D99",
"K. c #869099",
"L. c #92949A",
"P. c #9B9081",
"I. c #A98784",
"U. c #B89585",
"Y. c #BD9D93",
"T. c #B19286",
"R. c #BAA693",
"E. c #8B96A0",
"W. c #9B9AA3",
"Q. c #B09AA4",
"!. c #9DA4A7",
"~. c #A7A8AC",
"^. c #B6A7AA",
"/. c #AEABB2",
"(. c #B4B2B5",
"). c #B7BABC",
"_. c #B4ACB1",
"`. c #C49986",
"'. c #D89A87",
"]. c #D39E91",
"[. c #C9A888",
"{. c #DAA985",
"}. c #C4A695",
"|. c #D6AA94",
" X c #D4B497",
".X c #DBB18A",
"XX c #E4AB83",
"oX c #E6A787",
"OX c #EAB486",
"+X c #FAB686",
"@X c #E4AE96",
"#X c #F8BA91",
"$X c #EAB592",
"%X c #C6B5A9",
"&X c #D8B6AB",
"*X c #C6ADA1",
"=X c #F7BEA5",
"-X c #B8C2BC",
";X c #F6C597",
":X c #D9D2B9",
">X c #F6C5A9",
",X c #BDB9C1",
"<X c #C4B9C5",
"1X c #C4C7C8",
"2X c #D9CBC6",
"3X c #CFCED3",
"4X c #D7D3D9",
"5X c #D4D2D3",
"6X c #EBD6D2",
"7X c #F2DCD9",
"8X c #E6CECD",
"9X c #DEE8D8",
"0X c #ECE2D4",
"qX c #DEDEE3",
"wX c #DBD6E0",
"eX c #E5DEEB",
"rX c #E6E9ED",
"tX c #E8E7EA",
"yX c #F7E9E7",
"uX c #EDEDF2",
"iX c #EEF2F3",
"pX c #F7F9FA",
"aX c #F0EFF7",
"sX c #ADD8E6",
/* pixels */
"sXsXsXsXsXsXsXsXsXsXsXsXsXsXsXsXsXsXsXsXsXsXsXsXsXsXsXsXsXsXsXsXsXsXsXsXsXsXsXsXsXsXsXsXsXsXsXsXsXsXsXsXsXsXsXsXsXsXsXsXsXsXsXsX",
"sXsXsXsXsXsXsXsXsXsXsXsXsXsXsXsXsXsXsXsXsXsXsXsXsXsXsXsXsXsXsXsXsXsXsXsXsXsXsXsXsXsXsXsXsXsXsXsXsXsXsXsXsXsXsXsXsXsXsXsXsXsXsXsX",
"sXsXsXsXsXsXsXsXsXsXsXsXsXsXsXsXsXsXsXsXsXsXsXsXsXsXsXsXsXsXsXsXsXsXsXsXsXsXsXsXsXsXsXsXsXsXsXsXsXsXsXsXsXsXsXsXsXsXsXsXsXsXsXsX",
"sXsXsXsXsXsXsXsXsXsXsXsXsXsXsXsXsXsXsXsXsXsXsXsXsXsXsXsXsXsXsXsXsXsXsXsXsXsXsXsXsXsXsXsXsXsXsXsXsXsXsXsXsXsXsXsXsXsXsXsXsXsXsXsX",
"sXsXsXsXsXsXsXsXsXsXsXsXsXsXsXsXsXsXsXsXsXsXsXsXsXsXsXsXsXsXsXsXsXc.F.H.b.^ sXsXsXsXsXsXsXsXsXsXsXsXsXsXsXsXsXsXsXsXsXsXsXsXsXsX",
"sXsXsXsXsXsXsXsXsXsXsXsXsXsXsXsXsXsXsXsXsXsXsXsXsXsXsXsXsXsXE F.E.W.H.M.' ( sXsXsXsXsXsXsXsXsXsXsXsXsXsXsXsXsXsXsXsXsXsXsXsXsXsX",
"sXsXsXsXsXsXsXsXsXsXsXsXsXsXsXsXsXsXsXsXsXsXsXsXsXsXsXsXP / ~ H.M.D Z ^ C f f sXsXsXsXsXsXsXsXsXsXsXsXsXsXsXsXsXsXsXsXsXsXsXsXsX",
"sXsXsXsXsXsXsXsXsXsXsXsXsXsXsXsXsXsXsXsXsXsXsXsXsXsXsXsXD S q r q - p i w p f r sXsXsXsXsXsXsXsXsXsXsXsXsXsXsXsXsXsXsXsXsXsXsXsX",
"sXsXsXsXsXsXsXsXsXsXsXsXsXsXsXsXsXsXsXsXsXsXsXsXsXsXsXy 1 1 # = w 1 a r i g ; a a sXsXsXsXsXsXsXsXsXsXsXsXsXsXsXsXsXsXsXsXsXsXsX",
"sXsXsXsXsXsXsXsXsXsXsXsXsXsXsXsXsXsXsXsXsXsXsXsX( M.<.s s 5 t 1 y s v n x U U b I ] sXsXsXsXsXsXsXsXsXsXsXsXsXsXsXsXsXsXsXsXsXsX",
"sXsXsXsXsXsXsXsXsXsXsXsXsXsXsXsXsXsXsXsXsXsXsXsXn x c j z < 9 z q.7.#.N N 8.<.S <.sXsXsXsXsXsXsXsXsXsXsXsXsXsXsXsXsXsXsXsXsXsXsX",
"sXsXsXsXsXsXsXsXsXsXsXsXsXsXsXsXsXsXsXsXsXsXsXsXsXsXsX2.@.O.> {.{.[.e.#.}.}.T m sXsXsXsXsXsXsXsXsXsXsXsXsXsXsXsXsXsXsXsXsXsXsXsX",
"sXsXsXsXsXsXsXsXsXsXsXsXsXsXsXsXsXsXsXsXsXsXsXsXsXsXsXw.w.=. .g.j.g.;X7.a. X>.D.sXsXsXsXsXsXsXsXsXsXsXsXsXsXsXsXsXsXsXsXsXsXsXsX",
"sXsXsXsXsXsXsXsXsXsXsXsXsXsXsXsXsXsXsXsXsXsXsXsXsXsXsX+.9.0.j.i.;X;XOXj.e..X$.T.sXsXsXsXsXsXsXsXsXsXsXsXsXsXsXsXsXsXsXsXsXsXsXsX",
"sXsXsXsXsXsXsXsXsXsXsXsXsXsXsXsXsXsXsXsXsXsX/ / n T I.&Xq.%.g.XXh.j.&.i.OXg.a.q.sXsXsXsXsXsXsXsXsXsXsXsXsXsXsXsXsXsXsXsXsXsXsXsX",
"sXsXsXsXsXsXsXsXsXsXsXsXsXsXsXsXsXsX(.1X3X1X<XM.( T ( 6X&X$.a.s.g.k.i...t.e.e.r.%XsXsXsXsXsXsXsXsXsXsXsXsXsXsXsXsXsXsXsXsXsXsXsX",
"sXsXsXsXsXsXsXsXsXsXsXsXsXsXsXsX/.4XuXtXuXpX3XwXK.B I ] 0X}.$.*.d.@X#X#XoX{.9.:.%XsXsXsXsXsXsXsXsXsXsXsXsXsXsXsXsXsXsXsXsXsXsXsX",
"sXsXsXsXsXsXsXsXsXsXsXsXsXsXsXsX,XaXuXrXrXaXiX~.5X8.U U P.0X:X7.3.6.'.=X|.[.>.:.(.(.sXsXsXsXsXsXsXsXsXsXsXsXsXsXsXsXsXsXsXsXsXsX",
"sXsXsXsXsXsXsXsXsXsXsXsXsXsXsX/.4XuXrXrXrXiXpX(.5XK.) ) f (.yX7X}.U.3.3.Y.}.m ( S.qX(.sXsXsXsXsXsXsXsXsXsXsXsXsXsXsXsXsXsXsXsXsX",
"sXsXsXsXsXsXsXsXsXsXsXsXsXsXsX<XrXuXrXuXrXiXpX1X1X~.v.H ` G 0XiX7XM.2.M.8X7XD ^ L.qX~.sXsXsXsXsXsXsXsXsXsXsXsXsXsXsXsXsXsXsXsXsX",
"sXsXsXsXsXsXsXsXsXsXsXsXsXsXsX<XtXiXiXrXiXpXpX1X1X!.G H A E M.4X*Xc c ;.*XQ.b ~ H.qX(.sXsXsXsXsXsXsXsXsXsXsXsXsXsXsXsXsXsXsXsXsX",
"sXsXsXsXsXsXsXsXsXsXsXsXsXsXsX_.,X/.(.-X-X-X,XW.4X) r 5 i i g ( Q.;.c c M.1 w f S./.M.Y <.] sXsXsXsXsXsXsXsXsXsXD M.sXsXsXsXsXsX",
"sXsXsXsXsXsXsXsXsXsXsXsXsXsXsXQ.3XqX9X9X9XtX4X<X/.5 5 y n b g F c c c c T T Y D g ] v 1 j l t x N y s F Y Y D ( w ( P s sXsXsXsX",
"sXsXsXsXsXsXsXsXsXsXsXsXsXsXD.Q.2X2X0X:X:X0X8X2X8.7 7 , < , , 3 < , 8 3 2 1 t r 6 t 8 3 < 4 < 8 2 2 1 n sXsXsXD s P sXsXsXsXsXsX",
"sXsXsXsXsXsXsXsXsXsXsXsXsXsXq.U.`.q.Y.e.e.e.e.3.o.o.9 o.o.0 @.$.8 8 7 6 6 u B l 8 T.3.9 [ O.} @.q.q.1.sXsXsXsXsXsXsXsXsXsXsXsXsX",
"sXsXsXsXsXsXsXsXsXsXsXsXsXsX@.3.d.oX{.i.XXOX+XoX=.*.| | | y.g.a.0.$.#.>.M 6 >.M 8 |.a.%.6.f.{ 6.@X>XY.sXsXsXsXsXsXsXsXsXsXsXsXsX",
"sXsXsXsXsXsXsXsXsXsXsXsXsXo.%.5.i.j.h.h.+X+X+X#X;X.X> 9 9 s.f.OXg.{. X XM 7 #.6 z a.{.f.5.5...6.oX`.q.sXsXsXsXsXsXsXsXsXsXsXsXsX",
"sXsXsXsXsXsXsXsXsXsXsXsXsX| t.&.t.h.h.h.+X+X#X;X$X7.r.R.|...h.s.j.f.@X@.z l 8.N z `.@Xd.5.} 6.'.p.3.sXsXsXsXsXsXsXsXsXsXsXsXsXsX",
"sXsXsXsXsXsXsXsXsXsXsXsXsXO.0.t.5.&.t.i.s.XXg..X X7.7.P.r.o.j.oX'.'.].X.R.j D.T j ,.*.-.X.X.w.].Y.sXsXsXsXsXsXsXsXsXsXsXsXsXsXsX",
"sXsXsXsXsXsXsXsXsXsXsXsXsX$.=.u.i.t.} O.e.0.e.e.r.8.5 l 2 U.`.|.p.@X4.8 sXn U h y sXsXsXsXsXX.sXsXsXsXsXsXsXsXsXsXsXsXsXsXsXsXsX",
"sXsXsXsXsXsXsXsXsXsXsXsXsX1.w.0.%.[ sXz +.,.Y.%XR.8.u u N N #.>.:.:.j sXsXs b e sXsXsXsXsXsXsXsXsXsXsXsXsXsXsXsXsXsXsXsXsXsXsXsX",
"sXsXsXsXsXsXsXsXsXsXsXsXsXsX:.z sXsXsX1 n v v B h d B d T u R R k m j x sXsXsXsXsXsXsXsXsXsXsXsXsXsXsXsXsXsXsXsXsXsXsXsXsXsXsXsX",
"sXsXsXsXsXsXsXsXsXsXsXsXsXsXsXsXsXsXsXZ Z C h H d H E f H L d A i P i w sXsXsXsXsXsXsXsXsXsXsXsXsXsXsXsXsXsXsXsXsXsXsXsXsXsXsXsX",
"sXsXsXsXsXsXsXsXsXsXsXsXsXsXsXsXsXsXsX~ ~ W K _ G ! G J d H E V A G L E D sXsXsXsXsXsXsXsXsXsXsXsXsXsXsXsXsXsXsXsXsXsXsXsXsXsXsX",
"sXsXsXsXsXsXsXsXsXsXsXsXsXsXsXsXsXsXsXG ~ ` _ K ! _ J _ d H l.V l.v.m.m.A sXsXsXsXsXsXsXsXsXsXsXsXsXsXsXsXsXsXsXsXsXsXsXsXsXsXsX",
"sXsXsXsXsXsXsXsXsXsXsXsXsXsXsXsXsXsXsX! ~ n.N.N.` N._ l.C _ l.V B.! l.~ C p sXsXsXsXsXsXsXsXsXsXsXsXsXsXsXsXsXsXsXsXsXsXsXsXsXsX",
"sXsXsXsXsXsXsXsXsXsXsXsXsXsXsXsXsXsXsXc.` l.x.N._ N.N.K A K H K V x.J x.C.x.H sXsXsXsXsXsXsXsXsXsXsXsXsXsXsXsXsXsXsXsXsXsXsXsXsX",
"sXsXsXsXsXsXsXsXsX& sXsXsXsXsXsXsXsXsX~ ` n.N.N._ _ N.H A J V K x.l.Z.N.Z.N.n.` ~ sXsXsXsXsXsXsXsXsXsXsXsXsXsXsXsXsXsXsXsXsXsXsX",
"sXsXsXsXsXsXsXX   o X sXsXsXsXsXsXsXA ~ z.v.B.B.F.J.x.A V A H K x.Z.l.Z.Z.N.Z.G.B.Q Q sXsXsXsXsXsXsXsXsXsXsXsXsXsXsXsXsXsXsXsXsX",
"sXsXsXsXsXsX$   X o sXsXsXsXZ ) ~ A G E E K.N.B.v.F.J.W sXsX) v.J x.Z.x.Z.E.Z.Z.m.J.c.L sXsXsXsXsXsXsXsXsXsXsXsXsXsXsXsXsXsXsXsX",
"sXsXsXsXo . X % sXsXsXf p f v.' Z A E H z.V.V.G.A.N.G.E sXsXsXsX! ! ! B.C.C.m.m.Z.F.m.c.' sXsXsXsXsXsXsXsXsXsXsXsXsXsXsXsXsXsXsX",
"sXsXsXO   $ ; w sXsX= - i m.K.v.J J J _ V.N.V.N.G.B.' ) sXsXsXsXsX~ ~ ! ! v.J.J.F.Z.l.A Z L sXsXsXsXsXsXsXsXsXsXsXsXsXsXsXsXsXsX",
"sXo o o $ : : sXsXa q = Z H.E.W H B.` K v.C.K.G.B.N.' Q sXsXsXsXsXsXsXc.` ~ c.W ` l.H H ` L sXsXsXsXsXsXsXsXsXsXsXsXsXsXsXsXsXsX",
"sXsXo O q sXsXsXsXsXsXr ( L.E.` J G.z.l.! ' ' V.F.A.L sXsXsXsXsXsXsXsXsXsXL c.G ! H ! B.c.E sXsXsXsXsXsXsXsXsXsXsXsXsXsXsXsXsXsX",
"sXsXsXsXsXsXsXsXsXsXsXsXA.~.K.J G m.F.C.B.c.~ ~ ^ ' L sXsXsXsXsXsXsXsXsXsXE ~ E ! z.v.C.C.W L sXsXsXsXsXsXsXsXsXsXsXsXsXsXsXsXsX",
"sXsXsXsXsXsXsXsXsXsXsXsXsXsXsX' L Q ' A.b.~ b.' ' sXsXsXsXsXsXsXsXsXsXsXsXsX~ b.` W K.C.m.v.L sXsXsXsXsXsXsXsXsXsXsXsXsXsXsXsXsX",
"sXsXsXsXsXsXsXsXsXsXsXsXsXsXsXsXsXsXsXsXsXsXsXsXsXsXsXsXsXsXsXsXsXsXsXsXsXsX~ ` ` ` C.J.F.B.L H sXsXsXsXsXsXsXsXsXsXsXsXsXsXsXsX",
"sXsXsXsXsXsXsXsXsXsXsXsXsXsXsXsXsXsXsXsXsXsXsXsXsXsXsXsXsXsXsXsXsXsXsXsXsXsXsX~ Q ' m.v.C.B.' L i sXsXsXsXsXsXsXsXsXsXsXsXsXsXsX",
"sXsXsXsXsXsXsXsXsXsXsXsXsXsXsXsXsXsXsXsXsXsXsXsXsXsXsXsXsXsXsXsXsXsXsXsXsXsXsX/ ` E c.H.b.' L ) Q sXsXsXsXsXsXsXsXsXsXsXsXsXsXsX",
"sXsXsXsXsXsXsXsXsXsXsXsXsXsXsXsXsXsXsXsXsXsXsXsXsXsXsXsXsXsXsXsXsXsXsXsXsXsXsXb.' ^ ' c.L Z ) L.S.I sXsXsXsXsXsXsXsXsXsXsXsXsXsX",
"sXsXsXsXsXsXsXsXsXsXsXsXsXsXsXsXsXsXsXsXsXsXsXsXsXsXsXsXsXsXsXsXsXsXsXsXsXsXsXsX^ ^ Z Z L S.W.A.I sXsXsXsXsXsXsXsXsXsXsXsXsXsXsX",
"sXsXsXsXsXsXsXsXsXsXsXsXsXsXsXsXsXsXsXsXsXsXsXsXsXsXsXsXsXsXsXsXsXsXsXsXsXsXsXsXI L L ' S.H.U S f = r ; sXsXsXsXsXsXsXsXsXsXsXsX",
"sXsXsXsXsXsXsXsXsXsXsXsXsXsXsXsXsXsXsXsXsXsXsXsXsXsXsXsXsXsXsXsXsXsXsXsXsXsXsXsXsX^ / L ~ / sXsX; ; : & $ * sXsXsXsXsXsXsXsXsXsX",
"sXsXsXsXsXsXsXsXsXsXsXsXsXsXsXsXsXsXsXsXsXsXsXsXsXsXsXsXsXsXsXsXsXsXsXsXsXsXsXsXsXsXP f sXsXsX& & = .   o sXsXsXsXsXsXsXsXsXsXsX",
"sXsXsXsXsXsXsXsXsXsXsXsXsXsXsXsXsXsXsXsXsXsXsXsXsXsXsXsXsXsXsXsXsXsXsXsXsXsXsXsXsXsXsX; sX: *   . X   sXsXsXsXsXsXsXsXsXsXsXsXsX",
"sXsXsXsXsXsXsXsXsXsXsXsXsXsXsXsXsXsXsXsXsXsXsXsXsXsXsXsXsXsXsXsXsXsXsXsXsXsXsXsXsXsXsX: * o . . sXsXsXsXsXsXsXsXsXsXsXsXsXsXsXsX",
"sXsXsXsXsXsXsXsXsXsXsXsXsXsXsXsXsXsXsXsXsXsXsXsXsXsXsXsXsXsXsXsXsXsXsXsXsXsXsXsXsXsXsXsX. . + sXsXsXsXsXsXsXsXsXsXsXsXsXsXsXsXsX",
"sXsXsXsXsXsXsXsXsXsXsXsXsXsXsXsXsXsXsXsXsXsXsXsXsXsXsXsXsXsXsXsXsXsXsXsXsXsXsXsXsXsXsXsXsXsXsXsXsXsXsXsXsXsXsXsXsXsXsXsXsXsXsXsX",
"sXsXsXsXsXsXsXsXsXsXsXsXsXsXsXsXsXsXsXsXsXsXsXsXsXsXsXsXsXsXsXsXsXsXsXsXsXsXsXsXsXsXsXsXsXsXsXsXsXsXsXsXsXsXsXsXsXsXsXsXsXsXsXsX",
"sXsXsXsXsXsXsXsXsXsXsXsXsXsXsXsXsXsXsXsXsXsXsXsXsXsXsXsXsXsXsXsXsXsXsXsXsXsXsXsXsXsXsXsXsXsXsXsXsXsXsXsXsXsXsXsXsXsXsXsXsXsXsXsX",
"sXsXsXsXsXsXsXsXsXsXsXsXsXsXsXsXsXsXsXsXsXsXsXsXsXsXsXsXsXsXsXsXsXsXsXsXsXsXsXsXsXsXsXsXsXsXsXsXsXsXsXsXsXsXsXsXsXsXsXsXsXsXsXsX",
"sXsXsXsXsXsXsXsXsXsXsXsXsXsXsXsXsXsXsXsXsXsXsXsXsXsXsXsXsXsXsXsXsXsXsXsXsXsXsXsXsXsXsXsXsXsXsXsXsXsXsXsXsXsXsXsXsXsXsXsXsXsXsXsX",
"sXsXsXsXsXsXsXsXsXsXsXsXsXsXsXsXsXsXsXsXsXsXsXsXsXsXsXsXsXsXsXsXsXsXsXsXsXsXsXsXsXsXsXsXsXsXsXsXsXsXsXsXsXsXsXsXsXsXsXsXsXsXsXsX",
"sXsXsXsXsXsXsXsXsXsXsXsXsXsXsXsXsXsXsXsXsXsXsXsXsXsXsXsXsXsXsXsXsXsXsXsXsXsXsXsXsXsXsXsXsXsXsXsXsXsXsXsXsXsXsXsXsXsXsXsXsXsXsXsX"
};
