/* XPM */
static char *_4e9b0a86aa74195edfc1aaf5b5e1e4cZDMK4mnjweDCuQ4Z[] = {
/* columns rows colors chars-per-pixel */
"64 64 230 2 ",
"   c None",
".  c #27271A",
"X  c #1D1722",
"o  c #1E2F2D",
"O  c #282B29",
"+  c #342A2B",
"@  c #283329",
"#  c #343127",
"$  c #2C2C32",
"%  c #332C34",
"&  c #392C37",
"*  c #2C3234",
"=  c #2D383A",
"-  c #33353B",
";  c #393639",
":  c #462E3B",
">  c #473737",
",  c #692D2A",
"<  c #6C3637",
"1  c #793335",
"2  c #71413B",
"3  c #3A3A41",
"4  c #3D3D43",
"5  c #413E44",
"6  c #7F3E44",
"7  c #3E4144",
"8  c #3A4749",
"9  c #424246",
"0  c #565255",
"q  c #794845",
"w  c #7D5B58",
"e  c #585963",
"r  c #5D5C64",
"t  c #625D67",
"y  c #695B72",
"u  c #5C6266",
"i  c #636268",
"p  c #686B74",
"a  c #776E72",
"s  c #8B3135",
"d  c #9A3C45",
"f  c #834A48",
"g  c #994649",
"h  c #8C514C",
"j  c #954E55",
"k  c #875A58",
"l  c #985857",
"z  c #A65758",
"x  c #B35A5E",
"c  c #88655B",
"v  c #96655D",
"b  c #AE655E",
"n  c #995E60",
"m  c #AD5D62",
"M  c #8D6766",
"N  c #996A66",
"B  c #9C726A",
"V  c #997672",
"C  c #A86966",
"Z  c #A36D6A",
"A  c #B86969",
"S  c #A6736E",
"D  c #B6716D",
"F  c #A16D71",
"G  c #A57872",
"H  c #AB7A75",
"J  c #AE7D7B",
"K  c #B87774",
"L  c #C25F64",
"P  c #C26A6E",
"I  c #C96E72",
"U  c #C6797B",
"Y  c #D8777C",
"T  c #9F827E",
"R  c #AC847C",
"E  c #B3837B",
"W  c #BC817B",
"Q  c #A5907F",
"!  c #C2837D",
"~  c #7E6F84",
"^  c #867B89",
"/  c #B37E81",
"(  c #CE7E83",
")  c #998787",
"_  c #97978D",
"`  c #978D96",
"'  c #8C9292",
"]  c #999798",
"[  c #939A9B",
"{  c #AD8D8B",
"}  c #B58886",
"|  c #BC8B84",
" . c #BA968C",
".. c #A49699",
"X. c #B89996",
"o. c #9CA19B",
"O. c #A1A29E",
"+. c #BCA298",
"@. c #9D9CA1",
"#. c #A79DA5",
"$. c #B39FA8",
"%. c #9BA7A3",
"&. c #A3A3A4",
"*. c #AAA7A9",
"=. c #B3ACAD",
"-. c #B8B8B5",
";. c #BDBDBA",
":. c #C78887",
">. c #D38985",
",. c #C7938C",
"<. c #D6958E",
"1. c #CA8C91",
"2. c #D78B93",
"3. c #C59592",
"4. c #CA9B97",
"5. c #D49491",
"6. c #D89996",
"7. c #D69C9F",
"8. c #E58C8E",
"9. c #E49799",
"0. c #C6A39A",
"q. c #DBA29B",
"w. c #CAA8A2",
"e. c #D9A9A6",
"r. c #CCB5AC",
"t. c #D7B3AA",
"y. c #CAAFB6",
"u. c #C3B8B9",
"i. c #D8B9B5",
"p. c #E8A7A6",
"a. c #E5B2AA",
"s. c #EDB3AF",
"d. c #E8BAB5",
"f. c #FAB9B8",
"g. c #BEC2BB",
"h. c #B9C8BB",
"j. c #CBC0AE",
"k. c #C2C3BD",
"l. c #C9C4BE",
"z. c #C4CABE",
"x. c #DAC4BB",
"c. c #E7C4BB",
"v. c #FBC4BC",
"b. c #BBBDC1",
"n. c #C3B9C2",
"m. c #BDC4C3",
"M. c #BDCCC4",
"N. c #C4C5C2",
"B. c #CAC6C5",
"V. c #C5CAC3",
"C. c #CACBC5",
"Z. c #CAC5C9",
"A. c #C4CDC9",
"S. c #CDCECA",
"D. c #D9CCC6",
"F. c #D2CDCC",
"G. c #CCD1C6",
"H. c #CDD1CB",
"J. c #C9D5C9",
"K. c #DDD6C5",
"L. c #D2D3CD",
"P. c #DAD3CC",
"I. c #D4DACD",
"U. c #DCDBCC",
"Y. c #D1CFD0",
"T. c #CDD6D2",
"R. c #D4D5D1",
"E. c #DBD6D4",
"W. c #D6DAD3",
"Q. c #DBDBD5",
"!. c #D9D6D9",
"~. c #D5DBDA",
"^. c #DCDDDA",
"/. c #E3CBC5",
"(. c #ECCAC5",
"). c #F9C8C5",
"_. c #FFCCCA",
"`. c #ECD1C4",
"'. c #E3D3CB",
"]. c #EAD4CE",
"[. c #E2DACD",
"{. c #EADACE",
"}. c #F7D6CB",
"|. c #FCD3CD",
" X c #EECAD4",
".X c #FCCFD0",
"XX c #E2D6D4",
"oX c #ECD5D4",
"OX c #E3DCD4",
"+X c #EADCD4",
"@X c #E2DCDB",
"#X c #EBDCDB",
"$X c #FFD3D2",
"%X c #FEDBD5",
"&X c #F4D9D8",
"*X c #FEDDDC",
"=X c #D4E1D5",
"-X c #DCE1D5",
";X c #D6E2DB",
":X c #DDE1DB",
">X c #E7E0CE",
",X c #E3E3D5",
"<X c #EBE5D7",
"1X c #E2E2DC",
"2X c #EDE3DB",
"3X c #E4EADC",
"4X c #F7E7D8",
"5X c #F4E3DC",
"6X c #FFE4DC",
"7X c #DDDDE1",
"8X c #E3DEE2",
"9X c #E9DEE2",
"0X c #F4DEE1",
"qX c #DEE3E1",
"wX c #DAE7E4",
"eX c #E3E4E4",
"rX c #EBE4E3",
"tX c #E6EAE6",
"yX c #EBEBE5",
"uX c #E5E5E9",
"iX c #ECECEA",
"pX c #FDE4E2",
"aX c #F9E9E6",
"sX c #F3EAEB",
"dX c #E8F3E8",
"fX c #F4F2EB",
"gX c #F8EDF5",
"hX c #EEF6F6",
"jX c #F4F3F2",
"kX c #FAF5F5",
/* pixels */
"                ]   % O @ . # # # # O ; * - * * $ 3 o o = 3 3 3 $ 5 % & ; # : & & + 5                                           ",
"                ) $ o.o._ _ _ Q _ _ ' ' ' ` @.' ' [ ' [ ' [ [ [ ` ....` ' ] _ { ..` ` ` ^ y -                                   ",
"                ` 5 eXdXdXdX4XaX3X3X3XfXyXrXsXsXiXiXwXgXuXsXgXgXgXsXsXsXfXfXaXgXpXgXgXgXn.*.X ~                                 ",
"                ^ ; ~.~.;XW.>XoX,X,XOX{.+X#XoX X0XXX@X8X8X9X0XoX#X#XrXXX+X5X5X&X*X$XaX0Xn.=.$ b.hX                              ",
"                p - !.7X1XXXw.J c.4Xe.S *X$XJ / a.X.*XX.d.4.%X6X0.i.} 1.d.3.%Xd.4./ / 4. XM X *.wXhX                            ",
"                t 3 7X8X+X/.j N S q.E h e.4.f S p.f *XF 7.< 4.G q 1.j / p.j s.1.3.M 2 e./ y $ =.dXT.7X                          ",
"                e 4 7XXX+X XZ $XC E ! c.c R 0.6X).k .XJ ( m , 2 D } K )._.s g N /.(.N 0XM X.5 #.jX~.sXuX                        ",
"                e 5 7X@XoX%XZ f.H K Z c.v B 3.|._.q $XF 2.j v.0.l ( d 1.f.z C , c.`.M pXk X.> a eXjX^.uXjX                      ",
"                r 4 7X1XE.%XN ).H E B ).N J 4.$Xd.q 6XZ 9.l 4Xt.v <.q.|.f.g f.h a.c.c 4XM w.) : # ; 9 9 0 o                     ",
"                e 9 eXW.2X'.w J B  .J J 3.4.N Z 4.G N H 9.h }.w.z W h D <.f _.N t.c.w %X4.M w 0 i a i u u p 8                   ",
"                r 5 eXE.OX'.X.G w.aXt.G }.aX} V aXd.N t.%X,.4X4X,.v.H v c.,.%X .`.}. .}.pX ./ X.r.=.*.*.&.@.a #                 ",
"                0 5 @X1X@X'..X(.`.%X(.*X*X`.6X$X).s.v._.f.d.x.c.v.a.c.|.d.|.v.*Xx.r.}.c.}..Xi.(.+.#.-.-.[ =.a #                 ",
"                t ; ^.rXQ.]./ d / f.j n s.C .XA ( l h :.A z 2 e.! s v W C f.C s.v 2 v.k _.,.f ).{ X.kXR.;.H._ .                 ",
"                t > 8X^.P.i.l )..XN f.( ( j m I ( A .Xp.P x s.D P ! |.a.1 ( ( z | 6Xd.c 4.D f.z 1.{ aXE.A.dX_ #                 ",
"                t - ~.:X3XD.M $X.XM f.K D x d d 8.s ,.q.x L f.z 8.s K v.d s P U 1.aX$XZ <.z ( d 2./ 0XE.dXdX_ #                 ",
"                r 9 ~.eX1Xu.V $X$XN f.>.U P 8.s Y A %Xq.P I v.g Y L v.p.P Y x A 6.pX|.v <.f g g ( 1.pX'.-XdX_ .                 ",
"                t 3 7X@X9Xi.V 4.6.H 1.C K A v.l ! ! 6Xa.z z P A I I f.q.I v.A D K <.W S ,.E |.b ( S f.(.].<X&.o                 ",
"                e 4 8X8XD.0Xy.2 H _.d N f.Z |.N 0.T aXd.R h 1 f.2., s 4.H v.N _.C 2 a.G } R |.B } < q w.#XfXo.=                 ",
"                e 8 T.wX:XU.#X/.i.*Xi.d.6X].&X'.{.[.>X'.'./.c.$X.X]./.oX/.+XoX$X`.c.pX&XK.{.'.x.{.x./.{.P.tX%.@                 ",
"                e 8 wXT.-XW.,XOX[.#X+X0X#X#XOXOX,XU.:X1XOX2XsXaX#X#X@X@XsX2XrX'.&X5XP.5XW.,XL.3XyX,X<XQ.-X3X%.o                 ",
"                u = tX;X=XW.I.I.P.XXE.@X^.7X^.R.~.uX!.E.^.7X7X!.7X~.7X^.XX9X!.9X9XXXeXR.~.I.=XW.G.-X,X3XW.tX&..                 ",
"                e 7 qXW.:XW.z.g.;.;.B.N.b.N.m.m.m.m.N.b.N.N.m.M.M.M.m.b.Y.u.Z.u.u.B.;.;.m.h.h.h.h.h.z.3XU.iX&.;                 ",
"                  ; @X1X:XP.Q.U.W.eX!.!.uX7X!.~.~.qX1X^.W.:XwX;X;X;X:X^.!.@X@X1XyXuX!.eX^.R.;X=XI.I.-X-XQ.aX*.+                 ",
"                  ; rXQ.@X^.z.l.N.;.N.N.n.N.N.m.V.h.k.;.B.M.M.m.M.h.V.k.B.n.C.g.;.Z.n.;.V.k.h.h.h.h.I.-XE.rX$.%                 ",
"                  5 8X^.1X^.I.G.W.W.=X~.^.~.^.W.=X;X-XW.Q.,X:X=X=XI.=XW.,X^.-X=X~.:XQ.~.^.E.Q.Q.W.=X-X;X;XfX*.%                 ",
"                  5 eX^.1XL.l.-.z.z.z.V.V.A.V.k.M.V.z.l.B.B.C.z.J.J.G.z.S.V.z.h.M.V.z.V.B.k.l.V.h.V.I.;X;XdX&.*                 ",
"                  4 7X^.1X1X-XI.W.=X=XW.^.,XQ.W.:X:X:XOXoX#X@XOXQ.Q.Q.E.1X@X^.:X=X-XW.^.^.P.Q.Q.W.U.;X:X;X;X[ *                 ",
"                  4 eXqX1XU.z.l.z.z.z.V.z.C.z.l.V.B.B.B.B.Z.F.B.F.B.B.B.S.B.A.N.G.z.z.C.C.l.B.B.k.z.H.-XQ.;X[ *                 ",
"                  7 eX@XrXOXI.C.I.L.L.L.I.R.L.L.H.R.R.Y.Y.!.E.!.!.E.~.T.~.~.R.Y.Q.^.R.!.E.P.Q.Q.C.P.Q.1X:XeX[ *                 ",
"                  9 8X^.OXE.K.D.C.C.J.G.S.S.S.B.Y.S.S.S.S.F.L.F.N.A.J.M.T.A.S.F.F.F.Y.Y.F.Z.S.L.S.P.P.W.W.tXO.                  ",
"                  7 uXeXrXOXP.C.G.V.J.A.A.A.J.A.F.L.F.J.H.J.S.S.H.J.J.M.J.J.J.S.F.Z.Z.A.A.M.A.A.V.G.^.2X1X3Xo.                  ",
"                u 8 eX^.1XQ.L.S.L.I.T.T.T.~.R.Y.F.F.L.H.R.~.W.L.R.H.T.J.~.T.L.R.F.Y.Y.Y.T.A.A.H.H.S.Q.1XQ.1X&.                  ",
"                r 4 uXqX-X:XC.z.z.V.N.N.V.S.Z.A.S.S.S.S.S.S.B.B.V.C.V.V.V.B.A.B.S.B.N.V.B.V.V.V.S.S.L.1X1XfX]                   ",
"                u 4 uXeX:X1XL.L.W.L.W.I.~.~.Q.Q.Q.Q.Q.Q.W.Q.W.Q.^.~.Q.Q.~.Q.Q.Q.^.^.R.U.W.L.R.Q.Q.I.^.3X^.W.                    ",
"                r 9 uXqXR.R.l.z.-.g.;.;.;.g.k.g.k.;.g.k.g.k.k.k.k.k.k.k.k.k.k.k.l.k.-.k.k.;.k.;.l.k.H.1XL.L.                    ",
"                t 4 uX7XQ.Q.L.L.^.-X^.^.~.:X1X:X^.^.^.^.^.^.:X^.^.^.^.:X@X:X^.^.:X1XW.1X-XW.^.^.L.L.^.tX1XyX                    ",
"                y 8 uX7X~.3X1X3X^.:X^.^.7XeX:X^.-X:X@X:X^.1X1X1X1X:X1X@X1X1X1X1X1X3X^.1X,X^.1X,X1X^.:XOXW.iX                    ",
"                u 4 qX7XQ.^.G.L.I.L.W.L.R.R.Q.R.Q.E.W.Q.Q.W.W.Q.Q.Q.Q.W.R.E.W.Q.Q.^.L.R.L.L.R.R.R.L.Q.:XQ.iX                    ",
"                r 3 uXqX1X-XC.C.k.z.k.k.V.N.V.V.V.V.V.B.V.B.V.V.B.V.V.l.V.V.k.V.B.B.l.V.k.;.k.k.l.k.L.1XQ.tX                    ",
"                i 4 uX7X:X-XG.L.H.H.S.H.S.H.S.H.F.L.L.H.H.F.F.L.S.L.H.H.F.L.L.L.W.L.S.L.B.k.V.V.C.C.W.^.Q.yX                    ",
"                u 4 eXeXQ.W.G.I.H.G.H.S.S.H.L.H.F.H.H.L.H.L.L.L.H.L.H.H.L.H.H.H.L.H.S.H.L.S.L.L.L.L.Q.1X^.yX                    ",
"                r 4 eXeXW.-Xz.k.C.S.S.V.A.S.S.Z.S.S.S.S.C.C.B.B.B.B.S.C.S.B.S.S.S.S.V.B.B.A.S.S.C.V.L.1XQ.yX                    ",
"                i 7 qXeXI.3XL.U.I.L.L.L.L.~.R.R.L.L.R.R.R.L.L.L.R.E.R.R.L.W.L.R.W.R.L.L.R.L.L.W.^.R.^.yXQ.yX                    ",
"                u 3 7XtXL.Q.z.G.k.g.k.g.u.N.h.k.k.k.l.k.V.k.V.V.k.k.V.k.l.k.k.k.V.N.g.l.k.g.l.k.k.g.S.Q.Q.dX                    ",
"                u ; eX1X^.W.G.z.I.I.L.L.R.W.W.!.W.E.R.W.R.Q.Q.Q.L.R.W.I.R.Q.Q.Q.Q.Q.L.Q.W.R.L.Q.L.L.^.3X1XeX                    ",
"                u 7 iXW.Q.Q.K.G.C.C.B.S.S.Y.L.H.S.S.L.S.S.L.S.S.S.H.F.S.S.S.S.S.L.S.B.S.S.V.S.S.B.V.L.:XQ.L.                    ",
"                  9 eXW.1X,XG.C.G.G.H.S.Y.T.R.R.L.L.L.L.L.L.H.F.L.L.L.R.L.L.S.L.L.L.S.L.L.S.H.H.H.S.^.rX^.1X                    ",
"                  * -.;.W.,Xz.G.z.C.A.A.A.S.S.J.V.S.S.S.S.S.S.H.S.S.Z.S.S.S.S.F.L.S.B.S.S.B.S.S.S.H.:X:XQ.jX&.*                 ",
"                  % ..-.Q.:XI.,XG.J.-X;XdXwXwX=X:XW.:X:X:XW.^.^.~.:X^.Q.@X8X!.8XR.R.R.Y.^.Z.~.J.;X=XQ.:X~.dX%.o                 ",
"                  ; Z.L.:X1XL.L.J.-X-Xz.h.T.;X;XW.L.:X:X1XQ.:XQ.^.1X@X^.Q.^.XX^.^.R.E.^.F.R.J.:XW.W.:X1XT.dX%.X                 ",
"                  7 iXuX:XW.[.fX<X>XU.>X-X:XeX:XrXD.XX#XP.1XP.OXQ.Q.E.@X@XW.,XU.R.^.OXXX@XP.,XL.-XW.E.Q.~.uX#.3                 ",
"                  4 uX^.S.,X{...=.x.>Xr.x.+X].r.X.].D./.OX[.U.1XOX<XP.OX+XK.,X>X[.#X+X+X#X'.+X<X{.<XXXE.7XgX@.$                 ",
"                  4 8X9X9XrX$.{ X.*X*Xk i.aX%Xk J d.M n.>X>X3XI.[.[.>X4X4XaX4Xx.6X(.(.pX4X6X0.c.6X6X&X+XE.sX#.$                 ",
"                  5 9X9XB.pXM F (. .} / | ,.| n 2.f.n d.{.<XK.U.>Xx.c.c.Q  .E f J Z Z } ! ,.f v R R r.5XXXsX$.%                 ",
"                    9X9X&X&Xk F c J 6 < 3.q 3.( j 2.N q i.>X>X>X<X4X4Xv.W ! ,.! D ! U W ! ! :.:.H G 0.XXXX9X#.%                 ",
"                    9X@X#X#XX.{ F *X$Xn i.(.t.F j p.d.c.`.[.>Xj.Q Q W <.<.q.! q.9.8.8.<.! <.9.>.<.a.t.x.XXgX#.%                 ",
"                    8X@XXXrX0X) n.pX*Xy./.pX0Xi.i./.{.K.U.,XK.r.G E ! K D U K b A b b b S b b E E E +.>X>XfX*.%                 ",
"                    uXeX^.@XoXaXXX#X#XXX9X!.9XrXU.OX-XI.I.,X>Xx.}.d.6.5.<.<.q.s.v.v.v.v.v.v.a.! 6.Q  .x.P.dX&.%                 ",
"                    B.yX!.~.F.@X8X^.@X8X7XT.!.iX1X@XQ.W.-X-X3XOX/.i.w.0.0.t.i.c.v.}.v.}.c.c.t.0.X.x.{.2X^.iX@.*                 ",
"                    *.-.yXuX9X8X7XuX8X^.7X7X7XqX1X^.,X^.-X:X3X3XyX4X5X2X<X4X<XOX<X>X<X<X4X4X4X4X5X5XOXOXL.fX*.                  ",
"                    *.#.uX!.8X9X8XuX8XuX7XuX7XuX8X8X8XeX;X;XeX;X;X:X:X^.^.^.Q.Q.-X^.-X:X,X-X  3X3X@XrX1XB.qX*.                  ",
"                                                    ] [ [ @.%.[                                                                 ",
"                                                                                                                                ",
"                                                                                                                                "
};
