/* XPM */
static char *_4bafc8b942842cd830d5e16efad12dfwDW4Np4A8bNwbolj[] = {
/* columns rows colors chars-per-pixel */
"32 32 153 2 ",
"   c #6A686B",
".  c #666870",
"X  c #6C6D77",
"o  c #6B6F79",
"O  c #7D6972",
"+  c #6F737D",
"@  c #747076",
"#  c #72767F",
"$  c #7E7D7E",
"%  c #93787F",
"&  c #C76865",
"*  c #C96968",
"=  c #C67373",
"-  c #CA7572",
";  c #C67876",
":  c #CB7A77",
">  c #CA7D7C",
",  c #D47F77",
"<  c #D38179",
"1  c #737780",
"2  c #757881",
"3  c #7C7B83",
"4  c #807F80",
"5  c #868586",
"6  c #858689",
"7  c #87898B",
"8  c #898A8C",
"9  c #838891",
"0  c #8F8F90",
"q  c #8C979E",
"w  c #8C989F",
"e  c #96949A",
"r  c #96999A",
"t  c #9D9F9F",
"y  c #8E9BA2",
"u  c #939CA2",
"i  c #A59BA0",
"p  c #97A4A9",
"a  c #9CA7AB",
"s  c #AAADAD",
"d  c #B2B5B3",
"f  c #B6B9B6",
"g  c #B9BAB7",
"h  c #BBBDB9",
"j  c #CB8483",
"k  c #CA8886",
"l  c #CB8D8C",
"z  c #D18883",
"x  c #D08E8B",
"c  c #C9908F",
"v  c #D5968E",
"b  c #CD9493",
"n  c #C69A98",
"m  c #CD9C9C",
"M  c #D19492",
"N  c #D59B94",
"B  c #D49F9A",
"V  c #CDA19F",
"C  c #D3A29D",
"Z  c #CCA0A1",
"A  c #CFADAC",
"S  c #D2A4A1",
"D  c #D4AAA5",
"F  c #DBABA3",
"G  c #D2AEAA",
"H  c #D5B3AD",
"J  c #C5BCB9",
"K  c #D3B4B1",
"L  c #D4B9B6",
"P  c #DCBBB3",
"I  c #D5BEBA",
"U  c #D8BEB8",
"Y  c #BEC1BD",
"T  c #C0C3BF",
"R  c #D5C1BC",
"E  c #AABFC4",
"W  c #ADC2C8",
"Q  c #BFC4C0",
"!  c #AAC7D0",
"~  c #ADCAD2",
"^  c #A7CDDB",
"/  c #A9CFDC",
"(  c #ABD1DD",
")  c #AED5E2",
"_  c #ADD8E6",
"`  c #C1C5C2",
"'  c #C6CAC5",
"]  c #CACCC6",
"[  c #C6CDC9",
"{  c #CDCEC9",
"}  c #D8C7C0",
"|  c #D4CBC5",
" . c #DBCCC4",
".. c #D3CFCA",
"X. c #CED0CC",
"o. c #D0D1CB",
"O. c #D0D0CC",
"+. c #D0D1CC",
"@. c #D1D1CC",
"#. c #D0D1CD",
"$. c #D1D1CD",
"%. c #D0D2CD",
"&. c #D1D3CD",
"*. c #D2D2CD",
"=. c #D1D2CE",
"-. c #D1D3CE",
";. c #D0D2CF",
":. c #D2D3CE",
">. c #D4D1CC",
",. c #D4D6CF",
"<. c #D1D2CD",
"1. c #D9D0CA",
"2. c #D1D5D0",
"3. c #D1D6D1",
"4. c #D2D6D0",
"5. c #D2D6D1",
"6. c #D3D7D1",
"7. c #D4D5D0",
"8. c #D4D4D0",
"9. c #D4D6D0",
"0. c #D5D7D0",
"q. c #D6D7D1",
"w. c #D5D6D1",
"e. c #D8D7D2",
"r. c #D2D8D2",
"t. c #D2D8D3",
"y. c #D3D8D3",
"u. c #D6D8D1",
"i. c #D7D8D2",
"p. c #D6D9D2",
"a. c #D6D9D3",
"s. c #D6DAD3",
"d. c #D2D9D5",
"f. c #D3D9D5",
"g. c #D6D9D4",
"h. c #D7DAD4",
"j. c #D6DDD7",
"k. c #D6D9D3",
"l. c #D8D9D2",
"z. c #D8D9D3",
"x. c #D8DAD3",
"c. c #D8DBD4",
"v. c #D9DCD5",
"b. c #D9DDD5",
"n. c #DADCD5",
"m. c #DBDCD5",
"M. c #DBDDD5",
"N. c #DBDED6",
"B. c #DADCD5",
"V. c #DADFD9",
"C. c #DADED8",
"Z. c #E2D1C6",
"A. c #DCE2DB",
/* pixels */
"/ _ _ _ _ _ _ _ _ _ _ _ _ _ _ _ _ _ _ _ _ _ _ _ _ _ _ _ _ _ _ _ ",
"_ _ _ _ _ _ _ _ _ _ _ _ _ _ _ _ _ _ _ _ _ _ _ _ _ _ _ _ _ _ _ _ ",
"_ _ _ _ _ _ _ ~ E E E E E E E E E E E E E E W ( _ _ _ _ _ _ _ _ ",
"_ _ _ _ _ _ ) y 4 5 5 5 5 5 5 5 5 6 6 6 5 $   r ~ _ _ _ _ _ _ _ ",
"_ _ _ _ _ _ ( q [ >.| ..*.| *...9.| | 9.| J @ t r ~ _ _ _ _ _ _ ",
"_ _ _ _ _ _ ^ # [ H l l l V Z > = : b j x l O [ s r ~ _ _ _ _ _ ",
"_ _ _ _ _ _ ^ # X.H j j > A l > c = m = V m % u 8 . a ) _ _ _ _ ",
"_ _ _ _ _ _ ^ # [ U B D K D m S I M C L H U n i e 3 6 ) _ _ _ _ ",
"_ _ _ _ _ _ ^ # [ H S b > ; k : j j k > m m k l 9.d 6 ) _ _ _ _ ",
"_ _ _ _ _ _ ^ # [ D C j - & m : = : k * m j = -  .` 8 ) _ _ _ _ ",
"_ _ _ _ _ _ ^ # [  .F D U L ..D D S L I G K R D U ` 8 ) _ _ _ _ ",
"_ _ _ _ _ _ ^ # [ j.2.2.2.t.2.t.d.d.t.t.t.t.2.2.V.T 8 ) _ _ _ _ ",
"_ _ _ _ _ _ ^ # ] p.{ { { ..{ { { *.{ { { { { { b.T 8 ) _ _ _ _ ",
"_ _ _ _ _ _ ^ # ] p.{ *.*.*.*.*.*.*.*.*.*.*.*.{ b.Y 8 ) _ _ _ _ ",
"_ _ _ _ _ _ ^ # ] g.{ *.*.*.*.*.*.*.*.*.*.*.X.{ b.h 7 ) _ _ _ _ ",
"_ _ _ _ _ _ ^ 1 ] p.{ { { X.*.*.*.X.X.{ { { { { b.Y 7 ) _ _ _ _ ",
"_ _ _ _ _ _ ^ # ] p.] { { { X.*.*.*.*.*.{ { { { b.g 7 ) _ _ _ _ ",
"_ _ _ _ _ _ ^ 1 ] c.9.9.9.9.p.l.l.l.l.l.9.9.9.,.b.h 6 ) _ _ _ _ ",
"_ _ _ _ _ _ ^ 2 ] p.X.*.o.*.*.*.*.*.*.*.*.X.{ [ c.T 8 ) _ _ _ _ ",
"_ _ _ _ _ _ ^ 2 ] p.{ { { { { { { { { { { { { [ g.T 7 ) _ _ _ _ ",
"_ _ _ _ _ _ ^ 1 [ g.{ ] { { { { { [ { { { { { { c.Y 7 ) _ _ _ _ ",
"_ _ _ _ _ _ ^ # ' p.{ { { *.X.{ { *.*.{ { { { { b.d 6 ) _ _ _ _ ",
"_ _ _ _ _ _ ^ o d g.*.2.9.p.p.p.9.p.p.9.*.*.*.,.M.Y 8 ) _ _ _ _ ",
"_ _ _ _ _ _ ^ # ' l.| e.c.| 1.V.b.V.A.V.b.b.c.V.A.Y 8 ) _ _ _ _ ",
"_ _ _ _ _ _ ^ 2 [ K l l m j l  .V.V.R B N C v C 1.T 8 ) _ _ _ _ ",
"_ _ _ _ _ _ ^ 2 [ R b V A b D 1.} N z , < < , , P Q 8 ) _ _ _ _ ",
"_ _ _ _ _ _ ^ + T A.M.A.V.A.A.A.m.P F P  . .P F Z.` 7 ) _ _ _ _ ",
"_ _ _ _ _ _ / X 0 d d d d d d d d d d d d d d d f s p ) _ _ _ _ ",
"_ _ _ _ _ _ ( 9 X X X X X X X X X X X X X X X X + w ! _ _ _ _ _ ",
"_ _ _ _ _ _ _ / / / / / / / / / / / / / / / / / / ( ) _ _ _ _ _ ",
"_ _ _ _ _ _ _ _ _ _ _ _ _ _ _ _ _ _ _ _ _ _ _ _ _ _ _ _ _ _ _ _ ",
"_ _ _ _ _ _ _ _ _ _ _ _ _ _ _ _ _ _ _ _ _ _ _ _ _ _ _ _ _ _ _ _ "
};
