/* XPM */
static char *e2edb42010a6492892a4d3246d7ba069RDrsMg9KOMKLOVUH[] = {
/* columns rows colors chars-per-pixel */
"64 64 209 2 ",
"   c #24242E",
".  c #ADD8E6",
"X  c #322F3A",
"o  c #34323C",
"O  c #39313E",
"+  c #3B3B44",
"@  c #3E3E48",
"#  c #363643",
"$  c #403F46",
"%  c #403F49",
"&  c #3A4D5C",
"*  c #434147",
"=  c #44424A",
"-  c #48454B",
";  c #ADD8E6",
":  c #4E4F59",
">  c #44525E",
",  c #5F5E66",
"<  c #6D6B6E",
"1  c #706E6E",
"2  c #6E6C71",
"3  c #7F6F70",
"4  c #6F7072",
"5  c #727274",
"6  c #757579",
"7  c #7F7D7D",
"8  c #B51D1E",
"9  c #B8201E",
"0  c #BF302F",
"q  c #B93837",
"w  c #B42727",
"e  c #C3151A",
"r  c #C63936",
"t  c #D5352B",
"y  c #B3403F",
"u  c #CC433E",
"i  c #D3433C",
"p  c #813841",
"a  c #CA3C40",
"s  c #BB4B4C",
"d  c #BA4644",
"f  c #BB5959",
"g  c #B3524F",
"h  c #986A76",
"j  c #BC696B",
"k  c #BC7274",
"l  c #B66E71",
"z  c #CC4242",
"x  c #CB4C46",
"c  c #D14844",
"v  c #CE514A",
"b  c #C7504B",
"n  c #D1544F",
"m  c #CB5254",
"M  c #C55D5A",
"N  c #C85857",
"B  c #D15C53",
"V  c #D15F5A",
"C  c #C54E50",
"Z  c #CA625A",
"A  c #D2645C",
"S  c #D46457",
"D  c #C36464",
"F  c #CC6C65",
"G  c #C56B6B",
"H  c #C86966",
"J  c #D36C64",
"K  c #D46866",
"L  c #C5736E",
"P  c #CC756E",
"I  c #CD7167",
"U  c #D77068",
"Y  c #C47375",
"T  c #CC7574",
"R  c #C57A7C",
"E  c #CB7B7B",
"W  c #C87874",
"Q  c #D27B74",
"!  c #D07F7A",
"~  c #CE6E71",
"^  c #CC827E",
"/  c #DA897D",
"(  c #767481",
")  c #797683",
"_  c #7C7A85",
"`  c #7F7D88",
"'  c #837F89",
"]  c #827D84",
"[  c #C87F85",
"{  c #87828A",
"}  c #89828C",
"|  c #8C8A8C",
" . c #8E8A94",
".. c #928F99",
"X. c #9C9E9F",
"o. c #969599",
"O. c #A09E9E",
"+. c #AB8189",
"@. c #A4A29E",
"#. c #ABA39F",
"$. c #9C9EA1",
"%. c #9798A1",
"&. c #A19FA2",
"*. c #9EA0A2",
"=. c #99A2B0",
"-. c #A3A3A3",
";. c #ADD8E6",
":. c #ADD8E6",
">. c #A6A4AA",
",. c #A5A8A9",
"<. c #AFABA8",
"1. c #B0ABA6",
"2. c #B2ADA9",
"3. c #B0A4A8",
"4. c #B4B1AA",
"5. c #B9B4AE",
"6. c #BBB6B1",
"7. c #B7B9B5",
"8. c #BCB9B4",
"9. c #BBBFBC",
"0. c #B5BABB",
"q. c #A7ADB1",
"w. c #CB8385",
"e. c #CB8C8C",
"r. c #C88789",
"t. c #D48984",
"y. c #CE928D",
"u. c #D5918E",
"i. c #CC8F92",
"p. c #CD9394",
"a. c #CB9994",
"s. c #CB9A9A",
"d. c #C59899",
"f. c #D29B95",
"g. c #D29D9C",
"h. c #D89B95",
"j. c #D68D91",
"k. c #E49986",
"l. c #CFA29F",
"z. c #D4A49E",
"x. c #DCA598",
"c. c #C99DA0",
"v. c #CBA3A3",
"b. c #CBA8A8",
"n. c #D4A6A3",
"m. c #D2AAA5",
"M. c #D3ADAB",
"N. c #DCABA3",
"B. c #D3B2AE",
"V. c #D9B5AC",
"C. c #CDB7B7",
"Z. c #D3B3B2",
"A. c #D3BCBC",
"S. c #D8BAB6",
"D. c #CDADB1",
"F. c #E2B9AB",
"G. c #BDC1BE",
"H. c #C2C2BE",
"J. c #DDC4BE",
"K. c #DAC2BA",
"L. c #E1C8B7",
"P. c #D3BEC0",
"I. c #BAC1C4",
"U. c #C5C5C3",
"Y. c #C8C6C3",
"T. c #C7C9C5",
"R. c #CCCBC6",
"E. c #CDCECA",
"W. c #CFC7CA",
"Q. c #D5C4C3",
"!. c #D9C6C2",
"~. c #D5C9C5",
"^. c #D1CECA",
"/. c #DBCEC9",
"(. c #D2C7C9",
"). c #CFD1CC",
"_. c #D1D2CD",
"`. c #DBD4CC",
"'. c #DDD5CA",
"]. c #CED2D0",
"[. c #D4D5D1",
"{. c #DAD6D2",
"}. c #D6D9D3",
"|. c #DADDD5",
" X c #D6DCDA",
".X c #DADFD9",
"XX c #D2CED1",
"oX c #E1D8CB",
"OX c #DCE0D7",
"+X c #DCE1DB",
"@X c #D7E0D9",
"#X c #E1E6DD",
"$X c #E4E8DF",
"%X c #D0DFE1",
"&X c #DBE5E1",
"*X c #DBE9E2",
"=X c #DAEDEB",
"-X c #D4E7E7",
";X c #DCF1EC",
":X c #D4FDFD",
">X c #DEFFFE",
",X c #DAF4F2",
"<X c #E4EAE2",
"1X c #E4EEE9",
"2X c #E2E7E0",
"3X c #ECF3EB",
"4X c #E8F2EA",
"5X c #F0F6EC",
"6X c #E2F7F3",
/* pixels */
"#.;.;.;.;.;.;.;.;.;.;.;.;.;.;.;.;.;.;.;.;.;.;.;.:.:.:.;.:.:.:.:.;.;.:.:.:.:.:.:.:.:.:.:.:.:.:.;.;.;.;.;.;.;.;.;.;.;.;.;.;.;.;.;.",
";.;.;.;.;.;.;.:.:.:.:.:.:.;.;.;.;.:.:.:.:.:.:.:.:.:.:.:.:.:.:.:.;.:.:.:.:.:.:.:.:.:.:.:.:.:.:.:.:.:.;.;.:.:.:.:.:.:.:.;.;.;.;.;.",
";.;.;.:.:.:.:.:.:.:.:.:.;.:.:.;.;.:.:.:.:.:.:.:.:.:.:.:.:.:.:.:.:.:.:.:.:.:.:.:.:.:.:.:.:.:.:.:.:.:.;.;.:.:.:.:.:.:.:.:.;.;.;.;.",
";.:.:.:.:.:.:.:.:.:.:.:.:.:.:.:.:.:.:.:.:.:.:.:.:.:.:.:.:.:.:.:.:.:.:.:.:.:.:.:.:.:.:.:.:.:.:.:.:.:.:.:.:.:.:.:.:.:.:.:.:.:.:.;.",
";.;.:.:.:.:.:.:.:.:.:.:.:.:.:.;.;.;.;.:.:.:.:.;.:.;.:.:.:.:.;.:.:.:.:.;.;.:.:.:.:.:.:.:.;.;.:.:.:.:.:.:.:.:.:.:.:.:.:.:.:.:.:.;.",
";.;.;.:.:.:.:.:.:.:.:.:.:.:.:.5.8.8.6.8.8.8.8.8.8.8.8.8.8.8.8.8.8.8.8.8.8.8.8.8.8.8.8.8.6.5.;.:.:.:.:.:.:.:.:.:.:.:.:.:.:.:.:.;.",
";.;.;.:.:.:.:.:.:.:.:.:.:.:.:.] < < < < < 2 < 2 2 2 2 < < 2 2 2 2 2 2 2 2 2 2 2 2 < < < < 7 8.2.:.:.:.:.:.:.:.:.:.:.:.:.:.:.;.;.",
";.;.;.:.:.:.:.:.:.:.:.:.:.:.@.X 2 4 4 5 5 5 5 5 5 5 5 5 5 5 5 5 5 5 6 6 6 6 6 6 5 5 4 , =   1 @.5.:.:.:.:.:.:.:.:.:.:.:.:.:.:.:.",
";.;.:.:.:.:.:.:.:.:.:.:.;.:.-.; 1X3X4X3X3X3X3X3X4X3X3X3X3X3X3X3X3X3X3X3X5X3X3X3X3X3X5X).o.+ @.< ` 6.;.:.:.:.:.:.:.:.:.:.:.:.:.:.",
";.;.:.:.:.:.:.:.:.:.:.:.;.:. .=  X.X X{./.+X@X~.*X@X~.|.}..X}. X*X+X.X[.`.|.+X.X[.`.{.)...@ 1X X6 o.5.;.:.:.:.:.:.:.:.:.:.:.:.;.",
";.:.:.:.:.:.:.:.:.:.:.:.:.:.6 @ +XOX*XU u C.M.d ~.c.q s.R (.[ C Q.R ^ m D w.j.Q.W a c P.p O  X3X,.= @.4.:.:.:.:.:.:.:.:.:.:.:.;.",
";.:.:.:.:.:.:.:.:.:.:.:.;.:.( % +X@X*XP Z.D G b.D N }.W.D P.Y b 8 w W D [.n.e D K.e.n.p.h > +X<X5X9.: ,.5.:.:.:.:.:.:.:.:.:.:.:.",
";.;.;.:.:.:.:.:.:.:.:.:.:.:.( * +X@X*XQ A.L I Z.H Z =X%XD A.Y D ~.l W s A.m.m 9 ~.p.B.i.+.& =.}.R.OXq.@ ,.<.:.:.:.:.:.:.:.:.:.:.",
";.;.;.:.:.:.:.:.:.:.:.:.:.:.( * +X@X*XJ n.j F b.L A Z.b.G l.Y N ,Xr.Z e.=Xw.d.Y C.y.n.p.+.3 . # o o +   ; 2.:.:.:.:.:.:.:.:.:.:.",
";.;.:.:.:.:.:.:.:.:.:.:.:.:.( * +X@X*XQ u M.Q.s ~.S.r Q.d.s XX~ ,Xl.u.N m w.B.g.W.m.n.;XN g %.%... . .( + 2.:.:.:.:.:.:.:.:.:.;.",
";.;.:.:.:.:.:.:.:.:.:.:.:.:.( * +X@X+X.XS.&X|.K.=X&X{. XQ.S.}.!.Q.=X!.S.^..X{.&X~.Q.{.&X{.K.I.3.0.>.>.' + 4.;.:.:.:.:.:.:.:.:.;.",
";.;.;.:.:.:.:.:.:.:.:.:.:.:.( * +X.X*X! u Z.R M s.e.b.G x ~ k t s C.z H w.r.g.p.f T r.g.v.M Z.P 6XU.T.,.$ 2.:.:.:.:.:.:.:.:.:.:.",
";.:.;.;.:.:.:.:.:.:.:.:.:.:.( % +X@X[.v *XM.w.s.D 0 f L G -XL V D.j m (.D.e T M e.>Xi.G r.a.M Q *X@X<XH.* 2.:.:.:.:.:.:.:.:.:.:.",
";.;.;.:.:.:.:.:.:.:.:.:.:.:.( % +XOX[.Z ,XC.e.b.D F 0 P z A.W H A.l z u.Z.N r F s.>Xd.E C q G Q ;X@X<XU.= 2.:.:.:.:.:.:.:.:.:.:.",
";.;.:.:.:.:.:.:.:.:.:.:.:.:.( * +XOX|.S z.f.P P Z n.e.M y.:XL x Y k B ~.e.p.r.N E b.Y G r.v.j K !.|.<XU.= 2.:.:.:.:.:.:.:.:.;.;.",
";.:.;.:.:.:.:.:.:.:.:.:.:.:.( % +X.X*XV.t N.t.v M.n.M.^ y.:Xf.i r ~.n r t.M.c.S.F D v.T g.R.w.n r !.1XI.= 2.:.:.:.:.:.:.:.:.;.;.",
";.:.;.;.:.:.:.:.:.:.:.:.:.:.( $ .X@X.X@X.X+X.X+X+X+X+X+X+X+X+X+X*X+X+X+X+X+X+X*X+X+X&X+X+X@X+XOX.X.X<XG.= 2.:.:.:.:.:.:.:.:.:.;.",
";.:.:.:.:.:.:.:.:.:.:.:.:.:.( * .X@X.X@X+XOX+X+X@X+X+X+X+XOX@X+X&X+X&X&X&X+X+X+X+X+X+X+X+XOXOX+X+X@X$XG.= 2.:.:.:.:.:.:.:.:.:.;.",
";.;.:.:.:.:.:.:.:.:.:.:.:.:.( * .X.X@XE.H.U.U.U.U.T.T.T.T.T.T.T.T.T.T.T.T.T.T.T.T.T.T.T.T.U.U.H._.OX$XG.= 2.:.:.:.:.:.:.:.:.:.;.",
";.;.;.:.:.:.:.:.:.:.:.:.:.:.( * OXOX.X}._._._._._.[.[.[.[.[.[.[.[.[.[.[.[.[._._.[._.[.[.[._._._.{..X<XG.- 2.:.:.:.:.:.:.:.:.:.:.",
";.;.;.:.:.:.:.:.:.:.:.:.:.:.( * OXOXOX_.T.E.R.R.R.R.^.^.R.R.R.R.E.E.^.^.E.E.R.R.R.R.R.^.R.R.R.T.}.OX$XG.- 2.:.:.:.:.:.:.:.:.:.;.",
";.;.;.:.:.:.:.:.:.:.:.:.:.:.( * OXOXOX_.E._._._._._._._._._._._._._._._._._._._._._._._._._._.E.{.OX$XG.- 2.:.:.:.:.:.:.:.:.:.;.",
";.;.;.;.:.:.:.:.:.:.:.:.:.:.( * +XOXOX_.R.E._._._._._._._._._._._._._._._._._._._._._._._._._.^.{.OX+X0.- 4.:.:.:.:.:.:.:.:.:.;.",
";.;.;.:.:.:.:.:.:.:.:.:.:.:.( * OX.X.X_.E._._._._._._._._._._._._.[.[.[.[.[._._._._._._._._.E.T.}.OX|.,.- 4.:.:.:.:.:.:.:.:.:.:.",
";.;.;.:.:.:.:.:.:.:.:.:.;.:.) * +XOX.X[.E._._._._.)._._.)._.[.[._._.E.E.E._._._._._._._._.).).E.}.OX$X9.- 2.:.:.:.:.:.:.:.:.:.:.",
";.;.;.:.:.:.:.:.:.:.:.:.:.:.) = +XOX.X_.E.E.E.).).)._._._._._._.[.[.].E.].[.).E.E.E.E.E.R.R.E.R.}.OXOX7.- 2.:.:.:.:.:.:.:.:.:.;.",
";.;.;.:.:.:.:.:.:.:.:.:.:.:.( * +XOX|.[.E.E.E.E.^.E.E.E.).).E.).].].].[.].).E.E.E.E.E.E.E.R.R.T.}.OX#X7.- 2.:.:.:.:.:.:.:.:.:.;.",
";.:.:.:.:.:.:.:.:.:.:.:.:.:.( * +XOX|._.T.R.E.E.E.E.E._._._._._._._._._._._._._.^.^.^.^._._.).E.|.OX$XU.- 2.;.:.:.:.:.:.:.:.:.;.",
";.;.:.:.:.:.:.:.:.:.:.:.:.:.( = +XOXOX_.T.R.R.E.^._.).E.E.)._._._._._._._._._._.).R.E.E.E.E.E.R.{.OX|.%.* 4.;.:.:.:.:.:.:.:.:.;.",
";.;.:.:.:.:.:.:.:.:.:.:.:.:.) = OXOX|._.T.T.R.R.R.R.R.R.E.^._._.^.^.^.^.^._._.^.R.R.R.R.R.R.R.R.[.OX#X<.* 2.;.:.:.:.:.:.:.:.:.;.",
";.;.:.:.:.:.:.:.:.:.:.:.:.:.( = OXOX|.OX$X$X$X$X$X$X$X$X$X$X$X$X$X$X$X$X$X$X$X$X$X$X$X$X$X$X#X#XOX|.<XG.= 2.:.:.:.:.:.:.:.:.:.:.",
";.;.:.:.:.:.:.:.:.:.:.:.:.:.( * OX|.|._.)._._._.).).)._._._._._._._._._._._._.)._._._._.).E.E.R._..X$XG.- 2.:.:.:.:.:.:.:.:.:.:.",
";.;.:.:.:.:.:.:.:.:.:.:.:.:._ = OX|.|.).Y.T.R.R.R.T.R.R.R.R.T.T.E.E.E.E.E.E.R.R.R.R.T.Y.U.U.U.H._..X$X9.- 2.:.:.:.:.:.:.:.:.:.:.",
";.;.:.:.:.:.:.:.:.:.:.:.:.:._ = OX.X|.[.E.E.E._.^.^.^._._.^.^.^._._._._._._._._._.^._.^.E.E.E.T.[..X$X9.- 2.:.:.:.:.:.:.:.:.:.:.",
";.;.:.:.:.:.:.:.:.:.:.:.:.:.) = +X.X.X_.E.E.E._._.E.E._._._.^.E.E.^.E.E._.E.E.^.^.E.E._._._._.R._..X$X9.= 1.:.:.:.:.:.:.:.:.:.:.",
";.:.:.:.:.:.:.:.:.:.:.:.:.:.) = +XOX.X[.E.E.T.E.E.E.E.E.E.E.E.E.E.E.E.E.E.E.E.E.E.E.E.E.E.E.E.E.[..X$X9.- 1.:.:.:.:.:.:.:.:.:.;.",
";.;.:.:.:.:.:.:.:.:.:.:.:.:.( = +XOX@X[.E.T.T.R.R.R.R.T.R.R.E.E.R.T.T.T.T.R.R.R.E.^.R.R.R.R.R.T._..X$XG.= 1.:.:.:.:.:.:.:.:.:.;.",
";.:.:.:.:.:.:.:.:.:.:.:.:.:.( = +XOX|._.).).)._._._.[.[._._._._.).)._.[.[._.).).).).).).).).).R.}.OXOX&.* 4.:.:.:.:.:.:.:.:.:.;.",
";.:.:.:.:.:.:.:.:.:.:.:.:.:.( * OXOX|._.T.R.E.E.E._._._._.E.E.E.E.)._._._._._.E.E.E.E.E.E.E.E.T.}.OXOX-.* 4.:.:.:.:.:.:.:.:.:.;.",
";.:.:.:.:.:.:.:.:.:.:.:.:.:.( o -.T.#X_.E.E.E.^.^.^.E.^._._._._._._.^._._._._._._._._._._._._.^.{.OX$XG.- 4.:.:.:.:.:.:.:.:.:.;.",
";.:.:.:.:.:.:.:.:.:.:.:.:.:.` + >.T.OX}._.[.|..X.X.X.X.XOXOXOX.X|..X.XOXOX.X.X|.[._._._._._.[.|.OX.X$X9.- 4.:.:.:.:.:.:.:.:.:.;.",
";.:.:.:.;.:.:.:.:.:.:.:.:.:.( = +XOX|.|.*X@X}.|.|.{.@X*X@X@X.X.X|.|..X.X|.|.|.|.|.|.|.|.|.{.|.|.OX.X$X9.= 2.;.:.:.:.:.:.:.:.:.;.",
";.:.:.:.;.;.:.:.:.:.:.:.:.:.( = .X|..X@Xf.A.*X~.|.+X~.g.`./..X@X@X@X@X@X@X.X|.*XOX+X|.|.|.*X.X.X.X|.$X9.= 2.:.:.:.:.:.:.:.:.:.:.",
";.:.:.:.:.:.:.:.:.:.:.:.:.:.) = +X.X+Xv.R A.;XE A.:XW ~ C.K 6X|.@X.X|.|.@X*X=Xm.`.K.OX+X@Xy..X+XOX|.$XG.- 4.:.:.:.:.:.:.:.:.:.:.",
";.:.:.:.:.:.:.:.:.:.:.:.:.:._ = +X|.*XD f v.d s R k E j s.C Z.+X|.+X*X=XK.K U i B c V S S t V v n.*X$XG.= 2.:.:.:.:.:.:.:.:.:.;.",
";.:.:.:.:.:.:.:.:.:.:.:.:.:._ = +XOX*X^ G Y m.y y.d.p.r a.Q z.+X@XQ.B.S.M.s.g.n.z.z.f.f.f.N.h.h.n.{.<X9.= 2.:.:.:.:.:.:.:.:.:.:.",
";.:.:.:.:.:.:.:.:.:.:.:.:.:.( * .XOX+X{.T J.>XM.{.,XA.t.`.|.#X.X+X/ S J J I F B B B S A A A J U x.+X<XG.= 2.:.:.:.:.:.:.:.:.:.:.",
";.:.:.:.:.:.:.:.:.:.:.:.:.:._ @ |.OX|.OX*X@X{.+X}.[.*X;X@X.X@X@X@X|.J.h.t./ k.F.L.'.'.'.K.x.t./ k.|.<X9.= 4.:.:.:.:.:.:.:.:.:.:.",
":.:.:.:.:.:.:.:.:.:.:.:.:.:._ o 7.$X|..X{.|..X|.{.}.|.|..X@X@X@X@X.X`.J.S.K./.|.|.|.{.{.'.J.F.J.OXOX<XG.= 2.:.:.:.:.:.:.:.:.:.;.",
":.:.:.:.:.:.:.:.:.:.:.:.:.:._ o O.T.<X$X$X$X$X$X$X$X$X$X2X<X<X<X<X<X<X1X1X1X1X<X<X<X<X<X<X1X1X1X$X$XOXH.$ 2.:.:.:.:.:.:.:.:.:.;.",
":.:.:.:.:.:.:.:.:.:.:.:.:.:.` + | o.X.$.*.*.*.*.*.*.*.*.$.$.*.*.*.*.X.X.$.$.$.*.*.*.*.-.*.*.$.X.*.-.-.{ ; 4.:.:.:.:.:.:.:.:.:.:.",
":.:.:.:.:.:.:.:.:.:.:.:.:.:.{ 2 o o o o o o o o o o o o o X o X X o o o o o o o o o o o o o o o o o . - ;.:.:.:.:.:.:.:.:.:.:.:.",
";.:.:.:.:.:.:.:.:.:.:.:.:.:.} ] ] ' { } } { } } } } } } } } } } } } } } } } } } } } } } } } } ' ' ' _ <.4.:.:.:.:.:.:.:.:.:.:.:.",
";.:.;.:.:.:.:.:.:.:.:.:.:.:.:.;.;.;.;.;.;.;.;.;.;.;.;.;.;.;.;.;.;.;.;.;.;.;.;.;.;.;.;.;.;.;.;.;.;.;.;.:.:.:.:.:.:.:.:.:.:.:.:.:.",
";.;.:.:.:.:.:.:.:.:.:.:.:.:.:.:.:.:.:.:.:.:.:.:.:.:.:.:.:.:.:.:.:.:.:.:.:.:.:.:.:.:.:.:.:.:.:.:.:.:.:.:.:.:.:.:.:.:.:.:.:.:.:.:.",
";.:.:.:.:.:.:.:.:.:.:.:.:.:.:.:.:.:.:.:.:.:.:.:.:.:.:.:.:.:.:.:.:.:.:.:.:.:.:.:.:.:.:.:.:.:.:.:.:.:.:.:.:.:.:.:.:.:.:.:.:.:.:.:.",
":.:.:.:.:.:.:.:.:.:.:.:.:.:.:.:.:.:.:.:.:.:.:.:.:.:.:.:.:.:.:.:.:.:.:.:.:.:.:.:.:.:.:.:.:.:.:.:.:.:.:.:.:.:.:.:.:.:.:.:.:.:.:.:.",
":.:.:.:.:.:.:.:.:.:.:.:.:.:.:.:.:.:.:.:.:.:.:.:.:.:.:.:.:.:.:.:.:.:.:.:.:.:.:.:.:.:.:.:.:.:.:.:.:.:.:.:.:.:.:.:.:.:.:.:.:.:.:.:.",
":.:.:.:.:.:.:.:.:.:.:.:.:.:.:.:.:.:.:.:.:.:.:.:.:.:.:.:.:.:.:.:.:.:.:.:.:.:.:.:.:.:.:.:.:.:.:.:.:.:.:.:.:.:.:.:.:.:.:.:.:.:.:.:."
};
