/* XPM */
static char *result[] = {
/* columns rows colors chars-per-pixel */
"48 64 232 2 ",
"   c #27271A",
".  c #1E2F2D",
"X  c #282B29",
"o  c #342A2B",
"O  c #343127",
"+  c #2C2C32",
"@  c #332C34",
"#  c #392C37",
"$  c #2C3234",
"%  c #2D383A",
"&  c #33353B",
"*  c #393639",
"=  c #283329",
"-  c #1D1722",
";  c #473737",
":  c #462E3B",
">  c #692D2A",
",  c #6C3637",
"<  c #793335",
"1  c #71413B",
"2  c #3D3D43",
"3  c #3A3A41",
"4  c #413E44",
"5  c #7F3E44",
"6  c #3E4144",
"7  c #3A4749",
"8  c #424246",
"9  c #565255",
"0  c #794845",
"q  c #7D5B58",
"w  c #6E5358",
"e  c #5D5C64",
"r  c #585963",
"t  c #625D67",
"y  c #695B72",
"u  c #5C6266",
"i  c #636268",
"p  c #686B74",
"a  c #776E72",
"s  c #8B3135",
"d  c #82413F",
"f  c #9A3C45",
"g  c #834A48",
"h  c #994649",
"j  c #8C514C",
"k  c #954E55",
"l  c #875A58",
"z  c #985857",
"x  c #A65758",
"c  c #B35A5E",
"v  c #96655D",
"b  c #88655B",
"n  c #AE655E",
"m  c #AD5D62",
"M  c #8D6766",
"N  c #996A66",
"B  c #9C726A",
"V  c #997672",
"C  c #A36D6A",
"Z  c #A86966",
"A  c #B86969",
"S  c #A6736E",
"D  c #B6716D",
"F  c #AB7A75",
"G  c #AE7D7B",
"H  c #A57872",
"J  c #B87774",
"K  c #A16D71",
"L  c #995E60",
"P  c #C26A6E",
"I  c #C96E72",
"U  c #C6797B",
"Y  c #D8777C",
"T  c #C25F64",
"R  c #AC847C",
"E  c #B3837B",
"W  c #BC817B",
"Q  c #A5907F",
"!  c #9F827E",
"~  c #C2837D",
"^  c #7E6F84",
"/  c #B37E81",
"(  c #867B89",
")  c #CE7E83",
"_  c #998787",
"`  c #97978D",
"'  c #978D96",
"]  c #939A9B",
"[  c #999798",
"{  c #8C9292",
"}  c #BC8B84",
"|  c #B58886",
" . c #BA968C",
".. c #A49699",
"X. c #B89996",
"o. c #AD8D8B",
"O. c #9CA19B",
"+. c #BCA298",
"@. c #A1A29E",
"#. c #9D9CA1",
"$. c #A79DA5",
"%. c #B39FA8",
"&. c #9BA7A3",
"*. c #A3A3A4",
"=. c #AAA7A9",
"-. c #BDBDBA",
";. c #B8B8B5",
":. c #B3ACAD",
">. c #C78887",
",. c #D38985",
"<. c #C7938C",
"1. c #D6958E",
"2. c #D78B93",
"3. c #C59592",
"4. c #CA9B97",
"5. c #D49491",
"6. c #D89996",
"7. c #CA8C91",
"8. c #E49799",
"9. c #E58C8E",
"0. c #C6A39A",
"q. c #DBA29B",
"w. c #CAA8A2",
"e. c #D9A9A6",
"r. c #CCB5AC",
"t. c #D7B3AA",
"y. c #C3B8B9",
"u. c #D8B9B5",
"i. c #CAAFB6",
"p. c #E8A7A6",
"a. c #E5B2AA",
"s. c #E8BAB5",
"d. c #FAB9B8",
"f. c #EDB3AF",
"g. c #D69C9F",
"h. c #BEC2BB",
"j. c #B9C8BB",
"k. c #C2C3BD",
"l. c #C4CABE",
"z. c #C9C4BE",
"x. c #DAC4BB",
"c. c #CBC0AE",
"v. c #E7C4BB",
"b. c #FBC4BC",
"n. c #BBBDC1",
"m. c #C3B9C2",
"M. c #BDC4C3",
"N. c #BDCCC4",
"B. c #C4C5C2",
"V. c #CAC6C5",
"C. c #C5CAC3",
"Z. c #CACBC5",
"A. c #C4CDC9",
"S. c #CDCECA",
"D. c #CAC5C9",
"F. c #D2CDCC",
"G. c #D9CCC6",
"H. c #CCD1C6",
"J. c #CDD1CB",
"K. c #C9D5C9",
"L. c #D2D3CD",
"P. c #DAD3CC",
"I. c #D4DACD",
"U. c #DCDBCC",
"Y. c #DDD6C5",
"T. c #CDD6D2",
"R. c #D4D5D1",
"E. c #DBD6D4",
"W. c #D6DAD3",
"Q. c #DBDBD5",
"!. c #D5DBDA",
"~. c #DCDDDA",
"^. c #D9D6D9",
"/. c #D1CFD0",
"(. c #E3CBC5",
"). c #ECCAC5",
"_. c #FFCCCA",
"`. c #F9C8C5",
"'. c #E3D3CB",
"]. c #EAD4CE",
"[. c #E2DACD",
"{. c #EADACE",
"}. c #ECD1C4",
"|. c #FCD3CD",
" X c #F7D6CB",
".X c #FCCFD0",
"XX c #E2D6D4",
"oX c #E3DCD4",
"OX c #EADCD4",
"+X c #E2DCDB",
"@X c #EBDCDB",
"#X c #ECD5D4",
"$X c #FFD3D2",
"%X c #FEDBD5",
"&X c #FEDDDC",
"*X c #F4D9D8",
"=X c #EECAD4",
"-X c #D4E1D5",
";X c #DCE1D5",
":X c #D6E2DB",
">X c #DDE1DB",
",X c #E3E3D5",
"<X c #E2E2DC",
"1X c #EDE3DB",
"2X c #E4EADC",
"3X c #EBE5D7",
"4X c #F4E3DC",
"5X c #FFE4DC",
"6X c #F7E7D8",
"7X c #E7E0CE",
"8X c #DDDDE1",
"9X c #E3DEE2",
"0X c #E9DEE2",
"qX c #F4DEE1",
"wX c #DEE3E1",
"eX c #DAE7E4",
"rX c #E3E4E4",
"tX c #EBE4E3",
"yX c #EBEBE5",
"uX c #E5E5E9",
"iX c #ECECEA",
"pX c #E6EAE6",
"aX c #FDE4E2",
"sX c #F3EAEB",
"dX c #F9E9E6",
"fX c #E8F3E8",
"gX c #F4F2EB",
"hX c #F8EDF5",
"jX c #F4F3F2",
"kX c #FAF5F5",
"lX c #EEF6F6",
"zX c None",
/* pixels */
"[ zX@ X =   O O O O X * $ & $ $ + 3 . . % 3 3 3 + 4 @ # * O : # # o 4 zXzXzXzXzXzXzXzXzXzXzXzXzX",
"_ + O.O.` ` ` Q ` ` { { { ' #.{ { ] { ] { ] ] ] ' ....' { [ ` o...' ' ' ( y & zXzXzXzXzXzXzXzXzX",
"' 4 rXfXfXfX6XdX2X2X2XgXyXtXsXsXiXiXeXhXuXsXhXhXhXsXsXsXgXgXdXhXaXhXhXhXm.=.- ^ zXzXzXzXzXzXzXzX",
"( * !.!.:XW.7X#X,X,XoX{.OX@X#X=XqXXX+X9X9X0XqX#X@X@XtXXXOX4X4X*X&X$XdXqXm.:.+ n.lXzXzXzXzXzXzXzX",
"p & ^.8X<XXXw.G v.6Xe.S &X$XG / a.X.&XX.s.4.%X5X0.u.| 7.s.3.%Xs.4./ / 4.=XM - =.eXlXzXzXzXzXzXzX",
"t 3 8X9XOX(.k N S q.E j e.4.g S p.g &XK g., 4.H 0 7.k / p.k f.7.3.M 1 e./ y + :.fXT.8XzXzXzXzXzX",
"r 2 8XXXOX=XC $XZ E ~ v.b R 0.5X`.l .XG ) m > 1 D | J `._.s h N (.).N qXM X.4 $.jX!.sXuXzXzXzXzX",
"r 4 8X+X#X%XC d.F J C v.v B 3.|._.0 $XK 2.k b.0.z ) f 7.d.x Z > v.}.M aXl X.; a rXjX~.uXjXzXzXzX",
"e 2 8X<XE.%XN `.F E B `.N G 4.$Xs.0 5XC 8.z 6Xt.v 1.q.|.d.h d.j a.v.b 6XM w._ : O * 8 8 9 . zXzX",
"r 8 rXW.1X'.q G B  .G G 3.4.N C 4.H N F 8.j  Xw.x W j D 1.g _.N t.v.q %X4.M q 9 i a i u u p 7 zX",
"e 4 rXE.oX'.X.H w.dXt.H  XdX| V dXs.N t.%X<.6X6X<.b.F v v.<.%X .}. X . XaX ./ X.r.:.=.=.*.#.a O ",
"9 4 +X<X+X'..X).}.%X).&X&X}.5X$X`.f.b._.d.s.x.v.b.a.v.|.s.|.b.&Xx.r. Xv. X.Xu.).+.$.;.;.] :.a O ",
"t * ~.tXQ.]./ f / d.k L f.Z .XA ) z j >.A x 1 e.~ s v W Z d.Z f.v 1 b.l _.<.g `.o.X.kXR.-.J.`   ",
"t ; 9X~.P.u.z `..XN d.) ) k m I ) A .Xp.P c f.D P ~ |.a.< ) ) x } 5Xs.b 4.D d.x 7.o.dXE.A.fX` O ",
"t & !.>X2XG.M $X.XM d.J D c f f 9.s <.q.c T d.x 9.s J b.f s P U 7.dX$XC 1.x ) f 2./ qXE.fXfX` O ",
"e 8 !.rX<Xy.V $X$XN d.,.U P 9.s Y A %Xq.P I b.h Y T b.p.P Y c A 6.aX|.v 1.g h h ) 7.aX'.;XfX`   ",
"t 3 8X+X0Xu.V 4.6.F 7.Z J A b.z ~ ~ 5Xa.x x P A I I d.q.I b.A D J 1.W S <.E |.n ) S d.).].3X*.. ",
"r 2 9X9XG.qXi.1 F _.f N d.C |.N 0.! dXs.R j < d.2.> s 4.F b.N _.Z 1 a.H | R |.B | , 0 w.@XgXO.% ",
"r 7 T.eX>XU.@X(.u.&Xu.s.5X].*X'.{.[.7X'.'.(.v.$X.X].(.#X(.OX#X$X}.v.aX*XY.{.'.x.{.x.(.{.P.pX&.= ",
"r 7 eXT.;XW.,XoX[.@XOXqX@X@XoXoX,XU.>X<XoX1XsXdX@X@X+X+XsX1XtX'.*X4XP.4XW.,XL.2XyX,X3XQ.;X2X&.. ",
"u % pX:X-XW.I.I.P.XXE.+X~.8X~.R.!.uX^.E.~.8X8X^.8X!.8X~.XX0X^.0X0XXXrXR.!.I.-XW.H.;X,X2XW.pX*.  ",
"r 6 wXW.>XW.l.h.-.-.V.B.n.B.M.M.M.M.B.n.B.B.M.N.N.N.M.n./.y.D.y.y.V.-.-.M.j.j.j.j.j.l.2XU.iX*.* ",
"zX* +X<X>XP.Q.U.W.rX^.^.uX8X^.!.!.wX<X~.W.>XeX:X:X:X>X~.^.+X+X<XyXuX^.rX~.R.:X-XI.I.;X;XQ.dX=.o ",
"zX* tXQ.+X~.l.z.B.-.B.B.m.B.B.M.C.j.k.-.V.N.N.M.N.j.C.k.V.m.Z.h.-.D.m.-.C.k.j.j.j.j.I.;XE.tX%.@ ",
"zX4 9X~.<X~.I.H.W.W.-X!.~.!.~.W.-X:X;XW.Q.,X>X-X-XI.-XW.,X~.;X-X!.>XQ.!.~.E.Q.Q.W.-X;X:X:XgX=.@ ",
"zX4 rX~.<XL.z.;.l.l.l.C.C.A.C.k.N.C.l.z.V.V.Z.l.K.K.H.l.S.C.l.j.N.C.l.C.V.k.z.C.j.C.I.:X:XfX*.$ ",
"zX2 8X~.<X<X;XI.W.-X-XW.~.,XQ.W.>X>X>XoX#X@X+XoXQ.Q.Q.E.<X+X~.>X-X;XW.~.~.P.Q.Q.W.U.:X>X:X:X] $ ",
"zX2 rXwX<XU.l.z.l.l.l.C.l.Z.l.z.C.V.V.V.V.D.F.V.F.V.V.V.S.V.A.B.H.l.l.Z.Z.z.V.V.k.l.J.;XQ.:X] $ ",
"zX6 rX+XtXoXI.Z.I.L.L.L.I.R.L.L.J.R.R././.^.E.^.^.E.!.T.!.!.R./.Q.~.R.^.E.P.Q.Q.Z.P.Q.<X>XrX] $ ",
"zX8 9X~.oXE.Y.G.Z.Z.K.H.S.S.S.V./.S.S.S.S.F.L.F.B.A.K.N.T.A.S.F.F.F././.F.D.S.L.S.P.P.W.W.pX@.zX",
"zX6 uXrXtXoXP.Z.H.C.K.A.A.A.K.A.F.L.F.K.J.K.S.S.J.K.K.N.K.K.K.S.F.D.D.A.A.N.A.A.C.H.~.1X<X2XO.zX",
"u 7 rX~.<XQ.L.S.L.I.T.T.T.!.R./.F.F.L.J.R.!.W.L.R.J.T.K.!.T.L.R.F./././.T.A.A.J.J.S.Q.<XQ.<X*.zX",
"e 2 uXwX;X>XZ.l.l.C.B.B.C.S.D.A.S.S.S.S.S.S.V.V.C.Z.C.C.C.V.A.V.S.V.B.C.V.C.C.C.S.S.L.<X<XgX[ zX",
"u 2 uXrX>X<XL.L.W.L.W.I.!.!.Q.Q.Q.Q.Q.Q.W.Q.W.Q.~.!.Q.Q.!.Q.Q.Q.~.~.R.U.W.L.R.Q.Q.I.~.2X~.W.zXzX",
"e 8 uXwXR.R.z.l.;.h.-.-.-.h.k.h.k.-.h.k.h.k.k.k.k.k.k.k.k.k.k.k.z.k.;.k.k.-.k.-.z.k.J.<XL.L.zXzX",
"t 2 uX8XQ.Q.L.L.~.;X~.~.!.>X<X>X~.~.~.~.~.~.>X~.~.~.~.>X+X>X~.~.>X<XW.<X;XW.~.~.L.L.~.pX<XyXzXzX",
"y 7 uX8X!.2X<X2X~.>X~.~.8XrX>X~.;X>X+X>X~.<X<X<X<X>X<X+X<X<X<X<X<X2X~.<X,X~.<X,X<X~.>XoXW.iXzXzX",
"u 2 wX8XQ.~.H.L.I.L.W.L.R.R.Q.R.Q.E.W.Q.Q.W.W.Q.Q.Q.Q.W.R.E.W.Q.Q.~.L.R.L.L.R.R.R.L.Q.>XQ.iXzXzX",
"e 3 uXwX<X;XZ.Z.k.l.k.k.C.B.C.C.C.C.C.V.C.V.C.C.V.C.C.z.C.C.k.C.V.V.z.C.k.-.k.k.z.k.L.<XQ.pXzXzX",
"i 2 uX8X>X;XH.L.J.J.S.J.S.J.S.J.F.L.L.J.J.F.F.L.S.L.J.J.F.L.L.L.W.L.S.L.V.k.C.C.Z.Z.W.~.Q.yXzXzX",
"u 2 rXrXQ.W.H.I.J.H.J.S.S.J.L.J.F.J.J.L.J.L.L.L.J.L.J.J.L.J.J.J.L.J.S.J.L.S.L.L.L.L.Q.<X~.yXzXzX",
"e 2 rXrXW.;Xl.k.Z.S.S.C.A.S.S.D.S.S.S.S.Z.Z.V.V.V.V.S.Z.S.V.S.S.S.S.C.V.V.A.S.S.Z.C.L.<XQ.yXzXzX",
"i 6 wXrXI.2XL.U.I.L.L.L.L.!.R.R.L.L.R.R.R.L.L.L.R.E.R.R.L.W.L.R.W.R.L.L.R.L.L.W.~.R.~.yXQ.yXzXzX",
"u 3 8XpXL.Q.l.H.k.h.k.h.y.B.j.k.k.k.z.k.C.k.C.C.k.k.C.k.z.k.k.k.C.B.h.z.k.h.z.k.k.h.S.Q.Q.fXzXzX",
"u * rX<X~.W.H.l.I.I.L.L.R.W.W.^.W.E.R.W.R.Q.Q.Q.L.R.W.I.R.Q.Q.Q.Q.Q.L.Q.W.R.L.Q.L.L.~.2X<XrXzXzX",
"u 6 iXW.Q.Q.Y.H.Z.Z.V.S.S./.L.J.S.S.L.S.S.L.S.S.S.J.F.S.S.S.S.S.L.S.V.S.S.C.S.S.V.C.L.>XQ.L.zXzX",
"zX8 rXW.<X,XH.Z.H.H.J.S./.T.R.R.L.L.L.L.L.L.J.F.L.L.L.R.L.L.S.L.L.L.S.L.L.S.J.J.J.S.~.tX~.<XzXzX",
"zX$ ;.-.W.,Xl.H.l.Z.A.A.A.S.S.K.C.S.S.S.S.S.S.J.S.S.D.S.S.S.S.F.L.S.V.S.S.V.S.S.S.J.>X>XQ.jX*.$ ",
"zX@ ..;.Q.>XI.,XH.K.;X:XfXeXeX-X>XW.>X>X>XW.~.~.!.>X~.Q.+X9X^.9XR.R.R./.~.D.!.K.:X-XQ.>X!.fX&.. ",
"zX* D.L.>X<XL.L.K.;X;Xl.j.T.:X:XW.L.>X>X<XQ.>XQ.~.<X+X~.Q.~.XX~.~.R.E.~.F.R.K.>XW.W.>X<XT.fX&.- ",
"zX6 iXuX>XW.[.gX3X7XU.7X;X>XrX>XtXG.XX@XP.<XP.oXQ.Q.E.+X+XW.,XU.R.~.oXXX+XP.,XL.;XW.E.Q.!.uX$.3 ",
"zX2 uX~.S.,X{...:.x.7Xr.x.OX].r.X.].G.(.oX[.U.<XoX3XP.oXOXY.,X7X[.@XOXOX@X'.OX3X{.3XXXE.8XhX#.+ ",
"zX2 9X0X0XtX%.o.X.&X&Xl u.dX%Xl G s.M m.7X7X2XI.[.[.7X6X6XdX6Xx.5X).).aX6X5X0.v.5X5X*XOXE.sX$.+ ",
"zX4 0X0XV.aXM K ). .| / } <.} L 2.d.L s.{.3XY.U.7Xx.v.v.Q  .E g G C C | ~ <.g v R R r.4XXXsX%.@ ",
"zXzX0X0X*X*Xl K b G 5 , 3.0 3.) k 2.N 0 u.7X7X7X3X6X6Xb.W ~ <.~ D ~ U W ~ ~ >.>.F H 0.XXXX0X$.@ ",
"zXzX0X+X@X@XX.o.K &X$XL u.).t.K k p.s.v.}.[.7Xc.Q Q W 1.1.q.~ q.8.9.9.1.~ 1.8.,.1.a.t.x.XXhX$.@ ",
"zXzX9X+XXXtXqX_ m.aX&Xi.(.aXqXu.u.(.{.Y.U.,XY.r.H E ~ J D U J n A n n n S n n E E E +.7X7XgX=.@ ",
"zXzXuXrX~.+X#XdXXX@X@XXX0X^.0XtXU.oX;XI.I.,X7Xx. Xs.6.5.1.1.q.f.b.b.b.b.b.b.a.~ 6.Q  .x.P.fX*.@ ",
"zXzXV.yX^.!.F.+X9X~.+X9X8XT.^.iX<X+XQ.W.;X;X2XoX(.u.w.0.0.t.u.v.b. Xb. Xv.v.t.0.X.x.{.1X~.iX#.$ ",
"zXzX=.;.yXuX0X9X8XuX9X~.8X8X8XwX<X~.,X~.;X>X2X2XyX6X4X1X3X6X3XoX3X7X3X3X6X6X6X6X4X4XoXoXL.gX=.zX",
"zXzX=.$.uX^.9X0X9XuX9XuX8XuX8XuX9X9X9XrX:X:XrX:X:X>X>X~.~.~.Q.Q.;X~.;X>X,X;XzX2X2X+XtX<XV.wX=.zX",
"zXzXzXzXzXzXzXzXzXzXzXzXzXzXzXzXzXzX[ ] ] #.&.] zXzXzXzXzXzXzXzXzXzXzXzXzXzXzXzXzXzXzXzXzXzXzXzX",
"zXzXzXzXzXzXzXzXzXzXzXzXzXzXzXzXzXzXzXzXzXzXzXzXzXzXzXzXzXzXzXzXzXzXzXzXzXzXzXzXzXzXzXzXzXzXzXzX",
"zXzXzXzXzXzXzXzXzXzXzXzXzXzXzXzXzXzXzXzXzXzXzXzXzXzXzXzXzXzXzXzXzXzXzXzXzXzXzXzXzXzXzXzXzXzXzXzX"
};
