/* XPM */
static char *c12e87d17418483ff87610ad08d8ea1234WTbcNweM3riT2Q[] = {
/* columns rows colors chars-per-pixel */
"32 32 121 2 ",
"   c LightBlue",
".  c #ACD7E5",
"X  c #ADD9E7",
"o  c #ABD6E3",
"O  c #A0C7D4",
"+  c #9EC5D1",
"@  c #9FC5D1",
"#  c #A6CEDC",
"$  c #525B5E",
"%  c #4D5253",
"&  c #4E5354",
"*  c #4A4E4F",
"=  c #778F97",
"-  c #AEDAE8",
";  c #4F4E4E",
":  c #4E4E4D",
">  c gray30",
",  c #4E4D4D",
"<  c #4E4D4E",
"1  c #494848",
"2  c #72878E",
"3  c #AFDAE9",
"4  c gray31",
"5  c #565656",
"6  c #545654",
"7  c #4C5A4C",
"8  c #4B5B4B",
"9  c #4A5B4A",
"0  c #505850",
"q  c gray33",
"w  c #4A4949",
"e  c #72888F",
"r  c #ADD7E5",
"t  c #ACD8E6",
"y  c #ACDAE8",
"u  c #ADDAE8",
"i  c #9EC5D2",
"p  c #656465",
"a  c #5A695A",
"s  c #158C15",
"d  c #0A910A",
"f  c #0B910B",
"g  c #099109",
"h  c #377A37",
"j  c #666366",
"k  c #606060",
"l  c #4E4E4E",
"z  c #ADD8E5",
"x  c #ACD7E6",
"c  c #B2CAD7",
"v  c #C29EA8",
"b  c #B6C2CF",
"n  c #9EC4D1",
"m  c #4C5455",
"M  c #596959",
"N  c #0A900A",
"B  c #009600",
"V  c #009700",
"C  c #327D32",
"Z  c #73898E",
"A  c #B1DDE8",
"S  c #A5CEE7",
"D  c #B1CBD8",
"F  c #CD828B",
"G  c #DA6269",
"H  c #CD6B72",
"J  c #7B4041",
"K  c #4C4E4E",
"L  c #4A494C",
"P  c #66799A",
"I  c #7998F0",
"U  c #5B72F1",
"Y  c #708CEE",
"T  c #AFDAE5",
"R  c #ABDBE9",
"E  c #B1CDDA",
"W  c #B6A9B3",
"Q  c #794547",
"!  c #586A59",
"~  c #0A920A",
"^  c #009800",
"/  c #317E32",
"(  c #656366",
")  c #46465D",
"_  c #414ED2",
"`  c #6680F1",
"'  c #8EB2EA",
"]  c #A3CBE7",
"[  c #9DC6D3",
"{  c #4C5355",
"}  c #635F60",
"|  c #705B53",
" . c #4B6D2A",
".. c #457025",
"X. c #467025",
"o. c #457124",
"O. c #5F633E",
"+. c #6D5B5D",
"@. c #5C5D5D",
"#. c #49484C",
"$. c #718798",
"%. c #B1DEE8",
"&. c #AED9E5",
"*. c #4C4D4D",
"=. c #564B4B",
"-. c #8E3536",
";. c #983134",
":. c #983133",
">. c #724040",
",. c #72888E",
"<. c #505050",
"1. c #4F5050",
"2. c #4E5050",
"3. c #4D5050",
"4. c #504F4F",
"5. c #454342",
"6. c #71868D",
"7. c #AFDBE9",
"8. c #8EAEB9",
"9. c #AED9E7",
"0. c white",
/* pixels */
"                                                                ",
"                                                                ",
"                                                                ",
"                                                                ",
"                                                                ",
"                                                                ",
"                                                                ",
"                                                                ",
"              .   X X X X X X X X X X X X X X   .               ",
"                o O + @ @ @ @ @ @ @ @ @ @ @ + #                 ",
"              X O $ % & & & & & & & & & & & * = -               ",
"              X + % ; : > , < < < < , > , ; 1 2 3               ",
"              X @ & : 4 5 6 7 8 8 9 0 5 q > w e 3               ",
"        r t y u i & > 5 p a s d f g h j k l w e 3 z z x         ",
"        t c v b n m , 5 p M N B B V C j k l w Z A x S z         ",
"        t D F G H J K 5 p M N B B B C j k l L P I U Y T         ",
"        r t R E W Q K 5 p ! ~ ^ V ^ / ( k : ) _ ` ' ] z         ",
"            r u [ { , q } |  ...X.o.O.+.@.: #.$.%.&.z x         ",
"              X @ & ; *.=.-.;.;.;.;.:.>.K l w ,.3               ",
"              X @ & 4 <.1.2.3.3.3.3.3.2.4.<.w e 3               ",
"              X @ & 4 <.<.<.<.<.<.<.<.<.<.<.w e 3               ",
"              X + * 1 w w w w w w w w w w w 5.6.7.              ",
"                # = 2 e e e e e e e e e e e 6.8.9.              ",
"              .   - 3 3 3 3 3 3 3 3 3 3 3 3 7.9..               ",
"                                                                ",
"                                                                ",
"                                                                ",
"                                                                ",
"                                                                ",
"                                                                ",
"                                                                ",
"                                                                "
};
