/* XPM */
static char *b0e941f8f2c648c8804f328fcec87112hArUcgE48WzqeQ7q[] = {
/* columns rows colors chars-per-pixel */
"64 64 226 2 ",
"   c None",
".  c #020104",
"X  c #0B0102",
"o  c #02040A",
"O  c #0B040C",
"+  c #040A0D",
"@  c #090A0E",
"#  c #0E0B06",
"$  c #150102",
"%  c #1B0202",
"&  c #12050C",
"*  c #170A0A",
"=  c #050B12",
"-  c #0B0C14",
";  c #090812",
":  c #140C13",
">  c #180E18",
",  c #0C1316",
"<  c #0D121A",
"1  c #131317",
"2  c #13141A",
"3  c #15191D",
"4  c #1A1A1E",
"5  c #1C1418",
"6  c #161709",
"7  c #220100",
"8  c #230B0D",
"9  c #290504",
"0  c #340D0A",
"q  c #2C170D",
"w  c #3A150D",
"e  c #250E11",
"r  c #281719",
"t  c #381819",
"y  c #3B2219",
"u  c #161620",
"i  c #1B1C23",
"p  c #1A1D25",
"a  c #221E23",
"s  c #2C1C24",
"d  c #321D24",
"f  c #321D2A",
"g  c #1E2327",
"h  c #212226",
"j  c #23242B",
"k  c #2B222A",
"l  c #2B2A2D",
"z  c #292728",
"x  c #3B252B",
"c  c #362728",
"v  c #252B32",
"b  c #2B2C32",
"n  c #242732",
"m  c #322C35",
"M  c #33353A",
"N  c #393538",
"B  c #363231",
"V  c #4B1F1E",
"C  c #47221E",
"Z  c #43292C",
"A  c #4B2A2D",
"S  c #442725",
"D  c #542C2D",
"F  c #512623",
"G  c #473229",
"H  c #57322E",
"J  c #452D31",
"K  c #522E31",
"L  c #4B3234",
"P  c #46373A",
"I  c #5D3333",
"U  c #553836",
"Y  c #653B39",
"T  c #683A2D",
"R  c #474439",
"E  c #42412F",
"W  c #6B473B",
"Q  c #724B3F",
"!  c #3B3C42",
"~  c #4A3D42",
"^  c #543D42",
"/  c #6C3F42",
"(  c #663D42",
")  c #3D4147",
"_  c #424344",
"`  c #44444B",
"'  c #4B4547",
"]  c #5D4444",
"[  c #584947",
"{  c #4C4D54",
"}  c #464952",
"|  c #4D5258",
" . c #53555B",
".. c #56555B",
"X. c #624244",
"o. c #6B4542",
"O. c #634549",
"+. c #6D4C4D",
"@. c #694B46",
"#. c #724343",
"$. c #724B45",
"%. c #744C4B",
"&. c #784847",
"*. c #6B5348",
"=. c #7C534C",
"-. c #74554A",
";. c #694C51",
":. c #7A4E55",
">. c #685458",
",. c #7C5352",
"<. c #775555",
"1. c #7A665B",
"2. c #6A605E",
"3. c #565862",
"4. c #5E6268",
"5. c #63646C",
"6. c #656469",
"7. c #786968",
"8. c #6C6D75",
"9. c #656A70",
"0. c #6E7577",
"q. c #73737B",
"w. c #87534C",
"e. c #885954",
"r. c #925B54",
"t. c #8A655B",
"y. c #93635B",
"u. c #947259",
"i. c #835E66",
"p. c #8A6964",
"a. c #966B65",
"s. c #82756C",
"d. c #99756B",
"f. c #9B7975",
"g. c #A27269",
"h. c #A67B75",
"j. c #B27A6F",
"k. c #C17567",
"l. c #948677",
"z. c #858178",
"x. c #AA827B",
"c. c #B58778",
"v. c #C6887A",
"b. c #D5897C",
"n. c #D0A078",
"m. c #7B7B83",
"M. c #878489",
"N. c #9A8886",
"B. c #988B91",
"V. c #97969C",
"C. c #888B93",
"Z. c #A78883",
"A. c #BA8C86",
"S. c #A39B9C",
"D. c #B99995",
"F. c #AA948B",
"G. c #BCA696",
"H. c #A59DA4",
"J. c #9CA1A7",
"K. c #A4A4AB",
"L. c #A9A7A7",
"P. c #B6A9A8",
"I. c #BCB5AA",
"U. c #AAABB3",
"Y. c #BDB4B4",
"T. c #B7B6BB",
"R. c #AFB4BA",
"E. c #C4968A",
"W. c #D4958D",
"Q. c #C89993",
"!. c #D19E95",
"~. c #D48E86",
"^. c #C8A498",
"/. c #DCA398",
"(. c #D9B69A",
"). c #E7BE98",
"_. c #E3B68D",
"`. c #C1ADA8",
"'. c #D7ACA3",
"]. c #DEAFA7",
"[. c #C6B9BA",
"{. c #C1B0A8",
"}. c #E8B9AA",
"|. c #F2BEAD",
" X c #EBBBB4",
".X c #EFB5AD",
"XX c #C4C2BD",
"oX c #EDC6A6",
"OX c #F5CCAC",
"+X c #F7C7AA",
"@X c #FCD2AA",
"#X c #EBCBB7",
"$X c #F8C9BC",
"%X c #F6C7B7",
"&X c #FDD4B3",
"*X c #FED9B6",
"=X c #F3D3B9",
"-X c #F8D4B7",
";X c #E8D2BB",
":X c #B9BCC3",
">X c #C5BEC2",
",X c #BDC3C6",
"<X c #CBC6C5",
"1X c #C5C4C9",
"2X c #D3CDCE",
"3X c #D5C7CB",
"4X c #C9C9D1",
"5X c #D8D4DB",
"6X c #CCD0D3",
"7X c #FDC9C3",
"8X c #EAD5C4",
"9X c #FDDAC4",
"0X c #FBD5C7",
"qX c #E4D7DB",
"wX c #FAD9D1",
"eX c #F8E5D8",
"rX c #EFE2D1",
"tX c #D8D9E3",
"yX c #DFE2E7",
"uX c #E7E6EA",
"iX c #FFEFE4",
"pX c #E9E9F1",
"aX c #F2F4FD",
"sX c #FBFCFF",
"dX c #F8F8FD",
"fX c #EFF0F9",
/* pixels */
"                                                                  H.[.qXY.Y.<X1XH.3X>X                                          ",
"                                                X $ 8 t t 8 e e % P B.N.Y.[.2X2X3X[.                                            ",
"                                          ' X r x ] U +.+.+.<.+.U t q % G N.S.{.3XqX                                            ",
"                                        ' r L O.O.<.%.<.%.,.p.h.x.d.p.U S q % ] N.>.                                            ",
"                                      O r U X.+.%.,.e.%.w.h.A.A.r.e.g.A.^.t.y q % x d r                                         ",
"                                  M.& P ] O.( %.%.%.%.#.e.c.E.a.w.j.Q.'.d.a.1.<.p.7.x P                                         ",
"                                M.2 P ^ <.+.:.o.,.$.%.=.=.&.e.r.g.Q.A.h.a.p.t.p.+.d X >.                                        ",
"                                . b ~ >.i.:.&.&.%.%.=.$.=.e.w.r.e.r.y.e.=.%.%.<.] r >.                                          ",
"                              8.4 N [ ;.:.:.#./ F I %.$.o.$.=.#.#.#.&.$.:.%.X.X.^ s c                                           ",
"                            K.@ 4 P >.;.+./ / Y V w H o.o.Y H I I I ( $.Y X.( U [ ~ X                                           ",
"                            K.4 a P [ O.+.o.Y I %.$.9 C H H D D D K D D A A A U J ~ X                                           ",
"                            K.. k c x L O.Y D I Q.^.t.w 0 0 0 w K K C 0 t t S Z r & ~                                           ",
"                            U.5 s f x Z ] U H a. X0X'.g.W Q F 9 9 7 0 C C 7 7 % e r                                             ",
"                            V.; f f x x Z C I A.0X0X$X%X%X/.E.y.t.t.a.h.h.y.f.f.S [                                             ",
"                            T.> s f x Z Z U h.$X$X!.r.r.c.%X%X$X X X X$XE.&.d.wX7.P                                             ",
"                            H.> d x x Z t U D.0X'.].g.g.g.^.9X=X#X9X0X%Xx.a.`.eXs.P                                             ",
"                            T.r 8 % r e L N.N.^ L A L S q q 1.rX8XiX`.c c ^ P x s # 7.                                          ",
"                          2XS.' Z.D.Z.% 8 J P X X & X N Y.z.6 E R [ c . & . k B.>X7.z                                           ",
"                          1XU.J wX0XZ.$ $ $ . O - - o | dXXX# X . . X # . O ..sX5X_ 5                                           ",
"                          2XS.c '.v.c.x.p.7.: : - o + v  .N . R I.s.c # O O i 6.M o '                                           ",
"                          2XS.c W.k.v.|.!.D.8 X o = = o o , . R eX8X1.X : . o . . ; _                                           ",
"                            Y.t /.b.b.~.W. X%.% : @ = , , . z l.;X9XG.y X & : : 2 + _                                           ",
"                            R.1.T j./.W.W.$X X&.% X X . . r F.eXOXOX=X^.U * X O o N V.                                          ",
"                            <X<X@.a.T w./.%X7X].t.p.t.1.-.l.8X=X&X*XOX9X^.*.s.[ B m.                                            ",
"                                XXP.U W y.}.%X|.9X9X9X=X=X#X=XOX@X@X@X-X#X8XiXP.M.<X                                            ",
"                                  U.[.D.w ^.+X+X+X).OXOXoX*XOX&X).).OX*X-X8XrXN.2.                                              ",
"                                      P.*.Q c.oXoX*XOX&X&XOX+X+Xn._.).oX9X;XG.[                                                 ",
"                                      [.[.*.Q u.(.).OXOX+X&X*X@X*XOX-X*X#XG.[                                                   ",
"                                        I.{.@.G -.t.c.}.%X|.+X%X$XE.A.t.d.@.                                                    ",
"                                            uX`.L 7 7 %.e.$.=.=.<.1.*.G [                                                       ",
"                                            >X5XM.& c P c B B c c P L.uXXX                                                      ",
"                                            1X5.; M 4X4XuX1X,XuX6X6.i K.1X                                                      ",
"                                            4.o - ` H.pXfXq.} pXuX5.- M K.                                                      ",
"                                          5.o < n 2 8.sXV.+ o ..pX8.p - !                                                       ",
"                                        9.o n p p < } uX8.1 - 5.5XM.h i . M                                                     ",
"                                      4.= g u v < = ! tXR.= o C.fXq.= - p 1 M                                                   ",
"                                    0.. 3 b v < < n | dX,X+ + 4.dXV.j u o 1 4 M                                                 ",
"                                  0.= j g j < j 3 < 3.aX,Xo + 4.sXK.; - 2 i z , M                                               ",
"                                0.+ 3 i p h . 1 i = | dXT.+ . 4.sXR.o - p o i b 2 l                                             ",
"                                1 + g j 2 - a o h . { sXR.. =  .aXK.- p u l 1 2 l 2 !                                           ",
"                                + + h i 1 a M.O l i ! dXU.o = 3.aXU.o ; { q.o 2 M o _                                           ",
"                                4 3 4 a k 5 k O m 1 ! aXT.. o { dXm.2 j - l h i i 2 ..                                          ",
"                                  o 1 1 ' [.Y.r m : m yX4X- o M.dXm.u u  .uXV.z o {                                             ",
"                                  _ . N dXqXS.6.k a ` 4XaXU.8.aXuXC.p p ` 1XsXC.-                                               ",
"                                    l M.[.P.B.r 5 a M V.J.:XtX4XK.5.p M - ` 4X....                                              ",
"                                      ..B.B.5 k l l h , o 3 u - ; 2 p b i ` 6...                                                ",
"                                        : N & c B h + = < = o = < < j j h - |                                                   ",
"                                        a r . 4 h g . i , , p u p j u h 2 + }                                                   ",
"                                            . @ @ , = i + , o + l p - o o !                                                     ",
"                                          9.+ + 2 2 + o |     i ; p - p ; `                                                     ",
"                                          i + 3 j g 2 )         ; u b b + `                                                     ",
"                                          o 2 1 z M o M         o 1 b b 1                                                       ",
"                                          . g 4 b , l             o i b h N                                                     ",
"                                          2 o M b o               o 2 h   1                                                     ",
"                                          @ l i - j               . @ j M 4                                                     ",
"                                        3 = z 4 2                       b                                                       ",
"                                        @   i                           h                                                       ",
"                                        .   1                           h                                                       ",
"                                                                                                                                ",
"                                                                                                                                ",
"                                                                                                                                ",
"                                                                                                                                ",
"                                                                                                                                ",
"                                                                                                                                "
};
