/* XPM */
static char *ac49edd83d514429dbdd99fb35f3ef44bJ4SgpxHdugvHbD7[] = {
/* columns rows colors chars-per-pixel */
"64 64 4 1 ",
"  c #323232",
". c #505050",
"X c #646464",
"o c gray59",
/* pixels */
"XXXXXXXXXXX  XXXXXXXXXX  XXXXXXXXXX  XXXXXXXXXX  XXXXXXXXXXXXXXX",
"XXXXXXXXXXX  XXXXXXXXXX  XXXXXXXXXX  XXXXXXXXXX  XXXXXXXXXXXXXXX",
"XXXXXXXXXXX  XXXXXXXXXX  XXXXXXXXXX  XXXXXXXXXX  XXXXXXXXXXXXXXX",
"XXXXXXXXXXX  XXXXXXXXXX  XXXXXXXXXX  XXXXXXXXXX  XXXXXXXXXXXXXXX",
"XXXXXXXXXXX  XXXXXXXXXX  XXXXXXXXXX  XXXXXXXXXX  XXXXXXXXXXXXXXX",
"XXXXXXXXXXX  XXXXXXXXXX  XXXXXXXXXX  XXXXXXXXXX  XXXXXXXXXXXXXXX",
"XXXXXXXXXXX  XXXXXXXXXX  XXXXXXXXXX  XXXXXXXXXX  XXXXXXXXXXXXXXX",
"XXXXXXXXXXX  XXXXXXXXXX  XXXXXXXXXX  XXXXXXXXXX  XXXXXXXXXXXXXXX",
"XXXXXXXXXXX  XXXXXXXXXX  XXXXXXXXXX  XXXXXXXXXX  XXXXXXXXXXXXXXX",
"XXXXXXXXXXX  XXXXXXXXXX  XXXXXXXXXX  XXXXXXXXXX  XXXXXXXXXXXXXXX",
"XXXXXXXXXXX  XXXXXXXXXX  XXXXXXXXXX  XXXXXXXXXX  XXXXXXXXXXXXXXX",
"                                                                ",
"                                                                ",
"XXXXXXXXXXX  XXXXXXXXXX  XXXXXXXXXX  XXXXXXXXXX  XXXXXXXXXXXXXXX",
"XXXXXXXXXXX  XXXXXXXXXX  XXXXXXXXXX  XXXXXXXXXX  XXXXXXXXXXXXXXX",
"XXXXXXXXXXX  XXXXXXXXXX  XXXXXXXXXX  XXXXXXXXXX  XXXXXXXXXXXXXXX",
"XXXXXXXXXXX  XXXXXXXXXX  XXXXXXXXXX  XXXXXXXXXX  XXXXXXXXXXXXXXX",
"XXXXXXXXXXX  XXXXXXXXXX  XXXXXXXXXX  XXXXXXXXXX  XXXXXXXXXXXXXXX",
"XXXXXXXXXXX  XXXXXXXXXX  XXXXXXXXXX  XXXXXXXXXX  XXXXXXXXXXXXXXX",
"XXXXXXXXXXX  XXXXXXXXXX  XXXXXXXXXX  XXXXXXXXXX  XXXXXXXXXXXXXXX",
"XXXXXXXXXXX  XXXXXXXXXX  XXXXXXXXXX  XXXXXXXXXX  XXXXXXXXXXXXXXX",
"XXXXXXXXXXX  XXXXXXXXXX  XXXXXXXXXX  XXXXXXXXXX  XXXXXXXXXXXXXXX",
"XXXXXXXXXXX  XXXXXXXXXX  XXXXXXXXXX  XXXXXXXXXX  XXXXXXXXXXXXXXX",
"                                                                ",
"                                                                ",
"XXXXXXXXXXX  XXXXXXXXXX  XXXXXXXXXX  XXXXXXXXXX  XXXXXXXXXXXXXXX",
"XXXXXXXXXXX  XXXXXXXXXX  XXXXXXXXXX  XXXXXXXXXX  XXXXXXXXXXXXXXX",
"oooooooooooooooooooooooooooooooooooooooooooooooooooooooooooooooo",
"oooooooooooooooooooooooooooooooooooooooooooooooooooooooooooooooo",
"................................................................",
"................................................................",
"................................................................",
"................................................................",
"................................................................",
"................................................................",
"................................................................",
"................................................................",
"XXXXXXXXXXX  XXXXXXXXXX  XXXXXXXXXX  XXXXXXXXXX  XXXXXXXXXXXXXXX",
"XXXXXXXXXXX  XXXXXXXXXX  XXXXXXXXXX  XXXXXXXXXX  XXXXXXXXXXXXXXX",
"XXXXXXXXXXX  XXXXXXXXXX  XXXXXXXXXX  XXXXXXXXXX  XXXXXXXXXXXXXXX",
"XXXXXXXXXXX  XXXXXXXXXX  XXXXXXXXXX  XXXXXXXXXX  XXXXXXXXXXXXXXX",
"XXXXXXXXXXX  XXXXXXXXXX  XXXXXXXXXX  XXXXXXXXXX  XXXXXXXXXXXXXXX",
"XXXXXXXXXXX  XXXXXXXXXX  XXXXXXXXXX  XXXXXXXXXX  XXXXXXXXXXXXXXX",
"XXXXXXXXXXX  XXXXXXXXXX  XXXXXXXXXX  XXXXXXXXXX  XXXXXXXXXXXXXXX",
"XXXXXXXXXXX  XXXXXXXXXX  XXXXXXXXXX  XXXXXXXXXX  XXXXXXXXXXXXXXX",
"XXXXXXXXXXX  XXXXXXXXXX  XXXXXXXXXX  XXXXXXXXXX  XXXXXXXXXXXXXXX",
"XXXXXXXXXXX  XXXXXXXXXX  XXXXXXXXXX  XXXXXXXXXX  XXXXXXXXXXXXXXX",
"                                                                ",
"                                                                ",
"XXXXXXXXXXX  XXXXXXXXXX  XXXXXXXXXX  XXXXXXXXXX  XXXXXXXXXXXXXXX",
"XXXXXXXXXXX  XXXXXXXXXX  XXXXXXXXXX  XXXXXXXXXX  XXXXXXXXXXXXXXX",
"XXXXXXXXXXX  XXXXXXXXXX  XXXXXXXXXX  XXXXXXXXXX  XXXXXXXXXXXXXXX",
"XXXXXXXXXXX  XXXXXXXXXX  XXXXXXXXXX  XXXXXXXXXX  XXXXXXXXXXXXXXX",
"XXXXXXXXXXX  XXXXXXXXXX  XXXXXXXXXX  XXXXXXXXXX  XXXXXXXXXXXXXXX",
"XXXXXXXXXXX  XXXXXXXXXX  XXXXXXXXXX  XXXXXXXXXX  XXXXXXXXXXXXXXX",
"XXXXXXXXXXX  XXXXXXXXXX  XXXXXXXXXX  XXXXXXXXXX  XXXXXXXXXXXXXXX",
"XXXXXXXXXXX  XXXXXXXXXX  XXXXXXXXXX  XXXXXXXXXX  XXXXXXXXXXXXXXX",
"XXXXXXXXXXX  XXXXXXXXXX  XXXXXXXXXX  XXXXXXXXXX  XXXXXXXXXXXXXXX",
"XXXXXXXXXXX  XXXXXXXXXX  XXXXXXXXXX  XXXXXXXXXX  XXXXXXXXXXXXXXX",
"XXXXXXXXXXX  XXXXXXXXXX  XXXXXXXXXX  XXXXXXXXXX  XXXXXXXXXXXXXXX",
"XXXXXXXXXXX  XXXXXXXXXX  XXXXXXXXXX  XXXXXXXXXX  XXXXXXXXXXXXXXX",
"XXXXXXXXXXX  XXXXXXXXXX  XXXXXXXXXX  XXXXXXXXXX  XXXXXXXXXXXXXXX",
"XXXXXXXXXXX  XXXXXXXXXX  XXXXXXXXXX  XXXXXXXXXX  XXXXXXXXXXXXXXX",
"XXXXXXXXXXX  XXXXXXXXXX  XXXXXXXXXX  XXXXXXXXXX  XXXXXXXXXXXXXXX"
};
