/* XPM */
static char *result[] = {
/* columns rows colors chars-per-pixel */
"64 64 236 2 ",
"   c #0A090E",
".  c #050509",
"X  c #0D0C13",
"o  c #100F15",
"O  c #15141A",
"+  c #141318",
"@  c #3A351E",
"#  c #1C1C23",
"$  c #1C1F29",
"%  c #1E242B",
"&  c #23242B",
"*  c #262A31",
"=  c #292C31",
"-  c #262732",
";  c #2B3239",
":  c #3B373A",
">  c #3A312B",
",  c #211313",
"<  c #48311E",
"1  c #4D2C1D",
"2  c #6B3212",
"3  c #4C372C",
"4  c #58352A",
"5  c #443B37",
"6  c #573B32",
"7  c #452B25",
"8  c #623F27",
"9  c #4A453C",
"0  c #564638",
"q  c #55452A",
"w  c #6B462A",
"e  c #694834",
"r  c #785637",
"t  c #76502B",
"y  c #363C43",
"u  c #3B3A44",
"i  c #443E42",
"p  c #543E49",
"a  c #3D434C",
"s  c #3C4146",
"d  c #3E4552",
"f  c #44454B",
"g  c #4B454B",
"h  c #4D4C4D",
"j  c #484849",
"k  c #544B4C",
"l  c #574A46",
"z  c #444A54",
"x  c #4A4B54",
"c  c #454B57",
"v  c #554D55",
"b  c #4B5255",
"n  c #4D535D",
"m  c #4A575A",
"M  c #52545D",
"N  c #595759",
"B  c #57514D",
"V  c #624942",
"C  c #68564A",
"Z  c #795B4D",
"A  c #685957",
"S  c #725A5B",
"D  c #714C4C",
"F  c #56635F",
"G  c #68625F",
"H  c #776459",
"J  c #7B6541",
"K  c #4B5963",
"L  c #545662",
"P  c #545B64",
"I  c #5A5B64",
"U  c #565C6B",
"Y  c #5A5D69",
"T  c #5A5D71",
"R  c #635E64",
"E  c #546265",
"W  c #56646B",
"Q  c #5C636C",
"!  c #5A6667",
"~  c #5C6672",
"^  c #5D6A73",
"/  c #5B6B77",
"(  c #4D6166",
")  c #636364",
"_  c #63656C",
"`  c #6A6869",
"'  c #796964",
"]  c #646572",
"[  c #636B74",
"{  c #6A6B75",
"}  c #696D7A",
"|  c #646B79",
" . c #726A73",
".. c #6B7276",
"X. c #66727C",
"o. c #6B737C",
"O. c #68767B",
"+. c #72747D",
"@. c #76787A",
"#. c #71706D",
"$. c #953E0B",
"%. c #824019",
"&. c #A0551C",
"*. c #87593A",
"=. c #935B30",
"-. c #8C653D",
";. c #A66837",
":. c #BD7235",
">. c #C5763B",
",. c #C86C3B",
"<. c #895A55",
"1. c #875A4E",
"2. c #866349",
"3. c #936747",
"4. c #9E754E",
"5. c #876559",
"6. c #966B55",
"7. c #997755",
"8. c #A96843",
"9. c #A9774C",
"0. c #B57545",
"q. c #AC7856",
"w. c #B27956",
"e. c #B16D4D",
"r. c #965C60",
"t. c #946C68",
"y. c #8A756C",
"u. c #9A7463",
"i. c #957867",
"p. c #897775",
"a. c #977C74",
"s. c #816868",
"d. c #AA7866",
"f. c #B97C63",
"g. c #CB7D58",
"h. c #C27E60",
"j. c #B5835C",
"k. c #9C8578",
"l. c #91826D",
"z. c #AA856B",
"x. c #B48A6A",
"c. c #AB8877",
"v. c #B88A75",
"b. c #B8937A",
"n. c #AF9174",
"m. c #C9864C",
"M. c #D48858",
"N. c #CC8C57",
"B. c #E28F58",
"V. c #CA956B",
"C. c #D99967",
"Z. c #D69678",
"A. c #C88E74",
"S. c #E49B69",
"D. c #E59A74",
"F. c #D9A47B",
"G. c #D6A275",
"H. c #E5A36C",
"J. c #E8AC79",
"K. c #F4A277",
"L. c #F4B377",
"P. c #6C7581",
"I. c #6C7B84",
"U. c #6A7A86",
"Y. c #727683",
"T. c #727B84",
"R. c #737E8B",
"E. c #7A7D87",
"W. c #8A7F83",
"Q. c #74838C",
"!. c #7B848C",
"~. c #7A8589",
"^. c #7C8592",
"/. c #768991",
"(. c #7D8A93",
"). c #758A91",
"_. c #838592",
"`. c #838B94",
"'. c #868D97",
"]. c #968E97",
"[. c #8B939B",
"{. c #85929B",
"}. c #96979A",
"|. c #918988",
" X c #BA9987",
".X c #A29496",
"XX c #BA9D94",
"oX c #A59085",
"OX c #ACA19C",
"+X c #9398A3",
"@X c #9DA4A8",
"#X c #A2A6AC",
"$X c #A9ADB6",
"%X c #B5B7B9",
"&X c #B1B0B3",
"*X c #C59886",
"=X c #D9A884",
"-X c #C6A595",
";X c #DEB494",
":X c #D8A890",
">X c #E5AB87",
",X c #E8B589",
"<X c #F6B986",
"1X c #EFB190",
"2X c #CA9EA3",
"3X c #C7B3A6",
"4X c #CDB5B2",
"5X c #E9BCA5",
"6X c #F4BDA4",
"7X c #FBC089",
"8X c #F3C497",
"9X c #D2C3B4",
"0X c #F2C8B3",
"qX c #BABBC5",
"wX c #AFB7C5",
"eX c #C9C7C7",
"rX c #D6CAC8",
"tX c #C5CAD5",
"yX c #D2CDD3",
"uX c #CDD3DA",
"iX c #D9D9D9",
"pX c #E6DAD6",
"aX c #ECD5CC",
"sX c #EDE0D9",
"dX c #F0E6DC",
"fX c #D6DDE4",
"gX c #DBE2E5",
"hX c #E4E2E4",
"jX c #EBE8E9",
"kX c #F4EAEB",
"lX c #EDF0ED",
"zX c #F4EFF4",
"xX c #FEFEFD",
"cX c #F7F3F6",
"vX c #FAF7EF",
"bX c #ADD8E6",
/* pixels */
"bXbXbXbXbXbXbXbXbXbXbXbXbXbXbXbXbXbXbXbXbXbXbXbXbXbXbXbXbXbXbXbXbXbXbXbXbXbXbXbXbXbXbXbXbXbXbXbXbXbXbXbXbXbXbXbXbXbXbXbXbXbXbXbX",
"bXbXbXbXbXbXbXbXbXbXbXbXbXbXbXbXbXbXbXbXbXbXbXbXbXbXbXbXbXbXbXbXbXbXbXbXbXbXbXbXbXbXbXbXbXbXbXbXbXbXbXbXbXbXbXbXbXbXbXbXbXbXbXbX",
"bXbXbXbXbXbXbXbXbXbXbXbXbXbXbXbXbXbXbXbXbXbXbXbXbXbXbXbXbXbXbXbXbXbXbXbXbXbXbXbXbXbXbXbXbXbXbXbXbXbXbXbXbXbXbXbXbXbXbXbXbXbXbXbX",
"bXbXbXbXbXbXbXbXbXbXbXbXbXbXbXbXbXbXbXbXbXbXbXbXbXbXbXbXbXI ] _ { h bXbXbXbXbXbXbXbXbXbXbXbXbXbXbXbXbXbXbXbXbXbXbXbXbXbXbXbXbXbX",
"bXbXbXbXbXbXbXbXbXbXbXbXbXbXbXbXbXbXbXbXbXbXbXbXbXh h ` [.}.[.(.O.P.L bXbXbXbXbXbXbXbXbXbXbXbXbXbXbXbXbXbXbXbXbXbXbXbXbXbXbXbXbX",
"bXbXbXbXbXbXbXbXbXbXbXbXbXbXbXbXbXbXbXbXbXbXbXbXj N ` ....! j z n n c ; bXbXbXbXbXbXbXbXbXbXbXbXbXbXbXbXbXbXbXbXbXbXbXbXbXbXbXbX",
"bXbXbXbXbXbXbXbXbXbXbXbXbXbXbXbXbXbXbXbXbXbXbXbXf a y s % * s f d n K d - bXbXbXbXbXbXbXbXbXbXbXbXbXbXbXbXbXbXbXbXbXbXbXbXbXbXbX",
"bXbXbXbXbXbXbXbXbXbXbXbXbXbXbXbXbXbXbXbXbXbXbX- y ; = : 9 5 v v x n c a z f bXbXbXbXbXbXbXbXbXbXbXbXbXbXbXbXbXbXbXbXbXbXbXbXbXbX",
"bXbXbXbXbXbXbXbXbXbXbXbXbXbXbXbXbXbXbXbXv g g B A 0 0 0 l Z e A S B ` ` `  .k : bXbXbXbXbXbXbXbXbXbXbXbXbXbXbXbXbXbXbXbXbXbXbXbX",
"bXbXbXbXbXbXbXbXbXbXbXbXbXbXbXbXbXbXbXbXbX> 7 6 e w t r x.b.a.y.Z a.oXH A bXbXbXbXbXbXbXbXbXbXbXbXbXbXbXbXbXbXbXbXbXbXbXbXbXbXbX",
"bXbXbXbXbXbXbXbXbXbXbXbXbXbXbXbXbXbXbXbXbXbXbXf.e.8.2 ;.,X=Xn.J z.0X XD bXbXbXbXbXbXbXbXbXbXbXbXbXbXbXbXbXbXbXbXbXbXbXbXbXbXbXbX",
"bXbXbXbXbXbXbXbXbXbXbXbXbXbXbXbXbXbXbXbXbXbXbXv.f.M.0.M.<X=X8Xb.z.5Xb.i.bXbXbXbXbXbXbXbXbXbXbXbXbXbXbXbXbXbXbXbXbXbXbXbXbXbXbXbX",
"bXbXbXbXbXbXbXbXbXbXbXbXbXbXbXbXbXbXbXbXbXbXbX6.d.h.D.D.J.7X8X,XF.:XA.i.i.bXbXbXbXbXbXbXbXbXbXbXbXbXbXbXbXbXbXbXbXbXbXbXbXbXbXbX",
"bXbXbXbXbXbXbXbXbXbXbXbXbXbXbXbXbXbXh ) N ) }.4X*X3.A.>XH.7Xm.:.>XF.:X-XbXbXbXbXbXbXbXbXbXbXbXbXbXbXbXbXbXbXbXbXbXbXbXbXbXbXbXbX",
"bXbXbXbXbXbXbXbXbXbXbXbXbXbX}.&XeXqXeX'.] ..R yXaXu.w.=XS.J.K.g.;.q.A.c.a.bXbXbXbXbXbXbXbXbXbXbXbXbXbXbXbXbXbXbXbXbXbXbXbXbXbXbX",
"bXbXbXbXbXbXbXbXbXbXbXbX}.iXlXzXlXlXuXgX[.P.T v aXaXt.3.V.J.L.1X<X1X-X5.p.].bXbXbXbXbXbXbXbXbXbXbXbXbXbXbXbXbXbXbXbXbXbXbXbXbXbX",
"bXbXbXbXbXbXbXbXbXbXbX@.pXlXjXkXhXlXjX@XuX^.]  .p.rXsX*X6.q.*X6X;X5XXXD W.qXW.bXbXbXbXbXbXbXbXbXbXbXbXbXbXbXbXbXbXbXbXbXbXbXbXbX",
"bXbXbXbXbXbXbXbXbXbXE.%XjXhXhXjXhXhXxX#XuX#X[ _ F @XsXsX4X*Xh.d.d.2X|.A Y.qXtXY bXbXbXbXbXbXbXbXbXbXbXbXbXbXbXbXbXbXbXbXbXbXbXbX",
"bXbXbXbXbXbXbXbXbXbX`.yXgXzXlXjXjXcXxX$XeX$XO...@.F %XvXkX2Xr.r.4XxX&XR T wXuX| bXbXbXbXbXbXbXbXbXbXbXbXbXbXbXbXbXbXbXbXbXbXbXbX",
"bXbXbXbXbXbXbXbXbXbX}.gXcXcXzXzXzXcXxX%XuX#XM _ F m |.eX4Xt.<.D t.3XW.R | wXuX+.bXbXbXbXbXbXbXbXbXbXbXbXbXbXbXbXbXbXbXbXbXbXbXbX",
"bXbXbXbXbXbXbXbXbXbX{.qX%X&X%X%XqXwXtX(.gX].u p f a B G XXt.D e a.y., k M `.%X+.v ) bXb bXbXbXbXbXbXbXbXbXi : bXbXbXbXbXbXbXbXbX",
"bXbXbXbXbXbXbXbXbXbX~.qXyXiXpXdXgXuXuX&XqXN p A A H G A A Z Z C S ' ' #.) ` @.k 5 A B N F b B l 5 : g g i g f { h bXbXbXbXbXbXbX",
"bXbXbXbXbXbXbXbXbXbX@.eXpXdXaXaXdXvXiXrXa.6 4 4 1 4 1 < 3 5 > 5 9 9 j 9 > j C 3 6 7 < q q @ 3 6 3 bXbXbXbX: : bXbXbXbXbXbXbXbXbX",
"bXbXbXbXbXbXbXbXbXbXl.n. Xn.b.b. Xn. Xz.6.3.*.1.-.t *.6.r 0 0 g l 9 G G 9 C XX6.2 3.2.r J l.z.<.oXbXbXbXbXbXbXbXbXbXbXbXbXbXbXbX",
"bXbXbXbXbXbXbXbXbXbX*.x.F.G.;XF.=X=X,XV.9.j.-.-.-.4.F.,Xf.6.d.<.H l G l.9 i.5XA.8.g.S.=.e.,X1X:X5.bXbXbXbXbXbXbXbXbXbXbXbXbXbXbX",
"bXbXbXbXbXbXbXbXr *.9.N.H.L.C.G.<X7X7X7X8X>Xw 8 w x.1XH.D.K.J.6X X0 A G 3 2.>X1Xg.,.B.&.N.Z.*Xd.bXbXbXbXbXbXbXbXbXbXbXbXbXbXbXbX",
"bXbXbXbXbXbXbXbX*.;.m.:.B.L.H.C.L.7X<X7X8Xx.7.XX2Xt.A.K.H.S.C.V.2.0 s.oXl 1.0XZ.g.B.$.g.C.>Xv.u.bXbXbXbXbXbXbXbXbXbXbXbXbXbXbXbX",
"bXbXbXbXbXbXbXbX=.;.m.>.>.N.B.J.J.J.,XJ.,X4.i.-X:X*.w.<XS.C.,X9.7.p.H oXV V v.r.N.8.2 V.=Xb.5.bXbXbXbXbXbXbXbXbXbXbXbXbXbXbXbXbX",
"bXbXbXbXbXbXbXbX3.=.N.H.m.0.=.q.b. XA.x.x.x.w q e 7.=X>XF.F.c.H 3XOXC ' l l bXbXbXbX6.6.1.k.bXbXbXbXbXbXbXbXbXbXbXbXbXbXbXbXbXbX",
"bXbXbXbXbXbXbXbX8 j.G.j.8.*.*X2.i.oX3X3X9Xl.l C C 5.u.u.t.c.s..XcXoXj N j 5 bXbXbXbXbXbXbXbXbXbXbXbXbXbXbXbXbXbXbXbXbXbXbXbXbXbX",
"bXbXbXbXbXbXbXbX2.r 2.w 2.bX4X' G h #.@.` ) ) R ` S S p.S A p  .yX}.k N g : bXbXbXbXbXbXbXbXbXbXbXbXbXbXbXbXbXbXbXbXbXbXbXbXbXbX",
"bXbXbXbXbXbXbXbXbXbXbXbXbXbX|.M ) x P ] n _ { v I { ! ) b G R v R bXbXbXbXbXbXbXbXbXbXbXbXbXbXbXbXbXbXbXbXbXbXbXbXbXbXbXbXbXbXbX",
"bXbXbXbXbXbXbXbXbXbXbXbXbXbXL Q { ] ] ] T T T / m ( F ! m b ! ) I bXbXbXbXbXbXbXbXbXbXbXbXbXbXbXbXbXbXbXbXbXbXbXbXbXbXbXbXbXbXbX",
"bXbXbXbXbXbXbXbXbXbXbXbXbXbXd P.P.Y.R.R.R.U.P.R.( ( Q.( E O.O.@.} M bXbXbXbXbXbXbXbXbXbXbXbXbXbXbXbXbXbXbXbXbXbXbXbXbXbXbXbXbXbX",
"bXbXbXbXbXbXbXbXbXbXbXbXbXbXd ] } ..R.R.P.U.R.U.m ( O.E ! ~.!.Y.Q x bXbXbXbXbXbXbXbXbXbXbXbXbXbXbXbXbXbXbXbXbXbXbXbXbXbXbXbXbXbX",
"bXbXbXbXbXbXbXbXbXbXbXbXbXbXa Q o.} Y.R.P.Y.R.L d ^ ^ ^ ! ! { T { Y K bXbXbXbXbXbXbXbXbXbXbXbXbXbXbXbXbXbXbXbXbXbXbXbXbXbXbXbXbX",
"bXbXbXbXbXbXbXbXbXbXbXbXbXbXs W o.+.~.`.(.^.^./ ( O.P P | Y.Y.Y._.~.E b bXbXbXbXbXbXbXbXbXbXbXbXbXbXbXbXbXbXbXbXbXbXbXbXbXbXbXbX",
"bXbXbXbXbXbXbXbXbXbXbXbXbXbXn W X.+.~.~.(.(.(.P.d K M _ | W.'._.`._._.[ b bXbXbXbXbXbXbXbXbXbXbXbXbXbXbXbXbXbXbXbXbXbXbXbXbXbXbX",
"bXbXbXbXbXbXbXbXbXbXbXbXbXbX! [ [ Q./.(./.Q.{.X.n bXbXY } } E.E.!.(.(.'.[ y bXbXbXbXbXbXbXbXbXbXbXbXbXbXbXbXbXbXbXbXbXbXbXbXbXbX",
"bXbXbXbXbXbXbXbXbXbXbXbXbXbXP ] X.U.Q.Q./.(./.P.Q bXbXbXL Y.P.R.`.`.(.!.`.Q a bXbXbXbXbXbXbXbXbXbXbXbXbXbXbXbXbXbXbXbXbXbXbXbXbX",
"bXbXbXbXbXbXbXbXbXbXbXbXbXbX~ ~ ^ U.).Q././.).X.E bXbXbXbXL P.^ P.~.!.(.`.!.[ s bXbXbXbXbXbXbXbXbXbXbXbXbXbXbXbXbXbXbXbXbXbXbXbX",
"bXbXbXbXbXbXbXbXbXbXbXbXbXbXn ^ U.X.Q.).).).(.X.P bXbXbXbXbXU O.X.Q.Q.I.(.!.[ L bXbXbXbXbXbXbXbXbXbXbXbXbXbXbXbXbXbXbXbXbXbXbXbX",
"bXbXbXbXbXbXbXbXbXbXbXbXbXbXc ~ / X.X./ U.Q./ ( bXbXbXbXbXbXbXn W ( ^ ^ W K L K bXbXbXbXbXbXbXbXbXbXbXbXbXbXbXbXbXbXbXbXbXbXbXbX",
"bXbXbXbXbXbXbXbXbXbXbXbXbXbXM } P./ / / W E W z bXbXbXbXbXbXbX~ W ! ^ ^ ^ W | L bXbXbXbXbXbXbXbXbXbXbXbXbXbXbXbXbXbXbXbXbXbXbXbX",
"bXbXbXbXbXbXbXbXbXbXbXbXbXx ] Y.X./ U.X.[ ....I bXbXbXbXbXbXL ] X.^ [ / I.(.[ L bXbXbXbXbXbXbXbXbXbXbXbXbXbXbXbXbXbXbXbXbXbXbXbX",
"bXbXbXbXbXbXbXbXbXbXbXbXN M E.[ ~ Q.R.(.^.^ b bXbXbXbXbXbXbXT P.O.X.O.~.`.`...x bXbXbXbXbXbXbXbXbXbXbXbXbXbXbXbXbXbXbXbXbXbXbXbX",
"bXbXbXbXbXbXbXbXbXbXbXbXP ..} } R.{.^.!.{ I bXbXbXbXbXbXbXx T { [ X.Q.(.!.Q.Y bXbXbXbXbXbXbXbXbXbXbXbXbXbXbXbXbXbXbXbXbXbXbXbXbX",
"bXbXbXbXbXbXbXbXbXbXbXb o.X./ ^.^./.`.X.Y ! bXbXbXbXbXbXbXL } Y.T.Q.~.`.`...K bXbXbXbXbXbXbXbXbXbXbXbXbXbXbXbXbXbXbXbXbXbXbXbXbX",
"bXbXbXbXbXbXbXbXbXbXx _ O.] I.{.!.Q.T.Q ! bXbXbXbXbXbXbXbXY P.| @.~.(.~.!.[ c bXbXbXbXbXbXbXbXbXbXbXbXbXbXbXbXbXbXbXbXbXbXbXbXbX",
"bXbXbXbXbXbXbXbXbXbX_ [ [ ~.`.Q.~.(.T.n bXbXbXbXbXbXbXbXc I +.P.(.`.~.(.~.] bXbXbXbXbXbXbXbXbXbXbXbXbXbXbXbXbXbXbXbXbXbXbXbXbXbX",
"bXbXbXbXbXbXbXbXbXx M Y P [ I.^ X...W b bXbXbXbXbXbXbXbXx L Y U E ! E Q L L bXbXbXbXbXbXbXbXbXbXbXbXbXbXbXbXbXbXbXbXbXbXbXbXbXbX",
"bXbXbXbXbXbXbXbXu { { ] | P.I.o.Q E.P bXbXbXbXbXbXbXbXM ] } [ T.~.~.!.'.!.} bXbXbXbXbXbXbXbXbXbXbXbXbXbXbXbXbXbXbXbXbXbXbXbXbXbX",
"bXbXbXbXbXbXbXbXi Y ] Y.^.+X'.[.#X{.b bXbXbXbXbXbXbXbXI [ _ { +X`.`.[.@.Q P bXbXbXbXbXbXbXbXbXbXbXbXbXbXbXbXbXbXbXbXbXbXbXbXbXbX",
"bXbXbXbXbXbXbXbX- W._.E.Y.E.U c f z j bXbXbXbXbXbXbXbX= } }.[ ! P b s ; u z bXbXbXbXbXbXbXbXbXbXbXbXbXbXbXbXbXbXbXbXbXbXbXbXbXbX",
"bXbXbXbXbXbXbXbXo = u i L n - $ = # O bXbXbXbXbXbXbXbXO $ & * * $ * % # # # # bXbXbXbXbXbXbXbXbXbXbXbXbXbXbXbXbXbXbXbXbXbXbXbXbX",
"bXbXbXbXbXbXbXbX.     X O X   # o       bXbXbXbXbXbXbX. o + .   X X O O o O # & bXbXbXbXbXbXbXbXbXbXbXbXbXbXbXbXbXbXbXbXbXbXbXbX",
"bXbXbXbXbXbXbXbXbXbXbXbXbXbXbXbXbXbXbXbXbXbXbXbXbXbXbXbXbXbXbXbXbXbXbXbXbXbXbXbXbXbXbXbXbXbXbXbXbXbXbXbXbXbXbXbXbXbXbXbXbXbXbXbX",
"bXbXbXbXbXbXbXbXbXbXbXbXbXbXbXbXbXbXbXbXbXbXbXbXbXbXbXbXbXbXbXbXbXbXbXbXbXbXbXbXbXbXbXbXbXbXbXbXbXbXbXbXbXbXbXbXbXbXbXbXbXbXbXbX",
"bXbXbXbXbXbXbXbXbXbXbXbXbXbXbXbXbXbXbXbXbXbXbXbXbXbXbXbXbXbXbXbXbXbXbXbXbXbXbXbXbXbXbXbXbXbXbXbXbXbXbXbXbXbXbXbXbXbXbXbXbXbXbXbX",
"bXbXbXbXbXbXbXbXbXbXbXbXbXbXbXbXbXbXbXbXbXbXbXbXbXbXbXbXbXbXbXbXbXbXbXbXbXbXbXbXbXbXbXbXbXbXbXbXbXbXbXbXbXbXbXbXbXbXbXbXbXbXbXbX",
"bXbXbXbXbXbXbXbXbXbXbXbXbXbXbXbXbXbXbXbXbXbXbXbXbXbXbXbXbXbXbXbXbXbXbXbXbXbXbXbXbXbXbXbXbXbXbXbXbXbXbXbXbXbXbXbXbXbXbXbXbXbXbXbX",
"bXbXbXbXbXbXbXbXbXbXbXbXbXbXbXbXbXbXbXbXbXbXbXbXbXbXbXbXbXbXbXbXbXbXbXbXbXbXbXbXbXbXbXbXbXbXbXbXbXbXbXbXbXbXbXbXbXbXbXbXbXbXbXbX",
"bXbXbXbXbXbXbXbXbXbXbXbXbXbXbXbXbXbXbXbXbXbXbXbXbXbXbXbXbXbXbXbXbXbXbXbXbXbXbXbXbXbXbXbXbXbXbXbXbXbXbXbXbXbXbXbXbXbXbXbXbXbXbXbX",
"bXbXbXbXbXbXbXbXbXbXbXbXbXbXbXbXbXbXbXbXbXbXbXbXbXbXbXbXbXbXbXbXbXbXbXbXbXbXbXbXbXbXbXbXbXbXbXbXbXbXbXbXbXbXbXbXbXbXbXbXbXbXbXbX"
};
